<svg viewBox="0 0 511 596" fill="none" xmlns="http://www.w3.org/2000/svg">
	<g filter="url(#filter0_d_2807_70164)">
		<path d="M275.99 367.41C275.99 367.41 299.53 394.9 308.24 418.58C311.83 428.35 312.11 461.57 256.65 461.57C201.19 461.57 201.46 428.36 205.06 418.58C213.77 394.89 237.31 367.41 237.31 367.41H275.99Z" fill="#FFD346" stroke="black" stroke-width="4" stroke-miterlimit="10"/>
		<path d="M219.92 391.029C219.92 391.029 229.59 380.199 255.92 380.199C282.25 380.199 292.59 389.529 292.59 389.529L275.76 363.859L235.93 365.529L219.92 391.029Z" fill="#FBBC2F"/>
		<path d="M208.92 411.531C208.92 411.531 194.92 451.531 255.92 451.531H258.2C319.2 451.531 305.2 411.531 305.2 411.531C305.2 411.531 319.25 434.641 296.59 451.751C273.92 468.861 227.92 457.751 227.92 457.751C227.92 457.751 191.69 445.301 208.92 411.531Z" fill="#FBBC2F"/>
		<path d="M275.99 367.41C275.99 367.41 299.53 394.9 308.24 418.58C311.83 428.35 312.11 461.57 256.65 461.57C201.19 461.57 201.46 428.36 205.06 418.58C213.77 394.89 237.31 367.41 237.31 367.41H275.99Z" stroke="black" stroke-width="4" stroke-miterlimit="10"/>
		<path d="M259.18 227.461C259.18 227.461 297.65 227.141 315.08 257.771C332.51 288.401 325.07 311.301 318.69 327.421C310.19 346.121 314.65 347.411 307.64 357.951C294.04 375.581 255.57 375.151 255.57 375.151C255.57 375.151 217.1 375.581 203.5 357.951C196.49 347.421 200.95 346.131 192.45 327.421C186.07 311.301 178.64 288.401 196.06 257.771C213.48 227.141 251.96 227.461 251.96 227.461H259.18Z" fill="#FFD346" stroke="black" stroke-width="4" stroke-miterlimit="10"/>
		<path d="M289.75 369.993C290.7 369.883 260.73 378.803 228.48 371.713C196.23 364.623 197.09 338.173 197.09 338.173C197.09 338.173 191.07 322.693 189.14 317.963C187.21 313.233 175.811 279.053 206.771 243.793C206.771 243.793 181.15 284.753 203.68 328.853C205.71 332.823 207.35 336.973 208.53 341.263C211.69 352.743 225.89 377.683 289.75 369.993Z" fill="#FBBC2F"/>
		<path d="M259.18 227.461C259.18 227.461 297.65 227.141 315.08 257.771C332.51 288.401 325.07 311.301 318.69 327.421C310.19 346.121 314.65 347.411 307.64 357.951C294.04 375.581 255.57 375.151 255.57 375.151C255.57 375.151 217.1 375.581 203.5 357.951C196.49 347.421 200.95 346.131 192.45 327.421C186.07 311.301 178.64 288.401 196.06 257.771C213.48 227.141 251.96 227.461 251.96 227.461H259.18Z" stroke="black" stroke-width="4" stroke-miterlimit="10"/>
		<path d="M227.25 411.051C227.25 411.051 257.25 440.631 287.25 411.051C287.25 411.051 279.22 431.331 257.67 431.331C236.12 431.331 227.25 411.051 227.25 411.051Z" fill="#FBBC2F"/>
		<path d="M227.705 353.692C241.566 350.029 248.229 329.749 242.586 308.397C236.943 287.044 221.131 272.704 207.27 276.367C193.409 280.03 186.746 300.31 192.389 321.662C198.032 343.015 213.844 357.355 227.705 353.692Z" fill="#FBBC2F"/>
		<path d="M227.665 352.698C240.939 349.19 247.596 330.815 242.533 311.657C237.47 292.499 222.605 279.812 209.331 283.32C196.057 286.828 189.4 305.203 194.463 324.361C199.526 343.519 214.391 356.206 227.665 352.698Z" fill="white" stroke="black" stroke-width="3" stroke-miterlimit="9.9999"/>
		<path d="M227.687 343.637C238.764 341.837 245.862 328.794 243.541 314.506C241.219 300.217 230.356 290.093 219.279 291.893C208.201 293.693 201.103 306.736 203.425 321.024C205.747 335.313 216.609 345.437 227.687 343.637Z" fill="#0022A0"/>
		<path d="M226 338.02C218.97 338.02 212.19 330.21 210.57 320.25C208.82 309.47 213.62 299.35 221.05 298.14C221.55 298.06 222.05 298.02 222.55 298.02C229.58 298.02 236.36 305.83 237.98 315.79C238.89 321.38 238.13 326.84 235.84 331.16C233.83 334.96 230.87 337.35 227.5 337.9C227 337.98 226.5 338.02 226 338.02Z" fill="black"/>
		<path d="M217.579 312.862C221.937 312.862 225.469 309.33 225.469 304.972C225.469 300.615 221.937 297.082 217.579 297.082C213.222 297.082 209.689 300.615 209.689 304.972C209.689 309.33 213.222 312.862 217.579 312.862Z" fill="#0022A0"/>
		<path d="M217.579 311.729C213.859 311.729 210.829 308.699 210.829 304.979C210.829 301.249 213.859 298.219 217.579 298.219C221.309 298.219 224.339 301.249 224.339 304.979C224.339 308.699 221.309 311.729 217.579 311.729Z" fill="white"/>
		<path d="M229.58 333.979C233.203 333.979 236.14 331.042 236.14 327.419C236.14 323.796 233.203 320.859 229.58 320.859C225.957 320.859 223.02 323.796 223.02 327.419C223.02 331.042 225.957 333.979 229.58 333.979Z" fill="#2A2D51"/>
		<path d="M318.362 321.685C324.005 300.333 317.343 280.053 303.481 276.39C289.62 272.727 273.809 287.067 268.166 308.42C262.523 329.772 269.185 350.052 283.046 353.715C296.908 357.378 312.719 343.038 318.362 321.685Z" fill="#FBBC2F"/>
		<path d="M316.309 324.394C321.372 305.236 314.716 286.861 301.442 283.353C288.168 279.845 273.303 292.532 268.24 311.69C263.177 330.848 269.833 349.223 283.107 352.731C296.381 356.239 311.246 343.552 316.309 324.394Z" fill="white" stroke="black" stroke-width="3" stroke-miterlimit="9.9999"/>
		<path d="M307.416 320.994C309.737 306.706 302.639 293.663 291.562 291.863C280.484 290.063 269.622 300.187 267.3 314.476C264.978 328.764 272.076 341.807 283.154 343.607C294.231 345.407 305.094 335.283 307.416 320.994Z" fill="#0022A0"/>
		<path d="M284.76 338.02C291.79 338.02 298.57 330.21 300.19 320.25C301.94 309.47 297.14 299.35 289.71 298.14C289.21 298.06 288.71 298.02 288.21 298.02C281.18 298.02 274.4 305.83 272.78 315.79C271.87 321.38 272.63 326.84 274.92 331.16C276.93 334.96 279.89 337.35 283.26 337.9C283.75 337.98 284.26 338.02 284.76 338.02Z" fill="black"/>
		<path d="M284.06 312.862C288.417 312.862 291.95 309.33 291.95 304.972C291.95 300.615 288.417 297.082 284.06 297.082C279.702 297.082 276.17 300.615 276.17 304.972C276.17 309.33 279.702 312.862 284.06 312.862Z" fill="#0022A0"/>
		<path d="M284.06 311.729C280.34 311.729 277.31 308.699 277.31 304.979C277.31 301.249 280.34 298.219 284.06 298.219C287.78 298.219 290.81 301.249 290.81 304.979C290.82 308.699 287.79 311.729 284.06 311.729Z" fill="white"/>
		<path d="M227.665 352.698C240.939 349.19 247.596 330.815 242.533 311.657C237.47 292.499 222.605 279.812 209.331 283.32C196.057 286.828 189.4 305.203 194.463 324.361C199.526 343.519 214.391 356.206 227.665 352.698Z" stroke="black" stroke-width="3" stroke-miterlimit="9.9999"/>
		<path d="M289.81 333.53C293.433 333.53 296.37 330.593 296.37 326.97C296.37 323.347 293.433 320.41 289.81 320.41C286.187 320.41 283.25 323.347 283.25 326.97C283.25 330.593 286.187 333.53 289.81 333.53Z" fill="#2A2D51"/>
		<path d="M316.309 324.394C321.372 305.236 314.716 286.861 301.442 283.353C288.168 279.845 273.303 292.532 268.24 311.69C263.177 330.848 269.833 349.223 283.107 352.731C296.381 356.239 311.246 343.552 316.309 324.394Z" stroke="black" stroke-width="3" stroke-miterlimit="9.9999"/>
		<path d="M266.69 365.368C278.75 360.738 273.25 354.358 273.25 354.358C273.25 354.358 265.75 351.528 262.58 345.028C259.41 338.528 255.25 339.028 255.25 339.028C255.25 339.028 251.08 338.528 247.92 345.028C244.75 351.528 237.25 354.358 237.25 354.358C237.25 354.358 231.75 360.738 243.81 365.368C251.15 368.188 259.35 368.188 266.69 365.368Z" fill="#ED7601" stroke="black" stroke-width="3" stroke-miterlimit="10"/>
		<path d="M247.689 350.648C248.819 349.918 250.129 349.598 251.399 349.358C252.679 349.128 253.959 349.018 255.249 349.008C256.539 348.998 257.819 349.108 259.099 349.338C260.359 349.578 261.679 349.898 262.809 350.648L258.999 350.898C257.749 350.968 256.499 351.018 255.249 351.008C253.999 351.018 252.749 350.978 251.499 350.908C250.249 350.858 249.009 350.728 247.689 350.648Z" fill="black"/>
		<path d="M273.42 360.529C273.42 360.529 266.75 367.199 255.75 367.199C244.75 367.199 236.08 363.029 236.25 356.699L239.92 353.199C239.92 353.199 245.92 347.699 248.09 344.199C248.09 344.199 244.92 352.869 240.59 356.529C236.26 360.189 249.59 363.359 255.59 363.359C267.42 363.359 273.42 360.529 273.42 360.529Z" fill="#D64422"/>
		<path d="M274.25 355.2C273.01 356.19 271.56 356.9 270.06 357.48C268.55 358.03 266.96 358.42 265.34 358.57C263.72 358.77 262.05 358.72 260.41 358.45C258.76 358.23 257.18 357.68 255.64 357.05H256.86C255.32 357.68 253.74 358.23 252.09 358.45C250.45 358.72 248.79 358.77 247.16 358.57C245.53 358.41 243.94 358.03 242.44 357.48C240.94 356.9 239.5 356.19 238.25 355.2C239.78 355.59 241.28 355.89 242.79 356.05C244.29 356.25 245.78 356.28 247.25 356.23C247.98 356.22 248.71 356.11 249.43 356.05C250.14 355.91 250.87 355.85 251.56 355.66C252.97 355.38 254.31 354.86 255.64 354.32L256.25 354.07L256.86 354.32C258.18 354.86 259.53 355.38 260.94 355.67C261.64 355.87 262.36 355.93 263.07 356.07C263.79 356.12 264.52 356.24 265.25 356.25C266.72 356.3 268.21 356.26 269.71 356.06C271.22 355.9 272.72 355.59 274.25 355.2Z" fill="black"/>
		<path d="M266.69 365.368C278.75 360.738 273.25 354.358 273.25 354.358C273.25 354.358 265.75 351.528 262.58 345.028C259.41 338.528 255.25 339.028 255.25 339.028C255.25 339.028 251.08 338.528 247.92 345.028C244.75 351.528 237.25 354.358 237.25 354.358C237.25 354.358 231.75 360.738 243.81 365.368C251.15 368.188 259.35 368.188 266.69 365.368Z" stroke="black" stroke-width="3" stroke-miterlimit="10"/>
		<path d="M227.38 382.98C225.55 383.95 194.16 400.95 194.31 419.89C194.46 438.83 224.1 434.01 224.1 434.01L227.38 382.98Z" fill="#FBBC2F" stroke="black" stroke-width="4" stroke-miterlimit="10"/>
		<path d="M285.64 382.98C287.47 383.95 318.86 400.95 318.71 419.89C318.56 438.83 288.92 434.01 288.92 434.01L285.64 382.98Z" fill="#FBBC2F" stroke="black" stroke-width="4" stroke-miterlimit="10"/>
		<path d="M217.92 368.191C217.92 368.191 183.25 400.411 197.48 433.521C211.7 466.631 256.15 463.741 256.15 463.741C256.15 463.741 300.59 466.631 314.82 433.521C329.04 400.411 294.38 368.191 294.38 368.191C294.38 368.191 278.6 375.191 255.94 375.191C233.25 375.191 217.92 368.191 217.92 368.191Z" fill="#A9E0D6" stroke="black" stroke-width="4" stroke-miterlimit="10"/>
		<path d="M207.689 380.191C207.689 380.191 234.359 416.631 318.579 419.081" stroke="black" stroke-width="4" stroke-miterlimit="10"/>
		<path d="M193.92 409.531C193.92 409.531 229.7 455.751 301.7 450.641" stroke="black" stroke-width="4" stroke-miterlimit="10"/>
		<path d="M304.36 379.75C304.36 379.75 287.47 401.31 256.8 409.75" stroke="black" stroke-width="4" stroke-miterlimit="10"/>
		<path d="M208.58 387.973C208.58 387.973 233.47 418.643 308.8 423.973C308.8 423.973 308.71 424.253 308.54 424.763C303.88 437.893 290.8 446.123 276.93 444.763C262.18 443.323 239.22 438.713 217.89 424.623C211.41 420.343 207.13 413.353 206.45 405.613C206.03 400.813 206.41 394.883 208.58 387.973Z" fill="#D7FFF7"/>
		<path d="M205.25 426.863C205.25 426.863 231.69 453.973 277.92 454.643C277.92 454.643 253.92 464.203 227.25 453.973C203.69 443.973 205.25 426.863 205.25 426.863Z" fill="#D7FFF7"/>
		<path d="M221.25 374.863C221.25 374.863 255.03 389.083 290.81 374.863C290.81 374.863 293.03 392.643 256.37 403.753C256.36 403.753 222.36 393.303 221.25 374.863Z" fill="#D7FFF7"/>
		<path d="M303.03 389.301C303.03 389.301 293.25 402.631 272.14 409.741C272.14 409.741 283.98 412.021 292.48 412.931C295.93 413.301 299.36 411.781 301.27 408.881C303.86 404.981 306.2 398.451 303.03 389.301Z" fill="#D7FFF7"/>
		<path d="M218.82 369.422C218.82 369.422 230.1 392.202 256.14 401.752H256.79C282.83 392.202 294.11 369.422 294.11 369.422L297.8 373.982C297.8 373.982 287.82 396.652 256.03 406.202C256.03 406.202 228.58 397.412 214.8 373.762L218.82 369.422Z" fill="#59FFE6" stroke="black" stroke-width="3" stroke-miterlimit="10"/>
		<path d="M273.81 416.582C273.81 413.662 270.84 411.092 266.32 409.562C266.35 409.242 266.37 408.912 266.37 408.582C266.37 402.782 261.99 398.082 256.59 398.082C251.19 398.082 246.81 402.782 246.81 408.582C246.81 408.912 246.83 409.242 246.86 409.562C242.34 411.092 239.37 413.662 239.37 416.582C239.37 420.162 243.85 423.222 250.19 424.482C249.93 426.042 249.48 427.692 248.7 429.242C245.88 434.822 249.48 441.312 255.82 441.312H257.05C263.38 441.312 266.99 434.822 264.17 429.242C263.4 427.722 262.95 426.082 262.69 424.542C269.17 423.322 273.81 420.222 273.81 416.582ZM249.81 408.582C249.81 404.562 252.84 401.302 256.59 401.302C260.33 401.302 263.37 404.562 263.37 408.582C263.37 408.642 263.36 408.692 263.36 408.752C261.28 408.312 258.99 408.072 256.59 408.072C254.19 408.072 251.9 408.312 249.82 408.752C249.81 408.702 249.81 408.642 249.81 408.582Z" fill="#FAF600" stroke="black" stroke-width="4" stroke-miterlimit="10"/>
		<path d="M263.36 408.582C263.36 412.602 260.33 415.862 256.58 415.862C252.84 415.862 249.8 412.602 249.8 408.582C249.8 404.562 252.83 401.302 256.58 401.302C260.33 401.302 263.36 404.562 263.36 408.582ZM256.58 398.082C251.18 398.082 246.8 402.782 246.8 408.582C246.8 414.382 251.18 419.082 256.58 419.082C261.98 419.082 266.36 414.382 266.36 408.582C266.36 402.782 261.98 398.082 256.58 398.082Z" fill="#B1C4C0" stroke="black" stroke-miterlimit="10"/>
		<path d="M256.579 425.09C266.09 425.09 273.799 421.28 273.799 416.58C273.799 411.88 266.09 408.07 256.579 408.07C247.069 408.07 239.359 411.88 239.359 416.58C239.359 421.28 247.069 425.09 256.579 425.09Z" fill="#59FFE6" stroke="black" stroke-miterlimit="10"/>
		<path d="M256.14 401.74H256.79C282.83 392.19 294.11 369.41 294.11 369.41L297.8 373.97C297.8 373.97 287.82 396.64 256.03 406.19" fill="#59FFE6"/>
		<path d="M256.14 401.74H256.79C282.83 392.19 294.11 369.41 294.11 369.41L297.8 373.97C297.8 373.97 287.82 396.64 256.03 406.19" stroke="black" stroke-width="3" stroke-miterlimit="10"/>
		<path d="M256.58 425.09C265.173 425.09 272.14 421.88 272.14 417.92C272.14 413.96 265.173 410.75 256.58 410.75C247.986 410.75 241.02 413.96 241.02 417.92C241.02 421.88 247.986 425.09 256.58 425.09Z" fill="#C0FFF4" stroke="black" stroke-miterlimit="10"/>
		<path d="M257.03 441.3C263.36 441.3 266.97 434.81 264.15 429.23C261.6 424.18 262.5 417.91 262.5 417.91C262.4 416.29 259.77 415.02 256.64 415.02C256.55 415.02 256.46 415.02 256.38 415.02H256.47C256.38 415.02 256.3 415.02 256.21 415.02C253.08 415.02 250.45 416.29 250.35 417.91C250.35 417.91 251.25 424.18 248.7 429.23C245.88 434.81 249.48 441.3 255.82 441.3H257.03Z" fill="#FFCC4D" stroke="black" stroke-miterlimit="10"/>
		<path d="M259.36 425.721V420.531C259.36 418.871 258.02 417.531 256.36 417.531C254.7 417.531 253.36 418.871 253.36 420.531V425.711C253.36 426.571 253.02 427.421 252.36 427.961C250.99 429.081 250.1 430.751 250.03 432.641C249.91 436.121 252.78 439.141 256.26 439.201C259.81 439.261 262.7 436.401 262.7 432.871C262.7 430.911 261.81 429.151 260.4 427.991C259.73 427.431 259.36 426.591 259.36 425.721Z" fill="#FFDE94"/>
		<path d="M188.11 303.88C188.11 266.25 218.62 235.74 256.25 235.74C293.88 235.74 324.39 266.25 324.39 303.88C324.39 312.1 322.93 319.99 320.26 327.29C328.73 314.87 333.69 299.87 333.69 283.71C333.69 240.94 299.02 206.27 256.25 206.27C213.48 206.27 178.81 240.94 178.81 283.71C178.81 299.87 183.77 314.88 192.24 327.29C189.57 319.98 188.11 312.1 188.11 303.88Z" fill="#59FFE6" stroke="black" stroke-width="4" stroke-miterlimit="10"/>
		<path d="M190.19 286.09C192.5 277.65 196.39 269.86 201.52 263.06C190.91 260.34 181.09 262.93 179.02 269.32C177.18 274.97 181.99 281.79 190.19 286.09Z" fill="#BDFFF4" stroke="black" stroke-width="4" stroke-miterlimit="10" stroke-linejoin="round"/>
		<path d="M310.74 263.181C315.84 269.961 319.69 277.731 321.99 286.141C330.01 281.841 334.7 275.111 332.88 269.521C330.83 263.211 321.22 260.611 310.74 263.181Z" fill="#BDFFF4" stroke="black" stroke-width="4" stroke-miterlimit="10" stroke-linejoin="round"/>
		<path d="M256.08 235.861C278.26 235.861 297.96 246.431 310.44 262.811C317.97 255.011 320.55 245.331 316.1 240.381C311.54 235.321 301.28 237.051 292.61 244.121C296.67 233.671 295.15 223.351 288.92 220.581C282.7 217.811 274.03 223.561 268.98 233.541C268.44 222.351 262.85 213.551 256.03 213.551C249.22 213.551 243.63 222.331 243.08 233.501C238.03 223.501 229.35 217.731 223.12 220.501C216.9 223.271 215.37 233.571 219.41 244.001C210.73 236.911 200.44 235.161 195.88 240.231C191.39 245.221 194.05 255.011 201.71 262.851C214.19 246.441 233.9 235.861 256.08 235.861Z" fill="#BDFFF4" stroke="black" stroke-width="4" stroke-miterlimit="10" stroke-linejoin="round"/>
		<path d="M187.75 304.189C187.75 298.889 188.37 293.739 189.52 288.789C180.81 291.339 174.85 296.929 175.46 302.759C175.98 307.749 181.18 311.569 188.33 312.989C187.96 310.109 187.75 307.179 187.75 304.189Z" fill="#BDFFF4" stroke="black" stroke-width="4" stroke-miterlimit="10" stroke-linejoin="round"/>
		<path d="M322.729 289.141C323.819 293.981 324.409 299.021 324.409 304.191C324.409 307.221 324.189 310.201 323.809 313.131C330.789 311.651 335.829 307.881 336.349 302.981C336.949 297.251 331.209 291.751 322.729 289.141Z" fill="#BDFFF4" stroke="black" stroke-width="4" stroke-miterlimit="10" stroke-linejoin="round"/>
	</g>
	<defs>
		<filter id="filter0_d_2807_70164" x="101.417" y="134.559" width="308.976" height="405.535" filterUnits="userSpaceOnUse" color-interpolation-filters="sRGB">
			<feFlood flood-opacity="0" result="BackgroundImageFix"/>
			<feColorMatrix in="SourceAlpha" type="matrix" values="0 0 0 0 0 0 0 0 0 0 0 0 0 0 0 0 0 0 127 0" result="hardAlpha"/>
			<feOffset dy="2.28975"/>
			<feGaussianBlur stdDeviation="36"/>
			<feComposite in2="hardAlpha" operator="out"/>
			<feColorMatrix type="matrix" values="0 0 0 0 1 0 0 0 0 0.827451 0 0 0 0 0.27451 0 0 0 0.6 0"/>
			<feBlend mode="normal" in2="BackgroundImageFix" result="effect1_dropShadow_2807_70164"/>
			<feBlend mode="normal" in="SourceGraphic" in2="effect1_dropShadow_2807_70164" result="shape"/>
		</filter>
	</defs>
</svg>
