<svg viewBox="0 0 511 596" fill="none" xmlns="http://www.w3.org/2000/svg">
	<g filter="url(#filter0_d_2807_70026)">
		<path d="M276.13 367.41C276.13 367.41 299.67 394.9 308.38 418.58C311.97 428.35 312.25 461.57 256.79 461.57C201.33 461.57 201.6 428.36 205.2 418.58C213.91 394.89 237.45 367.41 237.45 367.41H276.13Z" fill="#FFD346" stroke="black" stroke-width="4" stroke-miterlimit="10"/>
		<path d="M220.061 391.029C220.061 391.029 229.731 380.199 256.061 380.199C282.391 380.199 292.731 389.529 292.731 389.529L275.901 363.859L236.071 365.529L220.061 391.029Z" fill="#FBBC2F"/>
		<path d="M209.06 411.531C209.06 411.531 195.06 451.531 256.06 451.531H258.34C319.34 451.531 305.34 411.531 305.34 411.531C305.34 411.531 319.39 434.641 296.73 451.751C274.06 468.861 228.06 457.751 228.06 457.751C228.06 457.751 191.84 445.301 209.06 411.531Z" fill="#FBBC2F"/>
		<path d="M276.13 367.41C276.13 367.41 299.67 394.9 308.38 418.58C311.97 428.35 312.25 461.57 256.79 461.57C201.33 461.57 201.6 428.36 205.2 418.58C213.91 394.89 237.45 367.41 237.45 367.41H276.13Z" stroke="black" stroke-width="4" stroke-miterlimit="10"/>
		<path d="M260.4 227.461C260.4 227.461 298.87 227.141 316.3 257.771C333.73 288.401 326.29 311.301 319.91 327.421C311.41 346.121 315.87 347.411 308.86 357.951C295.26 375.581 256.79 375.151 256.79 375.151C256.79 375.151 218.32 375.581 204.72 357.951C197.71 347.421 202.17 346.131 193.67 327.421C187.29 311.301 179.86 288.401 197.28 257.771C214.7 227.141 253.18 227.461 253.18 227.461H260.4Z" fill="#FFD346" stroke="black" stroke-width="4" stroke-miterlimit="10"/>
		<path d="M290.97 369.993C291.92 369.883 261.95 378.803 229.7 371.713C197.45 364.623 198.31 338.173 198.31 338.173C198.31 338.173 192.29 322.693 190.36 317.963C188.43 313.233 177.03 279.053 207.99 243.793C207.99 243.793 182.37 284.753 204.9 328.853C206.93 332.823 208.57 336.973 209.75 341.263C212.91 352.743 227.11 377.683 290.97 369.993Z" fill="#FBBC2F"/>
		<path d="M260.4 227.461C260.4 227.461 298.87 227.141 316.3 257.771C333.73 288.401 326.29 311.301 319.91 327.421C311.41 346.121 315.87 347.411 308.86 357.951C295.26 375.581 256.79 375.151 256.79 375.151C256.79 375.151 218.32 375.581 204.72 357.951C197.71 347.421 202.17 346.131 193.67 327.421C187.29 311.301 179.86 288.401 197.28 257.771C214.7 227.141 253.18 227.461 253.18 227.461H260.4Z" stroke="black" stroke-width="4" stroke-miterlimit="10"/>
		<path d="M294.35 407.3C294.35 407.3 294.35 395.97 288.09 386.41C288.09 386.41 290.12 399.08 289.42 400.85C289.42 400.85 280.03 397.29 275.16 392.85C275.16 392.85 276.49 405.52 276.03 407.96C276.03 407.96 266.53 402.24 263.51 396.68C263.51 396.68 262.36 407.8 256.67 413.4C250.98 407.81 249.83 396.68 249.83 396.68C246.82 402.24 237.31 407.96 237.31 407.96C236.85 405.52 238.18 392.85 238.18 392.85C233.31 397.29 223.92 400.85 223.92 400.85C223.22 399.07 225.25 386.41 225.25 386.41C218.99 395.97 218.99 407.3 218.99 407.3C229.42 405.52 234.52 398.52 234.52 398.52C231.56 407.35 233.59 416.19 233.59 416.19C244.6 409.52 248.42 403.69 248.42 403.69C248.42 416.19 256.53 421.97 256.53 421.97H256.76C256.76 421.97 264.87 416.19 264.87 403.69C264.87 403.69 268.69 409.52 279.7 416.19C279.7 416.19 281.73 407.36 278.77 398.52C278.82 398.53 283.92 405.53 294.35 407.3Z" fill="#FBBC2F"/>
		<path d="M266.641 316.419L272.641 300.639C272.641 300.639 273.751 295.529 264.201 295.969C264.201 295.969 264.641 287.749 256.531 287.969H256.681C248.571 287.749 249.011 295.969 249.011 295.969C239.451 295.529 240.571 300.639 240.571 300.639L246.571 316.419C246.571 310.779 266.641 310.779 266.641 316.419Z" fill="#FBBC2F"/>
		<path d="M244.85 306.64C244.85 306.64 234.85 276.42 210.18 279.08C185.51 281.75 193.29 317.97 198.4 332.19C203.51 346.41 205.51 351.52 223.29 351.3C241.07 351.08 245.96 341.52 247.51 335.74C249.06 329.96 244.85 306.64 244.85 306.64Z" fill="#FBBC2F"/>
		<path d="M233.86 346.42C233.86 346.42 202.09 355.53 198.63 321.98C196.79 289.09 214.06 280.87 227.18 287.54C235.67 291.85 242.04 300.07 245.48 311C255.04 342.42 233.86 346.42 233.86 346.42Z" fill="white" stroke="black" stroke-width="3" stroke-miterlimit="10"/>
		<path d="M227.069 343.529C238.485 343.529 247.739 332.734 247.739 319.419C247.739 306.103 238.485 295.309 227.069 295.309C215.654 295.309 206.399 306.103 206.399 319.419C206.399 332.734 215.654 343.529 227.069 343.529Z" fill="#32968A" stroke="#0C473E" stroke-width="2" stroke-miterlimit="10"/>
		<path d="M227.509 338.05C236.225 338.05 243.289 329.808 243.289 319.64C243.289 309.473 236.225 301.23 227.509 301.23C218.794 301.23 211.729 309.473 211.729 319.64C211.729 329.808 218.794 338.05 227.509 338.05Z" fill="black"/>
		<path d="M228.96 332.859C235.035 332.859 239.96 327.935 239.96 321.859C239.96 315.784 235.035 310.859 228.96 310.859C222.885 310.859 217.96 315.784 217.96 321.859C217.96 327.935 222.885 332.859 228.96 332.859Z" fill="#082D28"/>
		<path d="M233.86 346.42C233.86 346.42 202.09 355.53 198.63 321.98C196.79 289.09 214.06 280.87 227.18 287.54C235.67 291.85 242.04 300.07 245.48 311C255.04 342.42 233.86 346.42 233.86 346.42Z" stroke="black" stroke-width="3" stroke-miterlimit="10"/>
		<path d="M222.4 321.97C226.327 321.97 229.51 318.787 229.51 314.86C229.51 310.933 226.327 307.75 222.4 307.75C218.473 307.75 215.29 310.933 215.29 314.86C215.29 318.787 218.473 321.97 222.4 321.97Z" fill="white"/>
		<path d="M236.789 334.531C239.092 334.531 240.959 332.664 240.959 330.361C240.959 328.058 239.092 326.191 236.789 326.191C234.486 326.191 232.619 328.058 232.619 330.361C232.619 332.664 234.486 334.531 236.789 334.531Z" fill="#32968A"/>
		<path d="M236.79 333.388C238.463 333.388 239.82 332.032 239.82 330.358C239.82 328.685 238.463 327.328 236.79 327.328C235.116 327.328 233.76 328.685 233.76 330.358C233.76 332.032 235.116 333.388 236.79 333.388Z" fill="#34C6B1"/>
		<path d="M268.18 306.64C268.18 306.64 278.18 276.42 302.85 279.08C327.52 281.75 319.74 317.97 314.63 332.19C309.52 346.41 307.52 351.52 289.74 351.3C271.96 351.08 267.07 341.52 265.52 335.74C263.96 329.97 268.18 306.64 268.18 306.64Z" fill="#FBBC2F"/>
		<path d="M279.17 346.42C279.17 346.42 310.94 355.53 314.4 321.98C316.24 289.09 298.97 280.87 285.85 287.54C277.36 291.85 270.99 300.07 267.55 311C257.99 342.42 279.17 346.42 279.17 346.42Z" fill="white" stroke="black" stroke-width="3" stroke-miterlimit="10"/>
		<path d="M285.96 343.529C297.376 343.529 306.63 332.734 306.63 319.419C306.63 306.103 297.376 295.309 285.96 295.309C274.544 295.309 265.29 306.103 265.29 319.419C265.29 332.734 274.544 343.529 285.96 343.529Z" fill="#32968A" stroke="#0C473E" stroke-width="2" stroke-miterlimit="10"/>
		<path d="M285.519 338.05C294.234 338.05 301.299 329.808 301.299 319.64C301.299 309.473 294.234 301.23 285.519 301.23C276.804 301.23 269.739 309.473 269.739 319.64C269.739 329.808 276.804 338.05 285.519 338.05Z" fill="black"/>
		<path d="M287.409 332.859C293.484 332.859 298.409 327.935 298.409 321.859C298.409 315.784 293.484 310.859 287.409 310.859C281.334 310.859 276.409 315.784 276.409 321.859C276.409 327.935 281.334 332.859 287.409 332.859Z" fill="#082D28"/>
		<path d="M279.17 346.42C279.17 346.42 310.94 355.53 314.4 321.98C316.24 289.09 298.97 280.87 285.85 287.54C277.36 291.85 270.99 300.07 267.55 311C257.99 342.42 279.17 346.42 279.17 346.42Z" stroke="black" stroke-width="3" stroke-miterlimit="10"/>
		<path d="M280.849 321.97C284.776 321.97 287.959 318.787 287.959 314.86C287.959 310.933 284.776 307.75 280.849 307.75C276.923 307.75 273.739 310.933 273.739 314.86C273.739 318.787 276.923 321.97 280.849 321.97Z" fill="white"/>
		<path d="M295.01 334.531C297.313 334.531 299.18 332.664 299.18 330.361C299.18 328.058 297.313 326.191 295.01 326.191C292.707 326.191 290.84 328.058 290.84 330.361C290.84 332.664 292.707 334.531 295.01 334.531Z" fill="#32968A"/>
		<path d="M295.009 333.388C293.339 333.388 291.979 332.028 291.979 330.358C291.979 328.688 293.339 327.328 295.009 327.328C296.679 327.328 298.039 328.688 298.039 330.358C298.039 332.028 296.689 333.388 295.009 333.388Z" fill="#34C6B1"/>
		<path d="M268.12 365.368C280.18 360.738 274.68 354.358 274.68 354.358C274.68 354.358 267.18 351.528 264.01 345.028C260.84 338.528 256.68 339.028 256.68 339.028C256.68 339.028 252.51 338.528 249.35 345.028C246.18 351.528 238.68 354.358 238.68 354.358C238.68 354.358 233.18 360.738 245.24 365.368C252.59 368.188 260.78 368.188 268.12 365.368Z" fill="#ED7601" stroke="black" stroke-width="3" stroke-miterlimit="10"/>
		<path d="M249.13 350.648C250.26 349.918 251.57 349.598 252.84 349.358C254.12 349.128 255.4 349.018 256.69 349.008C257.98 348.998 259.26 349.108 260.54 349.338C261.8 349.578 263.12 349.898 264.25 350.648L260.44 350.898C259.19 350.968 257.94 351.018 256.69 351.008C255.44 351.018 254.19 350.978 252.94 350.908C251.68 350.858 250.45 350.728 249.13 350.648Z" fill="black"/>
		<path d="M274.85 360.529C274.85 360.529 268.18 367.199 257.18 367.199C246.18 367.199 237.51 363.029 237.68 356.699L241.35 353.199C241.35 353.199 247.35 347.699 249.52 344.199C249.52 344.199 246.35 352.869 242.02 356.529C237.69 360.199 251.02 363.359 257.02 363.359C268.85 363.359 274.85 360.529 274.85 360.529Z" fill="#D64422"/>
		<path d="M274.7 355.2C273.46 356.19 272.01 356.9 270.51 357.48C269 358.03 267.41 358.42 265.79 358.57C264.17 358.77 262.5 358.72 260.86 358.45C259.21 358.23 257.63 357.68 256.09 357.05H257.31C255.77 357.68 254.19 358.23 252.54 358.45C250.9 358.72 249.24 358.77 247.61 358.57C245.98 358.41 244.39 358.03 242.89 357.48C241.39 356.9 239.95 356.19 238.7 355.2C240.23 355.59 241.73 355.89 243.24 356.05C244.74 356.25 246.23 356.28 247.7 356.23C248.43 356.22 249.16 356.11 249.88 356.05C250.59 355.91 251.32 355.85 252.01 355.66C253.42 355.38 254.76 354.86 256.09 354.32L256.7 354.07L257.31 354.32C258.63 354.86 259.98 355.38 261.39 355.67C262.09 355.87 262.81 355.93 263.52 356.07C264.24 356.12 264.97 356.24 265.7 356.25C267.17 356.3 268.66 356.26 270.16 356.06C271.67 355.9 273.17 355.59 274.7 355.2Z" fill="black"/>
		<path d="M268.12 365.368C280.18 360.738 274.68 354.358 274.68 354.358C274.68 354.358 267.18 351.528 264.01 345.028C260.84 338.528 256.68 339.028 256.68 339.028C256.68 339.028 252.51 338.528 249.35 345.028C246.18 351.528 238.68 354.358 238.68 354.358C238.68 354.358 233.18 360.738 245.24 365.368C252.59 368.188 260.78 368.188 268.12 365.368Z" stroke="black" stroke-width="3" stroke-miterlimit="10"/>
		<path d="M225.97 383.191C224.14 384.161 194.45 400.961 194.6 419.891C194.64 425.371 199.08 429.661 202.64 431.851C197.31 412.521 210.64 407.851 210.64 407.851C214.65 399.651 219.82 391.431 225.97 383.191Z" fill="#FBBC2F" stroke="black" stroke-width="4" stroke-miterlimit="10"/>
		<path d="M303.3 406.533C304.01 406.763 281.95 374.633 282.41 375.223C285.57 379.343 305.2 404.363 323.3 403.533C342.63 402.643 343.97 406.203 343.97 406.203C343.97 406.203 348.41 415.533 342.86 420.643C342.86 420.643 340.29 446.803 306.97 440.533C305.81 440.313 310.54 432.503 309.3 432.203C309.3 432.193 322.97 419.193 303.3 406.533Z" fill="#FBBC2F" stroke="black" stroke-width="4" stroke-miterlimit="10" stroke-linejoin="round"/>
		<path d="M335.641 418.535C335.641 418.535 338.641 421.535 343.811 419.865" stroke="black" stroke-width="3" stroke-miterlimit="10"/>
		<path d="M341.14 425.693C341.14 425.693 339.31 429.863 335.47 429.863C329.84 430.073 321.55 427.593 322.8 419.363" stroke="black" stroke-width="3" stroke-miterlimit="10"/>
		<path d="M326.39 434.512L325.08 440.552" stroke="white" stroke-width="3" stroke-miterlimit="10"/>
		<path d="M333.3 399.363L331.67 408.573" stroke="white" stroke-width="3" stroke-miterlimit="10"/>
		<path d="M325.27 434.285L323.97 440.335" stroke="#898888" stroke-miterlimit="10"/>
		<path d="M332.191 399.145L330.561 408.345" stroke="#898888" stroke-miterlimit="10"/>
		<path d="M327.5 434.844L326.19 440.894" stroke="#898888" stroke-miterlimit="10"/>
		<path d="M334.42 399.691L332.78 408.901" stroke="#898888" stroke-miterlimit="10"/>
		<path d="M337.64 400.203C349.608 400.203 359.31 390.501 359.31 378.533C359.31 366.565 349.608 356.863 337.64 356.863C325.672 356.863 315.97 366.565 315.97 378.533C315.97 390.501 325.672 400.203 337.64 400.203Z" fill="#F522B5" stroke="#FF33CC" stroke-width="3" stroke-miterlimit="10"/>
		<path d="M346.37 397.543C343.78 397.603 341.74 397.253 339.7 396.813C337.67 396.343 335.61 395.753 333.17 394.583C332.96 394.483 332.72 394.373 332.44 394.233C332.17 394.073 331.85 393.883 331.48 393.653C331.09 393.443 330.69 393.143 330.22 392.793C329.73 392.463 329.24 392.003 328.66 391.493C327.52 390.393 326.3 388.953 325.33 387.163C325.11 386.703 324.89 386.233 324.66 385.753C324.47 385.263 324.3 384.743 324.11 384.233C323.94 383.713 323.84 383.193 323.71 382.663C323.66 382.123 323.52 381.583 323.53 381.023C323.45 379.913 323.58 378.773 323.79 377.653C324.07 376.543 324.4 375.423 324.96 374.413C325.99 372.333 327.66 370.613 329.48 369.373C331.33 368.153 333.44 367.443 335.28 367.253C337.15 367.073 338.86 367.423 340.18 367.933C341.52 368.443 342.47 369.133 343.1 369.613C343.4 369.883 343.63 370.083 343.79 370.223C343.93 370.373 344.01 370.453 344.01 370.453C344.01 370.453 344.07 370.523 344.19 370.653C344.31 370.783 344.5 370.963 344.69 371.243C345.11 371.763 345.64 372.583 346.11 373.693C346.59 374.833 346.85 376.153 346.68 377.693C346.47 379.193 345.8 380.843 344.51 382.113C343.88 382.753 343.12 383.303 342.27 383.713C341.85 383.923 341.39 384.073 340.93 384.223C340.49 384.333 340.04 384.423 339.58 384.443C337.75 384.553 335.85 383.783 334.66 382.413C334.05 381.753 333.62 380.923 333.41 380.103C333.2 379.323 333.24 378.523 333.47 377.793C333.95 376.313 335.24 375.253 336.54 374.943C337.96 374.593 339.16 375.223 339.73 375.883C340.03 376.213 340.21 376.553 340.33 376.863C340.45 377.173 340.47 377.363 340.48 377.563C340.52 379.063 338.98 380.193 337.79 379.953C337.15 379.863 336.46 379.393 336.14 378.663C335.82 377.963 336.05 376.743 337.2 376.083C336.56 376.103 335.9 376.373 335.39 376.863C334.89 377.343 334.55 378.043 334.49 378.793C334.39 380.303 335.23 381.773 336.63 382.563C337.32 382.963 338.15 383.183 339.02 383.163C339.91 383.133 340.72 382.893 341.51 382.463C343.07 381.613 344.4 379.783 344.38 377.483C344.39 376.933 344.27 376.213 344.01 375.503C343.75 374.793 343.33 373.983 342.64 373.233C341.96 372.483 341.01 371.763 339.8 371.333C338.6 370.883 337.11 370.733 335.59 371.123C333.12 371.713 330.68 373.693 329.74 376.563C329.28 377.983 329.21 379.583 329.61 381.083C329.99 382.533 330.71 383.883 331.73 385.013C333.73 387.293 336.81 388.533 339.8 388.353C340.55 388.313 341.28 388.183 341.99 387.993C342.67 387.783 343.33 387.553 343.96 387.243C345.22 386.633 346.36 385.813 347.3 384.853C349.21 382.943 350.25 380.463 350.55 378.183C350.83 375.893 350.36 373.733 349.72 372.233C349.07 370.693 348.32 369.553 347.74 368.833C347.47 368.453 347.21 368.203 347.05 368.023C346.88 367.843 346.8 367.753 346.8 367.753C346.8 367.753 346.7 367.643 346.5 367.433C346.28 367.243 345.97 366.953 345.56 366.593C344.7 365.923 343.4 364.993 341.58 364.293C339.78 363.603 337.45 363.113 334.9 363.363C332.33 363.633 329.72 364.543 327.32 366.113C324.95 367.703 322.81 369.933 321.46 372.623C320.74 373.943 320.28 375.393 319.93 376.843C319.65 378.313 319.49 379.793 319.59 381.253C319.97 387.183 323.14 391.713 325.96 394.373C326.66 395.003 327.27 395.563 327.87 395.963C328.45 396.393 328.95 396.753 329.41 397.013C329.87 397.283 330.26 397.513 330.59 397.713C330.94 397.883 331.23 398.013 331.48 398.133C334.47 399.523 337.11 399.863 339.5 399.693C341.91 399.483 344.12 398.803 346.37 397.543Z" fill="#F87AB4"/>
		<path d="M354.86 387.752C354.86 387.752 349.75 398.532 340.42 397.642C331.09 396.752 324.2 390.862 323.09 382.082C321.98 373.302 329.53 368.752 329.53 368.752C329.53 368.752 332.35 366.792 336.36 366.762C341.46 366.722 346.11 370.082 347.14 375.082C347.16 375.172 347.17 375.252 347.19 375.342C347.87 379.112 345.98 383.022 342.49 384.612C341 385.282 339.15 385.602 336.97 384.982C336.97 384.982 344.64 385.202 345.75 378.652C346.17 376.192 345.4 374.232 344.27 372.752C341.91 369.632 337.77 368.412 334 369.442C330.82 370.312 327.19 372.662 325.86 378.652C324.45 385.012 329.86 392.762 338.97 393.982C347.41 395.312 352.17 390.582 354.97 385.092C356.54 382.002 357.03 379.122 356.88 376.532C356.97 378.532 357.64 382.192 354.86 387.752Z" fill="white"/>
		<path d="M322.6 366.272C322.6 366.272 329.33 356.422 338.41 358.762C347.49 361.102 353.37 367.992 353.1 376.842C352.82 385.682 344.65 389.002 344.65 389.002C344.65 389.002 341.56 390.492 337.6 389.902C332.55 389.142 328.49 385.102 328.25 380.002C328.25 379.912 328.24 379.822 328.24 379.732C328.16 375.902 330.64 372.332 334.33 371.312C335.9 370.882 337.78 370.852 339.84 371.812C339.84 371.812 332.3 370.392 330.18 376.692C329.38 379.052 329.84 381.112 330.72 382.752C332.57 386.202 336.46 388.052 340.35 387.622C343.63 387.262 347.58 385.512 349.83 379.802C352.22 373.732 348.09 365.242 339.28 362.602C331.15 359.962 325.71 363.892 322.09 368.882C320.05 371.692 319.12 374.462 318.87 377.032C319.07 375.052 318.99 371.322 322.6 366.272Z" fill="#FFC2FF"/>
		<path d="M337.86 398.864C349.149 398.864 358.3 389.713 358.3 378.424C358.3 367.136 349.149 357.984 337.86 357.984C326.571 357.984 317.42 367.136 317.42 378.424C317.42 389.713 326.571 398.864 337.86 398.864Z" stroke="#B2168A" stroke-width="3" stroke-miterlimit="10"/>
		<path d="M313.8 416.193C314.27 417.113 314.91 417.883 315.61 418.553C316.32 419.223 317.14 419.763 318.07 420.143C319 420.563 320.06 420.743 321.21 420.793C322.35 420.763 323.61 420.613 324.86 420.093C325.01 420.043 325.71 419.773 325.55 419.833C325.56 419.853 325.53 419.783 325.57 419.883C325.62 419.983 325.66 420.083 325.71 420.183C325.81 420.393 325.92 420.613 326.05 420.843C326.57 421.803 327.44 423.103 328.81 424.143C330.17 425.193 331.98 425.813 333.6 425.943C333.8 425.953 334 425.963 334.2 425.973C334.28 425.983 334.45 425.983 334.62 425.973L335.11 425.953C335.77 425.943 336.38 425.863 336.97 425.823C337.03 425.803 337.14 425.833 337.17 425.783L337.2 425.563C337.22 425.423 337.24 425.283 337.27 425.143C337.31 424.863 337.35 424.593 337.39 424.333C337.43 424.063 337.46 423.823 337.47 423.583C337.49 423.363 337.51 423.153 337.52 422.953C337.58 421.973 337.57 421.363 337.57 421.363C337.57 421.363 337.65 419.323 337.21 416.733C336.81 414.143 335.68 411.023 334.27 409.103C333.13 407.413 331.88 406.283 330.85 405.493C330.33 405.093 329.86 404.773 329.44 404.543C329.03 404.293 328.68 404.093 328.38 403.963C326 402.803 323.95 402.503 322.07 402.473C320.18 402.453 318.44 402.823 316.45 403.363C318.47 403.823 320.1 404.223 321.74 404.743C323.37 405.263 325.04 405.783 326.97 406.753C327.87 407.263 329.8 408.183 331.67 410.883C332.79 412.413 333.76 415.013 334.11 417.273C334.5 419.533 334.44 421.353 334.44 421.353C334.44 421.353 334.44 421.893 334.39 422.753C334.38 422.933 334.38 422.843 334.38 422.863C334.39 422.863 334.39 422.863 334.3 422.853C334.16 422.843 334.01 422.833 333.87 422.833C332.72 422.733 331.58 422.323 330.7 421.653C329.82 420.983 329.19 420.083 328.79 419.353C328.69 419.183 328.61 419.013 328.53 418.843C328.49 418.763 328.45 418.683 328.42 418.603C328.35 418.443 328.29 418.283 328.22 418.133C327.95 417.463 327.72 416.803 327.38 416.563C327.22 416.423 327.02 416.453 326.86 416.433L326.79 416.423H326.75H326.74C326.88 416.023 326.78 416.313 326.81 416.223H326.79L326.66 416.233C326.57 416.243 326.49 416.253 326.4 416.263C326.07 416.293 325.77 416.323 325.5 416.353C323.83 417.243 324 417.073 323.74 417.193C321.8 417.953 320.23 418.103 318.67 417.943C317.89 417.863 317.1 417.713 316.29 417.433C315.5 417.143 314.65 416.783 313.8 416.193Z" fill="#1D1D1D"/>
		<path d="M332.141 408.865C332.141 408.865 338.311 405.535 344.311 406.695" stroke="black" stroke-width="3" stroke-miterlimit="10"/>
		<path d="M336.8 431.363C334.13 435.863 320.97 438.193 319.8 425.363C321.75 425.393 323.99 426.223 325.3 427.033" stroke="black" stroke-width="3" stroke-miterlimit="10"/>
		<path d="M338.3 378.023C339.034 378.023 339.63 377.428 339.63 376.693C339.63 375.959 339.034 375.363 338.3 375.363C337.565 375.363 336.97 375.959 336.97 376.693C336.97 377.428 337.565 378.023 338.3 378.023Z" fill="white"/>
		<path d="M320.89 386.693C320.89 386.693 315.15 376.833 321.91 366.843C323.54 364.423 325.75 362.423 328.31 361.033C339.19 355.163 348.64 362.853 348.64 362.853C348.64 362.853 336.64 356.103 325.81 365.103C315.89 373.533 320.89 386.693 320.89 386.693Z" fill="white"/>
		<path d="M304.82 407.531C304.82 407.531 296.52 417.321 257.56 417.361C218.6 417.321 210.3 407.531 210.3 407.531C195.47 417.201 202.8 431.701 202.8 431.701C223.47 438.531 232.47 451.031 232.47 451.031C233.13 454.281 234.3 456.981 235.79 459.231C242.26 468.981 273.23 468.941 279.61 458.801C280.97 456.641 282.04 454.071 282.65 451.021C282.65 451.021 291.65 438.521 312.32 431.691C312.32 431.691 319.66 417.191 304.82 407.531Z" fill="#CFE5E5" stroke="black" stroke-width="4" stroke-miterlimit="10"/>
		<path d="M309.8 412.359C309.8 412.359 302.13 424.689 257.3 424.689H257.8C212.97 424.689 205.3 412.359 205.3 412.359" stroke="black" stroke-width="2" stroke-miterlimit="10"/>
		<path d="M278.92 425.973C267.62 427.193 247.79 427.193 236.49 425.973C236.49 425.973 226.11 462.833 257.7 462.833C289.29 462.833 278.92 425.973 278.92 425.973Z" fill="#EDF9F6"/>
		<path d="M233.53 447.083C233.53 447.083 231.53 438.973 233.42 425.413C233.42 425.413 214.53 423.973 205.98 415.973C205.98 415.973 202.42 422.413 205.2 429.083C205.53 429.193 221.19 433.303 233.53 447.083Z" fill="#EDF9F6"/>
		<path d="M281.47 447.083C281.47 447.083 283.47 438.973 281.58 425.413C281.58 425.413 300.47 423.973 309.02 415.973C309.02 415.973 312.58 422.413 309.8 429.083C309.47 429.193 293.8 433.303 281.47 447.083Z" fill="#EDF9F6"/>
		<path d="M208.64 412.753C208.64 412.753 219.53 422.643 257.64 422.643C257.64 422.643 295.64 422.533 306.86 412.973L304.97 411.083C304.97 411.083 294.3 419.753 257.64 419.753C220.98 419.753 210.31 410.973 210.31 410.973L208.64 412.753Z" fill="#EDF9F6"/>
		<path d="M282.2 439.641C281.44 462.211 263.46 463.731 258.2 463.701V463.641C258.2 463.641 257.94 463.661 257.48 463.681C257.02 463.661 256.76 463.641 256.76 463.641V463.701C251.5 463.741 233.52 462.211 232.76 439.641C232.76 439.641 228.59 465.191 256.76 466.041V466.081C257.01 466.081 257.24 466.061 257.48 466.061C257.72 466.061 257.95 466.081 258.2 466.081V466.041C286.36 465.191 282.2 439.641 282.2 439.641Z" fill="#A0C1C0"/>
		<path d="M304.82 407.531C304.82 407.531 296.52 417.321 257.56 417.361C218.6 417.321 210.3 407.531 210.3 407.531C195.47 417.201 202.8 431.701 202.8 431.701C223.47 438.531 232.47 451.031 232.47 451.031C233.13 454.281 234.3 456.981 235.79 459.231C242.26 468.981 273.23 468.941 279.61 458.801C280.97 456.641 282.04 454.071 282.65 451.021C282.65 451.021 291.65 438.521 312.32 431.691C312.32 431.691 319.66 417.191 304.82 407.531Z" stroke="black" stroke-width="4" stroke-miterlimit="10"/>
		<path d="M335.08 283.033C335.08 272.193 332.85 262.373 328.83 253.723C304.93 187.653 257.97 186.863 257.97 186.863H257.75C257.75 186.863 212.42 187.623 188.17 250.303C183.07 259.743 180.2 270.743 180.2 283.033C180.2 299.193 185.16 314.203 193.63 326.613C190.96 319.313 189.5 311.433 189.5 303.203C189.5 265.573 220.01 245.963 257.64 245.963C295.27 245.963 325.78 265.573 325.78 303.203C325.78 311.423 324.32 319.313 321.65 326.613C330.12 314.203 335.08 299.203 335.08 283.033Z" fill="#59FFE6" stroke="black" stroke-width="4" stroke-miterlimit="10"/>
		<path d="M223.749 251.753C223.749 251.753 204.639 239.083 221.529 209.312C221.529 209.312 194.639 231.983 212.419 257.533L223.749 251.753Z" fill="#63C6D6"/>
		<path d="M202.19 267.971C202.19 267.971 186.41 259.751 199.08 228.641C199.08 228.641 175.3 264.641 181.52 294.201C181.52 294.201 183.3 309.761 191.96 321.981C191.96 321.981 182.63 292.421 202.4 267.091" fill="#63C6D6"/>
		<path d="M244.189 197.973C244.189 197.973 235.519 221.973 243.079 247.303L234.639 248.413C234.639 248.423 223.969 221.533 244.189 197.973Z" fill="#63C6D6"/>
		<path d="M291.819 251.753C291.819 251.753 310.929 239.083 294.039 209.312C294.039 209.312 320.929 231.983 303.149 257.533L291.819 251.753Z" fill="#63C6D6"/>
		<path d="M313.38 267.971C313.38 267.971 329.16 259.751 316.49 228.641C316.49 228.641 340.27 264.641 334.05 294.201C334.05 294.201 332.27 309.761 323.61 321.981C323.61 321.981 332.94 292.421 313.17 267.091" fill="#63C6D6"/>
		<path d="M271.38 197.973C271.38 197.973 280.05 221.973 272.49 247.303L280.93 248.413C280.93 248.423 291.6 221.533 271.38 197.973Z" fill="#63C6D6"/>
		<path d="M205.3 220.191C205.3 220.191 223.08 191.971 258.63 186.191C258.63 186.191 285.07 189.971 306.19 213.081C306.19 213.081 320.19 229.971 324.63 243.971C324.63 243.971 297.82 202.671 266.46 194.031C242.55 187.431 213.77 211.061 205.3 220.191Z" fill="#A1FFEF"/>
		<path d="M276.859 196.863C276.859 196.863 297.749 215.753 285.749 249.083C285.749 249.083 300.189 229.303 289.079 203.523L276.859 196.863Z" fill="#A1FFEF"/>
		<path d="M311.299 224.191C311.299 224.191 319.739 243.301 306.859 259.971C306.859 259.971 321.529 251.751 319.079 234.411L311.299 224.191Z" fill="#A1FFEF"/>
		<path d="M335.08 283.033C335.08 272.193 332.85 262.373 328.83 253.723C304.93 187.653 257.97 186.863 257.97 186.863H257.75C257.75 186.863 212.42 187.623 188.17 250.303C183.07 259.743 180.2 270.743 180.2 283.033C180.2 299.193 185.16 314.203 193.63 326.613C190.96 319.313 189.5 311.433 189.5 303.203C189.5 265.573 220.01 245.963 257.64 245.963C295.27 245.963 325.78 265.573 325.78 303.203C325.78 311.423 324.32 319.313 321.65 326.613C330.12 314.203 335.08 299.203 335.08 283.033Z" stroke="black" stroke-width="4" stroke-miterlimit="10"/>
		<path d="M197.8 237.861C197.8 237.861 219.63 211.531 266.3 214.361C266.3 214.361 294.97 216.191 318.47 238.691C318.47 238.691 332.8 253.361 334.64 274.521L334.97 288.351C334.97 288.351 333.97 243.181 286.3 225.181C238.63 207.181 197.8 237.861 197.8 237.861Z" fill="#A1FFEF"/>
		<path d="M192.14 284.531C192.14 284.531 199.14 254.031 243.81 246.861C288.48 239.691 310.64 265.031 310.64 265.031C310.64 265.031 323.31 274.861 325.14 294.201L326.47 315.031L329.8 308.361C329.8 308.361 338.47 238.031 257.63 238.031C176.79 238.031 183.96 307.031 183.96 307.031L189.79 315.701C189.8 315.691 187.3 301.191 192.14 284.531Z" fill="#63C6D6"/>
		<path d="M189.27 303.882C189.27 266.252 219.78 246.642 257.41 246.642C295.04 246.642 325.55 266.252 325.55 303.882C325.55 312.102 324.09 319.992 321.42 327.292C329.89 314.872 334.85 299.872 334.85 283.712C334.85 240.942 300.18 213.762 257.41 213.762C214.64 213.762 179.97 240.942 179.97 283.712C179.97 299.872 184.93 314.882 193.4 327.292C190.73 319.982 189.27 312.102 189.27 303.882Z" stroke="black" stroke-width="4" stroke-miterlimit="10"/>
		<path d="M214.14 366.031C214.14 366.031 226.31 383.531 257.64 383.531C288.97 383.531 300.81 365.031 300.81 365.031C300.81 365.031 265.3 387.191 214.14 366.031Z" fill="#59FFE6" stroke="black" stroke-width="4" stroke-miterlimit="10"/>
		<path d="M268.14 378.693C268.14 384.493 263.44 389.193 257.64 389.193C251.84 389.193 247.14 384.493 247.14 378.693C247.14 377.343 247.84 373.613 247.85 374.883C247.86 375.893 267.32 375.623 267.31 374.613C267.3 374.363 268.14 377.243 268.14 378.693Z" fill="#59FFE6" stroke="black" stroke-width="4" stroke-miterlimit="10"/>
		<path d="M247.8 406.691C247.8 406.691 247.97 394.021 253.3 388.521C250.64 387.121 248.52 385.561 247.47 383.691C247.47 383.691 237.14 388.361 234.3 403.691L247.8 406.691Z" fill="#59FFE6" stroke="black" stroke-width="4" stroke-miterlimit="10"/>
		<path d="M267.14 406.691C267.14 406.691 266.97 394.021 261.64 388.521C264.3 387.121 266.42 385.561 267.47 383.691C267.47 383.691 277.8 388.361 280.64 403.691L267.14 406.691Z" fill="#59FFE6" stroke="black" stroke-width="4" stroke-miterlimit="10"/>
	</g>
	<defs>
		<filter id="filter0_d_2807_70026" x="105.97" y="115.153" width="326.84" height="427.613" filterUnits="userSpaceOnUse" color-interpolation-filters="sRGB">
			<feFlood flood-opacity="0" result="BackgroundImageFix"/>
			<feColorMatrix in="SourceAlpha" type="matrix" values="0 0 0 0 0 0 0 0 0 0 0 0 0 0 0 0 0 0 127 0" result="hardAlpha"/>
			<feOffset dy="2.28975"/>
			<feGaussianBlur stdDeviation="36"/>
			<feComposite in2="hardAlpha" operator="out"/>
			<feColorMatrix type="matrix" values="0 0 0 0 1 0 0 0 0 0.827451 0 0 0 0 0.27451 0 0 0 0.6 0"/>
			<feBlend mode="normal" in2="BackgroundImageFix" result="effect1_dropShadow_2807_70026"/>
			<feBlend mode="normal" in="SourceGraphic" in2="effect1_dropShadow_2807_70026" result="shape"/>
		</filter>
	</defs>
</svg>
