<svg viewBox="0 0 511 596" fill="none" xmlns="http://www.w3.org/2000/svg">
	<g filter="url(#filter0_d_2807_70350)">
		<path d="M275.99 367.41C275.99 367.41 299.53 394.9 308.24 418.58C311.83 428.35 312.11 461.57 256.65 461.57C201.19 461.57 201.46 428.36 205.06 418.58C213.77 394.89 237.31 367.41 237.31 367.41H275.99Z" fill="#FFD346" stroke="black" stroke-width="4" stroke-miterlimit="10"/>
		<path d="M219.92 391.029C219.92 391.029 229.59 380.199 255.92 380.199C282.25 380.199 292.59 389.529 292.59 389.529L275.76 363.859L235.93 365.529L219.92 391.029Z" fill="#FBBC2F"/>
		<path d="M208.92 411.531C208.92 411.531 194.92 451.531 255.92 451.531H258.2C319.2 451.531 305.2 411.531 305.2 411.531C305.2 411.531 319.25 434.641 296.59 451.751C273.92 468.861 227.92 457.751 227.92 457.751C227.92 457.751 191.69 445.301 208.92 411.531Z" fill="#FBBC2F"/>
		<path d="M275.99 367.41C275.99 367.41 299.53 394.9 308.24 418.58C311.83 428.35 312.11 461.57 256.65 461.57C201.19 461.57 201.46 428.36 205.06 418.58C213.77 394.89 237.31 367.41 237.31 367.41H275.99Z" stroke="black" stroke-width="4" stroke-miterlimit="10"/>
		<path d="M259.18 227.461C259.18 227.461 297.65 227.141 315.08 257.771C332.51 288.401 325.07 311.301 318.69 327.421C310.19 346.121 314.65 347.411 307.64 357.951C294.04 375.581 255.57 375.151 255.57 375.151C255.57 375.151 217.1 375.581 203.5 357.951C196.49 347.421 200.95 346.131 192.45 327.421C186.07 311.301 178.64 288.401 196.06 257.771C213.48 227.141 251.96 227.461 251.96 227.461H259.18Z" fill="#FFD346" stroke="black" stroke-width="4" stroke-miterlimit="10"/>
		<path d="M289.75 369.993C290.7 369.883 260.73 378.803 228.48 371.713C196.23 364.623 197.09 338.173 197.09 338.173C197.09 338.173 191.07 322.693 189.14 317.963C187.21 313.233 175.811 279.053 206.771 243.793C206.771 243.793 181.15 284.753 203.68 328.853C205.71 332.823 207.35 336.973 208.53 341.263C211.69 352.743 225.89 377.683 289.75 369.993Z" fill="#FBBC2F"/>
		<path d="M259.18 227.461C259.18 227.461 297.65 227.141 315.08 257.771C332.51 288.401 325.07 311.301 318.69 327.421C310.19 346.121 314.65 347.411 307.64 357.951C294.04 375.581 255.57 375.151 255.57 375.151C255.57 375.151 217.1 375.581 203.5 357.951C196.49 347.421 200.95 346.131 192.45 327.421C186.07 311.301 178.64 288.401 196.06 257.771C213.48 227.141 251.96 227.461 251.96 227.461H259.18Z" stroke="black" stroke-width="4" stroke-miterlimit="10"/>
		<path d="M255.67 288.191C255.67 288.191 248.78 297.081 248.56 301.751C248.34 306.421 256.56 316.861 256.56 316.861C256.56 316.861 263.23 305.531 263.23 301.531C263.23 297.531 255.67 288.191 255.67 288.191Z" fill="#FBBC2F"/>
		<path d="M256.01 435.3C265.34 435.3 265.79 425.3 265.79 425.3C265.79 425.3 272.23 431.08 276.9 419.74C281.57 408.41 254.9 394.41 254.9 394.41H254.78C254.78 394.41 228.11 408.41 232.78 419.74C237.45 431.07 243.89 425.3 243.89 425.3C243.89 425.3 244.33 435.3 253.67 435.3H256.01Z" fill="#FBBC2F"/>
		<path d="M227.485 353.684C241.346 350.021 247.709 328.607 241.696 305.856C235.684 283.104 219.573 267.63 205.711 271.293C191.85 274.956 185.487 296.37 191.5 319.121C197.513 341.873 213.624 357.347 227.485 353.684Z" fill="#FBBC2F"/>
		<path d="M225.52 352.341C213.9 352.341 197.9 340.791 191.26 321.461C184.61 302.101 190.67 283.371 204.5 280.561C205.64 280.331 206.82 280.211 208.02 280.211C219.64 280.211 235.64 291.761 242.28 311.091C245.72 321.101 245.9 331.051 242.79 339.101C241.21 343.191 237.32 350.311 229.04 351.991C227.91 352.231 226.72 352.341 225.52 352.341Z" fill="#BF8126"/>
		<path d="M227.215 353.366C240.489 349.858 247.145 331.483 242.082 312.325C237.019 293.167 222.154 280.48 208.88 283.988C195.606 287.496 188.95 305.871 194.013 325.029C199.076 344.187 213.941 356.874 227.215 353.366Z" fill="white" stroke="black" stroke-width="3" stroke-miterlimit="9.9999"/>
		<mask id="mask0_2807_70350" style="mask-type:luminance" maskUnits="userSpaceOnUse" x="192" y="283" width="52" height="71">
			<path d="M227.215 353.366C240.489 349.858 247.146 331.484 242.083 312.325C237.02 293.167 222.155 280.48 208.881 283.988C195.606 287.496 188.95 305.871 194.013 325.029C199.076 344.187 213.941 356.874 227.215 353.366Z" fill="white"/>
		</mask>
		<g mask="url(#mask0_2807_70350)">
			<path d="M231.126 343.226C243.248 340.702 250.77 327.58 247.925 313.917C245.081 300.254 232.948 291.224 220.826 293.747C208.704 296.271 201.183 309.393 204.027 323.056C206.871 336.719 219.004 345.749 231.126 343.226Z" fill="#57627C"/>
			<path d="M227.03 340.832C217.52 340.832 209.01 333.122 206.8 322.492C204.28 310.382 210.83 298.742 221.4 296.532C222.56 296.292 223.74 296.172 224.92 296.172C234.43 296.172 242.93 303.882 245.15 314.512C247.67 326.622 241.12 338.262 230.55 340.472C229.39 340.712 228.21 340.832 227.03 340.832Z" fill="black"/>
		</g>
		<path d="M227.215 353.366C240.489 349.858 247.145 331.483 242.082 312.325C237.019 293.167 222.154 280.48 208.88 283.988C195.606 287.496 188.95 305.871 194.013 325.029C199.076 344.187 213.941 356.874 227.215 353.366Z" stroke="black" stroke-width="3" stroke-miterlimit="9.9999"/>
		<path d="M319.692 319.144C325.704 296.393 319.342 274.98 305.48 271.316C291.619 267.653 275.508 283.127 269.495 305.879C263.483 328.63 269.845 350.044 283.707 353.707C297.568 357.37 313.679 341.896 319.692 319.144Z" fill="#FBBC2F"/>
		<path d="M285.45 352.341C284.24 352.341 283.05 352.221 281.91 351.991C273.6 350.311 269.69 343.191 268.11 339.101C264.99 331.051 265.17 321.101 268.62 311.091C275.29 291.761 291.34 280.211 303.01 280.211C304.21 280.211 305.41 280.331 306.55 280.561C320.43 283.371 326.52 302.101 319.84 321.461C313.17 340.791 297.12 352.341 285.45 352.341Z" fill="#BF8126"/>
		<path d="M316.979 325.05C322.042 305.892 315.385 287.517 302.112 284.009C288.838 280.501 273.973 293.188 268.91 312.346C263.847 331.504 270.503 349.879 283.777 353.387C297.051 356.895 311.916 344.208 316.979 325.05Z" fill="white" stroke="black" stroke-width="3" stroke-miterlimit="9.9999"/>
		<path d="M216.11 308.86C217.457 308.86 218.55 307.768 218.55 306.42C218.55 305.073 217.457 303.98 216.11 303.98C214.762 303.98 213.67 305.073 213.67 306.42C213.67 307.768 214.762 308.86 216.11 308.86Z" fill="white"/>
		<mask id="mask1_2807_70350" style="mask-type:luminance" maskUnits="userSpaceOnUse" x="268" y="283" width="52" height="71">
			<path d="M318.078 325.054C323.141 305.895 316.485 287.521 303.211 284.013C289.936 280.505 275.071 293.192 270.008 312.35C264.945 331.508 271.602 349.883 284.876 353.391C298.15 356.899 313.015 344.212 318.078 325.054Z" fill="white"/>
		</mask>
		<g mask="url(#mask1_2807_70350)">
			<path d="M308.043 323.087C310.887 309.423 303.366 296.302 291.243 293.778C279.121 291.255 266.988 300.285 264.144 313.948C261.3 327.611 268.821 340.733 280.943 343.257C293.066 345.78 305.198 336.75 308.043 323.087Z" fill="#57627C"/>
			<path d="M285.05 340.832C294.56 340.832 303.07 333.122 305.28 322.492C307.8 310.382 301.25 298.742 290.68 296.532C289.52 296.292 288.34 296.172 287.16 296.172C277.65 296.172 269.15 303.882 266.93 314.512C264.41 326.622 270.96 338.262 281.53 340.472C282.69 340.712 283.87 340.832 285.05 340.832Z" fill="black"/>
		</g>
		<path d="M316.979 325.05C322.042 305.892 315.385 287.517 302.112 284.009C288.838 280.501 273.973 293.188 268.91 312.346C263.847 331.504 270.503 349.879 283.777 353.387C297.051 356.895 311.916 344.208 316.979 325.05Z" stroke="black" stroke-width="3" stroke-miterlimit="9.9999"/>
		<path d="M281.001 307.97C282.348 307.97 283.441 306.877 283.441 305.53C283.441 304.182 282.348 303.09 281.001 303.09C279.653 303.09 278.561 304.182 278.561 305.53C278.561 306.877 279.653 307.97 281.001 307.97Z" fill="white"/>
		<path d="M213.67 314.189C214.466 314.189 215.11 313.544 215.11 312.749C215.11 311.953 214.466 311.309 213.67 311.309C212.875 311.309 212.23 311.953 212.23 312.749C212.23 313.544 212.875 314.189 213.67 314.189Z" fill="white"/>
		<path d="M278.001 313.189C278.796 313.189 279.441 312.544 279.441 311.749C279.441 310.953 278.796 310.309 278.001 310.309C277.205 310.309 276.561 310.953 276.561 311.749C276.561 312.544 277.205 313.189 278.001 313.189Z" fill="white"/>
		<path d="M266.69 365.368C278.75 360.738 273.25 354.358 273.25 354.358C273.25 354.358 265.75 351.528 262.58 345.028C259.41 338.528 255.25 339.028 255.25 339.028C255.25 339.028 251.08 338.528 247.92 345.028C244.75 351.528 237.25 354.358 237.25 354.358C237.25 354.358 231.75 360.738 243.81 365.368C251.15 368.188 259.35 368.188 266.69 365.368Z" fill="#ED7601" stroke="black" stroke-width="3" stroke-miterlimit="10"/>
		<path d="M247.689 350.648C248.819 349.918 250.129 349.598 251.399 349.358C252.679 349.128 253.959 349.018 255.249 349.008C256.539 348.998 257.819 349.108 259.099 349.338C260.359 349.578 261.679 349.898 262.809 350.648L258.999 350.898C257.749 350.968 256.499 351.018 255.249 351.008C253.999 351.018 252.749 350.978 251.499 350.908C250.249 350.858 249.009 350.728 247.689 350.648Z" fill="black"/>
		<path d="M273.42 360.529C273.42 360.529 266.75 367.199 255.75 367.199C244.75 367.199 236.08 363.029 236.25 356.699L239.92 353.199C239.92 353.199 245.92 347.699 248.09 344.199C248.09 344.199 244.92 352.869 240.59 356.529C236.26 360.189 249.59 363.359 255.59 363.359C267.42 363.359 273.42 360.529 273.42 360.529Z" fill="#D64422"/>
		<path d="M274.25 355.2C273.01 356.19 271.56 356.9 270.06 357.48C268.55 358.03 266.96 358.42 265.34 358.57C263.72 358.77 262.05 358.72 260.41 358.45C258.76 358.23 257.18 357.68 255.64 357.05H256.86C255.32 357.68 253.74 358.23 252.09 358.45C250.45 358.72 248.79 358.77 247.16 358.57C245.53 358.41 243.94 358.03 242.44 357.48C240.94 356.9 239.5 356.19 238.25 355.2C239.78 355.59 241.28 355.89 242.79 356.05C244.29 356.25 245.78 356.28 247.25 356.23C247.98 356.22 248.71 356.11 249.43 356.05C250.14 355.91 250.87 355.85 251.56 355.66C252.97 355.38 254.31 354.86 255.64 354.32L256.25 354.07L256.86 354.32C258.18 354.86 259.53 355.38 260.94 355.67C261.64 355.87 262.36 355.93 263.07 356.07C263.79 356.12 264.52 356.24 265.25 356.25C266.72 356.3 268.21 356.26 269.71 356.06C271.22 355.9 272.72 355.59 274.25 355.2Z" fill="black"/>
		<path d="M266.69 365.368C278.75 360.738 273.25 354.358 273.25 354.358C273.25 354.358 265.75 351.528 262.58 345.028C259.41 338.528 255.25 339.028 255.25 339.028C255.25 339.028 251.08 338.528 247.92 345.028C244.75 351.528 237.25 354.358 237.25 354.358C237.25 354.358 231.75 360.738 243.81 365.368C251.15 368.188 259.35 368.188 266.69 365.368Z" stroke="black" stroke-width="3" stroke-miterlimit="10"/>
		<path d="M238.11 228.191C238.11 228.191 209.89 235.301 208.11 253.301C209.44 252.191 228.78 249.301 237.89 242.861C237.89 242.861 226.11 261.971 253.45 272.421C280.78 282.861 311.01 260.641 299.89 240.421C299.89 240.421 285.45 228.421 258.56 227.531C258.56 227.531 266.56 225.091 267.45 216.201C267.45 216.201 253.23 216.421 249.45 226.201C249.45 226.201 242.12 214.201 223.67 216.201C223.67 216.191 228.56 227.531 238.11 228.191Z" fill="#754F41"/>
		<path d="M253.44 272.42C254.55 272.42 285.88 269.09 282.77 246.64C280.33 227.75 256.33 227.08 258.55 227.53C260.77 227.98 278.77 227.31 299.88 240.42C299.88 241.31 309.66 255.31 288.99 269.31C269.67 281.53 253.44 272.42 253.44 272.42Z" fill="#56362C"/>
		<path d="M235.67 250.422C235.67 250.422 247.23 255.752 255 251.752C255.67 251.972 262.11 255.752 273.22 254.422C284.33 253.092 296.55 257.092 302.33 251.092C302.33 251.092 301.89 259.532 292.77 266.202C289.21 265.762 283.88 258.872 272.33 261.092C271.44 261.532 258.77 257.092 249.89 261.982C248.33 261.312 243.45 254.652 236.56 258.202C236.56 258.192 234.56 254.862 235.67 250.422Z" fill="#936B5F"/>
		<path d="M238.11 228.191C238.11 228.191 209.89 235.301 208.11 253.301C209.44 252.191 228.78 249.301 237.89 242.861C237.89 242.861 226.11 261.971 253.45 272.421C280.78 282.861 311.01 260.641 299.89 240.421C299.89 240.421 285.45 228.421 258.56 227.531C258.56 227.531 266.56 225.091 267.45 216.201C267.45 216.201 253.23 216.421 249.45 226.201C249.45 226.201 242.12 214.201 223.67 216.201C223.67 216.191 228.56 227.531 238.11 228.191Z" stroke="black" stroke-width="3" stroke-miterlimit="10"/>
		<path d="M227.38 382.98C225.55 383.95 194.16 400.95 194.31 419.89C194.46 438.83 224.1 434.01 224.1 434.01L227.38 382.98Z" fill="#FBBC2F" stroke="black" stroke-width="4" stroke-miterlimit="10"/>
		<path d="M278.11 375.22C281.27 379.34 300.9 404.36 319 403.53C338.33 402.64 339.67 406.2 339.67 406.2C339.67 406.2 344.11 415.53 338.56 420.64C338.56 420.64 334.78 448.42 298.12 439.53C298.12 439.53 273.9 423.31 271.45 395.31C269.61 374.3 277.65 374.63 278.11 375.22Z" fill="#FBBC2F" stroke="black" stroke-width="4" stroke-miterlimit="10"/>
		<path d="M331.33 418.527C331.33 418.527 334.33 421.527 339.5 419.857" stroke="black" stroke-width="3" stroke-miterlimit="10"/>
		<path d="M336.83 425.689C336.83 425.689 335 429.859 331.16 429.859C325.53 430.069 317.24 427.589 318.49 419.359" stroke="black" stroke-width="3" stroke-miterlimit="10"/>
		<path d="M318.9 433.16L316.86 439" stroke="white" stroke-width="3" stroke-miterlimit="10"/>
		<path d="M346.78 359.078L328.33 407.858" stroke="white" stroke-width="3" stroke-miterlimit="10"/>
		<path d="M317.83 432.809L315.79 438.649" stroke="#898888" stroke-miterlimit="10"/>
		<path d="M345.67 358.859L327.22 407.639" stroke="#898888" stroke-miterlimit="10"/>
		<path d="M319.96 433.629L317.92 439.469" stroke="#898888" stroke-miterlimit="10"/>
		<path d="M347.89 359.418L329.44 408.188" stroke="#898888" stroke-miterlimit="10"/>
		<path d="M309.5 416.19C309.97 417.11 310.61 417.88 311.31 418.55C312.02 419.22 312.84 419.76 313.77 420.14C314.7 420.56 315.76 420.74 316.91 420.79C318.05 420.76 319.31 420.61 320.56 420.09C320.71 420.04 321.41 419.77 321.25 419.83C321.26 419.85 321.23 419.78 321.27 419.88C321.32 419.98 321.36 420.08 321.41 420.18C321.51 420.39 321.62 420.61 321.75 420.84C322.27 421.8 323.14 423.1 324.51 424.14C325.87 425.19 327.68 425.81 329.3 425.94C329.5 425.95 329.7 425.96 329.9 425.97C329.98 425.98 330.15 425.98 330.32 425.97L330.81 425.95C331.47 425.94 332.08 425.86 332.67 425.82C332.73 425.8 332.84 425.83 332.87 425.78L332.9 425.56C332.92 425.42 332.94 425.28 332.97 425.14C333.01 424.86 333.05 424.59 333.09 424.33C333.13 424.06 333.16 423.82 333.17 423.58C333.19 423.36 333.21 423.15 333.22 422.95C333.28 421.97 333.27 421.36 333.27 421.36C333.27 421.36 333.35 419.32 332.92 416.73C332.52 414.14 331.39 411.02 329.98 409.1C328.84 407.41 327.59 406.28 326.56 405.49C326.04 405.09 325.57 404.77 325.15 404.54C324.74 404.29 324.39 404.09 324.09 403.96C321.71 402.8 319.66 402.5 317.78 402.47C315.89 402.45 314.15 402.82 312.16 403.36C314.18 403.82 315.81 404.22 317.45 404.74C319.08 405.26 320.75 405.78 322.68 406.75C323.58 407.26 325.51 408.18 327.38 410.88C328.5 412.41 329.47 415.01 329.82 417.27C330.21 419.53 330.15 421.35 330.15 421.35C330.15 421.35 330.15 421.89 330.1 422.75C330.09 422.93 330.09 422.84 330.09 422.86C330.1 422.86 330.1 422.86 330.01 422.85C329.87 422.84 329.72 422.83 329.58 422.83C328.43 422.73 327.29 422.32 326.41 421.65C325.53 420.98 324.9 420.08 324.5 419.35C324.4 419.18 324.32 419.01 324.24 418.84C324.2 418.76 324.16 418.68 324.13 418.6C324.06 418.44 324 418.28 323.93 418.13C323.66 417.46 323.43 416.8 323.09 416.56C322.93 416.42 322.73 416.45 322.57 416.43L322.5 416.42H322.46H322.45C322.59 416.02 322.49 416.31 322.52 416.22H322.5L322.37 416.23C322.28 416.24 322.2 416.25 322.11 416.26C321.78 416.29 321.48 416.32 321.21 416.35C319.54 417.24 319.71 417.07 319.45 417.19C317.51 417.95 315.94 418.1 314.38 417.94C313.6 417.86 312.81 417.71 312 417.43C311.2 417.14 310.34 416.78 309.5 416.19Z" fill="#1D1D1D"/>
		<path d="M327.83 408.861C327.83 408.861 334 405.531 340 406.691" stroke="black" stroke-width="3" stroke-miterlimit="10"/>
		<path d="M332.5 431.359C329.83 435.859 316.67 438.189 315.5 425.359C317.45 425.389 319.69 426.219 321 427.029" stroke="black" stroke-width="3" stroke-miterlimit="10"/>
		<path d="M347.85 359.19L361.14 399.19L370.76 378.27C371.74 376.14 371.89 373.73 371.18 371.5L365.03 352.05C365.04 352.05 362.4 348.46 347.85 359.19Z" fill="#0075E7" stroke="black" stroke-width="3" stroke-miterlimit="10"/>
		<path d="M347.85 359.189C347.85 359.189 371.69 372.209 368.04 383.839C368.04 383.839 371.99 376.919 371.63 374.219L369.14 365.579C369.14 365.579 359.59 356.569 347.85 359.189Z" fill="#0B5999"/>
		<path d="M347.85 359.191C347.85 359.191 373.81 371.181 371.15 377.351C371.15 377.351 372.13 374.981 370.85 370.851C369.57 366.721 365.03 352.051 365.03 352.051C365.03 352.051 362.09 348.621 347.85 359.191Z" stroke="black" stroke-width="3" stroke-miterlimit="10"/>
		<path d="M347.85 359.19L361.14 399.19L370.76 378.27C371.74 376.14 371.89 373.73 371.18 371.5L365.03 352.05C365.04 352.05 362.4 348.46 347.85 359.19Z" stroke="black" stroke-width="3" stroke-miterlimit="10"/>
		<path d="M347.08 359.23L307.08 372.52L328 382.14C330.13 383.12 332.54 383.27 334.77 382.56L354.22 376.41C354.22 376.42 357.81 373.77 347.08 359.23Z" fill="#0075E7" stroke="black" stroke-width="3" stroke-miterlimit="10"/>
		<path d="M347.08 359.23C347.08 359.23 334.06 383.07 322.43 379.42C322.43 379.42 329.35 383.37 332.05 383.01L340.69 380.52C340.69 380.52 349.7 370.96 347.08 359.23Z" fill="#0B5999"/>
		<path d="M347.08 359.23C347.08 359.23 335.09 385.19 328.92 382.53C328.92 382.53 331.29 383.51 335.42 382.23C339.55 380.95 354.22 376.41 354.22 376.41C354.22 376.41 357.65 373.47 347.08 359.23Z" fill="#9075E7" stroke="black" stroke-width="3" stroke-miterlimit="10"/>
		<path d="M354.56 373.772L334.32 380.192C334.32 380.192 339.19 374.852 340.23 372.092C340.23 372.092 348.22 372.272 353.19 369.102C353.18 369.102 354.62 371.592 354.56 373.772Z" fill="#B7A7F9"/>
		<path d="M347.08 359.23C347.08 359.23 335.09 385.19 328.92 382.53C328.92 382.53 331.29 383.51 335.42 382.23C339.55 380.95 354.22 376.41 354.22 376.41C354.22 376.41 357.65 373.47 347.08 359.23Z" stroke="black" stroke-width="3" stroke-miterlimit="10"/>
		<path d="M347.08 359.23L307.08 372.52L328 382.14C330.13 383.12 332.54 383.27 334.77 382.56L354.22 376.41C354.22 376.42 357.81 373.77 347.08 359.23Z" stroke="black" stroke-width="3" stroke-miterlimit="10"/>
		<path d="M347.04 358.449L333.75 318.449L324.13 339.369C323.15 341.499 323 343.909 323.71 346.139L329.86 365.589C329.85 365.589 332.5 369.189 347.04 358.449Z" fill="#0075E7" stroke="black" stroke-width="3" stroke-miterlimit="10"/>
		<path d="M347.04 358.451C347.04 358.451 323.2 345.431 326.85 333.801C326.85 333.801 322.9 340.721 323.26 343.421L325.75 352.061C325.75 352.061 335.31 361.081 347.04 358.451Z" fill="#0B5999"/>
		<path d="M347.04 358.449C347.04 358.449 321.08 346.459 323.74 340.289C323.74 340.289 322.76 342.659 324.04 346.789C325.31 350.919 329.86 365.589 329.86 365.589C329.86 365.589 332.8 369.019 347.04 358.449Z" fill="#9075E7" stroke="black" stroke-width="3" stroke-miterlimit="10"/>
		<path d="M332.5 365.939L326.08 345.699C326.08 345.699 331.42 350.569 334.18 351.609C334.18 351.609 334 359.599 337.17 364.569C337.17 364.559 334.68 365.989 332.5 365.939Z" fill="#B7A7F9"/>
		<path d="M347.04 358.449C347.04 358.449 321.08 346.459 323.74 340.289C323.74 340.289 322.76 342.659 324.04 346.789C325.31 350.919 329.86 365.589 329.86 365.589C329.86 365.589 332.8 369.019 347.04 358.449Z" stroke="black" stroke-width="3" stroke-miterlimit="10"/>
		<path d="M347.04 358.449L333.75 318.449L324.13 339.369C323.15 341.499 323 343.909 323.71 346.139L329.86 365.589C329.85 365.589 332.5 369.189 347.04 358.449Z" stroke="black" stroke-width="3" stroke-miterlimit="10"/>
		<path d="M347.82 358.42L387.82 345.13L366.9 335.51C364.77 334.53 362.36 334.38 360.13 335.09L340.68 341.24C340.68 341.23 337.08 343.87 347.82 358.42Z" fill="#0075E7" stroke="black" stroke-width="3" stroke-miterlimit="10"/>
		<path d="M347.821 358.42C347.821 358.42 360.841 334.58 372.471 338.23C372.471 338.23 365.551 334.28 362.851 334.64L354.21 337.13C354.21 337.13 345.191 346.68 347.821 358.42Z" fill="#0B5999"/>
		<path d="M347.821 358.42C347.821 358.42 359.811 332.46 365.981 335.12C365.981 335.12 363.611 334.14 359.481 335.42C355.351 336.69 340.681 341.24 340.681 341.24C340.681 341.24 337.251 344.18 347.821 358.42Z" fill="#9075E7" stroke="black" stroke-width="3" stroke-miterlimit="10"/>
		<path d="M340.33 343.881L360.57 337.461C360.57 337.461 355.7 342.801 354.66 345.561C354.66 345.561 346.67 345.381 341.7 348.551C341.71 348.551 340.28 346.051 340.33 343.881Z" fill="#B7A7F9"/>
		<path d="M347.821 358.42C347.821 358.42 359.811 332.46 365.981 335.12C365.981 335.12 363.611 334.14 359.481 335.42C355.351 336.69 340.681 341.24 340.681 341.24C340.681 341.24 337.251 344.18 347.821 358.42Z" stroke="black" stroke-width="3" stroke-miterlimit="10"/>
		<path d="M347.82 358.42L387.82 345.13L366.9 335.51C364.77 334.53 362.36 334.38 360.13 335.09L340.68 341.24C340.68 341.23 337.08 343.87 347.82 358.42Z" stroke="black" stroke-width="3" stroke-miterlimit="10"/>
		<path d="M347.85 359.191C347.85 359.191 373.81 371.181 371.15 377.351C371.15 377.351 372.13 374.981 370.85 370.851C369.57 366.721 365.03 352.051 365.03 352.051C365.03 352.051 362.09 348.621 347.85 359.191Z" fill="#9075E7" stroke="black" stroke-width="3" stroke-miterlimit="10"/>
		<path d="M362.39 351.709L368.81 371.949C368.81 371.949 363.47 367.079 360.71 366.039C360.71 366.039 360.89 358.049 357.72 353.079C357.72 353.089 360.22 351.649 362.39 351.709Z" fill="#B7A7F9"/>
		<path d="M347.85 359.191C347.85 359.191 373.81 371.181 371.15 377.351C371.15 377.351 372.13 374.981 370.85 370.851C369.57 366.721 365.03 352.051 365.03 352.051C365.03 352.051 362.09 348.621 347.85 359.191Z" stroke="black" stroke-width="3" stroke-miterlimit="10"/>
		<path d="M346.98 361.91C348.676 361.91 350.05 360.535 350.05 358.84C350.05 357.144 348.676 355.77 346.98 355.77C345.285 355.77 343.91 357.144 343.91 358.84C343.91 360.535 345.285 361.91 346.98 361.91Z" fill="#265F8E" stroke="black" stroke-width="3" stroke-miterlimit="10"/>
		<path d="M346.981 360.258C347.765 360.258 348.401 359.622 348.401 358.838C348.401 358.054 347.765 357.418 346.981 357.418C346.196 357.418 345.561 358.054 345.561 358.838C345.561 359.622 346.196 360.258 346.981 360.258Z" fill="#9075E7"/>
		<path d="M347 358.617C347.602 358.617 348.09 358.129 348.09 357.527C348.09 356.926 347.602 356.438 347 356.438C346.398 356.438 345.91 356.926 345.91 357.527C345.91 358.129 346.398 358.617 347 358.617Z" fill="#B7A7F9"/>
		<path d="M281.11 373.078L256.7 391.898L232.29 373.078C232.29 373.078 197.08 416.688 201.11 441.518C201.11 441.518 225.79 453.268 256.54 453.348C256.59 453.348 256.65 453.348 256.7 453.348C256.75 453.348 256.81 453.348 256.86 453.348C287.61 453.268 312.29 441.518 312.29 441.518C316.32 416.688 281.11 373.078 281.11 373.078Z" fill="white" stroke="black" stroke-width="4" stroke-miterlimit="10" stroke-linejoin="round"/>
		<path d="M242.441 442.529C242.441 442.529 247.271 421.029 255.771 408.699L249.601 400.699L233.271 412.199C233.281 412.189 230.111 433.029 242.441 442.529Z" fill="#E7EBF2"/>
		<path d="M268.91 442.529C268.91 442.529 264.08 421.029 255.58 408.699L261.75 400.699L278.08 412.199C278.08 412.189 281.25 433.029 268.91 442.529Z" fill="#E7EBF2"/>
		<path d="M206.28 420.529C228.28 387.359 255.95 403.859 255.95 403.859V396.359C255.95 396.359 229.45 383.029 228.78 383.189C215.78 395.859 206.28 420.529 206.28 420.529Z" fill="#E7EBF2"/>
		<path d="M284.61 383.189C283.94 383.019 257.44 396.359 257.44 396.359V403.859C257.44 403.859 285.11 387.359 307.11 420.529C307.11 420.529 297.61 395.859 284.61 383.189Z" fill="#E7EBF2"/>
		<path d="M231.221 373.078C231.221 373.078 250.331 382.638 255.891 393.968V401.748C255.891 401.748 238.781 388.188 215.891 390.418L231.221 373.078Z" fill="#45567C" stroke="black" stroke-width="4" stroke-miterlimit="10" stroke-linejoin="round"/>
		<path d="M280.33 373.078C280.33 373.078 261.22 382.638 255.66 393.968V401.748C255.66 401.748 272.77 388.188 295.66 390.418L280.33 373.078Z" fill="#45567C" stroke="black" stroke-width="4" stroke-miterlimit="10" stroke-linejoin="round"/>
		<path d="M223.891 382.527C223.891 382.527 245.771 386.437 255.671 398.417" stroke="white" stroke-width="2" stroke-miterlimit="10" stroke-linejoin="round"/>
		<path d="M287.671 382.527C287.671 382.527 265.791 386.437 255.891 398.417" stroke="white" stroke-width="2" stroke-miterlimit="10" stroke-linejoin="round"/>
		<path d="M231.221 373.078C231.221 373.078 250.331 382.638 255.891 393.968V401.748C255.891 401.748 238.781 388.188 215.891 390.418L231.221 373.078Z" stroke="black" stroke-width="4" stroke-miterlimit="10" stroke-linejoin="round"/>
		<path d="M280.33 373.078C280.33 373.078 261.22 382.638 255.66 393.968V401.748C255.66 401.748 272.77 388.188 295.66 390.418L280.33 373.078Z" stroke="black" stroke-width="4" stroke-miterlimit="10" stroke-linejoin="round"/>
		<path d="M247.78 400.027C247.78 404.447 251.36 408.027 255.78 408.027C260.2 408.027 263.78 404.447 263.78 400.027C263.78 395.607 255.78 392.027 255.78 392.027C255.78 392.027 247.78 395.607 247.78 400.027Z" fill="#45567C" stroke="black" stroke-width="4" stroke-miterlimit="10" stroke-linejoin="round"/>
		<path d="M250.94 406.527C250.94 406.527 238.11 424.697 234.44 442.527C234.44 442.527 225.77 420.857 229.94 406.357L247.27 400.027C247.28 400.027 246.94 403.527 250.94 406.527Z" fill="#45567C" stroke="black" stroke-width="4" stroke-miterlimit="10" stroke-linejoin="round"/>
		<path d="M234.28 435.359C234.28 435.359 232.61 411.859 245.78 402.859L236.11 406.359C236.11 406.359 228.11 421.859 234.28 435.359Z" fill="#293447"/>
		<path d="M237.281 431.188C237.281 431.188 236.781 413.188 248.111 404.188" stroke="white" stroke-width="2" stroke-miterlimit="10"/>
		<path d="M250.94 406.527C250.94 406.527 238.11 424.697 234.44 442.527C234.44 442.527 225.77 420.857 229.94 406.357L247.27 400.027C247.28 400.027 246.94 403.527 250.94 406.527Z" stroke="black" stroke-width="4" stroke-miterlimit="10" stroke-linejoin="round"/>
		<path d="M260.48 406.527C260.48 406.527 273.31 424.697 276.98 442.527C276.98 442.527 285.65 420.857 281.48 406.357L264.15 400.027C264.14 400.027 264.48 403.527 260.48 406.527Z" fill="#45567C" stroke="black" stroke-width="4" stroke-miterlimit="10" stroke-linejoin="round"/>
		<path d="M277.141 435.359C277.141 435.359 278.811 411.859 265.641 402.859L275.311 406.359C275.311 406.359 283.311 421.859 277.141 435.359Z" fill="#293447"/>
		<path d="M274.141 431.188C274.141 431.188 274.641 413.188 263.311 404.188" stroke="white" stroke-width="2" stroke-miterlimit="10"/>
		<path d="M260.48 406.527C260.48 406.527 273.31 424.697 276.98 442.527C276.98 442.527 285.65 420.857 281.48 406.357L264.15 400.027C264.14 400.027 264.48 403.527 260.48 406.527Z" stroke="black" stroke-width="4" stroke-miterlimit="10" stroke-linejoin="round"/>
	</g>
	<defs>
		<filter id="filter0_d_2807_70350" x="111.274" y="144.766" width="352.626" height="393.094" filterUnits="userSpaceOnUse" color-interpolation-filters="sRGB">
			<feFlood flood-opacity="0" result="BackgroundImageFix"/>
			<feColorMatrix in="SourceAlpha" type="matrix" values="0 0 0 0 0 0 0 0 0 0 0 0 0 0 0 0 0 0 127 0" result="hardAlpha"/>
			<feOffset dy="2.28975"/>
			<feGaussianBlur stdDeviation="36"/>
			<feComposite in2="hardAlpha" operator="out"/>
			<feColorMatrix type="matrix" values="0 0 0 0 1 0 0 0 0 0.827451 0 0 0 0 0.27451 0 0 0 0.6 0"/>
			<feBlend mode="normal" in2="BackgroundImageFix" result="effect1_dropShadow_2807_70350"/>
			<feBlend mode="normal" in="SourceGraphic" in2="effect1_dropShadow_2807_70350" result="shape"/>
		</filter>
	</defs>
</svg>
