<svg viewBox="0 0 511 596" fill="none" xmlns="http://www.w3.org/2000/svg">
	<g filter="url(#filter0_d_2807_70496)">
		<path d="M275.99 367.41C275.99 367.41 299.53 394.9 308.24 418.58C311.83 428.35 312.11 461.57 256.65 461.57C201.19 461.57 201.46 428.36 205.06 418.58C213.77 394.89 237.31 367.41 237.31 367.41H275.99Z" fill="#FFD346" stroke="black" stroke-width="4" stroke-miterlimit="10"/>
		<path d="M219.92 391.029C219.92 391.029 229.59 380.199 255.92 380.199C282.25 380.199 292.59 389.529 292.59 389.529L275.76 363.859L235.93 365.529L219.92 391.029Z" fill="#FBBC2F"/>
		<path d="M208.92 411.531C208.92 411.531 194.92 451.531 255.92 451.531H258.2C319.2 451.531 305.2 411.531 305.2 411.531C305.2 411.531 319.25 434.641 296.59 451.751C273.92 468.861 227.92 457.751 227.92 457.751C227.92 457.751 191.69 445.301 208.92 411.531Z" fill="#FBBC2F"/>
		<path d="M275.99 367.41C275.99 367.41 299.53 394.9 308.24 418.58C311.83 428.35 312.11 461.57 256.65 461.57C201.19 461.57 201.46 428.36 205.06 418.58C213.77 394.89 237.31 367.41 237.31 367.41H275.99Z" stroke="black" stroke-width="4" stroke-miterlimit="10"/>
		<path d="M259.18 227.461C259.18 227.461 297.65 227.141 315.08 257.771C332.51 288.401 325.07 311.301 318.69 327.421C310.19 346.121 314.65 347.411 307.64 357.951C294.04 375.581 255.57 375.151 255.57 375.151C255.57 375.151 217.1 375.581 203.5 357.951C196.49 347.421 200.95 346.131 192.45 327.421C186.07 311.301 178.64 288.401 196.06 257.771C213.48 227.141 251.96 227.461 251.96 227.461H259.18Z" fill="#FFD346" stroke="black" stroke-width="4" stroke-miterlimit="10"/>
		<path d="M289.75 369.993C290.7 369.883 260.73 378.803 228.48 371.713C196.23 364.623 197.09 338.173 197.09 338.173C197.09 338.173 191.07 322.693 189.14 317.963C187.21 313.233 175.811 279.053 206.771 243.793C206.771 243.793 181.15 284.753 203.68 328.853C205.71 332.823 207.35 336.973 208.53 341.263C211.69 352.743 225.89 377.683 289.75 369.993Z" fill="#FBBC2F"/>
		<path d="M259.18 227.461C259.18 227.461 297.65 227.141 315.08 257.771C332.51 288.401 325.07 311.301 318.69 327.421C310.19 346.121 314.65 347.411 307.64 357.951C294.04 375.581 255.57 375.151 255.57 375.151C255.57 375.151 217.1 375.581 203.5 357.951C196.49 347.421 200.95 346.131 192.45 327.421C186.07 311.301 178.64 288.401 196.06 257.771C213.48 227.141 251.96 227.461 251.96 227.461H259.18Z" stroke="black" stroke-width="4" stroke-miterlimit="10"/>
		<path d="M279.54 374.75L288.76 387.53L282.76 408.2L267.87 395.76L256.66 414.2L245.42 395.76L230.53 408.2L224.53 387.53L233.42 374.86C240.43 376.97 261.99 378.75 279.54 374.75Z" fill="#FBBC2F"/>
		<path d="M286.54 294.641L272.65 302.311L260.09 287.641L254.7 300.841L249.31 287.641L236.75 302.311L222.86 294.641L223.64 343.421C223.64 343.421 238.94 334.551 254.7 334.531C270.46 334.551 285.76 343.421 285.76 343.421L286.54 294.641Z" fill="#FBBC2F"/>
		<path d="M227.153 355.765C242.613 353.394 252.211 332.346 248.593 308.753C244.974 285.16 229.508 267.957 214.049 270.328C198.59 272.699 188.991 293.747 192.61 317.34C196.228 340.933 211.694 358.136 227.153 355.765Z" fill="#FBBC2F"/>
		<path d="M317.481 317.341C321.1 293.748 311.501 272.7 296.042 270.329C280.583 267.958 265.117 285.161 261.498 308.754C257.88 332.347 267.478 353.395 282.938 355.766C298.397 358.137 313.863 340.933 317.481 317.341Z" fill="#FBBC2F"/>
		<path d="M227.825 352.351C241.472 350.258 249.946 331.679 246.751 310.854C243.557 290.029 229.905 274.843 216.258 276.937C202.611 279.03 194.137 297.609 197.331 318.434C200.526 339.259 214.178 354.445 227.825 352.351Z" fill="white"/>
		<path d="M225.29 352.798C219.44 352.798 213.56 349.798 208.49 344.158C202.7 337.718 198.65 328.598 197.1 318.478C195.55 308.358 196.67 298.448 200.27 290.558C203.88 282.638 209.55 277.718 216.24 276.688C229.99 274.568 243.81 289.888 247.02 310.818C250.23 331.748 241.65 350.488 227.88 352.608C227.02 352.728 226.16 352.798 225.29 352.798ZM218.8 276.998C217.97 276.998 217.14 277.058 216.31 277.188C209.8 278.188 204.26 283.008 200.72 290.768C197.17 298.558 196.05 308.378 197.59 318.398C199.13 328.428 203.13 337.448 208.86 343.818C214.56 350.158 221.29 353.098 227.8 352.098C241.29 350.028 249.69 331.538 246.52 310.888C243.55 291.508 231.43 276.998 218.8 276.998Z" fill="black"/>
		<path d="M313.082 318.439C316.277 297.614 307.803 279.035 294.156 276.941C280.509 274.848 266.857 290.034 263.662 310.859C260.468 331.684 268.942 350.263 282.589 352.356C296.236 354.45 309.888 339.264 313.082 318.439Z" fill="white"/>
		<path d="M285.12 352.8C284.27 352.8 283.42 352.74 282.57 352.61C275.88 351.58 270.21 346.66 266.6 338.74C263.01 330.86 261.88 320.94 263.43 310.82C266.64 289.89 280.45 274.58 294.21 276.69C300.9 277.72 306.57 282.64 310.18 290.56C313.77 298.44 314.9 308.36 313.35 318.48C310.34 338.11 298 352.8 285.12 352.8ZM263.93 310.9C262.39 320.92 263.5 330.74 267.06 338.53C270.6 346.29 276.14 351.11 282.65 352.11C296.14 354.18 309.69 339.06 312.86 318.4C314.4 308.38 313.29 298.56 309.73 290.77C306.19 283.01 300.65 278.19 294.14 277.19C280.65 275.13 267.1 290.24 263.93 310.9Z" fill="black"/>
		<mask id="mask0_2807_70496" style="mask-type:luminance" maskUnits="userSpaceOnUse" x="196" y="276" width="52" height="77">
			<path d="M227.825 352.351C241.472 350.258 249.946 331.679 246.751 310.854C243.557 290.029 229.905 274.843 216.258 276.937C202.611 279.03 194.137 297.609 197.331 318.434C200.526 339.259 214.178 354.445 227.825 352.351Z" fill="white"/>
		</mask>
		<g mask="url(#mask0_2807_70496)">
			<path d="M219.977 349.79C232.805 347.823 240.771 330.359 237.768 310.784C234.766 291.208 221.932 276.935 209.104 278.902C196.276 280.87 188.311 298.334 191.313 317.909C194.316 337.484 207.149 351.758 219.977 349.79Z" fill="black"/>
			<path d="M217.63 350.22C205.52 350.22 193.92 336.41 191.08 317.95C188.06 298.27 196.14 280.64 209.08 278.66C222.02 276.67 235.01 291.07 238.03 310.75C239.49 320.26 238.43 329.59 235.05 337C231.65 344.45 226.32 349.08 220.03 350.04C219.23 350.17 218.43 350.22 217.63 350.22ZM211.49 278.98C210.71 278.98 209.93 279.04 209.16 279.16C196.49 281.1 188.6 298.47 191.58 317.88C194.56 337.29 207.28 351.5 219.96 349.55C226.08 348.61 231.28 344.08 234.6 336.79C237.94 329.47 238.98 320.25 237.54 310.83C234.74 292.61 223.36 278.98 211.49 278.98Z" fill="black"/>
		</g>
		<mask id="mask1_2807_70496" style="mask-type:luminance" maskUnits="userSpaceOnUse" x="262" y="276" width="52" height="77">
			<path d="M313.082 318.439C316.277 297.614 307.803 279.035 294.156 276.941C280.509 274.848 266.857 290.034 263.662 310.859C260.468 331.684 268.942 350.263 282.589 352.356C296.236 354.45 309.888 339.264 313.082 318.439Z" fill="white"/>
		</mask>
		<g mask="url(#mask1_2807_70496)">
			<path d="M304.927 317.919C307.93 298.344 299.964 280.88 287.136 278.913C274.308 276.945 261.475 291.219 258.473 310.794C255.47 330.369 263.435 347.833 276.264 349.801C289.092 351.768 301.925 337.495 304.927 317.919Z" fill="black"/>
			<path d="M278.65 350.224C277.85 350.224 277.05 350.164 276.25 350.044C269.96 349.084 264.63 344.444 261.23 337.004C257.85 329.594 256.79 320.274 258.25 310.754C261.27 291.074 274.25 276.674 287.2 278.664C293.49 279.624 298.82 284.264 302.22 291.704C305.6 299.114 306.66 308.434 305.2 317.954C302.36 336.414 290.76 350.224 278.65 350.224ZM284.79 278.984C272.92 278.984 261.54 292.614 258.75 310.834C257.3 320.254 258.35 329.474 261.69 336.794C265.01 344.084 270.21 348.614 276.33 349.554C277.11 349.674 277.89 349.734 278.66 349.734C290.53 349.734 301.91 336.104 304.7 317.884C306.15 308.464 305.1 299.244 301.76 291.924C298.44 284.634 293.24 280.104 287.12 279.164C286.35 279.044 285.57 278.984 284.79 278.984Z" fill="black"/>
		</g>
		<path d="M225.29 354.05C219.08 354.05 212.88 350.9 207.56 344.99C201.61 338.37 197.45 329.02 195.87 318.66C194.28 308.3 195.44 298.14 199.13 290.04C202.92 281.73 208.93 276.55 216.05 275.45C230.5 273.23 244.94 289.01 248.26 310.62C251.57 332.23 242.52 351.61 228.08 353.83C227.14 353.98 226.21 354.05 225.29 354.05ZM218.82 278.24C218.05 278.24 217.28 278.3 216.5 278.42C210.42 279.35 205.22 283.92 201.86 291.29C198.4 298.87 197.33 308.43 198.83 318.21C200.33 327.99 204.22 336.8 209.79 342.99C215.2 349.01 221.53 351.8 227.61 350.87C240.42 348.91 248.35 331.06 245.28 311.08C242.41 292.31 230.83 278.24 218.82 278.24Z" fill="black"/>
		<path d="M285.1 354.052C284.19 354.052 283.29 353.982 282.38 353.842C275.26 352.752 269.25 347.572 265.46 339.262C261.77 331.162 260.61 320.992 262.2 310.632C265.52 289.022 279.97 273.242 294.41 275.462C301.53 276.552 307.54 281.732 311.33 290.052C315.02 298.152 316.18 308.322 314.59 318.672C311.48 338.922 298.6 354.052 285.1 354.052ZM265.16 311.092C263.66 320.882 264.73 330.442 268.19 338.012C271.55 345.372 276.75 349.942 282.83 350.882C295.62 352.842 308.55 338.192 311.62 318.222C313.12 308.432 312.05 298.872 308.59 291.302C305.23 283.942 300.03 279.372 293.95 278.432C281.14 276.472 268.23 291.122 265.16 311.092Z" fill="black"/>
		<path d="M235.24 318.861C240.409 318.861 244.6 314.67 244.6 309.501C244.6 304.331 240.409 300.141 235.24 300.141C230.07 300.141 225.88 304.331 225.88 309.501C225.88 314.67 230.07 318.861 235.24 318.861Z" fill="white"/>
		<path d="M231.21 328.531C233.143 328.531 234.71 326.964 234.71 325.031C234.71 323.098 233.143 321.531 231.21 321.531C229.277 321.531 227.71 323.098 227.71 325.031C227.71 326.964 229.277 328.531 231.21 328.531Z" fill="#333333"/>
		<path d="M297.54 328.531C299.473 328.531 301.04 326.964 301.04 325.031C301.04 323.098 299.473 321.531 297.54 321.531C295.607 321.531 294.04 323.098 294.04 325.031C294.04 326.964 295.607 328.531 297.54 328.531Z" fill="#333333"/>
		<path d="M302.24 318.861C307.409 318.861 311.6 314.67 311.6 309.501C311.6 304.331 307.409 300.141 302.24 300.141C297.07 300.141 292.88 304.331 292.88 309.501C292.88 314.67 297.07 318.861 302.24 318.861Z" fill="white"/>
		<path d="M266.69 365.372C278.75 360.742 273.25 354.362 273.25 354.362C273.25 354.362 265.75 351.532 262.58 345.032C259.41 338.532 255.25 339.032 255.25 339.032C255.25 339.032 251.08 338.532 247.92 345.032C244.75 351.532 237.25 354.362 237.25 354.362C237.25 354.362 231.75 360.742 243.81 365.372C251.15 368.192 259.35 368.192 266.69 365.372Z" fill="#ED7601"/>
		<path d="M255.25 368.992C251.19 368.992 247.13 368.252 243.27 366.772C238.33 364.882 235.44 362.392 234.69 359.392C233.85 356.062 236.02 353.492 236.11 353.392L236.36 353.102L236.72 352.972C236.79 352.942 243.71 350.252 246.57 344.382C249.83 337.692 254.32 337.482 255.25 337.542C256.2 337.492 260.67 337.692 263.93 344.382C266.79 350.252 273.71 352.942 273.78 352.972L274.13 353.102L274.38 353.392C274.47 353.502 276.64 356.062 275.8 359.392C275.04 362.402 272.16 364.882 267.22 366.782C263.37 368.252 259.31 368.992 255.25 368.992ZM238.21 355.592C237.88 356.092 237.25 357.292 237.61 358.682C238.12 360.642 240.45 362.472 244.35 363.972C251.38 366.672 259.13 366.672 266.16 363.972C270.06 362.472 272.39 360.652 272.9 358.682C273.26 357.292 272.64 356.102 272.3 355.592C270.58 354.852 264.22 351.802 261.24 345.682C258.64 340.342 255.53 340.502 255.4 340.522L255.26 340.532L255.08 340.522C254.98 340.522 251.87 340.352 249.27 345.692C246.29 351.802 239.92 354.852 238.21 355.592Z" fill="black"/>
		<path d="M247.69 350.652C248.82 349.922 250.13 349.602 251.4 349.362C252.68 349.132 253.96 349.022 255.25 349.012C256.54 349.002 257.82 349.112 259.1 349.342C260.36 349.582 261.68 349.902 262.81 350.652L259 350.902C257.75 350.972 256.5 351.022 255.25 351.012C254 351.022 252.75 350.982 251.5 350.912C250.25 350.862 249.01 350.732 247.69 350.652Z" fill="black"/>
		<path d="M273.42 360.533C273.42 360.533 266.75 367.203 255.75 367.203C244.75 367.203 236.08 363.033 236.25 356.703L239.92 353.203C239.92 353.203 245.92 347.703 248.09 344.203C248.09 344.203 244.92 352.873 240.59 356.533C236.26 360.193 249.59 363.363 255.59 363.363C267.42 363.363 273.42 360.533 273.42 360.533Z" fill="#D64422"/>
		<path d="M274.25 355.2C273.01 356.19 271.56 356.9 270.06 357.48C268.55 358.03 266.96 358.42 265.34 358.57C263.72 358.77 262.05 358.72 260.41 358.45C258.76 358.23 257.18 357.68 255.64 357.05H256.86C255.32 357.68 253.74 358.23 252.09 358.45C250.45 358.72 248.79 358.77 247.16 358.57C245.53 358.41 243.94 358.03 242.44 357.48C240.94 356.9 239.5 356.19 238.25 355.2C239.78 355.59 241.28 355.89 242.79 356.05C244.29 356.25 245.78 356.28 247.25 356.23C247.98 356.22 248.71 356.11 249.43 356.05C250.14 355.91 250.87 355.85 251.56 355.66C252.97 355.38 254.31 354.86 255.64 354.32L256.25 354.07L256.86 354.32C258.18 354.86 259.53 355.38 260.94 355.67C261.64 355.87 262.36 355.93 263.07 356.07C263.79 356.12 264.52 356.24 265.25 356.25C266.72 356.3 268.21 356.26 269.71 356.06C271.22 355.9 272.72 355.59 274.25 355.2Z" fill="black"/>
		<path d="M255.25 368.992C251.19 368.992 247.13 368.252 243.27 366.772C238.33 364.882 235.44 362.392 234.69 359.392C233.85 356.062 236.02 353.492 236.11 353.392L236.36 353.102L236.72 352.972C236.79 352.942 243.71 350.252 246.57 344.382C249.83 337.692 254.32 337.482 255.25 337.542C256.2 337.492 260.67 337.692 263.93 344.382C266.79 350.252 273.71 352.942 273.78 352.972L274.13 353.102L274.38 353.392C274.47 353.502 276.64 356.062 275.8 359.392C275.04 362.402 272.16 364.882 267.22 366.782C263.37 368.252 259.31 368.992 255.25 368.992ZM238.21 355.592C237.88 356.092 237.25 357.292 237.61 358.682C238.12 360.642 240.45 362.472 244.35 363.972C251.38 366.672 259.13 366.672 266.16 363.972C270.06 362.472 272.39 360.652 272.9 358.682C273.26 357.292 272.64 356.102 272.3 355.592C270.58 354.852 264.22 351.802 261.24 345.682C258.64 340.342 255.53 340.502 255.4 340.522L255.26 340.532L255.08 340.522C254.98 340.522 251.87 340.352 249.27 345.692C246.29 351.802 239.92 354.852 238.21 355.592Z" fill="black"/>
		<path d="M227.379 382.98C225.549 383.95 194.159 400.95 194.309 419.89C194.369 427.45 198.679 431.05 204.379 432.86C200.599 406.19 227.379 382.98 227.379 382.98Z" fill="#FBBC2F" stroke="black" stroke-width="4" stroke-miterlimit="10" stroke-linecap="round" stroke-linejoin="round"/>
		<path d="M285.639 382.98C287.469 383.95 318.859 400.95 318.709 419.89C318.559 438.83 288.919 434.01 288.919 434.01L285.639 382.98Z" fill="#FBBC2F" stroke="black" stroke-width="4" stroke-miterlimit="10"/>
		<path d="M204.76 418.079C204.76 418.079 215.53 445.409 257.81 445.409C300.09 445.409 309.42 420.739 309.42 420.739C309.42 420.739 305.09 403.299 282.23 374.629C276.06 383.769 267.36 392.429 255.7 400.519C244.59 391.269 236.07 382.559 231.28 374.629C231.29 374.639 209.88 400.859 204.76 418.079Z" fill="#606E89" stroke="black" stroke-width="3" stroke-miterlimit="10" stroke-linejoin="round"/>
		<path d="M211.649 428.64C211.649 428.64 216.429 400.53 232.209 384.75" stroke="#6985B2" stroke-width="3" stroke-miterlimit="10" stroke-linejoin="round"/>
		<path d="M224.1 437.969C224.1 437.969 225.99 405.079 239.77 387.859" stroke="#6985B2" stroke-width="3" stroke-miterlimit="10" stroke-linejoin="round"/>
		<path d="M247.21 393.859C247.21 393.859 240.43 418.419 239.88 443.529" stroke="#6985B2" stroke-width="3" stroke-miterlimit="10" stroke-linejoin="round"/>
		<path d="M301.539 428.64C301.539 428.64 296.759 400.53 280.979 384.75" stroke="#6985B2" stroke-width="3" stroke-miterlimit="10" stroke-linejoin="round"/>
		<path d="M289.1 437.969C289.1 437.969 287.21 405.079 273.43 387.859" stroke="#6985B2" stroke-width="3" stroke-miterlimit="10" stroke-linejoin="round"/>
		<path d="M265.99 393.859C265.99 393.859 272.77 418.419 273.32 443.529" stroke="#6985B2" stroke-width="3" stroke-miterlimit="10" stroke-linejoin="round"/>
		<path d="M256.54 445.637V400.527" stroke="#6985B2" stroke-width="3" stroke-miterlimit="10" stroke-linejoin="round"/>
		<path d="M208.32 410.301C208.21 410.631 227.1 432.521 256.99 432.521C286.88 432.521 305.99 411.521 305.99 411.521" stroke="#6985B2" stroke-width="3" stroke-miterlimit="10" stroke-linejoin="round"/>
		<path d="M213.76 399.078C213.76 399.078 233.98 414.408 256.76 414.408C279.54 414.408 300.43 400.518 300.43 400.518" stroke="#6985B2" stroke-width="3" stroke-miterlimit="10" stroke-linejoin="round"/>
		<path d="M257.1 414.749C260.171 414.749 262.66 412.26 262.66 409.189C262.66 406.118 260.171 403.629 257.1 403.629C254.029 403.629 251.54 406.118 251.54 409.189C251.54 412.26 254.029 414.749 257.1 414.749Z" fill="#6985B2" stroke="black" stroke-width="3" stroke-miterlimit="10" stroke-linejoin="round"/>
		<path d="M257.1 436.979C260.171 436.979 262.66 434.49 262.66 431.419C262.66 428.349 260.171 425.859 257.1 425.859C254.029 425.859 251.54 428.349 251.54 431.419C251.54 434.49 254.029 436.979 257.1 436.979Z" fill="#6985B2" stroke="black" stroke-width="3" stroke-miterlimit="10" stroke-linejoin="round"/>
		<path d="M256.71 411.859C258.643 411.859 260.21 410.292 260.21 408.359C260.21 406.426 258.643 404.859 256.71 404.859C254.777 404.859 253.21 406.426 253.21 408.359C253.21 410.292 254.777 411.859 256.71 411.859Z" fill="#B3C6E0"/>
		<path d="M256.71 434.078C258.643 434.078 260.21 432.511 260.21 430.578C260.21 428.645 258.643 427.078 256.71 427.078C254.777 427.078 253.21 428.645 253.21 430.578C253.21 432.511 254.777 434.078 256.71 434.078Z" fill="#B3C6E0"/>
		<path d="M214.88 431.298C214.88 431.298 218.66 409.188 233.21 387.078" stroke="#B3C6E0" stroke-miterlimit="10"/>
		<path d="M227.649 439.419C227.649 439.419 229.429 408.419 241.869 389.859" stroke="#B3C6E0" stroke-miterlimit="10"/>
		<path d="M206.88 421.86C206.88 421.86 210.44 409.08 225.44 386.75" stroke="#B3C6E0" stroke-miterlimit="10"/>
		<path d="M249.88 395.75C249.88 395.75 244.32 416.97 243.66 443.64" stroke="#B3C6E0" stroke-miterlimit="10"/>
		<path d="M263.1 396.078C263.1 396.078 269.1 416.188 269.99 444.968" stroke="#B3C6E0" stroke-miterlimit="10"/>
		<path d="M272.319 391.859C272.319 391.859 284.649 409.299 285.879 440.299" stroke="#B3C6E0" stroke-miterlimit="10"/>
		<path d="M281.43 390.527C281.76 390.637 293.99 405.197 299.32 433.307" stroke="#B3C6E0" stroke-miterlimit="10"/>
		<path d="M289.76 389.527C289.76 389.527 301.43 407.417 307.76 423.747" stroke="#B3C6E0" stroke-miterlimit="10"/>
		<path d="M204.76 418.079C204.76 418.079 215.53 445.409 257.81 445.409C300.09 445.409 309.42 420.739 309.42 420.739C309.42 420.739 305.09 403.299 282.23 374.629C276.06 383.769 267.36 392.429 255.7 400.519C244.59 391.269 236.07 382.559 231.28 374.629C231.29 374.639 209.88 400.859 204.76 418.079Z" stroke="black" stroke-width="3" stroke-miterlimit="10" stroke-linejoin="round"/>
		<path d="M218.76 394.419C218.76 394.419 233.16 394.309 237.43 394.859C241.7 395.419 255.43 403.969 255.43 403.969L239.57 388.639L223.37 387.199L218.76 394.419Z" fill="#495666"/>
		<path d="M294.76 394.419C294.76 394.419 280.54 394.309 276.32 394.859C272.1 395.419 258.54 403.969 258.54 403.969L274.21 388.639L290.21 387.199L294.76 394.419Z" fill="#495666"/>
		<path d="M302.1 388.751L282.32 374.641C273.16 386.021 258.06 398.221 257.04 399.041C256.02 398.221 240.92 386.021 231.76 374.641L210.76 388.311C210.76 388.311 236.5 390.751 239.05 392.201C241.47 393.571 255.62 402.391 256.98 403.241V403.311C256.98 403.311 257 403.301 257.04 403.271C257.08 403.291 257.1 403.311 257.1 403.311V403.241C258.46 402.391 272.61 393.581 275.03 392.201C277.58 390.751 302.1 388.751 302.1 388.751Z" fill="#6985B2" stroke="black" stroke-width="3" stroke-miterlimit="10" stroke-linejoin="round"/>
		<path d="M238.43 390.19C238.43 390.19 232.32 385.63 231.43 376.75C231.43 376.75 228.76 382.86 232.65 388.97L238.43 390.19Z" fill="#B3C6E0"/>
		<path d="M275.649 390.19C275.649 390.19 281.759 385.63 282.649 376.75C282.649 376.75 285.319 382.86 281.429 388.97L275.649 390.19Z" fill="#B3C6E0"/>
		<path d="M276.08 436.361C286.13 438.501 312.01 444.161 324.07 446.801C327.58 447.571 331.04 445.341 331.79 441.821L338.89 408.621L332.99 402.861L280.32 390.301L272.43 430.841C271.94 433.371 273.56 435.821 276.08 436.361Z" fill="#B93B00" stroke="black" stroke-width="0.4" stroke-miterlimit="10"/>
		<path d="M280.319 390.301C280.759 390.411 297.429 394.301 297.429 394.301L300.649 398.741L290.979 396.521L281.14 432.101C280.32 435.081 277.029 436.741 274.209 435.471C274.169 435.451 274.129 435.431 274.089 435.411C274.089 435.411 271.759 433.931 272.419 430.841L280.319 390.301Z" fill="#EAC17F"/>
		<path d="M324.54 400.75L332.99 402.86L338.88 408.64L325.65 404.97L324.54 400.75Z" fill="#EAC17F"/>
		<path d="M281.21 391.75C281.43 391.86 290.77 398.42 290.77 398.42L280.66 433.09C280.66 433.09 279.56 437.7 274.44 436.2C274.44 436.2 272.33 435.41 272.88 431.98L281.21 391.75Z" fill="#FFE5C2"/>
		<path d="M274.22 435.468C274.22 435.468 278.87 437.008 281.15 432.098L331.21 443.408C331.21 443.408 329.27 448.068 324.07 446.788L276.87 436.608C275.92 436.408 275.02 436.018 274.22 435.468Z" fill="#722000"/>
		<path d="M338.89 408.621L332.99 402.861L280.32 390.301L272.43 430.841C271.98 433.151 273.31 435.381 275.47 436.161C275.92 436.361 276.39 436.511 276.87 436.611L324.07 446.791C328.45 447.861 330.51 444.731 331.05 443.721C331.39 443.141 331.64 442.501 331.79 441.811L338.89 408.621Z" stroke="black" stroke-width="3" stroke-miterlimit="10"/>
		<path d="M285.99 377.188C285.99 377.188 316.88 382.297 325.1 401.517C333.32 420.737 312.1 433.847 296.43 429.077C296.43 429.077 289.54 430.967 288.65 429.077C287.76 427.187 294.54 405.407 299.98 398.517L293.2 389.517L302.03 388.867C302.09 388.867 302.11 388.788 302.06 388.758L285.99 377.188Z" fill="#FBBC2F" stroke="black" stroke-width="3" stroke-miterlimit="10"/>
		<path d="M288.99 429.638C289.53 430.368 290.25 430.818 291.01 431.058C291.39 431.168 291.81 431.268 292.23 431.238C292.66 431.238 293.14 431.198 293.62 431.038C294.16 430.908 295.2 430.518 296.34 429.888C297.48 429.248 298.69 428.348 299.75 427.408C300.26 426.918 300.75 426.448 301.21 425.998C301.64 425.538 302 425.098 302.33 424.728C302.65 424.358 302.91 424.058 303.09 423.838C303.28 423.628 303.36 423.498 303.36 423.498C303.36 423.498 303.73 422.998 304.3 422.218C304.58 421.828 304.93 421.378 305.28 420.868C305.61 420.348 305.96 419.788 306.33 419.208C306.68 418.628 307.08 418.048 307.4 417.458C307.72 416.868 308.03 416.298 308.32 415.768C308.89 414.708 309.37 413.858 309.55 413.398C310.3 411.758 310.25 410.588 309.98 408.848C308.44 409.788 307.53 410.438 306.76 412.008C306.57 412.448 306.1 413.258 305.56 414.268C305.29 414.768 304.99 415.318 304.68 415.888C304.37 416.448 304 416.988 303.67 417.538C303.33 418.078 303 418.618 302.69 419.108C302.36 419.588 302.04 419.998 301.78 420.368C301.25 421.098 300.91 421.558 300.91 421.558C300.91 421.558 300.83 421.678 300.66 421.868C300.49 422.058 300.25 422.338 299.96 422.668C299.66 422.998 299.34 423.408 298.95 423.818C298.55 424.208 298.11 424.628 297.66 425.048C296.74 425.858 295.72 426.608 294.81 427.128C293.9 427.628 293.13 427.928 292.74 428.028C292.38 428.168 292.07 428.248 291.78 428.368C291.49 428.508 291.22 428.608 290.95 428.758C290.4 429.038 289.84 429.408 288.99 429.638Z" fill="#1D1D1D"/>
		<path d="M298.319 429.301C299.199 430.501 300.099 431.121 301.569 431.071C302.369 431.081 304.769 430.771 306.779 429.881C307.269 429.641 307.749 429.411 308.189 429.201C308.629 428.991 308.989 428.721 309.319 428.531C309.639 428.331 309.909 428.161 310.089 428.041C310.259 427.911 310.359 427.831 310.359 427.831C310.359 427.831 310.739 427.531 311.339 427.061C311.959 426.621 312.629 425.851 313.399 425.121C314.059 424.311 314.809 423.481 315.329 422.711C315.839 421.941 316.259 421.311 316.459 420.991C317.139 419.781 317.019 418.801 316.659 417.391C315.229 417.921 314.449 418.291 313.799 419.361C313.609 419.641 313.229 420.201 312.769 420.881C312.309 421.571 311.659 422.271 311.089 422.991C310.429 423.611 309.859 424.281 309.339 424.651C308.839 425.041 308.519 425.301 308.519 425.301C308.519 425.301 308.439 425.361 308.299 425.481C308.149 425.571 307.929 425.711 307.659 425.871C307.389 426.021 307.089 426.261 306.729 426.421C306.369 426.591 305.979 426.781 305.579 426.971C303.949 427.681 302.029 427.931 301.399 427.941C300.219 428.031 299.599 428.551 298.319 429.301Z" fill="#1D1D1D"/>
		<path d="M274.22 435.47C274.22 435.47 278.43 437.57 281.15 432.1C283.87 426.63 290.87 397.41 290.87 397.41L299.54 399.19" stroke="black" stroke-width="3" stroke-miterlimit="10"/>
		<path d="M326.21 405.969L338.89 408.619" stroke="black" stroke-width="3" stroke-miterlimit="10"/>
		<path d="M282.649 432.42L329.649 443.09C329.649 443.09 330.209 441.98 330.429 440.76L283.539 430.32L282.649 432.42Z" fill="#EF6A35"/>
		<path d="M274.32 428.75C274.76 428.75 279.54 432.08 279.54 432.08C279.54 432.08 279.01 435.22 275.79 434.44C272.71 433.86 274.32 428.75 274.32 428.75Z" fill="#BC8B44"/>
		<path d="M283.29 393.188L275.54 429.857C275.54 429.857 275.96 430.438 276.04 430.188C276.12 429.938 284.12 393.688 284.12 393.688L283.29 393.188Z" fill="#BC8B44"/>
		<path d="M286.21 395.188C286.21 395.188 276.79 430.937 277.04 430.857C277.29 430.777 277.71 431.188 277.71 431.188L287.21 395.767L286.21 395.188Z" fill="#BC8B44"/>
		<path d="M320.54 268.191V213.711C320.54 200.071 310.83 188.361 297.42 185.841L262.57 179.281C258.74 178.561 254.81 178.641 251.01 179.501L219.48 186.701C206.58 189.651 197.43 201.121 197.43 214.351V253.961C197.43 253.961 215.65 245.961 256.76 245.961C297.87 245.961 320.54 268.191 320.54 268.191Z" fill="#6C707C"/>
		<path d="M197.21 251.749L170.21 268.529C170.21 268.529 165.04 272.199 164.54 275.699C163.81 278.759 166.08 280.839 169.21 280.529C173.71 280.029 188.99 263.749 232.54 263.749C276.09 263.749 299.21 276.639 299.21 276.639C299.21 276.639 306.1 283.079 312.99 277.969C319.88 272.859 320.55 268.189 320.55 268.189C320.55 268.189 301.22 244.629 255.22 244.629C209.22 244.629 197.21 251.749 197.21 251.749Z" fill="#303338"/>
		<path d="M297.419 185.841L262.569 179.281C258.739 178.561 254.809 178.641 251.009 179.501L219.479 186.701C215.409 187.631 211.719 189.411 208.569 191.821C222.399 189.431 244.949 185.241 253.299 183.681C255.449 183.281 257.649 183.231 259.819 183.551L294.419 188.591C304.189 190.011 311.429 198.391 311.429 208.261V261.301C317.429 265.141 320.539 268.181 320.539 268.181V213.701C320.539 200.081 310.829 188.371 297.419 185.841Z" fill="#303338"/>
		<path d="M171.379 275.528C171.379 275.528 185.049 263.028 220.379 259.358C256.549 255.688 288.709 265.188 305.049 274.858C306.669 272.968 306.169 270.078 303.999 268.858C293.779 263.098 264.519 249.808 219.879 255.358C193.349 257.268 178.149 266.318 170.549 271.688C169.169 272.668 168.209 274.078 167.799 275.648C167.499 276.768 168.819 277.618 169.709 276.888L171.379 275.528Z" fill="#5E6268"/>
		<path d="M296.09 184.73L261.24 178.17C259.33 177.81 257.38 177.65 255.45 177.69C254.48 177.71 253.51 177.78 252.55 177.89C251.59 178.01 250.63 178.18 249.68 178.39L218.15 185.59C217.43 185.75 216.73 185.95 216.04 186.17C215.88 186.22 215.72 186.27 215.57 186.32C214.91 186.54 214.25 186.78 213.61 187.04C213.48 187.09 213.36 187.15 213.23 187.21C212.69 187.44 212.16 187.69 211.63 187.96C211.47 188.04 211.32 188.11 211.16 188.2C210.58 188.51 210.02 188.83 209.47 189.18C209.29 189.29 209.12 189.41 208.94 189.52C208.48 189.82 208.03 190.13 207.6 190.45C207.48 190.54 207.35 190.63 207.23 190.72C200.39 195.96 196.1 204.19 196.1 213.25V250.52C195.96 250.59 195.88 250.64 195.88 250.64L168.88 267.42C168.88 267.42 163.71 271.09 163.21 274.59C162.48 277.65 164.75 279.73 167.88 279.42C172.38 278.92 187.66 262.64 231.21 262.64C274.76 262.64 297.88 275.53 297.88 275.53C297.88 275.53 304.77 281.97 311.66 276.86C318.55 271.75 319.22 267.08 319.22 267.08V212.6C319.21 198.96 309.5 187.25 296.09 184.73Z" stroke="black" stroke-width="4" stroke-miterlimit="10"/>
		<path d="M201.43 247.751V210.721C201.43 203.331 206.69 196.991 213.96 195.631L248.93 189.091C253.67 188.201 258.53 188.121 263.31 188.841L289.75 192.841C299.15 194.261 306.1 202.341 306.1 211.851V253.761C306.1 253.751 264.99 229.751 201.43 247.751Z" fill="#969EB2"/>
		<path d="M203.88 244.638V210.978C203.88 206.018 207.42 201.758 212.3 200.838L229.6 197.598C240.81 195.498 250.96 204.678 249.92 216.038C249.36 222.078 248.99 229.578 248.99 238.858C248.99 238.858 227.21 237.748 203.88 244.638Z" fill="#BAC2D3"/>
		<path d="M219.91 238.347C219.91 235.827 219.91 233.307 219.91 230.777C221.72 230.387 223.53 230.027 225.35 229.707C225.35 222.507 225.35 215.297 225.35 208.097C223.53 208.417 221.72 208.777 219.91 209.167C219.91 206.647 219.91 204.127 219.91 201.597C225.93 200.287 232.01 199.387 238.14 198.887C238.14 201.407 238.14 203.927 238.14 206.457C236.3 206.607 234.47 206.797 232.64 207.017C232.64 214.217 232.64 221.427 232.64 228.627C234.47 228.407 236.3 228.217 238.14 228.067C238.14 230.587 238.14 233.107 238.14 235.637C232.02 236.137 225.93 237.037 219.91 238.347Z" fill="white"/>
		<path d="M221.39 202.799C223.2 202.429 225.01 202.089 226.84 201.789C228.27 201.549 229.7 201.339 231.14 201.149C232.97 200.909 234.8 200.699 236.64 200.529C236.64 202.049 236.64 203.569 236.64 205.089C234.8 205.259 232.97 205.469 231.14 205.709C231.14 213.909 231.14 222.119 231.14 230.319C232.97 230.079 234.8 229.869 236.64 229.699C236.64 231.219 236.64 232.739 236.64 234.259C231.53 234.729 226.44 235.489 221.4 236.529C221.4 235.009 221.4 233.489 221.4 231.969C223.21 231.599 225.02 231.259 226.85 230.959C226.85 222.759 226.85 214.549 226.85 206.349C225.03 206.649 223.21 206.989 221.4 207.359C221.39 205.839 221.39 204.319 221.39 202.799ZM218.43 200.439C218.43 201.469 218.43 202.499 218.43 203.519C218.43 205.039 218.43 206.559 218.43 208.079C218.43 209.049 218.43 210.029 218.43 210.999C219.39 210.779 220.35 210.569 221.31 210.379C222.16 210.199 223.01 210.039 223.86 209.879C223.86 216.079 223.86 222.289 223.86 228.489C223.06 228.639 222.27 228.789 221.48 228.959C220.46 229.169 219.45 229.389 218.44 229.619C218.44 230.649 218.44 231.679 218.44 232.699C218.44 234.219 218.44 235.739 218.44 237.259C218.44 238.229 218.44 239.209 218.44 240.179C219.4 239.959 220.36 239.749 221.32 239.559C226.36 238.519 231.45 237.759 236.56 237.289C237.59 237.189 238.62 237.109 239.65 237.039C239.65 236.009 239.65 234.979 239.65 233.959C239.65 232.439 239.65 230.919 239.65 229.399C239.65 228.429 239.65 227.449 239.65 226.479C238.67 226.549 237.7 226.629 236.72 226.719C235.86 226.799 235 226.889 234.14 226.979C234.14 220.779 234.14 214.569 234.14 208.369C234.94 208.279 235.75 208.199 236.55 208.119C237.58 208.019 238.61 207.939 239.64 207.869C239.64 206.839 239.64 205.809 239.64 204.789C239.64 203.269 239.64 201.749 239.64 200.229C239.64 199.259 239.64 198.279 239.64 197.309C238.66 197.379 237.69 197.459 236.71 197.549C234.87 197.719 233.04 197.919 231.21 198.169C229.77 198.359 228.34 198.569 226.91 198.809C225.09 199.109 223.27 199.439 221.46 199.809C220.46 199.989 219.45 200.209 218.43 200.439Z" fill="black"/>
		<path d="M273.239 237.171C264.449 235.721 259.359 229.661 259.359 219.351C259.359 209.851 266.739 199.371 273.169 200.331C273.219 200.341 273.269 200.351 273.319 200.351C279.789 201.391 287.059 214.331 287.049 223.971C287.049 234.101 282.259 238.521 273.759 237.251C273.599 237.221 273.419 237.201 273.239 237.171Z" fill="#0028FF"/>
		<path d="M273.17 201.82C273.21 201.83 273.25 201.83 273.28 201.84C278.38 202.64 285.58 214.24 285.57 223.61C285.57 232.8 281.45 236.9 273.76 235.75C273.6 235.73 273.44 235.7 273.27 235.67C265.26 234.34 260.85 228.79 260.86 219.41C260.87 210.11 268.09 201.04 273.17 201.82ZM273.17 198.82C265.9 197.73 257.85 208.89 257.85 219.29C257.84 230.37 263.62 237.08 273.2 238.66C273.39 238.69 273.58 238.72 273.77 238.75C283.08 240.14 288.53 235.26 288.54 224.34C288.55 213.82 280.67 200.04 273.37 198.86C273.31 198.84 273.24 198.83 273.17 198.82Z" fill="black"/>
		<path d="M271.85 228.62C269.8 228.25 264.34 227.6 264.34 217.85C264.34 210.86 269.73 204.78 271.85 204.66C273.98 205.46 279.33 213.24 279.32 220.23C279.33 229.99 273.91 228.91 271.85 228.62Z" fill="#0077FF"/>
		<path d="M246.439 229.96C245.949 229.6 234.779 224.77 234.789 217.52C234.789 212.65 238.079 208.37 242.309 208.03C244.079 207.89 245.759 208.49 247.189 209.72C248.539 208.53 250.109 207.88 251.749 207.86C256.039 207.8 259.539 212.03 259.539 217.01C259.539 224.31 248.269 229.55 247.789 229.94C247.569 230.05 247.339 230.17 247.119 230.28C246.879 230.17 246.659 230.07 246.439 229.96Z" fill="#FF1A1A"/>
		<path d="M242.299 209.53C243.969 209.4 245.709 210.11 247.129 211.9C248.509 210.16 250.149 209.38 251.729 209.36C254.989 209.31 258.009 212.53 258.009 216.95C258.009 223.39 247.129 228.47 247.139 228.6C247.129 228.48 236.279 223.77 236.289 217.33C236.289 213.04 239.159 209.78 242.299 209.53ZM242.299 206.53C237.229 206.93 233.279 212.02 233.279 217.73C233.269 225.75 244.449 230.59 245.729 231.33C246.169 231.53 246.609 231.74 247.049 231.95C247.499 231.72 247.949 231.5 248.399 231.27C249.689 230.48 261.019 225.19 261.019 217.08C261.019 211.28 256.849 206.29 251.719 206.36C250.129 206.38 248.589 206.89 247.209 207.83C245.739 206.85 244.059 206.39 242.299 206.53Z" fill="black"/>
		<path d="M288.399 198.678C287.309 197.928 287.959 196.228 289.259 196.468C293.159 197.178 297.749 198.868 300.209 202.858C302.489 206.548 303.169 215.078 303.259 223.078C303.269 224.408 301.349 224.588 301.109 223.278C299.379 214.138 295.799 203.758 288.399 198.678Z" fill="#BAC2D3"/>
	</g>
	<defs>
		<filter id="filter0_d_2807_70496" x="89.0732" y="105.973" width="323.457" height="431.887" filterUnits="userSpaceOnUse" color-interpolation-filters="sRGB">
			<feFlood flood-opacity="0" result="BackgroundImageFix"/>
			<feColorMatrix in="SourceAlpha" type="matrix" values="0 0 0 0 0 0 0 0 0 0 0 0 0 0 0 0 0 0 127 0" result="hardAlpha"/>
			<feOffset dy="2.28975"/>
			<feGaussianBlur stdDeviation="36"/>
			<feComposite in2="hardAlpha" operator="out"/>
			<feColorMatrix type="matrix" values="0 0 0 0 1 0 0 0 0 0.827451 0 0 0 0 0.27451 0 0 0 0.6 0"/>
			<feBlend mode="normal" in2="BackgroundImageFix" result="effect1_dropShadow_2807_70496"/>
			<feBlend mode="normal" in="SourceGraphic" in2="effect1_dropShadow_2807_70496" result="shape"/>
		</filter>
	</defs>
</svg>
