<svg version="1.1" xmlns="http://www.w3.org/2000/svg" xmlns:xlink="http://www.w3.org/1999/xlink" x="0px" y="0px"
	 viewBox="0 0 510.24 595.28" style="enable-background:new 0 0 510.24 595.28;" xml:space="preserve">

<g id="NEW_x5F_NESTS">
	<ellipse class="st24" cx="247.93" cy="489.91" rx="172.16" ry="71.12"/>
	<path class="st114" d="M110.44,364.97c-0.02-3.49,0.11-21.39,4.58-42.88c7.54-36.18,23.5-64.34,47.44-83.7
		c23.25-18.8,52.88-28.74,85.7-28.74c32.84,0,62.48,9.95,85.72,28.79c23.92,19.39,39.83,47.57,47.28,83.77
		c4.4,21.36,4.5,39.29,4.47,42.81v158.31l-275.19,1.7V364.97z"/>
	<path class="st114" d="M128.51,367.54c-0.02-3.34,0.09-20.42,4.34-41.14c6.91-33.73,21.2-59.7,42.46-77.18
		c19.78-16.27,44.97-24.87,72.86-24.87c27.9,0,53.1,8.61,72.87,24.9c21.24,17.5,35.47,43.49,42.3,77.24
		c4.17,20.62,4.26,37.73,4.23,41.09V514l-239.06,1.51V367.54z"/>
	<path class="st114" d="M146.57,367.49c-0.02-2.12,0-18.72,4.09-38.68c6.29-30.67,18.9-53.98,37.48-69.26
		c16.31-13.42,37.07-20.51,60.02-20.51c22.96,0,43.72,7.1,60.01,20.53c18.56,15.3,31.12,38.61,37.33,69.3
		c4.02,19.86,4.01,36.48,3.99,38.65v131.89l-202.93,1.28V367.49z"/>
	<path class="st114" d="M164.63,367.45c-0.01-1.51-0.05-17.22,3.84-36.22c5.66-27.62,16.6-48.26,32.51-61.34
		c12.85-10.56,29.16-16.15,47.18-16.15c18.03,0,34.33,5.59,47.16,16.16c15.88,13.09,26.77,33.73,32.36,61.36
		c3.84,18.95,3.77,34.62,3.75,36.2v117.36l-166.81,1.05V367.45z"/>
	<path class="st114" d="M182.7,471.06V367.39c0,0-1.26-98.94,65.47-98.94s65.21,98.94,65.21,98.94v102.85L182.7,471.06z"/>
	<path class="st115" d="M142.43,351.27c0,0-7.02-41.56,0-83.12C142.43,268.15,148.88,307.7,142.43,351.27z"/>
	<path class="st115" d="M298.82,389.87c0,0-5.52-44.17,0-88.34C298.82,301.52,303.91,343.57,298.82,389.87z"/>
	<path class="st115" d="M191.66,394.75c0,0-3.26-26.07,0-52.15C191.66,342.6,194.66,367.42,191.66,394.75z"/>
	<path class="st115" d="M283.74,252.13c0,0-3.26-19.32,0-38.63C283.74,213.5,286.74,231.88,283.74,252.13z"/>
	<path class="st115" d="M212.97,283.22c0,0-3.26-19.32,0-38.63C212.97,244.58,215.97,262.97,212.97,283.22z"/>
	<path class="st115" d="M357.41,306.41c0,0-3.26-26.07,0-52.15C357.41,254.26,360.41,279.08,357.41,306.41z"/>
	<path class="st115" d="M166.96,469.82c0,0-7.02-110.87,0-221.74C166.96,248.07,173.41,353.6,166.96,469.82z"/>
	<path class="st115" d="M328.61,406.9c0,0-7.02-82.14,0-164.28C328.61,242.62,335.06,320.8,328.61,406.9z"/>
	<path class="st116" d="M376.48,75.66c0.01,0.15,0.02,0.29,0.02,0.44c0,20.25-56.96,36.66-127.21,36.66S122.07,96.35,122.07,76.1
		c0-0.15,0.01-0.29,0.02-0.44h-20.03c0,0.15-0.01,0.29-0.01,0.44c0,30.98,65.92,56.1,147.24,56.1c81.32,0,147.24-25.12,147.24-56.1
		c0-0.15-0.01-0.29-0.01-0.44H376.48z"/>
	<path class="st117" d="M400.03,220.69h23.93c0,0,2.14-21.79-12.26-21.79S400.03,220.69,400.03,220.69z"/>
	<path class="st118" d="M408.15,213.84c0,0,9.72-0.22,9.72-6.52s-4.64-8.17-4.64-8.17s11.48-0.55,10.27,18
		C423.5,217.15,411.58,218.15,408.15,213.84z"/>
	<ellipse class="st119" cx="409.48" cy="205.67" rx="4.42" ry="4.31"/>
	<path class="st24" d="M411.7,198.9c0,0,11.36,0.37,11.36,16.49l2.32,0.77C425.38,216.16,425.41,198.9,411.7,198.9z"/>
	<path class="st24" d="M356.69,395.49v90.67h61.07c6.77,0,12.26-5.49,12.26-12.26l0-252.33c0-11.48-36.22-11.48-36.22,0l0,143.35
		l-30.57,20.2C359.15,387.81,356.69,390.6,356.69,395.49z"/>
	<path class="st117" d="M95.38,220.69H71.45c0,0-2.14-21.79,12.26-21.79S95.38,220.69,95.38,220.69z"/>
	<path class="st118" d="M87.25,213.84c0,0-9.72-0.22-9.72-6.52s4.64-8.17,4.64-8.17s-11.48-0.55-10.27,18
		C71.9,217.15,83.83,218.15,87.25,213.84z"/>
	<circle class="st24" cx="114.42" cy="83.09" r="24.74"/>
	<path class="st120" d="M120.55,356.68c0,0-0.09,4.16-4.29,5.67c-4.57,1.65-14.63,3.37-36.73,3.37c-17.5,0-26.6-1.23-31.25-2.67
		c-6.62-2.05-3.37-16.75-3.37-16.75s1.64-2.67,26.52-6.35C96.31,336.27,119.96,351.09,120.55,356.68z"/>
	<path class="st24" d="M138.71,395.49v90.67H77.64c-6.77,0-12.26-5.49-12.26-12.26l0-252.33c0-11.48,36.22-11.48,36.22,0l0,143.35
		l30.57,20.2C136.25,387.81,138.71,390.6,138.71,395.49z"/>
	<path class="st121" d="M415.91,474.4c1.77,2.92,2.81,6.25,2.84,9.67c0.38,39.57-72.96,73.35-170.58,73.35
		c-97.6,0-170.93-33.78-170.58-73.33c0.03-3.44,1.08-6.79,2.87-9.72l22.1-36.22h291.35L415.91,474.4z"/>
	<path class="st25" d="M398,446.78c7.33,30.49-59.4,57.49-149.74,57.49s-157.08-27-149.74-57.49
		c6.68-27.77,73.49-48.52,149.74-48.52S391.32,419.01,398,446.78z"/>
	<path class="st25" d="M345.73,446.78c3.06,19.51-40.51,36.25-97.47,36.25s-100.53-16.74-97.47-36.25
		c2.88-18.36,46.45-32.47,97.47-32.47S342.86,428.42,345.73,446.78z"/>
	<path class="st122" d="M398,446.78c7.33,30.49-59.4,57.49-149.74,57.49s-157.08-27-149.74-57.49
		c6.68-27.77,73.49-48.52,149.74-48.52S391.32,419.01,398,446.78z"/>
	<path class="st123" d="M116.77,479.09c0,0,7.66,4.42,14.28,7.36c0,0-16.93,22.09-18.4,40.93c0,0-9.72-5.01-15.75-10.9
		L116.77,479.09z"/>
	<path class="st124" d="M248.13,403.7c-70.74,0-132.73,17.76-138.92,41.52c-6.8,26.08,55.11,49.18,138.92,49.18
		s145.73-23.1,138.92-49.18C380.85,421.46,318.87,403.7,248.13,403.7z"/>
	<path class="st25" d="M387.18,444.93c6.8,26.08-55.11,49.18-138.92,49.18s-145.73-23.1-138.92-49.18
		c6.2-23.76,68.18-41.52,138.92-41.52S380.98,421.17,387.18,444.93z"/>
	<path class="st116" d="M345.73,446.78c3.06,19.51-40.51,36.25-97.47,36.25s-100.53-16.74-97.47-36.25
		c2.88-18.36,46.45-32.47,97.47-32.47S342.86,428.42,345.73,446.78z"/>
	<path class="st47" d="M334.7,443.91c2.71,17.3-35.92,32.15-86.44,32.15s-89.15-14.84-86.44-32.15c2.55-16.28,41.19-28.8,86.44-28.8
		S332.15,427.62,334.7,443.91z"/>
	<path class="st125" d="M159.62,495.88l-18.26,44.32c0,0,76.42,31.51,188.91,7.51L315.69,500
		C315.69,500,243.84,515.46,159.62,495.88z"/>
	<path class="st126" d="M178.02,549.03c0,0,20.47-36.96,9.13-46.82c0,0,44.02,6.92,88.05,3.53c0,0-15.61,22.53,4.86,47.85
		C280.06,553.6,224.55,558.6,178.02,549.03z"/>
	<g class="st127">
		<path class="st24" d="M127.9,500.54c-4.87-2.52-11.47-0.73-14.88,4.03c-3.41,4.76-2.24,10.76,2.78,13.36
			c5.02,2.61,11.85,0.76,15.12-4.08C134.19,509,132.77,503.06,127.9,500.54z"/>
		<path class="st24" d="M170.04,516.15c-5.69-1.75-12.1,1.01-14.43,6.26c-2.33,5.24,0.46,11.03,6.34,12.85
			c5.88,1.83,12.47-1.06,14.61-6.37C178.71,523.58,175.73,517.91,170.04,516.15z"/>
		<path class="st24" d="M219.95,524.07c-6.2-1.05-12.31,2.47-13.73,7.96c-1.42,5.48,2.57,10.9,8.99,11.99
			c6.42,1.1,12.66-2.58,13.85-8.11C230.26,530.38,226.14,525.12,219.95,524.07z"/>
		<path class="st24" d="M380.51,504.57c-3.41-4.76-10-6.55-14.88-4.03c-4.88,2.52-6.29,8.46-3.03,13.31
			c3.27,4.85,10.11,6.69,15.12,4.08C382.74,515.32,383.92,509.32,380.51,504.57z"/>
		<path class="st24" d="M323.48,516.15c-5.68,1.76-8.66,7.43-6.52,12.74c2.13,5.31,8.73,8.2,14.61,6.37
			c5.89-1.82,8.67-7.61,6.34-12.85C335.58,517.16,329.17,514.4,323.48,516.15z"/>
		<path class="st24" d="M273.58,524.07c-6.2,1.05-10.31,6.31-9.11,11.84c1.19,5.53,7.44,9.2,13.85,8.11
			c6.42-1.09,10.41-6.51,8.99-11.99C285.89,526.54,279.77,523.02,273.58,524.07z"/>
	</g>
	<path class="st128" d="M109.33,450.23c6.2-23.76,68.18-41.52,138.92-41.52s132.73,17.76,138.92,41.52c0.11,0.41,0.2,0.82,0.27,1.23
		c0.38-2.15,0.3-4.33-0.27-6.53c-6.2-23.76-68.18-41.52-138.92-41.52s-132.73,17.76-138.92,41.52c-0.57,2.2-0.65,4.38-0.27,6.53
		C109.14,451.05,109.23,450.64,109.33,450.23z"/>
	<path class="st129" d="M93.21,243.55v9.9c0,4.02-1.54,7.89-4.31,10.83l-16.51,17.51c0,0-9.07,0.88-8.77,0.44
		c0.3-0.44,1.93-35.48,1.93-35.48l23.05-11.78L93.21,243.55z"/>
	<path class="st130" d="M112.43,474.45c0.33,0.33-15.53,24.88-15.53,24.88l-6.77-1.84c0,0-9.94-9.5-10.82-20.98
		c0,0,6.4-11.78,8.17-13.91C87.47,462.6,104.55,466.5,112.43,474.45z"/>
	<path class="st121" d="M55.89,366.45V199.6c0-6.44,2.56-12.61,7.11-17.16l19.13-19.13c4.55-4.55,7.11-10.72,7.11-17.16v-76.3H72.01
		v70.56c0,6.44-2.56,12.61-7.11,17.16l-18.58,18.58c-4.55,4.55-7.11,10.72-7.11,17.16v197.22l17.56-23.85"/>
	<path class="st131" d="M51.14,278.11c5.16-2.08,16.7-3.54,30.12-3.54c11.04,0,20.82,0.98,26.81,2.49
		c3.89,0.98,15.62,5.34,15.62,15.3c0,14.1-9.44,15.73-9.44,15.73c0-3.3-14.77-5.98-33-5.98s-33,2.68-33,5.98
		c0,0-6.79-2.92-6.79-15.16S49.29,278.86,51.14,278.11z"/>
	<path class="st131" d="M51.14,305.59c5.16-2.08,16.7-3.54,30.12-3.54c11.04,0,20.82,0.98,26.81,2.49
		c3.89,0.98,15.62,5.34,15.62,15.3c0,14.1-9.44,15.73-9.44,15.73c0-3.3-14.77-5.98-33-5.98s-33,2.68-33,5.98
		c0,0-6.79-2.92-6.79-15.16C41.48,308.18,49.29,306.34,51.14,305.59z"/>
	<path class="st129" d="M65.28,367.12v-22.53h36.22v20.33c0,0-5.74-3.99-18.33-3.99S65.28,367.12,65.28,367.12z"/>
	<path class="st131" d="M51.14,333.07c5.16-2.08,16.7-3.54,30.12-3.54c11.04,0,20.82,0.98,26.81,2.49
		c3.89,0.98,15.62,5.34,15.62,15.3c0,14.1-9.44,15.73-9.44,15.73c0-3.3-14.77-5.98-33-5.98s-33,2.68-33,5.98
		c0,0-6.79-2.92-6.79-15.16S49.29,333.82,51.14,333.07z"/>
	<path class="st117" d="M65.39,373.66l36.75,23.69c5.64,3.63,9.04,9.88,9.04,16.59v43.07l-11.19,3.53l-12.07,19.73l-5.08-9.79h0
		c-9.41,0-17.29-8.43-17.34-17.83L65.39,373.66z"/>
	<path class="st131" d="M96.97,499.63c0,0-14.8-16.34-14.13-29.15c0.2-5.53,2.21-13.25,10.6-19.88c9.13-7.21,17.7-4.64,17.7-4.64
		s-0.72,14.88,12.04,23.3l-10.74,5.19L96.97,499.63z"/>
	<path class="st24" d="M96.97,499.63c0,0,1.1-18.11,10.6-26.5s15.6-3.87,15.6-3.87l-10.74,5.19L96.97,499.63z"/>
	<path class="st128" d="M111.1,440.88v-29.26l27.61-11.82v21.98C138.71,421.78,120.05,429.07,111.1,440.88z"/>
	<path class="st24" d="M95.86,117.77c-1.64-4.51-30.7-4.42-30.7,0V58.8c0-9.13,30.7-9.13,30.7,0V117.77z"/>
	<path class="st128" d="M65.16,117.77l6.77,6.85c0-1.96,17.28-1.96,17.28,0l6.64-6.85c0,0-0.44-3.24-16.05-3.24
		S65.16,117.77,65.16,117.77z"/>
	<path class="st123" d="M378.63,479.09c0,0-7.66,4.42-14.28,7.36c0,0,16.93,22.09,18.4,40.93c0,0,9.72-5.01,15.75-10.9
		L378.63,479.09z"/>
	<circle class="st117" cx="110.44" cy="77.79" r="24.74"/>
	<circle class="st24" cx="110.66" cy="77.79" r="13.69"/>
	<path class="st132" d="M123.69,292.38c0,0,1.33-11.72-18.33-16.03c0,0-25.4-4.42-54.11,0.66c0,0-8.83,2.76-9.5,12.7
		c0,0,2.65-6.85,40.09-6.85S123.69,292.38,123.69,292.38z"/>
	<path class="st132" d="M123.69,319.54c0,0,1.33-11.72-18.33-16.03c0,0-25.4-4.42-54.11,0.66c0,0-8.83,2.76-9.5,12.7
		c0,0,2.65-6.85,40.09-6.85S123.69,319.54,123.69,319.54z"/>
	<path class="st132" d="M123.69,347.04c0,0,1.33-11.72-18.33-16.03c0,0-25.4-4.42-54.11,0.66c0,0-8.83,2.76-9.5,12.7
		c0,0,2.65-6.85,40.09-6.85S123.69,347.04,123.69,347.04z"/>
	<path class="st133" d="M87.93,254.81c3.01-2.45,4.99-6.58,4.99-11.27c0-7.52-5.11-13.62-11.41-13.62c-2.42,0-4.66,0.9-6.5,2.43
		l-32.02,34.19c-5.9,6.3-9.18,14.6-9.18,23.23v135.14c0,39.31,31.63,35.93,31.63,35.93v-26.21c-8.45,0-8.45-9.13-8.45-9.13V291.55
		c0-2.86,1.1-5.61,3.08-7.68C67.84,275.75,87.61,255.07,87.93,254.81z"/>
	<path class="st134" d="M111.1,411.62c0,0-0.83-9-8.97-14.27l30.04-12.23c0,0,5.27,2.98,6.21,7.18c0.39,2.65,0.33,7.51,0.33,7.51
		L111.1,411.62z"/>
	<path class="st133" d="M65.39,373.66c0,0,36.11,6.41,36.11-8.73l30.68,20.2l-30.04,12.23L65.39,373.66z"/>
	<g>
		<path class="st135" d="M106.02,356.15c0,0,4.27,0.29,8.54,2.87c0,0,5.74-2.94,5.01-12.96c0,0-3.39-2.8-8.91-3.75
			C110.66,342.31,111.18,351.44,106.02,356.15z"/>
		<path class="st136" d="M111.25,356.22l2.36,0.81c0,0,3.9-3.02,4.2-10.75l-2.13-0.96C115.67,345.33,115.37,352.32,111.25,356.22z"
			/>
	</g>
	<g>
		<path class="st135" d="M106.02,328.69c0,0,4.27,0.29,8.54,2.87c0,0,5.74-2.94,5.01-12.96c0,0-3.39-2.8-8.91-3.75
			C110.66,314.85,111.18,323.98,106.02,328.69z"/>
		<path class="st136" d="M111.25,328.76l2.36,0.81c0,0,3.9-3.02,4.2-10.75l-2.13-0.96C115.67,317.87,115.37,324.86,111.25,328.76z"
			/>
	</g>
	<g>
		<path class="st135" d="M106.02,301.52c0,0,4.27,0.29,8.54,2.87c0,0,5.74-2.94,5.01-12.96c0,0-3.39-2.8-8.91-3.75
			C110.66,287.68,111.18,296.81,106.02,301.52z"/>
		<path class="st136" d="M111.25,301.6l2.36,0.81c0,0,3.9-3.02,4.2-10.75l-2.13-0.96C115.67,290.7,115.37,297.69,111.25,301.6z"/>
	</g>
	<path class="st137" d="M95.97,496.43c0,0,0.55-13.8,9.28-23.19c8.88-9.55,17.92-3.98,17.92-3.98s-10.74-6.63-19.46,3.64
		S95.97,496.43,95.97,496.43z"/>
	<path class="st137" d="M100.94,448.39c0,0-1.88,8.06,7.73,20.54l-4.97,5.08C103.7,474.01,94.65,459.1,100.94,448.39z"/>
	<path class="st138" d="M111.18,445.96l-1.07-0.29L110,412.01c0,0,0.11-9.06-8.56-14.25l-32.13-20.48l2.65-0.11l30.98,19.77
		c0,0,8.34,4.64,8.78,14.58v33.35L111.18,445.96z"/>
	<path class="st138" d="M251.79,403.56c0,0-57.92-1.55-113.08,17.34V399.8c0,0,0.5-10.38-6.54-14.69l-30.68-20.2l0.94-0.12
		l30.37,19.49c0,0,4.91,2.6,6.02,7.9c1.1,5.3,0.88,7.45,0.88,7.45v19.82C139.7,419.46,189.67,401.3,251.79,403.56z"/>
	<path class="st138" d="M107.35,401.06c0,0,1.25,1.1,13.1-4.12s15.09-7.95,14.87-9.13c0,0,2.72,2.87,3.09,6.4
		c0,0-1.25-2.13-8.02,0.74c-6.77,2.87-14.06,5.96-14.06,5.96s-5.6,2.58-5.82,6.18C110.51,407.09,108.97,402.75,107.35,401.06z"/>
	<path class="st117" d="M68.48,373.89c0,0,18.92,2.13,25.77-1.1c0,0,6.18-1.33,6.18-7.8c0,0-7.14-3.53-16.2-3.61
		C72.75,361.67,68.48,373.89,68.48,373.89z"/>
	<path class="st133" d="M80.48,374.18v-11.63c0,0,6.77-2.13,17.6,1.91v5.67C98.07,370.14,93.51,374.85,80.48,374.18z"/>
	<path class="st134" d="M86.29,362.33c0,0,1.77,9.28-0.74,11.26c0,0,4.79,0.15,9.2-2.06c0,0-3.17-2.06-3.17-8.47
		C91.59,363.07,89.61,362.33,86.29,362.33z"/>
	<path class="st139" d="M66.78,465.84c0,0,1.91,9.28,11.56,10.82c0,0-1.69,3.02-1.84,6.77c0,0-4.94-0.81-7.73-4.64
		C66.89,476.21,66.78,472.43,66.78,465.84z"/>
	<path class="st140" d="M97.19,397.67c0,0,7.66,3.24,7.66,16.79v29.01c0,0-24.15,2.8-24.15,27.53c0,0-12.81,0.29-15.31-16.34v-77.71
		L97.19,397.67z"/>
	<path class="st141" d="M65.44,434.63c0,0-2.93-0.26-4.14-0.92c0,0,0,8.84-11,10.46c-2.7,0.4-5.39-0.92-6.74-3.29
		c-1.65-2.89-3.35-7.91-3.35-16.33V290.87c0-1.68-1.36-3.04-3.04-3.04h0c-1.68,0-3.04,1.36-3.04,3.04v134.04
		c0,0-4.25,35.93,31.31,35.93V434.63z"/>
	<path class="st141" d="M41.09,268.61c0,0-5.19,6.85-1.44,10.71c4.09,3.2,10.05-3.31,10.05-3.31l37.99-41.52
		c0,0-4.61-5.94-12.69-2.14L41.09,268.61z"/>
	<path class="st142" d="M75.28,232.24c0,0,3.35-1.95,7.44-0.94c3.08,0.76,5.53,3.09,6.77,6.01c1.53,3.61,3.13,10.02-0.91,16.12
		c0,0,3.29-6.39-0.4-15.35c-1.12-2.72-3.25-4.97-6.02-5.96C80.31,231.46,77.99,231.24,75.28,232.24z"/>
	<path class="st142" d="M70.2,237.6c0,0,3.35-1.95,7.44-0.94c3.08,0.76,5.53,3.09,6.77,6.01c1.53,3.61,3.13,10.02-0.91,16.12
		c0,0,3.29-6.39-0.4-15.35c-1.12-2.72-3.25-4.97-6.02-5.96C75.23,236.81,72.91,236.6,70.2,237.6z"/>
	<path class="st142" d="M65.12,243.12c0,0,3.35-1.95,7.44-0.94c3.08,0.76,5.53,3.09,6.77,6.01c1.53,3.61,3.13,10.02-0.91,16.12
		c0,0,3.29-6.39-0.4-15.35c-1.12-2.72-3.25-4.97-6.02-5.96C70.15,242.33,67.83,242.12,65.12,243.12z"/>
	<path class="st142" d="M60.04,248.53c0,0,3.35-1.95,7.44-0.94c3.08,0.76,5.53,3.09,6.77,6.01c1.53,3.61,3.13,10.02-0.91,16.12
		c0,0,3.29-6.39-0.4-15.35c-1.12-2.72-3.25-4.97-6.02-5.96C65.07,247.74,62.75,247.53,60.04,248.53z"/>
	<path class="st142" d="M54.96,254.05c0,0,3.35-1.95,7.44-0.94c3.08,0.76,5.53,3.09,6.77,6.01c1.53,3.61,3.13,10.02-0.91,16.12
		c0,0,3.29-6.39-0.4-15.35c-1.12-2.72-3.25-4.97-6.02-5.96C59.99,253.27,57.67,253.05,54.96,254.05z"/>
	<path class="st142" d="M49.88,259.4c0,0,3.35-1.95,7.44-0.94c3.08,0.76,5.53,3.09,6.77,6.01c1.53,3.61,3.13,10.02-0.91,16.12
		c0,0,3.29-6.39-0.4-15.35c-1.12-2.72-3.25-4.97-6.02-5.96C54.91,258.62,52.59,258.41,49.88,259.4z"/>
	<path class="st142" d="M44.8,265.04c0,0,3.35-1.95,7.44-0.94c3.08,0.76,5.53,3.09,6.77,6.01c1.53,3.61,3.13,10.02-0.91,16.12
		c0,0,3.29-6.39-0.4-15.35c-1.12-2.72-3.25-4.97-6.02-5.96C49.83,264.25,47.51,264.04,44.8,265.04z"/>
	<path class="st142" d="M34.02,296.66c0,0,0.07,3.02,11.48,3.02s11.41-3.02,11.41-3.02s-1.62,2.06-11.34,2.06
		S34.02,296.66,34.02,296.66z"/>
	<path class="st142" d="M34.02,305.87c0,0,0.07,3.02,11.48,3.02s11.41-3.02,11.41-3.02s-1.62,2.06-11.34,2.06
		S34.02,305.87,34.02,305.87z"/>
	<path class="st142" d="M34.02,315.07c0,0,0.07,3.02,11.48,3.02s11.41-3.02,11.41-3.02s-1.62,2.06-11.34,2.06
		S34.02,315.07,34.02,315.07z"/>
	<path class="st142" d="M34.02,324.27c0,0,0.07,3.02,11.48,3.02s11.41-3.02,11.41-3.02s-1.62,2.06-11.34,2.06
		S34.02,324.27,34.02,324.27z"/>
	<path class="st142" d="M34.02,333.47c0,0,0.07,3.02,11.48,3.02s11.41-3.02,11.41-3.02s-1.62,2.06-11.34,2.06
		S34.02,333.47,34.02,333.47z"/>
	<path class="st142" d="M34.02,342.68c0,0,0.07,3.02,11.48,3.02s11.41-3.02,11.41-3.02s-1.62,2.06-11.34,2.06
		S34.02,342.68,34.02,342.68z"/>
	<path class="st142" d="M34.02,351.88c0,0,0.07,3.02,11.48,3.02s11.41-3.02,11.41-3.02s-1.62,2.06-11.34,2.06
		S34.02,351.88,34.02,351.88z"/>
	<path class="st142" d="M34.02,361.08c0,0,0.07,3.02,11.48,3.02s11.41-3.02,11.41-3.02s-1.62,2.06-11.34,2.06
		S34.02,361.08,34.02,361.08z"/>
	<path class="st142" d="M34.02,370.28c0,0,0.07,3.02,11.48,3.02s11.41-3.02,11.41-3.02s-1.62,2.06-11.34,2.06
		S34.02,370.28,34.02,370.28z"/>
	<path class="st142" d="M34.02,379.49c0,0,0.07,3.02,11.48,3.02s11.41-3.02,11.41-3.02s-1.62,2.06-11.34,2.06
		S34.02,379.49,34.02,379.49z"/>
	<path class="st142" d="M34.02,388.69c0,0,0.07,3.02,11.48,3.02s11.41-3.02,11.41-3.02s-1.62,2.06-11.34,2.06
		S34.02,388.69,34.02,388.69z"/>
	<path class="st142" d="M34.02,397.89c0,0,0.07,3.02,11.48,3.02s11.41-3.02,11.41-3.02s-1.62,2.06-11.34,2.06
		S34.02,397.89,34.02,397.89z"/>
	<path class="st142" d="M34.02,407.09c0,0,0.07,3.02,11.48,3.02s11.41-3.02,11.41-3.02s-1.62,2.06-11.34,2.06
		S34.02,407.09,34.02,407.09z"/>
	<path class="st142" d="M34.02,416.3c0,0,0.07,3.02,11.48,3.02s11.41-3.02,11.41-3.02s-1.62,2.06-11.34,2.06
		S34.02,416.3,34.02,416.3z"/>
	<path class="st142" d="M34.02,425.5c0,0,0.07,3.02,11.48,3.02s11.41-3.02,11.41-3.02s-1.62,2.06-11.34,2.06
		S34.02,425.5,34.02,425.5z"/>
	<path class="st142" d="M34.72,436.09c0,0,0.66,3.16,12.67,0.97s11.44-5.37,11.44-5.37s-1.31,2.48-11.54,4.35
		C37.05,437.91,34.72,436.09,34.72,436.09z"/>
	<path class="st142" d="M38.76,447.5c0,0,1.83,3.2,14.09-3.4s10.51-9.85,10.51-9.85s-0.55,3.15-10.99,8.78S38.76,447.5,38.76,447.5z
		"/>
	<path class="st142" d="M46.61,456.05c0,0,10.16-3.46,17.45-12.59v2.5C64.06,445.96,51.4,456.57,46.61,456.05z"/>
	<path class="st142" d="M54.42,459.44c0,0,9.06-0.96,9.06-16.49l-0.29-8.39l2.26,0.07v26.21C65.44,460.84,58.24,460.91,54.42,459.44
		z"/>
	<path class="st142" d="M56.92,296.37c0,0-0.52-5.96,1.4-10.82c0,0,4.2-7.21-1.84-17.52c0,0-4.42-6.77-12.59-2.72
		c0,0-11.85,9.87-9.87,31.36c0,0,1.69,2.43,11.34,2.43C56.77,299.09,56.92,296.37,56.92,296.37z"/>
	<path class="st133" d="M43.89,298.06c0,0-0.88-21.28,11.41-29.82c0,0,5.6,5.45,2.21,15.61c0,0-3.39,3.98-2.36,12.66
		C55.15,296.52,50.37,299.09,43.89,298.06z"/>
	<path class="st143" d="M59.24,436.76c0,0-7.44-1.33-7.44-9.5V295.19c0,0-0.52-8.83,6.7-16.49l33.57-35.41c0,0,0.07-3.39-1.99-6.99
		l-34.9,37.62c0,0-8.76,8.91-8.76,21.06v135.9c0,0-0.29,7.14,8.02,9.72C54.45,440.59,57.84,439.04,59.24,436.76z"/>
	<path class="st125" d="M45.77,251.9l8.25-9.57v-43.4c0,0-0.11-7.4,4.42-13.91l23.3-23.85c0,0,6.18-6.63,6.18-17.45v-17.45
		c0,0-10.05-2.87-10.05,4.09l-0.77,13.58c0,0,0.33,7.95-6.4,15.02c-6.74,7.07-20.21,21.31-20.21,21.31s-5.04,5.04-5.04,14.87
		C45.43,204.97,45.77,251.9,45.77,251.9z"/>
	<path class="st125" d="M46.83,175.74c0,0,17.78-17.78,18.07-18.18c7.83-7.77,7.05-19.37,7.05-19.37v-13.95
		c2.78,2.83,2.82,7.44,2.82,7.44v6.96c0,13.36-5.74,18.77-5.74,18.77l-15.68,15.68l-6.15,6.29c0,0-4.71,4.05-4.71,12.44v63.09
		l-3.31,4.27V193.3C39.18,193.3,38.96,183.22,46.83,175.74z"/>
	<path class="st119" d="M79.89,129.33c0,0,0.81-2.58,6.26-1.62v17.23c0,0,0.44,8.1-3.39,8.1s-2.87-8.61-2.87-8.61V129.33z"/>
	<path class="st119" d="M52.58,242.26v-43.58c0,0,0.07-7.36-2.5-7.36c-2.58,0-2.65,7.95-2.65,7.95v48.52L52.58,242.26z"/>
	<path class="st119" d="M51.03,194.99c0,0-0.81-6.7,5.89-13.33c6.7-6.63,23.19-23.71,23.19-23.71s4.12-4.56,4.12-12.29l-2.13,0.22
		c0,0,0.59,6.7-3.9,11.71l-22.82,23.48c0,0-6.48,5.52-5.89,13.91H51.03z"/>
	<path class="st133" d="M71.96,114.9c0,0,11.78-1.21,20.21,0.74v-6.59c0,0-9-11.48-9-29.48S94.7,56.15,94.7,56.15
		s-2.65-4.2-14.19-4.2c-6.68,0-8.5,1.1-8.5,1.1L71.96,114.9z"/>
	<path class="st144" d="M79.82,114.23l0-62.28c2.24-0.04,4.56,0.11,6.99,0.55l0,10.93c0,0-4.58,5.19-4.58,17.01
		s3.81,21.87,3.81,21.87v12.04L79.82,114.23z"/>
	<path class="st121" d="M75.88,122.74c0,0,9.06-0.72,12.59,0.77l6.02-6.13c0,0-7.95-3.04-22.53-1.44L75.88,122.74z"/>
	<path class="st125" d="M79.63,122.52l-1.99-7.12c0,0,9.83-0.06,14.36,1.27l-5.08,6.35C86.92,123.01,84.1,122.41,79.63,122.52z"/>
	<path class="st117" d="M82.94,273.47c0,0,11.04-0.22,16.79,0.88v-52.23c0,0,0.33-7.51-15.02-7.51c0,0-6.96-0.33-11.6,1.77v15.35
		c0,0,1.55-4.42,7.73-4.42c10.16,0,12.7,9.72,12.7,9.72s2.21,10.71,0.66,20.65c-0.79,4.93-3.67,7.27-5.3,9.5L82.94,273.47z"/>
	<ellipse class="st119" cx="85.93" cy="205.67" rx="4.42" ry="4.31"/>
	<path class="st119" d="M95.97,218.26v55.1c0,0-6.63-0.55-9.83-0.22l4.54-0.6c2.17-0.29,3.79-2.14,3.79-4.33l-0.05-48.74
		c0,0-1.21-3.64-12.15-4.09C82.28,215.39,90.23,214.5,95.97,218.26z"/>
	<path class="st24" d="M83.7,198.9c0,0-11.36,0.37-11.36,16.49l-2.32,0.77C70.02,216.16,70,198.9,83.7,198.9z"/>
	<circle class="st24" cx="380.99" cy="83.09" r="24.74"/>
	<path class="st120" d="M374.86,356.68c0,0,0.09,4.16,4.29,5.67c4.57,1.65,14.63,3.37,36.73,3.37c17.5,0,26.6-1.23,31.25-2.67
		c6.62-2.05,3.37-16.75,3.37-16.75s-1.64-2.67-26.52-6.35C399.1,336.27,375.45,351.09,374.86,356.68z"/>
	<path class="st129" d="M402.19,243.55v9.9c0,4.02,1.54,7.89,4.31,10.83l16.51,17.51c0,0,9.07,0.88,8.77,0.44
		c-0.3-0.44-1.93-35.48-1.93-35.48l-23.05-11.78L402.19,243.55z"/>
	<path class="st130" d="M382.98,474.45c-0.33,0.33,15.53,24.88,15.53,24.88l6.77-1.84c0,0,9.94-9.5,10.82-20.98
		c0,0-6.4-11.78-8.17-13.91C407.93,462.6,390.85,466.5,382.98,474.45z"/>
	<path class="st121" d="M439.52,366.45V199.6c0-6.44-2.56-12.61-7.11-17.16l-19.13-19.13c-4.55-4.55-7.11-10.72-7.11-17.16v-76.3
		h17.23v70.56c0,6.44,2.56,12.61,7.11,17.16l18.58,18.58c4.55,4.55,7.11,10.72,7.11,17.16v197.22l-17.56-23.85"/>
	<path class="st145" d="M444.27,278.11c-5.16-2.08-16.7-3.54-30.12-3.54c-11.04,0-20.82,0.98-26.81,2.49
		c-3.89,0.98-15.62,5.34-15.62,15.3c0,14.1,9.44,15.73,9.44,15.73c0-3.3,14.77-5.98,33-5.98c18.22,0,33,2.68,33,5.98
		c0,0,6.79-2.92,6.79-15.16S446.12,278.86,444.27,278.11z"/>
	<path class="st145" d="M444.27,305.59c-5.16-2.08-16.7-3.54-30.12-3.54c-11.04,0-20.82,0.98-26.81,2.49
		c-3.89,0.98-15.62,5.34-15.62,15.3c0,14.1,9.44,15.73,9.44,15.73c0-3.3,14.77-5.98,33-5.98c18.22,0,33,2.68,33,5.98
		c0,0,6.79-2.92,6.79-15.16C453.93,308.18,446.12,306.34,444.27,305.59z"/>
	<path class="st129" d="M430.13,367.12v-22.53h-36.22v20.33c0,0,5.74-3.99,18.33-3.99S430.13,367.12,430.13,367.12z"/>
	<path class="st145" d="M444.27,333.07c-5.16-2.08-16.7-3.54-30.12-3.54c-11.04,0-20.82,0.98-26.81,2.49
		c-3.89,0.98-15.62,5.34-15.62,15.3c0,14.1,9.44,15.73,9.44,15.73c0-3.3,14.77-5.98,33-5.98c18.22,0,33,2.68,33,5.98
		c0,0,6.79-2.92,6.79-15.16S446.12,333.82,444.27,333.07z"/>
	<path class="st117" d="M430.02,373.66l-36.75,23.69c-5.64,3.63-9.04,9.88-9.04,16.59v43.07l11.19,3.53l12.07,19.73l5.08-9.79l0,0
		c9.41,0,17.29-8.43,17.34-17.83L430.02,373.66z"/>
	<path class="st145" d="M398.44,499.63c0,0,14.8-16.34,14.13-29.15c-0.2-5.53-2.21-13.25-10.6-19.88c-9.13-7.21-17.7-4.64-17.7-4.64
		s0.72,14.88-12.04,23.3l10.74,5.19L398.44,499.63z"/>
	<path class="st24" d="M398.44,499.63c0,0-1.1-18.11-10.6-26.5c-9.5-8.39-15.6-3.87-15.6-3.87l10.74,5.19L398.44,499.63z"/>
	<path class="st128" d="M384.3,440.88v-29.26l-27.61-11.82v21.98C356.69,421.78,375.36,429.07,384.3,440.88z"/>
	<path class="st24" d="M399.54,117.77c1.64-4.51,30.7-4.42,30.7,0V58.8c0-9.13-30.7-9.13-30.7,0V117.77z"/>
	<path class="st128" d="M430.24,117.77l-6.77,6.85c0-1.96-17.28-1.96-17.28,0l-6.64-6.85c0,0,0.44-3.24,16.05-3.24
		S430.24,117.77,430.24,117.77z"/>
	<circle class="st117" cx="384.96" cy="77.79" r="24.74"/>
	<circle class="st24" cx="384.74" cy="77.79" r="13.69"/>
	<path class="st146" d="M371.71,292.38c0,0-1.33-11.72,18.33-16.03c0,0,25.4-4.42,54.11,0.66c0,0,8.83,2.76,9.5,12.7
		c0,0-2.65-6.85-40.09-6.85S371.71,292.38,371.71,292.38z"/>
	<path class="st146" d="M371.71,319.54c0,0-1.33-11.72,18.33-16.03c0,0,25.4-4.42,54.11,0.66c0,0,8.83,2.76,9.5,12.7
		c0,0-2.65-6.85-40.09-6.85S371.71,319.54,371.71,319.54z"/>
	<path class="st146" d="M371.71,347.04c0,0-1.33-11.72,18.33-16.03c0,0,25.4-4.42,54.11,0.66c0,0,8.83,2.76,9.5,12.7
		c0,0-2.65-6.85-40.09-6.85S371.71,347.04,371.71,347.04z"/>
	<path class="st133" d="M407.48,254.81c-3.01-2.45-4.99-6.58-4.99-11.27c0-7.52,5.11-13.62,11.41-13.62c2.42,0,4.66,0.9,6.5,2.43
		l32.02,34.19c5.9,6.3,9.18,14.6,9.18,23.23v135.14c0,39.31-31.63,35.93-31.63,35.93v-26.21c8.45,0,8.45-9.13,8.45-9.13V291.55
		c0-2.86-1.1-5.61-3.08-7.68C427.57,275.75,407.8,255.07,407.48,254.81z"/>
	<path class="st134" d="M384.3,411.62c0,0,0.83-9,8.97-14.27l-30.04-12.23c0,0-5.27,2.98-6.21,7.18c-0.39,2.65-0.33,7.51-0.33,7.51
		L384.3,411.62z"/>
	<path class="st133" d="M430.02,373.66c0,0-36.11,6.41-36.11-8.73l-30.68,20.2l30.04,12.23L430.02,373.66z"/>
	<g class="st147">
		<path class="st135" d="M389.38,356.15c0,0-4.27,0.29-8.54,2.87c0,0-5.74-2.94-5.01-12.96c0,0,3.39-2.8,8.91-3.75
			C384.74,342.31,384.23,351.44,389.38,356.15z"/>
		<path class="st136" d="M384.15,356.22l-2.36,0.81c0,0-3.9-3.02-4.2-10.75l2.13-0.96C379.74,345.33,380.03,352.32,384.15,356.22z"
			/>
	</g>
	<g class="st147">
		<path class="st135" d="M389.38,328.69c0,0-4.27,0.29-8.54,2.87c0,0-5.74-2.94-5.01-12.96c0,0,3.39-2.8,8.91-3.75
			C384.74,314.85,384.23,323.98,389.38,328.69z"/>
		<path class="st136" d="M384.15,328.76l-2.36,0.81c0,0-3.9-3.02-4.2-10.75l2.13-0.96C379.74,317.87,380.03,324.86,384.15,328.76z"
			/>
	</g>
	<g class="st147">
		<path class="st135" d="M389.38,301.52c0,0-4.27,0.29-8.54,2.87c0,0-5.74-2.94-5.01-12.96c0,0,3.39-2.8,8.91-3.75
			C384.74,287.68,384.23,296.81,389.38,301.52z"/>
		<path class="st136" d="M384.15,301.6l-2.36,0.81c0,0-3.9-3.02-4.2-10.75l2.13-0.96C379.74,290.7,380.03,297.69,384.15,301.6z"/>
	</g>
	<path class="st119" d="M399.43,496.43c0,0-0.55-13.8-9.28-23.19c-8.88-9.55-17.92-3.98-17.92-3.98s10.74-6.63,19.46,3.64
		C400.42,483.18,399.43,496.43,399.43,496.43z"/>
	<path class="st119" d="M394.46,448.39c0,0,1.88,8.06-7.73,20.54l4.97,5.08C391.7,474.01,400.76,459.1,394.46,448.39z"/>
	<path class="st138" d="M384.23,445.96l1.07-0.29l0.11-33.66c0,0-0.11-9.06,8.56-14.25l32.13-20.48l-2.65-0.11l-30.98,19.77
		c0,0-8.34,4.64-8.78,14.58v33.35L384.23,445.96z"/>
	<path class="st138" d="M388.06,401.06c0,0-1.25,1.1-13.1-4.12c-11.85-5.23-15.09-7.95-14.87-9.13c0,0-2.72,2.87-3.09,6.4
		c0,0,1.25-2.13,8.02,0.74c6.77,2.87,14.06,5.96,14.06,5.96s5.6,2.58,5.82,6.18C384.89,407.09,386.44,402.75,388.06,401.06z"/>
	<path class="st117" d="M426.93,373.89c0,0-18.92,2.13-25.77-1.1c0,0-6.18-1.33-6.18-7.8c0,0,7.14-3.53,16.2-3.61
		C422.66,361.67,426.93,373.89,426.93,373.89z"/>
	<path class="st133" d="M414.93,374.18v-11.63c0,0-6.77-2.13-17.6,1.91v5.67C397.33,370.14,401.9,374.85,414.93,374.18z"/>
	<path class="st134" d="M409.11,362.33c0,0-1.77,9.28,0.74,11.26c0,0-4.79,0.15-9.2-2.06c0,0,3.17-2.06,3.17-8.47
		C403.81,363.07,405.8,362.33,409.11,362.33z"/>
	<path class="st139" d="M428.62,465.84c0,0-1.91,9.28-11.56,10.82c0,0,1.69,3.02,1.84,6.77c0,0,4.94-0.81,7.73-4.64
		C428.52,476.21,428.62,472.43,428.62,465.84z"/>
	<path class="st140" d="M398.22,397.67c0,0-7.66,3.24-7.66,16.79v29.01c0,0,24.15,2.8,24.15,27.53c0,0,12.81,0.29,15.31-16.34
		v-77.71L398.22,397.67z"/>
	<path class="st141" d="M429.96,434.63c0,0,2.93-0.26,4.14-0.92c0,0,0,8.84,11,10.46c2.7,0.4,5.39-0.92,6.74-3.29
		c1.65-2.89,3.35-7.91,3.35-16.33V290.87c0-1.68,1.36-3.04,3.04-3.04l0,0c1.68,0,3.04,1.36,3.04,3.04v134.04
		c0,0,4.25,35.93-31.31,35.93V434.63z"/>
	<path class="st141" d="M454.31,268.61c0,0,5.19,6.85,1.44,10.71c-4.09,3.2-10.05-3.31-10.05-3.31l-37.99-41.52
		c0,0,4.61-5.94,12.69-2.14L454.31,268.61z"/>
	<path class="st142" d="M420.12,232.24c0,0-3.35-1.95-7.44-0.94c-3.08,0.76-5.53,3.09-6.77,6.01c-1.53,3.61-3.13,10.02,0.91,16.12
		c0,0-3.29-6.39,0.4-15.35c1.12-2.72,3.25-4.97,6.02-5.96C415.09,231.46,417.42,231.24,420.12,232.24z"/>
	<path class="st142" d="M425.2,237.6c0,0-3.35-1.95-7.44-0.94c-3.08,0.76-5.53,3.09-6.77,6.01c-1.53,3.61-3.13,10.02,0.91,16.12
		c0,0-3.29-6.39,0.4-15.35c1.12-2.72,3.25-4.97,6.02-5.96C420.17,236.81,422.5,236.6,425.2,237.6z"/>
	<path class="st142" d="M430.28,243.12c0,0-3.35-1.95-7.44-0.94c-3.08,0.76-5.53,3.09-6.77,6.01c-1.53,3.61-3.13,10.02,0.91,16.12
		c0,0-3.29-6.39,0.4-15.35c1.12-2.72,3.25-4.97,6.02-5.96C425.25,242.33,427.58,242.12,430.28,243.12z"/>
	<path class="st142" d="M435.36,248.53c0,0-3.35-1.95-7.44-0.94c-3.08,0.76-5.53,3.09-6.77,6.01c-1.53,3.61-3.13,10.02,0.91,16.12
		c0,0-3.29-6.39,0.4-15.35c1.12-2.72,3.25-4.97,6.02-5.96C430.33,247.74,432.65,247.53,435.36,248.53z"/>
	<path class="st142" d="M440.44,254.05c0,0-3.35-1.95-7.44-0.94c-3.08,0.76-5.53,3.09-6.77,6.01c-1.53,3.61-3.13,10.02,0.91,16.12
		c0,0-3.29-6.39,0.4-15.35c1.12-2.72,3.25-4.97,6.02-5.96C435.41,253.27,437.73,253.05,440.44,254.05z"/>
	<path class="st142" d="M445.52,259.4c0,0-3.35-1.95-7.44-0.94c-3.08,0.76-5.53,3.09-6.77,6.01c-1.53,3.61-3.13,10.02,0.91,16.12
		c0,0-3.29-6.39,0.4-15.35c1.12-2.72,3.25-4.97,6.02-5.96C440.49,258.62,442.81,258.41,445.52,259.4z"/>
	<path class="st142" d="M450.6,265.04c0,0-3.35-1.95-7.44-0.94c-3.08,0.76-5.53,3.09-6.77,6.01c-1.53,3.61-3.13,10.02,0.91,16.12
		c0,0-3.29-6.39,0.4-15.35c1.12-2.72,3.25-4.97,6.02-5.96C445.57,264.25,447.89,264.04,450.6,265.04z"/>
	<path class="st142" d="M461.38,296.66c0,0-0.07,3.02-11.48,3.02s-11.41-3.02-11.41-3.02s1.62,2.06,11.34,2.06
		C459.54,298.72,461.38,296.66,461.38,296.66z"/>
	<path class="st142" d="M461.38,305.87c0,0-0.07,3.02-11.48,3.02s-11.41-3.02-11.41-3.02s1.62,2.06,11.34,2.06
		C459.54,307.93,461.38,305.87,461.38,305.87z"/>
	<path class="st142" d="M461.38,315.07c0,0-0.07,3.02-11.48,3.02s-11.41-3.02-11.41-3.02s1.62,2.06,11.34,2.06
		C459.54,317.13,461.38,315.07,461.38,315.07z"/>
	<path class="st142" d="M461.38,324.27c0,0-0.07,3.02-11.48,3.02s-11.41-3.02-11.41-3.02s1.62,2.06,11.34,2.06
		C459.54,326.33,461.38,324.27,461.38,324.27z"/>
	<path class="st142" d="M461.38,333.47c0,0-0.07,3.02-11.48,3.02s-11.41-3.02-11.41-3.02s1.62,2.06,11.34,2.06
		C459.54,335.53,461.38,333.47,461.38,333.47z"/>
	<path class="st142" d="M461.38,342.68c0,0-0.07,3.02-11.48,3.02s-11.41-3.02-11.41-3.02s1.62,2.06,11.34,2.06
		C459.54,344.74,461.38,342.68,461.38,342.68z"/>
	<path class="st142" d="M461.38,351.88c0,0-0.07,3.02-11.48,3.02s-11.41-3.02-11.41-3.02s1.62,2.06,11.34,2.06
		C459.54,353.94,461.38,351.88,461.38,351.88z"/>
	<path class="st142" d="M461.38,361.08c0,0-0.07,3.02-11.48,3.02s-11.41-3.02-11.41-3.02s1.62,2.06,11.34,2.06
		C459.54,363.14,461.38,361.08,461.38,361.08z"/>
	<path class="st142" d="M461.38,370.28c0,0-0.07,3.02-11.48,3.02s-11.41-3.02-11.41-3.02s1.62,2.06,11.34,2.06
		C459.54,372.34,461.38,370.28,461.38,370.28z"/>
	<path class="st142" d="M461.38,379.49c0,0-0.07,3.02-11.48,3.02s-11.41-3.02-11.41-3.02s1.62,2.06,11.34,2.06
		C459.54,381.55,461.38,379.49,461.38,379.49z"/>
	<path class="st142" d="M461.38,388.69c0,0-0.07,3.02-11.48,3.02s-11.41-3.02-11.41-3.02s1.62,2.06,11.34,2.06
		C459.54,390.75,461.38,388.69,461.38,388.69z"/>
	<path class="st142" d="M461.38,397.89c0,0-0.07,3.02-11.48,3.02s-11.41-3.02-11.41-3.02s1.62,2.06,11.34,2.06
		C459.54,399.95,461.38,397.89,461.38,397.89z"/>
	<path class="st142" d="M461.38,407.09c0,0-0.07,3.02-11.48,3.02s-11.41-3.02-11.41-3.02s1.62,2.06,11.34,2.06
		C459.54,409.15,461.38,407.09,461.38,407.09z"/>
	<path class="st142" d="M461.38,416.3c0,0-0.07,3.02-11.48,3.02s-11.41-3.02-11.41-3.02s1.62,2.06,11.34,2.06
		C459.54,418.36,461.38,416.3,461.38,416.3z"/>
	<path class="st142" d="M461.38,425.5c0,0-0.07,3.02-11.48,3.02s-11.41-3.02-11.41-3.02s1.62,2.06,11.34,2.06
		C459.54,427.56,461.38,425.5,461.38,425.5z"/>
	<path class="st142" d="M460.69,436.09c0,0-0.66,3.16-12.67,0.97c-12.02-2.2-11.44-5.37-11.44-5.37s1.31,2.48,11.54,4.35
		C458.35,437.91,460.69,436.09,460.69,436.09z"/>
	<path class="st142" d="M456.65,447.5c0,0-1.83,3.2-14.09-3.4c-12.26-6.61-10.51-9.85-10.51-9.85s0.55,3.15,10.99,8.78
		C453.48,448.65,456.65,447.5,456.65,447.5z"/>
	<path class="st142" d="M448.79,456.05c0,0-10.16-3.46-17.45-12.59v2.5C431.35,445.96,444.01,456.57,448.79,456.05z"/>
	<path class="st142" d="M440.99,459.44c0,0-9.06-0.96-9.06-16.49l0.29-8.39l-2.26,0.07v26.21
		C429.96,460.84,437.16,460.91,440.99,459.44z"/>
	<path class="st142" d="M438.49,296.37c0,0,0.52-5.96-1.4-10.82c0,0-4.2-7.21,1.84-17.52c0,0,4.42-6.77,12.59-2.72
		c0,0,11.85,9.87,9.87,31.36c0,0-1.69,2.43-11.34,2.43C438.63,299.09,438.49,296.37,438.49,296.37z"/>
	<path class="st133" d="M451.52,298.06c0,0,0.88-21.28-11.41-29.82c0,0-5.6,5.45-2.21,15.61c0,0,3.39,3.98,2.36,12.66
		C440.25,296.52,445.04,299.09,451.52,298.06z"/>
	<path class="st143" d="M436.17,436.76c0,0,7.44-1.33,7.44-9.5V295.19c0,0,0.52-8.83-6.7-16.49l-33.57-35.41
		c0,0-0.07-3.39,1.99-6.99l34.9,37.62c0,0,8.76,8.91,8.76,21.06v135.9c0,0,0.29,7.14-8.02,9.72
		C440.95,440.59,437.57,439.04,436.17,436.76z"/>
	<path class="st125" d="M449.64,251.9l-8.25-9.57v-43.4c0,0,0.11-7.4-4.42-13.91l-23.3-23.85c0,0-6.18-6.63-6.18-17.45v-17.45
		c0,0,10.05-2.87,10.05,4.09l0.77,13.58c0,0-0.33,7.95,6.4,15.02c6.74,7.07,20.21,21.31,20.21,21.31s5.04,5.04,5.04,14.87
		C449.97,204.97,449.64,251.9,449.64,251.9z"/>
	<path class="st125" d="M448.57,175.74c0,0-17.78-17.78-18.07-18.18c-7.83-7.77-7.05-19.37-7.05-19.37v-13.95
		c-2.78,2.83-2.82,7.44-2.82,7.44v6.96c0,13.36,5.74,18.77,5.74,18.77l15.68,15.68l6.15,6.29c0,0,4.71,4.05,4.71,12.44v63.09
		l3.31,4.27V193.3C456.23,193.3,456.45,183.22,448.57,175.74z"/>
	<path class="st119" d="M415.52,129.33c0,0-0.81-2.58-6.26-1.62v17.23c0,0-0.44,8.1,3.39,8.1s2.87-8.61,2.87-8.61V129.33z"/>
	<path class="st119" d="M442.83,242.26v-43.58c0,0-0.07-7.36,2.5-7.36s2.65,7.95,2.65,7.95v48.52L442.83,242.26z"/>
	<path class="st119" d="M444.38,194.99c0,0,0.81-6.7-5.89-13.33c-6.7-6.63-23.19-23.71-23.19-23.71s-4.12-4.56-4.12-12.29l2.13,0.22
		c0,0-0.59,6.7,3.9,11.71l22.82,23.48c0,0,6.48,5.52,5.89,13.91H444.38z"/>
	<path class="st133" d="M423.45,114.9c0,0-11.78-1.21-20.21,0.74v-6.59c0,0,9-11.48,9-29.48S400.7,56.15,400.7,56.15
		s2.65-4.2,14.19-4.2c6.68,0,8.5,1.1,8.5,1.1L423.45,114.9z"/>
	<path class="st144" d="M415.59,114.23l0-62.28c-2.24-0.04-4.56,0.11-6.99,0.55v10.93c0,0,4.58,5.19,4.58,17.01
		s-3.81,21.87-3.81,21.87v12.04L415.59,114.23z"/>
	<path class="st121" d="M419.53,122.74c0,0-9.06-0.72-12.59,0.77l-6.02-6.13c0,0,7.95-3.04,22.53-1.44L419.53,122.74z"/>
	<path class="st125" d="M415.77,122.52l1.99-7.12c0,0-9.83-0.06-14.36,1.27l5.08,6.35C408.49,123.01,411.3,122.41,415.77,122.52z"/>
	<path class="st117" d="M412.46,273.47c0,0-11.04-0.22-16.79,0.88v-52.23c0,0-0.33-7.51,15.02-7.51c0,0,6.96-0.33,11.6,1.77v15.35
		c0,0-1.55-4.42-7.73-4.42c-10.16,0-12.7,9.72-12.7,9.72s-2.21,10.71-0.66,20.65c0.79,4.93,3.67,7.27,5.3,9.5L412.46,273.47z"/>
	<path class="st119" d="M399.43,218.26v55.1c0,0,6.63-0.55,9.83-0.22l-4.54-0.6c-2.17-0.29-3.79-2.14-3.79-4.33l0.05-48.74
		c0,0,1.21-3.64,12.15-4.09C413.12,215.39,405.17,214.5,399.43,218.26z"/>
	<path class="st116" d="M248.11,41.79c69.75,0,126.37,16.18,127.2,36.22c0,13.25,20.03,13.25,20.03,0
		c-0.62-30.78-66.29-55.66-147.22-55.66c-80.93,0-146.6,24.88-147.22,55.66c0,12.37,20.03,12.37,20.03,0
		C121.74,57.97,178.36,41.79,248.11,41.79z"/>
	<path class="st18" d="M107.2,78.45c0,0,5.15-49.33,142.23-49.33c0,0,122.06-3.83,140.47,48.88c0,0,0.29,3.53-3.83,3.83
		c-4.12,0.29-4.12-3.98-4.12-3.98s-3.09-44.02-132.66-44.02c0,0-116.47-4.56-134.87,43.88C114.42,77.72,111.62,83.61,107.2,78.45z"
		/>
	<path class="st18" d="M135.18,100.25c0,0,32.54,18.7,112.79,20.61c34.65,0.62,74.07-4.9,113.96-19.29l1.91,1.62
		c0,0-44.32,20.17-114.99,20.17c-55.95,0-108.52-15.02-114.99-21.79L135.18,100.25z"/>
	<g>
		<path class="st148" d="M132.66,511.28c-3.1,4.93-9.78,6.97-14.8,4.51c-5.02-2.45-6.38-8.41-3.15-13.27
			c3.23-4.86,9.71-6.84,14.6-4.46C134.21,500.45,135.76,506.35,132.66,511.28z"/>
		<path class="st18" d="M121.28,509.07c-0.79,0-1.5-0.16-2.13-0.46c-0.86-0.42-1.4-1.04-1.62-1.84c-0.26-0.97-0.01-2.14,0.7-3.21
			c1.18-1.78,3.3-2.93,5.39-2.93c0.74,0,1.41,0.15,2.01,0.44c0.84,0.41,1.4,1.06,1.64,1.88c0.29,1,0.07,2.14-0.61,3.22
			C125.56,507.91,123.4,509.07,121.28,509.07z"/>
		<path class="st148" d="M177.95,525.34c-2.02,5.34-8.44,8.34-14.25,6.63c-5.81-1.71-8.68-7.43-6.5-12.72
			c2.19-5.29,8.46-8.19,14.11-6.54C176.96,514.37,179.97,520,177.95,525.34z"/>
		<path class="st18" d="M165.84,524.69c-0.6,0-1.19-0.08-1.75-0.25c-1.33-0.39-2.33-1.18-2.83-2.22c-0.3-0.63-0.55-1.64-0.03-2.9
			c0.85-2.06,3.16-3.5,5.61-3.5c0.57,0,1.13,0.08,1.66,0.24c1.29,0.38,2.29,1.17,2.82,2.22c0.32,0.64,0.6,1.67,0.11,2.96
			C170.68,523.24,168.33,524.69,165.84,524.69z"/>
		<path class="st148" d="M229.63,531.83c-1.16,5.53-7.25,9.23-13.55,8.18c-6.3-1.05-10.27-6.42-8.93-11.92
			c1.34-5.5,7.34-9.08,13.46-8.06C226.72,521.05,230.79,526.3,229.63,531.83z"/>
		<path class="st18" d="M217.01,532.43c-0.4,0-0.81-0.03-1.22-0.1c-1.68-0.28-3.08-1.11-3.85-2.28c-0.38-0.58-0.78-1.52-0.5-2.7
			c0.54-2.23,3.07-3.91,5.87-3.91c0.38,0,0.77,0.03,1.16,0.1c1.63,0.27,3.02,1.09,3.82,2.26c0.41,0.6,0.84,1.56,0.59,2.77
			C222.41,530.74,219.84,532.43,217.01,532.43z"/>
		<path class="st148" d="M361.37,511.28c3.1,4.93,9.78,6.97,14.8,4.51c5.02-2.45,6.38-8.41,3.15-13.27
			c-3.23-4.86-9.7-6.84-14.6-4.46C359.83,500.45,358.28,506.35,361.37,511.28z"/>
		<path class="st18" d="M370.33,509.07c-2.12,0-4.28-1.17-5.37-2.9c-0.68-1.08-0.9-2.23-0.61-3.23c0.24-0.82,0.8-1.48,1.64-1.88
			c0.59-0.29,1.27-0.44,2.01-0.44c2.09,0,4.2,1.15,5.39,2.94c0.72,1.08,0.96,2.22,0.7,3.21c-0.22,0.8-0.76,1.42-1.61,1.84
			C371.83,508.92,371.12,509.07,370.33,509.07L370.33,509.07z"/>
		<path class="st148" d="M316.09,525.34c2.01,5.34,8.44,8.34,14.25,6.63c5.81-1.71,8.68-7.43,6.5-12.72
			c-2.19-5.29-8.46-8.19-14.11-6.54C317.08,514.37,314.06,520,316.09,525.34z"/>
		<path class="st18" d="M325.77,524.69c-2.49,0-4.84-1.45-5.59-3.44c-0.49-1.29-0.21-2.32,0.11-2.96c0.52-1.05,1.53-1.84,2.82-2.22
			c0.53-0.16,1.09-0.24,1.66-0.24c2.45,0,4.76,1.44,5.61,3.5c0.52,1.26,0.27,2.27-0.03,2.9c-0.5,1.04-1.5,1.83-2.83,2.22
			C326.96,524.6,326.37,524.69,325.77,524.69L325.77,524.69z"/>
		<path class="st148" d="M264.41,531.83c1.15,5.53,7.25,9.23,13.55,8.18c6.3-1.05,10.27-6.42,8.93-11.92
			c-1.34-5.5-7.34-9.08-13.46-8.06C267.32,521.05,263.25,526.3,264.41,531.83z"/>
		<path class="st18" d="M274.6,532.43c-2.83,0-5.41-1.69-5.86-3.85c-0.25-1.22,0.18-2.19,0.59-2.79c0.8-1.17,2.19-1.99,3.81-2.26
			c0.38-0.06,0.77-0.1,1.16-0.1c2.8,0,5.32,1.68,5.86,3.91c0.29,1.17-0.11,2.11-0.5,2.69c-0.77,1.17-2.18,2.01-3.85,2.28
			C275.42,532.4,275.01,532.43,274.6,532.43L274.6,532.43z"/>
	</g>
	<path d="M74.51,233.02l-30.33,32.25c0,0-7.51,8.87-8.72,15.06s-1.44,16.34-1.44,16.34v129.75c0,0-2.1,33.79,31.47,33.79v3.09
		c0,0-15.46,1.21-26.61-10.6c-9.17-11.48-8.39-26.94-8.39-26.94l0.22-129.2c0,0-0.11-12.15,2.65-18.88
		c2.76-6.74,9.5-14.36,9.5-14.36l27.06-29.26c2.54-2.21,5.39-3.65,7.91-4.24c2.75-0.64,6.28-0.65,9.43,1.89
		C87.25,231.69,80.04,228.09,74.51,233.02z"/>
	<path d="M66.6,357.84v115.84c0,4.49,2.77,8.6,7.02,10.05c0.8,0.28,1.7,0.5,2.7,0.66l-0.44,3.2c0,0-8.38-0.35-11.4-8.49
		c-0.61-1.65-0.86-3.42-0.86-5.18V359.61l-6.74,0.66l-0.11-1.44L66.6,357.84z"/>
	<path d="M39.55,269.42v-73.99c0,0-1.25-10.53,6.33-18.77l19.73-19.58c0,0,6.63-5.6,6.63-19.44v-13.4l-6.92-7.36V59.76
		c0,0,1.33-7.95,15.9-7.95c0,0-15.61-1.25-18.85,6.99v59.41l6.63,6.99v12.37c0,0,0.66,11.41-6.18,18.18l-19.21,19.21
		c0,0-7.58,6.77-7.14,20.54v78.99L39.55,269.42z"/>
	<path d="M119.28,436.85c0,0-22.97,13.42,6.52,34.29c0,0,35.23,22.97,122.47,22.97c0,0,82.16,2.43,124.79-24.74
		c0,0,27.61-21.26-0.99-36.06c0,0,18.94,9.55,5.62,27.26c-3.86,4.96-8.95,8.81-14.63,11.49c-14.19,6.69-49.38,19.17-114.67,19.17
		c-89.23,0-121.91-22.86-121.91-22.86S100.61,452.2,119.28,436.85z"/>
	<path d="M82.83,470.77c0,0-9.13,7.95-5.89,26.36c0,0,6.55,34.31,82.53,53.74c0,0-88.86-17.6-85.77-64.2
		C73.7,486.68,74.37,475.12,82.83,470.77z"/>
	<path d="M115.89,107.76c0.22-0.01-21.5,1.25-30.99-25.99C84.89,81.77,85.19,109.52,115.89,107.76z"/>
	<path d="M420.22,233.02l30.33,32.25c0,0,7.51,8.87,8.72,15.06s1.44,16.34,1.44,16.34v129.75c0,0,2.1,33.79-31.47,33.79v3.09
		c0,0,15.46,1.21,26.61-10.6c9.17-11.48,8.39-26.94,8.39-26.94l-0.22-129.2c0,0,0.11-12.15-2.65-18.88
		c-2.76-6.74-9.5-14.36-9.5-14.36l-27.06-29.26c-2.54-2.21-5.39-3.65-7.91-4.24c-2.75-0.64-6.28-0.65-9.43,1.89
		C407.48,231.69,414.69,228.09,420.22,233.02z"/>
	<path d="M428.13,357.84v115.84c0,4.49-2.77,8.6-7.02,10.05c-0.8,0.28-1.7,0.5-2.7,0.66l0.44,3.2c0,0,8.38-0.35,11.4-8.49
		c0.61-1.65,0.86-3.42,0.86-5.18V359.61l6.74,0.66l0.11-1.44L428.13,357.84z"/>
	<path d="M455.19,269.42v-73.99c0,0,1.25-10.53-6.33-18.77l-19.73-19.58c0,0-6.63-5.6-6.63-19.44v-13.4l6.92-7.36V59.76
		c0,0-1.33-7.95-15.9-7.95c0,0,15.61-1.25,18.85,6.99v59.41l-6.63,6.99v12.37c0,0-0.66,11.41,6.18,18.18l19.21,19.21
		c0,0,7.58,6.77,7.14,20.54v78.99L455.19,269.42z"/>
	<path d="M411.9,470.77c0,0,9.13,7.95,5.89,26.36c0,0-6.55,34.31-82.53,53.74c0,0,88.86-17.6,85.77-64.2
		C421.03,486.68,420.36,475.12,411.9,470.77z"/>
	<path d="M378.84,107.76c-0.22-0.01,21.5,1.25,30.99-25.99C409.84,81.77,409.54,109.52,378.84,107.76z"/>
	<path class="st18" d="M50.07,331.56v-38.28c0,0,0.74-10.75,10.75-19.14l16.79-17.67l-20.32,18.99c0,0-8.39,7.8-8.69,18.11
		L50.07,331.56z"/>
	<path class="st18" d="M107.96,401.74l2.04,3.48c0,0,0.61-2.54,6.07-5.25C116.07,399.97,111.16,402.29,107.96,401.74z"/>
	<path class="st18" d="M89.02,363.69l-0.11,6.35c0,0,0.11,2.48-1.38,3.26c0,0,1.55,0.11,3.7-0.66c0,0-1.71-0.39-1.71-2.6
		L89.02,363.69z"/>
	<path class="st18" d="M445.67,331.56v-38.28c0,0-0.74-10.75-10.75-19.14l-16.79-17.67l20.32,18.99c0,0,8.39,7.8,8.69,18.11
		L445.67,331.56z"/>
	<path class="st18" d="M387.78,401.74l-2.04,3.48c0,0-0.61-2.54-6.07-5.25C379.67,399.97,384.58,402.29,387.78,401.74z"/>
	<path class="st18" d="M406.72,363.69l0.11,6.35c0,0-0.11,2.48,1.38,3.26c0,0-1.55,0.11-3.7-0.66c0,0,1.71-0.39,1.71-2.6
		L406.72,363.69z"/>
</g>
<g id="tail">
</g>
<g id="body">
</g>
<g id="head">
</g>
<g id="accessory">
</g>
<g id="right-wing">
</g>
<g id="eyes">
</g>
<g id="beak">
</g>
<g id="on-head">
</g>
<g id="eyebrows">
</g>
<g id="BIRD_x5F_1">
</g>
</svg>
