<svg version="1.1" xmlns="http://www.w3.org/2000/svg" xmlns:xlink="http://www.w3.org/1999/xlink" x="0px" y="0px"
	 viewBox="0 0 510.24 595.28" style="enable-background:new 0 0 510.24 595.28;" xml:space="preserve">
<style type="text/css">
	.st0{fill:#8599B5;}
	.st1{opacity:0.3;}
	.st2{fill:#FFFFFF;}
	.st3{fill:#6F87AD;}
	.st4{fill:#5C708E;}
	.st5{opacity:0.1;fill:#FFFFFF;}
	.st6{fill:none;stroke:#000000;stroke-width:2;stroke-miterlimit:10;}
	.st7{opacity:0.5;fill:#422421;}
	.st8{fill:#FF5400;}
	.st9{fill:#F46E45;}
	.st10{fill:#F44945;}
	.st11{fill:#7C2B1E;}
	.st12{opacity:0.7;fill:#422421;}
	.st13{opacity:0.4;fill:#FFC394;}
	.st14{fill:#FFC394;}
	.st15{opacity:0.5;fill:#FFFFFF;}
	.st16{fill:#C07E42;}
	.st17{fill:#1D1D1D;}
	.st18{fill:#8A6A47;}
	.st19{fill:#666768;}
	.st20{fill:#921D00;}
	.st21{fill:#384051;}
	.st22{opacity:0.6;fill:#384051;}
	.st23{opacity:0.8;fill:#210101;}
	.st24{fill:#640000;}
	.st25{fill:#930000;}
	.st26{fill:#B60000;}
	.st27{fill:#FF0000;}
	.st28{fill:#252B35;}
	.st29{fill:#5B260F;}
	.st30{opacity:0.6;}
	.st31{fill:#873C22;}
	.st32{opacity:0.4;}
	.st33{fill:#F27E51;}
	.st34{fill:#721910;}
	.st35{opacity:0.4;fill:#FF5400;}
	.st36{opacity:0.4;fill:#FFFFFF;}
	.st37{opacity:0.5;}
	.st38{opacity:0.4;fill:#FF845E;}
	.st39{fill:none;stroke:#000000;stroke-width:3;stroke-miterlimit:10;}
	.st40{fill:#69707C;}
	.st41{fill:#94AFD6;}
	.st42{fill:#FF845E;}
	.st43{fill:#B54830;}
	.st44{opacity:0.7;fill:#7C2B1E;}
	.st45{fill:#474D56;}
	.st46{opacity:0.5;fill:#FFC394;}
	.st47{opacity:0.3;fill:#FFC394;}
	.st48{opacity:0.6;fill:#422421;}
	.st49{fill:#704E37;}
	.st50{fill:#AF5A5A;}
	.st51{fill:#914D4D;}
	.st52{fill:#723F3F;}
	.st53{fill:#724D2F;}
	.st54{fill:#936037;}
	.st55{opacity:0.4;fill:#F7BA80;}
	.st56{fill:#F7BA80;}
	.st57{opacity:0.7;fill:#F7BA80;}
	.st58{opacity:0.5;fill:#F26761;}
	.st59{fill:#543E3B;}
	.st60{fill:#7C5D59;}
	.st61{fill:#AA807D;}
	.st62{fill:#D80000;}
	.st63{fill:#FF4A00;}
	.st64{fill:none;stroke:#FFFFFF;stroke-width:3;stroke-linecap:round;stroke-miterlimit:10;}
	.st65{opacity:0.3;fill:#FFFFFF;}
	.st66{opacity:0.3;fill:#FFD69C;}
	.st67{opacity:0.5;fill:#C62800;}
	.st68{fill:#FF5304;}
</style>
<g id="left-wing_1_">
	<g>
		<path class="st0" d="M378.16,398.65c4.67,1.23,8.77-0.19,9.14-3.16c0.37-2.97-1.77-5.18-6.44-6.41
			c-4.62-1.21-8.03,3.12-12.87-2.76c-1.56-2.55-3-5.22-4.31-8c0.34,0.35,0.68,0.66,1.03,0.92c4.16,3.06,8.5,3.45,9.7,0.88
			c1.2-2.57-0.23-5.47-4.38-8.53c-4.09-3.01-8.6-0.48-11.59-7.77c-0.57-2.18-1.07-4.4-1.48-6.66c-0.15-0.83-0.28-1.65-0.41-2.48
			c0.22,0.44,0.46,0.86,0.71,1.22c3.13,4.51,7.21,6.67,9.1,4.81c1.89-1.86,1.34-5.1-1.8-9.62c-3.1-4.46-8.19-3.99-8.96-12
			c0.1-3.09,0.36-6.13,0.79-9.1c0.09,0.51,0.2,1.01,0.35,1.46c1.74,5.43,5.05,9.09,7.4,8.17s2.74-4.12,1.01-9.55
			c-1.71-5.35-6.72-7.02-5.24-14.6c0.97-2.78,2.09-5.47,3.36-8.05c-0.06,0.49-0.09,0.97-0.08,1.44c0.13,5.69,2.28,10.41,4.81,10.54
			c2.53,0.13,3.81-2.64,3.69-8.33c-0.13-5.61-4.49-9.21-0.89-15.55c1.72-2.15,3.57-4.15,5.53-5.99c-0.2,0.43-0.37,0.87-0.5,1.31
			c-1.5,5.26-0.76,10.47,1.63,11.63c2.4,1.16,4.43-0.84,5.92-6.1c1.48-5.2-1.72-10.31,3.61-14.63c2.24-1.23,4.57-2.29,6.99-3.16
			c-0.31,0.31-0.6,0.64-0.84,0.99c-2.94,4.2-3.72,9.27-1.74,11.33c1.98,2.06,4.51,1.06,7.45-3.14c2.89-4.14,1.29-10.12,7.59-11.89
			c2.58-0.22,5.16-0.22,7.71-0.03c-0.4,0.16-0.77,0.34-1.11,0.56c-4.03,2.63-6.22,6.95-4.9,9.66c1.32,2.7,4.04,2.83,8.07,0.2
			c3.98-2.6,4.12-8.77,10.76-7.75c2.51,0.86,4.97,1.92,7.36,3.15c-0.42-0.02-0.83,0-1.21,0.06c-4.63,0.75-7.97,3.8-7.47,6.82
			c0.51,3.02,3.09,4.26,7.72,3.51c4.55-0.73,6.45-6.27,12.48-2.7c2.19,1.83,4.29,3.83,6.28,5.97c-0.4-0.19-0.79-0.34-1.18-0.45
			c-4.67-1.23-8.77,0.19-9.14,3.16c-0.37,2.97,1.77,5.18,6.44,6.41c4.62,1.21,8.03-3.12,12.87,2.76c1.56,2.55,3,5.22,4.31,8
			c-0.34-0.35-0.68-0.66-1.03-0.92c-4.16-3.06-8.5-3.45-9.7-0.88c-1.2,2.57,0.23,5.47,4.38,8.53c4.09,3.01,8.6,0.48,11.59,7.77
			c0.57,2.18,1.07,4.4,1.47,6.66c0.15,0.83,0.28,1.65,0.41,2.48c-0.22-0.44-0.46-0.86-0.71-1.22c-3.13-4.51-7.21-6.67-9.1-4.81
			c-1.89,1.86-1.34,5.1,1.8,9.62c3.1,4.46,8.19,3.99,8.96,12c-0.1,3.09-0.36,6.12-0.79,9.1c-0.09-0.51-0.2-1.01-0.35-1.46
			c-1.74-5.43-5.05-9.09-7.4-8.17c-2.35,0.92-2.74,4.12-1.01,9.55c1.71,5.35,6.72,7.02,5.24,14.6c-0.97,2.78-2.09,5.47-3.36,8.05
			c0.06-0.49,0.09-0.97,0.08-1.44c-0.13-5.69-2.28-10.41-4.81-10.54c-2.53-0.13-3.81,2.64-3.69,8.33c0.13,5.61,4.49,9.21,0.89,15.55
			c-1.72,2.15-3.57,4.15-5.53,5.99c0.2-0.43,0.37-0.87,0.5-1.31c1.5-5.26,0.76-10.47-1.63-11.63c-2.4-1.16-4.43,0.84-5.92,6.1
			c-1.48,5.2,1.72,10.31-3.61,14.63c-2.24,1.23-4.57,2.29-6.99,3.16c0.31-0.31,0.6-0.64,0.84-0.99c2.94-4.2,3.72-9.27,1.74-11.33
			c-1.98-2.06-4.51-1.06-7.45,3.14c-2.89,4.14-1.29,10.12-7.59,11.89c-2.58,0.22-5.16,0.22-7.71,0.03c0.4-0.16,0.77-0.34,1.11-0.56
			c4.03-2.63,6.22-6.95,4.9-9.66c-1.32-2.7-4.04-2.83-8.07-0.2c-3.98,2.6-4.12,8.77-10.76,7.75c-2.51-0.86-4.97-1.92-7.36-3.15
			c0.42,0.02,0.83,0,1.21-0.06c4.63-0.75,7.97-3.8,7.47-6.82c-0.51-3.02-3.09-4.26-7.72-3.51c-4.55,0.73-6.45,6.27-12.48,2.7
			c-2.19-1.83-4.29-3.83-6.28-5.97C377.38,398.4,377.78,398.55,378.16,398.65z"/>
		<path class="st0" d="M380.53,401c4.7,0.95,8.71-0.72,8.96-3.73s-1.98-5.08-6.68-6.03c-4.65-0.93-7.86,3.62-12.92-1.98
			c-1.66-2.46-3.21-5.05-4.62-7.76c0.35,0.33,0.71,0.62,1.07,0.86c4.26,2.81,8.6,2.94,9.69,0.29c1.09-2.65-0.46-5.47-4.72-8.28
			c-4.2-2.77-8.58,0.05-11.86-7.08c-0.66-2.15-1.25-4.34-1.75-6.59c-0.18-0.82-0.35-1.64-0.51-2.46c0.24,0.43,0.49,0.83,0.76,1.18
			c3.31,4.33,7.46,6.24,9.26,4.27c1.8-1.98,1.12-5.2-2.19-9.53c-3.27-4.28-8.32-3.49-9.43-11.47c-0.04-3.1,0.1-6.16,0.4-9.17
			c0.11,0.51,0.24,1,0.41,1.44c1.96,5.33,5.41,8.8,7.71,7.73c2.3-1.06,2.55-4.3,0.6-9.63c-1.93-5.25-6.99-6.63-5.83-14.32
			c0.85-2.85,1.85-5.61,3.01-8.27c-0.04,0.5-0.05,0.98-0.02,1.45c0.37,5.69,2.71,10.29,5.23,10.27c2.52-0.02,3.68-2.88,3.32-8.57
			c-0.36-5.61-4.85-8.96-1.54-15.53c1.62-2.26,3.38-4.38,5.25-6.35c-0.18,0.45-0.33,0.9-0.44,1.35c-1.27,5.36-0.32,10.54,2.12,11.56
			c2.44,1.02,4.37-1.12,5.64-6.48c1.25-5.3-2.14-10.23,2.97-14.89c2.18-1.37,4.45-2.57,6.83-3.6c-0.3,0.33-0.57,0.68-0.8,1.04
			c-2.75,4.39-3.31,9.52-1.25,11.46c2.06,1.94,4.53,0.78,7.28-3.61c2.71-4.32,0.86-10.22,7.05-12.39c2.56-0.38,5.12-0.54,7.67-0.5
			c-0.39,0.18-0.75,0.39-1.08,0.63c-3.9,2.88-5.9,7.35-4.47,9.98c1.43,2.63,4.14,2.59,8.04-0.3c3.85-2.85,3.73-9.04,10.38-8.43
			c2.53,0.71,5.02,1.62,7.46,2.7c-0.42,0.01-0.83,0.05-1.21,0.13c-4.58,1.03-7.77,4.3-7.14,7.29c0.63,2.99,3.25,4.08,7.83,3.05
			c4.5-1.01,6.15-6.68,12.31-3.48c2.26,1.7,4.43,3.57,6.5,5.6c-0.41-0.17-0.81-0.3-1.19-0.37c-4.7-0.95-8.71,0.72-8.96,3.73
			c-0.24,3,1.98,5.08,6.68,6.03c4.65,0.93,7.86-3.62,12.92,1.98c1.66,2.46,3.21,5.05,4.62,7.76c-0.35-0.33-0.71-0.62-1.07-0.86
			c-4.26-2.81-8.6-2.94-9.69-0.29c-1.09,2.65,0.46,5.47,4.72,8.28c4.2,2.77,8.58-0.05,11.86,7.08c0.66,2.15,1.25,4.34,1.75,6.59
			c0.18,0.82,0.35,1.64,0.51,2.46c-0.24-0.43-0.49-0.83-0.76-1.18c-3.31-4.33-7.46-6.24-9.26-4.27c-1.8,1.98-1.12,5.2,2.19,9.53
			c3.27,4.28,8.32,3.49,9.43,11.47c0.04,3.1-0.1,6.16-0.4,9.17c-0.11-0.51-0.24-1-0.41-1.44c-1.96-5.33-5.41-8.8-7.71-7.73
			s-2.55,4.3-0.6,9.63c1.93,5.25,6.99,6.63,5.83,14.32c-0.85,2.85-1.85,5.61-3.01,8.27c0.04-0.5,0.05-0.98,0.02-1.45
			c-0.37-5.69-2.71-10.29-5.23-10.27s-3.68,2.88-3.32,8.57c0.36,5.61,4.85,8.96,1.54,15.53c-1.62,2.26-3.38,4.38-5.25,6.35
			c0.18-0.45,0.33-0.9,0.44-1.35c1.27-5.36,0.32-10.54-2.12-11.56c-2.44-1.02-4.37,1.12-5.64,6.48c-1.25,5.3,2.14,10.23-2.97,14.89
			c-2.18,1.37-4.45,2.57-6.83,3.6c0.3-0.33,0.57-0.68,0.8-1.04c2.75-4.39,3.31-9.52,1.25-11.46c-2.06-1.94-4.53-0.78-7.28,3.61
			c-2.71,4.32-0.86,10.22-7.05,12.39c-2.56,0.38-5.12,0.54-7.67,0.5c0.39-0.18,0.75-0.39,1.08-0.63c3.9-2.88,5.9-7.35,4.47-9.98
			c-1.43-2.63-4.14-2.59-8.04,0.3c-3.85,2.85-3.73,9.04-10.38,8.43c-2.53-0.71-5.02-1.62-7.46-2.7c0.42-0.01,0.83-0.05,1.21-0.13
			c4.58-1.03,7.77-4.3,7.14-7.29c-0.63-2.99-3.25-4.08-7.83-3.05c-4.5,1.01-6.15,6.68-12.31,3.48c-2.26-1.7-4.43-3.57-6.5-5.6
			C379.74,400.79,380.14,400.92,380.53,401z"/>
		<g class="st1">
			<path class="st2" d="M376.7,289.48c-0.95,0.89-1.87,1.83-2.77,2.79c-0.1,0.28-0.18,0.55-0.25,0.83
				c-1.27,5.36-0.32,10.54,2.12,11.56c1.58,0.66,2.95-0.02,4.07-2.04c-0.64,0.21-1.32,0.16-2.03-0.19
				c-2.4-1.16-3.13-6.37-1.63-11.63C376.33,290.35,376.5,289.91,376.7,289.48z"/>
			<path class="st2" d="M363.63,307.38c-0.63,1.29-1.23,2.6-1.79,3.95c0,0.21,0,0.42,0.01,0.62c0.37,5.69,2.71,10.29,5.23,10.27
				c1.59-0.01,2.64-1.16,3.11-3.44c-0.51,0.42-1.12,0.62-1.83,0.59c-2.53-0.13-4.68-4.85-4.81-10.54
				C363.54,308.35,363.57,307.87,363.63,307.38z"/>
			<path class="st2" d="M390.43,280.73c-2.75,4.39-3.31,9.52-1.25,11.46c1.38,1.3,2.95,1.2,4.66-0.33
				c-0.74-0.03-1.43-0.37-2.07-1.03c-1.98-2.06-1.2-7.13,1.74-11.33c0.24-0.35,0.53-0.68,0.84-0.99c-1.1,0.4-2.18,0.84-3.25,1.31
				C390.86,280.12,390.63,280.42,390.43,280.73z"/>
			<path class="st2" d="M356.39,334.98c1.96,5.33,5.41,8.8,7.71,7.73c1.41-0.65,2.05-2.13,1.88-4.4c-0.35,0.59-0.84,1.01-1.48,1.26
				c-2.35,0.92-5.66-2.74-7.4-8.17c-0.15-0.46-0.26-0.95-0.35-1.46c-0.21,1.5-0.39,3.02-0.52,4.56
				C356.29,334.66,356.33,334.83,356.39,334.98z"/>
			<path class="st2" d="M431.51,280.29c-0.42,0.01-0.83,0.05-1.21,0.13c-4.58,1.03-7.77,4.3-7.14,7.29c0.45,2.13,1.9,3.28,4.34,3.41
				c-0.79-0.62-1.29-1.51-1.48-2.66c-0.51-3.02,2.84-6.07,7.47-6.82c0.38-0.06,0.79-0.08,1.21-0.06c-2.4-1.23-4.86-2.28-7.36-3.15
				c-0.29-0.04-0.57-0.07-0.83-0.09C428.2,278.91,429.87,279.55,431.51,280.29z"/>
			<path class="st2" d="M449.81,292.88c-0.41-0.17-0.81-0.3-1.19-0.37c-4.7-0.95-8.71,0.72-8.96,3.73
				c-0.18,2.18,0.95,3.87,3.37,4.99c-0.71-0.95-0.99-2.05-0.83-3.27c0.37-2.97,4.46-4.39,9.14-3.16c0.39,0.1,0.78,0.25,1.18,0.45
				c-1.99-2.15-4.09-4.14-6.28-5.97c-0.4-0.24-0.78-0.43-1.15-0.59C446.71,289.99,448.29,291.39,449.81,292.88z"/>
			<path class="st2" d="M463.88,312c-0.35-0.33-0.71-0.62-1.07-0.86c-4.26-2.81-8.6-2.94-9.69-0.29c-0.8,1.94-0.17,3.98,1.9,6.04
				c-0.5-1.24-0.48-2.44,0.05-3.57c1.2-2.57,5.55-2.17,9.7,0.88c0.35,0.26,0.69,0.57,1.03,0.92c-1.3-2.78-2.74-5.46-4.31-8
				c-0.41-0.49-0.8-0.91-1.19-1.27C461.58,307.83,462.77,309.88,463.88,312z"/>
			<path class="st2" d="M411.18,275.7c-0.39,0.18-0.75,0.39-1.08,0.63c-3.9,2.88-5.9,7.35-4.47,9.98c0.99,1.82,2.6,2.36,4.79,1.56
				c-0.8-0.31-1.44-0.93-1.91-1.88c-1.32-2.7,0.87-7.02,4.9-9.66c0.34-0.22,0.71-0.4,1.11-0.56c-2.55-0.19-5.12-0.19-7.71,0.03
				c-0.06,0.02-0.11,0.04-0.17,0.05C408.16,275.73,409.67,275.68,411.18,275.7z"/>
			<path class="st2" d="M357.94,359.44c3.31,4.33,7.46,6.24,9.26,4.27c1.08-1.19,1.26-2.82,0.52-4.88
				c-0.15,0.71-0.48,1.32-0.99,1.83c-1.89,1.86-5.97-0.3-9.1-4.81c-0.26-0.37-0.49-0.78-0.71-1.22c0.12,0.82,0.26,1.65,0.41,2.48
				c0.12,0.68,0.25,1.35,0.39,2.01C357.79,359.22,357.86,359.34,357.94,359.44z"/>
			<path class="st2" d="M419.04,417.18c3.9-2.88,5.9-7.35,4.47-9.98c-0.9-1.66-2.32-2.25-4.22-1.74c0.87,0.29,1.55,0.93,2.04,1.93
				c1.32,2.7-0.87,7.02-4.9,9.66c-0.34,0.22-0.71,0.4-1.11,0.56c0.93,0.07,1.86,0.1,2.79,0.12
				C418.45,417.57,418.76,417.39,419.04,417.18z"/>
			<path class="st2" d="M467.27,383.02c0.04-0.5,0.05-0.98,0.02-1.45c-0.37-5.69-2.71-10.29-5.23-10.27c-1.8,0.02-2.9,1.49-3.26,4.4
				c0.62-1.17,1.52-1.73,2.68-1.67c2.53,0.13,4.68,4.85,4.81,10.54c0.01,0.47-0.02,0.95-0.08,1.44c1.27-2.58,2.39-5.26,3.36-8.05
				c0.12-0.61,0.19-1.17,0.23-1.71C469.06,378.57,468.22,380.83,467.27,383.02z"/>
			<path class="st2" d="M473.16,359.98c-0.11-0.51-0.24-1-0.41-1.44c-1.96-5.33-5.41-8.8-7.71-7.73c-1.68,0.78-2.26,2.72-1.69,5.79
				c0.23-1.42,0.89-2.35,1.99-2.78c2.35-0.92,5.66,2.74,7.4,8.17c0.15,0.46,0.26,0.95,0.35,1.46c0.43-2.97,0.69-6.01,0.79-9.1
				c-0.07-0.73-0.18-1.4-0.32-2C473.54,354.92,473.41,357.47,473.16,359.98z"/>
			<path class="st2" d="M471.04,329.62c-0.27-0.66-0.56-1.24-0.85-1.75c0.46,1.62,0.88,3.26,1.26,4.93
				c0.18,0.82,0.35,1.64,0.51,2.46c-0.24-0.43-0.49-0.83-0.76-1.18c-3.31-4.33-7.46-6.24-9.26-4.27c-1.33,1.46-1.3,3.6,0.14,6.36
				c-0.18-1.43,0.17-2.58,1.04-3.44c1.89-1.86,5.97,0.3,9.1,4.81c0.26,0.37,0.49,0.78,0.71,1.22c-0.12-0.82-0.26-1.65-0.41-2.48
				C472.11,334.02,471.62,331.8,471.04,329.62z"/>
			<path class="st2" d="M366.33,382.37c4.26,2.81,8.6,2.94,9.69,0.29c0.65-1.57,0.36-3.21-0.87-4.86c0.09,0.78-0.04,1.54-0.38,2.27
				c-1.2,2.57-5.55,2.17-9.7-0.88c-0.35-0.26-0.69-0.57-1.03-0.92c0.61,1.3,1.25,2.58,1.92,3.84
				C366.08,382.19,366.2,382.29,366.33,382.37z"/>
			<path class="st2" d="M455.03,401.76c0.18-0.45,0.33-0.9,0.44-1.35c1.27-5.36,0.32-10.54-2.12-11.56
				c-1.68-0.7-3.12,0.09-4.27,2.42c0.9-0.72,1.88-0.82,2.93-0.31c2.4,1.16,3.13,6.37,1.63,11.63c-0.12,0.44-0.29,0.88-0.5,1.31
				c1.97-1.85,3.81-3.85,5.53-5.99c0.21-0.38,0.4-0.75,0.56-1.1C457.92,398.54,456.51,400.2,455.03,401.76z"/>
			<path class="st2" d="M380.53,401c4.7,0.95,8.71-0.72,8.96-3.73c0.15-1.79-0.59-3.25-2.2-4.34c0.35,0.76,0.47,1.59,0.36,2.49
				c-0.37,2.97-4.46,4.39-9.14,3.16c-0.39-0.1-0.78-0.25-1.18-0.45c0.87,0.94,1.77,1.84,2.68,2.72
				C380.18,400.92,380.36,400.97,380.53,401z"/>
			<path class="st2" d="M437.91,413.82c0.3-0.33,0.57-0.68,0.8-1.04c2.75-4.39,3.31-9.52,1.25-11.46c-1.36-1.28-2.9-1.2-4.58,0.25
				c0.98-0.19,1.88,0.14,2.68,0.97c1.98,2.06,1.2,7.13-1.74,11.33c-0.24,0.35-0.53,0.68-0.84,0.99c2.42-0.87,4.75-1.93,6.99-3.16
				c0.16-0.13,0.32-0.27,0.47-0.4C441.32,412.23,439.64,413.07,437.91,413.82z"/>
			<path class="st2" d="M398.84,413.09c4.58-1.03,7.77-4.3,7.14-7.29c-0.38-1.83-1.51-2.94-3.37-3.3c0.63,0.6,1.04,1.41,1.21,2.42
				c0.51,3.02-2.84,6.07-7.47,6.82c-0.38,0.06-0.79,0.08-1.21,0.06c0.97,0.5,1.95,0.96,2.94,1.4
				C398.34,413.18,398.59,413.15,398.84,413.09z"/>
		</g>
		
			<ellipse transform="matrix(0.9841 -0.1778 0.1778 0.9841 -55.1721 79.3809)" class="st3" cx="415.38" cy="347.57" rx="42.93" ry="52.39"/>
		<path class="st4" d="M415.38,347.57c0,0-18.48-8.87-42.76-9.19c0,0,0.24-12.69,6.77-22.55
			C379.4,315.83,392.96,333.53,415.38,347.57z"/>
		<path class="st4" d="M415.38,347.57c0,0-18.07,10.03-35.41,26.84c0,0-4.11-6.76-5.48-12.98
			C374.5,361.42,392.77,357.83,415.38,347.57z"/>
		<path class="st4" d="M415.38,347.57c0,0,19.06,16.12,40.42,22.26c0,0-6.46,21.61-26.7,28.35
			C429.1,398.18,427.53,373.46,415.38,347.57z"/>
		<path class="st4" d="M415.38,347.57c0,0,25.57-12.56,41.08-12.13c0,0-2.29-10.03-8.7-19.46
			C447.76,315.98,438.17,333.6,415.38,347.57z"/>
		<path class="st4" d="M415.38,347.57c0,0,2.16-36.72,12.03-48.8c0,0-6.75-3.34-16.11-3.12
			C411.31,295.65,416.49,315.01,415.38,347.57z"/>
		<path class="st4" d="M409.75,398.44c0,0-0.27-30.84,5.63-50.88c0,0-8.51,24.92-23.98,41.39
			C391.4,388.96,398.04,395.7,409.75,398.44z"/>
		<path class="st5" d="M372.21,339.63c0,0,22.01,2.35,43.17,7.94c0,0-31.38,8.9-41.09,11.54
			C372.14,352.34,371.46,345.85,372.21,339.63z"/>
		<path class="st5" d="M390.7,388.26c0,0,11.36-21.7,24.68-40.7c0,0-7.37,37.81-9.73,49.45
			C399.83,395.46,394.85,392.54,390.7,388.26z"/>
		<path class="st5" d="M433.87,396.2c0,0-10.65-24.05-18.49-48.64c0,0,24.01,28.91,31.36,37.9
			C443.06,390.69,438.77,394.25,433.87,396.2z"/>
		<path class="st5" d="M458.55,355.5c0,0-22.01-2.35-43.17-7.94c0,0,31.38-8.9,41.09-11.54C458.62,342.79,459.3,349.28,458.55,355.5
			z"/>
		<path class="st5" d="M440.06,306.87c0,0-11.36,21.7-24.68,40.7c0,0,7.37-37.81,9.73-49.45
			C430.93,299.67,435.91,302.6,440.06,306.87z"/>
		<path class="st5" d="M396.9,298.93c0,0,10.65,24.05,18.49,48.64c0,0-24.01-28.91-31.36-37.9
			C387.7,304.44,391.99,300.88,396.9,298.93z"/>
		
			<ellipse transform="matrix(0.9841 -0.1778 0.1778 0.9841 -55.1721 79.3809)" class="st4" cx="415.38" cy="347.57" rx="9.37" ry="11.43"/>
	</g>
	<path class="st6" d="M472.61,351.24c-1.11-7.98-6.4-7.3-9.67-11.59c-2.32-3.28-1.65-5.64-0.78-6.5c0.3-0.3,0.66-0.48,1.06-0.58
		c3.71-0.49,8.59,6.29,8.75,6.62c-0.12-0.82-0.26-1.65-0.41-2.48c-0.41-2.26-0.9-4.48-1.48-6.66c-0.27-0.66-1.07-2.52-1.34-3.41
		c-3.28-7.13-11.64-4.65-14.5-9.6c-0.5-1.24-0.66-2.15-0.13-3.28c0.41-0.87,1.18-1.39,2.18-1.59c3.76-0.27,8.32,3.15,8.55,3.39
		c-1.3-2.78-2.74-5.46-4.31-8c-0.41-0.49-1.29-1.78-2.25-2.88c-5.06-5.6-8.28-1.05-12.92-1.98c-1.59-0.32-2.6-0.41-3.31-1.03
		c-0.71-0.62-0.99-2.05-0.83-3.27c0.22-1.79,1.8-3.01,4.03-3.43c2.38-0.41,6.06,0.61,6.29,0.72c-1.99-2.15-4.09-4.14-6.28-5.97
		c-0.4-0.24-1.9-1.43-2.93-1.98c-6.16-3.21-7.81,2.46-12.31,3.48c-1.09,0.25-2.06,0.36-2.92,0.36c-0.43,0-0.83-0.2-1.11-0.53
		c-0.48-0.56-0.79-1.28-0.94-2.13c-0.5-2.95,2.7-5.93,7.17-6.76c0.37-0.05,1.35-0.12,1.51-0.12c-2.4-1.23-6.28-3.13-10.65-4
		c-6.65-0.62-6.53,5.57-10.38,8.43c-2.53,2.02-4.69,0.93-5.16-0.02c-1.32-2.7,0.87-7.02,4.9-9.66c0.34-0.22,0.71-0.4,1.11-0.56
		c-2.55-0.19-5.12-0.19-7.71,0.03c-0.06,0.02-0.11,0.03-0.16,0.05c-0.06,0.01-0.12,0.01-0.19,0.01c-0.01,0-0.02,0.01-0.02,0.01
		c-0.98,0.08-1.95,0.18-2.93,0.33c-6.19,2.17-4.34,8.06-7.05,12.39c-2.08,3.06-3.79,3.2-4.68,2.25c-2.06-3.36,2.91-12.61,2.91-12.61
		s-2.55,1.07-3.46,1.47c0,0,0-0.01,0.01-0.01c-0.07,0.03-0.13,0.06-0.2,0.09c-0.44,0.19-0.87,0.39-1.3,0.59
		c-0.15,0.07-0.31,0.15-0.46,0.22c-0.41,0.2-0.82,0.41-1.23,0.62c-0.17,0.09-0.35,0.18-0.52,0.27c-0.17,0.09-0.34,0.17-0.5,0.26
		c-0.01,0.01-0.02,0.02-0.04,0.04c-0.87,0.48-1.73,0.98-2.57,1.5c-5.12,4.66-1.72,9.59-2.97,14.89c-0.43,1.81-1.04,5.18-3.6,4.25
		c-2.4-1.16-3.13-6.37-1.63-11.63c0.12-0.44,0.5-1.31,0.5-1.31s-4.43,2.8-7.83,8.62c-3.32,6.57,1.18,9.92,1.54,15.53
		c0.1,1.53,0.08,2.85-0.04,3.97c-0.09,0.84-0.68,1.53-1.49,1.74l-0.02,0c-0.16,0.02-0.33,0.03-0.5,0.02
		c-2.53-0.13-4.68-4.85-4.81-10.54c-0.01-0.47,0.08-1.44,0.08-1.44s-0.96,1.44-2.05,3.66c-2.39,4.85-2.3,10.57,0.21,15.36
		c2.74,5.23,5.96,10.68,2.78,12.99c-0.37,0.09-0.7,0.17-1.07,0.26c-3.43-0.66-6.96-8.74-7.01-9.06c-0.63,4.89-1.15,6.54-0.61,12.31
		c1.11,7.98,5.86,7,9.13,11.29c1,1.31,4.6,5.36,1.6,6.76c-0.82,0.38-1.78,0.43-2.63,0.12c-3.24-1.16-7.18-6.2-7.18-6.2
		s0.35,6.26,3.18,12.74c3.28,7.13,7.11,4.02,11.31,6.78c1.44,0.95,2.56,1.9,3.38,2.84c0.26,1.01,0.17,1.98-0.26,2.9
		c-0.41,0.87-1.12,1.65-2.12,1.85c-1.93,0.23-8.27-3.71-8.27-3.71s2.21,5.03,2.59,5.69c0.37,0.66,0.74,1.32,1.13,1.96
		c0.08,0.13,0.15,0.28,0.24,0.41c0.03,0.04,0.06,0.07,0.1,0.11c0.59,0.96,1.18,1.91,1.8,2.83c5.06,5.6,8.28,1.05,12.92,1.98
		c1.59,0.32,2.88,0.77,3.91,1.34c0.52,0.86,0.72,1.83,0.58,2.91c-0.22,1.79-1.79,3-4.02,3.43c-1.41,0.21-3.04,0.12-4.76-0.33
		c-0.39-0.1-0.78-0.25-1.18-0.45c0.11,0.12,0.23,0.23,0.35,0.35c-0.23-0.08-0.46-0.18-0.7-0.29c0.78,0.84,1.57,1.64,2.38,2.43
		c-0.01,0-0.02-0.01-0.03-0.01c0.16,0.15,0.31,0.3,0.47,0.45c0.18,0.17,0.36,0.34,0.54,0.52c0.34,0.32,0.68,0.64,1.03,0.95
		c0.2,0.18,0.4,0.35,0.6,0.53c0.33,0.29,0.65,0.57,0.98,0.85c0.1,0.09,0.2,0.18,0.31,0.27c0.01,0.01,0.02,0.01,0.03,0.02
		c0.84,0.7,1.68,1.38,2.54,2.03c6.16,3.21,7.81-2.46,12.31-3.48c1.04-0.24,1.98-0.35,2.81-0.36c0.83-0.01,1.7,0.28,2.09,1.01
		c0.23,0.42,0.32,1.04,0.41,1.59c0.5,2.95-2.7,5.93-7.17,6.76c-0.37,0.05-1.69,0.14-1.86,0.13c0.94,0.48,3.19,1.34,3.19,1.34
		c0.08,0.03,4.4,2.02,7.46,2.7c6.65,0.62,6.53-5.57,10.38-8.43c0.8-0.59,1.55-1.06,2.25-1.41c0.92-0.46,2.07-0.3,2.71,0.5
		c0.2,0.25,0.39,0.54,0.55,0.87c1.32,2.7-0.87,7.02-4.9,9.66c-0.34,0.22-1.17,0.57-1.57,0.73c9.3,0.41,10.15-0.39,11.12-0.53
		c6.19-2.17,4.34-8.06,7.05-12.39c0.56-0.89,1.1-1.65,1.64-2.27c0.89-1.04,2.42-1.05,3.37-0.07l0.02,0.02
		c1.98,2.06,1.2,7.13-1.74,11.33c-0.24,0.35-0.53,0.68-0.84,0.99c0.15-0.06,0.3-0.12,0.45-0.17c-0.04,0.04-0.07,0.07-0.1,0.11
		c2.42-0.87,4.75-1.93,6.99-3.16c0.16-0.13,1.67-1.11,2.26-1.48c5.12-4.66,1.72-9.59,2.97-14.89c0.7-2.75,2.19-4.68,3.95-4.31
		c5.81,2.58,1.56,12.73,1.49,12.88c5.37-5.11,6.53-7.65,7.13-8.49c3.32-6.57-1.18-9.92-1.54-15.53c-0.08-1.21-0.08-2.29-0.02-3.25
		c0.05-0.75,0.32-1.49,0.89-1.98c0.31-0.27,0.65-0.45,1.03-0.54c0.16-0.02,0.32-0.03,0.5-0.02c4.67,0.24,5.11,11.64,5.08,11.91
		c1.27-2.58,2.39-5.26,3.36-8.05c0.35-1.14,0.55-2.71,0.7-3.21c1.16-7.69-3.9-9.06-5.83-14.32c-0.96-2.8-0.18-6.22,0.94-6.64
		c0.06-0.01,0.12-0.03,0.19-0.04c2.29-0.19,4.98,2.53,7.51,9.69C473.06,354.11,472.62,351.75,472.61,351.24z"/>
	<path class="st7" d="M397.04,399.7c1.43-6.56,5.89-20.74,19.51-39c0,0,9.87-7.95,6.18-16.93c-3.68-8.98-13.69-3.68-17.52,0.15
		c-3.83,3.83-17.37,63.75-17.37,63.75s0.8,0.35,2.7-0.35C393.87,406.09,396.29,403.17,397.04,399.7z"/>
	<path class="st8" d="M306.86,310.34l31.58,23.02c11.02,8.03,14.44,22.96,8.03,34.99l0,0l33.13,31.07l5.96,6.11
		c4.81,4.93,3.6,13.26-2.57,16.31c-9.92,4.9-22.36,3.56-31.07-4.6l-45.94-44.69c0,0-13.47-17.67-11.71-39.75
		C296.04,310.71,306.86,310.34,306.86,310.34z"/>
	<path class="st9" d="M407.28,342.59c0,0-29.89,20.91-46.38,54.63c0,0-6.77,13.4,5.89,23.12c12.66,9.72,25.33-3.39,25.33-3.39
		s-13.4-16.64,27.39-61.84c0,0,5.45-6.18,0-12.37C413.61,336.85,407.28,342.59,407.28,342.59z"/>
	<ellipse class="st10" cx="368.48" cy="407.67" rx="15.83" ry="17.96"/>
	<path class="st11" d="M304.54,330.37c0.33,0,21.42-4.42,35.89,20.1c0,0,4.53,8.72,0.11,17.45c0,0-2.1,1.55-4.09,3.87
		c-1.99,2.32,18.11,26.94,18.11,26.94s-5.41,13.8,4.75,23.41c0,0-4.31-0.55-12.37-9.5c-8.06-8.94-38.76-69.13-38.76-69.13
		L304.54,330.37z"/>
	<path class="st11" d="M346.47,368.36c0,0-0.07-3.53-7.58-3.87c-7.51-0.33-9.83,6.85-9.83,6.85l4.42,5.85
		C333.47,377.19,338.04,366.7,346.47,368.36z"/>
	<path class="st11" d="M354.35,404.91c0,0-0.11,14.8,10.71,18.66c10.82,3.87,17.45-7.84,17.89-13.8c0,0-5.08,11.37-15.9,9.61
		S354.35,404.91,354.35,404.91z"/>
	<path class="st11" d="M374.66,424.34c5.48-0.91,10.64-2.52,14.13-7.62c0,0-4.31-7.95-0.22-18.77c4.09-10.82,14.36-26.28,29.6-44.83
		c0,0,6.4-6.07-0.11-11.37c0,0,2.76,4.2-1.88,8.94c-4.64,4.75-15.79,11.04-35.23,45.83c0,0,6.4,10.27,0.99,20.54
		C377.82,424.9,374.66,424.34,374.66,424.34z"/>
	<path class="st12" d="M346.47,368.36c0,0-0.29-6.04-11.19-2.36c0,0,4.86-16.2-10.31-28.86l-9.28,1.47c0,0,14.87,30.77,17.52,36.07
		c2.65,5.3,9.87,29.6,9.87,29.6l11.78,11.04c0,0-2.94-6.04-1.77-12.52l-7.23-8.11c-4.29-4.82-6.66-11.12-6.27-17.56
		C339.87,372.56,341.5,368.42,346.47,368.36z"/>
	<path class="st13" d="M358.18,396.29c-2.52,3.04-3.13,7.28-1.44,10.85c1.49,3.16,4.34,6.65,9.75,7.82
		c5.35,1.16,9.18-1.12,11.68-3.7c3.06-3.15,3.96-7.76,2.18-11.78c-1.41-3.18-4.14-6.63-9.44-7.93
		C364.93,390.08,360.74,393.2,358.18,396.29z"/>
	<path class="st13" d="M343.97,368.36l20.21,20.21c0,0-4.64,1.1-8.28,5.08L338,371.01C338,371.01,340.1,368.91,343.97,368.36z"/>
	<path class="st13" d="M369.03,386.91c0,0,15.35-25.18,40.31-44.39c0,0,2.32-2.65,6.52-0.99s-1.1,6.96-1.1,6.96
		s-22.75,15.9-35.23,43.4C375.99,386.8,369.03,386.91,369.03,386.91z"/>
	<polygon class="st14" points="342.2,368.58 362.08,389.34 359.54,390.77 339.55,369.79 	"/>
	<path class="st14" d="M374.66,383.6c0,0,17.23-27.39,38.1-40.42c0,0,2.43-0.66,1.77,1.55c0,0-20.87,13.36-36.11,37.44L374.66,383.6
		z"/>
	<ellipse class="st14" cx="367.71" cy="398.34" rx="4.86" ry="4.2"/>
	<path class="st12" d="M363.4,390.59c0,0-11.34,4.42-10.75,17.82s10.45,16.93,15.83,17.23c5.37,0.29,10.82-1.33,14.94-11.63
		c0,0-11.93,9.28-20.91-1.03C353.54,402.66,363.4,390.59,363.4,390.59z"/>
	<g>
		<path d="M322.39,378.15c8.4,16.35,20.04,34.95,36.86,43.44c4.8,3.45,11.58,4.94,17.06,2.15c0,0,0.3-0.14,0.3-0.14l0.34-0.01
			c5.31-0.19,11.54-2.05,14.04-7.17c0,0,0.16,1.31,0.16,1.31c-6.11-10.59,1.85-26.2,7.88-35.31c-4.38,8.46-11.94,25.73-5.47,34.33
			c-1.28,3.37-4.06,6.04-7.28,7.54c-2.97,1.39-6.03,2.09-9.33,2.21c0,0,0.64-0.15,0.64-0.15c-1.57,0.77-3.27,1.34-5.02,1.61
			c-4.88,1.05-11.76-1.39-14.59-3.73C340.72,415.46,329.04,395.73,322.39,378.15L322.39,378.15z"/>
	</g>
	<g>
		<path d="M354.34,415.4c-5.1-9.39-0.91-23.47,10.2-25.97c3.53-0.76,7.21-0.07,10.2,1.6c-3.29-0.89-6.73-1.03-9.82-0.09
			c-3.87,1.15-6.95,4.12-8.89,7.61C353.16,403.65,352.99,409.71,354.34,415.4L354.34,415.4z"/>
	</g>
	<g>
		<path d="M405.81,343.47c-4.56,4.17-8.53,8.82-12.68,13.33c-9.54,9.46-17.89,20.08-25.54,31.1c0,0-1.04,1.47-1.04,1.47
			s-1.26-1.25-1.26-1.25l-19.36-19.29c0,0-0.78-0.78-0.78-0.78s0.52-1.01,0.52-1.01c3.4-7.02,3.26-15.69-0.14-22.68
			c-3.94-6.97-10.06-12.74-17.61-15.76c16.45,3,25.96,17.25,22.55,33.62c-0.5,2.21-1.12,4.2-2.17,6.27c0,0-0.26-1.79-0.26-1.79
			l19.36,19.29c0,0-2.3,0.22-2.3,0.22c5.63-8.15,11.66-16.01,18.23-23.42c2.39-2.67,5.1-5.56,7.61-8.15
			C395.49,350.44,400.54,346.69,405.81,343.47L405.81,343.47z"/>
	</g>
	<path d="M346.47,368.36c0,0,1.1-2.87-3.31-4.2c-4.42-1.33-12.88,3.31-12.88,3.31l0.15,2.13
		C330.42,369.61,342.12,361.44,346.47,368.36z"/>
	<path class="st15" d="M372.68,336.18c0,0,5.67-46.38,48.74-39.53c0,0-20.25-6.48-34.9,7.95
		C372.01,319.77,372.68,336.18,372.68,336.18z"/>
	<path class="st15" d="M380.48,336.06c0,0,4.55-37.27,39.16-31.77c0,0-16.27-5.21-28.04,6.39
		C379.95,322.87,380.48,336.06,380.48,336.06z"/>
	<path class="st15" d="M390.42,332.79c0,0,2.88-23.54,24.74-20.07c0,0-10.28-3.29-17.71,4.04
		C390.08,324.46,390.42,332.79,390.42,332.79z"/>
	<path class="st15" d="M458.44,359.03c0,0-5.67,46.38-48.74,39.53c0,0,20.25,6.48,34.9-7.95
		C459.1,375.45,458.44,359.03,458.44,359.03z"/>
	<path class="st15" d="M449.45,358.93c0,0-4.43,36.27-38.11,30.91c0,0,15.83,5.07,27.29-6.22
		C449.96,371.77,449.45,358.93,449.45,358.93z"/>
	<path class="st15" d="M440.49,358.79c0,0-2.97,24.27-25.5,20.69c0,0,10.59,3.39,18.26-4.16
		C440.84,367.38,440.49,358.79,440.49,358.79z"/>
</g>
<g id="tail">
</g>
<g id="body">
	<g>
		<path class="st16" d="M271.96,323.04c0,0,44.99,0.34,63.6,60.2c18.61,59.86-26.94,87.8-68.6,87.8c-24.15,0-65.05,4.13-90.33-13.67
			c-18.72-13.17-24.28-42.32-15.67-64C185.75,331.01,221.57,323.04,271.96,323.04z"/>
		<g>
			<g>
				<path class="st17" d="M271.96,323.04c2.1,0.61,3.77,1.28,5.54,1.87c1.77,0.61,3.62,1.2,5.99,1.92c0.65,0.19,1.6,0.51,2.78,0.92
					c0.59,0.2,1.23,0.46,1.91,0.72l0.62,0.24l1.19,0.51c0.8,0.33,1.59,0.69,2.38,1.08c0.8,0.37,1.59,0.77,2.37,1.19
					c0.79,0.41,1.58,0.84,2.35,1.31c3.12,1.82,6.18,3.95,9.11,6.37c5.84,4.88,11.15,10.93,15.59,17.85
					c4.42,6.93,8.1,14.64,10.87,22.81c2.79,8.15,4.89,16.69,5.37,25.37c0.28,4.33,0.06,8.67-0.48,12.95
					c-0.6,4.27-1.72,8.43-3.24,12.41c-3.04,7.98-8.22,14.9-14.32,20.42c-6.2,5.44-13.29,9.55-20.53,12.37
					c-3.61,1.46-7.27,2.56-10.88,3.44c-3.61,0.92-7.21,1.49-10.7,1.94c-3.5,0.41-6.92,0.62-10.22,0.65
					c-3.35,0.03-6.62,0.07-9.71,0.14c-12.39,0.33-22.52,0.4-29.55,0.07c-3.52-0.16-6.26-0.35-8.12-0.51
					c-1.86-0.15-2.84-0.27-2.84-0.27s-0.99-0.08-2.83-0.32c-1.85-0.21-4.57-0.59-8-1.22c-3.43-0.64-7.6-1.56-12.24-3.08
					c-4.64-1.51-9.76-3.65-14.84-6.87c-0.63-0.42-1.26-0.84-1.9-1.26c-0.59-0.47-1.2-0.94-1.8-1.42c-0.59-0.5-1.25-0.92-1.8-1.49
					c-0.56-0.55-1.13-1.11-1.71-1.68l-0.87-0.85l-0.78-0.95c-0.52-0.63-1.05-1.27-1.59-1.91c-0.53-0.64-0.96-1.38-1.45-2.07
					c-0.46-0.72-1-1.39-1.41-2.16c-0.81-1.53-1.77-3.02-2.43-4.69c-0.36-0.82-0.73-1.64-1.1-2.47c-0.3-0.86-0.61-1.72-0.91-2.59
					l-0.46-1.31c-0.13-0.44-0.24-0.9-0.37-1.35c-0.24-0.9-0.48-1.81-0.73-2.72c-0.21-0.92-0.36-1.86-0.55-2.8
					c-0.18-0.94-0.37-1.88-0.45-2.84c-0.11-0.96-0.22-1.92-0.33-2.89c-0.09-0.97-0.09-1.95-0.15-2.94
					c-0.15-1.97,0.02-3.96,0.05-5.96c0.07-1,0.2-2,0.3-3l0.15-1.51l0.27-1.5c0.19-1,0.34-2.01,0.56-3.01
					c0.26-0.99,0.52-1.98,0.78-2.97c0.22-1.01,0.61-1.96,0.94-2.94c0.35-0.97,0.64-1.95,1.08-2.93c0.83-1.96,1.6-3.96,2.49-5.91
					c0.9-1.95,1.73-3.94,2.71-5.87c0.48-0.97,0.95-1.94,1.43-2.92c0.48-0.97,1.01-1.92,1.52-2.88c2.01-3.85,4.3-7.57,6.69-11.23
					c2.45-3.61,5.09-7.1,7.95-10.39c2.9-3.25,5.99-6.32,9.31-9.1c3.33-2.76,6.88-5.21,10.58-7.35c7.39-4.32,15.46-7.11,23.47-9
					c4.02-0.91,8.04-1.6,12.02-2.13c1.99-0.22,3.96-0.49,5.93-0.65c0.98-0.09,1.96-0.17,2.93-0.26c0.82-0.06,1.63-0.11,2.43-0.17
					c3.33-0.22,6.08-0.33,7.45-0.38C264.84,324.7,267.71,324.13,271.96,323.04c-4.26-1.03-7.17-1.61-12.3-1.46
					c-1.39,0.03-4.17,0.14-7.55,0.36c-0.82,0.06-1.64,0.11-2.47,0.17c-0.99,0.09-1.98,0.17-2.98,0.26c-2,0.16-4.01,0.43-6.05,0.66
					c-4.06,0.54-8.19,1.25-12.34,2.19c-8.26,1.95-16.66,4.85-24.38,9.36c-3.86,2.23-7.58,4.79-11.05,7.68
					c-3.45,2.9-6.68,6.09-9.68,9.46c-2.96,3.41-5.69,7.01-8.21,10.73c-2.46,3.75-4.81,7.58-6.86,11.51
					c-0.52,0.98-1.06,1.95-1.55,2.94c-0.49,0.99-0.97,1.99-1.46,2.97c-1,1.97-1.85,3.99-2.76,5.98c-0.91,1.99-1.69,4.02-2.53,6.01
					c-0.44,0.98-0.76,2.05-1.14,3.08c-0.35,1.04-0.76,2.06-1,3.13c-0.28,1.06-0.55,2.11-0.82,3.16c-0.22,1.06-0.39,2.13-0.59,3.18
					l-0.28,1.58l-0.17,1.59c-0.1,1.06-0.23,2.12-0.31,3.17c-0.04,2.11-0.21,4.21-0.05,6.29c0.05,1.04,0.06,2.07,0.16,3.1
					c0.12,1.02,0.23,2.04,0.35,3.05c0.09,1.02,0.29,2.01,0.48,3c0.2,0.99,0.36,1.98,0.58,2.95c0.26,0.96,0.52,1.92,0.77,2.88
					c0.13,0.48,0.25,0.95,0.39,1.42l0.49,1.39c0.33,0.92,0.65,1.84,0.97,2.74c0.39,0.88,0.78,1.76,1.17,2.63
					c0.71,1.77,1.73,3.37,2.6,5c3.75,6.42,9,11.42,14.37,14.88c5.39,3.42,10.77,5.66,15.6,7.23c4.83,1.58,9.13,2.53,12.66,3.18
					c3.54,0.64,6.32,1.03,8.21,1.25c1.89,0.24,2.9,0.32,2.9,0.32s1,0.12,2.9,0.27c1.9,0.16,4.69,0.36,8.26,0.52
					c7.14,0.34,17.4,0.27,29.77-0.06c3.1-0.07,6.3-0.11,9.66-0.14c3.42-0.03,6.96-0.24,10.58-0.67c3.62-0.47,7.35-1.05,11.09-2.01
					c3.75-0.92,7.56-2.06,11.32-3.58c7.55-2.93,14.98-7.23,21.53-12.98c6.45-5.83,11.97-13.2,15.2-21.69
					c1.63-4.22,2.81-8.65,3.44-13.16c0.57-4.51,0.79-9.08,0.5-13.61c-0.51-9.07-2.69-17.91-5.55-26.27
					c-2.84-8.38-6.63-16.33-11.22-23.52c-4.61-7.18-10.15-13.49-16.27-18.61c-3.08-2.53-6.28-4.77-9.56-6.68
					c-0.81-0.49-1.64-0.95-2.47-1.38c-0.82-0.45-1.65-0.87-2.49-1.26c-0.83-0.41-1.66-0.79-2.5-1.14c-0.42-0.18-0.83-0.36-1.25-0.53
					l-0.65-0.25c-0.72-0.27-1.39-0.55-2.02-0.76c-1.25-0.43-2.26-0.76-2.94-0.95c-2.51-0.74-4.55-1.06-6.51-1.14
					C275.99,322.46,274.12,322.59,271.96,323.04z"/>
			</g>
		</g>
	</g>
	<path class="st18" d="M175.96,366.37c10.33-17.33,32.33-19.33,47.67-13l-25.33-13.67C198.29,339.71,182.29,350.04,175.96,366.37z"
		/>
	<path class="st18" d="M160.96,393.37c0,0-15,40.33,14.67,62.67c0,0,14,15.67,63,15.67l34.33-1c0,0,42-1,60-32.67
		c0,0-14.67,20-93.67,20S159.96,409.71,160.96,393.37z"/>
	<g>
		<g>
			<g>
				<path class="st17" d="M271.96,323.04c2.1,0.61,3.77,1.28,5.54,1.87c1.77,0.61,3.62,1.2,5.99,1.92c0.65,0.19,1.6,0.51,2.78,0.92
					c0.59,0.2,1.23,0.46,1.91,0.72l0.62,0.24l1.19,0.51c0.8,0.33,1.59,0.69,2.38,1.08c0.8,0.37,1.59,0.77,2.37,1.19
					c0.79,0.41,1.58,0.84,2.35,1.31c3.12,1.82,6.18,3.95,9.11,6.37c5.84,4.88,11.15,10.93,15.59,17.85
					c4.42,6.93,8.1,14.64,10.87,22.81c2.79,8.15,4.89,16.69,5.37,25.37c0.28,4.33,0.06,8.67-0.48,12.95
					c-0.6,4.27-1.72,8.43-3.24,12.41c-3.04,7.98-8.22,14.9-14.32,20.42c-6.2,5.44-13.29,9.55-20.53,12.37
					c-3.61,1.46-7.27,2.56-10.88,3.44c-3.61,0.92-7.21,1.49-10.7,1.94c-3.5,0.41-6.92,0.62-10.22,0.65
					c-3.35,0.03-6.62,0.07-9.71,0.14c-12.39,0.33-22.52,0.4-29.55,0.07c-3.52-0.16-6.26-0.35-8.12-0.51
					c-1.86-0.15-2.84-0.27-2.84-0.27s-0.99-0.08-2.83-0.32c-1.85-0.21-4.57-0.59-8-1.22c-3.43-0.64-7.6-1.56-12.24-3.08
					c-4.64-1.51-9.76-3.65-14.84-6.87c-0.63-0.42-1.26-0.84-1.9-1.26c-0.59-0.47-1.2-0.94-1.8-1.42c-0.59-0.5-1.25-0.92-1.8-1.49
					c-0.56-0.55-1.13-1.11-1.71-1.68l-0.87-0.85l-0.78-0.95c-0.52-0.63-1.05-1.27-1.59-1.91c-0.53-0.64-0.96-1.38-1.45-2.07
					c-0.46-0.72-1-1.39-1.41-2.16c-0.81-1.53-1.77-3.02-2.43-4.69c-0.36-0.82-0.73-1.64-1.1-2.47c-0.3-0.86-0.61-1.72-0.91-2.59
					l-0.46-1.31c-0.13-0.44-0.24-0.9-0.37-1.35c-0.24-0.9-0.48-1.81-0.73-2.72c-0.21-0.92-0.36-1.86-0.55-2.8
					c-0.18-0.94-0.37-1.88-0.45-2.84c-0.11-0.96-0.22-1.92-0.33-2.89c-0.09-0.97-0.09-1.95-0.15-2.94
					c-0.15-1.97,0.02-3.96,0.05-5.96c0.07-1,0.2-2,0.3-3l0.15-1.51l0.27-1.5c0.19-1,0.34-2.01,0.56-3.01
					c0.26-0.99,0.52-1.98,0.78-2.97c0.22-1.01,0.61-1.96,0.94-2.94c0.35-0.97,0.64-1.95,1.08-2.93c0.83-1.96,1.6-3.96,2.49-5.91
					c0.9-1.95,1.73-3.94,2.71-5.87c0.48-0.97,0.95-1.94,1.43-2.92c0.48-0.97,1.01-1.92,1.52-2.88c2.01-3.85,4.3-7.57,6.69-11.23
					c2.45-3.61,5.09-7.1,7.95-10.39c2.9-3.25,5.99-6.32,9.31-9.1c3.33-2.76,6.88-5.21,10.58-7.35c7.39-4.32,15.46-7.11,23.47-9
					c4.02-0.91,8.04-1.6,12.02-2.13c1.99-0.22,3.96-0.49,5.93-0.65c0.98-0.09,1.96-0.17,2.93-0.26c0.82-0.06,1.63-0.11,2.43-0.17
					c3.33-0.22,6.08-0.33,7.45-0.38C264.84,324.7,267.71,324.13,271.96,323.04c-4.26-1.03-7.17-1.61-12.3-1.46
					c-1.39,0.03-4.17,0.14-7.55,0.36c-0.82,0.06-1.64,0.11-2.47,0.17c-0.99,0.09-1.98,0.17-2.98,0.26c-2,0.16-4.01,0.43-6.05,0.66
					c-4.06,0.54-8.19,1.25-12.34,2.19c-8.26,1.95-16.66,4.85-24.38,9.36c-3.86,2.23-7.58,4.79-11.05,7.68
					c-3.45,2.9-6.68,6.09-9.68,9.46c-2.96,3.41-5.69,7.01-8.21,10.73c-2.46,3.75-4.81,7.58-6.86,11.51
					c-0.52,0.98-1.06,1.95-1.55,2.94c-0.49,0.99-0.97,1.99-1.46,2.97c-1,1.97-1.85,3.99-2.76,5.98c-0.91,1.99-1.69,4.02-2.53,6.01
					c-0.44,0.98-0.76,2.05-1.14,3.08c-0.35,1.04-0.76,2.06-1,3.13c-0.28,1.06-0.55,2.11-0.82,3.16c-0.22,1.06-0.39,2.13-0.59,3.18
					l-0.28,1.58l-0.17,1.59c-0.1,1.06-0.23,2.12-0.31,3.17c-0.04,2.11-0.21,4.21-0.05,6.29c0.05,1.04,0.06,2.07,0.16,3.1
					c0.12,1.02,0.23,2.04,0.35,3.05c0.09,1.02,0.29,2.01,0.48,3c0.2,0.99,0.36,1.98,0.58,2.95c0.26,0.96,0.52,1.92,0.77,2.88
					c0.13,0.48,0.25,0.95,0.39,1.42l0.49,1.39c0.33,0.92,0.65,1.84,0.97,2.74c0.39,0.88,0.78,1.76,1.17,2.63
					c0.71,1.77,1.73,3.37,2.6,5c3.75,6.42,9,11.42,14.37,14.88c5.39,3.42,10.77,5.66,15.6,7.23c4.83,1.58,9.13,2.53,12.66,3.18
					c3.54,0.64,6.32,1.03,8.21,1.25c1.89,0.24,2.9,0.32,2.9,0.32s1,0.12,2.9,0.27c1.9,0.16,4.69,0.36,8.26,0.52
					c7.14,0.34,17.4,0.27,29.77-0.06c3.1-0.07,6.3-0.11,9.66-0.14c3.42-0.03,6.96-0.24,10.58-0.67c3.62-0.47,7.35-1.05,11.09-2.01
					c3.75-0.92,7.56-2.06,11.32-3.58c7.55-2.93,14.98-7.23,21.53-12.98c6.45-5.83,11.97-13.2,15.2-21.69
					c1.63-4.22,2.81-8.65,3.44-13.16c0.57-4.51,0.79-9.08,0.5-13.61c-0.51-9.07-2.69-17.91-5.55-26.27
					c-2.84-8.38-6.63-16.33-11.22-23.52c-4.61-7.18-10.15-13.49-16.27-18.61c-3.08-2.53-6.28-4.77-9.56-6.68
					c-0.81-0.49-1.64-0.95-2.47-1.38c-0.82-0.45-1.65-0.87-2.49-1.26c-0.83-0.41-1.66-0.79-2.5-1.14c-0.42-0.18-0.83-0.36-1.25-0.53
					l-0.65-0.25c-0.72-0.27-1.39-0.55-2.02-0.76c-1.25-0.43-2.26-0.76-2.94-0.95c-2.51-0.74-4.55-1.06-6.51-1.14
					C275.99,322.46,274.12,322.59,271.96,323.04z"/>
			</g>
		</g>
	</g>
</g>
<g id="head">
	<path class="st16" d="M336.29,256.19c0,52.92-64.45,99.85-96.33,99.85s-96.33-46.93-96.33-99.85s43.13-95.82,96.33-95.82
		S336.29,203.27,336.29,256.19z"/>
	<path class="st18" d="M217.63,350.37c0,0-49-32.67-60-66c-9.67-30.33-9.67-54.67,11.33-92.33c0,0-32,32.67-22.33,80
		C156.29,319.37,208.29,347.71,217.63,350.37z"/>
	<g>
		<g>
			<g>
				<path class="st17" d="M229,354.55c-0.96-0.54-1.84-1.03-2.69-1.47c-0.84-0.46-1.65-0.93-2.49-1.34c-0.85-0.4-1.7-0.86-2.64-1.29
					c-0.95-0.42-1.97-0.87-3.12-1.38c-0.62-0.28-1.57-0.64-2.71-1.19c-0.57-0.27-1.2-0.56-1.87-0.88l-0.61-0.28l-1.17-0.59
					c-0.78-0.4-1.57-0.8-2.36-1.2c-1.55-0.88-3.16-1.7-4.72-2.66c-3.18-1.83-6.31-3.94-9.49-6.13
					c-12.56-8.93-25.03-20.67-34.71-35.01c-2.38-3.6-4.6-7.34-6.57-11.23c-1.91-3.91-3.64-7.93-4.99-12.07
					c-1.31-4.16-2.35-8.4-2.95-12.7c-0.55-4.31-0.73-8.61-0.53-12.95c0.72-17.33,6.38-33.9,15-46.96
					c4.23-6.59,9.16-12.32,14.3-17.18c5.14-4.87,10.49-8.87,15.69-12.05c5.21-3.19,10.26-5.57,14.82-7.37
					c2.27-0.95,4.46-1.61,6.46-2.3c2.04-0.57,3.89-1.15,5.59-1.54c1.71-0.37,3.21-0.79,4.55-1c1.33-0.24,2.46-0.44,3.38-0.6
					c1.84-0.27,2.82-0.37,2.82-0.37s0.24-0.03,0.72-0.09c0.48-0.05,1.18-0.18,2.1-0.24c0.93-0.07,2.07-0.16,3.42-0.26
					c1.35-0.12,2.91-0.1,4.65-0.16c1.75-0.06,3.69,0.06,5.8,0.09c1.05,0.08,2.15,0.16,3.3,0.24c0.57,0.04,1.15,0.09,1.74,0.14
					c0.59,0.07,1.19,0.15,1.8,0.23c4.87,0.58,10.36,1.61,16.2,3.4c11.67,3.49,24.78,10.21,36.35,20.79
					c11.56,10.53,21.31,25.07,26.39,41.66c1.25,4.15,2.25,8.39,2.95,12.7c0.63,4.32,1.12,8.68,1.14,13.05l0.04,1.64
					c0,0.54-0.04,1.08-0.06,1.63l-0.14,3.25c0,1.09-0.22,2.15-0.34,3.23l-0.41,3.22l-0.67,3.17c-0.25,1.05-0.39,2.13-0.73,3.15
					l-0.91,3.1l-0.45,1.55l-0.56,1.51c-2.89,8.09-6.97,15.62-11.66,22.44c-2.33,3.42-4.85,6.65-7.44,9.71l-0.96,1.16l-1,1.11
					c-0.67,0.74-1.33,1.47-2,2.2c-0.65,0.74-1.32,1.45-2.02,2.14c-0.57,0.58-1.15,1.16-1.71,1.73c-1.15,1.2-2.26,2.23-3.19,3.09
					c-0.93,0.87-1.67,1.57-2.17,2.03c-1.88,1.68-3.3,3.06-4.54,4.5c-1.29,1.38-2.43,2.8-3.78,4.54c1.99-0.9,3.66-1.7,5.33-2.67
					c1.62-1.03,3.27-2.21,5.21-3.91c0.51-0.47,1.28-1.19,2.23-2.07c0.96-0.88,2.09-1.93,3.28-3.16c0.58-0.59,1.17-1.18,1.75-1.77
					c0.71-0.7,1.4-1.43,2.07-2.19c0.68-0.75,1.36-1.5,2.05-2.25l1.03-1.14l0.98-1.19c2.66-3.15,5.24-6.46,7.64-9.98
					c4.82-7.02,9.05-14.79,12.05-23.22l0.58-1.57l0.48-1.61l0.95-3.24c0.36-1.07,0.51-2.2,0.77-3.3l0.7-3.32l0.44-3.38
					c0.12-1.13,0.35-2.25,0.35-3.39l0.15-3.42c0.02-0.57,0.06-1.14,0.06-1.71l-0.04-1.7c-0.02-4.53-0.53-9.05-1.18-13.52
					c-0.73-4.46-1.76-8.86-3.05-13.16c-5.27-17.19-15.37-32.23-27.33-43.13c-11.98-10.96-25.55-17.9-37.64-21.52
					c-6.04-1.86-11.73-2.92-16.77-3.52c-0.63-0.08-1.25-0.16-1.86-0.23c-0.61-0.05-1.21-0.1-1.8-0.14
					c-1.18-0.09-2.32-0.17-3.41-0.25c-2.19-0.03-4.19-0.16-6-0.1c-1.81,0.06-3.42,0.04-4.81,0.17c-1.4,0.11-2.58,0.2-3.54,0.27
					c-0.96,0.06-1.69,0.2-2.18,0.25c-0.49,0.06-0.74,0.09-0.74,0.09s-1.01,0.11-2.92,0.39c-0.95,0.17-2.12,0.38-3.49,0.62
					c-1.38,0.22-2.94,0.65-4.71,1.03c-1.76,0.4-3.68,1-5.79,1.59c-2.07,0.71-4.34,1.4-6.69,2.38c-4.73,1.85-9.96,4.32-15.35,7.62
					c-5.39,3.3-10.93,7.43-16.25,12.47c-5.32,5.03-10.42,10.96-14.81,17.78c-8.92,13.51-14.79,30.69-15.54,48.63
					c-0.21,4.46-0.03,9.04,0.55,13.55c0.63,4.51,1.71,8.94,3.08,13.28c1.41,4.32,3.2,8.49,5.18,12.54
					c2.04,4.02,4.33,7.88,6.78,11.59c9.97,14.76,22.7,26.74,35.55,35.88c3.25,2.24,6.46,4.4,9.73,6.28c1.6,0.99,3.26,1.83,4.85,2.73
					c0.82,0.42,1.62,0.83,2.43,1.24l1.2,0.61l0.62,0.29c0.69,0.32,1.34,0.62,1.93,0.9c1.17,0.57,2.16,0.94,2.81,1.22
					C221.58,354.08,224.62,354.5,229,354.55z"/>
			</g>
		</g>
	</g>
</g>
<g id="accessory">
	<path class="st19" d="M346.47,420.92l-16.05,29.01l-31.51,23.71l-71.56,2.06l-48.59-13.84l-31.07-35.34l32.98-79.51l11.63-8.69
		c0,0,21.5,19.44,71.71,20.32c34.34-0.22,34.45-29.37,34.45-29.37s2.43-2.1,2.43-2.1l18.18,12.77
		C319.08,339.94,342.06,397.62,346.47,420.92z"/>
	<polygon class="st20" points="227.13,476.36 215.35,446.17 255.4,447.5 266.3,436.6 276.75,446.17 309,442.79 298.69,474.3 	"/>
	<path class="st20" d="M266.81,427.25l-13.69,14.43l-49.47-1.03l-18.11-11.48l15.31-23.85c0,0,17.23,15.02,51.39,15.02l14.72-13.99
		l14.43,12.66c0,0,35.48-4.56,41.37-19.88l7.51,23.12c0,0-5.3,18.4-51.09,18.85L266.81,427.25z"/>
	<path class="st20" d="M201.14,354.22c0,0,9.28,40.05,64.79,39.17c34.31,0.59,44.17-14.43,47.12-31.95
		c2.94-17.52-12.04-32.83-12.04-32.83s6.44,33.28-33.61,35.63c-40.05,2.36-64.49-19.29-64.49-19.29L201.14,354.22z"/>
	<path class="st20" d="M198.35,360.11c0,0,12.22,37.69,68.32,36.81s50.36-39.9,50.36-39.9s10.9,15.9,5.15,33.72
		c-5.74,17.82-29.6,21.2-38.87,23.41l-16.34-12.81l-16.64,15.02c0,0-31.21-1.03-48-15.31C185.54,386.76,198.35,360.11,198.35,360.11
		z"/>
	<path class="st21" d="M225.14,473.93l-13.25-28.12l-10.01-1.91l-21.94-14.13l14.43-26.36c0,0-11.78-12.07,1.03-44.17l5.74-5.01
		l1.77-9.28l-10.6-6.63l-11.63,8.69l3.24,2.21l-32.69,76.27l29.01,34.6l45.35,13.1"/>
	<polygon class="st21" points="266.81,427.25 266.52,435.94 276.97,445.51 279.18,441.09 	"/>
	<polygon class="st21" points="281.39,419.01 283.3,414.15 266.96,401.34 266.96,406.34 	"/>
	<path class="st22" d="M207.62,368.95c0,0,12.81,17.23,37.55,22.67l-6.63,1.62c0,0-17.52-2.94-30.18-17.82L207.62,368.95z"/>
	<polygon class="st22" points="252.24,420.33 250.32,416.36 233.39,414.44 230.15,418.27 	"/>
	<path class="st23" d="M243.36,394.86l-10.49,14.8c0,0,6.29,4.09,7.07,9.94l-9.61,15.02c0,0,9.06,3.64,9.61,11.48
		c-3.98,7.18-10.98,13.52-20.65,16.12c0,0-10.16,2.54-19.66-5.41c-9.5-7.95-45.5-37.44-45.5-37.44l0.88-9.72
		c0,0,60.4,1.1,60.74,0.88c0.33-0.22,19.44-22.53,19.55-22.09C235.41,388.9,239.28,389.67,243.36,394.86z"/>
	<polygon class="st22" points="255.62,446.84 253.12,441.68 235.3,441.39 230.44,445.66 	"/>
	<path class="st24" d="M154.58,409.55L205.6,450c9.7,7.69,23.69,6.56,32.03-2.58l1.2-1.32c0,0,0-8.61-13.47-11.15
		c-13.47-2.54-15.35-7.4-15.35-7.4l-49.25-32.69C160.76,394.86,152.59,398.84,154.58,409.55z"/>
	<path class="st25" d="M223.6,409.1c0,0,11.15-0.88,14.13,10.16l-9.09,13.84c-4.14,6.3-12.34,7.6-18.22,2.89l-48.9-39.1
		c0,0-4.51-1.71-2.19-8.33s7.62-6.63,7.62-6.63l46.82,37.39c1.34,1.07,3.33,0.71,4.21-0.77L223.6,409.1z"/>
	<path class="st26" d="M171.47,368.58l40.36,33.95c1.46,1.23,3.66,0.96,4.77-0.59l9.97-13.7c3.75-3.2,13.14,1.21,15.02,5.74
		l-15.56,21.48c-3.37,5.52-12.25,6.68-18.2,1.76l-43.1-35.71c0,0-2.43-4.09-0.11-8.5S171.47,368.58,171.47,368.58z"/>
	<path class="st25" d="M157.45,404.47l52.9,41.08c0,0,13.8,9.17,26.06-2.21c0,0-1.21-3.64-5.96-4.97c0,0-8.28,7.84-17.34,2.32
		l-53.89-40.64C159.22,400.05,157.34,401.82,157.45,404.47z"/>
	<path class="st26" d="M161.43,389.56L213,430.42c0,0,7.62,5.3,13.25-1.77l8.06-11.6c0,0-0.44-2.98-3.31-4.09l-7.95,12.48
		c0,0-2.87,4.09-8.06-0.22l-52.12-39.42C162.86,385.8,161.2,388.01,161.43,389.56z"/>
	<path class="st27" d="M167.28,374.1l46.07,38.66c2.55,2.14,6.39,1.67,8.34-1.03l14.94-20.63c0,0-1.21-1.88-4.97-2.1l-12.67,18.75
		c-0.73,1.08-2.23,1.29-3.23,0.47l-45.06-37.21C170.7,371.01,167.94,371.56,167.28,374.1z"/>
	<path class="st27" d="M173.57,396.85l41.74,32.13c0,0,6.52,4.09,10.71-1.77l6.96-10.93l-0.99-1.33l-7.4,11.26
		c0,0-2.65,4.75-9.06,0.88l-40.31-31.03L173.57,396.85z"/>
	<path class="st27" d="M177.44,417.72l35.67,26.94c0,0,13.36,6.4,20.87-2.87l-1.99-1.21c0,0-6.63,7.4-17.78,1.88l-34.56-25.4
		L177.44,417.72z"/>
	<polygon class="st28" points="159.55,395.41 206.7,432.96 158.11,396.07 	"/>
	<polygon class="st28" points="165.18,381.5 206.81,416.95 163.74,382.49 	"/>
	<path class="st23" d="M290.18,393.03l8.2,14.3c0,0-4.43,4.21-4.78,10l7.57,14.55c0,0-6.46,3.85-6.57,11.6
		c0.03,0.07,0.06,0.14,0.1,0.21c4.7,10.18,16.83,14.56,27.09,10.04l8.62-3.8l16.09-29.23l-3.87-16.62c0,0-31.57,3.8-31.75,3.65
		c-0.25-0.21-15.01-21.68-15.08-21.24C295.75,386.93,292.96,387.8,290.18,393.03z"/>
	<path class="st24" d="M348.03,410.89c0.12,2.12-0.6,4.2-2,5.79l-26.24,29.69c-6.78,7.86-17.02,7.13-23.44-1.66l-0.93-1.27
		c0,0-0.32-8.5,9.4-11.38c9.72-2.88,10.91-7.73,10.91-7.73l27.16-24.14C342.88,400.2,347.57,403.04,348.03,410.89z"/>
	<path class="st25" d="M305.12,406.53c0,0-8.16-0.56-9.92,10.41l7.15,13.4c3.25,6.1,9.28,7.15,13.39,2.35l26.57-31.32
		c0,0,3.22-1.81,1.28-8.28c-1.94-6.47-5.8-6.32-5.8-6.32l-25.12,29.57c-0.94,1.1-2.4,0.8-3.09-0.64L305.12,406.53z"/>
	<path class="st26" d="M332.46,375.34l-19.02,24.37c-1.02,1.25-2.63,1.05-3.5-0.45l-7.78-13.24c-2.86-3.05-9.53,1.56-10.73,6.08
		l12.15,20.75c2.67,5.35,9.18,6.25,13.33,1.22l20.94-26.19c0,0,1.62-4.1-0.24-8.39C335.76,375.22,332.46,375.34,332.46,375.34z"/>
	<path class="st25" d="M345.12,409.16l-28.97,32.95c0,0-9.71,9.43-19.08-1.45c0,0,0.75-3.63,4.16-5.07c0,0,6.33,7.5,12.72,1.8
		l29.71-32.54C343.67,404.85,345.11,406.54,345.12,409.16z"/>
	<path class="st26" d="M341.9,394.16l-28.24,33.1c0,0-5.35,5.44-9.72-1.37l-6.31-11.21c0,0,0.21-2.95,2.26-4.12l6.27,12.09
		c0,0,2.25,3.95,5.87-0.44l28.7-31.7C340.71,390.5,342,392.63,341.9,394.16z"/>
	<path class="st27" d="M336.57,379.79l-23.84,30.07c-1.78,2.18-4.59,1.82-6.12-0.78l-11.66-19.93c0,0,0.81-1.89,3.54-2.21
		l9.94,18.14c0.57,1.04,1.67,1.21,2.37,0.37l23.16-28.61C333.96,376.83,335.99,377.3,336.57,379.79z"/>
	<path class="st27" d="M341.12,393.05l-29.21,32.86c0,0-4.59,4.21-7.87-1.44l-5.48-10.59l0.67-1.33l5.82,10.9
		c0,0,2.11,4.61,6.63,0.62l28.2-31.73L341.12,393.05z"/>
	<path class="st27" d="M339.09,413.74l-24.98,27.57c0,0-9.5,6.69-15.32-2.25l1.4-1.25c0,0,5.11,7.11,13.03,1.36l24.23-26.02
		L339.09,413.74z"/>
	<polygon class="st28" points="343.12,400.43 318.33,429.59 344.08,401.37 	"/>
	<path class="st28" d="M338.39,386.69l-20.74,27.11l21.23-25.02C339.46,388.1,339.21,387.05,338.39,386.69L338.39,386.69z"/>
	<path class="st28" d="M199.16,343.91c0,0,0.15,24.44,26.5,39.98c0,0-18.11-5.3-27.46-28.71l-6.11,4.34l-8.98-4.12l-8.54,15.9
		l9.53-30.22c0.81-2.58,3.82-3.74,6.16-2.37L199.16,343.91z"/>
	<path class="st8" d="M261.22,367.77l-2.65,22.53c0,0,44.91,3.83,52.12-26.8l-8.83-11.48C301.86,352.01,302,369.24,261.22,367.77z"
		/>
	<path class="st8" d="M257.68,398.54l-1.62,10.16l11.48-9.87l16.34,13.25l9.72-1.77l2.21-2.94l-6.92-11.34
		C288.9,396.04,269.32,399.57,257.68,398.54z"/>
	<path class="st8" d="M251.79,439.77c0.29-0.44,1.47-18.11,1.47-18.11l13.69-13.1l14.58,13.25l10.6-2.21l6.18,11.34l-4.86,7.21
		l-12.96,1.03l-13.69-15.17L251.79,439.77z"/>
	<path class="st8" d="M305.54,387.94c0,0,17.08-9.87,10.75-34.45l4.27-0.59l8.69,22.53l-17.67,22.53L305.54,387.94z"/>
	<path class="st29" d="M330.42,449.93l-31.51,23.71l-71.56,2.06l-48.59-13.84l-31.66-35.19l6.18-13.84l55.66,44.47
		c0,0,18.85,10.9,31.51-7.21l15.46,0.44l10.75-10.9l10.16,10.16l16.64-2.36c0,0,4.86,9.28,16.79,8.98
		c11.93-0.29,32.83-29.3,32.83-29.3L330.42,449.93z"/>
	<polygon class="st1" points="147.7,426.52 178.76,461.85 203.5,451.1 155.2,410.76 	"/>
	<path class="st30" d="M171.47,368.58l31.44,25.99c0,0-15.31-12.37-4.56-40.2l-14.72-14.58L171.47,368.58z"/>
	<polygon class="st31" points="241.63,453.31 229.71,471.28 296.7,469.36 291.11,450.96 275.5,453.31 266.52,443.15 257.39,453.61 	
		"/>
	<path class="st32" d="M240.16,364.75l-5.89,20.98c0,0-26.94-8.69-33.13-36.96l1.62-4.12C211.99,353.75,225.36,360.21,240.16,364.75
		z"/>
	<path class="st1" d="M198.35,354.37c0,0,6.48,20.76,29.45,30.92l-11.18,16.64c0,0-0.3,3.38-6.63-1.18l-21.5-18.55
		c0,0-5.3-12.96,3.83-33.87L198.35,354.37z"/>
	<path class="st32" d="M292.14,389.71l12.76,21.77c0.96,1.64,2.48,2.93,4.32,3.42c1.47,0.39,3.33,0.38,5.45-0.74l23.56-30.18
		l0.17,2.72l1.6,0.96l-24.74,29.89c0,0-3.53,4.86-7.51,3.53c-3.98-1.33-10.31-12.07-10.31-12.07l-9.13-15.02L292.14,389.71z"/>
	<path class="st32" d="M294.49,412.97l9.72,16.34c0,0,4.86,7.51,11.19,0.44l28.71-34.16c0,0,0.21,2.75-1,4.83l2.76,3.26L315.11,438
		c0,0-9.13,6.92-16.64-3.39l-8.54-17.08L294.49,412.97z"/>
	<path class="st33" d="M269.02,368.95c0,0,16.64,0.59,25.62-5.89l8.98,12.52c0,0-10.16,12.66-32.1,13.4L269.02,368.95z"/>
	<polygon class="st34" points="246.49,397.22 260.48,398.84 259.74,405.17 250.62,414.3 242.08,413.41 	"/>
	<path class="st34" d="M260.48,414.59l-2.36,18.99l-6.33,6.18l-11.93-0.29c0,0,3.83-17.96,4.27-18.11c0.44-0.15,7.95,0.59,8.54,0.44
		C253.27,421.66,260.48,414.59,260.48,414.59z"/>
	<path class="st34" d="M244.58,388.82c0,0,13.55,1.33,18.85,1.33l1.47-22.38c-6.18-0.15-12-0.29-16.56-1.33L244.58,388.82z"/>
	<path class="st35" d="M258.71,455.82l7.95-8.61l7.73,8.83l14.8-2.43l2.87,7.95l-43.29,1.33
		C248.78,462.88,252.09,456.04,258.71,455.82z"/>
	<g>
		<path d="M229.19,354.22c-12.69-3.8-24.97-8.86-37.05-14.29c-2.46-1.41-5.9-0.75-7.46,1.69c-0.69,1.08-1.35,3.11-1.89,4.31
			c-3.14,7.95-6.67,15.87-10.1,23.68c-3.06-0.14-6.22,1.56-7.63,4.3c-1.52,2.97-0.47,6.79,0.95,9.64c-5.82,2.04-7.66,7.32-6.7,13.08
			c-4.79,3.09-5.57,8.84-3.36,13.8c0,0-0.26,0.58-0.26,0.58s-7.21,16.27-7.21,16.27l-0.26-1.61c0,0,31.66,35.19,31.66,35.19
			s-0.71-0.44-0.71-0.44s47.85,13.47,47.85,13.47c-2.22,0.01,71.93-1.15,71.42-1.09c0,0-0.89,0.3-0.89,0.3s32.1-24.37,32.1-24.37
			s-0.41,0.48-0.41,0.48s15.68-29.15,15.68-29.15s-0.1,1.18-0.1,1.18c-0.19-0.56-0.63-1.92-0.81-2.42c1.62-2.5,2.62-5.45,2.12-8.42
			c-0.47-3.02-2.35-5.84-4.68-7.76c0,0,0.37-0.96,0.37-0.96c2.2-5.26,0.93-11.12-4.42-13.59c0.41-2.6,0.52-5.52-0.58-7.74
			c-0.99-2.19-3.26-3.68-5.6-3.89c-1.22-3.2-2.47-6.39-3.61-9.62c-1.98-5.65-7.31-20.78-9.35-26.61c0,0,0.32,0.41,0.32,0.41
			s-19.49-13.93-19.49-13.93l0.38-0.02l-9.33,7.49c0,0,8.93-7.97,8.93-7.97s0.17-0.15,0.17-0.15s0.21,0.13,0.21,0.13l20.11,13.02
			c0,0,0.21,0.14,0.21,0.14c3.9,10.29,10.35,24.99,13.96,35.23c0,0-1.2-0.96-1.2-0.96c6.46,1.2,9.02,7.94,7.97,13.84
			c0,0-0.81-1.54-0.81-1.54c6.04,3.28,7.51,10.83,4.92,16.82c0,0-0.43-1.68-0.43-1.68c2.58,2.38,4.3,5.4,4.9,8.86
			c0.57,3.41-0.39,6.97-2.16,9.85c0,0,0.14-1.25,0.14-1.25s0.59,1.77,0.59,1.77s0.2,0.61,0.2,0.61l-0.31,0.57
			c0,0-15.68,29.15-15.68,29.15s-0.15,0.29-0.15,0.29s-0.26,0.2-0.26,0.2s-32.1,24.37-32.1,24.37s-0.39,0.3-0.39,0.3
			s-0.49,0.01-0.49,0.01c-0.22,0-71.87,1.03-72.07,1.03c-0.22,0.08-47.83-13.57-48.06-13.53c0,0-0.42-0.12-0.42-0.12
			s-0.29-0.32-0.29-0.32s-31.66-35.19-31.66-35.19l-0.65-0.72c0,0,0.39-0.89,0.39-0.89s7.21-16.27,7.21-16.27s0,1.21,0,1.21
			c-2.33-5.56-1.23-12.61,3.85-16.23c0,0-0.57,1.45-0.57,1.45c-0.57-4.38,0.38-9.03,3.53-12.26c1.05-1.08,2.33-1.92,3.66-2.53
			l-0.73,2.02c-3.61-7.67,0.12-16.11,9.01-16.8c0,0-1.38,0.9-1.38,0.9c3.23-7.54,6.57-15.22,10.09-22.65
			c0.69-1.38,1.42-3.39,2.34-4.65c2.29-3.19,6.92-4.07,10.23-2.05C204.77,344.12,216.77,349.71,229.19,354.22L229.19,354.22z"/>
	</g>
	<path class="st15" d="M236.26,386.54c0,0,13.85,5.15,35.09,3.9c21.24-1.25,37.87-13.62,39.49-27.53c0,0-4.76,22.67-38.9,26.36
		C250.55,391.33,236.26,386.54,236.26,386.54z"/>
	<path class="st36" d="M303.03,397.95l5.97,9.6c0.28,0.46,0.93,0.5,1.27,0.09l13.81-16.68l-12.92,18.33
		c-0.47,0.66-1.3,0.96-2.08,0.76l0,0c-0.57-0.15-1.04-0.56-1.28-1.1L303.03,397.95z"/>
	<path class="st36" d="M302.96,421.07l2.03,3.02c0.8,1.19,2.15,1.89,3.58,1.87l0,0c1.16-0.02,2.27-0.52,3.05-1.38l9.15-10.06
		l-8.31,10.75c-0.75,0.98-1.9,1.58-3.13,1.64l-0.94,0.05c-1.8,0.09-3.46-0.97-4.13-2.64L302.96,421.07z"/>
	<path class="st36" d="M192.75,392.58l23.72,17.92c0.68,0.51,1.64,0.36,2.13-0.33l12.28-17.29l-10.29,17.79
		c-1.12,1.93-3.72,2.38-5.42,0.94L192.75,392.58z"/>
	<path class="st36" d="M197.83,415.33l18.53,12.86c2.17,1.51,5.13,1.08,6.79-0.97l6.04-7.47l-5.69,8.72c-1.61,2.48-5,3.04-7.33,1.22
		L197.83,415.33z"/>
	<polygon class="st15" points="273.9,404.08 283.84,411.48 293.61,410.32 283.62,412.58 	"/>
	<polygon class="st15" points="269.43,426.88 280.86,438.42 293.46,438.15 280.3,439.64 	"/>
</g>
<g id="right-wing">
	<path class="st26" d="M164.33,381.46c0,0,9.57,5.89,41.67-13.69c26.06-14.43-7.36-29.3-7.36-29.3l-14.27-7.73l-15.62-8.47
		c0,0-24.15-11.48-51.39,17.08l-0.15,5.89L87.03,368.8c0,0-8.83,11.48,3.98,21.06s24.44,4.56,24.44,4.56l39.61-28.27
		C155.06,366.15,157.41,374.84,164.33,381.46z"/>
	<path class="st11" d="M117.22,345.24c0,0,19.73-0.59,31.21,25.77l4.42,0.59l13.55-7.07c0,0,32.36-28.31,2.36-42.26
		c0,0,25.25,13.51-12.96,41.67c0,0-15.31-26.5-38.43-24.59L117.22,345.24z"/>
	<path class="st11" d="M155.46,368.47c0,0,2.1,6.22,8.87,12.99c0,0,10.75,6.33,40.93-12.37c0,0,15.61-8.1,8.98-18.26
		c0,0,2.36,6.92-7.07,14.13s-41.23,21.64-45.06,0.74L155.46,368.47z"/>
	<path class="st27" d="M166.39,364.53c0,0,3.31,10.34,18.22,8.58s25.62-13.36,25.62-13.36s-6.52-17.78-29.6-15.24
		C180.64,344.5,178.1,354.33,166.39,364.53z"/>
	<path class="st37" d="M179.05,373.96c1.35,5.36,5.34,6.66,5.34,6.66s3.94-10.34,34.27,0.85s21.2,38.87,21.2,38.87
		c-13.55-23.85-46.23-4.12-46.23-4.12c-7.36,36.81,22.09,54.48,22.09,54.48c-25.33-7.36-42.11-19.73-45.35-34.45
		c-3.24-14.72,12.66-45.64-0.96-49.1s-13.51-17.34-13.51-17.34c21.49-12.11,10.49-47.82,1.51-50.98c6.41,0.39,12.15,1.72,16.93,4.42
		c16.92,8.65,32.81,17.09,38.65,23.41c40.36,1.01,69.87-5.12,87.9-19.47l18.18,12.77l2.72,6.85c0,0-0.97,5.78-11.56,4.34
		c0,0-6.48,15.9-41.82,18.85c-35.34,2.94-67.73-12.66-67.73-12.66S180.68,356.14,179.05,373.96z"/>
	<path class="st38" d="M155.9,369.79c0,0,4.53,8.61,8.43,11.67c2.28,0.92,4.6,2.36,20.06-0.85c0,0-21.31,3.2-26.28-11.71
		L155.9,369.79z"/>
	<path class="st39" d="M181.42,394.76c0,0,12.81,23.63-13.36,36.99"/>
	<circle class="st10" cx="104.85" cy="381.61" r="23.71"/>
	<path class="st9" d="M179.5,388.53l-17.96,45.79L95.87,403.4c5.47-0.82,8.72-3.3,10.1-7.17c1.68-4.73-0.27-8.63-4.28-11.64
		c-2.58-1.93-5.53-6.31-7.06-10.45c-2.52-6.81,4.27-13.43,11.14-11.06L179.5,388.53z"/>
	<path class="st40" d="M165.99,387.13c0.52-0.73,79.5-55.39,86.75,26.02c0,0-16.13-25.64-41.63-17.2c0,0-12.93,4.68-20.31,12.48
		c0,0-6.21-13.7-22.92-8.15C167.88,400.28,161.72,393.07,165.99,387.13z"/>
	<path class="st40" d="M152.14,427.58c-0.09,0.89,22.84,94.16,82.21,38c0,0-29.08,8.52-42.57-14.7c0,0-6.59-12.07-6.95-22.8
		c0,0-13.73,6.14-22.56-9.09C162.27,418.99,152.88,420.3,152.14,427.58z"/>
	<path class="st10" d="M117.95,410.32l34.19,17.26c0,0,16.9,3.65,24.12-11.96c7.21-15.61-2.28-25.76-10.27-28.49l-34.79-11.56
		C131.2,375.57,112.95,384.7,117.95,410.32z"/>
	<path class="st41" d="M190.8,408.42c0,0,1.07-14.89-7.91-20.04c0,0,9.28-14.87,28.56-10.45c14.52-3.79,24.45,0,28.71,13.1
		c0,0,10.87,3.3,12.57,22.12C252.74,413.15,227.65,374.39,190.8,408.42z"/>
	<path class="st41" d="M234.35,465.57c0,0-39.13,31.76-57.5-10.94c0,0-10.01,0.13-15.37-19.2c0,0,11.02,0.52,23.35-7.37
		C184.83,428.07,185.83,474.07,234.35,465.57z"/>
	<path class="st2" d="M184.83,428.07c0,0,0.71,44.61,49.52,37.5c0,0-13.18,7.03-22.02,3.49c0,0-10.16,3.39-16.93-2.94
		s-6.48-14.13-6.48-14.13S173.82,438.61,184.83,428.07z"/>
	<path class="st2" d="M252.74,413.15c0,0-13.02-17.7-30.54-18.73c-17.52-1.03-31.4,14.01-31.4,14.01s-0.11-10.32,7.84-12.09
		c0,0,3.39-6.63,10.16-7.8s13.1,2.8,13.1,2.8S245.14,387.27,252.74,413.15z"/>
	<path class="st8" d="M154.14,368.25c0,0-5.52-14.91-12.15-20.1c0,0,21.09-20.98,34.9-13.36c0,0,2.43,11.71-7.29,21.98
		C163.86,362.61,154.14,368.25,154.14,368.25z"/>
	<path class="st8" d="M117.11,361.25l13.29-9.35c0,0,12,4.64,18.04,19.1l-6.77,4.75l-16.45-6.18
		C125.2,369.57,122.66,364.79,117.11,361.25z"/>
	<path class="st14" d="M107.76,356.87l12.37-9.28c0,0,11.15,1.69,21.2,12.4c0,0-10.27-7.55-20.87-9.09l-8.72,6.52L107.76,356.87z"/>
	<path class="st14" d="M121.89,337.66c0,0,13.36,0.11,24.4,12.81c0,0-2.54-8.61-17.01-13.47c0,0,7.4-11.04,24.74-13.36
		c17.34-2.32,21.87,8.94,21.87,8.94s-3.31-12.37-23.3-11.04C132.27,324.85,121.89,337.66,121.89,337.66z"/>
	<path class="st42" d="M168.75,322.27c0,0,28.79,14.61,35.85,19.47c0,0-16.9-8.94-24.07-7.84
		C180.53,333.9,177.51,326.32,168.75,322.27z"/>
	<path class="st11" d="M103.89,362.69c0,0-9.28-1.18-11.26,8.87c-1.59,8.03,6.47,14.66,9.67,16.93c0.84,0.6,1.31,1.6,1.2,2.63
		c-0.34,3.23-2.14,9.81-11.09,10.69l6.55,3.06c0,0,9.59-2,10.27-14.6c0.06-1.17-0.61-2.26-1.67-2.76
		c-3.79-1.79-12.5-6.96-11.69-16.2C96.75,362.47,103.89,362.69,103.89,362.69z"/>
	<path class="st43" d="M98.15,385.14l5.85,4.53c0,0-0.44,12.15-11.6,12.15c0,0-12.7-6.96-10.93-23.08c0,0,1.21-14.02,15.24-19.33
		c0,0-12.81,6.52-12.15,23.08C85.23,399.06,100.25,400.38,98.15,385.14z"/>
	<path class="st43" d="M70.43,394.2c-0.33-0.11,15.46,0.77,15.46,0.77l-2.98-9.72L70.43,394.2z"/>
	<polygon class="st43" points="83.79,373.33 72.42,362.17 89.43,364.27 	"/>
	<polygon class="st11" points="70.43,394.2 84.35,393.64 82.58,388.68 	"/>
	<polygon class="st11" points="72.42,362.17 83.79,370.79 86.11,366.81 	"/>
	<path class="st8" d="M98.15,373.66l62.5,21.42c0,0,11.93,4.2,9.83,15.46s-24.29,9.06-24.29,9.06l-38.54-17.67
		c0,0,4.47-3.91,3.49-13.02c-0.16-1.46-1.04-2.77-2.38-3.39C105.19,383.86,98.07,379.79,98.15,373.66z"/>
	<path class="st44" d="M102.93,405.39l49.47,22.97c0,0,7.73,1.1,15.24-2.43c0,0,2.21,1.44,3.98,2.43c0,0,14.02-7.51,10.71-27.61
		l-4.53-1.21c0,0-1.33-9.17-12.7-12.7c0,0,12.42,6.06,8.49,20.53c-0.78,2.87-2.21,5.56-4.38,7.6c-0.52,0.49-1.11,0.97-1.76,1.42
		c-2.88,1.95-6.61,2.17-9.81,0.81l-47.2-20.08C110.44,397.1,107.9,403.29,102.93,405.39z"/>
	<path class="st11" d="M182.52,400.49c0,0,4.86,17.34-10.71,27.61l-3.98-2.43c0,0,11.71-6.07,10.16-26.39
		C177.99,399.28,180.2,399.17,182.52,400.49z"/>
	<path class="st45" d="M155.13,429.87c0,0,11.21,39.64,32.52,48.81c0,0,9.17,6.46,27.61-0.72c0,0-20.65,8.78-37.99-9.55
		c-13.97-16.62-19.16-36.5-19.16-36.5s7.34-0.94,9.5-4.69C164.1,429.09,160.11,430.23,155.13,429.87z"/>
	<path class="st45" d="M169.41,387.13c0,0,28.56-19.14,52.86-16.64c0,0,18.63,1.69,25.91,25.33c0,0-8.76-22.45-28.34-23.78
		c-19.58-1.33-46.38,15.17-46.38,15.17s5.89,3.61,5.3,9.87C178.76,397.07,177.59,390.44,169.41,387.13z"/>
	<path class="st46" d="M104.78,356.87c0,0,11.34,0.04,16.9,7.18l12.15-10.27c0,0-9.61-6.18-16.34-6.74L104.78,356.87z"/>
	<path class="st13" d="M121.89,337.66c0,0,7.95,0,17.01,6.4c0,0,11.6-10.05,22.97-13.14c11.37-3.09,14.69,1.33,14.69,1.33
		s-2.98-10.05-19.44-10.82C136.14,322.09,121.89,337.66,121.89,337.66z"/>
	<path class="st14" d="M181.08,341.08c0,0,2.5-10.34-12.33-18.81l27.68,14.5c0,0-11.48-4.31-14.91-4.97
		C181.52,331.8,183.07,335.01,181.08,341.08z"/>
	<path class="st46" d="M100.69,365.71l61.91,20.25c6.81,2.1,3.05,9.35-2.62,7.22l-61.73-21.5
		C98.26,371.67,97.16,367.58,100.69,365.71z"/>
	<path class="st14" d="M99.59,366.48l66.48,23.08l-1.33,2.21L98.41,368.5C98.58,367.75,99.05,367.1,99.59,366.48z"/>
	<path class="st8" d="M93.22,381.9c0,0-4.71-6.26-0.07-14.43s14.28-5.23,14.28-5.23l5.23-1.77c0,0-11.34-3.98-20.98,3.02
		s-6.18,19.95-6.18,19.95L93.22,381.9z"/>
	<polygon class="st14" points="70.69,394.05 82.69,391.62 81.51,387.5 	"/>
	<polygon class="st14" points="72.42,362.17 87.77,365.12 85.49,367.99 	"/>
	<path class="st14" d="M89.98,379.1c0,0-2.72-6.63,2.94-13.91c5.67-7.29,19.73-4.71,19.73-4.71s-12.37-4.93-21.28,4.12
		C85.93,371.08,89.98,379.1,89.98,379.1z"/>
	<path class="st47" d="M154.14,368.25c0,0,17.93-9.75,21.46-20.58c0,0-6.18,9.35-24.74,13.25L154.14,368.25z"/>
	<path class="st46" d="M108.75,400.38l45.72,19.8c0,0,10.09,3.09,16.34-6.55c0,0-5.23,4.42-14.06,1.1l-45.79-18.77L108.75,400.38z"
		/>
	<path class="st46" d="M106.84,385.88l52.29,20.12c2.79,1.07,5.77,1.65,8.76,1.52c3.2-0.14,6.68-1.06,7.79-4.19
		c2.21-6.26-4.05-14.36-12.66-17.45l-61.03-21.28c0,0-5.23,2.06-4.42,9.35C98.15,381.9,106.84,385.88,106.84,385.88z"/>
	<g>
		<path d="M177.99,399.28c4.25-0.14,8.17,2.3,10.91,5.41c0.94,1.06,1.78,2.16,2.53,3.42c0,0-1.12-0.18-1.12-0.18
			c8.6-8.56,20.01-16.26,32.7-14.93c12.6,1.73,22.63,10.12,30.88,19.19c0,0-2.65,0.94-2.65,0.94c-0.41-13.62-4.87-28.68-16.15-37.2
			c-15.29-11.63-37.56-4.45-53.5,2.5c-4.55,2.06-9.03,4.35-13.25,6.91c-3.96-1.32-52.81-17.62-55.15-18.39
			c-2.83-0.75-6.06-2.32-8.76-2.84c-4.58-0.66-7.72,3.67-7.96,7.93c-0.67,6.96,5.44,12.31,11.1,15.46
			c-3.85-1.75-7.62-4.12-10.19-7.72c-5.12-6.46-2.29-18.71,7.25-18.35c3.3,0.28,6.4,1.69,9.53,2.68
			c2.23,0.75,50.91,16.99,54.48,18.18c0,0-1.27,0.15-1.27,0.15c16.22-9.31,36.8-17.9,55.8-14.98c15.47,2.77,25.63,16.46,29.07,31.06
			c1.6,6.01,2.09,12.43,2.06,18.71c-4.61-5.49-9.8-10.75-15.8-14.76c-6.01-4.04-12.82-7.1-20.03-6.55
			c-10.15,1.09-19.48,6.43-27.17,13.01c0,0-0.72,0.63-0.72,0.63C188.24,404.56,183.82,399.67,177.99,399.28L177.99,399.28z"/>
	</g>
	<g>
		<path d="M167.83,425.67c4.61,3.95,11.37,3.24,16.82,1.69c0,0,0.82-0.22,0.82-0.22l0.1,0.9c1.44,11.3,6.52,22.75,15.59,29.91
			c10.54,8.21,24.87,7.85,37.44,5.44c-7.87,8.41-17.07,15.75-28.08,19.5c-15.88,5.65-30.21-1.25-40.49-13.57
			c-9.62-11.39-15.73-25.3-20.3-39.32c0,0,0.79,0.9,0.79,0.9c-8.87-4.47-52.12-23.96-59.9-28.65c-12.62-9.44-13.13-24.18-3.62-36.09
			c-9.72,14.91-5.44,29.62,10.93,36.63c2.16,1.02,50.37,23.75,53.87,25.4c0,0,0.59,0.28,0.59,0.28s0.2,0.62,0.2,0.62
			c4.47,13.71,10.4,27.22,19.73,38.29c9.46,11.36,22.62,17.94,37.26,12.68c8.93-3.06,17.06-8.85,23.69-15.49
			c0,0,1.33,2.51,1.33,2.51c-11.94,1.95-25.31,0.97-35.24-6.72c-10.03-7.47-14.73-20.05-15.25-32.23c0,0,0.92,0.69,0.92,0.69
			C179.29,430,172.21,430.16,167.83,425.67L167.83,425.67z"/>
	</g>
	<path class="st39" d="M165.51,382.71c0,0-6.96-3.87-8.28-12.04l-4.38,0.92l-4.42-0.59l-5.45,3.98"/>
	<g>
		<path d="M211.89,364.38c3.47-3.75,4.74-9.67,1.38-13.78c-3.11-3.89-8.04-6.39-12.11-9.26c-9.97-6.23-20.55-11.73-31.13-16.98
			c-13.02-5.62-28.45-1.82-39.83,5.95c-4.26,2.9-8.18,6.32-11.75,10.08c0,0,0.37-0.69,0.37-0.69l-1.21,5.15l-0.12,0.52l-0.42,0.33
			l-16.12,12.48c0,0-0.25,0.19-0.25,0.19s-0.34,0.09-0.34,0.09c-4.54,1.21-8.91,3.67-12.18,7.08c-2.58-0.38-6.16-0.74-8.72-1.14
			c0,0-7.94-1.53-7.94-1.53l0.83-1.75c3.19,3.39,7.59,8.06,10.68,11.45c-4.5-3.59-9.98-8.26-14.44-11.94
			c1.94,0.14,9.16,0.64,11.27,0.79c2.25,0.26,5.71,0.76,8.01,1.05c0,0-1.27,0.44-1.27,0.44c1.8-1.8,3.85-3.33,6.08-4.54
			c2.26-1.24,4.49-2.17,7.02-2.83c0,0-0.58,0.28-0.58,0.28s16.12-12.48,16.12-12.48s-0.54,0.84-0.54,0.84l1.21-5.15l0.09-0.39
			c0,0,0.28-0.29,0.28-0.29c7.41-7.81,16.44-14.39,26.85-17.58c9.1-2.67,19.43-3.07,28.23,0.92c10.67,5.3,21.25,10.8,31.41,17.14
			C212.44,344.51,222.98,353.98,211.89,364.38L211.89,364.38z"/>
	</g>
	<polyline class="st39" points="81.36,386.25 68.44,394.86 85.01,395.3 	"/>
	<path d="M179.43,346.93c0,0-6.63,15.9-26.61,23.08l0.44,2.87C153.25,372.88,170.15,370.79,179.43,346.93z"/>
	<path d="M116.81,339.2c0,0,19.1-2.43,30.15,14.91c0,0-12.37-14.47-30.48-11.26L116.81,339.2z"/>
	<path d="M112.95,359.3c0,0,7.4,2.32,9.06,8.83l4.86,1.21C126.86,369.35,123,361.29,112.95,359.3z"/>
	<path d="M161.98,385.91c0,0,14.36,3.64,17.01,18.33C178.98,404.25,180.2,388.68,161.98,385.91z"/>
	<path d="M146.08,426.22c0.44,0,14.69,4.42,26.39-3.75c0,0-5.19,7.62-21.98,6.29L146.08,426.22z"/>
	<path class="st48" d="M128.55,331.25c0,0,12.44-1.96,22.82,10.16c6.04,7.66,8.25,23.12,3.09,29.45c0,0,12.52-5.74,20.02-15.02
		c0,0,15.31,5.3,33.87-0.88c4.86,1.18,6.63,3.98,5.74,6.77c0,0,3.39-6.18,2.36-12.66c0,0-42.4-24-42.85-24.15
		S152.26,314.32,128.55,331.25z"/>
</g>
<g id="eyes">
	<path class="st49" d="M205.71,345.17c0,0,18.11,19.66,58.31,18.55c0,0-21.2-3.09-28.27-13.69c0,0,24.74,17.45,65.6,0.88
		l-75.53-20.32L205.71,345.17z"/>
	<path class="st16" d="M138.79,243.79c0,0,21.42-89.89,96.07-85.69c0,0,65.15-11.71,97.62,54.11
		c26.96,54.65,21.33,114.94-32.82,137.49c-11.06,4.61-44.48,5.85-64.79-8.5C185.39,367.25,158,301.44,158,301.44
		S129.73,283.77,138.79,243.79z"/>
	<path class="st16" d="M147.4,241.14c0,0-21.2-15.68-25.18-41.08c-3.98-25.4,15.24-89.01,15.24-89.01s46.6,15.24,75.98,53.23
		C231.55,190.12,147.4,241.14,147.4,241.14z"/>
	<path class="st16" d="M272.63,164.28c0,0,14.13-35.56,36.44-61.62c0,0,29.37,35.12,35.12,63.17c5.74,28.05-20.54,50.8-20.54,50.8
		L272.63,164.28z"/>
	<path class="st50" d="M141,122.32c0,0,41.52,11.48,49.91,50.58c0.22,22.97-35.56,27.39-35.56,27.39
		c-6.31,9.03-10.6,19.19-12.15,30.92c0,0-13.91-9.5-16.12-32.91C124.87,174.88,141,122.32,141,122.32z"/>
	<path class="st51" d="M184.95,172.68c0,0-31.58,17.67-41.08,52.79c0,0-23.19-31.14,5.74-52.12c0,0-11.71-13.91-3.98-26.28
		C153.36,134.69,172.8,145.07,184.95,172.68z"/>
	<path class="st51" d="M134.59,169.36c0,0,1.99-28.05,20.1-37.1c0,0,30.26,13.69,36,43.07c0,0,2.21-31.14-40.64-49.25
		C149.17,126.52,132.6,140.87,134.59,169.36z"/>
	<path class="st52" d="M143.87,225.46c0,0,5.3-32.69,46.6-54.33c-0.88,0.22-22.97,5.74-36.44,25.4
		C141.24,215.18,143.87,225.46,143.87,225.46z"/>
	<path class="st52" d="M157.34,177.31c0,0-13.25-12.81-8.39-17.89c4.86-5.08,13.25,1.33,13.25,1.33s-5.74-12.37,6.63-23.41l4.2,2.87
		c0,0-12.81,9.5-6.4,26.06c0,0-12.15-8.61-15.24-5.08C148.28,164.72,157.34,177.31,157.34,177.31z"/>
	<path class="st52" d="M133.71,173.34c0,0-5.96,27.83,13.25,41.96C146.96,215.3,122.89,207.13,133.71,173.34z"/>
	<path class="st50" d="M296.04,168.04c0,0-0.22-25.62,13.47-57.42c0,0,24.29,29.15,31.36,57.64c0,0,1.55,15.46-8.39,30.04
		C332.48,198.3,322.32,180.18,296.04,168.04z"/>
	<path class="st51" d="M296.04,168.04c0,0,3.53-34.9,13.91-34.23s7.51,19.88,7.51,19.88s15.68,3.75,16.34,16.34
		c0.66,12.59-5.3,22.75-5.3,22.75S318.57,177.76,296.04,168.04z"/>
	<path class="st52" d="M291.84,166.49c0,0,23.41,7.51,40.64,31.8C332.48,198.3,324.09,171.35,291.84,166.49z"/>
	<path class="st52" d="M320.33,166.27c0,0,9.94-13.47,1.77-16.79s-9.72,1.77-9.72,1.77s3.75-16.34-9.72-22.09l-1.55,5.08
		c0,0,9.94,3.75,7.73,22.09C308.85,156.33,329.83,141.53,320.33,166.27z"/>
	<path class="st51" d="M307.52,126.07l7.29-6.85c0,0,14.13,13.69,26.06,49.03c0,0-14.13-30.04-27.39-42.4L307.52,126.07z"/>
	<path class="st53" d="M180.31,147.72c0.66,0.22,26.06,33.57-7.95,47.71c0,0,14.58-1.55,20.76-14.58
		C199.74,163.84,180.31,147.72,180.31,147.72z"/>
	<path class="st54" d="M256.06,248.65c0,0,6.4-37.33-17.45-40.86c-17.13-2.54-34.14,7.34-42.37,13.11
		c-5.41,3.79-13.04,0.41-13.67-6.16c-0.25-2.66,0.34-5.97,2.37-10.04c7.95-15.9,81.5-34.23,77.74,17.89c0,0,10.16-30.92-17.67-40.42
		s-59.41,3.31-79.95,30.48l9.94,36.66l9.5-0.66c0,0,4.64-31.36,50.58-36.88C257.39,209.56,256.06,248.65,256.06,248.65z"/>
	<path class="st54" d="M201.51,230.98c0,0,15.68-12.15,34.67-6.18c18.99,5.96,13.03,26.72,13.03,26.72l-7.29-4.86
		C241.93,246.66,248.55,214.86,201.51,230.98z"/>
	<path class="st54" d="M314.59,197.41c0,0-28.93-24.29-56.32-2.21l-5.74-7.51C252.53,187.69,289.63,167.37,314.59,197.41z"/>
	<path class="st54" d="M325.41,221.41c0,0-6.04-12.37-28.56-14.58c-21.4-2.1-26.59,9.62-26.8,28.71l3.75-0.28
		c-0.4-5.52-0.09-16.77,8.04-22.84c11.04-8.25,42.4,6.18,47.71,18.99C329.54,231.42,329.39,226.86,325.41,221.41z"/>
	<path class="st54" d="M315.55,224.21c0,0-29.63-12.56-36.27,10.95l7.87-0.32C287.91,230.53,292.12,219.28,315.55,224.21z"/>
	<path class="st54" d="M214.76,166.71c24.52-7.29,48.37,8.17,48.37,8.17s-7.73-10.38-23.85-13.47S214.76,166.71,214.76,166.71z"/>
	<path class="st55" d="M324.53,227.45c0,0-18.11-18.77-38.87-13.69c-9.72,3.75-9.94,19.21-9.94,19.21S283.45,202.93,324.53,227.45z"
		/>
	<path class="st54" d="M241.93,160.09c0,0,41.3-6.4,75.53,25.84c0,0-29.15-22.31-65.6-21.64l-10.82-4.2"/>
	<path class="st53" d="M259.38,170.91c0,0-11.26-18.77-49.47-11.04c0,0,7.29,8.83-3.31,18.33c0,0,10.16-5.08,11.71-13.69
		C229.34,159.64,248.78,163.18,259.38,170.91z"/>
	<path class="st53" d="M233.09,158.1c0,0,32.25-4.64,52.79,8.61c0,0-20.1-9.06-49.25-5.96L233.09,158.1z"/>
	<path class="st54" d="M309.07,102.66c0,0-21.64,33.57-22.09,61.62c0,0-5.74-3.31-13.91-2.43
		C273.07,161.85,289.19,123.42,309.07,102.66z"/>
	<path class="st1" d="M158.15,198c0,0,22.96-5.5,34.74,33.46c0.68,2.26,3.09,3.52,5.35,2.8c7.82-2.48,24.87-6.88,35.3-2.16
		c4.06,1.84,8.42,2.87,12.88,2.71c10.08-0.36,26.92-1.03,37.84-1.81c4.08-0.29,8.04-1.49,11.6-3.5c4.29-2.42,11.98-4.99,22.26-1.18
		c2.96,1.1,6.05-1.28,5.72-4.42c-1.14-10.91-1.93-29.56,6-29.15l10.01,50.65l-165.94,7.95C173.9,253.36,159.03,208.31,158.15,198z"
		/>
	<path class="st54" d="M141.88,236.72c0,0-17.89-12.15-20.76-37.55c-2.87-25.4,16.34-88.12,16.34-88.12s-19.21,69.79-12.15,90.11
		c7.07,20.32,17.89,30.04,17.89,30.04L141.88,236.72z"/>
	<path class="st56" d="M197.32,180.63c0,0,8.17-15.46-15.24-39.53C182.08,141.09,218.52,163.84,197.32,180.63z"/>
	<path class="st57" d="M194.22,211.33c0,0,54.55-29.6,64.05,11.71c0,0,2.65-27.17-21.64-29.82
		C212.33,190.57,194.22,211.33,194.22,211.33z"/>
	<path class="st57" d="M275.68,195.38c8.31-3.83,22.8-6.04,40.68,9.76c0,0-31.36-18.11-47.93,5.52l-0.13-2.99
		C268.08,202.47,270.95,197.56,275.68,195.38z"/>
	<path class="st56" d="M213.44,177.31c0,0,24.74-8.61,41.96,5.08c0,0,25.18-12.15,49.91,0.88c0,0-19.44-17.23-49.47-6.18
		C255.84,177.09,237.51,162.52,213.44,177.31z"/>
	<path class="st56" d="M290.08,164.28c0,0-0.88-20.76,14.36-48.81c0,0-9.94,28.27-11.26,49.69L290.08,164.28z"/>
	<path class="st58" d="M137.24,219.94c0,0-15.9-29.6,6.63-46.6c0,0-14.8-34.9,14.36-35.34c0,0-28.93-11.48-21.87,33.35
		C136.36,171.35,116.92,198.3,137.24,219.94z"/>
	<path class="st58" d="M331.6,194.98c0,0,17.23-34.01-7.95-46.82c0,0-1.33-18.55-15.02-19.88c0,0,9.06,3.75,11.48,24.52
		C320.11,152.8,339.11,154.57,331.6,194.98z"/>
	<path class="st9" d="M329.83,194.76c0,0,34.23,36.22,19.21,109.77c-6.32,30.95-21,40.39-32.32,43.07
		c-15.57,3.69,7.36-61.84,7.36-61.84s10.53-4.86,10.6-34.9S321.29,199.03,329.83,194.76z"/>
	<path class="st9" d="M231.92,299.01c0,0-22.31,44.17-54.92,48.59c-42.85,4.64-44.17-85.91-44.17-85.91s2.21-56.32,23.85-62.5
		c21.64-6.18,30.26,42.85,30.26,42.85s90.77-11.48,174.7-5.52c0,0,3.53,39.75,0.66,54.11L231.92,299.01z"/>
	<path class="st54" d="M191.13,342.96c0,0,13.03,12.81,39.98,2.65c26.94-10.16,24.52-27.83,55.21-29.37
		c21.34-1.07,22.72,14.18,21.58,23.58c-0.56,4.58,3.3,8.58,7.88,8.09c9.19-0.99,20.61-8.87,11.61-45.59
		c-7.71-31.47-37.22-32.86-61.98-27.86c-19.03,3.85-28.5,15.71-40.94,33.6C217.75,317.73,207.43,331.82,191.13,342.96z"/>
	<path class="st54" d="M236.19,333.02c0,0,11.04,14.8,44.39,13.91c33.35-0.88,35.78-21.64,35.78-21.64l-0.22,15.02
		c0,0-8.61,13.69-35.34,15.02c-36.66,1.77-51.68-15.68-51.68-15.68L236.19,333.02z"/>
	<path class="st54" d="M260.26,330.15c0,0,11.71,6.63,23.85-0.88c0,0,9.28,5.52,21.64-1.1
		C305.76,328.16,284.33,322.86,260.26,330.15z"/>
	<path class="st49" d="M322.21,346.05c0,0-13.14,6.18-14.02-4.42c-0.88-10.6-2.43-26.5-22.75-24.74c0,0-14.36-1.99-32.25,14.8
		c0,0-22.31,21.42-45.28,18.11c-7.34-1.06-13.1-3.31-16.79-6.85c26.5-18.63,35.78-42.26,48.66-54.26
		c-2.87,4.57-15.82,23.45-22.21,38.6c-1.87,4.44,0.32,9.68,4.89,11.19c4.99,1.64,12.98,0.96,24.97-8.33
		c26.5-20.54,37.33-16.12,37.33-16.12s23.41-4.2,25.84,19.44C309.73,351.79,322.21,346.05,322.21,346.05z"/>
	<path class="st49" d="M288.97,314.69c0,0,5.52-18.33-1.55-33.13l-5.08,0.88c0,0,4.42,22.09,0,33.35L288.97,314.69z"/>
	<path class="st59" d="M287.87,307.51c0,0-37.55,0.77-41.3-12.26c-3.75-13.03,11.6-23.41,37.55-23.41s32.25,12.59,30.26,22.2
		C311.17,306.07,287.87,307.51,287.87,307.51z"/>
	<path class="st60" d="M257.42,278.92c-1.76,0.97-1.61,3.15,0.3,3.91c3.45,1.37,11.66,2.7,30.73,2.5
		c37.78-0.41,15.49-11.93-3.88-11.72C270.3,273.76,260.99,276.95,257.42,278.92z"/>
	<path d="M249.55,299.56c0,0,9.61,5.52,17.45,1.21c5.52-2.43,1.99-8.94,8.83-9.72c7.73-0.22,4.97,13.14-4.86,15.46
		C270.97,306.52,256.62,305.96,249.55,299.56z"/>
	<path d="M312.86,297.35c0,0-3.42,5.08-8.47,3.2c-5.19-2.54-2.06-9.5-8.3-9.83c-6.61-0.2-3.82,12.08,4.58,14.21
		C300.68,304.93,308.78,303.06,312.86,297.35z"/>
	<path d="M286.21,313.36c0,0-4.53-6.96,0.55-20.76C286.76,292.6,290.96,305.3,286.21,313.36z"/>
	<path class="st61" d="M256.3,281.08c0,0-1.75,6.22,31.2,6.22c29.89,0,20.25-8.38,20.25-8.38s4.82,5.77-20.25,5.77
		C262.43,284.69,256.3,281.08,256.3,281.08z"/>
	<path class="st60" d="M270.97,306.52c0,0,8.61-1.21,9.39-11.6c0,0,2.32,7.84-2.98,12.37L270.97,306.52z"/>
	<path class="st60" d="M246.3,295.25c0,0-6.21-19.44,30.39-23.19c0,0,28.5-2.43,31.5,8.61c0,0-2.22,2.98-8.43,2.43
		c-6.21-0.55-4.33-8.39-20.63-8.5C262.83,274.49,246.08,282.33,246.3,295.25z"/>
	<g>
		<path d="M263,305.26c-6.4-0.83-15.36-2.24-17.77-9.27c-1.41-4.21-0.71-9.05,1.83-12.65c6.68-9.09,18.88-11.63,29.44-12.67
			c12.59-0.91,30.2-0.35,37.49,11.74c4.87,8.65,1.36,17.31-7.92,20.49c2.21-1.45,4.24-3.21,5.6-5.3c1.39-2.1,1.79-4.4,1.52-6.87
			c-0.02-2.39-0.6-4.77-1.81-6.83c-1.45-2.6-3.91-4.68-6.49-6.23c-6.16-3.36-13.43-4.2-20.36-4.3c-10.16,0.03-20.93,1.24-29.69,6.67
			c-5.59,3.35-9.55,10.27-6.07,16.46C251.94,301.13,257.79,303.42,263,305.26L263,305.26z"/>
	</g>
	<path class="st55" d="M194.22,232.31c0,0,21.87-20.32,46.16-17.45c0,0,11.48,1.33,11.48,19.66
		C251.87,234.52,239.94,205.36,194.22,232.31z"/>
	<path class="st6" d="M203.65,299.01c-6.98,9.81-23.67,31.18-38.36,33.35c-19.44,2.87-24.81-19.21-24.81-19.21s4.49,11.48,8.91,9.94
		s8.39-20.1,8.39-20.1s31.44,6.33,67.36-13.25c33.43-18.22,43.58-17.08,55.36-18.26"/>
	<path class="st6" d="M145.78,323.6c0,0,5.6,8.83,15.75,8.98c10.16,0.15,20.61-10.45,24.59-30.04"/>
	<ellipse class="st6" cx="141.29" cy="272.95" rx="7.88" ry="27.53"/>
	<g>
		<path d="M132.82,271.33c0.05-13.57,0.83-27.6,6.09-40.29c2.06-4.62,6.22-10.8,12.1-9.46c5.3,2.01,6.65,8.8,7.85,13.55
			c0.72,3.38,1.15,6.77,1.37,10.23l-1.01-0.84c13.97-1.54,27.95-2.96,41.96-4.09c-13.88,2.19-27.8,4.1-41.74,5.89
			c0,0-0.94,0.12-0.94,0.12l-0.08-0.96c-0.67-6.44-1.53-13.51-4.79-19.13c-4.33-7.36-11.03,0.47-13.09,5.46
			C135.2,244.11,133.9,257.99,132.82,271.33L132.82,271.33z"/>
	</g>
	<path class="st6" d="M186.93,242.03c0,0-8.02-45.35-27.9-43.29c-19.88,2.06-26.5,46.82-25.62,69.5c0,0,0.88,77.74,40.05,79.51
		c0,0,22.82,2.36,49.33-36.81"/>
	<g>
		<path d="M322.91,292.38c11.36-0.81,27.81-1.87,39.35-2.49c0,0-0.69,0.61-0.69,0.61c1.42-13.38,1.01-27,0.17-40.42
			c-0.23-3.36-0.77-10.13-1.07-13.48c0,0,0.89,0.87,0.89,0.87c-17.85-1.15-37.91-2.01-55.79-2.41c-6.21-0.16-12.41-0.18-18.63-0.21
			c6.2-0.37,12.42-0.55,18.63-0.67c18.56-0.25,37.39,0.29,55.92,1.37c0,0,0.82,0.05,0.82,0.05c0.39,4.33,0.97,10.07,1.19,14.36
			c0.7,13.79,1.18,27.65-0.77,41.37C351.07,291.64,334.62,292.27,322.91,292.38L322.91,292.38z"/>
	</g>
	<path class="st6" d="M333.51,235.69c0,0-12.29-36.75-4.34-40.44c0,0,11.41,10.25,20.39,40.73"/>
	<path class="st6" d="M351.33,291.06c0,0-2.13,41.52-29.12,54.99c0,0,28.09-9.5,11.6-54.26"/>
	<g>
		<path d="M330.38,327.94c0.09,8.89-3.17,19.97-13.67,20.66c-4.64,1.17-8.74-2.63-9.89-8.05c-0.63-2.52-0.81-5.37-0.85-7.97
			c-0.51-5.34-4.03-11.75-9.84-13.5c-11.85-3.75-25.02,0.02-34.58,7.56c-6.62,5.15-12.92,10.87-20.02,15.41
			c-5.46,3.38-11.96,4.9-18.26,5.1c4.12-0.8,8.27-1.65,11.91-3.58c7.3-4,13.78-9.29,20.22-14.55c9.48-8.58,21.91-14.78,35.01-13.18
			c9.99,0.76,16.38,6.66,17.56,16.65c0.04,2.47,0.2,5.19,0.79,7.57c0.88,3.96,3.54,7.65,7.98,6.53c4.03-0.25,7.56-3.08,9.71-6.44
			C328.78,336.62,329.77,332.11,330.38,327.94L330.38,327.94z"/>
	</g>
	<g>
		<path d="M330.49,322.86c-1.31-25.19-12.16-48.12-39.93-50.38c-11.76-0.96-23.93,1.23-34.91,5.46c-3.53,1.54-6.75,3.9-9.74,6.47
			c-8.12,7.21-15.13,15.9-21.09,25.01c-4.65,8.07-11.89,20.67-9,30.06c0.53,1.35,1.17,2.25,2.4,2.92c0,0,1.27,0.82,1.27,0.82
			s-0.19-0.1-0.19-0.1c10.91,3.5,22.97-2.08,30.74-9.82c5.37-4.47,10.71-9.32,17.1-12.3c2.13-0.99,4.33-1.87,6.58-2.46
			c-2.06,1.1-4.01,2.32-5.89,3.66c-5.59,4.04-11.28,7.92-16.42,12.56c-6,6.1-14.83,10.82-23.77,11.38
			c-3.07,0.18-6.29-0.05-9.23-1.25c-0.76-0.53-1.99-1.17-2.65-1.81c-8.63-9.78,5.96-33.72,12.58-42.2
			c7.43-9.48,15.36-19.46,26.52-24.79c11.42-4.38,23.64-6.59,35.88-5.61C320.08,273.02,330.39,296.21,330.49,322.86L330.49,322.86z"
			/>
	</g>
	<g>
		<path d="M258.16,330.37c15.08-5.66,33.16-7.37,48.48-1.77C290.52,325.75,274.15,327.41,258.16,330.37L258.16,330.37z"/>
	</g>
	<path d="M243.03,345.39c0,0,21.09,12.26,40.2,9.83c19.1-2.43,26.5-10.05,26.5-10.05s-7.81,12.34-26.5,14.58
		C256.06,362.28,243.03,345.39,243.03,345.39z"/>
	<path class="st6" d="M190.69,342.96c0,0,6.63,5.96,21.64,7.51c0.44,0.33,18.44,15.02,54.11,13.36c0,0,20.21-1.66,30.48-10.71"/>
	<path d="M246.46,339.09c0,0-12.37,11.93-33.35,10.82c0,0-10.38-0.88-2.76-18c0,0-14.13,10.6-22.42,12.81
		c0,0,22.31-13.69,33.79-31.47c0,0-11.37,17.56-6.4,26.72S237.07,344.06,246.46,339.09z"/>
	<path d="M235.74,350.03c-0.2-0.26,22.53,18.55,47.6,9.28l9.5-1.88c0,0-8.5,5.08-24.96,6.96
		C251.43,366.26,239.39,357.42,235.74,350.03z"/>
	<path d="M311.5,346.49c0,0-9.72,6.74-13.91,8.5l2.87-3.42l9.28-6.4L311.5,346.49z"/>
	<path class="st16" d="M241.78,291.64c0,0-7.36,16.05,20.61,18.4c0,0-21.5,24.15-36.96,21.5
		C211.89,329.04,241.78,291.64,241.78,291.64z"/>
	<path class="st16" d="M302.44,309.61c0,0,16.34-3.98,16.79-17.67c0,0,13.55,28.86,2.8,43.29
		C312.6,345.53,319.97,318.74,302.44,309.61z"/>
	<path class="st54" d="M255.33,308.58c0,0-11.93,4.42-22.23,18.85c0,0,3.68-12.81,17.96-20.91L255.33,308.58z"/>
	<path class="st54" d="M244.14,301.07c-0.29,0.44-10.01,5.89-18.4,20.02c0,0,5.3-14.43,17.37-23.41L244.14,301.07z"/>
	<path class="st54" d="M308.04,306.96c0,0,7.07,4.27,11.19,17.37c0,0-1.62-14.72-9.13-19.29L308.04,306.96z"/>
	<path class="st54" d="M316.28,298.12c0,0,5.6,6.18,7.21,18.7c0,0-4.12-11.19-9.13-15.31l1.91-2.8"/>
	<circle class="st49" cx="240.46" cy="301.8" r="2.5"/>
	<circle class="st49" cx="248.26" cy="310.64" r="2.5"/>
	<circle class="st49" cx="234.42" cy="308.28" r="2.06"/>
	<circle class="st49" cx="240.75" cy="317.12" r="2.06"/>
	<circle class="st49" cx="229.12" cy="315.35" r="1.47"/>
	<g>
		
			<ellipse transform="matrix(0.0571 -0.9984 0.9984 0.0571 -14.1969 602.4517)" class="st49" cx="311.83" cy="308.74" rx="2.05" ry="1.68"/>
		
			<ellipse transform="matrix(0.0571 -0.9984 0.9984 0.0571 -16.1658 611.4034)" class="st49" cx="315.59" cy="314.26" rx="1.68" ry="1.39"/>
		
			<ellipse transform="matrix(0.0571 -0.9984 0.9984 0.0571 -19.0786 620.2603)" class="st49" cx="318.82" cy="320.23" rx="1.2" ry="0.99"/>
	</g>
	<g>
		
			<ellipse transform="matrix(0.1608 -0.987 0.987 0.1608 -31.7862 566.1207)" class="st49" cx="317.02" cy="301.75" rx="1.81" ry="1.49"/>
		
			<ellipse transform="matrix(0.1608 -0.987 0.987 0.1608 -34.5767 573.2488)" class="st49" cx="319.82" cy="306.96" rx="1.49" ry="1.23"/>
		
			<ellipse transform="matrix(0.1608 -0.987 0.987 0.1608 -38.1337 580.1758)" class="st49" cx="322.11" cy="312.51" rx="1.07" ry="0.88"/>
	</g>
	<circle class="st49" cx="236.19" cy="322.71" r="1.47"/>
	<path class="st55" d="M257.98,335.96c0,0,4.27,8.54,25.47,7.95s20.76-9.28,20.76-9.28s-9.57,5.45-19.44,0
		C284.78,334.64,279.03,340.23,257.98,335.96z"/>
	<path class="st56" d="M272.11,322.86c0,0,15.75-2.21,26.5,0.29C298.62,323.15,289.19,315.5,272.11,322.86z"/>
	<path class="st43" d="M145.41,287.96c0,0-1.33,8.25-4.05,10.31c-2.72,2.06-6.63-7.14-6.92-27.02s6.48-27.9,8.91-20.25
		c0,0-6.18,5.45-6.48,20.32C136.95,281.41,145.41,287.96,145.41,287.96z"/>
	<path class="st43" d="M156.46,238.92c-0.89-4.42-3.15-13.54-6.71-14.49c-4.71-1.25-10.67,10.23-12.52,21.13c0,0,4.3-5.41,8.35,0.45
		C150.57,239.89,156.46,238.92,156.46,238.92z"/>
	<path class="st43" d="M155.2,302.98c0,0-3.39,17.67-7.07,17.74c-3.68,0.07-7.8-12.29-8.91-18.7c0,0,4.42,2.87,7.36-3.46
		C146.59,298.57,149.32,301.58,155.2,302.98z"/>
	<path class="st43" d="M157.34,313.07c0,0,7.07,4.34,21.79,2.87c-2.21,5.82-14.43,23.04-29.74,9.28
		C149.39,325.22,153.81,327.06,157.34,313.07z"/>
	<path class="st43" d="M151.6,331.91c0,0,5.82,10.67,17.82,13.1c10.67,2.36,27.9-7.36,35.26-16.2c0,0-6.55-10.45,0-27.98
		c0,0-14.5,23.93-31.95,31.51C160.28,338.17,151.6,331.91,151.6,331.91z"/>
	<path class="st43" d="M159.92,235.47c0,0,5.15-10.01,18.92-14.65c0,0-6.77-18.85-17.52-20.25c-10.75-1.4-18.99,16.27-20.98,25.55
		C142.47,222.07,155.5,210.74,159.92,235.47z"/>
	<path class="st43" d="M165.62,246.77c0,0,40.31-6.4,76.31-8.06c0,0-0.99,10.93-6.4,15.9c0,0-51.02,2.32-65.26,4.53
		c0,0-11.15,0.44-10.49,12.48c0,0-6.74-4.75-4.42-14.91C157.45,247.99,165.62,246.77,165.62,246.77z"/>
	<path class="st43" d="M224.04,278.8c0,0-3.87,15.9-43.73,21.2c-39.87,5.3-20.54-28.38-20.54-28.38s-0.11,11.26,12.04,11.48
		L224.04,278.8z"/>
	<path class="st43" d="M187.49,299.01c0,0-28.49,6.4-37.77-8.83c0,0,4.2-11.26,0.55-31.58c0,0,3.2-11.26,22.75-12.81l4.42,12.48
		c0,0-19.44-2.76-17.67,15.24c1.21,13.03,17.12,9.28,17.12,9.28S193.89,286.2,187.49,299.01z"/>
	<path class="st43" d="M229.56,297.68c0,0,6.4-9.06,13.58-15.35c0,0-25.62,14.13-37.33,17.78c0,0,11.15-2.32,18.11-5.08
		C230.89,292.27,229.56,297.68,229.56,297.68z"/>
	<path class="st43" d="M330.55,311.82c1.93,0.17,4.31-0.22,6.02-1.38c0,0,3.75,17.5-7.4,29.04
		C329.17,339.48,333.97,330.81,330.55,311.82z"/>
	<path class="st43" d="M340.21,308.06c0,0,1.93,7.18,0.28,16.23c0,0,6.35-10.16,9-31.8l-4.09,0.22
		C345.4,292.71,346.51,302.32,340.21,308.06z"/>
	<path class="st43" d="M359.43,288.41c0,0,1.55-33.46-1.88-49.14l-39.09-2.1c0,0,34.01,2.32,34.56,25.51
		c0.55,23.19-22.42,27.5-22.42,27.5L359.43,288.41z"/>
	<path class="st62" d="M170.2,260.61c26.6-2.71,109.46-7.76,191.77-6.99l0.33,18.44c0,0-21.87,0.21-58.67,0.88
		c-9.71-1.8-17.96-5.75-48.44,1.77c-23.73,1.25-53.02,3.18-82.94,6.11c-5.92,0.58-11.07-4.01-11.16-9.96l0,0
		C161,265.6,164.96,261.14,170.2,260.61z"/>
	<path class="st63" d="M171.23,278.03c-3.98,0-7.26-3.24-7.32-7.21c-0.06-3.82,2.77-7,6.57-7.39c22.6-2.3,94.93-7.06,174.26-7.06
		c4.85,0,9.69,0.02,14.43,0.06l0.23,12.83c-7.05,0.08-26.82,0.32-55.55,0.85c-1.15-0.22-2.29-0.47-3.45-0.72
		c-4.14-0.9-8.83-1.93-15.63-1.93c-8.03,0-17.85,1.45-30.02,4.44c-29.3,1.54-57.16,3.59-82.8,6.1
		C171.72,278.02,171.47,278.03,171.23,278.03z"/>
	<path class="st64" d="M169.94,270.8c0,0,95.37-8.4,188.15-8.07"/>
	<path class="st65" d="M172.87,282.88c0,0-11.48,1.33-12.96-10.53c0,0-1.91-11.56,9.87-13.18c0,0-12.15-0.88-11.56,13.84
		c1.69,13.03,15.02,11.63,15.02,11.63l69.42-5.67l4.2-1.62L172.87,282.88z"/>
	<path class="st65" d="M309.29,274.49c0.22,0.07,50.43-0.52,50.43-0.52l0.15,1.55l-48.37,0.74L309.29,274.49z"/>
	<path class="st14" d="M246.79,238.6c0,0,46.16-2.21,64.6-1.88c0,0,13.14,2.21,18.55,14.47c0,0-54.66,1.21-86.02,2.65
		C243.92,253.84,246.79,248.87,246.79,238.6z"/>
	<path class="st14" d="M215.54,291.39c0,0,8.06-4.09,12.81-12.7l14.36-0.99C242.7,277.69,225.14,287.41,215.54,291.39z"/>
	<path class="st14" d="M309.29,274.49l24.74-0.11c0,0,1.88,10.16-9.61,14.58C324.42,288.96,321.11,280.01,309.29,274.49z"/>
	<path class="st46" d="M205.82,301.44c0,0,13.69-4.31,21.09-0.99c0,0-10.82,17.34-18.44,25.29
		C208.47,325.73,203.06,318.11,205.82,301.44z"/>
	<path class="st46" d="M159.33,306.18c0,0,13.8,1.55,22.97,0.44c0,0-0.81,3.72-1.99,6.52c0,0-14.47,1.1-21.98-3.2L159.33,306.18z"/>
	<path class="st46" d="M146.19,282.22c0,0-7.29-4.2-8.5-11.71s6.74-16.23,6.74-16.23S147.84,267.31,146.19,282.22z"/>
	<path class="st46" d="M160.76,238.49c0.33,0,6.74-9.5,19.44-12.04c0.11,0.55,2.43,7.4,3.64,14.36l-22.31,2.32L160.76,238.49z"/>
	<path class="st46" d="M331.05,202.82c0,0-1.77,8.28,4.53,29.93l7.95,0.33C343.52,233.08,338.89,212.98,331.05,202.82z"/>
	<path class="st46" d="M337.67,293.6l2.1,11.71c0,0,3.75-3.53,3.31-12.04L337.67,293.6z"/>
	<path class="st46" d="M187.38,306.41l9.5-1.88c0,0-5.63,7.4-7.4,8.83h-4.31L187.38,306.41z"/>
	<path class="st14" d="M136.52,269.3c0,0,3.06-7.91,8.94-10.27c0.7,4.56,1.06,8.83,1.2,12.88
		C143.33,270.18,139.96,269.16,136.52,269.3z"/>
	<path class="st14" d="M160.76,238.49c0,0,7.99-7.51,20.06-9.57c0.7,2.1,1.32,4.24,1.8,6.42c0,0-11.76,2.36-21.48,6.18
		L160.76,238.49z"/>
	<path class="st14" d="M190.69,243.35c-0.46,0.06,81.57-5.01,102.04-2.94l18.66-3.68C311.39,236.72,250.76,235.69,190.69,243.35z"/>
	<path class="st14" d="M357.55,239.26c0,0-39.06-4.45-94.42-1.66l-1.77,3.24L357.55,239.26z"/>
	<path class="st14" d="M206.3,307.1c0,0,8.69-2.65,15.61,0.29l-3.98,6.18c0,0-4.71-3.53-12.07-2.8L206.3,307.1z"/>
	<path class="st14" d="M139.45,229.8c0,0,4.12-25.16,18.94-29.36c0.97-0.25,8.81-1.89,15.96,11.54c0,0-9.28-12.87-15.29-7.62
		c-6.4,7.01-7.12,16.07-7.12,16.07S144.9,218.17,139.45,229.8z"/>
	<path class="st14" d="M328.65,198c0,0,12.96,12.22,17.37,36.81l-5.01-0.29c0,0,0.29-17.52-12.66-31.51L328.65,198z"/>
	<path class="st1" d="M235.3,343.33c0,0-21.35-3.39-1.77-39.46c0,0,6.92-9.72,12.52-11.04c0,0-0.22,12.22,24.92,13.69
		s25.88,0.29,38.25-5.45c0,0-21.06,5.15-35.04-2.36s-8.54-12.66-8.54-12.66s-15.02-1.33-7.66-9.57c0,0-7.21,0.74-16.05,10.01
		c-8.83,9.28-26.5,36.52-26.5,36.52s-8.1,13.69-1.33,20.61C220.87,350.54,235.3,343.33,235.3,343.33z"/>
	<path class="st11" d="M143.92,293.37c0,0-8.39-10.88-7.4-24.07c0,0-3.66,16.03,4.58,28.99
		C141.11,298.29,143.04,297.06,143.92,293.37z"/>
	<path class="st11" d="M145.19,301.07c0,0,1.47,4.56,8.98,6.33c0,0-0.74,10.9-5.3,12.96c-4.56,2.06-6.77-17.6-6.77-17.6
		S142.98,302.54,145.19,301.07z"/>
	<path class="st11" d="M156.68,317.56c0,0,6.92,4.86,17.67,5.6c0,0-3.68,6.18-12.37,7.21c-3.83-1.25-7.02-3.12-9.13-6.04
		L156.68,317.56z"/>
	<path class="st11" d="M156.24,335.08c0,0,5.28,7.24,16.88,8.75c2.27,0.3,4.58,0.1,6.78-0.51c3.71-1.03,10.04-3.45,17.42-8.98
		c0,0-6.77-1.47-11.48-8.98C185.83,325.36,169.19,341.26,156.24,335.08z"/>
	<path class="st11" d="M167.43,247.91c0,0-11.93,6.18-10.16,26.21c1.77,20.02,13.69,25.62,13.69,25.62s-12.07-2.06-19.58-10.31
		c0,0,4.12-9.87,0.44-30.63C151.82,258.81,153,252.18,167.43,247.91z"/>
	<path class="st11" d="M331.89,324.63c0,0,3.39-1.62,5.45-5.74c0,0-1.21,14.02-8.17,20.6C329.17,339.48,331.16,334.64,331.89,324.63
		z"/>
	<path class="st11" d="M341.17,312.55c0,0,4.12-2.06,7.51-13.99c0,0-3.57,17.15-8.19,25.73
		C340.49,324.3,341.61,317.56,341.17,312.55z"/>
	<circle class="st66" cx="210.71" cy="266.91" r="23.12"/>
	<circle class="st66" cx="210.71" cy="266.91" r="16.79"/>
	<circle class="st67" cx="211.01" cy="267.5" r="12.96"/>
	<circle class="st2" cx="211.45" cy="268.09" r="5.45"/>
	<ellipse class="st66" cx="311.57" cy="261.9" rx="20.68" ry="22.09"/>
	<ellipse class="st66" cx="311.57" cy="261.9" rx="15.02" ry="16.04"/>
	<ellipse class="st67" cx="311.84" cy="262.47" rx="11.59" ry="12.38"/>
	<ellipse class="st2" cx="312.23" cy="263.03" rx="4.87" ry="5.2"/>
	<path d="M135.18,120.85c0,0,43.63,8.94,56.02,46.19c1.8,5.4,1.27,11.38-1.66,16.25c-3.29,5.46-10.02,11.5-23.73,14.71
		c0,0,24.44-8.98,21.35-25.03C184.06,156.92,169.49,134.69,135.18,120.85z"/>
	<path d="M309.36,108.63c0,0-10.6,21.64-14.28,58.6c0,0,17.23,8.69,28.56,20.61c0,0-7.95-11.78-23.26-21.79
		C300.38,166.05,300.68,141.31,309.36,108.63z"/>
	<path class="st68" d="M160.06,236.28l-2.21-8.39c0,0,6.92-11.48,17.82-14.43c0,0,2.8,5.01,3.68,9.87
		C179.35,223.33,167.43,227.74,160.06,236.28z"/>
	<path class="st68" d="M156.68,314.91c0,0,6.18,5.3,20.47,5.01c0,0-2.94,4.42-6.63,7.21c0,0-9.94-1.62-15.09-7.51L156.68,314.91z"/>
	<path class="st68" d="M154.62,305.49c0,0-4.27-0.74-8.61-5.23c0,0-0.44,1.03-1.84,1.77c0,0,3.09,8.02,8.98,12L154.62,305.49z"/>
	<path class="st68" d="M146,285.09c0,0-0.66,3.83-1.18,5.82c0,0-7.2-7.77-8.3-21.61C136.52,269.3,137.76,278.61,146,285.09z"/>
	<path class="st68" d="M179.5,330.22c0,0,4.64,4.42,14.8,6.26c0,0,5.23-3.39,8.02-6.55c0,0-4.56-6.18-3.46-18.85
		C198.86,311.08,192.16,321.53,179.5,330.22z"/>
	<path class="st68" d="M331.71,329.49c0,0,0.11-8.28-0.11-10.93l5.41-1.88C337.01,316.68,339.55,322.2,331.71,329.49z"/>
	<path class="st68" d="M340.98,311.37c0,0,6.4-4.53,7.51-18.55l0.99-0.33c0,0-0.55,15.9-8.28,24.18L340.98,311.37z"/>
	<path class="st39" d="M362.49,290.61c0.98-4.86,1.21-12.62,1.1-20.77c0-8.5-0.42-19.6-1.77-33.34c-3.17-0.61-8.27-1.01-12.34-1.21
		c-0.65-2.18-1.16-3.77-1.83-5.74c-3.6-12.26-8.34-21.26-12.02-27.03c6.08-9.25,11.63-22.27,8.67-36.7
		c-5.77-28.05-35.27-63.17-35.27-63.17c-18.23,18.95-33.3,52.62-35.79,58.34c-0.19-0.05-0.37-0.1-0.56-0.15
		c-6.84-2.08-13.93-3.01-20.22-3.36c-3.83-0.24-7.2-0.23-9.96-0.12c-4.81,0.15-8.27,0.54-9.38,0.68c-2.18-0.09-4.31-0.1-6.4-0.04
		c-5.04,0-15.87,0.8-15.87,0.8c-23.66-26.22-49.4-40.25-74.17-47.76c0,0-19.3,62.72-16.42,88.12c1.88,16.54,10.15,27.46,15.7,33.06
		c-3.37,15.04-3.94,29.44-3.94,29.44l0.49,9.43c0.03,0.45,0.07,0.91,0.11,1.39c0,0.15,0,0.3,0,0.45c0,7.42,0.85,14.15,2.22,19.11
		c2.56,16.3,8.07,36.87,19.91,47.9c4.93,4.78,10.94,7.74,18.25,7.81c0.34,0.02,1.27,0.05,2.7-0.11c0.23-0.02,0.46-0.03,0.7-0.05
		c4.07-0.55,7.98-1.71,11.7-3.33c-0.46,0.29-0.72,0.45-0.72,0.45c1.07-0.28,2.24-0.71,3.46-1.23c0.52,0.38,1.35,0.94,2.48,1.57
		c3.24,2.11,7.48,3.59,12.52,4.46c1.82,0.38,3.79,0.7,5.95,0.92c0.2,0.14,0.42,0.28,0.63,0.42c2.86,2.11,17.22,11.8,43.13,12.96
		c3.68,0.78,7.75,1.04,12.13,0.54c14.76-1.68,23.13-5.9,24.75-6.78c4.21-1.48,7.59-3.44,10.2-5.36c3.34-2.02,6.9-4.41,8.27-5.34
		c0.72,0.44,1.53,0.71,2.39,0.84c0.79,0.2,1.64,0.27,2.51,0.18c1.5-0.16,3.06-0.51,4.58-1.13c1.13-0.39,1.87-0.73,1.87-0.73
		s-0.42,0.19-1.1,0.39c0.49-0.23,0.98-0.5,1.45-0.8c1.04-0.46,2.09-0.97,3.15-1.57c-1.12,0.71-2.29,1.38-3.51,1.98
		c0,0,2.8-0.94,6.12-3.63c6.61-4.59,13.1-12.5,17.66-25.99c4.42-12.11,5.23-22.64,5.36-24.48L362.49,290.61z"/>
	<path class="st15" d="M247.89,201.61l-12.81-11.04l3.98,7.95l-10.82-4.64l3.09,4.42l-12.15-0.44l8.17,2.21
		C227.35,200.06,237.95,197.63,247.89,201.61z"/>
	<path class="st15" d="M272.85,201.39l6.4-10.6l-1.33,7.51l11.93-7.51l-3.53,6.63l13.91-3.09l-6.4,3.53
		C293.83,197.85,279.25,198.52,272.85,201.39z"/>
	<path class="st36" d="M208.36,224.36c0,0,31.8-13.91,40.64,2.87C249,227.23,249.44,204.26,208.36,224.36z"/>
	<path class="st36" d="M278.15,225.68c0,0,6.85-21.64,34.9-4.64C313.05,221.04,288.97,210.44,278.15,225.68z"/>
	<path class="st12" d="M164.15,317.29c13.33,18.93,30.95,22.95,30.95,22.95c-40.64,24.74-52.42-19.44-52.42-19.44
		c-11.52-38.59-9.12-60.52-7.82-70.76c0.58-4.6,1.54-16.02,4.61-25.65c3.07-10.19,9.4-21.68,16.69-23.89
		c12.37-4.93,20.23,11.5,20.23,11.5c-26.18,5.75-26.86,53.25-26.86,53.25c0.17,15.72,2.94,28.23,7.04,38.16
		c0,0,31.76,3.55,57.38-8.52c25.62-12.07,36.22-17.67,36.22-17.67s-27.68,19.44-48,26.21C181.86,310.2,164.15,317.29,164.15,317.29z
		"/>
	<path class="st12" d="M324.01,292.31l25.91-0.59c-0.44,4.56-1.01,8.98-1.77,11.63C348.16,303.35,343.74,294.96,324.01,292.31z"/>
</g>
<g id="beak">
</g>
<g id="on-head">
</g>
<g id="eyebrows">
</g>
</svg>
