<svg version="1.1" xmlns="http://www.w3.org/2000/svg" xmlns:xlink="http://www.w3.org/1999/xlink" x="0px" y="0px"
	 viewBox="0 0 510.24 595.28" style="enable-background:new 0 0 510.24 595.28;" xml:space="preserve">
<g id="NEW_x5F_NESTS">
	<path class="st96" d="M109.97,380.39c-0.02-3.13,0.11-19.19,4.58-38.48c7.54-32.47,23.5-57.74,47.44-75.11
		c23.25-16.87,52.88-25.79,85.7-25.79c32.84,0,62.48,8.93,85.72,25.83c23.92,17.4,39.83,42.69,47.28,75.18
		c4.4,19.17,4.5,35.26,4.47,38.42V522.5l-275.19,1.53V380.39z"/>
	<path class="st96" d="M128.03,382.7c-0.02-3,0.09-18.32,4.34-36.92c6.91-30.27,21.2-53.57,42.46-69.26
		c19.78-14.6,44.97-22.31,72.86-22.31c27.9,0,53.1,7.73,72.87,22.34c21.24,15.71,35.47,39.03,42.3,69.31
		c4.17,18.5,4.26,33.86,4.23,36.88v131.4l-239.06,1.35V382.7z"/>
	<path class="st96" d="M146.09,382.66c-0.02-1.9,0-16.8,4.09-34.71c6.29-27.53,18.9-48.44,37.48-62.15
		c16.31-12.04,37.07-18.4,60.02-18.4c22.96,0,43.72,6.37,60.01,18.42c18.56,13.73,31.12,34.65,37.33,62.19
		c4.02,17.83,4.01,32.74,3.99,34.68v118.36l-202.93,1.15V382.66z"/>
	<path class="st96" d="M164.16,382.62c-0.01-1.35-0.05-15.45,3.84-32.5c5.66-24.79,16.6-43.31,32.51-55.04
		c12.85-9.48,29.16-14.49,47.18-14.49c18.03,0,34.33,5.01,47.16,14.5c15.88,11.74,26.77,30.27,32.36,55.06
		c3.84,17,3.77,31.07,3.75,32.49v105.32l-166.81,0.94V382.62z"/>
	<path class="st96" d="M182.22,475.6v-93.04c0,0-1.26-88.79,65.47-88.79s65.21,88.79,65.21,88.79v92.3L182.22,475.6z"/>
	<path class="st48" d="M298.35,434.17c0,0-5.52-29.37,0-58.73C298.35,375.44,303.43,403.39,298.35,434.17z"/>
	<path class="st48" d="M283.27,279.13c0,0-3.26-17.33,0-34.67C283.27,244.46,286.27,260.96,283.27,279.13z"/>
	<path class="st48" d="M212.5,307.03c0,0-3.26-17.33,0-34.67C212.5,272.36,215.5,288.86,212.5,307.03z"/>
	<path class="st48" d="M166.48,487.32c0,0-7.02-73.71,0-147.42C166.48,339.9,172.94,410.06,166.48,487.32z"/>
	<path class="st48" d="M328.13,418.02c0,0-7.02-73.71,0-147.42C328.13,270.6,334.58,340.76,328.13,418.02z"/>
	<path class="st97" d="M470.79,456.49l-0.23-19.41c-0.05-3.91-1.67-7.58-4.45-10.06c-8.91-7.93-27.18-9.12-37.27-9.12
		c-2.12,0-3.41,0.06-3.46,0.06c0,0-1.44,0.03-2.14,0.03c-14.01,0-26.7,2.39-34.8,6.41c0.03-5.35,0.04-11.58,0.04-13.47l-0.11-3.75
		c-0.1-0.54-0.24-1.04-0.43-1.51c-2.89-7.31-16.26-10.67-23.93-12.01l-0.01-3.88c19.54-3,24.32-11.21,24.81-12.17l0.32-0.61v-1.23
		l0.2-0.57l-0.2-3.05l-0.05,0c0.05-3.75,0.07-9.62,0.08-12.16c0.09-1.23-0.08-2.44-0.51-3.62c-2.52-6.87-14.18-12.07-31.19-13.93
		l-0.12,1.07l-0.42,0l0.12-1.11c-3.9-0.41-7.93-0.62-11.98-0.62c-18.41,0-39.91,4.57-43.59,14.6c-0.34,0.92-0.52,1.88-0.54,2.85
		c0,0.04,0,0.38,0,0.44c0,0.05,0,0.11,0.01,0.16l-0.12,15.62l-0.02,1.45l0.25,0.57c0.39,0.89,4.3,8.5,23.95,11.83l-0.02,4.34
		c-6.93,1.2-18.53,4.02-22.93,9.92c-6.1-0.93-12.74-1.88-20-2.75l-0.03-3.03c0.01-5.72,0.01-10.61,0.02-12.35
		c0.09-1.23-0.08-2.44-0.51-3.62c-3.68-10.03-25.17-14.6-43.59-14.6s-39.91,4.57-43.59,14.6c-0.34,0.94-0.52,1.91-0.54,2.9l0,0.1
		c0,0,0.01,0.45,0.01,0.49l-0.05,13.27l-0.04,0.01l-0.05,5.49c0,0-13.4,2.43-17.97,3.41l-0.48,0.1c-2.06,0.44-4.11,0.88-6.13,1.32
		c-1.62,0.35-3.34,0.76-5.26,1.26c-2.7-0.81-5.68-1.49-8.88-2.05l-0.13-210.98c19.13-3.07,23.82-11.15,24.31-12.1l0.32-0.61v-1.22
		l0.2-0.58l-0.2-3.05l-0.05,0c0.05-3.75,0.07-9.61,0.08-12.15c0.09-1.23-0.08-2.45-0.51-3.63c-3.68-10.03-25.17-14.6-43.59-14.6
		s-39.91,4.57-43.59,14.6c-0.34,0.92-0.52,1.88-0.54,2.85c0,0.04,0,0.2,0,0.2s0.01,0.35,0.01,0.41l-0.12,15.67l-0.02,1.41l0.25,0.57
		c0.4,0.91,4.4,8.68,24.64,11.95l-0.16,211.25c-7.73,1.34-21.19,4.69-24.1,12.04c-0.34,0.87-0.54,1.77-0.57,2.67l-0.07,0.01
		l-0.06,4.2l0.02,0.56l0.11,0.3l-0.04,6.71c-1.36-0.31-2.77-0.59-4.22-0.84l-0.09-53.14c19.11-3.07,23.8-11.15,24.28-12.1l0.32-0.61
		v-1.22l0.2-0.56l-0.21-3.07l-0.05,0c0.05-3.75,0.07-9.62,0.08-12.16c0.09-1.23-0.08-2.44-0.51-3.62
		c-3.68-10.03-25.17-14.6-43.58-14.6s-39.91,4.57-43.59,14.6c-0.34,0.92-0.52,1.88-0.54,2.85c0,0.04,0,0.19,0,0.19
		s0.01,0.35,0.01,0.41l-0.12,15.67l-0.02,1.41l0.25,0.57c0.4,0.91,4.39,8.67,24.61,11.94l-0.11,53.41
		c-5.35,0.92-10.13,2.22-13.95,3.79c-4.35,1.38-8.54,4.62-9.72,11.01l-0.04,0.23l-0.44,22.86c-0.92,2.19,447.41,40.62,451.54,35.46
		l1.12-39.05C476.35,466.08,476.23,459.99,470.79,456.49z"/>
	<rect x="104.08" y="178.72" class="st98" width="61.4" height="236.99"/>
	<rect x="35.85" y="350.19" class="st98" width="61.4" height="118.3"/>
	<path class="st99" d="M141.95,368.1c0,0-7.02-37.3,0-74.59C141.95,293.5,148.41,329,141.95,368.1z"/>
	<path class="st99" d="M191.18,437.42c0,0-3.26-11.19,0-28.53C191.18,408.89,194.18,419.25,191.18,437.42z"/>
	<path class="st99" d="M356.94,378.68c0,0-3.26-17.33,0-34.67C356.94,344.01,359.94,360.51,356.94,378.68z"/>
	<path class="st100" d="M80.38,497.73c0,0-19.44-26.8,16.93-50.5c0,0,12.37-9.42,20.91-1.47l2.36,54.48L80.38,497.73z"/>
	<path class="st100" d="M390.58,478.44c0,0,19.44-26.8-16.93-50.5c0,0-12.37-9.42-20.91-1.47l-2.36,54.48L390.58,478.44z"/>
	<g>
		<path class="st101" d="M176.1,424.33c0,0-0.03,21.39-0.16,22.87c-0.34,3.9-3.82,11.48-24.56,14.94
			c-10.74,1.79-21.73,1.81-32.45-0.13c-11.18-2.03-24.08-6.43-24.57-15.95l0.13-21.8c0,0-2.19,9.02,41.83,9.02
			C136.33,433.27,176.1,435.82,176.1,424.33z"/>
		<path class="st102" d="M175.76,421.34c3.04,7.7-14.87,14.85-40.45,14.85c-25.59,0-43.5-7.15-40.45-14.85
			c2.65-6.69,20.63-11.51,40.45-11.51C155.13,409.83,173.11,414.64,175.76,421.34z"/>
		<path class="st103" d="M99.15,454.22v-25.69c0,0,6.18,5.74,27.09,7.51v26.65C126.24,462.69,107.1,461.14,99.15,454.22z"/>
		<path class="st104" d="M176.38,423.6v23.63c0,0-2.26,8.72-10.55,10.82v-26.06C165.83,431.99,176.05,428.12,176.38,423.6z"/>
		<path class="st105" d="M132.28,462.47c0,0,17.6,0.37,29.52-3.9v-25.18c0,0-6.99,2.65-29.6,2.8L132.28,462.47z"/>
		<path class="st106" d="M145.38,436.18v25.62c0,0,4.12-0.37,8.54-1.1v-25.55C153.92,435.15,148.77,435.89,145.38,436.18z"/>
		<polygon class="st106" points="98.85,428.31 98.85,440.75 97.16,427.72 		"/>
		<path class="st107" d="M93.94,422.82c0,0,3.7,12.81,42.18,12.81s40.42-13.64,40.42-13.64v5.08c0,0-4.2,11.93-40.42,11.93
			c-37.99,0-42.24-11.98-42.24-11.98L93.94,422.82z"/>
		<path d="M93.94,422.82c0,0,3.59,12.64,44.01,12.64c35.94,0,38.6-13.47,38.6-13.47l0.17,2.48c0,0-4.42,12.53-38.87,12.53
			c-39.64,0-43.9-12.09-43.9-12.09V422.82z"/>
		<ellipse class="st108" cx="135.44" cy="422.12" rx="18.58" ry="6.4"/>
	</g>
	<path class="st109" d="M151.63,422.12c0,3.09-7.27,5.6-16.23,5.6s-16.23-2.51-16.23-5.6c0-1.55,0.18-239.93,0.18-239.93h32.13
		C151.49,182.2,151.63,419.03,151.63,422.12z"/>
	<path class="st110" d="M126.94,421.5c0,0-0.55,4.31,8.72,4.31s8.28-4.2,8.28-4.2V183.52h-17.12L126.94,421.5z"/>
	<g>
		<path class="st101" d="M385.18,409.9c0,0-0.03,21.39-0.16,22.87c-0.34,3.9-3.82,11.48-24.56,14.94
			c-10.74,1.79-21.73,1.81-32.45-0.13c-11.18-2.03-24.08-6.43-24.57-15.95l0.13-21.8c0,0-2.19,9.02,41.83,9.02
			C345.41,418.84,385.18,421.4,385.18,409.9z"/>
		<path class="st102" d="M384.84,406.91c3.04,7.7-14.87,14.85-40.45,14.85c-25.59,0-43.5-7.15-40.45-14.85
			c2.65-6.69,20.63-11.51,40.45-11.51C364.21,395.4,382.19,400.21,384.84,406.91z"/>
		<path class="st103" d="M308.23,439.79V414.1c0,0,6.18,5.74,27.09,7.51v26.65C335.32,448.26,316.18,446.71,308.23,439.79z"/>
		<path class="st104" d="M385.46,409.17v23.63c0,0-2.26,8.72-10.55,10.82v-26.06C374.91,417.56,385.12,413.69,385.46,409.17z"/>
		<path class="st105" d="M341.36,448.04c0,0,17.6,0.37,29.52-3.9v-25.18c0,0-6.99,2.65-29.6,2.8L341.36,448.04z"/>
		<path class="st106" d="M354.46,421.76v25.62c0,0,4.12-0.37,8.54-1.1v-25.55C363,420.72,357.85,421.46,354.46,421.76z"/>
		<polygon class="st106" points="307.93,413.88 307.93,426.32 306.24,413.29 		"/>
		<path class="st107" d="M303.02,408.39c0,0,3.7,12.81,42.18,12.81s40.42-13.64,40.42-13.64v5.08c0,0-4.2,11.93-40.42,11.93
			c-37.99,0-42.24-11.98-42.24-11.98L303.02,408.39z"/>
		<path d="M303.02,408.39c0,0,3.59,12.64,44.01,12.64c35.94,0,38.6-13.47,38.6-13.47l0.17,2.48c0,0-4.42,12.53-38.87,12.53
			c-39.64,0-43.9-12.09-43.9-12.09V408.39z"/>
		<ellipse class="st108" cx="344.52" cy="407.69" rx="18.58" ry="6.4"/>
	</g>
	<path class="st109" d="M360.71,407.69c0,3.09-7.27,5.6-16.23,5.6s-16.23-2.51-16.23-5.6c0-1.55,0.18-47.63,0.18-47.63h32.13
		C360.57,360.06,360.71,404.6,360.71,407.69z"/>
	<path class="st110" d="M336.02,407.07c0,0-0.55,4.31,8.72,4.31c9.28,0,8.28-4.2,8.28-4.2v-45.79h-17.12L336.02,407.07z"/>
	<path class="st101" d="M278.73,384.77c0,0-0.03,36.73-0.16,38.21c-0.34,3.9-3.82,11.48-24.56,14.94
		c-10.74,1.79-21.73,1.81-32.45-0.13c-11.18-2.03-24.08-6.43-24.57-15.95l0.13-37.14c0,0-2.19,9.02,41.83,9.02
		C238.95,393.71,278.73,396.26,278.73,384.77z"/>
	<path class="st111" d="M278.38,382.95c3.04,8.3-14.87,16.01-40.45,16.01c-25.59,0-43.5-7.71-40.45-16.01
		c2.65-7.22,20.63-12.41,40.45-12.41C257.76,370.54,275.74,375.73,278.38,382.95z"/>
	<path class="st103" d="M201.78,430v-38.36c0,0,6.18,5.74,27.09,7.51v39.31C228.87,438.47,209.73,436.92,201.78,430z"/>
	<path class="st104" d="M279,386.07v36.94c0,0-2.26,8.72-10.55,10.82v-39.37C268.46,394.46,278.67,390.6,279,386.07z"/>
	<path class="st105" d="M234.9,438.25c0,0,17.6,0.37,29.52-3.9v-38.28c0,0-6.99,3.68-29.6,3.83L234.9,438.25z"/>
	<path class="st106" d="M248.01,399.3v38.28c0,0,4.12-0.37,8.54-1.1v-38.21C256.55,398.27,251.39,399.01,248.01,399.3z"/>
	<polygon class="st106" points="201.48,391.72 201.48,416.53 199.79,390.54 	"/>
	<path class="st112" d="M196.57,398.6c0,0,3.7,12.81,42.18,12.81s40.42-13.64,40.42-13.64v5.08c0,0-4.2,11.93-40.42,11.93
		c-37.99,0-42.24-11.98-42.24-11.98L196.57,398.6z"/>
	<path d="M196.57,398.6c0,0,3.59,12.64,44.01,12.64c35.94,0,38.6-13.47,38.6-13.47l0.17,2.48c0,0-4.42,12.53-38.87,12.53
		c-39.64,0-43.9-12.09-43.9-12.09V398.6z"/>
	<path class="st107" d="M214.84,395.18c0,0-15.02-3.87-16.23-9.61c-1.21-5.74,15.46-14.02,36.99-14.02s42.85,5.74,41.52,13.36
		c0,0-15.24-12.81-53.45-7.29C193.45,381.99,214.84,395.18,214.84,395.18z"/>
	<path class="st104" d="M176.3,411.68v34.08c0,0-2.26,8.72-10.55,10.82v-39.37C165.76,417.21,175.97,416.2,176.3,411.68z"/>
	<path class="st106" d="M145.31,422.05v38.28c0,0,4.12-0.37,8.54-1.1v-38.21C153.85,421.02,148.7,421.76,145.31,422.05z"/>
	<path class="st101" d="M464.03,435.57c0,0-0.03,36.73-0.16,38.21c-0.34,3.9-3.82,11.48-24.56,14.94
		c-10.74,1.79-21.73,1.81-32.45-0.13c-11.18-2.03-24.08-6.43-24.57-15.95l0.13-37.14c0,0-2.19,9.02,41.83,9.02
		C424.25,444.5,464.03,447.06,464.03,435.57z"/>
	<path class="st111" d="M463.68,433.75c3.04,8.3-14.87,16.01-40.45,16.01c-25.59,0-43.5-7.71-40.45-16.01
		c2.65-7.22,20.63-12.41,40.45-12.41C443.06,421.34,461.04,426.53,463.68,433.75z"/>
	<path class="st103" d="M387.08,480.8v-38.36c0,0,6.18,5.74,27.09,7.51v39.31C414.17,489.26,395.03,487.72,387.08,480.8z"/>
	<path class="st104" d="M464.3,436.87v36.94c0,0-2.26,8.72-10.55,10.82v-39.37C453.76,445.26,463.97,441.39,464.3,436.87z"/>
	<path class="st105" d="M420.2,489.04c0,0,17.6,0.37,29.52-3.9v-38.28c0,0-6.99,3.68-29.6,3.83L420.2,489.04z"/>
	<path class="st106" d="M433.31,450.1v38.28c0,0,4.12-0.37,8.54-1.1v-38.21C441.85,449.07,436.7,449.8,433.31,450.1z"/>
	<polygon class="st106" points="386.78,442.53 386.78,458.27 385.09,441.78 	"/>
	<path class="st112" d="M381.87,449.4c0,0,3.7,12.81,42.18,12.81s40.42-13.64,40.42-13.64v5.08c0,0-4.2,11.93-40.42,11.93
		c-37.99,0-42.24-11.98-42.24-11.98L381.87,449.4z"/>
	<path d="M381.87,449.4c0,0,3.59,12.64,44.01,12.64c35.94,0,38.6-13.47,38.6-13.47l0.17,2.48c0,0-4.42,12.53-38.87,12.53
		c-39.64,0-43.9-12.09-43.9-12.09V449.4z"/>
	<path class="st107" d="M400.14,445.98c0,0-15.02-3.87-16.23-9.61c-1.21-5.74,15.46-14.02,36.99-14.02
		c21.53,0,42.85,5.74,41.52,13.36c0,0-15.24-12.81-53.45-7.29C378.75,432.79,400.14,445.98,400.14,445.98z"/>
	<path class="st101" d="M473.52,468.26c0,0-0.03,36.73-0.16,38.21c-0.34,3.9-3.82,11.48-24.56,14.94
		c-10.74,1.79-21.73,1.81-32.45-0.13c-11.18-2.03-24.08-6.43-24.57-15.95l0.13-37.14c0,0-2.19,9.02,41.83,9.02
		C433.75,477.19,473.52,479.75,473.52,468.26z"/>
	<path class="st111" d="M473.18,466.43c3.04,8.3-14.87,16.01-40.45,16.01c-25.59,0-43.5-7.71-40.45-16.01
		c2.65-7.22,20.63-12.41,40.45-12.41C452.56,454.02,470.54,459.22,473.18,466.43z"/>
	<path class="st103" d="M396.57,513.49v-38.36c0,0,6.18,5.74,27.09,7.51v39.31C423.66,521.95,404.52,520.41,396.57,513.49z"/>
	<path class="st104" d="M473.8,469.55v36.94c0,0-2.26,8.72-10.55,10.82v-39.37C463.25,477.95,473.47,474.08,473.8,469.55z"/>
	<path class="st105" d="M429.7,521.73c0,0,17.6,0.37,29.52-3.9v-38.28c0,0-6.99,3.68-29.6,3.83L429.7,521.73z"/>
	<path class="st113" d="M405.04,530.53c0,0,4.9-3.51,9.27-9.05c0,0-0.1-19.27-17.49-21.49c0,0-19.5,24.85-72.41,44.76l74.41-9.97
		L405.04,530.53z"/>
	<path class="st106" d="M442.81,482.79v38.28c0,0,4.12-0.37,8.54-1.1v-38.21C451.35,481.76,446.19,482.49,442.81,482.79z"/>
	<polygon class="st106" points="396.28,475.2 396.28,500.01 394.59,474.03 	"/>
	<path class="st112" d="M391.36,482.09c0,0,3.7,12.81,42.18,12.81s40.42-13.64,40.42-13.64v5.08c0,0-4.2,11.93-40.42,11.93
		c-37.99,0-42.24-11.98-42.24-11.98L391.36,482.09z"/>
	<path d="M391.36,482.09c0,0,3.59,12.64,44.01,12.64c35.94,0,38.6-13.47,38.6-13.47l0.17,2.48c0,0-4.42,12.53-38.87,12.53
		c-39.64,0-43.9-12.09-43.9-12.09V482.09z"/>
	<path class="st107" d="M409.64,478.66c0,0-15.02-3.87-16.23-9.61s15.46-14.02,36.99-14.02s42.85,5.74,41.52,13.36
		c0,0-15.24-12.81-53.45-7.29C388.25,465.47,409.64,478.66,409.64,478.66z"/>
	<g>
		<path class="st101" d="M108.08,449.95c0,0-0.03,21.39-0.16,22.87c-0.34,3.9-3.82,11.48-24.56,14.94
			c-10.74,1.79-21.73,1.81-32.45-0.13c-11.18-2.03-24.08-6.43-24.57-15.95l0.13-21.8c0,0-2.19,9.02,41.83,9.02
			C68.3,458.89,108.08,461.44,108.08,449.95z"/>
		<path class="st102" d="M107.73,446.96c3.04,7.7-14.87,14.85-40.45,14.85c-25.59,0-43.5-7.15-40.45-14.85
			c2.65-6.69,20.63-11.51,40.45-11.51C87.11,435.45,105.09,440.26,107.73,446.96z"/>
		<path class="st103" d="M31.12,479.84v-25.69c0,0,6.18,5.74,27.09,7.51v26.65C58.22,488.31,39.08,486.76,31.12,479.84z"/>
		<path class="st104" d="M108.35,449.22v23.63c0,0-2.26,8.72-10.55,10.82v-26.06C97.81,457.61,108.02,453.74,108.35,449.22z"/>
		<path class="st105" d="M64.25,488.09c0,0,17.6,0.37,29.52-3.9v-25.18c0,0-6.99,2.65-29.6,2.8L64.25,488.09z"/>
		<path class="st106" d="M77.36,461.8v25.62c0,0,4.12-0.37,8.54-1.1v-25.55C85.9,460.77,80.74,461.51,77.36,461.8z"/>
		<polygon class="st106" points="30.83,453.93 30.83,466.37 29.14,453.34 		"/>
		<path class="st107" d="M25.92,448.44c0,0,3.7,12.81,42.18,12.81s40.42-13.64,40.42-13.64v5.08c0,0-4.2,11.93-40.42,11.93
			c-37.99,0-42.24-11.98-42.24-11.98L25.92,448.44z"/>
		<path d="M25.92,448.44c0,0,3.59,12.64,44.01,12.64c35.94,0,38.6-13.47,38.6-13.47l0.17,2.48c0,0-4.42,12.53-38.87,12.53
			c-39.64,0-43.9-12.09-43.9-12.09V448.44z"/>
		<ellipse class="st108" cx="67.42" cy="447.74" rx="18.58" ry="6.4"/>
	</g>
	<path class="st109" d="M83.6,447.74c0,3.09-7.27,5.6-16.23,5.6s-16.23-2.51-16.23-5.6c0-1.55,0.18-85.91,0.18-85.91h32.13
		C83.46,361.83,83.6,444.65,83.6,447.74z"/>
	<path class="st110" d="M58.91,447.12c0,0-0.55,4.31,8.72,4.31s8.28-4.2,8.28-4.2v-84.07H58.8L58.91,447.12z"/>
	<path class="st149" d="M383.47,450.91c0.04,2.69-0.02,5.07-0.4,6.47c-1.42,5.15-5.86,12.77-18.75,20.63
		c-23.22,13.69-65.54,23.07-116.06,23.07c-49.08,0-90.42-8.85-114.03-21.91c-24.33-13.98-21.24-26.5-21.24-26.5
		s0.13,45.41,0.07,46.01c-2.43,26.75,56.41,49.88,135.19,49.88c76.1,0,133.59-21.58,135.23-47.16
		C383.6,499.66,383.47,450.91,383.47,450.91z"/>
	<path class="st150" d="M112.62,457.24c0,0,1.18,13.69,26.5,25.03c0,0,9.28,57.13,93.79,57.13l-2.21,8.83
		c0,0-80.98-3.83-117.06-25.33l-1.18-46.23L112.62,457.24z"/>
	<path class="st150" d="M383.69,457.24c0,0-1.18,13.69-26.5,25.03c0,0-9.28,57.13-93.79,57.13l2.21,8.83
		c0,0,80.98-3.83,117.06-25.33l1.18-46.23L383.69,457.24z"/>
	<path class="st151" d="M335.98,449.23c2.75,17.56-36.46,32.63-87.73,32.63s-90.48-15.07-87.73-32.63
		c2.59-16.53,41.8-29.22,87.73-29.22S333.4,432.71,335.98,449.23z"/>
	<path class="st152" d="M335.48,447.07c6.55,17.87-32,34.47-87.07,34.47c-55.06,0-93.62-16.59-87.07-34.47
		c5.7-15.54,44.39-26.71,87.07-26.71C291.09,420.36,329.78,431.53,335.48,447.07z"/>
	<g>
		<path class="st153" d="M248.41,441.59c-9.99,0-18.3,2.77-18.57,6.27c-0.28,3.61,8.03,6.62,18.57,6.62
			c10.54,0,18.86-3.01,18.57-6.62C266.71,444.36,258.4,441.59,248.41,441.59z"/>
		<g>
			<path class="st153" d="M292.56,427.98c-0.97-0.23-1.95-0.44-2.95-0.66l-30.68,13.47c1.12,0.19,2.18,0.42,3.19,0.67
				c4.69,1.16,8.15,2.91,9.4,4.96c0.27,0.44,0.45,0.88,0.51,1.34l55.8,2.47c-0.04-0.45-0.11-0.89-0.21-1.34
				c-0.08-0.35-0.15-0.69-0.27-1.04C324.53,439.35,310.91,432.27,292.56,427.98z"/>
			<path class="st153" d="M224.77,447.86c0.01-0.13,0.06-0.26,0.1-0.39c0.57-2.43,4.16-4.54,9.39-5.9c0.99-0.26,2.03-0.49,3.13-0.69
				l-25.73-14.43c-1.03,0.19-2.04,0.38-3.05,0.59c-20.56,4.16-36.1,11.66-39.13,20.82c-0.16,0.47-0.28,0.94-0.36,1.41
				c-0.08,0.45-0.13,0.9-0.15,1.34l55.89-1.81C224.77,448.49,224.74,448.18,224.77,447.86z"/>
			<path class="st153" d="M258.47,455.57c-3.06,0.5-6.45,0.79-10.06,0.79c-2.45,0-4.8-0.13-7.03-0.37
				c-1.29-0.14-2.53-0.32-3.71-0.53l-34.13,18.5c1.17,0.28,2.36,0.55,3.57,0.81c12.03,2.56,26.14,4.04,41.31,4.04
				c15.43,0,29.77-1.53,41.94-4.17c1.2-0.26,2.38-0.53,3.54-0.82l-32.01-18.92C260.81,455.15,259.66,455.37,258.47,455.57z"/>
		</g>
	</g>
	<path class="st112" d="M191.25,475.87l43.36-21.06c0,0-6.18-0.52-9.28-4.56l-75.24,3.61c0,0,12.22,21.79,20.1,25.25
		S191.25,475.87,191.25,475.87z"/>
	<path class="st112" d="M305.8,475.06L264.06,454c0,0,4.56-0.52,7.66-4.56l75.24,3.61c0,0-12.22,21.79-20.1,25.25
		C318.98,481.76,305.8,475.06,305.8,475.06z"/>
	<path class="st112" d="M239.91,440.53l-32.61-20.69l40.42-5.08c0,0,46.75,6.7,46.53,6.85c-0.22,0.15-37.62,18.77-37.62,18.77
		S249.33,439.5,239.91,440.53z"/>
	<path class="st151" d="M383.03,449.23c6.6,27.44-53.46,51.74-134.77,51.74s-141.37-24.3-134.77-51.74
		c6.01-24.99,66.14-43.67,134.77-43.67S377.01,424.24,383.03,449.23z"/>
	<path class="st111" d="M382.99,449.51c6.6,27.44-53.46,51.74-134.77,51.74s-141.37-24.3-134.77-51.74
		c6.01-24.99,66.14-43.67,134.77-43.67S376.98,424.52,382.99,449.51z M248.22,420.3c-42.68,0-81.37,11.18-87.07,26.71
		c-6.55,17.87,32,34.47,87.07,34.47c55.06,0,93.62-16.59,87.07-34.47C329.59,431.48,290.9,420.3,248.22,420.3z"/>
	<path class="st101" d="M311.85,520.6c0,0-0.03,36.73-0.16,38.21c-0.34,3.9-3.82,11.48-24.56,14.94
		c-10.74,1.79-21.73,1.81-32.45-0.13c-11.18-2.03-24.08-6.43-24.57-15.95l0.13-37.14c0,0-2.19,9.02,41.83,9.02
		C272.08,529.53,311.85,532.09,311.85,520.6z"/>
	<path class="st111" d="M311.51,518.78c3.04,8.3-14.87,16.01-40.45,16.01c-25.59,0-43.5-7.71-40.45-16.01
		c2.65-7.22,20.63-12.41,40.45-12.41C290.89,506.37,308.87,511.56,311.51,518.78z"/>
	<path class="st103" d="M234.9,565.83v-38.36c0,0,6.18,5.74,27.09,7.51v39.31C262,574.3,242.85,572.75,234.9,565.83z"/>
	<path class="st104" d="M312.13,521.9v36.94c0,0-2.26,8.72-10.55,10.82v-39.37C301.59,530.29,311.8,526.42,312.13,521.9z"/>
	<path class="st105" d="M268.03,574.07c0,0,17.6,0.37,29.52-3.9v-38.28c0,0-6.99,3.68-29.6,3.83L268.03,574.07z"/>
	<path class="st106" d="M281.14,535.13v38.28c0,0,4.12-0.37,8.54-1.1V534.1C289.68,534.1,284.52,534.84,281.14,535.13z"/>
	<polygon class="st106" points="234.61,527.55 234.61,552.36 232.92,526.37 	"/>
	<path class="st112" d="M229.7,534.43c0,0,3.7,12.81,42.18,12.81s40.42-13.64,40.42-13.64v5.08c0,0-4.2,11.93-40.42,11.93
		c-37.99,0-42.24-11.98-42.24-11.98L229.7,534.43z"/>
	<path d="M229.7,534.43c0,0,3.59,12.64,44.01,12.64c35.94,0,38.6-13.47,38.6-13.47l0.17,2.48c0,0-4.42,12.53-38.87,12.53
		c-39.64,0-43.9-12.09-43.9-12.09V534.43z"/>
	<path class="st107" d="M247.97,531.01c0,0-15.02-3.87-16.23-9.61c-1.21-5.74,15.46-14.02,36.99-14.02
		c21.53,0,42.85,5.74,41.52,13.36c0,0-15.24-12.81-53.45-7.29C226.58,517.82,247.97,531.01,247.97,531.01z"/>
	<path class="st101" d="M116.84,481.95c0,0-0.03,36.73-0.16,38.21c-0.34,3.9-3.82,11.48-24.56,14.94
		c-10.74,1.79-21.73,1.81-32.45-0.13c-11.18-2.03-24.08-6.43-24.57-15.95l0.13-37.14c0,0-2.19,9.02,41.83,9.02
		C77.06,490.88,116.84,493.44,116.84,481.95z"/>
	<path class="st111" d="M116.49,480.13c3.04,8.3-14.87,16.01-40.45,16.01c-25.59,0-43.5-7.71-40.45-16.01
		c2.65-7.22,20.63-12.41,40.45-12.41C95.87,467.72,113.85,472.91,116.49,480.13z"/>
	<path class="st103" d="M39.89,527.18v-38.36c0,0,6.18,5.74,27.09,7.51v39.31C66.98,535.64,47.84,534.1,39.89,527.18z"/>
	<path class="st104" d="M117.11,483.25v36.94c0,0-2.26,8.72-10.55,10.82v-39.37C106.57,491.64,116.78,487.77,117.11,483.25z"/>
	<path class="st105" d="M73.01,535.42c0,0,17.6,0.37,29.52-3.9v-38.28c0,0-6.99,3.68-29.6,3.83L73.01,535.42z"/>
	<path class="st106" d="M86.12,496.48v38.28c0,0,4.12-0.37,8.54-1.1v-38.21C94.66,495.45,89.51,496.18,86.12,496.48z"/>
	<polygon class="st106" points="39.59,488.9 39.59,513.71 37.9,487.72 	"/>
	<path class="st112" d="M34.68,495.78c0,0,3.7,12.81,42.18,12.81s40.42-13.64,40.42-13.64v5.08c0,0-4.2,11.93-40.42,11.93
		c-37.99,0-42.24-11.98-42.24-11.98L34.68,495.78z"/>
	<path d="M34.68,495.78c0,0,3.59,12.64,44.01,12.64c35.94,0,38.6-13.47,38.6-13.47l0.17,2.48c0,0-4.42,12.53-38.87,12.53
		c-39.64,0-43.9-12.09-43.9-12.09V495.78z"/>
	<path class="st107" d="M52.95,492.36c0,0-15.02-3.87-16.23-9.61c-1.21-5.74,15.46-14.02,36.99-14.02s42.85,5.74,41.52,13.36
		c0,0-15.24-12.81-53.45-7.29C31.56,479.17,52.95,492.36,52.95,492.36z"/>
	<path class="st154" d="M121.6,468.43c0,0-7.66-6.63-6.92-17.96c2.06-9.72,20.47-36.07,117.06-42.99
		c98.94-3.09,137.67,26.65,137.67,26.65s26.5,16.49,2.65,37.25c0,0,11.48-20.17-34.16-26.5c0,0-10.16-26.21-86.28-26.8
		c-81.57-0.74-92.32,25.77-92.32,25.77S126.02,444.58,121.6,468.43z"/>
	<path class="st107" d="M150.02,486.1c0,0,38.72,17.37,110.72,15.31c72-2.06,106.16-24.88,106.16-24.88S277.24,517.46,150.02,486.1z
		"/>
	<polygon class="st106" points="119.1,520.7 119.1,545.51 117.41,519.52 	"/>
	<g>
		<path class="st101" d="M415.22,519.6c0,0-0.03,21.39-0.16,22.87c-0.34,3.9-3.82,11.48-24.56,14.94
			c-10.74,1.79-21.73,1.81-32.45-0.13c-11.18-2.03-24.08-6.43-24.57-15.95l0.13-21.8c0,0-2.19,9.02,41.83,9.02
			C375.44,528.53,415.22,531.09,415.22,519.6z"/>
		<path class="st102" d="M414.87,516.6c3.04,7.7-14.87,14.85-40.45,14.85c-25.59,0-43.5-7.15-40.45-14.85
			c2.65-6.69,20.63-11.51,40.45-11.51C394.25,505.09,412.23,509.91,414.87,516.6z"/>
		<path class="st103" d="M338.27,549.49v-25.69c0,0,6.18,5.74,27.09,7.51v26.65C365.36,557.95,346.22,556.41,338.27,549.49z"/>
		<path class="st104" d="M415.49,518.86v23.63c0,0-2.26,8.72-10.55,10.82v-26.06C404.95,527.25,415.16,523.39,415.49,518.86z"/>
		<path class="st105" d="M371.39,557.73c0,0,17.6,0.37,29.52-3.9v-25.18c0,0-6.99,2.65-29.6,2.8L371.39,557.73z"/>
		<path class="st106" d="M384.5,531.45v25.62c0,0,4.12-0.37,8.54-1.1v-25.55C393.04,530.42,387.89,531.15,384.5,531.45z"/>
		<polygon class="st106" points="337.97,523.57 337.97,536.01 336.28,522.98 		"/>
		<path class="st107" d="M333.06,518.09c0,0,3.7,12.81,42.18,12.81s40.42-13.64,40.42-13.64v5.08c0,0-4.2,11.93-40.42,11.93
			c-37.99,0-42.24-11.98-42.24-11.98L333.06,518.09z"/>
		<path d="M333.06,518.09c0,0,3.59,12.64,44.01,12.64c35.94,0,38.6-13.47,38.6-13.47l0.17,2.48c0,0-4.42,12.53-38.87,12.53
			c-39.64,0-43.9-12.09-43.9-12.09V518.09z"/>
		<ellipse class="st108" cx="374.56" cy="517.39" rx="18.58" ry="6.4"/>
	</g>
	<path class="st109" d="M390.74,517.39c0,3.09-7.27,5.6-16.23,5.6s-16.23-2.51-16.23-5.6c0-1.55,0.18-16.53,0.18-16.53h32.13
		C390.6,500.86,390.74,514.3,390.74,517.39z"/>
	<path class="st110" d="M366.05,516.76c0,0-0.55,4.31,8.72,4.31c9.28,0,8.28-4.2,8.28-4.2v-14.69h-17.12L366.05,516.76z"/>
	<g>
		<path class="st101" d="M415.44,479.63c0,0-0.03,14.46-0.16,15.93c-6.36,8.34-20.09,11.04-40.21,11.48
			c-20.46,0.45-36.11-5.41-41.37-11.26l0.13-16.23c0,0-2.19,9.02,41.83,9.02C375.66,488.57,415.44,491.12,415.44,479.63z"/>
		<path class="st111" d="M415.1,477.81c3.04,8.3-14.87,16.01-40.45,16.01c-25.59,0-43.5-7.71-40.45-16.01
			c2.65-7.22,20.63-12.41,40.45-12.41C394.47,465.4,412.45,470.59,415.1,477.81z"/>
		<path class="st103" d="M338.49,499.76V486.5c0,0,6.18,5.74,27.09,7.51v12.81C365.58,506.82,346.44,506.68,338.49,499.76z"/>
		<path class="st104" d="M415.71,480.93v14.96c0,0-2.26,5.52-10.55,7.62v-14.19C405.17,489.32,415.38,485.45,415.71,480.93z"/>
		<path class="st105" d="M371.62,507.96c0,0,17.6,0.37,29.52-3.9v-13.14c0,0-6.99,3.68-29.6,3.83L371.62,507.96z"/>
		<path class="st106" d="M384.72,494.16v12.99c0,0,4.12-0.37,8.54-1.1v-12.92C393.26,493.13,388.11,493.87,384.72,494.16z"/>
		<polygon class="st106" points="338.19,486.58 338.19,499.87 336.5,485.4 		"/>
		<path class="st112" d="M333.28,493.46c0,0,3.7,12.81,42.18,12.81s40.42-13.64,40.42-13.64v3.98c0,0-6.35,12.37-40.42,11.71
			c-37.1-0.06-42.24-11.71-42.24-11.71L333.28,493.46z"/>
		<path d="M333.28,493.46c0,0,3.59,12.64,44.01,12.64c35.94,0,38.6-13.47,38.6-13.47l0.17,2.48c0,0-4.42,12.53-38.87,12.53
			c-39.64,0-43.9-12.09-43.9-12.09V493.46z"/>
		<path class="st107" d="M351.55,490.04c0,0-15.02-3.87-16.23-9.61c-1.21-5.74,15.46-14.02,36.99-14.02
			c21.53,0,42.85,5.74,41.52,13.36c0,0-15.24-12.81-53.45-7.29C330.16,476.85,351.55,490.04,351.55,490.04z"/>
	</g>
	<g>
		<path class="st101" d="M108.15,350.21c0,0-0.03,14.46-0.16,15.93c-6.36,8.34-20.09,11.04-40.21,11.48
			c-20.46,0.45-36.11-5.41-41.37-11.26l0.13-16.23c0,0-2.19,9.02,41.83,9.02C68.38,359.14,108.15,361.7,108.15,350.21z"/>
		<path class="st111" d="M107.81,348.39c3.04,8.3-14.87,16.01-40.45,16.01c-25.59,0-43.5-7.71-40.45-16.01
			c2.65-7.22,20.63-12.41,40.45-12.41C87.18,335.97,105.16,341.17,107.81,348.39z"/>
		<path class="st103" d="M31.2,370.33v-13.25c0,0,6.18,5.74,27.09,7.51v12.81C58.29,377.4,39.15,377.25,31.2,370.33z"/>
		<path class="st104" d="M108.43,351.5v14.96c0,0-2.26,5.52-10.55,7.62V359.9C97.88,359.9,108.09,356.03,108.43,351.5z"/>
		<path class="st105" d="M64.33,378.54c0,0,17.6,0.37,29.52-3.9V361.5c0,0-6.99,3.68-29.6,3.83L64.33,378.54z"/>
		<path class="st106" d="M77.43,364.74v12.99c0,0,4.12-0.37,8.54-1.1v-12.92C85.97,363.71,80.82,364.44,77.43,364.74z"/>
		<polygon class="st106" points="30.9,357.15 30.9,370.44 29.21,355.98 		"/>
		<path class="st112" d="M25.99,364.04c0,0,3.7,12.81,42.18,12.81s40.42-13.64,40.42-13.64v3.98c0,0-6.35,12.37-40.42,11.71
			c-37.1-0.06-42.24-11.71-42.24-11.71L25.99,364.04z"/>
		<path d="M25.99,364.04c0,0,3.59,12.64,44.01,12.64c35.94,0,38.6-13.47,38.6-13.47l0.17,2.48c0,0-4.42,12.53-38.87,12.53
			c-39.64,0-43.9-12.09-43.9-12.09V364.04z"/>
		<path class="st107" d="M44.27,360.61c0,0-15.02-3.87-16.23-9.61c-1.21-5.74,15.46-14.02,36.99-14.02s42.85,5.74,41.52,13.36
			c0,0-15.24-12.81-53.45-7.29C22.87,347.42,44.27,360.61,44.27,360.61z"/>
	</g>
	<g>
		<path class="st101" d="M176.17,166.75c0,0-0.03,14.46-0.16,15.93c-6.36,8.34-20.09,11.04-40.21,11.48
			c-20.46,0.45-36.11-5.41-41.37-11.26l0.13-16.23c0,0-2.19,9.02,41.83,9.02C136.4,175.68,176.17,178.24,176.17,166.75z"/>
		<path class="st111" d="M175.83,164.93c3.04,8.3-14.87,16.01-40.45,16.01c-25.59,0-43.5-7.71-40.45-16.01
			c2.65-7.22,20.63-12.41,40.45-12.41C155.21,152.51,173.19,157.71,175.83,164.93z"/>
		<path class="st103" d="M99.22,186.87v-13.25c0,0,6.18,5.74,27.09,7.51v12.81C126.32,193.94,107.17,193.79,99.22,186.87z"/>
		<path class="st104" d="M176.45,168.04v14.96c0,0-2.26,5.52-10.55,7.62v-14.19C165.9,176.44,176.12,172.57,176.45,168.04z"/>
		<path class="st105" d="M132.35,195.08c0,0,17.6,0.37,29.52-3.9v-13.14c0,0-6.99,3.68-29.6,3.83L132.35,195.08z"/>
		<path class="st106" d="M145.46,181.28v12.99c0,0,4.12-0.37,8.54-1.1v-12.92C154,180.25,148.84,180.98,145.46,181.28z"/>
		<polygon class="st106" points="98.93,173.69 98.93,186.98 97.24,172.52 		"/>
		<path class="st112" d="M94.01,180.58c0,0,3.7,12.81,42.18,12.81s40.42-13.64,40.42-13.64v3.98c0,0-6.35,12.37-40.42,11.71
			c-37.1-0.06-42.24-11.71-42.24-11.71L94.01,180.58z"/>
		<path d="M94.01,180.58c0,0,3.59,12.64,44.01,12.64c35.94,0,38.6-13.47,38.6-13.47l0.17,2.48c0,0-4.42,12.53-38.87,12.53
			c-39.64,0-43.9-12.09-43.9-12.09V180.58z"/>
		<path class="st107" d="M112.29,177.15c0,0-15.02-3.87-16.23-9.61c-1.21-5.74,15.46-14.02,36.99-14.02s42.85,5.74,41.52,13.36
			c0,0-15.24-12.81-53.45-7.29C90.9,163.96,112.29,177.15,112.29,177.15z"/>
	</g>
	<g>
		<path class="st101" d="M385.84,359.34c0,0-0.03,14.46-0.16,15.93c-6.36,8.34-20.09,11.04-40.21,11.48
			c-20.46,0.45-36.11-5.41-41.37-11.26l0.13-16.23c0,0-2.19,9.02,41.83,9.02C346.07,368.27,385.84,370.83,385.84,359.34z"/>
		<path class="st111" d="M385.5,357.51c3.04,8.3-14.87,16.01-40.45,16.01c-25.59,0-43.5-7.71-40.45-16.01
			c2.65-7.22,20.63-12.41,40.45-12.41C364.88,345.1,382.85,350.3,385.5,357.51z"/>
		<path class="st103" d="M308.89,379.46v-13.25c0,0,6.18,5.74,27.09,7.51v12.81C335.98,386.53,316.84,386.38,308.89,379.46z"/>
		<path class="st104" d="M386.12,360.63v14.96c0,0-2.26,5.52-10.55,7.62v-14.19C375.57,369.03,385.79,365.16,386.12,360.63z"/>
		<path class="st105" d="M342.02,387.67c0,0,17.6,0.37,29.52-3.9v-13.14c0,0-6.99,3.68-29.6,3.83L342.02,387.67z"/>
		<path class="st106" d="M355.12,373.87v12.99c0,0,4.12-0.37,8.54-1.1v-12.92C363.66,372.84,358.51,373.57,355.12,373.87z"/>
		<polygon class="st106" points="308.6,366.28 308.6,379.57 306.9,365.11 		"/>
		<path class="st112" d="M303.68,373.17c0,0,3.7,12.81,42.18,12.81s40.42-13.64,40.42-13.64v3.98c0,0-6.35,12.37-40.42,11.71
			c-37.1-0.06-42.24-11.71-42.24-11.71L303.68,373.17z"/>
		<path d="M303.68,373.17c0,0,3.59,12.64,44.01,12.64c35.94,0,38.6-13.47,38.6-13.47l0.17,2.48c0,0-4.42,12.53-38.87,12.53
			c-39.64,0-43.9-12.09-43.9-12.09V373.17z"/>
		<path class="st107" d="M321.96,369.74c0,0-15.02-3.87-16.23-9.61c-1.21-5.74,15.46-14.02,36.99-14.02
			c21.53,0,42.85,5.74,41.52,13.36c0,0-15.24-12.81-53.45-7.29C300.56,356.55,321.96,369.74,321.96,369.74z"/>
	</g>
	<path class="st101" d="M311.8,539.99c0,0,12.33-1.47,21.98-7.44c0,0,11.93,2.21,11.37,21.31c0,0-17.45,7.51-34.34,8.83
		c0.33-0.77,0.77-2.43,0.77-2.43L311.8,539.99z"/>
	<path class="st101" d="M114.46,539.29c0,0-5.52-2.43-10.93-6.96c0,0-3.87-18.88,12.7-24.63c0,0,24.18,20.32,80.06,28.93
		l-74.87,5.52L114.46,539.29z"/>
	<path class="st101" d="M196.35,513.75c0,0-0.03,36.73-0.16,38.21c-0.34,3.9-3.82,11.48-24.56,14.94
		c-10.74,1.79-21.73,1.81-32.45-0.13c-11.18-2.03-24.08-6.43-24.57-15.95l0.13-37.14c0,0-2.19,9.02,41.83,9.02
		C156.57,522.69,196.35,525.24,196.35,513.75z"/>
	<path class="st111" d="M196,511.93c3.04,8.3-14.87,16.01-40.45,16.01c-25.59,0-43.5-7.71-40.45-16.01
		c2.65-7.22,20.63-12.41,40.45-12.41C175.38,499.52,193.36,504.71,196,511.93z"/>
	<path class="st103" d="M119.39,558.98v-38.36c0,0,6.18,5.74,27.09,7.51v39.31C146.49,567.45,127.35,565.9,119.39,558.98z"/>
	<path class="st104" d="M196.62,515.05v36.94c0,0-2.26,8.72-10.55,10.82v-39.37C186.08,523.44,196.29,519.58,196.62,515.05z"/>
	<path class="st105" d="M152.52,567.23c0,0,17.6,0.37,29.52-3.9v-38.28c0,0-6.99,3.68-29.6,3.83L152.52,567.23z"/>
	<path class="st106" d="M165.63,528.28v38.28c0,0,4.12-0.37,8.54-1.1v-38.21C174.17,527.25,169.01,527.99,165.63,528.28z"/>
	<path class="st112" d="M114.19,527.58c0,0,3.7,12.81,42.18,12.81s40.42-13.64,40.42-13.64v5.08c0,0-4.2,11.93-40.42,11.93
		c-37.99,0-42.24-11.98-42.24-11.98L114.19,527.58z"/>
	<path d="M114.19,527.58c0,0,3.59,12.64,44.01,12.64c35.94,0,38.6-13.47,38.6-13.47l0.17,2.48c0,0-4.42,12.53-38.87,12.53
		c-39.64,0-43.9-12.09-43.9-12.09V527.58z"/>
	<path class="st107" d="M132.46,524.16c0,0-15.02-3.87-16.23-9.61c-1.21-5.74,15.46-14.02,36.99-14.02s42.85,5.74,41.52,13.36
		c0,0-15.24-12.81-53.45-7.29C111.07,510.97,132.46,524.16,132.46,524.16z"/>
	<path class="st101" d="M230.19,540.61c0,0-13.58,0.33-33.9-3.98c0,0-8.28,8.39-6.52,24.29c0,0,13.58,4.31,43.84,4.31
		C234.41,552.44,232.9,545.1,230.19,540.61z"/>
	<path class="st104" d="M189.78,560.93c0,0,18.11,5.08,43.84,4.31l-0.11-8.72c0,0-21.09,1.33-43.62-4.86
		C189.89,551.66,189.22,556.85,189.78,560.93z"/>
	<path class="st104" d="M310.81,562.7c0,0,21.98-2.43,34.34-8.83c0,0-0.22-5.74-1.1-9.61c0,0-14.91,8.83-32.13,9.61v4.94
		C311.91,558.81,311.8,561.26,310.81,562.7z"/>
	<path class="st104" d="M103.53,532.33c0,0,8.17,5.3,10.93,6.96v-13.03c0,0-5.96-2.87-9.61-7.95
		C104.85,518.31,101.65,525.6,103.53,532.33z"/>
	<path class="st103" d="M194.41,539.29c0,0,17.12,4.2,37.1,4.64l-1.33-3.31c0,0-16.67,0.11-33.9-3.98L194.41,539.29z"/>
	<path class="st103" d="M311.8,539.99c0,0,14.8-1.69,21.98-7.44c0,0,2.1,0.33,4.31,1.88c0,0-1.44,4.75-26.06,9.83L311.8,539.99z"/>
	<path class="st156" d="M193.09,551.55c0,0,0.44-6.07,3.31-10.16c0,0,11.6,2.43,27.94,3.42c0,0,0.77,5.3,0.44,10.82
		C224.78,555.63,206.01,555.3,193.09,551.55z"/>
	<path class="st156" d="M315.33,544.7c0,0,1.77,2.87,2.21,7.73c0,0,12.04-1.77,22.31-7.29c0,0-0.88-4.2-5.08-6.63
		C334.77,538.52,326.71,542.49,315.33,544.7z"/>
	<path class="st156" d="M107.06,518.86l5.08,4.42l-0.5-11.76C111.65,511.52,107.62,515.88,107.06,518.86z"/>
	<path d="M112.25,474.84l0.22-22.16c0,0-0.66-42.92,133.77-47.34c0,0,38-0.4,74.45,7.51c25.49,5.53,50.18,14.76,61.23,32.21
		l0.04-5.04c0,0-4.71-8.58-23.45-18.06c-17.89-9.05-42.68-14.53-84.59-19.2c-1.76-0.2-3.54-0.34-5.31-0.41
		c-46.71-1.89-73.79,3.85-98.9,9.31c-10.62,2.31-20.97,5.79-30.73,10.58c-13.95,6.85-29.01,17.28-29.01,30.29v20.91L112.25,474.84z"
		/>
	<path d="M133.6,501.19c0,0-19.33,3.09-19.33,13.33l-0.11,36.52c0,0-0.63,12.18,25.77,16.27c28.49,4.56,47.85-3.98,49.62-5.89
		c0,0,21.28,4.86,44.17,4.2c0,0,10.23,10.82,42.4,9.57c30.18-1.47,34.45-12.22,34.45-12.22s17.52-1.4,34.53-8.83l3.46,1.25
		c0,0-13.91,7.07-36.29,9.86c0,0-5.23,12.04-36.37,13.31c-20.6,1.05-37.18-3.59-43.21-9.99c0,0-21.72,0.99-42.63-3.9
		c0,0-16.09,10.8-49.84,5.89c-30.48-3.68-29.23-19.07-29.23-19.07v-36.66C111,514.81,109.38,505.53,133.6,501.19z"/>
	<path d="M345.11,554.12c0,0,19.08,6.8,39.74,4.38c20.26-2.37,30.09-9.06,30.31-15.52l0.55-25.45c0,0,1.49-5.96-18.5-10.88
		c0,0,13.71-0.26,20.04,7.87c0.67,0.86,0.99,1.95,0.99,3.04l-0.16,24.15c0,0,2.76,13.09-25.56,18.72
		c-23.8,4.2-41.36-1.33-50.13-4.47L345.11,554.12z"/>
	<path d="M417.26,521.84c0,0,21.64,4.2,40.2-2.21c16.86-5.56,15.91-13.17,15.91-13.17l0.43-38.69c0,0,0.88-8.1-23.04-12.88
		c0,0,19.45,0.38,24.69,9.26c0.68,1.16,1,2.5,1,3.84v38.66c0,2.12-0.61,4.21-1.82,5.94c-2.17,3.1-6.9,7.29-17.17,10.11
		c-21.5,5.89-39.98,2.06-39.98,2.06L417.26,521.84z"/>
	<path d="M381.92,445.06c0,0,2.5,4.93,1.99,10.16l-0.15,10.01l2.43,0.18l0.11-12.63c0,0,0.18-6.37-4.34-12.77l-2.83-0.26
		L381.92,445.06z"/>
	<path d="M112.03,538.46c0,0-6.4-3.48-8.67-5.74c0,0-20.48,6.85-41.25,2.98c-19.71-3.09-27.33-10.44-27.5-16.51
		c0,0,0.17-37.71,0.33-37.88c0.17-0.17-0.22-8.78,23.3-12.64c0,0-21.98,0.61-25.79,12.53v38.21c0,0-1.66,10.55,18.5,16.45
		s39.31,3.2,52.01-0.17l8.83,5.96L112.03,538.46z"/>
	<path d="M108.65,472.92l0.07-24.15c0,0,0.74-5.08-11.04-9.35c0,0,10.31,1.69,13.47,7.21l0.29,27.61L108.65,472.92z"/>
	<path d="M32.97,481.98c0,0-6.92-4.27-6.99-9.87s0-23.04,0-23.04s0.07-5.96,10.67-9.42c0,0-11.56,2.58-12.81,9.35l-0.44,22.9
		c0,0-1.84,6.11,9.79,13.69L32.97,481.98z"/>
	<path d="M464.3,457.98l-0.07-23.41c0,0-1.33-12.07-38.72-13.77c0,0,27.9-1.3,38.72,8.34c2.26,2.01,3.46,4.95,3.5,7.97l0.26,21.82
		L464.3,457.98z"/>
	<path class="st18" d="M183.15,494.57c0,0,18.88,5.63,76.42,5.63c0,0,27.61-0.33,54.33-5.41c0,0-2.21-1.21-5.19-0.77
		c0,0-20.76,3.98-54.55,3.98s-60.29-3.53-60.29-3.53S187.35,493.24,183.15,494.57z"/>
	<path class="st18" d="M141.96,525.82c0,0,20.21,2.43,36.77-1.55c0,0,6.96-1.55,11.6-4.31c0,0-3.2-0.22-5.63,0.55
		C184.7,520.52,167.69,527.36,141.96,525.82z"/>
	<path class="st18" d="M222.79,396.69c0,0,20.21,2.43,36.77-1.55c0,0,6.96-1.55,11.6-4.31c0,0-3.2-0.22-5.63,0.55
		C265.53,391.39,248.52,398.23,222.79,396.69z"/>
	<path class="st18" d="M329.69,371.22c0,0,20.21,2.43,36.77-1.55c0,0,6.96-1.55,11.6-4.31c0,0-3.2-0.22-5.63,0.55
		C372.43,365.91,355.42,372.76,329.69,371.22z"/>
	<path class="st18" d="M409.05,446.75c0,0,20.21,2.43,36.77-1.55c0,0,6.96-1.55,11.6-4.31c0,0-3.2-0.22-5.63,0.55
		C451.79,441.45,434.78,448.3,409.05,446.75z"/>
	<path class="st18" d="M417.59,479.73c0,0,20.21,2.43,36.77-1.55c0,0,6.96-1.55,11.6-4.31c0,0-3.2-0.22-5.63,0.55
		C460.33,474.43,443.32,481.28,417.59,479.73z"/>
	<path class="st18" d="M256.36,532.77c0,0,20.21,2.43,36.77-1.55c0,0,6.96-1.55,11.6-4.31c0,0-3.2-0.22-5.63,0.55
		C299.1,527.47,282.09,534.32,256.36,532.77z"/>
	<path class="st18" d="M359.39,491.69c0,0,20.21,2.43,36.77-1.55c0,0,6.96-1.55,11.6-4.31c0,0-3.2-0.22-5.63,0.55
		C402.13,486.39,385.12,493.24,359.39,491.69z"/>
	<path class="st18" d="M61.46,494.01c0,0,20.21,2.43,36.77-1.55c0,0,6.96-1.55,11.6-4.31c0,0-3.2-0.22-5.63,0.55
		C104.19,488.71,87.19,495.56,61.46,494.01z"/>
	<path class="st18" d="M52.33,361.64c0,0,20.21,2.43,36.77-1.55c0,0,6.96-1.55,11.6-4.31c0,0-3.2-0.22-5.63,0.55
		C95.06,356.34,78.06,363.19,52.33,361.64z"/>
	<path class="st18" d="M120.06,178.18c0,0,20.21,2.43,36.77-1.55c0,0,6.96-1.55,11.6-4.31c0,0-3.2-0.22-5.63,0.55
		C162.79,172.88,145.79,179.73,120.06,178.18z"/>
	<path class="st18" d="M134.67,417.69L134.67,417.69c-0.55,0-0.99-0.45-0.99-0.99V198.49c0-0.55,0.45-0.99,0.99-0.99h0
		c0.55,0,0.99,0.45,0.99,0.99V416.7C135.66,417.25,135.22,417.69,134.67,417.69z"/>
	<path class="st18" d="M68.56,448.17h-2.5c-1.56,0-2.83-1.28-2.83-2.83v-59.26c0-1.56,1.28-2.83,2.83-2.83h2.5
		c1.56,0,2.83,1.28,2.83,2.83v59.26C71.39,446.9,70.12,448.17,68.56,448.17z"/>
	<path class="st18" d="M344.93,409.08L344.93,409.08c-1.03,0-1.88-0.84-1.88-1.88v-17.23c0-1.03,0.84-1.88,1.88-1.88h0
		c1.03,0,1.88,0.84,1.88,1.88v17.23C346.81,408.24,345.96,409.08,344.93,409.08z"/>
	<path class="st18" d="M375.08,519.29L375.08,519.29c-1.09,0-1.99-0.89-1.99-1.99v-6.63c0-1.09,0.89-1.99,1.99-1.99l0,0
		c1.09,0,1.99,0.89,1.99,1.99v6.63C377.06,518.39,376.17,519.29,375.08,519.29z"/>
	<path class="st150" d="M196.79,528.29c0,0,14.82,6.46,32.91,6.46l-0.17,5.41c0,0-12.33,0.82-32.69-3.87L196.79,528.29z"/>
</g>
<g id="tail">
</g>
<g id="body">
</g>
<g id="head">
</g>
<g id="accessory">
</g>
<g id="right-wing">
</g>
<g id="eyes">
</g>
<g id="beak">
</g>
<g id="on-head">
</g>
<g id="eyebrows">
</g>
<g id="BIRD_x5F_1">
</g>
</svg>
