<svg version="1.1" id="ALL" xmlns="http://www.w3.org/2000/svg" xmlns:xlink="http://www.w3.org/1999/xlink" x="0px" y="0px"
	 viewBox="0 0 510.24 595.28" style="enable-background:new 0 0 510.24 595.28;" xml:space="preserve">
<style type="text/css">
	.st0{fill:#5D2D16;}
	.st1{fill:#7A3A2B;}
	.st2{fill:#C5743C;}
	.st3{fill:#C37D46;}
	.st4{fill:#526D32;}
	.st5{fill:#639916;}
	.st6{opacity:0.5;}
	.st7{fill:#83C121;}
	.st8{fill:#BAAB3F;}
	.st9{fill:#A57044;}
	.st10{fill:#B78253;}
	.st11{fill:#7F5038;}
	.st12{fill:#DA211E;}
	.st13{fill:#A80000;}
	.st14{fill:#F42A2A;}
	.st15{fill:#720000;}
	.st16{fill:#E5E7EA;}
	.st17{fill:#CBC8C3;}
	.st18{fill:#B2ACA4;}
	.st19{fill:#B2B6B7;}
	.st20{fill:#E88D0A;}
	.st21{fill:#963600;}
	.st22{fill:#FFD664;}
	.st23{fill:#FFFFFF;}
	.st24{fill:#510E0E;}
	.st25{fill:#D1B8A1;}
	.st26{fill:#3F4042;}
	.st27{fill:#EFEEED;}
	.st28{fill:#965632;}
	.st29{fill:#9E7954;}
	.st30{fill:#C69F6B;}
	.st31{fill:#B7AFA7;}
	.st32{fill:#84330F;}
	.st33{fill:#B3B0A1;}
	.st34{fill:#663E1D;}
	.st35{fill:#AA5B21;}
	.st36{fill:#682A00;}
	.st37{fill:#CC0000;}
	.st38{fill:#880000;}
	.st39{fill:#1BBDEF;}
	.st40{fill:#83FFFF;}
	.st41{fill:#D7FFFE;}
	.st42{fill:#C6541A;}
	.st43{fill:#8C3610;}
	.st44{fill:#D86C00;}
	.st45{fill:#F2790A;}
	.st46{fill:#F2B30A;}
	.st47{fill:#1A2B0E;}
	.st48{fill:#F78F1E;}
	.st49{fill:#FFD683;}
	.st50{fill:#FFBD48;}
	.st51{fill:#87FFFF;}
	.st52{fill:#FFCC00;}
	.st53{fill:#5B1E06;}
	.st54{fill:#30541A;}
	.st55{fill:#35720E;}
	.st56{fill:#9E3612;}
	.st57{fill:#48AA09;}
	.st58{fill:#FFA200;}
	.st59{fill:#C1006A;}
	.st60{fill:#7B2322;}
	.st61{fill:#D30056;}
	.st62{fill:#680E37;}
	.st63{fill:#7C193A;}
	.st64{fill:#FF2C72;}
	.st65{fill:#FF5A8D;}
	.st66{fill:#FF48D6;}
	.st67{fill:#FF6D9F;}
	.st68{fill:#E88725;}
	.st69{fill:#E8B425;}
	.st70{fill:#FFD15F;}
	.st71{fill:#893A28;}
	.st72{fill:#FFFF42;}
	.st73{fill:#2C7A3C;}
	.st74{fill:#295B31;}
	.st75{fill:#3BC458;}
	.st76{fill:#5E4031;}
	.st77{fill:#605F33;}
	.st78{fill:#82804A;}
	.st79{fill:#82533F;}
	.st80{fill:#A06955;}
	.st81{fill:#444332;}
	.st82{fill:#66686B;}
	.st83{fill:#B7AF51;}
	.st84{fill:#47462C;}
	.st85{fill:#C17B5D;}
	.st86{fill:#FFD346;}
	.st87{fill:#F7A800;}
	.st88{fill:#ED7601;}
	.st89{fill:#FFE18D;}
	.st90{fill:#FFB857;}
	.st91{fill:#8B9BAF;}
	.st92{fill:#9DC2EA;}
	.st93{fill:#AA0000;}
	.st94{fill:#EF7F22;}
	.st95{fill:#C17E3A;}
	.st96{fill:#82562E;}
	.st97{fill:#542906;}
	.st98{fill:#CE6B13;}
	.st99{fill:#FF9536;}
	.st100{fill:#FFD55F;}
	.st101{fill:#A85007;}
	.st102{fill:#E29652;}
	.st103{fill:#FFA861;}
	.st104{fill:#FF0000;}
	.st105{fill:#5DE7FF;}
	.st106{fill:#32323A;}
	.st107{fill:#D6CBBF;}
	.st108{fill:#EBE0CE;}
	.st109{fill:#E28F01;}
	.st110{fill:#C94727;}
	.st111{fill:#7A2413;}
	.st112{fill:#3B454C;}
	.st113{fill:#5B676D;}
	.st114{fill:#DD5D05;}
	.st115{fill:#FF8939;}
	.st116{fill:#FFF6E9;}
	.st117{fill:#FFCE00;}
	.st118{fill:#C59648;}
	.st119{fill:#936135;}
	.st120{fill:#FCB072;}
	.st121{fill:#CC7E52;}
	.st122{fill:#8E624C;}
	.st123{fill:#AC1212;}
	.st124{fill:#E5231A;}
	.st125{fill:#318D8A;}
	.st126{fill:#F4A32C;}
	.st127{fill:#FFC06C;}
	.st128{fill:#B5720F;}
	.st129{fill:#FFD1AE;}
	.st130{fill:#C4CCCE;}
	.st131{fill:#1F2023;}
	.st132{fill:#E3E5E5;}
	.st133{fill:#3F4144;}
	.st134{fill:#7C0D0D;}
	.st135{fill:#AEB7BA;}
	.st136{fill:#8A909E;}
	.st137{fill:#AA7B57;}
	.st138{fill:#B78570;}
	.st139{fill:#6E7E8E;}
	.st140{fill:#4B5D6B;}
	.st141{fill:#76797C;}
	.st142{fill:#FFCEA9;}
	.st143{fill:#BF744F;}
	.st144{fill:#FCC068;}
	.st145{fill:#D7DFE2;}
	.st146{fill:#7A8E93;}
	.st147{fill:#FF6161;}
	.st148{fill:#EFD5B6;}
	.st149{fill:#505356;}
	.st150{fill:#AAAAAA;}
	.st151{fill:#8E7C6F;}
	.st152{fill:#747B84;}
	.st153{fill:#EDD5C0;}
	.st154{fill:#A0805A;}
	.st155{fill:#725D46;}
	.st156{fill:#AA6333;}
	.st157{fill:#DBC09E;}
	.st158{fill:#6D4029;}
	.st159{fill:#826341;}
	.st160{fill:#E08032;}
	.st161{fill:#AF520C;}
	.st162{fill:#891313;}
	.st163{fill:#B73030;}
	.st164{fill:#E84242;}
	.st165{fill:#562708;}
	.st166{fill:#FFBE71;}
	.st167{fill:#603429;}
	.st168{fill:#FFA124;}
	.st169{fill:#696C70;}
	.st170{fill:#50555B;}
	.st171{fill:#8C9196;}
	.st172{fill:#E0E0E0;}
	.st173{fill:#FF4A4A;}
	.st174{fill:#607F91;}
	.st175{fill:#C3D3DD;}
	.st176{fill:#8BA1AF;}
	.st177{fill:#60A0BA;}
	.st178{fill:#6088AD;}
	.st179{fill:#4A7493;}
	.st180{fill:#696389;}
	.st181{fill:#4663A3;}
	.st182{fill:#AEE6FF;}
	.st183{fill:#54A7CC;}
	.st184{fill:#4BB9E0;}
	.st185{fill:#4F4B75;}
	.st186{fill:#542E15;}
	.st187{fill:#6D3516;}
	.st188{fill:#68472B;}
	.st189{fill:#AF6D37;}
	.st190{fill:#3A2E2C;}
	.st191{fill:#663418;}
	.st192{fill:#915436;}
	.st193{fill:#B57255;}
	.st194{fill:#F28B3D;}
	.st195{fill:#56829B;}
	.st196{fill:#85B5D6;}
	.st197{fill:#B7D8EA;}
	.st198{fill:#3B6375;}
	.st199{fill:#5C6466;}
	.st200{fill:#FF5A20;}
	.st201{fill:#37454F;}
	.st202{fill:#202528;}
	.st203{fill:#566772;}
	.st204{fill:#69838E;}
	.st205{fill:#415156;}
	.st206{fill:#8E999B;}
	.st207{fill:#FF9A7B;}
	.st208{fill:#5B4F49;}
	.st209{fill:#6B5146;}
	.st210{fill:#924B2F;}
	.st211{fill:#A56F5B;}
	.st212{fill:#6B4A40;}
	.st213{fill:#FFD469;}
	.st214{fill:#7D8389;}
	.st215{fill:#B3B5BC;}
	.st216{fill:#92C6EA;}
	.st217{fill:#D3A12F;}
	.st218{fill:#3353A3;}
	.st219{fill:#2D4068;}
	.st220{fill:#09425B;}
	.st221{fill:#FF4800;}
	.st222{fill:#32697C;}
	.st223{fill:#A8E0EF;}
	.st224{fill:#71C0DB;}
	.st225{fill:#6089C6;}
	.st226{fill:#009311;}
	.st227{fill:#08FF2E;}
	.st228{fill:#536D54;}
	.st229{fill:#C84229;}
	.st230{fill:#FF4229;}
	.st231{fill:#C85529;}
	.st232{fill:#FF5529;}
	.st233{fill:#B96829;}
	.st234{fill:#FF6829;}
	.st235{fill:#A48929;}
	.st236{fill:#FF8929;}
	.st237{fill:#A4CC29;}
	.st238{fill:#FFCC29;}
	.st239{fill:#00CE31;}
	.st240{fill:#A1CE31;}
	.st241{fill:#FFFF2E;}
	.st242{fill:#BBEDFF;}
	.st243{fill:#A9E7FF;}
	.st244{fill:#475572;}
	.st245{fill:#FF680C;}
	.st246{fill:#FFFF0C;}
	.st247{fill:#348AA5;}
	.st248{fill:#16638E;}
	.st249{opacity:0.15;fill:#FFFF0C;}
	.st250{opacity:0.15;fill:#71F0DC;}
	.st251{opacity:0.3;fill:#71F0DC;}
	.st252{fill:#80A9B2;}
	.st253{fill:#88E6FF;}
	.st254{fill:#5376A0;}
	.st255{fill:#6D9DCC;}
	.st256{fill:#90B4D3;}
	.st257{fill:#B7B4A7;}
	.st258{fill:#20314F;}
	.st259{fill:#FFD808;}
	.st260{fill:#CCCC6E;}
	.st261{fill:#A5C2D3;}
	.st262{fill:#FF8710;}
	.st263{fill:#C45800;}
	.st264{fill:#2791CC;}
	.st265{fill:#A01717;}
	.st266{fill:#E51717;}
	.st267{fill:#C90D0D;}
	.st268{fill:#FF7171;}
	.st269{fill:#FFB428;}
	.st270{fill:#BC0F0F;}
	.st271{fill:#F76A00;}
	.st272{fill:#C14000;}
	.st273{fill:#AA2800;}
	.st274{fill:#FFAB31;}
	.st275{fill:#F7C27C;}
	.st276{fill:#560D0D;}
	.st277{fill:#960202;}
	.st278{fill:#700F0F;}
	.st279{fill:#CC5200;}
	.st280{fill:#951717;}
	.st281{fill:#71F0DC;}
	.st282{opacity:0.37;fill:#FFFFFF;}
	.st283{opacity:0.5;fill:#A7FFFF;}
	.st284{fill:#FFEB38;}
	.st285{fill:#304777;}
	.st286{fill:#03EDFF;}
	.st287{opacity:0.3;}
	.st288{opacity:0.2;}
	.st289{fill:#74A1B5;}
	.st290{fill:#33F5FF;}
	.st291{opacity:0.3;fill:#33F5FF;}
	.st292{fill:#99FFFF;}
	.st293{fill:#FCF9D9;}
	.st294{fill:#546077;}
	.st295{fill:#E5E1A8;}
	.st296{fill:#478461;}
	.st297{fill:#D3B5A5;}
	.st298{fill:#DE4400;}
	.st299{fill:#F77991;}
	.st300{fill:#FFDCE0;}
	.st301{fill:#663E20;}
	.st302{fill:#9B5D3B;}
	.st303{fill:#3F2D27;}
	.st304{fill:#DBB06B;}
	.st305{fill:#AF834F;}
	.st306{fill:#493B33;}
	.st307{fill:#81574A;}
	.st308{fill:#CC9933;}
	.st309{fill:#FFFF93;}
	.st310{fill:#D1993F;}
	.st311{fill:#D1AA66;}
	.st312{opacity:0.2;fill:#FFFF93;}
	.st313{opacity:0.1;fill:#FFFF93;}
	.st314{opacity:0.1;fill:#FFFF89;}
	.st315{opacity:0.7;}
	.st316{fill:#BC874D;}
	.st317{opacity:0.4;fill:#444951;}
	.st318{opacity:0.3;fill:#373944;}
	.st319{fill:#775742;}
	.st320{opacity:0.5;fill:#444951;}
	.st321{fill:#969436;}
	.st322{fill:#4C3529;}
	.st323{fill:#D8A355;}
	.st324{fill:#FFD578;}
	.st325{opacity:0.4;fill:#FFD578;}
	.st326{fill:#A79253;}
	.st327{fill:#CBAC4E;}
	.st328{fill:#5E4F2A;}
	.st329{opacity:0.6;fill:#52575E;}
	.st330{fill:#E5CF4A;}
	.st331{opacity:0.6;}
	.st332{fill:#444951;}
	.st333{fill:#1D1D1D;}
	.st334{fill:#1D1D1B;}
	.st335{fill:#D38C54;}
	.st336{fill:#B4FFFF;}
	.st337{opacity:0.4;fill:#FFFFFF;}
	.st338{opacity:0.7;fill:#7A3A2B;}
	.st339{fill:#D3AF85;}
	.st340{fill:#F9CB9D;}
	.st341{opacity:0.6;fill:#5D2D16;}
	.st342{opacity:0.29;fill:#5D2D16;}
	.st343{fill:#4F3220;}
	.st344{fill:#775542;}
	.st345{fill:#E2C54C;}
	.st346{fill:#F2E8B3;}
	.st347{fill:#F7F8F6;}
	.st348{fill:#976616;}
	.st349{fill:#6F3B0C;}
	.st350{fill:#5A0C0C;}
	.st351{opacity:0.44;}
	.st352{opacity:0.46;fill:#350B00;}
	.st353{fill:#B1B4B9;}
	.st354{fill:#B1B4A5;}
	.st355{fill:#C9CACC;}
	.st356{fill:#E9EAEC;}
	.st357{opacity:0.5;fill:#E9EAEC;}
	.st358{opacity:0.4;fill:#E9EAEC;}
	.st359{opacity:0.7;fill:#FFFFFF;}
	.st360{opacity:0.5;fill:#FFFFFF;}
</style>
<path d="M353.6,542.29c-3.29,0-6.45-1.24-8.94-3.5c-2.49,2.26-5.66,3.5-8.95,3.5c-7.54,0-13.67-6.4-13.67-14.27
	c0-0.99-0.24-10.37-0.69-27.26l-0.07,3.88l-0.18-0.07c-0.67,14.2-1.03,22.11-1.03,22.9c0,7.87-6.13,14.27-13.67,14.27
	c-3.29,0-6.45-1.24-8.95-3.5c-2.49,2.26-5.66,3.5-8.94,3.5c-4.39,0-8.52-2.22-11.09-5.95c-2.21,0.87-4.58,1.14-6.89,0.78
	c-4.64-0.72-8.52-3.84-10.38-8.34c-0.11-0.26-0.22-0.54-0.32-0.82l-0.04-0.12c-0.56-1.6-0.85-3.25-0.85-4.91
	c0-5.16,2.69-9.94,7.01-12.46c2.82-1.64,4.17-4.86,3.28-7.83c-6.63-22.25-1.79-46.77,0.64-56.42c-1.95-2.38-3.01-4.39-2.98-5.69
	c0.1-4.78,3.51-7.57,4.42-8.23c-3.2-4.43-4.01-8.91-2.43-13.32c-4.84-7.21-7.21-15.45-6.85-23.85c0.17-4.09,0.99-8.16,2.43-12.11
	l0.08-0.26c0.05-0.17,0.1-0.33,0.15-0.5c1.2-3.42,2.82-6.65,4.83-9.61c-4.12-1.51-9.17-4.67-10.58-11.24
	c-1.36-6.37,1.25-14.01,6.35-18.57c4.85-4.34,11.22-5.49,17.94-3.25c1.75,0.58,3.23,1.43,4.42,2.53c2.17-1.46,4.43-2.77,6.71-3.92
	c3.52-5.58,10.5-15.58,18.01-20.26c7.07-4.41,22.1-5.4,34.97-2.31c8.36,2.01,14.38,5.46,16.94,9.71c1.71,2.84,2.06,5.07,1.05,6.62
	c-1.97,3-8.45,2.63-12.14,2.15c-0.21-0.02-0.4-0.04-0.59-0.06c1.22,1.13,3.24,3.96,4.25,10.77c0.78-0.45,1.64-0.84,2.56-1.14
	c6.72-2.24,13.09-1.08,17.94,3.25c5.1,4.56,7.71,12.2,6.35,18.57c-1.48,6.92-6.96,10.09-11.43,11.53
	c7.62,14.27,1.8,29.74,0.92,31.91c3.25,1.34,6.32,2.91,9.14,4.67c2.18-1.62,4.73-2.47,7.38-2.47c7.08,0,12.84,6.06,12.84,13.5
	c0,3.07-1,6.06-2.83,8.45c0.77,1.87,1.34,3.63,1.81,5.54c0.42,1.22,10.36,30.6,2.78,57.05c-0.77,2.71,0.48,5.62,3.06,7.09
	c3.98,2.26,6.48,6.6,6.53,11.32c0.02,1.52-0.23,3.03-0.73,4.5v0l-0.04,0.1c-0.09,0.25-0.18,0.5-0.28,0.75
	c-1.65,4.13-5.17,7.02-9.41,7.73c-2.1,0.35-4.28,0.13-6.29-0.64c-2.31,3.43-6.07,5.49-10.07,5.53c-1.98,0.02-3.98-0.47-5.77-1.42
	c-2.05,3.83-5.59,6.38-9.75,7.03c-2.31,0.36-4.69,0.09-6.89-0.78C362.12,540.07,357.99,542.29,353.6,542.29z M344.66,538.1
	l0.17,0.16c2.42,2.27,5.54,3.52,8.77,3.52c4.29,0,8.32-2.2,10.79-5.9l0.11-0.17l0.19,0.08c2.17,0.9,4.53,1.19,6.81,0.83
	c4.08-0.64,7.55-3.19,9.5-6.99l0.12-0.23l0.23,0.13c1.8,1.01,3.74,1.51,5.74,1.48c3.91-0.04,7.56-2.09,9.77-5.48l0.11-0.17
	l0.19,0.08c1.99,0.8,4.14,1.04,6.22,0.69c4.06-0.68,7.44-3.45,9.02-7.42c0.1-0.24,0.19-0.48,0.27-0.73l0.02-0.06
	c0.5-1.46,0.73-2.92,0.72-4.38c-0.05-4.54-2.45-8.72-6.28-10.89c-2.78-1.58-4.13-4.73-3.29-7.66c7.53-26.3-2.35-55.54-2.78-56.77
	c-0.47-1.92-1.05-3.67-1.82-5.54l-0.05-0.13l0.06-0.19c1.81-2.32,2.81-5.25,2.81-8.26c0-7.17-5.54-13-12.34-13
	c-2.6,0-5.1,0.85-7.22,2.47l-0.14,0.1l-0.15-0.09c-2.9-1.82-6.08-3.44-9.44-4.81l-0.24-0.1l0.1-0.24c0.3-0.69,7.21-17.05-0.94-31.97
	l-0.15-0.27l0.29-0.09c4.38-1.36,9.92-4.42,11.38-11.25c1.33-6.21-1.22-13.65-6.19-18.09c-4.71-4.21-10.9-5.33-17.45-3.15
	c-0.98,0.33-1.9,0.75-2.71,1.25l-0.14,0.09l-0.31-0.22l-0.01-0.11c-1.4-9.8-4.93-11.31-4.96-11.33l0.16-0.47
	c0.42,0.12,0.99,0.21,1.65,0.26c2.89,0.38,9.79,0.95,11.67-1.92c0.9-1.38,0.55-3.43-1.06-6.09c-2.49-4.14-8.4-7.51-16.63-9.48
	c-12.76-3.06-27.63-2.09-34.59,2.25c-7.45,4.65-14.41,14.63-17.89,20.16l-0.04,0.06l-0.06,0.03c-2.34,1.17-4.66,2.52-6.89,4.03
	l-0.17,0.11l-0.15-0.14c-1.16-1.11-2.64-1.97-4.38-2.55c-6.55-2.18-12.74-1.06-17.45,3.15c-4.97,4.45-7.52,11.89-6.19,18.09
	c1.39,6.5,6.51,9.56,10.56,10.98l0.31,0.11l-0.19,0.27c-2.07,3-3.73,6.28-4.95,9.76c-0.05,0.16-0.1,0.32-0.15,0.49l-0.08,0.28
	c-1.43,3.91-2.23,7.94-2.4,11.97c-0.35,8.33,2.01,16.51,6.84,23.65l0.07,0.11l-0.04,0.12c-1.61,4.35-0.77,8.78,2.47,13.18l0.16,0.22
	l-0.23,0.14c-0.04,0.03-4.3,2.76-4.41,7.96c-0.02,1.17,1.05,3.16,2.95,5.46l0.08,0.1l-0.03,0.12c-2.41,9.52-7.3,34.05-0.67,56.27
	c0.95,3.19-0.49,6.64-3.51,8.4c-4.17,2.43-6.76,7.04-6.76,12.02c0,1.6,0.28,3.2,0.82,4.75l0.03,0.08c0.11,0.3,0.21,0.57,0.32,0.83
	c1.79,4.34,5.53,7.35,9.99,8.04c2.29,0.36,4.64,0.07,6.81-0.83l0.19-0.08l0.11,0.17c2.47,3.69,6.5,5.9,10.79,5.9
	c3.23,0,6.35-1.25,8.77-3.52l0.17-0.16l0.17,0.16c2.42,2.27,5.54,3.52,8.77,3.52c7.26,0,13.17-6.18,13.17-13.77
	c0-1.01,0.57-13.21,1.05-23.27l0.02-0.35l0.16,0.06l0.1-5.58l0.25-5.16l0.51,0.03l0,0.24c0.4,14.99,0.88,33.15,0.88,34.58
	c0,7.6,5.91,13.77,13.17,13.77c3.23,0,6.35-1.25,8.77-3.52L344.66,538.1z M399.52,432.56l-0.03,0.03l0.04-0.02L399.52,432.56z
	 M352.36,356.32l-0.69-0.38l-0.01-0.14c-0.01-0.32-0.02-0.85,0.03-1.54l0.5,0.01c0.01,0.46,0.05,0.97,0.11,1.56L352.36,356.32z"/>
<path class="st12" d="M290.27,345.37c-0.34,0.08,10.45-20.44,22.18-27.76c11.73-7.32,44.36-4.65,51.56,7.32
	c7.2,11.96-12.54,8.13-12.54,8.13s5.81,2.21,5.69,21.14C331.73,347.93,332.54,335.03,290.27,345.37z"/>
<path class="st13" d="M303.08,330.68c0,0,28.16,4.64,23.08-13.25c0,0,15.02-2.98,29.71,5.96c14.69,8.94-0.17,10.84-4.39,9.67
	c0,0,7.04,9.98-0.58,18.38c-19.81-0.44-53.23-14.13-53.23-14.13L303.08,330.68z"/>
<path class="st14" d="M304.95,328.25c0,0,9.83,2.1,15.68-1.44c5.85-3.53,2.1-8.61,2.1-8.61S313.24,316.98,304.95,328.25z"/>
<path class="st15" d="M331.46,327.58c0,0,12.04,1.99,13.25,7.73c0,0-26.94-11.26-47.71,1.77l55.88,7.29c0,0,0.88-8.39-4.75-12.81
	c0,0,8.28,3.42,11.26-0.33C362.38,327.47,344.05,319.3,331.46,327.58z"/>
<g>
	<path class="st16" d="M355.84,475.45c0,0,13.14-34.81,44.85-38.68c0.29-0.04,11.15,31,3.33,58.29c-0.83,2.89,0.56,5.89,3.18,7.37
		c3.77,2.14,6.35,6.3,6.41,11.1c0.08,7.07-5.35,12.86-12.11,12.93c-1.57,0.02-3.07-0.29-4.46-0.84c-2.18,3.36-5.83,5.58-10.01,5.63
		c-3.14,0.03-6.01-1.18-8.2-3.19c-2.15,2.06-4.99,3.33-8.13,3.37c-6.76,0.07-12.31-5.6-12.38-12.67
		C358.3,516.95,355.84,475.45,355.84,475.45z"/>
	<path class="st17" d="M370.67,528.85c2.35-0.03,4.61-0.96,6.37-2.65c0.49-0.47,1.13-0.71,1.76-0.72c0.64-0.01,1.27,0.22,1.78,0.68
		c1.79,1.64,4.07,2.53,6.42,2.51c3.14-0.03,6.08-1.7,7.86-4.45c0.48-0.75,1.3-1.17,2.14-1.18c0.33,0,0.66,0.06,0.98,0.18
		c1.13,0.45,2.3,0.67,3.48,0.65c5.33-0.06,9.61-4.68,9.55-10.31c-0.04-3.71-1.99-7.12-5.1-8.88c-3.72-2.11-5.52-6.36-4.39-10.33
		c6.33-22.08-0.1-47.6-2.5-54.73c-26.41,4.47-38.89,32.22-40.57,36.25c0.37,6.3,2.43,41.1,2.45,42.86
		C360.96,524.37,365.35,528.91,370.67,528.85z"/>
	<path d="M384.69,529.98c6.76-0.07,12.18-5.86,12.11-12.93c0-0.03,0-0.05,0-0.08c0-0.03,0-0.05,0-0.08
		c-0.01-1.32-0.22-2.59-0.59-3.79c-0.29-0.93,1.03-1.47,1.46-0.6c0.85,1.72,1.34,3.66,1.36,5.73c0.08,7.07-5.35,12.86-12.11,12.93
		c-2.5,0.03-4.83-0.73-6.78-2.06C381.56,529.68,383.09,530,384.69,529.98z"/>
	<path d="M364.73,528.69c6.34,2.36,13.48-1.11,15.94-7.73c0.01-0.02,0.01-0.05,0.02-0.07c0.01-0.02,0.02-0.05,0.03-0.07
		c0.94-2.54,1.06-5.18,0.49-7.59c-0.12-0.5,0.61-0.74,0.82-0.28c1.35,2.98,1.56,6.53,0.3,9.92c-2.46,6.63-9.6,10.09-15.94,7.73
		c-2.34-0.87-4.24-2.42-5.59-4.35C361.91,527.29,363.23,528.13,364.73,528.69z"/>
	<path d="M400.97,525.55c6.67-1.11,11.14-7.67,9.97-14.64c0-0.03-0.01-0.05-0.02-0.07c0-0.03,0-0.05-0.01-0.08
		c-0.7-4.17-3.26-7.54-6.63-9.34c4.52,1.28,8.18,5.19,9.04,10.32c1.16,6.97-3.3,13.53-9.97,14.64c-2.46,0.41-4.88,0.02-7.01-0.99
		C397.82,525.74,399.39,525.82,400.97,525.55z"/>
</g>
<g>
	<path class="st16" d="M321.96,479.98c0,0-14.8-37.99-49.58-41.85c-0.32-0.04-11.85,34.09-2.97,63.9c0.94,3.16-0.54,6.45-3.39,8.11
		c-4.11,2.39-6.89,6.97-6.89,12.24c0,7.75,6.01,14.02,13.42,14.02c1.72,0,3.36-0.35,4.87-0.97c2.42,3.65,6.46,6.05,11.03,6.05
		c3.44,0,6.57-1.37,8.94-3.59c2.38,2.23,5.5,3.59,8.95,3.59c7.41,0,13.42-6.28,13.42-14.02
		C319.75,525.47,321.96,479.98,321.96,479.98z"/>
	<path class="st17" d="M306.33,538.65c-2.58,0-5.06-1-7.01-2.83c-0.54-0.51-1.24-0.77-1.94-0.77c-0.7,0-1.39,0.26-1.94,0.77
		c-1.94,1.82-4.43,2.82-7,2.82c-3.44,0-6.68-1.79-8.67-4.78c-0.54-0.81-1.44-1.27-2.36-1.27c-0.36,0-0.72,0.07-1.07,0.21
		c-1.23,0.5-2.51,0.76-3.8,0.76c-5.83,0-10.58-5.02-10.58-11.19c0-4.07,2.1-7.82,5.48-9.79c4.05-2.36,5.98-7.04,4.69-11.37
		c-7.19-24.12-0.45-52.15,2.1-59.99c28.98,4.59,42.98,34.84,44.88,39.25c-0.33,6.91-2.18,45.06-2.18,46.98
		C316.92,533.63,312.17,538.65,306.33,538.65z"/>
	<path d="M290.98,540.05c-7.41,0-13.42-6.28-13.42-14.02c0-0.03,0-0.05,0-0.08c0-0.03,0-0.05,0-0.08c0-2.56,0.66-4.95,1.8-7.01
		c0.34-0.61-0.51-1.21-0.96-0.67c-2.04,2.46-3.27,5.66-3.27,9.16c0,7.75,6.01,14.02,13.42,14.02c2.74,0,5.28-0.86,7.4-2.33
		C294.42,539.69,292.74,540.05,290.98,540.05z"/>
	<path d="M312.84,538.4c-6.92,2.66-14.78-1.05-17.55-8.29c-0.01-0.03-0.02-0.05-0.03-0.08c-0.01-0.03-0.02-0.05-0.03-0.08
		c-0.44-1.15-0.73-2.31-0.87-3.47c-0.14-1.13-1.8-1.03-1.83,0.1c-0.06,1.86,0.25,3.77,0.97,5.64c2.78,7.23,10.63,10.94,17.55,8.29
		c2.55-0.98,4.62-2.7,6.07-4.83C315.91,536.83,314.48,537.77,312.84,538.4z"/>
	<path d="M273.1,535.39c-7.32-1.14-12.29-8.27-11.1-15.92c0-0.03,0.01-0.05,0.02-0.08c0-0.03,0-0.05,0.01-0.08
		c0.71-4.58,3.48-8.3,7.15-10.31c-4.94,1.46-8.9,5.78-9.78,11.41c-1.19,7.65,3.77,14.78,11.1,15.92c2.7,0.42,5.35-0.04,7.67-1.16
		C276.55,535.56,274.84,535.66,273.1,535.39z"/>
</g>
<ellipse class="st18" cx="389.65" cy="424.1" rx="12.59" ry="13.25"/>
<path class="st18" d="M402.79,447.25c0,36.67-27.68,53.89-61.1,53.3c-6.06,0.08-17.07-8.9-22.53-9.98
	c-25.64-5.06-43.55-21.94-42.25-42.21c1.57-24.6,30.79-44.89,65.27-45.32c27.49-0.34,50.02,12.04,57.24,29.54
	C401.24,437.04,401.91,440.63,402.79,447.25z"/>
<path class="st12" d="M274.92,410.74c0,0-12.37,8.83-3.31,21.09c0,0-4.42,2.76-4.53,8.17c-0.11,5.41,20.87,26.28,49.03,26.28
	c14.68,0,28.31-4.74,38-9.28c12.07-5.66,20.87-16.81,22.73-30.01c1.15-8.16-0.52-16.43-9.82-20.56
	C345.15,396.71,274.92,410.74,274.92,410.74z"/>
<ellipse transform="matrix(0.9959 -0.09 0.09 0.9959 -34.233 30.3005)" class="st16" cx="318.76" cy="394.61" rx="56.65" ry="46.62"/>
<path class="st16" d="M275.58,373.19c-0.33,0.11-14.02-0.99-16.45-12.37c-2.43-11.37,7.73-26.94,23.96-21.53
	C299.32,344.7,285.96,369.77,275.58,373.19z"/>
<path class="st16" d="M366.94,377.28c0.33,0.11,14.02-0.99,16.45-12.37s-7.73-26.94-23.96-21.53S356.56,373.85,366.94,377.28z"/>
<path class="st17" d="M377.01,350.11c-2.84-3.52-6.78-5.45-11.09-5.45c-1.79,0-3.67,0.32-5.58,0.96c-3.8,1.27-5.64,3.85-5.64,7.9
	c0,2.76,0.86,5.77,2.2,8.63c-9.56-7.59-22.39-11.86-36.14-11.86c-14.37,0-27.63,4.64-37.61,12.16c2.69-3.96,4.69-8.79,4.7-13.02
	c0.01-4.05-1.84-6.64-5.64-7.9c-1.92-0.64-3.79-0.96-5.58-0.96c-4.31,0-8.25,1.94-11.09,5.45c-3.15,3.9-4.57,9.3-3.62,13.76
	c1.79,8.37,11.31,9.88,13.25,10.1c0,0,0,0,0,0c-6.02,6.99-9.72,15.38-10.1,24.41c-0.43,10.06,3.44,19.89,10.9,27.67
	c9.8,10.23,24.68,16.09,40.83,16.09c29.68,0,54.66-19.74,55.7-44c0.3-7.02,1.25-14.42-2.39-20.59c0.02,0.01-0.02-0.01,0,0
	c1.94-0.22,8.77-1.21,10.55-9.58C381.58,359.41,380.16,354.01,377.01,350.11z"/>
<path class="st19" d="M287.17,357.84c0,0,23.08-10.71,64.71-1.44c0,0-0.99-6.63,4.86-11.71c0,0-34.34-26.39-69.24-2.76
	C287.51,341.94,293.36,346.8,287.17,357.84z"/>
<path d="M274.22,343.09c0.09,0.58-4.84,11.94,6.46,18.37c0,0-5.12,4.6-8.23,7.91c-0.09-0.58,1.89-4.16,1.89-4.16
	s-7.21-0.3-7.08-6.13c0.13-5.84,3.91-5.91,3.91-5.91S270.3,349.23,274.22,343.09z"/>
<path d="M368.3,347.18c-0.09,0.58,4.84,11.94-6.46,18.37c0,0,5.12,4.6,8.23,7.91c0.09-0.58-1.89-4.16-1.89-4.16s7.21-0.3,7.08-6.13
	c-0.13-5.84-3.91-5.91-3.91-5.91S372.22,353.32,368.3,347.18z"/>
<g>
	<path class="st16" d="M321.26,490.65c0,0,44.47,0.44,48.29-34.38c0.32-0.04,11.89,16.5,3.01,46.31c-0.94,3.16,0.54,6.45,3.39,8.11
		c4.11,2.39,6.89,6.97,6.89,12.24c0,7.75-6.01,14.02-13.42,14.02c-1.72,0-3.36-0.35-4.87-0.97c-2.42,3.65-6.46,6.05-11.03,6.05
		c-3.44,0-6.57-1.37-8.94-3.59c-2.38,2.23-5.5,3.59-8.95,3.59c-7.41,0-13.42-6.28-13.42-14.02
		C322.22,526.02,321.26,490.65,321.26,490.65z"/>
	<path class="st17" d="M335.63,539.2c2.58,0,5.06-1,7.01-2.83c0.54-0.51,1.24-0.77,1.94-0.77c0.7,0,1.39,0.26,1.94,0.77
		c1.94,1.82,4.43,2.82,7,2.82c3.44,0,6.68-1.79,8.67-4.78c0.54-0.81,1.44-1.27,2.36-1.27c0.36,0,0.72,0.07,1.07,0.21
		c1.23,0.5,2.51,0.76,3.8,0.76c5.83,0,10.58-5.02,10.58-11.19c0-4.07-2.1-7.82-5.48-9.79c-4.05-2.36-5.98-7.04-4.69-11.37
		c7.19-24.12,2.4-38.39-0.14-46.24c-10.16,31.14-39.46,33.87-46.67,34.45c0.33,6.91,2.02,36.1,2.02,38.02
		C325.05,534.18,329.8,539.2,335.63,539.2z"/>
	<path d="M350.98,540.6c7.41,0,13.42-6.28,13.42-14.02c0-0.03,0-0.05,0-0.08c0-0.03,0-0.05,0-0.08c0-1.13-0.13-2.23-0.37-3.29
		c-0.26-1.12,1.35-1.66,1.78-0.59c0.66,1.65,1.02,3.47,1.02,5.37c0,7.75-6.01,14.02-13.42,14.02c-2.74,0-5.28-0.86-7.4-2.33
		C347.55,540.24,349.23,540.6,350.98,540.6z"/>
	<path d="M329.13,538.96c6.92,2.66,14.78-1.05,17.55-8.29c0.01-0.03,0.02-0.05,0.03-0.08c0.01-0.03,0.02-0.05,0.03-0.08
		c0.47-1.22,0.76-2.45,0.89-3.68c0.12-1.11,1.75-1.01,1.8,0.1c0.09,1.93-0.22,3.91-0.96,5.84c-2.78,7.23-10.63,10.94-17.55,8.29
		c-2.55-0.98-4.62-2.7-6.07-4.83C326.05,537.39,327.49,538.33,329.13,538.96z"/>
	<path d="M368.87,535.94c7.32-1.14,12.29-8.27,11.1-15.92c0-0.03-0.01-0.05-0.02-0.08c0-0.03,0-0.05-0.01-0.08
		c-0.49-3.15-1.95-5.88-4-7.94c-0.35-0.35,0.11-0.92,0.52-0.64c3.15,2.11,5.46,5.54,6.11,9.68c1.19,7.65-3.77,14.78-11.1,15.92
		c-2.7,0.42-5.35-0.04-7.67-1.16C365.42,536.11,367.13,536.21,368.87,535.94z"/>
</g>
<ellipse class="st18" cx="298.88" cy="374.18" rx="13.69" ry="13.91"/>
<ellipse class="st17" cx="300.28" cy="380" rx="12.29" ry="12.66"/>
<ellipse class="st18" cx="333.3" cy="374.18" rx="13.69" ry="13.91"/>
<ellipse class="st17" cx="331.82" cy="380" rx="12.29" ry="12.66"/>
<path class="st18" d="M343.49,405.46c0,11.39-12.66,20.63-28.27,20.63s-28.27-9.24-28.27-20.63s12.66-22.66,28.27-22.66
	S343.49,394.06,343.49,405.46z"/>
<path class="st18" d="M283.54,407.3c-1.7-2.16-5.47-0.42-4.39,2.04c4.89,11.1,15.23,21.86,36.97,21.4
	c26.82-0.58,38.84-11.26,44.12-22.07c1.35-2.76-2.81-5.04-4.98-2.73c-6.87,7.35-19.23,13.99-41.43,14.47
	C298.55,420.73,289.22,414.54,283.54,407.3z"/>
<path class="st18" d="M262.77,401.02c0,0,3.13,35.67,48.33,40.38c0,0,42.26,5.3,61.69-32.83c0,0,8.39-19.12-2.72-35.11
	c0,0,6.7,25.39-25.69,46.44S269.54,423.84,262.77,401.02z"/>
<path class="st17" d="M308.82,407.98c0,0-5.85,9.06-10.71,4.64c-4.86-4.42-7.18-19.77-7.18-19.77l4.75-5.3
	C295.68,387.55,307.38,397.37,308.82,407.98z"/>
<path class="st17" d="M291.59,394.06c0,0-9.39,12.48,1.88,25.73c0,0-16.12-8.06-5.85-28.38L291.59,394.06z"/>
<path class="st17" d="M301.6,422.24c0,0,7.46,10.78,23.67,3.57c0,0-4.01,8.21-14.7,6.16C302.11,430.29,301.6,422.24,301.6,422.24z"
	/>
<path class="st16" d="M290.82,395.39c0,0,6.21-9.17,25.42-9.17s24.13,9.61,24.13,9.61s-4.45-14.36-24.13-14.36
	S290.82,395.39,290.82,395.39z"/>
<path class="st16" d="M292.92,383.24c0,0-1.88-6.18,3.98-9.61c6.18-3.09,11.37,2.65,11.37,2.65s-5.21-9.21-12.81-5.41
	C288.17,374.52,292.92,383.24,292.92,383.24z"/>
<ellipse transform="matrix(0.9894 -0.1451 0.1451 0.9894 -51.9577 47.6882)" cx="300.84" cy="379.92" rx="6.35" ry="5.61"/>
<path class="st16" d="M339.11,383.24c0,0,1.88-6.18-3.98-9.61c-6.18-3.09-11.37,2.65-11.37,2.65s5.21-9.21,12.81-5.41
	C343.86,374.52,339.11,383.24,339.11,383.24z"/>
<path d="M293.19,384.23c0,0,6.13,2.54,10.44-0.22c2.32-0.99,5.3-2.15,5.3-2.15s-1.58-8.57-8.91-7.49
	C292.7,375.45,293.19,384.23,293.19,384.23z"/>
<path d="M338.79,384.23c0,0-6.13,2.54-10.44-0.22c-2.32-0.99-5.3-2.15-5.3-2.15s1.58-8.57,8.91-7.49
	C339.29,375.45,338.79,384.23,338.79,384.23z"/>
<ellipse transform="matrix(0.9894 -0.1451 0.1451 0.9894 -51.7952 47.504)" class="st169" cx="299.66" cy="378.71" rx="3.7" ry="3.27"/>
<ellipse transform="matrix(0.9894 -0.1451 0.1451 0.9894 -51.7295 47.4071)" class="st23" cx="299.02" cy="378.21" rx="1.71" ry="1.51"/>
<ellipse transform="matrix(0.1451 -0.9894 0.9894 0.1451 -93.1259 652.2756)" cx="330.91" cy="380.03" rx="5.61" ry="6.35"/>
<ellipse transform="matrix(0.9894 -0.1451 0.1451 0.9894 -51.4888 51.9245)" class="st169" cx="330.1" cy="378.82" rx="3.7" ry="3.27"/>
<ellipse transform="matrix(0.9894 -0.1451 0.1451 0.9894 -51.4231 51.8276)" class="st23" cx="329.47" cy="378.33" rx="1.71" ry="1.51"/>
<path class="st16" d="M285.08,375.29c0,0-0.77-8.61,7.29-12.92c8.06-4.31,14.47,0.33,14.47,0.33s-4.86-12.15-17.23-5.19
	S285.08,375.29,285.08,375.29z"/>
<path class="st16" d="M320.52,368.55c0,0,7.29-13.47,21.2-5.19c0,0-0.44-3.44-4.08-5.56c-4.06-2.37-9.25-1.61-12.73,1.55
	C320.76,363.14,320.52,368.55,320.52,368.55z"/>
<path class="st16" d="M275.15,369.89l1.87,6.28l-6.29,1.1l4.53,5.19l-7.18,1.88l4.75,4.75l-6.29,2.1l5.63,3.09l-5.3,4.75l5.85,2.1
	l-4.42,4.53l5.85,1.44l-5.41,4.31l-1.77-1.99l-1.66-3.2C265.31,406.21,259.26,382.38,275.15,369.89z"/>
<path class="st16" d="M272.49,368l-0.03,1.37c0,0-5.38,2.38-9.57-3.58c-4.2-5.96-2.98-18.88,7.29-24.4c0,0,10.27-4.2,16.56,2.65
	l-3.64,1.33l-0.9-3.83l-3.96,1.84l-2.54-2.65c0,0-1.77,3.2-2.1,3.2s-4.2-1.66-4.09-1.33c0.11,0.33-0.22,4.42-0.55,4.42
	c-0.33,0-3.75,0-3.75,0l0.66,4.31l-4.09,1.66l2.76,3.64l-2.98,3.64l3.75,1.99l-0.88,4.09l4.31-0.11l1.44,2.65L272.49,368z"/>
<path class="st170" d="M320.3,409.44c-5.18,2.37-11.26,2.31-16.04-0.79c-2.81-1.82-5.44-4.81-6.47-9.75
	c-2.64-12.56,33.42-12.65,32.3-1.96C329.2,403.86,324.5,407.52,320.3,409.44z"/>
<path d="M313.01,410.41c0,0-9.5-0.33-12.92-8.94c0-6.77,27.17-6.77,27.17,0C327.26,401.46,324.17,409.08,313.01,410.41z"/>
<path class="st171" d="M300.09,397.6c0,0-1.88-5.96,14.13-5.96s12.92,6.63,12.92,6.63s-1.33-3.2-13.25-3.2
	c-11.93,0-13.36,2.43-13.36,2.43"/>
<path class="st170" d="M290.71,400.25c0,0,3.2,14.25,9.17,14.36c5.96,0.11,8.28-4.75,8.28-4.75l5.63,0.66c0,0-4.64,7.29-13.36,6.74
	c-8.72-0.55-10.49-15.57-10.49-15.57L290.71,400.25z"/>
<path class="st170" d="M339.62,400.25c0,0-3.69,14.25-10.57,14.36c-6.87,0.11-9.55-4.75-9.55-4.75l-6.49,0.66
	c0,0,5.35,7.29,15.4,6.74c10.06-0.55,12.09-15.57,12.09-15.57L339.62,400.25z"/>
<path class="st171" d="M293.19,391.63c0,0,5.41-8.5,23.02-8.5c15.79,0,22.42,8.94,22.42,8.94s-3.31-10.77-23.8-10.77
	C296.79,381.31,293.19,391.63,293.19,391.63z"/>
<path class="st172" d="M291.48,342.05c0,0,11.06-9.11,23.74-9.72c9.83-0.88,18.78,1.22,26.72,4.31c9.48,4.23,2.76,9.5,2.76,9.5
	s5.96,1.66,5.08,7.29c0,0-11.82-2.98-32.02-2.98s-25.18,3.09-25.18,3.09S296.45,348.01,291.48,342.05z"/>
<path class="st23" d="M296.12,349.78c0,0,19.99-5.52,48.15,0.55c0,0-2.54-7.84-27.61-7.4C296.12,342.93,296.12,349.78,296.12,349.78
	z"/>
<path class="st23" d="M295.9,344.59c0,0,14.25-7.95,45.94-0.99c0,0-4.42-10.93-28.05-8.72C296.78,336.09,295.9,344.59,295.9,344.59z
	"/>
<path class="st16" d="M293.19,391.63c0,0-9.88-11.82-7.23-21.75c4.09-12.26,17.78-9.06,17.78-9.06s-7.18-7.62-17.01-2.98
	c0,0-15.57,5.96-21.87,23.96c-6.18,19.33,2.1,27.61,2.1,27.61s-6.63-17.12,5.85-20.32S293.19,391.63,293.19,391.63z"/>
<path class="st16" d="M339.96,392.96c0,0,10.82-7.95,30.7-1.55l-3.75-5.08l2.65-4.42l-5.3-1.77l2.24-5.95l-6.43-0.67l-0.88-5.74
	l-5.52,0.22l-0.44-4.86l-5.08,0.44C348.13,363.58,357.19,379.93,339.96,392.96z"/>
<path class="st16" d="M299.99,420.42c0,0,2.92,7.41,12.99,8.96c10.07,1.55,15.77-8.08,15.77-8.08S314.12,432.29,299.99,420.42z"/>
<path class="st23" d="M302.91,396.18c0,0,0.7-2.65,3.42-3.65c2.72-1.01,4.81,2.6,4.81,2.6S306.68,395.01,302.91,396.18z"/>
<path d="M291.96,409.3c0,0,7.21,16.34,20.47,0.15l2.06-0.44c0,0-5.6,10.16-15.9,8.1C292.99,415.34,291.96,409.3,291.96,409.3z"/>
<path d="M338.05,409.3c0,0-8.39,16.34-23.81,0.15l-2.4-0.44c0,0,6.51,10.16,18.5,8.1C336.85,415.34,338.05,409.3,338.05,409.3z"/>
<path class="st16" d="M271.71,450.82c0,0-6.63,31.25,24.85,50.25c0,0,12.59,6.29,14.36,17.78c1.77,11.48-16.67,12.48-15.13,0.88
	c0,0-3.7,1.45-3.26,6.86c0.44,5.41-18.61,4.62-13.09-8.3c0,0,0.66-2.1,6.18-3.75c0,0-8.72-0.33-12.59,4.31
	c-3.87,4.64-11.08,3.53-11.08,3.53s-2.17-12.81,9.2-13.36c0,0-4.75-25.29-1.77-58.31C269.39,450.71,271.05,447.4,271.71,450.82z"/>
<path class="st16" d="M323.73,511.45c0,0,3.64-12.15,13.47-11.6c9.83,0.55,31.47,4.31,37.66,10.6c6.18,6.29-0.33,10.6-0.33,10.6
	s-7.18,2.87-16.34-4.75c0,0,9.72,5.3,2.1,10.27c-7.62,4.97-17.56-6.29-17.56-6.29s4.2,7.29-6.29,10.38s-12.59-7.84-12.59-7.84
	L323.73,511.45z"/>
<path class="st17" d="M386.12,421.56c0,0,20.43,18.11,8.06,46.16c0,0-3.64,6.63-8.39,11.15c0,0-2.43-31.91-7.84-41.85
	c0,0,5.63-11.93,1.77-20.43C379.71,416.59,384.35,419.02,386.12,421.56z"/>
<path class="st17" d="M385.12,413.72c0,0,7.07,5.19,11.93,13.25c0,0,2.81-5.17-0.03-10.41c-0.62-1.15-1.5-2.17-2.61-2.88
	C390.05,410.9,385.12,413.72,385.12,413.72z"/>
<path class="st15" d="M277.35,436.47c0,0,2.76,21.2,33.79,25.4c32.38,4.38,57.53-19.99,57.53-19.99s10.27-19.99,2.1-29.37
	c0,0,0.44,12.48-21.2,24.4s-49.14,3.53-60.18-1.1c0,0,2.1,8.5,23.74,14.13C306.83,451.04,287.39,446.52,277.35,436.47z"/>
<path d="M269.14,418.65c0,0,13.18,23.12,48.96,22.82c35.78-0.29,51.46-25.84,54.7-32.91c0,0-2.73,22.16-29.92,32.96
	c-12.72,5.05-26.78,5.83-40.03,2.41C276.15,437.05,269.14,418.65,269.14,418.65z"/>
<path class="st173" d="M291.7,456.79c0,0-11.71-5.3-19.21-22.09c0,0-3.31,2.1-1.44,6.18C272.93,444.97,279.89,452.37,291.7,456.79z"
	/>
<path class="st173" d="M298.77,445.96c0,0-18.33-11.37-28.6-23.96c0,0-1.21,6.63,10.27,15.35
	C291.92,446.07,298.77,445.96,298.77,445.96z"/>
<path d="M341.21,440.81c0,0,6.77-0.88,5.96,18.99c0,0-22.9,10.53-48.59,3.68c0,0,18.26,10.09,49.4,0.52l0.72,26.97
	c0.03,1.24,1.52,1.86,2.42,1l4.81-4.56c0,0-2.96-49.6-10.2-51.23L341.21,440.81z"/>
<g>
	<path class="st12" d="M363.88,422.68c0,0,11.67,4.32,15.39,29.46c3.72,25.14,2.57,26.14,2.57,26.14s-1.97,2.64-6.1,2.49
		c-4.13-0.16,1.55,4.37-6.58,7.96c-8.13,3.59-9.25-1.16-11.54,0.68c-1.39,1.11-3.71,3.31-5.32,4.87c-0.7,0.68-1.87,0.2-1.91-0.77
		l-1.5-44.54c0,0,0.17-10.24-3.15-12.78C345.73,436.18,359.15,430.94,363.88,422.68z"/>
	<path class="st15" d="M345.73,436.18c0,0,8.96-1.85,11.01,13.11c2.05,14.96,1.88,39.49,1.88,39.49s3.06,2.22,6.12,1.34
		c3.06-0.88-3.76-46.28-3.76-46.28s-2.58-7.87-7.36-8.48c0,0,8.95-6.6,14.29-2.14c5.34,4.46,5.9,50.74,5.9,50.74s-0.35-2.6,1.92-3.2
		c2.26-0.59,3.26-0.4,3.26-0.4s-0.19-35.13-8.6-48.66c0,0-1.79-4.03-7.19-3.4c0,0,2.57-1.49,0.66-5.62
		C363.88,422.68,359.65,429.51,345.73,436.18z"/>
	<path class="st173" d="M351.58,493.11l4.72-4.36c0,0,0.46-39.02-6.37-44.98L351.58,493.11z"/>
	<path class="st173" d="M361.87,444.15c0,0,5.1,20.38,4.78,43.7c0,0,2.76-0.2,4.56-2.36C371.22,485.49,371.74,451.77,361.87,444.15z
		"/>
</g>
<path d="M285.55,472.61c0,0,11.41,16.05,34.38,16.05c22.97,0,29.15-12.74,29.15-12.74v10.09c0,0-5.89,7.44-27.68,7.44
	C294.17,491.9,285.55,472.61,285.55,472.61z"/>
<path d="M321.19,492.42l-0.22,11.85c0,0-11.41-4.2-13.1-15.68L321.19,492.42z"/>
<path d="M399.52,466.87c0,0-4.56,15.83-21.94,25.4c0,0,1.44-5.92,1.42-11.9l-2.75,0.27c0,0-0.52,9.72-2.21,16.42
	c-1.69,6.7-2.27,9.2,0.07,11.71c0,0-0.81-3.31,0.96-8.17c1.77-4.86,1.99-5.23,1.99-5.23S396.87,485.2,399.52,466.87z"/>
<path d="M331.85,313.56c13.12,0,27.71,3.85,32.24,11.37c4.39,7.29-1.23,8.71-6.29,8.71c-1.72,0-3.38-0.17-4.56-0.32
	c-0.65-0.05-1.24-0.14-1.7-0.26c0,0,3.68,1.41,5.12,11.52c0.03,0.03,0.06,0.05,0.09,0.06c0.81-0.5,1.72-0.93,2.76-1.27
	c2.29-0.76,4.45-1.11,6.48-1.11c12.37,0,19.57,12.87,17.48,22.64c-1.5,7-7.26,10.11-11.55,11.44c8.22,15.06,1.19,31.65,0.95,32.19
	c3.4,1.38,6.57,3,9.48,4.83c2.07-1.58,4.61-2.52,7.37-2.52c6.95,0,12.59,5.93,12.59,13.25c0,3.2-1.08,6.13-2.86,8.41
	c0.01,0.03,0.02,0.05,0.03,0.07c0.79,1.91,1.36,3.66,1.82,5.56c2.17,6.28,9.62,33.04,2.78,56.92c-0.83,2.89,0.56,5.89,3.18,7.37
	c3.77,2.14,6.35,6.3,6.41,11.1c0.02,1.55-0.25,3.03-0.71,4.42c-0.01,0.03-0.02,0.07-0.03,0.1c-0.09,0.25-0.18,0.5-0.28,0.74
	c-1.55,3.89-4.92,6.86-9.22,7.58c-0.65,0.11-1.29,0.16-1.93,0.16c-1.54,0-3.03-0.31-4.42-0.86c-2.18,3.33-5.82,5.54-9.98,5.59
	c-0.04,0-0.08,0-0.12,0c-2.08,0-4.03-0.56-5.74-1.52c-1.9,3.7-5.38,6.45-9.69,7.12c-0.66,0.1-1.32,0.15-1.98,0.15
	c-1.73,0-3.42-0.35-4.97-1c-2.43,3.63-6.44,6.01-11,6.01c-3.44,0-6.57-1.37-8.94-3.59c-2.38,2.23-5.5,3.59-8.95,3.59
	c-7.41,0-13.42-6.28-13.42-14.02c0-1.65-0.66-26.19-0.88-34.57c-0.01,0-0.02,0-0.02,0c-0.08,1.57-0.15,3.21-0.23,4.89l-0.11,5.94
	c0,0-0.06-0.02-0.17-0.07c-0.53,11.22-1.05,22.3-1.05,23.26c0,7.75-6.01,14.02-13.42,14.02c-3.44,0-6.57-1.37-8.95-3.59
	c-2.37,2.23-5.5,3.59-8.94,3.59c-4.56,0-8.57-2.38-11-6.01c-1.56,0.64-3.24,1-4.97,1c-0.65,0-1.31-0.05-1.98-0.15
	c-4.71-0.73-8.44-3.95-10.18-8.19c-0.11-0.26-0.22-0.53-0.31-0.81c-0.01-0.04-0.03-0.07-0.04-0.11c-0.53-1.51-0.83-3.13-0.83-4.83
	c0-5.27,2.78-9.85,6.89-12.24c2.85-1.66,4.34-4.95,3.39-8.11c-6.34-21.26-2.29-44.71,0.67-56.41c-1.97-2.38-3.03-4.4-3-5.62
	c0.11-5.41,4.53-8.17,4.53-8.17c-3.87-5.24-3.82-9.85-2.5-13.41c-4.71-6.97-7.25-15.11-6.88-23.8c0.18-4.16,1.02-8.19,2.42-12.03
	c0.08-0.26,0.15-0.51,0.24-0.78c1.32-3.79,3.06-7.04,4.98-9.82c-4.17-1.46-9.32-4.6-10.72-11.17c-2.09-9.77,5.12-22.64,17.48-22.64
	c2.03,0,4.19,0.35,6.48,1.11c1.88,0.63,3.34,1.52,4.48,2.61c2.31-1.56,4.62-2.9,6.91-4.04c4.16-6.6,10.89-15.83,17.97-20.24
	C316.88,314.9,324.11,313.56,331.85,313.56 M352.06,355.86c-0.06-0.53-0.1-1.06-0.11-1.58c-0.05,0.62-0.05,1.14-0.03,1.51
	C351.96,355.81,352.01,355.83,352.06,355.86 M331.85,310.56c-8.82,0-16.25,1.6-20.91,4.51c-7.35,4.58-14.03,13.53-18.47,20.49
	c-1.57,0.81-3.13,1.7-4.66,2.66c-1.1-0.73-2.34-1.32-3.69-1.77c-2.51-0.84-5.01-1.26-7.43-1.26c-6.1,0-11.66,2.7-15.63,7.62
	c-4.28,5.29-6.12,12.44-4.79,18.65c1.09,5.12,4.34,9.25,9.26,11.88c-1.36,2.37-2.51,4.88-3.42,7.48l-0.01,0.04l-0.01,0.04
	c-0.06,0.19-0.12,0.37-0.17,0.56l-0.06,0.19c-1.52,4.19-2.38,8.51-2.56,12.85c-0.36,8.56,1.91,16.96,6.59,24.39
	c-0.85,3.22-0.91,7.55,1.86,12.42c-1.63,1.75-3.52,4.63-3.6,8.65c-0.04,1.78,0.86,3.87,2.74,6.39c-2.56,10.64-6.82,34.61-0.28,56.56
	c0.52,1.75-0.31,3.67-2.03,4.66c-5.17,3.01-8.38,8.69-8.38,14.83c0,1.97,0.34,3.93,1,5.82l0.03,0.09c0.13,0.38,0.26,0.7,0.4,1.02
	c2.21,5.35,6.88,9.1,12.48,9.97c0.81,0.13,1.63,0.19,2.44,0.19c1.32,0,2.62-0.16,3.9-0.49c3.09,3.48,7.46,5.5,12.07,5.5
	c3.2,0,6.29-0.97,8.94-2.76c2.65,1.8,5.75,2.76,8.95,2.76c6.29,0,11.76-3.68,14.52-9.08c2.66,5.69,8.29,9.63,14.78,9.63
	c3.2,0,6.29-0.97,8.95-2.76c2.65,1.8,5.75,2.76,8.94,2.76c4.61,0,8.98-2.02,12.07-5.5c1.28,0.32,2.58,0.49,3.9,0.49
	c0.81,0,1.63-0.06,2.44-0.19c4.2-0.65,7.87-2.91,10.4-6.31c1.48,0.49,3.02,0.74,4.57,0.74l0.16,0c4.23-0.05,8.23-1.92,11.05-5.1
	c1.09,0.25,2.2,0.38,3.32,0.38c0.81,0,1.62-0.07,2.42-0.2c5.19-0.87,9.49-4.39,11.51-9.42c0.11-0.25,0.22-0.56,0.32-0.86l0.01-0.03
	l0.01-0.03c0.01-0.03,0.02-0.06,0.03-0.09c0.59-1.76,0.88-3.57,0.86-5.38c-0.06-5.7-3.1-10.94-7.92-13.68
	c-1.47-0.84-2.2-2.45-1.77-3.94c7.63-26.65-1.93-56.07-2.79-58.59c-0.38-1.51-0.82-2.94-1.36-4.4c1.61-2.61,2.49-5.68,2.49-8.8
	c0-8.96-6.99-16.25-15.59-16.25c-2.62,0-5.16,0.68-7.43,1.98c-1.8-1.05-3.68-2.03-5.64-2.92c1.68-5.3,4.34-17.2-0.62-28.93
	c5.55-2.59,9.19-6.91,10.37-12.44c1.33-6.21-0.51-13.36-4.79-18.65c-3.97-4.91-9.52-7.62-15.63-7.62c-2.3,0-4.67,0.38-7.06,1.14
	c-0.35-1.45-0.74-2.69-1.17-3.76c0.01,0,0.02,0,0.04,0c5.15,0,8.54-1.36,10.06-4.06c1.39-2.47,0.99-5.57-1.2-9.21
	C361.33,314.52,345.34,310.56,331.85,310.56L331.85,310.56z"/>
</svg>
