<svg version="1.1" id="ALL" xmlns="http://www.w3.org/2000/svg" xmlns:xlink="http://www.w3.org/1999/xlink" x="0px" y="0px"
	 viewBox="0 0 510.24 595.28" style="enable-background:new 0 0 510.24 595.28;" xml:space="preserve">
<style type="text/css">
	.st0{fill:#5D2D16;}
	.st1{fill:#7A3A2B;}
	.st2{fill:#C5743C;}
	.st3{fill:#C37D46;}
	.st4{fill:#526D32;}
	.st5{fill:#639916;}
	.st6{opacity:0.5;}
	.st7{fill:#83C121;}
	.st8{fill:#BAAB3F;}
	.st9{fill:#A57044;}
	.st10{fill:#B78253;}
	.st11{fill:#7F5038;}
	.st12{fill:#DA211E;}
	.st13{fill:#A80000;}
	.st14{fill:#F42A2A;}
	.st15{fill:#720000;}
	.st16{fill:#E5E7EA;}
	.st17{fill:#CBC8C3;}
	.st18{fill:#B2ACA4;}
	.st19{fill:#B2B6B7;}
	.st20{fill:#E88D0A;}
	.st21{fill:#963600;}
	.st22{fill:#FFD664;}
	.st23{fill:#FFFFFF;}
	.st24{fill:#510E0E;}
	.st25{fill:#D1B8A1;}
	.st26{fill:#3F4042;}
	.st27{fill:#EFEEED;}
	.st28{fill:#965632;}
	.st29{fill:#9E7954;}
	.st30{fill:#C69F6B;}
	.st31{fill:#B7AFA7;}
	.st32{fill:#84330F;}
	.st33{fill:#B3B0A1;}
	.st34{fill:#663E1D;}
	.st35{fill:#AA5B21;}
	.st36{fill:#682A00;}
	.st37{fill:#CC0000;}
	.st38{fill:#880000;}
	.st39{fill:#1BBDEF;}
	.st40{fill:#83FFFF;}
	.st41{fill:#D7FFFE;}
	.st42{fill:#C6541A;}
	.st43{fill:#8C3610;}
	.st44{fill:#D86C00;}
	.st45{fill:#F2790A;}
	.st46{fill:#F2B30A;}
	.st47{fill:#1A2B0E;}
	.st48{fill:#F78F1E;}
	.st49{fill:#FFD683;}
	.st50{fill:#FFBD48;}
	.st51{fill:#87FFFF;}
	.st52{fill:#FFCC00;}
	.st53{fill:#5B1E06;}
	.st54{fill:#30541A;}
	.st55{fill:#35720E;}
	.st56{fill:#9E3612;}
	.st57{fill:#48AA09;}
	.st58{fill:#FFA200;}
	.st59{fill:#C1006A;}
	.st60{fill:#7B2322;}
	.st61{fill:#D30056;}
	.st62{fill:#680E37;}
	.st63{fill:#7C193A;}
	.st64{fill:#FF2C72;}
	.st65{fill:#FF5A8D;}
	.st66{fill:#FF48D6;}
	.st67{fill:#FF6D9F;}
	.st68{fill:#E88725;}
	.st69{fill:#E8B425;}
	.st70{fill:#FFD15F;}
	.st71{fill:#893A28;}
	.st72{fill:#FFFF42;}
	.st73{fill:#2C7A3C;}
	.st74{fill:#295B31;}
	.st75{fill:#3BC458;}
	.st76{fill:#5E4031;}
	.st77{fill:#605F33;}
	.st78{fill:#82804A;}
	.st79{fill:#82533F;}
	.st80{fill:#A06955;}
	.st81{fill:#444332;}
	.st82{fill:#66686B;}
	.st83{fill:#B7AF51;}
	.st84{fill:#47462C;}
	.st85{fill:#C17B5D;}
	.st86{fill:#FFD346;}
	.st87{fill:#F7A800;}
	.st88{fill:#ED7601;}
	.st89{fill:#FFE18D;}
	.st90{fill:#FFB857;}
	.st91{fill:#8B9BAF;}
	.st92{fill:#9DC2EA;}
	.st93{fill:#AA0000;}
	.st94{fill:#EF7F22;}
	.st95{fill:#C17E3A;}
	.st96{fill:#82562E;}
	.st97{fill:#542906;}
	.st98{fill:#CE6B13;}
	.st99{fill:#FF9536;}
	.st100{fill:#FFD55F;}
	.st101{fill:#A85007;}
	.st102{fill:#E29652;}
	.st103{fill:#FFA861;}
	.st104{fill:#FF0000;}
	.st105{fill:#5DE7FF;}
	.st106{fill:#32323A;}
	.st107{fill:#D6CBBF;}
	.st108{fill:#EBE0CE;}
	.st109{fill:#E28F01;}
	.st110{fill:#C94727;}
	.st111{fill:#7A2413;}
	.st112{fill:#3B454C;}
	.st113{fill:#5B676D;}
	.st114{fill:#DD5D05;}
	.st115{fill:#FF8939;}
	.st116{fill:#FFF6E9;}
	.st117{fill:#FFCE00;}
	.st118{fill:#C59648;}
	.st119{fill:#936135;}
	.st120{fill:#FCB072;}
	.st121{fill:#CC7E52;}
	.st122{fill:#8E624C;}
	.st123{fill:#AC1212;}
	.st124{fill:#E5231A;}
	.st125{fill:#318D8A;}
	.st126{fill:#F4A32C;}
	.st127{fill:#FFC06C;}
	.st128{fill:#B5720F;}
	.st129{fill:#FFD1AE;}
	.st130{fill:#C4CCCE;}
	.st131{fill:#1F2023;}
	.st132{fill:#E3E5E5;}
	.st133{fill:#3F4144;}
	.st134{fill:#7C0D0D;}
	.st135{fill:#AEB7BA;}
	.st136{fill:#8A909E;}
	.st137{fill:#AA7B57;}
	.st138{fill:#B78570;}
	.st139{fill:#6E7E8E;}
	.st140{fill:#4B5D6B;}
	.st141{fill:#76797C;}
	.st142{fill:#FFCEA9;}
	.st143{fill:#BF744F;}
	.st144{fill:#FCC068;}
	.st145{fill:#D7DFE2;}
	.st146{fill:#7A8E93;}
	.st147{fill:#FF6161;}
	.st148{fill:#EFD5B6;}
	.st149{fill:#505356;}
	.st150{fill:#AAAAAA;}
	.st151{fill:#8E7C6F;}
	.st152{fill:#747B84;}
	.st153{fill:#EDD5C0;}
	.st154{fill:#A0805A;}
	.st155{fill:#725D46;}
	.st156{fill:#AA6333;}
	.st157{fill:#DBC09E;}
	.st158{fill:#6D4029;}
	.st159{fill:#826341;}
	.st160{fill:#E08032;}
	.st161{fill:#AF520C;}
	.st162{fill:#891313;}
	.st163{fill:#B73030;}
	.st164{fill:#E84242;}
	.st165{fill:#562708;}
	.st166{fill:#FFBE71;}
	.st167{fill:#603429;}
	.st168{fill:#FFA124;}
	.st169{fill:#696C70;}
	.st170{fill:#50555B;}
	.st171{fill:#8C9196;}
	.st172{fill:#E0E0E0;}
	.st173{fill:#FF4A4A;}
	.st174{fill:#607F91;}
	.st175{fill:#C3D3DD;}
	.st176{fill:#8BA1AF;}
	.st177{fill:#60A0BA;}
	.st178{fill:#6088AD;}
	.st179{fill:#4A7493;}
	.st180{fill:#696389;}
	.st181{fill:#4663A3;}
	.st182{fill:#AEE6FF;}
	.st183{fill:#54A7CC;}
	.st184{fill:#4BB9E0;}
	.st185{fill:#4F4B75;}
	.st186{fill:#542E15;}
	.st187{fill:#6D3516;}
	.st188{fill:#68472B;}
	.st189{fill:#AF6D37;}
	.st190{fill:#3A2E2C;}
	.st191{fill:#663418;}
	.st192{fill:#915436;}
	.st193{fill:#B57255;}
	.st194{fill:#F28B3D;}
	.st195{fill:#56829B;}
	.st196{fill:#85B5D6;}
	.st197{fill:#B7D8EA;}
	.st198{fill:#3B6375;}
	.st199{fill:#5C6466;}
	.st200{fill:#FF5A20;}
	.st201{fill:#37454F;}
	.st202{fill:#202528;}
	.st203{fill:#566772;}
	.st204{fill:#69838E;}
	.st205{fill:#415156;}
	.st206{fill:#8E999B;}
	.st207{fill:#FF9A7B;}
	.st208{fill:#5B4F49;}
	.st209{fill:#6B5146;}
	.st210{fill:#924B2F;}
	.st211{fill:#A56F5B;}
	.st212{fill:#6B4A40;}
	.st213{fill:#FFD469;}
	.st214{fill:#7D8389;}
	.st215{fill:#B3B5BC;}
	.st216{fill:#92C6EA;}
	.st217{fill:#D3A12F;}
	.st218{fill:#3353A3;}
	.st219{fill:#2D4068;}
	.st220{fill:#09425B;}
	.st221{fill:#FF4800;}
	.st222{fill:#32697C;}
	.st223{fill:#A8E0EF;}
	.st224{fill:#71C0DB;}
	.st225{fill:#6089C6;}
	.st226{fill:#009311;}
	.st227{fill:#08FF2E;}
	.st228{fill:#536D54;}
	.st229{fill:#C84229;}
	.st230{fill:#FF4229;}
	.st231{fill:#C85529;}
	.st232{fill:#FF5529;}
	.st233{fill:#B96829;}
	.st234{fill:#FF6829;}
	.st235{fill:#A48929;}
	.st236{fill:#FF8929;}
	.st237{fill:#A4CC29;}
	.st238{fill:#FFCC29;}
	.st239{fill:#00CE31;}
	.st240{fill:#A1CE31;}
	.st241{fill:#FFFF2E;}
	.st242{fill:#BBEDFF;}
	.st243{fill:#A9E7FF;}
	.st244{fill:#475572;}
	.st245{fill:#FF680C;}
	.st246{fill:#FFFF0C;}
	.st247{fill:#348AA5;}
	.st248{fill:#16638E;}
	.st249{opacity:0.15;fill:#FFFF0C;}
	.st250{opacity:0.15;fill:#71F0DC;}
	.st251{opacity:0.3;fill:#71F0DC;}
	.st252{fill:#80A9B2;}
	.st253{fill:#88E6FF;}
	.st254{fill:#5376A0;}
	.st255{fill:#6D9DCC;}
	.st256{fill:#90B4D3;}
	.st257{fill:#B7B4A7;}
	.st258{fill:#20314F;}
	.st259{fill:#FFD808;}
	.st260{fill:#CCCC6E;}
	.st261{fill:#A5C2D3;}
	.st262{fill:#FF8710;}
	.st263{fill:#C45800;}
	.st264{fill:#2791CC;}
	.st265{fill:#A01717;}
	.st266{fill:#E51717;}
	.st267{fill:#C90D0D;}
	.st268{fill:#FF7171;}
	.st269{fill:#FFB428;}
	.st270{fill:#BC0F0F;}
	.st271{fill:#F76A00;}
	.st272{fill:#C14000;}
	.st273{fill:#AA2800;}
	.st274{fill:#FFAB31;}
	.st275{fill:#F7C27C;}
	.st276{fill:#560D0D;}
	.st277{fill:#960202;}
	.st278{fill:#700F0F;}
	.st279{fill:#CC5200;}
	.st280{fill:#951717;}
	.st281{fill:#71F0DC;}
	.st282{opacity:0.37;fill:#FFFFFF;}
	.st283{opacity:0.5;fill:#A7FFFF;}
	.st284{fill:#FFEB38;}
	.st285{fill:#304777;}
	.st286{fill:#03EDFF;}
	.st287{opacity:0.3;}
	.st288{opacity:0.2;}
	.st289{fill:#74A1B5;}
	.st290{fill:#33F5FF;}
	.st291{opacity:0.3;fill:#33F5FF;}
	.st292{fill:#99FFFF;}
	.st293{fill:#FCF9D9;}
	.st294{fill:#546077;}
	.st295{fill:#E5E1A8;}
	.st296{fill:#478461;}
	.st297{fill:#D3B5A5;}
	.st298{fill:#DE4400;}
	.st299{fill:#F77991;}
	.st300{fill:#FFDCE0;}
	.st301{fill:#663E20;}
	.st302{fill:#9B5D3B;}
	.st303{fill:#3F2D27;}
	.st304{fill:#DBB06B;}
	.st305{fill:#AF834F;}
	.st306{fill:#493B33;}
	.st307{fill:#81574A;}
	.st308{fill:#CC9933;}
	.st309{fill:#FFFF93;}
	.st310{fill:#D1993F;}
	.st311{fill:#D1AA66;}
	.st312{opacity:0.2;fill:#FFFF93;}
	.st313{opacity:0.1;fill:#FFFF93;}
	.st314{opacity:0.1;fill:#FFFF89;}
	.st315{opacity:0.7;}
	.st316{fill:#BC874D;}
	.st317{opacity:0.4;fill:#444951;}
	.st318{opacity:0.3;fill:#373944;}
	.st319{fill:#775742;}
	.st320{opacity:0.5;fill:#444951;}
	.st321{fill:#969436;}
	.st322{fill:#4C3529;}
	.st323{fill:#D8A355;}
	.st324{fill:#FFD578;}
	.st325{opacity:0.4;fill:#FFD578;}
	.st326{fill:#A79253;}
	.st327{fill:#CBAC4E;}
	.st328{fill:#5E4F2A;}
	.st329{opacity:0.6;fill:#52575E;}
	.st330{fill:#E5CF4A;}
	.st331{opacity:0.6;}
	.st332{fill:#444951;}
	.st333{fill:#1D1D1D;}
	.st334{fill:#1D1D1B;}
	.st335{fill:#D38C54;}
	.st336{fill:#B4FFFF;}
	.st337{opacity:0.4;fill:#FFFFFF;}
	.st338{opacity:0.7;fill:#7A3A2B;}
	.st339{fill:#D3AF85;}
	.st340{fill:#F9CB9D;}
	.st341{opacity:0.6;fill:#5D2D16;}
	.st342{opacity:0.29;fill:#5D2D16;}
	.st343{fill:#4F3220;}
	.st344{fill:#775542;}
	.st345{fill:#E2C54C;}
	.st346{fill:#F2E8B3;}
	.st347{fill:#F7F8F6;}
	.st348{fill:#976616;}
	.st349{fill:#6F3B0C;}
	.st350{fill:#5A0C0C;}
	.st351{opacity:0.44;}
	.st352{opacity:0.46;fill:#350B00;}
	.st353{fill:#B1B4B9;}
	.st354{fill:#B1B4A5;}
	.st355{fill:#C9CACC;}
	.st356{fill:#E9EAEC;}
	.st357{opacity:0.5;fill:#E9EAEC;}
	.st358{opacity:0.4;fill:#E9EAEC;}
	.st359{opacity:0.7;fill:#FFFFFF;}
	.st360{opacity:0.5;fill:#FFFFFF;}
</style>
<g>
	<path d="M157.84,328.66c0,0-2.16,5.06-9.97,12.17c0,0,0.01,0.01,0.01,0.01c1.54-1.33,6.88-5.6,11.75-5.6c0.45,0,0.9,0.04,1.34,0.12
		c3.63,0.77,5.33,3.6,5.33,3.6s-0.3-0.01-0.85-0.01c-2.45,0-9.78,0.28-15.88,3.39c5.33,5.53,5.86,14.35,5.81,18.09
		c0.1,0.71,0.15,1.14,0.15,1.14s-0.07,0.73-0.04,2.04c3.09,0.69,6.75,1.2,11.42,1.51c9.87,0.66,11.05,7.12,11.05,7.12
		s-2.64-0.41-6.09-0.58c3.56,1.47,5.65,3.05,5.65,3.05c-2.92-0.37-8.43-0.55-14.68-0.55c-0.86,0-1.74,0-2.62,0.01
		c-0.9,0.21-1.81,0.47-2.77,0.77c-0.01,0-0.03,0.02-0.06,0.03c1.82,6.11,5.36,13.69,12.18,21.38c3.54,3.99,6.15,9,7.98,14.72
		c4.72,8.72,15.72,29.08,20.66,38.7c0.66,1.29,1.21,2.38,1.63,3.23c0.14,0.28,0.27,0.57,0.41,0.86c4.15,9.02,6.22,21.56,2.79,21.78
		c0,0,0,0,0,0c0,0,0,0-0.01,0c0,0,0,0,0,0c-0.03,0-0.07,0-0.1,0c-2.96,0-15.89-6.23-23.48-17.17c-0.95,7.14-2.31,14.38-3.95,21.52
		c0,0,0-0.01,0.01-0.01c0-0.01,0.01-0.01,0.01-0.01c0.01,0-0.01,0.05-0.04,0.12c-0.07,0.31-0.14,0.62-0.21,0.93
		c-0.37,1.94-1.21,6.44-3.6,12.29c-0.63,1.61-1.31,3.15-2.03,4.64c-0.79,2.94-1.8,6.08-3.06,9.11c-2.42,8.62-4.3,14.24-4.68,15.38
		c0.04,0.56,0.08,0.96,0.12,1.22c3.01,1.56,6.35,1.97,9.06,1.97c3.07,0,5.31-0.53,5.31-0.53s0.95-0.37,2.16-0.37
		c0.29,0,0.59,0.02,0.89,0.07c-0.03-0.02-0.05-0.03-0.05-0.03s3.91,0.55,3.9,4.53c-0.01,3.66-5.65,3.88-6.64,3.89
		c1.01,2.7-2.04,4.18-2.04,4.18s-1.63,0.69-4.77,0.69c-1.28,0-2.8-0.11-4.57-0.44c-0.14-0.03-0.28-0.06-0.42-0.09
		c-3.13-0.57-6.44-1.71-9.08-3.65c-0.08,0.39-0.77,2.89-4.41,3.35c-0.25,2.15-3.03,3.68-7.51,3.68c-0.63,0-1.29-0.03-1.98-0.09
		c-5.16-0.46-7.8-2.1-8.52-2.6c-0.02,0.09-0.04,0.18-0.06,0.28c0.05-0.13,0.07-0.21,0.07-0.21c-0.27,3.18-2.56,8.7-7.92,8.7
		c-0.22,0-0.46-0.01-0.69-0.03c-4.79-0.41-5.25-4.28-4.36-7.43c-1.52,1.02-4.72,2.75-9.1,2.75c-0.47,0-0.95-0.02-1.45-0.06
		c-7.07-0.61-3.15-5.8-3.15-5.8s0.65-1.22,4.01-2.87c-4.97-0.15-9.06-0.97-11.48-2.73c-1.13-0.83-0.95-2.6,0.29-3.26
		c4.49-2.39,14.03-9.32,10.03-23.58c-3.31-10.71-6.42-25.23-7.81-40.4c-0.06,0.08-0.12,0.16-0.18,0.24
		c-2.61,3.17-9.37,10.23-15.72,15.4c-1.72,1.43-3.3,2.61-4.73,3.51c-2.41,1.58-4.55,2.57-6.08,2.57c-2.02,0-3-1.73-2.18-6.14
		c1.03-5.58,2.09-10.31,3.48-14.91c4.18-14.73,12.38-27.2,18.5-38.87c6.76-12.9,11.89-28.56,13.58-48.55
		c0.11-3.72,0.38-8.52,1.34-13.48c1.7-9.26,4.94-14.28,7.18-16.78c1.05-1.27,2.23-2.45,3.55-3.51c-5.66,0.19-10.15,1.51-10.15,1.51
		s1.06-3.43,4.68-5.17c1.22-0.55,2.59-0.76,4-0.76c2.29,0,4.68,0.58,6.71,1.26c0.25-0.11,0.49-0.21,0.75-0.31
		c-7.2-4.49-9.88-8.05-9.88-8.05c0.62-0.07,1.24-0.11,1.83-0.11c5.54,0,9.98,3.03,13.31,6.65c0.73-0.13,1.49-0.25,2.27-0.34
		c1.11-0.12,2.15-0.18,3.15-0.18c3.15,0,5.76,0.59,7.93,1.58C147.43,334.26,151.38,329.46,157.84,328.66 M157.38,374.95
		c0.01,0,0.02-0.01,0.03-0.01C157.4,374.94,157.39,374.95,157.38,374.95C157.38,374.95,157.38,374.95,157.38,374.95 M155.56,534.04
		c0.05-0.05,0.11-0.1,0.16-0.15c-0.03-0.02-0.06-0.04-0.09-0.06C155.61,533.89,155.59,533.97,155.56,534.04 M157.85,325.66
		c-0.12,0-0.25,0.01-0.37,0.02c-5.66,0.7-10.4,4.05-13.83,9.75c-2.01-0.58-4.2-0.87-6.53-0.87c-1.12,0-2.29,0.07-3.48,0.2
		c-0.29,0.03-0.58,0.07-0.87,0.11c-4.36-4.28-9.19-6.44-14.38-6.44c-0.72,0-1.46,0.04-2.19,0.13c-1.07,0.13-1.98,0.81-2.41,1.8
		c-0.42,0.99-0.28,2.13,0.36,2.98c0.06,0.08,0.78,1.02,2.35,2.5c-0.98,0.17-1.9,0.44-2.74,0.82c-0.03,0.01-0.05,0.02-0.08,0.04
		c-4.67,2.25-6.1,6.51-6.24,6.99c-0.33,1.06-0.05,2.21,0.73,2.99c0.57,0.58,1.34,0.89,2.14,0.89c0.28,0,0.57-0.04,0.85-0.12
		c0.01,0,0.59-0.17,1.57-0.39c-2.21,3.23-4.58,8.23-5.96,15.75c-1.02,5.29-1.28,10.43-1.38,13.85c-1.5,17.7-5.83,33.19-13.24,47.33
		c-1.43,2.74-2.97,5.49-4.59,8.4c-5.08,9.12-10.84,19.46-14.13,31.02c-1.31,4.36-2.41,9.05-3.55,15.2
		c-0.68,3.67-0.34,6.17,1.06,7.86c0.98,1.17,2.42,1.82,4.07,1.82c2.07,0,4.52-0.97,7.7-3.05c1.52-0.96,3.22-2.22,5.03-3.73
		c4.15-3.38,8.44-7.51,11.72-10.94c1.49,11.84,4.03,24.01,7.19,34.24c3.27,11.76-3.96,17.63-8.57,20.09
		c-1.52,0.81-2.49,2.32-2.62,4.04c-0.12,1.69,0.62,3.29,1.97,4.29c1.55,1.14,3.58,1.98,6.12,2.53c-0.71,1.33-1.49,3.54-0.5,5.75
		c0.96,2.16,3.16,3.41,6.52,3.69c0.57,0.05,1.14,0.07,1.71,0.07c2.29,0,4.31-0.4,6.01-0.95c0.23,0.88,0.59,1.68,1.08,2.4
		c0.91,1.31,2.7,2.94,6.11,3.23c0.32,0.03,0.63,0.04,0.94,0.04c5.28,0,8.46-3.72,9.94-7.46c1.58,0.55,3.64,1.05,6.21,1.29
		c0.77,0.07,1.52,0.1,2.25,0.1c5.44,0,8.45-1.87,9.75-4.11c1.29-0.42,2.32-1.07,3.11-1.83c2.73,1.41,5.52,2.14,7.61,2.51l0.08,0.02
		c0.11,0.02,0.22,0.05,0.34,0.07c1.76,0.32,3.48,0.48,5.1,0.48c3.57,0,5.58-0.77,5.94-0.93c0.05-0.02,0.09-0.04,0.14-0.06
		c1.68-0.82,3.12-2.32,3.68-4.16c4.18-0.79,6.68-3.18,6.69-6.6c0.02-5.22-4.23-7.2-6.48-7.52c-0.12-0.02-0.25-0.03-0.37-0.03
		c-0.29-0.03-0.59-0.05-0.89-0.05c-1.35,0-2.46,0.31-2.98,0.48c-0.47,0.1-2.24,0.43-4.49,0.43c-2.12,0-4.09-0.29-5.8-0.85
		c0.8-2.44,2.32-7.24,4.14-13.74c1.13-2.75,2.15-5.79,3.04-9.04c0.73-1.52,1.4-3.07,1.99-4.58c2.48-6.06,3.37-10.77,3.75-12.79
		l0.13-0.55l0.04-0.2c0.05-0.15,0.08-0.3,0.1-0.45c1.16-5.05,2.14-10.03,2.94-14.87c7.76,8.12,17.77,13.06,21.51,13.06
		c0.06,0,0.12,0,0.18,0c0.06,0,0.11,0,0.17-0.01c1.4-0.09,2.67-0.89,3.46-2.2c2.78-4.65-0.6-16.96-3.75-23.82
		c-0.14-0.31-0.29-0.62-0.44-0.92c-0.41-0.83-0.96-1.94-1.65-3.28c-4.92-9.58-15.91-29.93-20.55-38.51
		c-2.02-6.22-4.88-11.44-8.5-15.53c-4.73-5.33-8.26-11.1-10.53-17.2c0.52,0,1.04,0,1.56,0c6.49,0,11.7,0.19,14.3,0.53
		c0.13,0.02,0.26,0.02,0.38,0.02c1.2,0,2.31-0.73,2.77-1.86c0.25-0.62,0.29-1.28,0.13-1.89c0.46-0.65,0.64-1.46,0.49-2.26
		c-0.07-0.36-1.74-8.78-13.8-9.58c-3.25-0.22-6.09-0.54-8.6-0.98c-0.02-0.15-0.06-0.47-0.12-0.91c0.02-3.41-0.43-10.67-4.07-16.6
		c4.72-1.54,9.53-1.68,11.13-1.68c0.43,0,0.68,0.01,0.71,0.01c0.04,0,0.09,0,0.13,0c1.05,0,2.04-0.56,2.58-1.47
		c0.56-0.95,0.56-2.13-0.01-3.08c-0.24-0.4-2.51-3.98-7.28-4.99c-0.03-0.01-0.06-0.01-0.09-0.02c-0.6-0.11-1.23-0.16-1.87-0.16
		c-0.12,0-0.24,0-0.36,0.01c0.91-1.45,1.29-2.32,1.33-2.41c0.42-0.99,0.28-2.12-0.36-2.98C159.67,326.1,158.78,325.66,157.85,325.66
		L157.85,325.66z"/>
	<path d="M157.41,328.97c-0.69,1.34-3.29,5.83-9.71,11.68l-0.21,0.21l0.23,0.18l0.16,0.13l0.16-0.13c1.51-1.3,6.81-5.54,11.59-5.54
		c0.45,0,0.88,0.04,1.29,0.11c2.67,0.57,4.28,2.31,4.89,3.1c-0.1,0-0.22,0-0.35,0c-2.79,0-9.94,0.33-16,3.42l-0.3,0.15l0.23,0.24
		c5.3,5.49,5.78,14.35,5.75,17.95c0.09,0.61,0.13,1.01,0.14,1.11c-0.01,0.14-0.06,0.86-0.04,2.04l0,0.2l0.19,0.04
		c3.22,0.72,6.97,1.22,11.46,1.51c8.35,0.56,10.33,5.24,10.73,6.57c-0.85-0.12-3.06-0.4-5.75-0.53l-1.45-0.07l1.35,0.55
		c2.21,0.91,3.85,1.87,4.77,2.46c-2.94-0.29-7.74-0.44-13.71-0.44c-0.86,0-1.74,0-2.63,0.01l-0.03,0l-0.03,0.01
		c-0.8,0.19-1.69,0.43-2.78,0.77l-0.03,0.01l-0.03,0.01l-0.01,0l0-0.01l-0.24,0.07l0.02,0.06v0l0.01,0.04l0.04,0.14l0,0.01l0,0l0,0
		c2.29,7.68,6.41,14.91,12.24,21.48c3.38,3.8,6.04,8.73,7.94,14.67c4.56,8.42,15.7,29.05,20.65,38.69c0.68,1.33,1.23,2.41,1.62,3.23
		c0.14,0.28,0.27,0.57,0.41,0.86c3.59,7.8,5.53,18.1,3.92,20.8c-0.24,0.4-0.54,0.6-0.92,0.63c-0.03,0-0.06,0-0.09,0
		c-2.85,0-15.64-6.05-23.27-17.06l-0.37-0.53l-0.09,0.64c-0.92,6.87-2.24,14.11-3.94,21.5l-0.02,0.1c0,0,0,0,0,0l-0.07,0.33
		l-0.14,0.61l0,0.01l-0.07,0.29l0.02-0.02c-0.39,2.03-1.26,6.41-3.54,11.97c-0.6,1.53-1.27,3.09-2.03,4.67
		c-0.89,3.28-1.91,6.34-3.06,9.11c-2.44,8.67-4.33,14.32-4.68,15.37l-0.02,0.05l0,0.05c0.04,0.59,0.09,1,0.12,1.24l0.02,0.13
		l0.11,0.06c2.56,1.33,5.65,2,9.17,2c3.06,0,5.35-0.53,5.4-0.55c0.01,0,0.93-0.35,2.07-0.35c0.29,0,0.58,0.02,0.85,0.07l0.34,0.06
		c0.95,0.25,3.31,1.18,3.3,4.2c-0.01,3.37-5.33,3.63-6.39,3.64l-0.35,0.01l0.12,0.33c0.92,2.45-1.8,3.81-1.91,3.86
		c-0.02,0.01-1.63,0.67-4.67,0.67c-1.43,0-2.95-0.15-4.52-0.43c-0.08-0.02-0.17-0.03-0.25-0.05l-0.17-0.04
		c-2.46-0.44-6.01-1.43-8.98-3.61l-0.31-0.23l0,0l-0.08-0.06l-0.11,0.33l-0.03,0.08c-0.01,0.04-0.03,0.08-0.04,0.13l-0.44,1.11
		l0.15-0.15c-0.52,0.81-1.59,1.82-3.73,2.09l-0.19,0.02l-0.02,0.19c-0.25,2.1-3.1,3.46-7.26,3.46c-0.63,0-1.28-0.03-1.96-0.09
		c-5.1-0.46-7.71-2.08-8.39-2.56l-0.33-0.23l-0.07,0.39c-0.01,0.05-0.02,0.09-0.03,0.14c-0.01,0.04-0.02,0.09-0.03,0.13l0.05,0.01
		c-0.35,3.28-2.68,8.27-7.66,8.27c-0.22,0-0.44-0.01-0.67-0.03c-1.72-0.15-2.97-0.76-3.72-1.84c-0.86-1.25-1.02-3.18-0.42-5.28
		l0.19-0.66l-0.57,0.38c-1.5,1.01-4.66,2.7-8.96,2.7c-0.47,0-0.95-0.02-1.43-0.06c-2.09-0.18-3.38-0.78-3.82-1.78
		c-0.69-1.54,0.84-3.6,0.88-3.65c0.01-0.01,0.69-1.19,3.9-2.77l0.9-0.44l-1-0.03c-5.31-0.16-9.13-1.07-11.34-2.68
		c-0.45-0.33-0.69-0.85-0.65-1.43c0.04-0.6,0.38-1.13,0.9-1.41c4.41-2.35,14.22-9.37,10.16-23.87c-3.7-11.98-6.55-26.69-7.8-40.35
		l-0.06-0.64l-0.39,0.51l-0.07,0.1c-0.03,0.05-0.07,0.09-0.1,0.13c-2.61,3.17-9.41,10.25-15.68,15.37c-1.71,1.43-3.3,2.61-4.71,3.5
		c-2.57,1.68-4.57,2.53-5.94,2.53c-0.69,0-1.21-0.21-1.57-0.65c-0.72-0.87-0.84-2.61-0.37-5.19c1.12-6.05,2.19-10.64,3.47-14.88
		c3.18-11.21,8.6-20.94,13.85-30.35c1.63-2.93,3.18-5.7,4.63-8.47c7.62-14.56,12.07-30.47,13.6-48.66c0.1-3.31,0.35-8.31,1.33-13.44
		c1.66-9.07,4.79-14.07,7.13-16.66c1.06-1.29,2.24-2.46,3.52-3.48l0.59-0.47l-0.75,0.02c-4.56,0.15-8.41,1.05-9.73,1.39
		c0.42-0.96,1.66-3.27,4.37-4.57c1.1-0.49,2.41-0.74,3.89-0.74c1.94,0,4.17,0.42,6.63,1.25l0.09,0.03l0.09-0.04
		c0.24-0.11,0.49-0.21,0.74-0.31l0.46-0.18l-0.42-0.26c-5.79-3.61-8.66-6.64-9.53-7.64c0.45-0.04,0.9-0.06,1.34-0.06
		c4.69,0,9.11,2.21,13.13,6.57l0.09,0.1l0.14-0.02c0.77-0.14,1.51-0.25,2.25-0.33c1.07-0.12,2.12-0.18,3.12-0.18
		c2.93,0,5.57,0.52,7.83,1.55l0.22,0.1l0.11-0.22C148.21,333.23,152.29,329.77,157.41,328.97 M157.84,328.66
		c-6.47,0.8-10.42,5.6-12.79,10.48c-2.17-0.99-4.78-1.58-7.93-1.58c-0.99,0-2.04,0.06-3.15,0.18c-0.78,0.09-1.53,0.2-2.27,0.34
		c-3.33-3.62-7.77-6.65-13.31-6.65c-0.6,0-1.21,0.04-1.83,0.11c0,0,2.68,3.56,9.88,8.05c-0.25,0.1-0.5,0.2-0.75,0.31
		c-2.03-0.68-4.42-1.26-6.71-1.26c-1.41,0-2.77,0.22-4,0.76c-3.62,1.75-4.68,5.17-4.68,5.17s4.49-1.32,10.15-1.51
		c-1.33,1.06-2.51,2.24-3.55,3.51c-2.25,2.49-5.49,7.52-7.18,16.78c-0.95,4.96-1.23,9.76-1.34,13.48
		c-1.68,19.99-6.82,35.65-13.58,48.55c-6.12,11.68-14.32,24.14-18.5,38.87c-1.39,4.6-2.45,9.32-3.48,14.91
		c-0.82,4.41,0.16,6.14,2.18,6.14c1.53,0,3.67-0.99,6.08-2.57c1.43-0.9,3.01-2.08,4.73-3.51c6.34-5.17,13.11-12.23,15.72-15.4
		c0.06-0.07,0.12-0.16,0.18-0.24c1.39,15.16,4.5,29.68,7.81,40.4c3.99,14.26-5.54,21.19-10.03,23.58c-1.24,0.66-1.42,2.43-0.29,3.26
		c2.41,1.77,6.51,2.58,11.48,2.73c-3.36,1.65-4.01,2.87-4.01,2.87s-3.92,5.19,3.15,5.8c0.5,0.04,0.98,0.06,1.45,0.06
		c4.38,0,7.58-1.72,9.1-2.75c-0.89,3.15-0.43,7.03,4.36,7.43c0.24,0.02,0.47,0.03,0.69,0.03c5.36,0,7.66-5.52,7.92-8.7
		c0,0-0.03,0.08-0.07,0.21c0.02-0.09,0.04-0.19,0.06-0.28c0.71,0.51,3.36,2.14,8.52,2.6c0.69,0.06,1.35,0.09,1.98,0.09
		c4.48,0,7.26-1.53,7.51-3.68c3.63-0.46,4.32-2.96,4.41-3.35c2.65,1.94,5.96,3.09,9.08,3.65c0.14,0.03,0.28,0.06,0.42,0.09
		c1.77,0.32,3.29,0.44,4.57,0.44c3.14,0,4.77-0.69,4.77-0.69s3.05-1.48,2.04-4.18c1-0.02,6.63-0.23,6.64-3.89
		c0.01-3.98-3.9-4.53-3.9-4.53s0.02,0.01,0.05,0.03c-0.31-0.05-0.61-0.07-0.89-0.07c-1.21,0-2.16,0.37-2.16,0.37
		s-2.25,0.53-5.31,0.53c-2.7,0-6.05-0.41-9.06-1.97c-0.04-0.26-0.09-0.66-0.12-1.22c0.39-1.14,2.26-6.76,4.68-15.38
		c1.26-3.03,2.26-6.17,3.06-9.11c0.72-1.49,1.4-3.03,2.03-4.64c2.39-5.85,3.24-10.35,3.6-12.29c0.07-0.31,0.14-0.62,0.21-0.93
		c0.03-0.07,0.04-0.12,0.04-0.12c0,0,0,0-0.01,0.01c0,0,0,0.01-0.01,0.01c1.64-7.14,2.99-14.38,3.95-21.52
		c7.59,10.94,20.52,17.17,23.48,17.17c0.04,0,0.07,0,0.1,0c0,0,0,0,0,0c0,0,0,0,0.01,0c0,0,0,0,0,0c3.42-0.21,1.35-12.76-2.79-21.78
		c-0.13-0.29-0.27-0.58-0.41-0.86c-0.41-0.85-0.97-1.94-1.63-3.23c-4.94-9.62-15.93-29.98-20.66-38.7
		c-1.83-5.73-4.43-10.73-7.98-14.72c-6.82-7.69-10.36-15.27-12.18-21.38c0.03-0.02,0.05-0.03,0.06-0.03
		c0.96-0.3,1.87-0.56,2.77-0.77c0.89-0.01,1.76-0.01,2.62-0.01c6.25,0,11.77,0.18,14.68,0.55c0,0-2.09-1.59-5.65-3.05
		c3.45,0.17,6.09,0.58,6.09,0.58s-1.18-6.47-11.05-7.12c-4.67-0.31-8.33-0.82-11.42-1.51c-0.03-1.3,0.04-2.04,0.04-2.04
		s-0.05-0.43-0.15-1.14c0.04-3.74-0.48-12.56-5.81-18.09c6.11-3.11,13.43-3.39,15.88-3.39c0.54,0,0.85,0.01,0.85,0.01
		s-1.7-2.83-5.33-3.6c-0.44-0.08-0.89-0.12-1.34-0.12c-4.87,0-10.21,4.28-11.75,5.6c0,0-0.01-0.01-0.01-0.01
		C155.68,333.72,157.84,328.66,157.84,328.66L157.84,328.66z M157.38,374.95C157.38,374.95,157.38,374.95,157.38,374.95
		c0.01-0.01,0.02-0.01,0.03-0.01C157.4,374.94,157.39,374.95,157.38,374.95L157.38,374.95z M155.56,534.04
		c0.03-0.07,0.05-0.14,0.07-0.22c0.03,0.02,0.06,0.04,0.09,0.06C155.67,533.94,155.61,533.99,155.56,534.04L155.56,534.04z"/>
</g>
<path class="st32" d="M177.52,374.85c0,0-6.59-5.01-16.31-5.45c-9.72-0.44-22.82,3.75-22.82,3.75s17.52,0.81,17.67,0.59
	C156.2,373.52,173.14,373.74,177.52,374.85z"/>
<path class="st33" d="M175.31,407.09c0,0,20.1,36.99,24.52,46.05s6.74,22.42,3.2,22.64s-24.74-10.38-28.6-28.38
	S170.89,406.43,175.31,407.09z"/>
<path d="M199.82,453.14c-4.42-9.06-24.52-46.05-24.52-46.05c-1.12-0.17-1.98,1.2-2.58,3.62c4.54,7.58,21.15,35.4,25.28,43.03
	c4.34,8.01,7.11,19.62,5,22.04c0,0,0.01,0,0.01,0C206.56,475.56,204.24,462.2,199.82,453.14z"/>
<path class="st106" d="M99.21,530.97c-1.13-0.83-0.95-2.6,0.29-3.26c4.49-2.39,14.03-9.32,10.03-23.58
	c-5.01-16.2-9.57-41.08-8.39-63.75c1.18-22.67,6.92-50.36,7.21-62.28c0.29-11.93,1.77-37.55,25.62-40.2s21.35,24.44,21.35,24.44
	s-6.48,14.28,7.21,27.24s19.88,32.69,14.72,68.02c-5.15,35.34-15.46,65.23-15.46,65.23c-0.48,0.94-4.51,2.59-10.35,4.34
	c-7.39,12.06-20.17,5.12-30.75,6.13C111.4,534.19,103.11,533.82,99.21,530.97z"/>
<path class="st107" d="M141.04,353.13c0,0-7.33-13.18-15.17-6.33c-7.84,6.85-14.28,20.76-7.99,50.47
	c6.29,29.71-0.44,49.03-0.44,49.03s-9.61-10.27-11.71-26.72c0,0-3.31,22.53,3.09,45.5s-0.44,56.43,14.13,61.18
	s42.96-7.51,51.35-41.19s10.93-70.9-4.75-88.56s-14.02-34.79-14.02-34.79s-2.06-18.96-8.91-17.19
	C142,346.5,141.04,353.13,141.04,353.13z"/>
<path class="st33" d="M117.44,446.3c-0.24,1.61-0.88,7.49-1.14,8.8c-2.21,11.19-1.03,52.56,23.56,51.53
	c24.59-1.03,36.07-27.09,35.63-26.5c-0.44,0.59-1.62,17.96-18.55,35.63c-16.93,17.67-38.58,13.4-41.37,3.24
	c-2.8-10.16-3.98-37.25-10.16-69.35c-4.16-6.04-5.75-9.74-1.25-18.56C108.65,422.26,105.66,430.67,117.44,446.3z"/>
<path class="st108" d="M124.84,373.19c0,0-7.07-7.95-2.32-18.99c4.75-11.04,14.36-7.62,18.77,0.55c0,0,1.88-8.39,5.85-9.06
	c3.98-0.66,8.83,11.6,6.29,21.09C153.44,366.79,135.66,377.39,124.84,373.19z"/>
<path class="st109" d="M110.31,344.72c0,0,20.12-5.93,28.85,5.55c0,0-7.63-20.36-22.6-18.59c0,0,3.71,4.95,14.22,10.55
	c0,0-9.69-5.41-15.78-2.69C111.37,341.29,110.31,344.72,110.31,344.72z"/>
<path class="st109" d="M166.31,339.1c0,0-19.33-0.88-24.61,11.32c0,0,2.35-19.91,16.15-21.62c0,0-2.23,5.25-10.41,12.58
	c0,0,7.49-6.98,13.54-5.88C164.61,336.27,166.31,339.1,166.31,339.1z"/>
<path class="st33" d="M149.69,394.28c0,0,19.55,23.63,7.51,65.82C157.2,460.1,175.64,414.27,149.69,394.28z"/>
<path class="st106" d="M108.35,378.09c0,0-0.63,25.25-14.65,49.77c-14.02,24.52-17.56,33.57-20.87,51.46
	c-3.31,17.89,22.93-8.32,28.71-15.35C110.82,452.59,117.53,380.76,108.35,378.09z"/>
<path d="M119.32,344.59c0,0-9.39,5.33-10.6,27.78c-1.21,22.44-6.63,39.66-13.91,53.66c-7.29,14-17.78,28.32-20.65,47.1
	c-2.27,8.07-1.7,11.69-0.59,12.33c4.12,2.56,13.95-5.32,27.73-20.9c4.1-7.76,7.71-19.34,8.75-36.54c0,0-2.54,37-31.25,53.11
	c-8.61,2,14.47-39.11,26.28-54.44c11.82-15.33,8.06-23.89,7.07-42.55C111.15,365.48,111.81,354.14,119.32,344.59z"/>
<path d="M162.06,524.15c0,0-0.99-4.53,1.21-13.03c0,0-7.51,14.47-29.37,17.67s-22.75-15.79-22.75-15.79s0.22,7.95-6.74,12.81
	s20.54,5.08,20.54,5.08S153,526.69,162.06,524.15z"/>
<g>
	<path class="st110" d="M152.39,521.73c0,0,2.98-1.47,9.43,1.99c6.45,3.46,14.55,1.53,14.55,1.53s4.79-1.88,6.53,2.79
		c1.74,4.67-6.51,6.06-15.02,5.24C159.38,532.46,152.86,525.69,152.39,521.73z"/>
	<path class="st110" d="M152.1,537.19c0,0-5.11,1.27-7.18-2.61s-1.08-8.13,2.94-10.53c4.03-2.4,7.27,4.86,7.27,4.86
		S158.22,535.02,152.1,537.19z"/>
	<path class="st110" d="M147.87,524.05c0,0,3.94-3.95,8.11-1.82s3.17,6.04,12.44,7.38c9.27,1.33,8.28,5.36,6.44,7.44
		c-1.84,2.08-17.05,1.91-22.43-6.46C147.02,522.21,147.87,524.05,147.87,524.05z"/>
	<path class="st111" d="M152.75,524.41c0,0,3.42,3.41,3.01,9.59c0,0,3.38,2.68,9.49,3.79c6.11,1.11,9.34-0.26,9.34-0.26
		s4.73-2.29,0.49-6.36c0,0,3.14,4.79-3.63,5.7c-6.77,0.91-13.96-4.1-13.96-4.1S157.82,528.81,152.75,524.41z"/>
	<path class="st111" d="M159.54,524.53c0,0,3.82,3.95,10.04,4.8c6.22,0.85,6.58,3.6,6.58,3.6s0.19,0.43,0.31,0.43
		c0.12-0.01,6.79,0.09,6.8-3.9c0.01-3.98-3.9-4.53-3.9-4.53s3.74,1.85,1.48,4.32c-1.56,1.7-4.68,0.8-6.47,0.07
		c-1.08-0.44-2.22-0.71-3.38-0.89C168.08,527.97,162.71,526.87,159.54,524.53z"/>
	<path class="st111" d="M149.13,537.44c0,0-5.6-0.07-5.4-7.89c0.2-7.82,9.82-8.17,9.82-8.17s-6.54,1.3-6.73,7.17
		s2.19,6.75,2.19,6.75s4.17,1.54,6.75-1.31C155.75,534,155.12,537.93,149.13,537.44z"/>
	<path class="st111" d="M170.79,537.6c0,0-2.64-1.9-1.64-4.35s3.28-2.59,3.28-2.59s-3.16-0.18-4.55,2.61
		c-1.39,2.79,0.41,4.29,0.41,4.29L170.79,537.6z"/>
	<path class="st111" d="M163.27,536.08c0,0-1.51-2.1,0.78-4.87c2.29-2.76,5.88-1.53,5.88-1.53s-4.18-1.65-7.34,0.9
		s-1.24,5.33-1.24,5.33L163.27,536.08z"/>
	<path class="st111" d="M157.63,533.17c0,0-0.57-3.55,2.72-5.25c0,0,1.79-0.86,3.71-0.06c0,0-2.08-1.38-4.64-0.37
		c-2.56,1.01-3.05,3.06-3.05,3.06S156.17,534.09,157.63,533.17z"/>
	<path class="st111" d="M155.19,527.13c-0.01-0.15,0.18-1.81,3.5-2.3c0,0-2.73-0.57-4.47,1.13L155.19,527.13z"/>
	<path class="st111" d="M178.03,525.72c0,0,2.43,1.8,1.84,5.04l-1.5,0.18C178.37,530.94,179.2,528.25,178.03,525.72z"/>
	<path class="st111" d="M173.97,526.21c0,0,0.86,1.47-0.17,3.36l-1.45-0.26C172.35,529.31,174.01,528.34,173.97,526.21z"/>
	<path class="st111" d="M168.42,528.31c0,0,1.16-0.46,1.42-2.2c0,0-1.66,1.59-3.58,1.75L168.42,528.31z"/>
	<path class="st111" d="M163.11,526.76c0,0,1.06,0.01,1.67-0.92c0,0-1.73,0.51-3.35,0.16L163.11,526.76z"/>
	<path class="st111" d="M153.67,530.52c0.11,0.07-3.24-0.99-5.36,0.58c-2.11,1.57-0.18,4.69-0.18,4.69s-2.8-1.71-3-3.14
		C144.93,531.23,149.35,527.81,153.67,530.52z"/>
	<path class="st111" d="M153.56,527.06c0,0-1.74-1.83-4-1.36s-3.52,1.23-4.76,3.25c-1.23,2.01-0.31-1.87,0.6-2.98
		S151.41,523.22,153.56,527.06z"/>
</g>
<path class="st110" d="M124.03,526.66c0,0-6.49,4.75-13.09,7.42c-6.6,2.66-6.49,7.3-2.32,7.99s13.79-1.04,16.8-8.34
	C125.42,533.73,127.73,526.9,124.03,526.66z"/>
<path class="st110" d="M129.29,526.4c0,0,7.82,3.92,15.39,5.58c7.57,1.66,8.28,6.65,3.93,8.15c-4.35,1.5-14.98,1.38-19.53-5.9
	C129.08,534.23,125.35,527.32,129.29,526.4z"/>
<path class="st110" d="M129.29,526.4c0,0,5.86,5.59,3.77,13.24c-1.11,4.08-3.38,5.95-5.25,6.81c-1.83,0.84-3.99,0.8-5.66-0.33
	c-1.26-0.85-2.36-2.36-1.72-4.97c1.27-5.21,4.63-9.73,3.59-14.48C124.03,526.66,125.98,525.32,129.29,526.4z"/>
<path class="st111" d="M123.9,527.3c0,0-1.55,0.83-1.99,3.64c-0.44,2.82,0.88,3.59-0.77,6.79c-1.66,3.2-2.26,8.89,3.59,9.39
	c5.85,0.5,8.34-5.36,8.61-8.67c0,0-1.75,5.69-6.61,6.75c-1.37,0.3-2.85-0.01-3.84-0.98c-2.85-2.79,1.27-6.55,0.69-11.23
	C122.91,527.63,123.9,527.3,123.9,527.3z"/>
<path class="st111" d="M121.36,538.95c0,0-4.47,4.03-11.54,3.42s-3.15-5.8-3.15-5.8s1.1-2.1,8.01-4.53c0,0,4.8-2.32,5.8-3.15
	c0.99-0.83-2.71,2.65-7.07,4.69c-4.36,2.04-6.07,4.8-4.42,5.69c1.66,0.88,11.1,0.77,13.42-6.02
	C122.41,533.26,122.74,536.07,121.36,538.95z"/>
<path class="st111" d="M130.36,530.44c0,0,3.53,2.37,2.76,7.79c0,0,2.6,2.21,8.72,2.76c6.13,0.55,9.83-1.44,9.5-4.25
	c-0.33-2.82-1.99-3.26-1.99-3.26s3.04,3.7-0.83,5.08c-2.98,1.06-9.86,1.31-14.63-2.98C133.73,534.14,133.57,532.93,130.36,530.44z"
	/>
<path class="st111" d="M127.41,538.2c0,0-5.02-0.83-5.6,3.67l-0.55-1.85C121.25,540.02,122.25,536.85,127.41,538.2z"/>
<path class="st111" d="M129.65,534.75c0,0-4.31-1.77-6.27,0.77s-0.55-2.46-0.55-2.46S126.69,531.24,129.65,534.75z"/>
<path class="st111" d="M129.73,530.53c0,0-3.98-2.51-6.82,0.66l-0.19-1.35C122.72,529.84,126.44,526.74,129.73,530.53z"/>
<path class="st111" d="M133.59,528.7c0.09-0.04-1.96,0.08-2.95,1.9l0.75,0.77C131.39,531.38,131.91,529.5,133.59,528.7z"/>
<path class="st111" d="M133.01,533.34c-0.03,0,0.25-2.18,3.09-3.23c0,0-1.99,1.93-2.37,4.58L133.01,533.34z"/>
<path class="st111" d="M137.54,538.23c-0.05-0.06-1.68-3.29,2.57-6.38c0,0-2.1,4.39-1.08,6.9
	C139.03,538.75,138.26,539.08,137.54,538.23z"/>
<path class="st111" d="M144.58,532.68c0,0-3.09,1.68-2.13,6.71c0,0,1.93,0.44,1.96,0.33C144.44,539.61,142.82,536.65,144.58,532.68z
	"/>
<path class="st111" d="M114.21,535.72c0,0-1.57-1.88-4.28-0.47s2.21-1.68,2.15-1.79C112.03,533.34,114.27,533.7,114.21,535.72z"/>
<path class="st111" d="M118,534.11c0,0-0.3-1.85-2.82-1.79s2.1-1.46,2.1-1.46S118.82,532.13,118,534.11z"/>
<path class="st108" d="M123.41,420.57c-0.11-0.44-3.42-21.31,0.44-27.17c3.87-5.85,24.96-16.56,37.77-1.33s18.55,24.74,15.9,61.18
	c-2.65,36.44-31.58,43.07-41.52,33.79c-8.56-7.99-18.55-25.4-15.57-39.53C123.41,433.37,123.41,420.57,123.41,420.57z"/>
<path class="st107" d="M142.81,503.39c0,0,4.42,23.56-13.4,24.88s-12.52-51.68-12.52-51.68S139.12,494.11,142.81,503.39z"/>
<path class="st107" d="M172.25,484.84c0,0-3.53,31.51-17.96,37.4c-11.51,4.73-14.28,3.09-12.07-23.12L172.25,484.84z"/>
<ellipse class="st33" cx="133.82" cy="358.25" rx="5.45" ry="8.13"/>
<ellipse class="st33" cx="147.44" cy="357.33" rx="4.93" ry="7.8"/>
<g>
	<ellipse cx="147.47" cy="357.4" rx="3.78" ry="6.18"/>
	<ellipse class="st112" cx="147.08" cy="355.92" rx="2.1" ry="3.44"/>
	<ellipse class="st23" cx="146.82" cy="355.43" rx="1.23" ry="2.01"/>
	<path class="st113" d="M145.63,361.53c0,0,0.84,1.77,2.46,1.2s2.33-4.31,2.33-4.31S148.28,363.44,145.63,361.53z"/>
</g>
<path class="st110" d="M124.51,366.08c0,0,7.28,4.42,11.99,1.11c4.71-3.31,5.24-8.75,10.21-6.43s10.34,3.84,20.21,4.5
	c9.87,0.66,11.05,7.12,11.05,7.12s-10.47-1.62-17.01,0.22c-6.55,1.85-24.24,9.06-32.06,7.32
	C121.08,378.18,118.83,370.21,124.51,366.08z"/>
<path class="st32" d="M124.4,366.12c0,0-5.96,3.42-2.14,10.12c3.24,4.64,8.02,4.79,15.83,3.75c13.47-2.06,18.63-5.37,24.37-6.11
	c0,0-10.39-0.1-15.46,2.72C129.41,380.74,118.07,376.91,124.4,366.12z"/>
<path class="st32" d="M126.32,370.21c0,0,1.4,4.49,8.25,4.64c6.85,0.15,27.02-1.99,27.02-1.99s10.09-0.66,15.94,1.99
	c0,0-15.64-2.65-26.17,0.59C140.82,378.68,127.79,377.28,126.32,370.21z"/>
<path class="st114" d="M132.94,369.84c0,0,5.32,1.83,14.21,1.18c9.06-0.66,22.38-3.46,27.53,0.66c0,0-0.59-2.5-6.99-3.39
	c-6.4-0.88-13.62-0.81-20.47-5.01c-0.44,0-2.36-1.69-4.79,0.74C140.01,366.45,139.2,369.1,132.94,369.84z"/>
<path d="M126.32,370.21c0,0,0.29,6.04,11.63,5.01c11.34-1.03,32.69-1.25,39.57-0.37c0,0-12.11-2.36-19.1-1.55
	c-3.68-0.44-18.85,0.96-18.85,0.96S129.04,376.47,126.32,370.21z"/>
<path d="M124.18,366.45c0,0-5.23,4.56-1.55,10.09c3.68,5.52,14.56,3.39,14.8,3.39c5.3-0.59,15.9-3.17,20.02-4.86
	c0,0-8.83,5.23-21.2,6.7c-12.37,1.47-15.17-5.96-15.17-5.96S118.95,369.55,124.18,366.45z"/>
<g>
	<ellipse cx="133.86" cy="358.39" rx="4.31" ry="6.44"/>
	<ellipse class="st112" cx="133.42" cy="356.86" rx="2.39" ry="3.58"/>
	<ellipse class="st23" cx="133.12" cy="356.34" rx="1.4" ry="2.09"/>
	<path class="st113" d="M131.76,362.7c0,0,0.96,1.84,2.8,1.25c1.84-0.59,2.65-4.49,2.65-4.49S134.78,364.69,131.76,362.7z"/>
</g>
<path class="st115" d="M142.44,364.91c0,0,1.55-2.06,4.27-1.69c2.72,0.37,6.99,4.2,16.93,4.49c0,0-6.48,1.4-11.34-0.59
	S144.2,364.1,142.44,364.91z"/>
<path class="st115" d="M122.56,370.36c-0.2,0.22,0.66-2.5,2.21-2.8c1.55-0.29,4.56,1.4,4.56,1.4S125.28,367.41,122.56,370.36z"/>
<path class="st116" d="M126.49,404.89c1.33,9.81,2.88,30.12-3.19,48.81c0,0,3.53-3.09,3.53-2.43c0,0.66,0,8.17,0,8.17l4.42-3.75
	l1.1,9.06l2.65-4.64l1.77,8.61l2.43-4.42l1.99,7.07l2.21-3.09l1.77,5.08l2.43-4.64l2.65,5.96l2.43-4.86l2.65,5.3l2.43-5.08l3.53,4.2
	l1.99-6.63l3.09,3.75l1.55-6.4l1.99,2.65l1.55-6.4l1.77,3.09l1.77-5.96c0,0,3.87-23.89-1.33-43.07
	c-2.14-7.91-10.27-29.71-32.02-25.62c-3.43,0.66-6.16,1.58-8.31,2.57C128.51,394.44,125.78,399.64,126.49,404.89z"/>
<path class="st107" d="M148.4,396.81c0,0,14.79,18.14,9.1,48.6C157.5,445.41,169.72,416.86,148.4,396.81z"/>
<path class="st117" d="M137.04,347.26c0,0-7.66-12.54-19.31-14.95C117.73,332.31,128.38,329.33,137.04,347.26z"/>
<path class="st117" d="M111.7,343.93c0,0,5.63-7.18,19.55,0C131.25,343.93,117.78,333.66,111.7,343.93z"/>
<path class="st117" d="M143.62,345.91c0,0,6.29-8.61,12.81-9.94c6.52-1.33,8.94,1.88,8.61,1.88
	C164.71,337.85,157.42,332,143.62,345.91z"/>
<path class="st117" d="M145.38,341.17c0,0,2.4-10.14,12.46-12.36C157.84,328.81,150.02,332,145.38,341.17z"/>
</svg>
