<svg version="1.1" id="ALL" xmlns="http://www.w3.org/2000/svg" xmlns:xlink="http://www.w3.org/1999/xlink" x="0px" y="0px"
	 viewBox="0 0 510.24 595.28" style="enable-background:new 0 0 510.24 595.28;" xml:space="preserve">
<style type="text/css">
	.st0{fill:#5D2D16;}
	.st1{fill:#7A3A2B;}
	.st2{fill:#C5743C;}
	.st3{fill:#C37D46;}
	.st4{fill:#526D32;}
	.st5{fill:#639916;}
	.st6{opacity:0.5;}
	.st7{fill:#83C121;}
	.st8{fill:#BAAB3F;}
	.st9{fill:#A57044;}
	.st10{fill:#B78253;}
	.st11{fill:#7F5038;}
	.st12{fill:#DA211E;}
	.st13{fill:#A80000;}
	.st14{fill:#F42A2A;}
	.st15{fill:#720000;}
	.st16{fill:#E5E7EA;}
	.st17{fill:#CBC8C3;}
	.st18{fill:#B2ACA4;}
	.st19{fill:#B2B6B7;}
	.st20{fill:#E88D0A;}
	.st21{fill:#963600;}
	.st22{fill:#FFD664;}
	.st23{fill:#FFFFFF;}
	.st24{fill:#510E0E;}
	.st25{fill:#D1B8A1;}
	.st26{fill:#3F4042;}
	.st27{fill:#EFEEED;}
	.st28{fill:#965632;}
	.st29{fill:#9E7954;}
	.st30{fill:#C69F6B;}
	.st31{fill:#B7AFA7;}
	.st32{fill:#84330F;}
	.st33{fill:#B3B0A1;}
	.st34{fill:#663E1D;}
	.st35{fill:#AA5B21;}
	.st36{fill:#682A00;}
	.st37{fill:#CC0000;}
	.st38{fill:#880000;}
	.st39{fill:#1BBDEF;}
	.st40{fill:#83FFFF;}
	.st41{fill:#D7FFFE;}
	.st42{fill:#C6541A;}
	.st43{fill:#8C3610;}
	.st44{fill:#D86C00;}
	.st45{fill:#F2790A;}
	.st46{fill:#F2B30A;}
	.st47{fill:#1A2B0E;}
	.st48{fill:#F78F1E;}
	.st49{fill:#FFD683;}
	.st50{fill:#FFBD48;}
	.st51{fill:#87FFFF;}
	.st52{fill:#FFCC00;}
	.st53{fill:#5B1E06;}
	.st54{fill:#30541A;}
	.st55{fill:#35720E;}
	.st56{fill:#9E3612;}
	.st57{fill:#48AA09;}
	.st58{fill:#FFA200;}
	.st59{fill:#C1006A;}
	.st60{fill:#7B2322;}
	.st61{fill:#D30056;}
	.st62{fill:#680E37;}
	.st63{fill:#7C193A;}
	.st64{fill:#FF2C72;}
	.st65{fill:#FF5A8D;}
	.st66{fill:#FF48D6;}
	.st67{fill:#FF6D9F;}
	.st68{fill:#E88725;}
	.st69{fill:#E8B425;}
	.st70{fill:#FFD15F;}
	.st71{fill:#893A28;}
	.st72{fill:#FFFF42;}
	.st73{fill:#2C7A3C;}
	.st74{fill:#295B31;}
	.st75{fill:#3BC458;}
	.st76{fill:#5E4031;}
	.st77{fill:#605F33;}
	.st78{fill:#82804A;}
	.st79{fill:#82533F;}
	.st80{fill:#A06955;}
	.st81{fill:#444332;}
	.st82{fill:#66686B;}
	.st83{fill:#B7AF51;}
	.st84{fill:#47462C;}
	.st85{fill:#C17B5D;}
	.st86{fill:#FFD346;}
	.st87{fill:#F7A800;}
	.st88{fill:#ED7601;}
	.st89{fill:#FFE18D;}
	.st90{fill:#FFB857;}
	.st91{fill:#8B9BAF;}
	.st92{fill:#9DC2EA;}
	.st93{fill:#AA0000;}
	.st94{fill:#EF7F22;}
	.st95{fill:#C17E3A;}
	.st96{fill:#82562E;}
	.st97{fill:#542906;}
	.st98{fill:#CE6B13;}
	.st99{fill:#FF9536;}
	.st100{fill:#FFD55F;}
	.st101{fill:#A85007;}
	.st102{fill:#E29652;}
	.st103{fill:#FFA861;}
	.st104{fill:#FF0000;}
	.st105{fill:#5DE7FF;}
	.st106{fill:#32323A;}
	.st107{fill:#D6CBBF;}
	.st108{fill:#EBE0CE;}
	.st109{fill:#E28F01;}
	.st110{fill:#C94727;}
	.st111{fill:#7A2413;}
	.st112{fill:#3B454C;}
	.st113{fill:#5B676D;}
	.st114{fill:#DD5D05;}
	.st115{fill:#FF8939;}
	.st116{fill:#FFF6E9;}
	.st117{fill:#FFCE00;}
	.st118{fill:#C59648;}
	.st119{fill:#936135;}
	.st120{fill:#FCB072;}
	.st121{fill:#CC7E52;}
	.st122{fill:#8E624C;}
	.st123{fill:#AC1212;}
	.st124{fill:#E5231A;}
	.st125{fill:#318D8A;}
	.st126{fill:#F4A32C;}
	.st127{fill:#FFC06C;}
	.st128{fill:#B5720F;}
	.st129{fill:#FFD1AE;}
	.st130{fill:#C4CCCE;}
	.st131{fill:#1F2023;}
	.st132{fill:#E3E5E5;}
	.st133{fill:#3F4144;}
	.st134{fill:#7C0D0D;}
	.st135{fill:#AEB7BA;}
	.st136{fill:#8A909E;}
	.st137{fill:#AA7B57;}
	.st138{fill:#B78570;}
	.st139{fill:#6E7E8E;}
	.st140{fill:#4B5D6B;}
	.st141{fill:#76797C;}
	.st142{fill:#FFCEA9;}
	.st143{fill:#BF744F;}
	.st144{fill:#FCC068;}
	.st145{fill:#D7DFE2;}
	.st146{fill:#7A8E93;}
	.st147{fill:#FF6161;}
	.st148{fill:#EFD5B6;}
	.st149{fill:#505356;}
	.st150{fill:#AAAAAA;}
	.st151{fill:#8E7C6F;}
	.st152{fill:#747B84;}
	.st153{fill:#EDD5C0;}
	.st154{fill:#A0805A;}
	.st155{fill:#725D46;}
	.st156{fill:#AA6333;}
	.st157{fill:#DBC09E;}
	.st158{fill:#6D4029;}
	.st159{fill:#826341;}
	.st160{fill:#E08032;}
	.st161{fill:#AF520C;}
	.st162{fill:#891313;}
	.st163{fill:#B73030;}
	.st164{fill:#E84242;}
	.st165{fill:#562708;}
	.st166{fill:#FFBE71;}
	.st167{fill:#603429;}
	.st168{fill:#FFA124;}
	.st169{fill:#696C70;}
	.st170{fill:#50555B;}
	.st171{fill:#8C9196;}
	.st172{fill:#E0E0E0;}
	.st173{fill:#FF4A4A;}
	.st174{fill:#607F91;}
	.st175{fill:#C3D3DD;}
	.st176{fill:#8BA1AF;}
	.st177{fill:#60A0BA;}
	.st178{fill:#6088AD;}
	.st179{fill:#4A7493;}
	.st180{fill:#696389;}
	.st181{fill:#4663A3;}
	.st182{fill:#AEE6FF;}
	.st183{fill:#54A7CC;}
	.st184{fill:#4BB9E0;}
	.st185{fill:#4F4B75;}
	.st186{fill:#542E15;}
	.st187{fill:#6D3516;}
	.st188{fill:#68472B;}
	.st189{fill:#AF6D37;}
	.st190{fill:#3A2E2C;}
	.st191{fill:#663418;}
	.st192{fill:#915436;}
	.st193{fill:#B57255;}
	.st194{fill:#F28B3D;}
	.st195{fill:#56829B;}
	.st196{fill:#85B5D6;}
	.st197{fill:#B7D8EA;}
	.st198{fill:#3B6375;}
	.st199{fill:#5C6466;}
	.st200{fill:#FF5A20;}
	.st201{fill:#37454F;}
	.st202{fill:#202528;}
	.st203{fill:#566772;}
	.st204{fill:#69838E;}
	.st205{fill:#415156;}
	.st206{fill:#8E999B;}
	.st207{fill:#FF9A7B;}
	.st208{fill:#5B4F49;}
	.st209{fill:#6B5146;}
	.st210{fill:#924B2F;}
	.st211{fill:#A56F5B;}
	.st212{fill:#6B4A40;}
	.st213{fill:#FFD469;}
	.st214{fill:#7D8389;}
	.st215{fill:#B3B5BC;}
	.st216{fill:#92C6EA;}
	.st217{fill:#D3A12F;}
	.st218{fill:#3353A3;}
	.st219{fill:#2D4068;}
	.st220{fill:#09425B;}
	.st221{fill:#FF4800;}
	.st222{fill:#32697C;}
	.st223{fill:#A8E0EF;}
	.st224{fill:#71C0DB;}
	.st225{fill:#6089C6;}
	.st226{fill:#009311;}
	.st227{fill:#08FF2E;}
	.st228{fill:#536D54;}
	.st229{fill:#C84229;}
	.st230{fill:#FF4229;}
	.st231{fill:#C85529;}
	.st232{fill:#FF5529;}
	.st233{fill:#B96829;}
	.st234{fill:#FF6829;}
	.st235{fill:#A48929;}
	.st236{fill:#FF8929;}
	.st237{fill:#A4CC29;}
	.st238{fill:#FFCC29;}
	.st239{fill:#00CE31;}
	.st240{fill:#A1CE31;}
	.st241{fill:#FFFF2E;}
	.st242{fill:#BBEDFF;}
	.st243{fill:#A9E7FF;}
	.st244{fill:#475572;}
	.st245{fill:#FF680C;}
	.st246{fill:#FFFF0C;}
	.st247{fill:#348AA5;}
	.st248{fill:#16638E;}
	.st249{opacity:0.15;fill:#FFFF0C;}
	.st250{opacity:0.15;fill:#71F0DC;}
	.st251{opacity:0.3;fill:#71F0DC;}
	.st252{fill:#80A9B2;}
	.st253{fill:#88E6FF;}
	.st254{fill:#5376A0;}
	.st255{fill:#6D9DCC;}
	.st256{fill:#90B4D3;}
	.st257{fill:#B7B4A7;}
	.st258{fill:#20314F;}
	.st259{fill:#FFD808;}
	.st260{fill:#CCCC6E;}
	.st261{fill:#A5C2D3;}
	.st262{fill:#FF8710;}
	.st263{fill:#C45800;}
	.st264{fill:#2791CC;}
	.st265{fill:#A01717;}
	.st266{fill:#E51717;}
	.st267{fill:#C90D0D;}
	.st268{fill:#FF7171;}
	.st269{fill:#FFB428;}
	.st270{fill:#BC0F0F;}
	.st271{fill:#F76A00;}
	.st272{fill:#C14000;}
	.st273{fill:#AA2800;}
	.st274{fill:#FFAB31;}
	.st275{fill:#F7C27C;}
	.st276{fill:#560D0D;}
	.st277{fill:#960202;}
	.st278{fill:#700F0F;}
	.st279{fill:#CC5200;}
	.st280{fill:#951717;}
	.st281{fill:#71F0DC;}
	.st282{opacity:0.37;fill:#FFFFFF;}
	.st283{opacity:0.5;fill:#A7FFFF;}
	.st284{fill:#FFEB38;}
	.st285{fill:#304777;}
	.st286{fill:#03EDFF;}
	.st287{opacity:0.3;}
	.st288{opacity:0.2;}
	.st289{fill:#74A1B5;}
	.st290{fill:#33F5FF;}
	.st291{opacity:0.3;fill:#33F5FF;}
	.st292{fill:#99FFFF;}
	.st293{fill:#FCF9D9;}
	.st294{fill:#546077;}
	.st295{fill:#E5E1A8;}
	.st296{fill:#478461;}
	.st297{fill:#D3B5A5;}
	.st298{fill:#DE4400;}
	.st299{fill:#F77991;}
	.st300{fill:#FFDCE0;}
	.st301{fill:#663E20;}
	.st302{fill:#9B5D3B;}
	.st303{fill:#3F2D27;}
	.st304{fill:#DBB06B;}
	.st305{fill:#AF834F;}
	.st306{fill:#493B33;}
	.st307{fill:#81574A;}
	.st308{fill:#CC9933;}
	.st309{fill:#FFFF93;}
	.st310{fill:#D1993F;}
	.st311{fill:#D1AA66;}
	.st312{opacity:0.2;fill:#FFFF93;}
	.st313{opacity:0.1;fill:#FFFF93;}
	.st314{opacity:0.1;fill:#FFFF89;}
	.st315{opacity:0.7;}
	.st316{fill:#BC874D;}
	.st317{opacity:0.4;fill:#444951;}
	.st318{opacity:0.3;fill:#373944;}
	.st319{fill:#775742;}
	.st320{opacity:0.5;fill:#444951;}
	.st321{fill:#969436;}
	.st322{fill:#4C3529;}
	.st323{fill:#D8A355;}
	.st324{fill:#FFD578;}
	.st325{opacity:0.4;fill:#FFD578;}
	.st326{fill:#A79253;}
	.st327{fill:#CBAC4E;}
	.st328{fill:#5E4F2A;}
	.st329{opacity:0.6;fill:#52575E;}
	.st330{fill:#E5CF4A;}
	.st331{opacity:0.6;}
	.st332{fill:#444951;}
	.st333{fill:#1D1D1D;}
	.st334{fill:#1D1D1B;}
	.st335{fill:#D38C54;}
	.st336{fill:#B4FFFF;}
	.st337{opacity:0.4;fill:#FFFFFF;}
	.st338{opacity:0.7;fill:#7A3A2B;}
	.st339{fill:#D3AF85;}
	.st340{fill:#F9CB9D;}
	.st341{opacity:0.6;fill:#5D2D16;}
	.st342{opacity:0.29;fill:#5D2D16;}
	.st343{fill:#4F3220;}
	.st344{fill:#775542;}
	.st345{fill:#E2C54C;}
	.st346{fill:#F2E8B3;}
	.st347{fill:#F7F8F6;}
	.st348{fill:#976616;}
	.st349{fill:#6F3B0C;}
	.st350{fill:#5A0C0C;}
	.st351{opacity:0.44;}
	.st352{opacity:0.46;fill:#350B00;}
	.st353{fill:#B1B4B9;}
	.st354{fill:#B1B4A5;}
	.st355{fill:#C9CACC;}
	.st356{fill:#E9EAEC;}
	.st357{opacity:0.5;fill:#E9EAEC;}
	.st358{opacity:0.4;fill:#E9EAEC;}
	.st359{opacity:0.7;fill:#FFFFFF;}
	.st360{opacity:0.5;fill:#FFFFFF;}
</style>
<g>
	<circle class="st174" cx="253.6" cy="290.15" r="108.33"/>
	<circle class="st175" cx="253.6" cy="290.15" r="104.69"/>
	<circle class="st176" cx="253.6" cy="290.15" r="99.83"/>
	<path class="st177" d="M253.6,195.4c-52.69,0-95.41,42.72-95.41,95.41c0,9.89,1.5,19.42,4.3,28.39
		c4.43-7.68,29.24-42.64,92.88-42.64c46.4,0,83.71,24.74,91.97,32.08c1.09-5.78,1.67-11.73,1.67-17.83
		C349.01,238.11,306.3,195.4,253.6,195.4z"/>
	<path class="st178" d="M159.52,305.93c0,0,19.5-57.2,94.27-57.2s96.52,44.54,96.52,44.54s1.5,85.99-97.44,85.99
		C161.01,379.26,159.52,305.93,159.52,305.93z"/>
	<path class="st179" d="M162.49,319.2c0,0,18.9-47.71,91.34-47.71s93.52,37.15,93.52,37.15s1.45,71.73-94.4,71.73
		C163.93,380.37,162.49,319.2,162.49,319.2z"/>
	<path class="st180" d="M166.09,328.38c0,0,18.16-39,87.77-39s89.87,30.37,89.87,30.37s1.39,58.64-90.72,58.64
		C167.49,378.38,166.09,328.38,166.09,328.38z"/>
	<path class="st181" d="M347.91,278.11c0,0,4.42-53.67-59.19-77.52c0,0-43.73-20.1-91.88,10.16c0,0-35.56,25.84-37.99,67.14
		c0,0,9.06-73.99,103.8-73.99C344.6,212.52,347.91,278.11,347.91,278.11z"/>
	<path class="st182" d="M155.15,293.55c0-55.23,44.78-100.01,100.01-100.01c36.35,0,68.17,19.4,85.68,48.4
		c-16.78-31.67-50.08-53.26-88.42-53.26c-55.23,0-100.01,44.78-100.01,100.01c0,18.88,5.24,36.54,14.33,51.61
		C159.34,326.35,155.15,310.44,155.15,293.55z"/>
	
		<ellipse transform="matrix(0.9043 -0.4268 0.4268 0.9043 -81.9337 121.7463)" class="st183" cx="230.63" cy="243.66" rx="69.89" ry="44.07"/>
	
		<ellipse transform="matrix(0.9043 -0.4268 0.4268 0.9043 -78.1484 117.4328)" class="st184" cx="222.9" cy="233.06" rx="47.9" ry="30.2"/>
	
		<ellipse transform="matrix(0.9043 -0.4268 0.4268 0.9043 -76.3606 115.2501)" class="st182" cx="218.93" cy="227.98" rx="33.08" ry="20.86"/>
	<path class="st185" d="M175.42,342.17c0,0,5.08-37.33,82.82-37.33s78.63,34.7,78.63,34.7s-15.02,36.86-84.37,36.86
		S175.42,342.17,175.42,342.17z"/>
</g>
<g>
	<path class="st186" d="M323.54,373.49c0,6.49-31.31,11.75-69.94,11.75s-69.94-5.26-69.94-11.75l-9.13,35.68
		c0,10.09,35.4,18.28,79.07,18.28s79.07-8.18,79.07-18.28L323.54,373.49z"/>
	<path class="st187" d="M322.44,380l4.34,19.44c0,0-9.28,2.21-7.88,15.24l-1.69,0.52l-5.08-31.73
		C312.13,383.46,318.02,382.43,322.44,380z"/>
	<path class="st187" d="M199.08,409.18c0.95,0,1.9,0.13,2.83,0.39c4.42,1.24,7.65,5.07,8.35,9.51c1.28,0.19,2.55,0.37,3.83,0.54
		c1.77-4.07,6.24-6.84,11.47-6.84c0.54,0,1.1,0.03,1.64,0.09c5.6,0.64,9.98,4.34,11.1,8.94c1.11,0.06,2.2,0.11,3.27,0.15
		c1.65-4.43,6.42-7.6,12.03-7.6c5.67,0,10.48,3.24,12.08,7.74c1.05-0.04,1.62-0.07,1.62-0.07c-0.37-16.05-2.06-32.69-2.06-32.69
		c-53.74,0-70.53-5.01-70.53-5.01c-3.02,13.77-6.85,30.04-6.85,30.04c0.72,0.2,1.44,0.4,2.16,0.59
		C191.65,411.44,195.08,409.18,199.08,409.18z"/>
	<path class="st188" d="M253.6,388.56c36.64,0,66.84-4.62,71.09-10.59l-1.15-4.48c0,6.49-31.31,11.75-69.94,11.75
		c-38.63,0-69.94-5.26-69.94-11.75l-1.15,4.48C186.77,383.93,216.96,388.56,253.6,388.56z"/>
	<path class="st189" d="M322.86,373.22c-4.14,5.81-33.57,10.32-69.29,10.32c-35.72,0-65.15-4.51-69.29-10.32l-0.65,0.27
		c0,6.49,31.31,11.75,69.94,11.75c38.63,0,69.94-5.26,69.94-11.75L322.86,373.22z"/>
	<path class="st190" d="M182.27,402.27c-1.95-1.23-4-0.94-5.56,0.55l-1.12,4.38c0,3.3,3.85,6.39,10.55,9.05
		c0.16-0.5,0.3-1.04,0.4-1.61C187.37,409.67,185.44,404.28,182.27,402.27z"/>
	<path class="st190" d="M201.53,410.94c-4.79-1.33-9.62,1.37-10.83,6.34c-0.04,0.18-0.07,0.37-0.1,0.55
		c5.08,1.61,11.28,3.01,18.33,4.15C209.47,417.01,206.21,412.25,201.53,410.94z"/>
	<path class="st190" d="M227.03,414.28c-5.89-0.66-11.34,2.68-12.23,7.79c-0.04,0.25-0.06,0.51-0.08,0.76
		c6.88,0.92,14.4,1.6,22.39,1.99c0.01-0.07,0.02-0.15,0.03-0.22C237.46,419.44,232.92,414.96,227.03,414.28z"/>
	<path class="st190" d="M253.59,415.78c-5.92,0-10.94,3.95-11.23,9.12c0,0.05,0,0.09,0,0.14c3.67,0.12,7.41,0.19,11.22,0.19
		c3.81,0,7.56-0.07,11.22-0.19c0-0.05,0-0.09,0-0.14C264.53,419.73,259.51,415.79,253.59,415.78z"/>
	<path class="st190" d="M280.15,414.28c-5.88,0.67-10.42,5.15-10.11,10.33c0,0.07,0.02,0.15,0.03,0.22
		c7.99-0.4,15.52-1.08,22.4-1.99c-0.02-0.25-0.04-0.51-0.08-0.76C291.5,416.97,286.04,413.62,280.15,414.28z"/>
	<path class="st190" d="M305.46,409.78c-4.76,1.34-8.05,6.31-7.31,11.41c0.04,0.27,0.1,0.53,0.16,0.79
		c6.97-1.13,13.1-2.51,18.14-4.1c-0.02-0.59-0.1-1.18-0.24-1.76C315.01,411.14,310.21,408.45,305.46,409.78z"/>
	<path class="st190" d="M331.59,407.2l-0.53-2.06c-1.43-3.37-4.21-4.59-6.8-2.88c-3.02,2.01-4.86,7.41-4.06,12.38
		c0.1,0.64,0.25,1.23,0.43,1.78C327.59,413.72,331.59,410.57,331.59,407.2z"/>
	<g>
		<path class="st191" d="M185.36,414.7c-5.47-2.35-8.51-4.94-8.62-7.37l1-3.9c0.63-0.52,1.33-0.8,2.04-0.8
			c0.62,0,1.25,0.2,1.87,0.59c2.81,1.78,4.49,6.82,3.75,11.23C185.39,414.54,185.38,414.62,185.36,414.7z"/>
		<path class="st191" d="M207.83,420.65c-6.03-1.02-11.36-2.22-15.88-3.59c0.99-3.21,3.8-5.33,7.13-5.33c0.71,0,1.44,0.1,2.14,0.3
			C204.99,413.08,207.71,416.73,207.83,420.65z"/>
		<path class="st191" d="M236,423.63c-6.98-0.37-13.69-0.97-19.98-1.78c0.89-3.8,4.82-6.52,9.53-6.52c0.45,0,0.9,0.03,1.35,0.08
			C231.91,415.98,235.73,419.51,236,423.63z"/>
		<path class="st191" d="M253.59,424.1c-3.28,0-6.63-0.05-9.96-0.15c0.79-4,4.96-7.03,9.96-7.03c4.99,0,9.15,3.02,9.95,7.03
			C260.22,424.05,256.88,424.1,253.59,424.1z"/>
		<path class="st191" d="M271.19,423.63c0.28-4.14,4.09-7.65,9.09-8.23c0.45-0.05,0.9-0.08,1.35-0.08c4.71,0,8.65,2.72,9.53,6.52
			C284.88,422.66,278.17,423.26,271.19,423.63z"/>
		<path class="st191" d="M299.24,420.67c-0.45-4.37,2.36-8.63,6.53-9.8c0.7-0.2,1.41-0.3,2.12-0.3c3.47,0,6.37,2.33,7.21,5.81
			c0.05,0.22,0.1,0.45,0.13,0.69C310.69,418.44,305.32,419.65,299.24,420.67z"/>
		<path class="st191" d="M321.33,414.47c-0.71-4.42,0.89-9.47,3.57-11.26c0.58-0.38,1.16-0.58,1.73-0.58c1.31,0,2.55,1.08,3.34,2.88
			l0.47,1.82c-0.11,2.5-3.29,5.15-9.03,7.55C321.38,414.75,321.36,414.61,321.33,414.47z"/>
	</g>
	<g>
		<path class="st192" d="M178.86,405.12c0.63-0.52,1.33-0.8,2.04-0.8c0.62,0,1.25,0.2,1.87,0.59c0.46,0.29,0.88,0.67,1.27,1.11
			c-0.64-1.18-1.45-2.14-2.38-2.73c-0.62-0.39-1.25-0.59-1.87-0.59c-0.72,0-1.42,0.27-2.04,0.8l-1,3.9
			c0.04,0.95,0.53,1.92,1.43,2.89c-0.19-0.43-0.3-0.85-0.32-1.27L178.86,405.12z"/>
		<path class="st192" d="M200.19,413.43c0.71,0,1.44,0.1,2.14,0.3c1.72,0.48,3.22,1.51,4.35,2.85c-1.16-2.13-3.11-3.81-5.47-4.47
			c-0.71-0.2-1.43-0.3-2.14-0.3c-3.33,0-6.14,2.12-7.13,5.33c0.51,0.16,1.04,0.31,1.58,0.46
			C194.77,415.05,197.28,413.43,200.19,413.43z"/>
		<path class="st192" d="M226.67,417.03c0.45,0,0.9,0.03,1.35,0.08c2.95,0.34,5.48,1.7,7.12,3.61c-1.44-2.73-4.5-4.8-8.23-5.23
			c-0.45-0.05-0.9-0.08-1.35-0.08c-4.71,0-8.65,2.72-9.53,6.52c0.53,0.07,1.08,0.13,1.62,0.19
			C219.06,419.09,222.57,417.03,226.67,417.03z"/>
		<path class="st192" d="M254.71,418.61c3.34,0,6.29,1.36,8.13,3.45c-1.56-2.99-5.11-5.06-9.25-5.07c-5,0-9.17,3.03-9.96,7.03
			c0.54,0.02,1.09,0.02,1.63,0.04C246.71,420.87,250.39,418.62,254.71,418.61z"/>
		<path class="st192" d="M281.4,417.1c0.45-0.05,0.9-0.08,1.35-0.08c3.19,0,6.02,1.25,7.79,3.23c-1.5-2.9-4.92-4.85-8.91-4.85
			c-0.45,0-0.9,0.03-1.35,0.08c-5,0.57-8.81,4.09-9.09,8.23c0.49-0.03,0.96-0.06,1.45-0.09C273.7,420.26,277.11,417.6,281.4,417.1z"
			/>
		<path class="st192" d="M306.88,412.56c0.7-0.2,1.41-0.3,2.12-0.3c2.12,0,4.02,0.88,5.38,2.35c-1.27-2.43-3.68-3.97-6.49-3.97
			c-0.71,0-1.42,0.1-2.12,0.3c-4.17,1.17-6.98,5.43-6.53,9.8c0.38-0.06,0.74-0.13,1.12-0.2
			C300.72,416.87,303.29,413.57,306.88,412.56z"/>
		<path class="st192" d="M326.02,404.9c0.58-0.38,1.16-0.58,1.73-0.58c0.74,0,1.46,0.36,2.09,0.99c-0.79-1.63-1.97-2.61-3.2-2.61
			c-0.57,0-1.15,0.19-1.73,0.58c-2.68,1.78-4.28,6.83-3.57,11.26c0.02,0.14,0.05,0.28,0.07,0.42c0.3-0.13,0.6-0.25,0.89-0.38
			C322.14,410.59,323.66,406.47,326.02,404.9z"/>
	</g>
	<path class="st190" d="M253.6,423.18c-40.56,0-73.96-7.06-78.52-16.15l-0.55,2.15c0,10.09,35.4,18.28,79.07,18.28
		c43.67,0,79.07-8.18,79.07-18.28l-0.55-2.15C327.57,416.12,294.16,423.18,253.6,423.18z"/>
	<path class="st192" d="M201.04,408.71l3.46-22.53c0,0,17.08,2.5,40.2,2.94l-1.33,28.34c0,0-1.91,2.13-2.43,3.98l-1.99,0.07
		c0,0-1.1-9.35-13.4-9.5c-10.01,0.29-11.85,6.77-11.85,6.77l-2.72-0.44C210.98,418.36,209.21,409.89,201.04,408.71z"/>
	<path class="st188" d="M179.47,389.88l-1.16,4.52c10.22,8.45,40.05,14.57,75.29,14.57s65.07-6.12,75.29-14.57l-1.16-4.52
		c-11.18,7.99-40.15,13.68-74.13,13.68C219.62,403.56,190.65,397.87,179.47,389.88z"/>
	<path class="st189" d="M202.53,398.55l-0.83,5.34c0,0,22.09,4.6,42.13,4.99l0.28-5.52C244.11,403.36,218.87,402.69,202.53,398.55z"
		/>
	<path class="st189" d="M314.17,395.9c0,0,8.23-2.54,10.88-4.42l0.94,4.91c0,0-5.3,3.53-11.04,4.86L314.17,395.9z"/>
	<path class="st193" d="M222.35,387.98l0.93,0.56l-0.8,0.57l0.91,0.91l-0.97,0.74l0.68,0.86l-1.08,0.74l0.8,0.86l-0.97,0.86
		l1.08,1.08l-0.91,0.63l1.08,0.91l-1.14,0.57l0.91,0.91l-1.25,0.57l0.97,0.91l-1.08,0.46l0.91,0.74l-1.31,0.97l0.97,2.22l-1.2,0.34
		l0.63,1.25l-1.54,0.57l1.2,1.14l-0.97,0.57l0.91,1.2l-1.25,0.68l0.97,1.14l-1.25,0.74l1.03,0.91c0,0-5.49,1.27-7.22,6.2l-2.81-0.46
		c0,0-1.08-5.63-6.1-8.59l1.08-0.57l-0.74-1.37l1.31-0.68l-0.74-1.08l1.14-0.63l-0.86-1.08l1.31-0.91c0,0-0.86-0.68-0.68-0.74
		c0.17-0.06,1.2-1.03,1.2-1.03s-1.08-1.14-0.91-1.2c0.17-0.06,1.31-0.8,1.31-0.8l-1.03-0.97l1.37-0.86l-0.86-1.37l1.03-0.63
		c0,0-1.2-0.91-1.03-0.91c0.17,0,1.37-0.8,1.37-0.8l-1.31-0.91l1.37-0.68l-1.2-0.8l1.43-0.91l-1.2-0.86l1.31-0.63
		c0,0-1.6-1.25-1.43-1.31c0.17-0.06,1.6-0.8,1.6-0.8l-1.31-0.57C212.81,387.25,217.59,387.69,222.35,387.98z"/>
	<path class="st194" d="M192.28,379.19c0,0,19.21,5.15,60.37,5.96C252.65,385.15,214.29,386.33,192.28,379.19z"/>
	<path class="st192" d="M196.25,418.21c0,0,19.21,5.15,60.37,5.96C256.62,424.17,218.27,425.35,196.25,418.21z"/>
	<path class="st194" d="M303.55,381.73c0,0,19.84-3.04,19.95-8.24C323.51,373.49,326.97,379.15,303.55,381.73z"/>
	<path class="st194" d="M205.35,399.1c0,0,15.46,2.98,21.42,3.15l-0.77,0.77l0.61,0.94l-0.88,0.66l0.77,0.88l-0.99,0.66l0.83,0.77
		l-0.99,0.55c0,0-15.02-1.88-20.82-2.98l0.77-0.55l-0.77-0.72l1.05-0.61l-0.83-0.99c0,0,1.1-0.39,1.1-0.55s-0.94-0.99-0.94-0.99
		l1.05-0.39L205.35,399.1z"/>
	<path class="st194" d="M318.37,394.52c0,0,4.03-1.55,5.58-2.37v0.77l0.44,0.55l-0.22,0.77l0.72,0.44l-0.17,0.83l0.55,0.28
		l-0.17,0.72l0.66,0.22c0,0-3.48,2.1-5.63,2.87l0.61-1.27l-1.21-0.17l0.94-0.94c0,0-1.33-0.28-1.27-0.44
		c0.06-0.17,0.39-1.05,0.39-1.05l-1.05-0.17l0.5-0.66L318.37,394.52z"/>
	<path class="st193" d="M194.23,413.76c0,0,0.48,1.25,2.98,0.33c2.5-0.92,1.87-2.28,1.87-2.28S196.11,411.73,194.23,413.76z"/>
	<path class="st193" d="M218.76,417.94c0,0,0.56,1.22,3,0.12c2.43-1.09,1.7-2.4,1.7-2.4S220.49,415.79,218.76,417.94z"/>
	<path class="st193" d="M246.16,420.04c0,0,0.64,1.18,3-0.07c2.36-1.24,1.55-2.5,1.55-2.5S247.76,417.78,246.16,420.04z"/>
	<path class="st193" d="M177.74,403.5c0,0-0.34,2.01,1.12,1.62c1.46-0.39,0.93-2.42,0.93-2.42S178.52,402.57,177.74,403.5z"/>
	<path class="st193" d="M272.85,420.71c0,0,1.69-4.45,7.18-4.56C280.03,416.15,275.98,416.81,272.85,420.71z"/>
	<path class="st193" d="M300.09,417.44c0,0,1.36-5.41,6.88-6C306.98,411.44,302.93,412.39,300.09,417.44z"/>
	<path class="st193" d="M175.27,406.17l6.96-26.91c0,0,0.52,1.4,1.47,1.99l-1.36-0.15l-6.63,25.77L175.27,406.17z"/>
</g>
<g>
	<path class="st195" d="M181.97,350.85c0,0,11.63-23.26,53.6-23.26s84.66,0.44,90.99,21.94L181.97,350.85z"/>
	<path class="st196" d="M181.97,350.85c0,0,13.69,24.15,71.85,24.15c53.89,0,72.74-25.47,72.74-25.47s-13.84-17.08-41.23-13.25
		C285.33,336.27,223.2,314.33,181.97,350.85z"/>
	<path class="st195" d="M192.72,359.68c0,0,18.7,14.43,60.66,14.43c37.25,0,54.92-11.78,54.92-11.78s-35.48-14.87-71.26,1.47
		C237.04,363.8,210.54,354.68,192.72,359.68z"/>
	<path class="st197" d="M298.44,355.26c0,0-30.18-6.33-63.46,4.12c0,0-24.44-8.98-45.79-4.86c0,0-1.33-5.45,19.73-12.37
		c0,0-0.44,6.48,25.91,6.48s23.85-8.1,23.85-8.1s10.9-0.29,15.9,2.8c0,0,29.45-6.92,46.23,8.39
		C320.82,351.73,317.28,357.91,298.44,355.26z"/>
	<path class="st23" d="M191.54,358.8c0,0,12.66-2.8,23.26-1.03s19.44,5.45,22.09,4.56c2.65-0.88,18.11-7.66,36.37-7.07
		s34.6,6.63,36.96,5.74c2.36-0.88,9.28-5.45,9.28-5.45s-7.51,4.71-14.87,2.8c-7.36-1.91-31.38-6.42-45.2-3.98
		c-16.64,2.94-22.53,7.95-37.1,3.24C214.07,355.71,203.76,353.94,191.54,358.8z"/>
	<path class="st198" d="M192.72,359.68c0,0,19.44,14.43,60.66,14.43c35.63,0,54.92-11.78,54.92-11.78S243.08,379.56,192.72,359.68z"
		/>
	<path class="st195" d="M209.98,332.88c0,0-0.88-16.01-18.22-12.37c-0.55,0-8.72-5.3-17.23,0.55c-8.5,5.85-4.42,14.36-4.42,14.36
		c3.4,5.95,7.28,11.2,11.85,15.42c0,0,10.45-11.01,28.45-18.18"/>
	<path class="st195" d="M298.99,327.03c0,0,9.83-5.52,18.55-2.76c8.72,2.76,10.16,8.5,10.16,8.5s7.29-0.55,7.51,3.64
		c0.22,4.2-11.82,16.45-11.82,16.45s10.38-6.4-30.26-21.75C295.12,326.04,298.99,327.03,298.99,327.03z"/>
	<path class="st195" d="M225.78,328.8c-0.22,0.04,6.74-6.18,21.09-10.38c14.36-4.2,32.8,11.26,32.8,11.26
		S247.97,326.15,225.78,328.8z"/>
	<path class="st23" d="M247.49,321.55c0,0,5.89-1.69,11.19,0.74v-3.9c0,0-6.55-2.65-11.71-0.37
		C241.82,320.3,247.49,321.55,247.49,321.55z"/>
	<polygon class="st196" points="199.16,325.71 194.3,332.44 196.07,334.76 194.41,343.71 195.96,342.71 197.51,334.54 204.9,330.01 
		196.95,333.66 196.18,332.22 	"/>
	<g>
		<path class="st196" d="M181.93,321.95c0,0-2.1,8.06-1.77,9.28c0.33,1.21,3.98,7.51,3.98,7.51l2.65,8.94l-1.55,1.1l-2.43-9.5
			l-6.96-2.32l-4.64-4.42l4.75,3.53l5.96,1.88l-2.87-6.29l-4.2-6.18c0,0,4.2,4.97,4.2,4.64S181.93,321.95,181.93,321.95z"/>
		<path class="st196" d="M184.36,340.95c0.11-0.66,2.54-6.96,2.87-7.07c0.33-0.11,9.61-8.83,9.61-8.83l-10.05,7.4l-1.44-5.19
			l1.55-5.41l-2.32,5.08l-2.32-0.33l2.21,1.21l1.21,5.3l-2.87,6.18L184.36,340.95z"/>
	</g>
	<polygon class="st196" points="304.88,329.03 308.33,333.76 307.1,335.4 308.3,341.69 307.2,341 306.08,335.25 300.85,332.08 
		306.47,334.62 307.01,333.61 	"/>
	<g>
		<path class="st196" d="M317.01,326.32c0,0,1.51,5.67,1.28,6.53c-0.23,0.86-2.77,5.31-2.77,5.31l-1.83,6.31l1.09,0.77l1.68-6.7
			l4.89-1.66l3.25-3.13l-3.33,2.51l-4.19,1.34l2-4.45l2.93-4.37c0,0-2.94,3.52-2.94,3.28C319.06,331.83,317.01,326.32,317.01,326.32
			z"/>
		<path class="st196" d="M315.37,339.71c-0.08-0.47-1.81-4.89-2.05-4.97c-0.23-0.08-6.8-6.19-6.8-6.19l7.11,5.18l0.99-3.66
			l-1.11-3.81l1.65,3.57l1.63-0.24l-1.55,0.86l-0.84,3.74l2.05,4.35L315.37,339.71z"/>
	</g>
	<g>
		<path class="st196" d="M331.32,338.65c0,0-5.64-1.62-6.5-1.41c-0.86,0.21-5.36,2.66-5.36,2.66l-6.35,1.7l-0.75-1.11l6.73-1.54
			l1.76-4.86l3.2-3.19l-2.58,3.28l-1.43,4.17l4.49-1.91l4.43-2.84c0,0-3.58,2.87-3.34,2.87S331.32,338.65,331.32,338.65z"/>
		<path class="st196" d="M317.89,340.02c0.46,0.09,4.85,1.92,4.93,2.15c0.07,0.24,4.99,4.63,4.99,4.63l-3.97-4.92l3.68-0.92
			l3.78,1.19l-3.54-1.73l0.28-1.63l-0.9,1.53l-3.76,0.76l-4.3-2.13L317.89,340.02z"/>
	</g>
	<path class="st195" d="M325.16,351.55c0,0,4.42-4.31,3.31-6.63c-1.1-2.32-21.42-10.6-35.89-12.37s-6.99,4.12-7.25,3.72
		c-0.26-0.4,29.01-0.63,39.72,14.83"/>
	<path class="st195" d="M181.97,350.85c0,0,12.77-12.22,35.41-18.29C217.38,332.55,178.92,341.09,181.97,350.85z"/>
	<path class="st197" d="M226.22,308.26c0,0-15.24,1.88-15.46,16.01c-0.22,14.13,7.29,16.12,7.29,16.12s12.48,4.97,25.73,2.43
		c13.25-2.54,10.82-32.02-1.66-32.25C231.52,310.8,226.22,308.26,226.22,308.26z"/>
	<path class="st197" d="M234.28,314.99c0,0-12.92-0.11-15.9-5.08c-2.98-4.97-3.31-16.9,7.07-19.33
		c10.38-2.43,19.44,2.43,20.32,10.16C246.65,308.48,242.12,315.22,234.28,314.99z"/>
	<ellipse class="st197" cx="232.9" cy="286.06" rx="9.88" ry="10.16"/>
	<path class="st23" d="M218.27,312.9c0,0,0.55,7.07,20.6,5.58c0,0,7.67,0.55,2.93,9.88c-4.75,9.33-21.87,7.18-25.29,4.25
		c-3.42-2.93-3.31-12.04-3.31-12.04S215.78,314.77,218.27,312.9z"/>
	<path class="st23" d="M223.68,291.86c0,0,4.47,3.59,12.75,3.98c0,0,1.49,2.82,0.83,4.91c-0.66,2.1-5.02,4.25-8.67,4.2
		c-3.64-0.06-8.67-2.98-9.5-4.91C218.27,298.1,218.93,293.63,223.68,291.86z"/>
	<ellipse class="st197" cx="213.68" cy="302.57" rx="4.91" ry="5.13"/>
	<ellipse class="st197" cx="244.33" cy="303.68" rx="5.74" ry="6.02"/>
	<path class="st23" d="M224.17,284.13c0,0-0.33,4.2,0.61,5.58c0.94,1.38,8.01,2.98,10.44,0.88c2.43-2.1,2.04-7.12,2.04-7.12
		l-12.42-2.1C224.84,281.37,224.01,282.47,224.17,284.13z"/>
	<circle class="st199" cx="221.41" cy="330.29" r="2.15"/>
	<circle class="st199" cx="222.24" cy="318.25" r="2.15"/>
	<circle class="st199" cx="224.73" cy="304.72" r="2.15"/>
	<circle cx="226.27" cy="281.92" r="1.05"/>
	<circle cx="235.05" cy="283.74" r="1.33"/>
	<path class="st200" d="M209.65,283.63c0,0,8.94-0.99,10.16-0.88c1.21,0.11,8.06-0.33,9.28-0.33s4.42,3.31,1.21,6.96
		c0,0-3.64-0.44-4.64-0.88C224.67,288.05,209.65,283.63,209.65,283.63z"/>
	<path class="st201" d="M225,279.22c0,0,5.74-11.71,3.75-22.42c0,0,12.81-0.88,19.77,7.73c0,0-6.07,11.15-6.29,17.78
		C242.23,282.31,233.62,279.66,225,279.22z"/>
	<path class="st201" d="M218.93,278.88c0,0,20.76,0.66,29.15,6.4c0,0,1.66,0.11,0.99-0.99c-0.66-1.1-13.47-6.18-13.47-6.18
		l-6.52-0.88l-10.6,0.99C218.49,278.22,217.82,278.88,218.93,278.88z"/>
	<path class="st202" d="M234.72,279.44c0-0.33,5.08-11.37,6.29-20.43c0,0,4.53,2.65,6.29,4.2c0,0-5.52,9.39-6.63,17.67
		L234.72,279.44z"/>
	<path class="st202" d="M226.36,277.96c0,0,10.9,1.25,15.9,3.02C242.27,280.98,237.78,281.79,226.36,277.96z"/>
	<path class="st203" d="M238.07,257.94c0,0-2.06,16.86-5.37,20.83l-2.28-0.29c0,0,3.17-14.94,0.52-21.57
		C230.93,256.91,233.8,256.54,238.07,257.94z"/>
	<path class="st204" d="M244.03,309.77c0,0,0.98,5.14-6.48,6.92c-7.73,1.84-17.15-3.53-18.63-6.11c0,0,8.61,4.34,17.52,3.31
		C243.08,313.08,244.03,309.77,244.03,309.77z"/>
	<path class="st204" d="M228.5,292.47c0,0,7.14,2.43,11.93,0.15c0.64,0.33,1.36,0.9,2.14,1.62
		C242.56,294.23,237.04,296.52,228.5,292.47z"/>
	<path class="st204" d="M238.51,306.01c0,0,0.81,3.83,5.82,3.68l-1.03,2.21C243.3,311.9,238.95,311.61,238.51,306.01z"/>
	<path class="st204" d="M216.33,339.68c0,0,4.2,2.87,15.4,3.81s19.33,0,20.04-2.82c0.22-0.77-2.65-1.05-2.65-1.05
		s-2.15,3.09-13.69,3.04C223.9,342.6,216.33,339.68,216.33,339.68z"/>
	<path class="st205" d="M249.13,339.62l-2.32,3.15c0,0-10.71,1.33-16.62-0.28C230.19,342.49,245.71,343.76,249.13,339.62z"/>
	<path class="st205" d="M231.41,315.1c0,0,12.15-0.22,11.93-5.36l0.99-0.06C244.33,309.69,244.71,315.66,231.41,315.1z"/>
	<path class="st205" d="M230.97,293.3c0,0,7.99,1.34,9.46-0.68l1.09,0.74C241.51,293.35,238.36,295.61,230.97,293.3z"/>
	<path class="st205" d="M216.5,300.58c0,0.17-0.22,4.09,0.61,5.85c0,0-2.98,3.09-6.68,0c0,0,2.93,1.6,4.58-0.28
		C216.66,304.28,216.5,300.58,216.5,300.58z"/>
	<path class="st23" d="M210.15,305.22c-0.16-0.04-1.16-3.04-0.11-5.3c1.05-2.26,3.2-2.1,4.2-1.82s2.04,0.94,2.04,0.94
		s-0.33,1.71-1.1,2.93C214.4,303.18,212.47,305.83,210.15,305.22z"/>
	<path class="st23" d="M240.9,297.88c0,0-2.98,2.76-2.43,5.36c0.55,2.6,4.2,3.42,5.19,2.98c0.99-0.44,3.53-2.26,3.59-3.81
		C247.31,300.86,246.04,296.61,240.9,297.88z"/>
	<path class="st23" d="M232.1,274.58c0,0,3.21-7.19,0.96-15.28C233.07,259.29,232.84,270.76,232.1,274.58z"/>
	<path class="st23" d="M222.13,278.6c0,0,4.69,0.05,10.01,0.88C232.14,279.48,225.61,277.75,222.13,278.6z"/>
	<ellipse class="st206" cx="224.39" cy="304.34" rx="1.44" ry="1.55"/>
	<ellipse class="st206" cx="234.86" cy="283.27" rx="0.63" ry="0.68"/>
	<ellipse class="st206" cx="225.98" cy="281.62" rx="0.51" ry="0.55"/>
	<ellipse class="st206" cx="221.19" cy="329.96" rx="1.44" ry="1.55"/>
	<ellipse class="st206" cx="221.91" cy="317.87" rx="1.44" ry="1.55"/>
	<path class="st207" d="M213.34,283.74c0,0,3.6,0.31,5.07-0.38c0,0,3.11,0.82,5.25,0.01c0,0,3.33,0.65,4.69-0.43
		c0,0,1.06,0.37,0.87,2.25c0,0-1.9-0.96-3.77-0.53c0,0-2.09,0.48-3.53,0.13c-1.44-0.36-3.22-0.71-4.59-0.35
		C215.96,284.79,213.34,283.74,213.34,283.74z"/>
	<path class="st23" d="M168.87,332.66c-0.29,0.1-2.72-8.32,4.05-12.59c6.77-4.27,14.21-2.8,18.85-0.15c0,0,17.15-3.53,18.33,12.52
		c0,0-3.9-2.94-4.64-6.63c0,0-7.66,2.94-14.43-2.43c0,0-9.5,0.66-12.74-1.47C178.29,321.91,178.44,329.35,168.87,332.66z"/>
	<path class="st23" d="M307.93,323.68c0,0,14.65-2.94,20.25,8.47c0,0,6.26-0.44,8.54,3.61c0,0-2.43,6.26-4.12,5.82
		c-1.69-0.44-1.91-5.3-1.91-5.3s-3.09-0.22-4.05-2.13c0,0-3.24,0.37-5.82-4.42s-12.52-4.05-12.52-4.05L307.93,323.68z"/>
	<path class="st23" d="M203.62,337.45c0,0-14.8,6.48-20.17,12.15C183.44,349.6,192.28,346.58,203.62,337.45z"/>
	<path class="st197" d="M212.38,340.32c0,0,2.06,6.63,21.42,5.82c0,0-8.69,3.46-15.83,1.55
		C210.83,345.77,212.38,340.32,212.38,340.32z"/>
	<path class="st197" d="M262.95,337.74c0,0,14.43,1.4,17.74,4.79c3.31,3.39,2.5,0.44,2.5,0.44s9.72-3.17,22.67-1.69
		C305.87,341.28,280.55,336.42,262.95,337.74z"/>
	<path class="st208" d="M259.01,328.46c-0.22,0.03,0.23-30.19,0.23-30.19s21.69-17.62,28.01-18.37s22.14,19.43,22.14,19.43
		l-1.66,37.65c0,0-9.64-7.68-22.06-2.86C285.67,334.11,271.89,326.65,259.01,328.46z"/>
	<path class="st209" d="M284.01,291.88c0,0-4.71,5.82-11.34,8.39c0,0-3.31,6.33-8.98,9.2c0,0-1.33,4.86-1.33,8.76
		c0,3.9,0.96,8.47,0.96,8.47s14.87-1.18,22.09,4.71c0,0,8.98-2.28,16.71-0.59c0,0,1.47-2.5,1.33-5.37
		c-0.15-2.87-1.33-5.67-0.66-7.29s0.74-7.21,0.74-7.21s-5.6-4.71-7.51-10.97C296.01,299.98,285.7,296.59,284.01,291.88z"/>
	<path class="st210" d="M263.47,326.18c-0.12,0.2,13.84-0.96,22.38,3.98c0,0,7.51-0.74,10.6-0.74c3.09,0,6.63,1.91,6.63,1.91
		s-4.09-4.31-0.44-8.83c-3.92-3.58-2.43-8.54-0.44-9.42c0,0-6.48-5.15-17.96-4.86c-11.48,0.29-20.02,3.68-20.02,3.68
		s2.06,5.67-0.96,8.61C263.25,320.52,265.01,323.53,263.47,326.18z"/>
	<path class="st210" d="M266.56,309.55c0,0,23.56-1.84,33.5,0.29c0,0-3.75-5.3-4.64-7.8l-7.8-0.52l5.82-1.33
		c0,0-7.95-2.36-9.72-5.01l-6.92,3.98l4.86,1.03l-7.95,1.25C273.7,301.45,270.17,307.41,266.56,309.55z"/>
	<path class="st211" d="M258.68,306.9v21.79l4.34-0.59c0,0,0.52-5.3-3.09-7.88c0,0,3.24-1.47,2.58-5.3
		c-0.66-3.83-2.21-3.09-2.21-3.09s3.53-2.72,2.87-7.51C262.51,299.53,258.68,306.9,258.68,306.9z"/>
	<path class="st211" d="M308.08,335.9c0-0.22,0.44-24.88,0.44-24.88s-3.68-0.88-5.23-1.69c0,0-0.81,2.58,1.77,4.42
		c0,0-2.87,0.81-3.17,3.83c-0.29,3.02,3.98,5.45,3.98,5.45s-4.2,0.07-3.83,3.46s4.34,4.86,4.34,4.86s-2.21,1.69-2.65,2.58
		L308.08,335.9z"/>
	<path class="st211" d="M291.04,325.45h-16.49c-1.56,0-2.83-1.28-2.83-2.83v-16.27c0-1.56,1.28-2.83,2.83-2.83h16.49
		c1.56,0,2.83,1.28,2.83,2.83v16.27C293.87,324.17,292.6,325.45,291.04,325.45z"/>
	<g>
		<path class="st212" d="M279.19,313.82h-3.39c-1.56,0-2.83-1.28-2.83-2.83v-3.39c0-1.56,1.28-2.83,2.83-2.83h3.39
			c1.56,0,2.83,1.28,2.83,2.83v3.39C282.02,312.54,280.75,313.82,279.19,313.82z"/>
		<path class="st213" d="M275.8,312.97c-1.09,0-1.98-0.89-1.98-1.98v-3.39c0-1.09,0.89-1.98,1.98-1.98h3.39
			c1.09,0,1.98,0.89,1.98,1.98v3.39c0,1.09-0.89,1.98-1.98,1.98H275.8z"/>
		<path class="st212" d="M279.19,324.27h-3.39c-1.56,0-2.83-1.28-2.83-2.83v-3.39c0-1.56,1.28-2.83,2.83-2.83h3.39
			c1.56,0,2.83,1.28,2.83,2.83v3.39C282.02,323,280.75,324.27,279.19,324.27z"/>
		<path class="st213" d="M275.8,323.42c-1.09,0-1.98-0.89-1.98-1.98v-3.39c0-1.09,0.89-1.98,1.98-1.98h3.39
			c1.09,0,1.98,0.89,1.98,1.98v3.39c0,1.09-0.89,1.98-1.98,1.98H275.8z"/>
		<path class="st212" d="M289.79,313.82h-3.39c-1.56,0-2.83-1.28-2.83-2.83v-3.39c0-1.56,1.28-2.83,2.83-2.83h3.39
			c1.56,0,2.83,1.28,2.83,2.83v3.39C292.62,312.54,291.35,313.82,289.79,313.82z"/>
		<path class="st213" d="M286.4,312.97c-1.09,0-1.98-0.89-1.98-1.98v-3.39c0-1.09,0.89-1.98,1.98-1.98h3.39
			c1.09,0,1.98,0.89,1.98,1.98v3.39c0,1.09-0.89,1.98-1.98,1.98H286.4z"/>
		<path class="st212" d="M289.79,324.27h-3.39c-1.56,0-2.83-1.28-2.83-2.83v-3.39c0-1.56,1.28-2.83,2.83-2.83h3.39
			c1.56,0,2.83,1.28,2.83,2.83v3.39C292.62,323,291.35,324.27,289.79,324.27z"/>
		<path class="st213" d="M286.4,323.42c-1.09,0-1.98-0.89-1.98-1.98v-3.39c0-1.09,0.89-1.98,1.98-1.98h3.39
			c1.09,0,1.98,0.89,1.98,1.98v3.39c0,1.09-0.89,1.98-1.98,1.98H286.4z"/>
	</g>
	<path class="st213" d="M265.01,336.34c0,0,15.61,0.74,20.61,3.31c0,0,13.4,0.22,20.25,1.62c0,0-6.11-4.93-20.76-4.34
		C285.11,336.93,272.6,331.56,265.01,336.34z"/>
	<path class="st213" d="M263.32,337.67c0,0,13.33-0.29,20.61,5.45l-9.35,0.22C274.59,343.34,271.79,340.25,263.32,337.67z"/>
	<path class="st213" d="M284.67,341.42c0,0,1.77,2.28,6.63,3.17c4.86,0.88,11.78-1.1,11.78-1.1S294.24,340.25,284.67,341.42z"/>
	<path class="st214" d="M307.06,292.88l-16.94-13.87c-3.46-2.84-8.45-2.84-11.91,0l-16.94,13.87c0,0-13.1,7.23-9.11,12.95
		c3.99,5.72,17.02,1.13,17.92-8.36c0,0,13.33-3.24,14.08-14.08c0.75,10.84,14.08,14.08,14.08,14.08c0.9,9.49,13.93,14.08,17.92,8.36
		C320.16,300.11,307.06,292.88,307.06,292.88z"/>
	<path class="st215" d="M252.28,300.64c0,0-2.58,3.68,1.62,5.82c4.2,2.13,11.26-1.1,11.04-6.4c0,0,7.21-1.77,8.98-7.29
		c0,0,8.02-1.47,11.71-10.6c0,0-0.07,5.52,3.75,8.17s7.66,1.47,7.66,1.47s-1.4,6.48,5.6,6.48c0,0-0.37,5.74,5.08,7.8
		c5.45,2.06,8.98-0.44,8.39-4.34c-0.59-3.9-9.06-9.28-9.06-9.28s-8.91-7.8-12.22-9.72c0,0-5.89-6.77-10.6-6.26
		c-4.71,0.52-9.87,5.52-9.87,5.52s-7.58,6.18-10.97,9.35C263.39,291.36,253.01,296.66,252.28,300.64z"/>
	<path class="st197" d="M257.95,303.29c-0.21,0.08-6.77,1.84-6.18-1.69c0.59-3.53,6.77-7.51,6.77-7.51s4.86-2.87,7.21-5.08
		c2.36-2.21,12.74-11.71,18.11-12.81c5.37-1.1,13.62,7.73,13.62,7.73s8.98,8.61,11.71,10.01c2.72,1.4,8.83,6.4,7.36,9.5
		c-1.47,3.09-12.22,3.39-17.89-12.81c0.22-0.44-2.65,3.9-8.54-2.58c-3.39-3.53-4.71-7.36-4.71-7.36s-1.25,3.09-6.99,7.51
		s-9.2,3.75-9.2,3.75S267.81,299.68,257.95,303.29z"/>
	<path class="st23" d="M251.47,302.77c0,0-1.33-5.01,8.25-9.87c0.37-0.15,8.54-7.44,11.93-9.87c3.39-2.43,8.98-7.36,13.4-7.36
		s14.5,9.94,14.5,9.94s17.74,12.15,17.6,16.42c-0.15,4.27-1.91,5.08-1.99,4.79c-0.07-0.29,2.94-4.27-0.52-7.66
		s-13.55-8.47-15.53-11.04s-8.98-12.15-14.87-11.63c-5.89,0.52-16.49,12-18.92,13.33C262.88,291.14,252.43,297.03,251.47,302.77z"/>
	<path class="st23" d="M274.07,310.28c0.15-0.22,5.37-4.42,5.37-4.42l0.96,0.44l-6.33,5.6V310.28z"/>
	<polygon class="st23" points="276.72,312.71 280.7,308.81 280.7,309.62 277.97,312.86 	"/>
	<path class="st23" d="M274.51,322.65c0.22-0.22,5.3-6.18,5.3-6.18l0.66,0.52l-4.12,6.18h-1.18L274.51,322.65z"/>
	<polygon class="st23" points="286.44,322.87 290.63,316.39 291.37,316.91 288.13,323.02 	"/>
	<path class="st23" d="M284.42,310.98c0.47-0.18,5.37-5.37,5.37-5.37l0.77,0.25l-5.82,6.55L284.42,310.98z"/>
	<polygon class="st23" points="287.91,312.79 291,308.74 289.01,312.64 	"/>
</g>
<circle class="st23" cx="302.27" cy="249.99" r="1.91"/>
<circle class="st23" cx="217.9" cy="265.45" r="1.91"/>
<circle class="st23" cx="305.06" cy="223.04" r="1.91"/>
<circle class="st23" cx="280.77" cy="219.51" r="1.91"/>
<circle class="st23" cx="261.33" cy="229.08" r="1.91"/>
<circle class="st23" cx="325.53" cy="313.89" r="1.91"/>
<circle class="st23" cx="313.16" cy="278.7" r="1.91"/>
<circle class="st23" cx="327.44" cy="270.01" r="1.91"/>
<circle class="st23" cx="340.99" cy="303.44" r="1.91"/>
<circle class="st23" cx="330.54" cy="287.39" r="1.91"/>
<circle class="st23" cx="197.87" cy="310.5" r="1.91"/>
<circle class="st23" cx="184.92" cy="289.74" r="1.91"/>
<circle class="st23" cx="199.93" cy="289.89" r="1.91"/>
<circle class="st23" cx="167.84" cy="268.25" r="1.91"/>
<circle class="st23" cx="173.28" cy="304.91" r="1.91"/>
<circle class="st23" cx="296.67" cy="271.04" r="1.91"/>
<circle class="st23" cx="292.99" cy="254.7" r="1.91"/>
<circle class="st23" cx="264.43" cy="248.81" r="1.91"/>
<circle class="st23" cx="250.59" cy="201.69" r="1.91"/>
<circle class="st23" cx="186.54" cy="248.66" r="1.91"/>
<circle class="st23" cx="252.2" cy="276.05" r="1.91"/>
<circle class="st216" cx="264.06" cy="266.55" r="1.4"/>
<circle class="st216" cx="322.14" cy="262.69" r="1.4"/>
<circle class="st216" cx="308.12" cy="259.71" r="1.4"/>
<circle class="st216" cx="308.12" cy="254.52" r="1.4"/>
<circle class="st216" cx="201.78" cy="264.23" r="1.4"/>
<circle class="st216" cx="212.05" cy="292.06" r="1.4"/>
<circle class="st216" cx="161.91" cy="297.03" r="1.4"/>
<circle class="st216" cx="295.38" cy="239.02" r="1.4"/>
<circle class="st216" cx="310.55" cy="234.42" r="1.4"/>
<circle class="st216" cx="316.51" cy="269.42" r="1.4"/>
<circle class="st216" cx="282.65" cy="243.1" r="1.4"/>
<circle class="st216" cx="175.31" cy="258.12" r="1.4"/>
<circle class="st216" cx="185.36" cy="279.33" r="1.4"/>
<circle class="st216" cx="177.08" cy="253.6" r="1.4"/>
<circle class="st216" cx="176.08" cy="293.68" r="1.4"/>
<ellipse transform="matrix(0.8868 -0.4622 0.4622 0.8868 -79.4024 124.9862)" class="st23" cx="215.39" cy="224.55" rx="16.79" ry="11.82"/>
<path d="M253.64,181.82c59.83,0,108.33,48.5,108.33,108.33c0,33.41-15.13,63.28-38.9,83.15l0.47,0.2c0,0.09-0.01,0.18-0.03,0.27
	c-0.01,0.08-0.03,0.15-0.05,0.23c0.02-0.08,0.04-0.15,0.05-0.23c0.02-0.09,0.03-0.18,0.03-0.27c0,0,0.01,0.02,0.03,0.06
	c0-0.02,0.01-0.04,0.01-0.06c0,0,0,0,0,0v0l0.06,0.22c0.02,0.06,0.03,0.12,0.05,0.19l0.41,1.59l4.36,17.05l0.47,1.85l3.78,14.77
	c0,1.58-0.86,3.11-2.49,4.57c-8.77,7.88-39.73,13.71-76.58,13.71c-42.3,0-76.85-7.68-78.96-17.34c-0.07-0.31-0.1-0.63-0.1-0.94
	l0.55-2.15l0.21-0.82l-0.02-0.03l2.92-11.31l0.12-0.46l0.47-1.85l3.85-15.05l1-3.92c0-0.03-0.01-0.06-0.01-0.09l0.52-0.22
	c-23.76-19.87-38.87-49.73-38.87-83.13C145.31,230.32,193.81,181.82,253.64,181.82 M185.69,374.52c-0.25-0.2-0.51-0.41-0.76-0.61
	C185.15,374.11,185.41,374.31,185.69,374.52 M323.32,374.38c-0.01,0.01-0.01,0.02-0.01,0.03c-0.01,0.02-0.02,0.04-0.03,0.06
	c0.01-0.02,0.02-0.04,0.03-0.06C323.31,374.4,323.32,374.39,323.32,374.38 M253.64,178.82c-29.74,0-57.7,11.58-78.72,32.61
	c-21.03,21.03-32.61,48.99-32.61,78.72c0,32.27,13.88,62.71,38.15,83.9l-0.69,2.71l-3.85,15.05l-0.47,1.85l-0.12,0.46l-2.92,11.3
	c-0.04,0.14-0.06,0.28-0.08,0.42l-0.11,0.44l-0.55,2.15c-0.06,0.24-0.09,0.49-0.09,0.74c0,0.53,0.06,1.06,0.17,1.58
	c1.33,6.06,10.31,10.97,26.7,14.58c14.97,3.3,34.58,5.12,55.2,5.12c37.36,0,68.94-5.82,78.58-14.48c2.31-2.08,3.48-4.37,3.48-6.8
	c0-0.25-0.03-0.5-0.09-0.74l-3.78-14.77l-0.47-1.85L327,374.75l-0.18-0.71c24.28-21.19,38.15-51.62,38.15-83.9
	c0-29.74-11.58-57.7-32.61-78.72C311.33,190.4,283.38,178.82,253.64,178.82L253.64,178.82z"/>
<path class="st217" d="M278.15,323.19c0,0,0.1-0.66,0.77-0.79c0,0-0.35-0.33-0.32-1.1c0.03-0.77,0.77-0.88,0.77-0.88
	s0.84-0.28,1.01,0.65c0.17,0.92-0.39,1.31-0.39,1.31s0.43,0.15,0.51,0.33c0,0-0.41,0.4-0.92,0.5
	C279.07,323.3,278.15,323.19,278.15,323.19z"/>
<path class="st217" d="M278.73,321.54c0,0-0.29-0.08-0.32,0.07c-0.03,0.15,0.18,0.43,0.36,0.3
	C278.95,321.79,278.73,321.54,278.73,321.54z"/>
<path class="st217" d="M280.23,321.54c0,0,0.29-0.08,0.32,0.07c0.03,0.15-0.18,0.43-0.36,0.3S280.23,321.54,280.23,321.54z"/>
<path class="st217" d="M278.85,321.18c0,0-0.29,0.11-0.32,0c-0.02-0.11,0.2-0.18,0.2-0.18s-0.22-0.16-0.06-0.32s0.3-0.14,0.3-0.14
	s-0.1-0.19,0.28-0.23c0.38-0.05,0.34,0.11,0.34,0.11s0.38-0.16,0.51,0.02c0.13,0.19,0.1,0.25,0.1,0.25s0.28,0.07,0.24,0.29
	c-0.04,0.22-0.24,0.3-0.24,0.3L278.85,321.18z"/>
</svg>
