<svg version="1.1" id="ALL" xmlns="http://www.w3.org/2000/svg" xmlns:xlink="http://www.w3.org/1999/xlink" x="0px" y="0px"
	 viewBox="0 0 510.24 595.28" style="enable-background:new 0 0 510.24 595.28;" xml:space="preserve">
<style type="text/css">
	.st0{fill:#5D2D16;}
	.st1{fill:#7A3A2B;}
	.st2{fill:#C5743C;}
	.st3{fill:#C37D46;}
	.st4{fill:#526D32;}
	.st5{fill:#639916;}
	.st6{opacity:0.5;}
	.st7{fill:#83C121;}
	.st8{fill:#BAAB3F;}
	.st9{fill:#A57044;}
	.st10{fill:#B78253;}
	.st11{fill:#7F5038;}
	.st12{fill:#DA211E;}
	.st13{fill:#A80000;}
	.st14{fill:#F42A2A;}
	.st15{fill:#720000;}
	.st16{fill:#E5E7EA;}
	.st17{fill:#CBC8C3;}
	.st18{fill:#B2ACA4;}
	.st19{fill:#B2B6B7;}
	.st20{fill:#E88D0A;}
	.st21{fill:#963600;}
	.st22{fill:#FFD664;}
	.st23{fill:#FFFFFF;}
	.st24{fill:#510E0E;}
	.st25{fill:#D1B8A1;}
	.st26{fill:#3F4042;}
	.st27{fill:#EFEEED;}
	.st28{fill:#965632;}
	.st29{fill:#9E7954;}
	.st30{fill:#C69F6B;}
	.st31{fill:#B7AFA7;}
	.st32{fill:#84330F;}
	.st33{fill:#B3B0A1;}
	.st34{fill:#663E1D;}
	.st35{fill:#AA5B21;}
	.st36{fill:#682A00;}
	.st37{fill:#CC0000;}
	.st38{fill:#880000;}
	.st39{fill:#1BBDEF;}
	.st40{fill:#83FFFF;}
	.st41{fill:#D7FFFE;}
	.st42{fill:#C6541A;}
	.st43{fill:#8C3610;}
	.st44{fill:#D86C00;}
	.st45{fill:#F2790A;}
	.st46{fill:#F2B30A;}
	.st47{fill:#1A2B0E;}
	.st48{fill:#F78F1E;}
	.st49{fill:#FFD683;}
	.st50{fill:#FFBD48;}
	.st51{fill:#87FFFF;}
	.st52{fill:#FFCC00;}
	.st53{fill:#5B1E06;}
	.st54{fill:#30541A;}
	.st55{fill:#35720E;}
	.st56{fill:#9E3612;}
	.st57{fill:#48AA09;}
	.st58{fill:#FFA200;}
	.st59{fill:#C1006A;}
	.st60{fill:#7B2322;}
	.st61{fill:#D30056;}
	.st62{fill:#680E37;}
	.st63{fill:#7C193A;}
	.st64{fill:#FF2C72;}
	.st65{fill:#FF5A8D;}
	.st66{fill:#FF48D6;}
	.st67{fill:#FF6D9F;}
	.st68{fill:#E88725;}
	.st69{fill:#E8B425;}
	.st70{fill:#FFD15F;}
	.st71{fill:#893A28;}
	.st72{fill:#FFFF42;}
	.st73{fill:#2C7A3C;}
	.st74{fill:#295B31;}
	.st75{fill:#3BC458;}
	.st76{fill:#5E4031;}
	.st77{fill:#605F33;}
	.st78{fill:#82804A;}
	.st79{fill:#82533F;}
	.st80{fill:#A06955;}
	.st81{fill:#444332;}
	.st82{fill:#66686B;}
	.st83{fill:#B7AF51;}
	.st84{fill:#47462C;}
	.st85{fill:#C17B5D;}
	.st86{fill:#FFD346;}
	.st87{fill:#F7A800;}
	.st88{fill:#ED7601;}
	.st89{fill:#FFE18D;}
	.st90{fill:#FFB857;}
	.st91{fill:#8B9BAF;}
	.st92{fill:#9DC2EA;}
	.st93{fill:#AA0000;}
	.st94{fill:#EF7F22;}
	.st95{fill:#C17E3A;}
	.st96{fill:#82562E;}
	.st97{fill:#542906;}
	.st98{fill:#CE6B13;}
	.st99{fill:#FF9536;}
	.st100{fill:#FFD55F;}
	.st101{fill:#A85007;}
	.st102{fill:#E29652;}
	.st103{fill:#FFA861;}
	.st104{fill:#FF0000;}
	.st105{fill:#5DE7FF;}
	.st106{fill:#32323A;}
	.st107{fill:#D6CBBF;}
	.st108{fill:#EBE0CE;}
	.st109{fill:#E28F01;}
	.st110{fill:#C94727;}
	.st111{fill:#7A2413;}
	.st112{fill:#3B454C;}
	.st113{fill:#5B676D;}
	.st114{fill:#DD5D05;}
	.st115{fill:#FF8939;}
	.st116{fill:#FFF6E9;}
	.st117{fill:#FFCE00;}
	.st118{fill:#C59648;}
	.st119{fill:#936135;}
	.st120{fill:#FCB072;}
	.st121{fill:#CC7E52;}
	.st122{fill:#8E624C;}
	.st123{fill:#AC1212;}
	.st124{fill:#E5231A;}
	.st125{fill:#318D8A;}
	.st126{fill:#F4A32C;}
	.st127{fill:#FFC06C;}
	.st128{fill:#B5720F;}
	.st129{fill:#FFD1AE;}
	.st130{fill:#C4CCCE;}
	.st131{fill:#1F2023;}
	.st132{fill:#E3E5E5;}
	.st133{fill:#3F4144;}
	.st134{fill:#7C0D0D;}
	.st135{fill:#AEB7BA;}
	.st136{fill:#8A909E;}
	.st137{fill:#AA7B57;}
	.st138{fill:#B78570;}
	.st139{fill:#6E7E8E;}
	.st140{fill:#4B5D6B;}
	.st141{fill:#76797C;}
	.st142{fill:#FFCEA9;}
	.st143{fill:#BF744F;}
	.st144{fill:#FCC068;}
	.st145{fill:#D7DFE2;}
	.st146{fill:#7A8E93;}
	.st147{fill:#FF6161;}
	.st148{fill:#EFD5B6;}
	.st149{fill:#505356;}
	.st150{fill:#AAAAAA;}
	.st151{fill:#8E7C6F;}
	.st152{fill:#747B84;}
	.st153{fill:#EDD5C0;}
	.st154{fill:#A0805A;}
	.st155{fill:#725D46;}
	.st156{fill:#AA6333;}
	.st157{fill:#DBC09E;}
	.st158{fill:#6D4029;}
	.st159{fill:#826341;}
	.st160{fill:#E08032;}
	.st161{fill:#AF520C;}
	.st162{fill:#891313;}
	.st163{fill:#B73030;}
	.st164{fill:#E84242;}
	.st165{fill:#562708;}
	.st166{fill:#FFBE71;}
	.st167{fill:#603429;}
	.st168{fill:#FFA124;}
	.st169{fill:#696C70;}
	.st170{fill:#50555B;}
	.st171{fill:#8C9196;}
	.st172{fill:#E0E0E0;}
	.st173{fill:#FF4A4A;}
	.st174{fill:#607F91;}
	.st175{fill:#C3D3DD;}
	.st176{fill:#8BA1AF;}
	.st177{fill:#60A0BA;}
	.st178{fill:#6088AD;}
	.st179{fill:#4A7493;}
	.st180{fill:#696389;}
	.st181{fill:#4663A3;}
	.st182{fill:#AEE6FF;}
	.st183{fill:#54A7CC;}
	.st184{fill:#4BB9E0;}
	.st185{fill:#4F4B75;}
	.st186{fill:#542E15;}
	.st187{fill:#6D3516;}
	.st188{fill:#68472B;}
	.st189{fill:#AF6D37;}
	.st190{fill:#3A2E2C;}
	.st191{fill:#663418;}
	.st192{fill:#915436;}
	.st193{fill:#B57255;}
	.st194{fill:#F28B3D;}
	.st195{fill:#56829B;}
	.st196{fill:#85B5D6;}
	.st197{fill:#B7D8EA;}
	.st198{fill:#3B6375;}
	.st199{fill:#5C6466;}
	.st200{fill:#FF5A20;}
	.st201{fill:#37454F;}
	.st202{fill:#202528;}
	.st203{fill:#566772;}
	.st204{fill:#69838E;}
	.st205{fill:#415156;}
	.st206{fill:#8E999B;}
	.st207{fill:#FF9A7B;}
	.st208{fill:#5B4F49;}
	.st209{fill:#6B5146;}
	.st210{fill:#924B2F;}
	.st211{fill:#A56F5B;}
	.st212{fill:#6B4A40;}
	.st213{fill:#FFD469;}
	.st214{fill:#7D8389;}
	.st215{fill:#B3B5BC;}
	.st216{fill:#92C6EA;}
	.st217{fill:#D3A12F;}
	.st218{fill:#3353A3;}
	.st219{fill:#2D4068;}
	.st220{fill:#09425B;}
	.st221{fill:#FF4800;}
	.st222{fill:#32697C;}
	.st223{fill:#A8E0EF;}
	.st224{fill:#71C0DB;}
	.st225{fill:#6089C6;}
	.st226{fill:#009311;}
	.st227{fill:#08FF2E;}
	.st228{fill:#536D54;}
	.st229{fill:#C84229;}
	.st230{fill:#FF4229;}
	.st231{fill:#C85529;}
	.st232{fill:#FF5529;}
	.st233{fill:#B96829;}
	.st234{fill:#FF6829;}
	.st235{fill:#A48929;}
	.st236{fill:#FF8929;}
	.st237{fill:#A4CC29;}
	.st238{fill:#FFCC29;}
	.st239{fill:#00CE31;}
	.st240{fill:#A1CE31;}
	.st241{fill:#FFFF2E;}
	.st242{fill:#BBEDFF;}
	.st243{fill:#A9E7FF;}
	.st244{fill:#475572;}
	.st245{fill:#FF680C;}
	.st246{fill:#FFFF0C;}
	.st247{fill:#348AA5;}
	.st248{fill:#16638E;}
	.st249{opacity:0.15;fill:#FFFF0C;}
	.st250{opacity:0.15;fill:#71F0DC;}
	.st251{opacity:0.3;fill:#71F0DC;}
	.st252{fill:#80A9B2;}
	.st253{fill:#88E6FF;}
	.st254{fill:#5376A0;}
	.st255{fill:#6D9DCC;}
	.st256{fill:#90B4D3;}
	.st257{fill:#B7B4A7;}
	.st258{fill:#20314F;}
	.st259{fill:#FFD808;}
	.st260{fill:#CCCC6E;}
	.st261{fill:#A5C2D3;}
	.st262{fill:#FF8710;}
	.st263{fill:#C45800;}
	.st264{fill:#2791CC;}
	.st265{fill:#A01717;}
	.st266{fill:#E51717;}
	.st267{fill:#C90D0D;}
	.st268{fill:#FF7171;}
	.st269{fill:#FFB428;}
	.st270{fill:#BC0F0F;}
	.st271{fill:#F76A00;}
	.st272{fill:#C14000;}
	.st273{fill:#AA2800;}
	.st274{fill:#FFAB31;}
	.st275{fill:#F7C27C;}
	.st276{fill:#560D0D;}
	.st277{fill:#960202;}
	.st278{fill:#700F0F;}
	.st279{fill:#CC5200;}
	.st280{fill:#951717;}
	.st281{fill:#71F0DC;}
	.st282{opacity:0.37;fill:#FFFFFF;}
	.st283{opacity:0.5;fill:#A7FFFF;}
	.st284{fill:#FFEB38;}
	.st285{fill:#304777;}
	.st286{fill:#03EDFF;}
	.st287{opacity:0.3;}
	.st288{opacity:0.2;}
	.st289{fill:#74A1B5;}
	.st290{fill:#33F5FF;}
	.st291{opacity:0.3;fill:#33F5FF;}
	.st292{fill:#99FFFF;}
	.st293{fill:#FCF9D9;}
	.st294{fill:#546077;}
	.st295{fill:#E5E1A8;}
	.st296{fill:#478461;}
	.st297{fill:#D3B5A5;}
	.st298{fill:#DE4400;}
	.st299{fill:#F77991;}
	.st300{fill:#FFDCE0;}
	.st301{fill:#663E20;}
	.st302{fill:#9B5D3B;}
	.st303{fill:#3F2D27;}
	.st304{fill:#DBB06B;}
	.st305{fill:#AF834F;}
	.st306{fill:#493B33;}
	.st307{fill:#81574A;}
	.st308{fill:#CC9933;}
	.st309{fill:#FFFF93;}
	.st310{fill:#D1993F;}
	.st311{fill:#D1AA66;}
	.st312{opacity:0.2;fill:#FFFF93;}
	.st313{opacity:0.1;fill:#FFFF93;}
	.st314{opacity:0.1;fill:#FFFF89;}
	.st315{opacity:0.7;}
	.st316{fill:#BC874D;}
	.st317{opacity:0.4;fill:#444951;}
	.st318{opacity:0.3;fill:#373944;}
	.st319{fill:#775742;}
	.st320{opacity:0.5;fill:#444951;}
	.st321{fill:#969436;}
	.st322{fill:#4C3529;}
	.st323{fill:#D8A355;}
	.st324{fill:#FFD578;}
	.st325{opacity:0.4;fill:#FFD578;}
	.st326{fill:#A79253;}
	.st327{fill:#CBAC4E;}
	.st328{fill:#5E4F2A;}
	.st329{opacity:0.6;fill:#52575E;}
	.st330{fill:#E5CF4A;}
	.st331{opacity:0.6;}
	.st332{fill:#444951;}
	.st333{fill:#1D1D1D;}
	.st334{fill:#1D1D1B;}
	.st335{fill:#D38C54;}
	.st336{fill:#B4FFFF;}
	.st337{opacity:0.4;fill:#FFFFFF;}
	.st338{opacity:0.7;fill:#7A3A2B;}
	.st339{fill:#D3AF85;}
	.st340{fill:#F9CB9D;}
	.st341{opacity:0.6;fill:#5D2D16;}
	.st342{opacity:0.29;fill:#5D2D16;}
	.st343{fill:#4F3220;}
	.st344{fill:#775542;}
	.st345{fill:#E2C54C;}
	.st346{fill:#F2E8B3;}
	.st347{fill:#F7F8F6;}
	.st348{fill:#976616;}
	.st349{fill:#6F3B0C;}
	.st350{fill:#5A0C0C;}
	.st351{opacity:0.44;}
	.st352{opacity:0.46;fill:#350B00;}
	.st353{fill:#B1B4B9;}
	.st354{fill:#B1B4A5;}
	.st355{fill:#C9CACC;}
	.st356{fill:#E9EAEC;}
	.st357{opacity:0.5;fill:#E9EAEC;}
	.st358{opacity:0.4;fill:#E9EAEC;}
	.st359{opacity:0.7;fill:#FFFFFF;}
	.st360{opacity:0.5;fill:#FFFFFF;}
</style>
<g>
	<circle class="st118" cx="119.65" cy="366.34" r="11.6"/>
	<path class="st119" d="M108.06,367.34c0,0,0.39,4.69,3.87,6.46c3.48,1.77,17.67-1.33,17.67-1.33s4.09-5.96-0.66-13.14
		c0,0,1.99,6.02-8.78,9.22S108.06,367.34,108.06,367.34z"/>
	<g>
		<g>
			<circle class="st120" cx="83.82" cy="501.07" r="7.56"/>
			<path class="st121" d="M79.16,501.18c0,0-0.11,2.25,2.87,3.5c4.75,1.69,7.84-2.95,7.4-4.64c-0.44-1.69-3.64-1.44-4.64,0.77
				c0,0,1.51-3.5-2.28-4.56c0,0,7.07-0.22,7.18-0.15s2.17,3.24,1.44,6.52c-0.74,3.28-2.8,4.42-2.8,4.42s-4.12,2.02-7.8-1.29
				C78.28,503.39,79.16,501.18,79.16,501.18z"/>
			<path class="st122" d="M84.06,497.35c0,0,1.36,0.63,0.74,3.46c0,0,0.96-2.02,3.17-1.8c2.21,0.22,1.4,2.17,1.4,2.17
				s0.88-1.58-0.44-2.54c-1.33-0.96-3.09-0.22-3.09-0.22l0.04-1.07H84.06z"/>
			<path d="M83.82,494.25c3.76,0,6.81,3.06,6.81,6.81s-3.06,6.81-6.81,6.81S77,504.83,77,501.07S80.06,494.25,83.82,494.25
				 M83.82,493.5c-4.18,0-7.56,3.39-7.56,7.56s3.39,7.56,7.56,7.56s7.56-3.39,7.56-7.56S88,493.5,83.82,493.5L83.82,493.5z"/>
			<path class="st122" d="M78.39,495.88l-0.85,1.1c0,0,6.59,1.84,12.59,0l-0.92-1.8C89.21,495.18,79.79,493.93,78.39,495.88z"/>
			<path class="st123" d="M91.16,495.33l1.33-49.25c0-2.94-20.32-2.94-20.32,0l4.31,49.36C76.49,497.43,91.18,497.32,91.16,495.33z"
				/>
			<path class="st124" d="M86.86,446.3l0.66,48.81c0,0-2.87,0.44-4.64,0.22l-3.53-49.03C79.35,446.3,84.79,445.63,86.86,446.3z"/>
			<path class="st118" d="M91.16,495.33l0.28-9.22c0,0-5.36-7.12-16.34-7.12l1.38,16.45c0,0-0.22,1.44,7.4,1.44
				C91.49,496.87,91.16,495.33,91.16,495.33z"/>
			<path class="st125" d="M91.44,486.1c0,0-5.08-7.01-16.34-7.12l-0.17-2.04c0,0,10.82-0.28,16.51,7.29V486.1z"/>
			<path class="st126" d="M87.59,496.28l0.18-12.92c0,0-3.13-2.61-7.66-3.5l1.33,16.6C83.55,496.62,85.6,496.58,87.59,496.28z"/>
			<path class="st127" d="M86.45,482.66l0.15,13.29l-1.58,0.11l-0.85-14.72C84.17,481.34,86.01,482.37,86.45,482.66z"/>
			<path class="st127" d="M75.81,479.35l1.21,16.09c0,0,0.29,0.44,0.77,0.48l-1.14-16.49L75.81,479.35z"/>
			<path class="st124" d="M75.74,476.85c0,0.18-2.32-30.26-2.32-30.26l0.88-0.15l2.32,30.52L75.74,476.85z"/>
			<path class="st124" d="M73.42,446.59c0,0,1.03-0.48,4.05-0.44c0,0-3.02,0.4-3.83,1.07L73.42,446.59z"/>
		</g>
		<path class="st128" d="M91.44,486.1c0,0-1.56-1.79-2.3-2.26l-0.48,12.81c0,0,2.39-0.52,2.5-1.33L91.44,486.1z"/>
		<path class="st129" d="M80.85,503.41c-0.88-0.85-1.91-2.55-1.33-5.6c0,0,1.55,0.39,3.37,0.36c0,0,0.86,2.52,0.64,4.29
			C83.36,503.79,81.81,504.35,80.85,503.41z"/>
	</g>
	<g>
		<g>
			<circle class="st120" cx="154.33" cy="501.07" r="7.56"/>
			<path class="st121" d="M158.98,501.18c0,0,0.11,2.25-2.87,3.5c-4.75,1.69-7.84-2.95-7.4-4.64c0.44-1.69,3.64-1.44,4.64,0.77
				c0,0-1.51-3.5,2.28-4.56c0,0-7.07-0.22-7.18-0.15s-2.17,3.24-1.44,6.52c0.74,3.28,2.8,4.42,2.8,4.42s4.12,2.02,7.8-1.29
				C159.87,503.39,158.98,501.18,158.98,501.18z"/>
			<path class="st122" d="M154.09,497.35c0,0-1.36,0.63-0.74,3.46c0,0-0.96-2.02-3.17-1.8c-2.21,0.22-1.4,2.17-1.4,2.17
				s-0.88-1.58,0.44-2.54s3.09-0.22,3.09-0.22l-0.04-1.07H154.09z"/>
			<path d="M154.33,494.25c3.76,0,6.81,3.06,6.81,6.81s-3.06,6.81-6.81,6.81s-6.81-3.06-6.81-6.81S150.57,494.25,154.33,494.25
				 M154.33,493.5c-4.18,0-7.56,3.39-7.56,7.56s3.39,7.56,7.56,7.56s7.56-3.39,7.56-7.56S158.51,493.5,154.33,493.5L154.33,493.5z"
				/>
			<path class="st122" d="M159.76,495.88l0.85,1.1c0,0-6.59,1.84-12.59,0l0.92-1.8C148.93,495.18,158.36,493.93,159.76,495.88z"/>
			<path class="st123" d="M146.98,495.33l-1.33-49.25c0-2.94,20.32-2.94,20.32,0l-4.31,49.36
				C161.66,497.43,146.97,497.32,146.98,495.33z"/>
			<path class="st124" d="M151.29,446.3l-0.66,48.81c0,0,2.87,0.44,4.64,0.22l3.53-49.03C158.8,446.3,153.35,445.63,151.29,446.3z"
				/>
			<path class="st118" d="M146.98,495.33l-0.28-9.22c0,0,5.36-7.12,16.34-7.12l-1.38,16.45c0,0,0.22,1.44-7.4,1.44
				C146.65,496.87,146.98,495.33,146.98,495.33z"/>
			<path class="st125" d="M146.71,486.1c0,0,5.08-7.01,16.34-7.12l0.17-2.04c0,0-10.82-0.28-16.51,7.29V486.1z"/>
			<path class="st126" d="M150.55,496.28l-0.18-12.92c0,0,3.13-2.61,7.66-3.5l-1.33,16.6C154.6,496.62,152.54,496.58,150.55,496.28z
				"/>
			<path class="st127" d="M151.7,482.66l-0.15,13.29l1.58,0.11l0.85-14.72C153.98,481.34,152.14,482.37,151.7,482.66z"/>
			<path class="st127" d="M162.33,479.35l-1.21,16.09c0,0-0.29,0.44-0.77,0.48l1.14-16.49L162.33,479.35z"/>
			<path class="st124" d="M162.41,476.85c0,0.18,2.32-30.26,2.32-30.26l-0.88-0.15l-2.32,30.52L162.41,476.85z"/>
			<path class="st124" d="M164.73,446.59c0,0-1.03-0.48-4.05-0.44c0,0,3.02,0.4,3.83,1.07L164.73,446.59z"/>
		</g>
		<path class="st128" d="M146.71,486.1c0,0,1.56-1.79,2.3-2.26l0.48,12.81c0,0-2.39-0.52-2.5-1.33L146.71,486.1z"/>
		<path class="st129" d="M157.3,503.41c0.88-0.85,1.91-2.55,1.33-5.6c0,0-1.55,0.39-3.37,0.36c0,0-0.86,2.52-0.64,4.29
			C154.79,503.79,156.33,504.35,157.3,503.41z"/>
	</g>
	<g>
		<path class="st130" d="M118,503.02c-0.15,0.22,0,35.78,0,35.78h-13.62l-5.3-37.91L118,503.02z"/>
		<path class="st131" d="M101.14,515.46c0,0,0.59-2.94,2.94-2.94s4.12,7.29,13.77,7.29L118,538.8c0,0-12.22,4.12-18.77,0l4.05-6.4
			L101.14,515.46z"/>
		<path class="st132" d="M106.07,511.93h8.83l0.07,6.26C114.98,518.18,109.31,517.6,106.07,511.93z"/>
		<path class="st133" d="M103.71,517.3l1.33,13.03c0,0,3.98-1.03,8.91,3.83l-0.74-13.25c0,0-4.27-0.74-5.89-3.24
			C105.7,515.17,103.71,517.3,103.71,517.3z"/>
		<path class="st133" d="M101.51,537.99l3.46-5.89c0,0,2.21,0.22,4.49,1.55C109.46,533.64,105.7,539.68,101.51,537.99z"/>
	</g>
	<g>
		<path class="st130" d="M119.69,503.02c0.15,0.22,0,35.78,0,35.78h13.62l5.3-37.91L119.69,503.02z"/>
		<path class="st131" d="M136.55,515.46c0,0-0.59-2.94-2.94-2.94c-2.36,0-4.12,7.29-13.77,7.29l-0.15,18.99c0,0,12.22,4.12,18.77,0
			l-4.05-6.4L136.55,515.46z"/>
		<path class="st132" d="M131.62,511.93h-8.83l-0.07,6.26C122.71,518.18,128.38,517.6,131.62,511.93z"/>
		<path class="st133" d="M133.97,517.3l-1.33,13.03c0,0-3.98-1.03-8.91,3.83l0.74-13.25c0,0,4.27-0.74,5.89-3.24
			C131.98,515.17,133.97,517.3,133.97,517.3z"/>
		<path class="st133" d="M136.18,537.99l-3.46-5.89c0,0-2.21,0.22-4.49,1.55C128.23,533.64,131.98,539.68,136.18,537.99z"/>
	</g>
	<path class="st123" d="M128.05,495.73h-17.82c-10,0-18.35-8.18-18.65-18.47l-2.92-100.79c0-6.58,60.96-6.58,60.96,0l-2.92,100.79
		C146.39,487.55,138.05,495.73,128.05,495.73z"/>
	<path class="st123" d="M112.81,488.15h12.66c7.11,0,13.31,1.18,13.88,2.71l6.92,18.5H92.01l6.92-18.5
		C99.5,489.33,105.7,488.15,112.81,488.15z"/>
	<polygon class="st120" points="91.27,466.43 147.04,466.43 148.25,423.36 90.02,423.36 	"/>
	<path class="st124" d="M98.89,422.55c0.22-0.44-1.77-47.93-1.77-47.93s15.46-2.21,33.13-0.99l-0.66,48.7L98.89,422.55z"/>
	<path class="st124" d="M94.47,468.93c0,0-3.53,17.01,6.96,21.2v1.66h32.02l-18.66-14.69L94.47,468.93z"/>
	<path class="st128" d="M135.74,481.77h-32.99c-0.9,0-1.64-0.74-1.64-1.64l0,0c0-0.9,0.74-1.64,1.64-1.64h32.99
		c0.9,0,1.64,0.74,1.64,1.64l0,0C137.38,481.03,136.64,481.77,135.74,481.77z"/>
	<path class="st128" d="M133.14,487.98h-27.81c-0.9,0-1.64-0.74-1.64-1.64l0,0c0-0.9,0.74-1.64,1.64-1.64h27.81
		c0.9,0,1.64,0.74,1.64,1.64l0,0C134.78,487.24,134.04,487.98,133.14,487.98z"/>
	<path class="st134" d="M147.26,467.5l-26.12,10.77l-28.71-10.21v1.21l18.06,6.9l-0.88,6.18c0,0-0.17,2.1,1.44,1.88
		c1.6-0.22,4.36-2.37,4.36-2.37l3.81,5.13c0,0,2.21,1.66,4.69,0l3.81-4.8l2.76,1.82c0,0,2.82,2.15,2.76-1.93l-1.99-6.4l15.96-6.68
		L147.26,467.5z"/>
	<polygon class="st125" points="91.27,466.43 120.09,477.1 147.04,466.43 	"/>
	<polygon class="st118" points="98.62,491.68 139.64,491.68 141.96,497.92 96.3,497.92 	"/>
	<path class="st132" d="M146.21,509.35c0,0-25.82-0.72-25.82-11.05h-0.18h-2.2h-0.18c0,10.33-25.82,11.05-25.82,11.05l27.1,0
		L146.21,509.35z"/>
	<g>
		<ellipse class="st118" cx="119.1" cy="494.88" rx="6.29" ry="4.57"/>
		<path class="st125" d="M119.1,499.96c-3.75,0-6.79-2.28-6.79-5.07c0-2.8,3.05-5.07,6.79-5.07c3.75,0,6.79,2.28,6.79,5.07
			C125.89,497.68,122.85,499.96,119.1,499.96z M119.1,490.81c-3.2,0-5.79,1.83-5.79,4.07c0,2.25,2.6,4.07,5.79,4.07
			c3.19,0,5.79-1.83,5.79-4.07C124.89,492.64,122.29,490.81,119.1,490.81z"/>
	</g>
	<path class="st125" d="M92.01,509.35l25.6-9.89C117.61,499.47,118.14,508.03,92.01,509.35z"/>
	<path class="st125" d="M146.16,509.35l-25.6-9.89C120.56,499.47,120.02,508.03,146.16,509.35z"/>
	<path class="st135" d="M131.37,467.42c-0.1-0.63-0.65-1.08-1.28-1.07l-17.45-0.17c-0.63-0.01-1.18,0.45-1.28,1.07l-2.39,14.48
		c-0.18,1.09,1.02,1.89,1.95,1.29l3.52-2.22c0.55-0.35,1.27-0.23,1.68,0.28l3.68,4.54c0.81,0.99,2.32,1,3.14,0.02l3.66-4.39
		c0.41-0.5,1.13-0.62,1.68-0.28l3.52,2.22c0.94,0.59,2.13-0.2,1.95-1.29L131.37,467.42z"/>
	<path class="st118" d="M105.68,484.72h10.16l2.02,3.23h-12.52c0,0-1.64-0.02-1.64-1.61S105.16,484.72,105.68,484.72z"/>
	<path class="st118" d="M107.67,481.8c-0.08-0.03,0.61-3.37,0.61-3.37h-5.54c0,0-1.64,0.24-1.64,1.7s1.64,1.64,1.64,1.64
		L107.67,481.8z"/>
	<path class="st128" d="M124.57,497.92c0,0,1.33-1.3,1.33-3.17c0-1.88-1.41-3.09-1.41-3.09h2.43c0,0,1.1,1.71,1.1,3.09
		s-0.94,3.15-0.94,3.15L124.57,497.92z"/>
	<path class="st128" d="M130.12,491.65h9.52l2.32,6.27h-11.65C130.31,497.92,131.85,494.5,130.12,491.65z"/>
	<polygon class="st128" points="98.62,491.68 96.3,497.92 99.04,497.92 101.36,491.61 	"/>
	<path class="st128" d="M118.88,498.9c0,0,3.39-3.31,0.26-8.06c0,0,1.91-0.04,3.28,0.7c0,0,1.36,3.31-0.4,6.74
		C122.01,498.27,121.05,498.93,118.88,498.9z"/>
	<g>
		<path class="st23" d="M119.06,451.63c-17.21-0.05-25.21-4.78-25.21-4.78l0.67,17.74h24.31h0.48h24.31l0.67-17.74
			C144.28,446.85,136.27,451.58,119.06,451.63z"/>
		<path class="st136" d="M144.09,465.09H94.03l-0.72-19.14l0.79,0.46c0.08,0.05,8.12,4.67,24.96,4.71
			c16.84-0.04,24.88-4.66,24.96-4.71l0.79-0.46L144.09,465.09z M95,464.09h48.13l0.62-16.4c-2.41,1.17-10.34,4.4-24.68,4.44h0
			c-14.34-0.04-22.27-3.27-24.68-4.44L95,464.09z"/>
	</g>
	<path d="M143.62,458.41h-49.2c-0.28,0-0.5-0.22-0.5-0.5s0.22-0.5,0.5-0.5h49.2c0.28,0,0.5,0.22,0.5,0.5
		S143.89,458.41,143.62,458.41z"/>
	<path d="M101.97,464.85c-0.26,0-0.48-0.2-0.5-0.46l-1.04-14.69c-0.02-0.28,0.19-0.51,0.46-0.53c0.25-0.01,0.51,0.19,0.53,0.46
		l1.04,14.69c0.02,0.28-0.19,0.51-0.46,0.53C102,464.85,101.98,464.85,101.97,464.85z"/>
	<path d="M119.06,464.76c-0.28,0-0.5-0.22-0.5-0.5v-12.4c0-0.28,0.22-0.5,0.5-0.5s0.5,0.22,0.5,0.5v12.4
		C119.56,464.54,119.33,464.76,119.06,464.76z"/>
	<path d="M110.89,464.75c-0.26,0-0.48-0.21-0.5-0.47l-0.71-12.84c-0.02-0.28,0.2-0.51,0.47-0.53c0.29-0.02,0.51,0.2,0.53,0.47
		l0.71,12.84c0.02,0.28-0.2,0.51-0.47,0.53C110.91,464.75,110.9,464.75,110.89,464.75z"/>
	<path class="st137" d="M148.25,423.01v1.28c0,0-5.85,7.16-28.93,7.16S90,424.33,90,424.33v-1.32
		C90,423.01,122.3,419.53,148.25,423.01z"/>
	<path d="M136.12,464.85c-0.01,0-0.02,0-0.04,0c-0.28-0.02-0.48-0.26-0.46-0.53l1.04-14.69c0.02-0.28,0.28-0.48,0.53-0.46
		c0.28,0.02,0.48,0.26,0.46,0.53l-1.04,14.69C136.6,464.65,136.38,464.85,136.12,464.85z"/>
	<path d="M127.2,464.75c-0.01,0-0.02,0-0.03,0c-0.28-0.01-0.49-0.25-0.47-0.53l0.71-12.84c0.01-0.27,0.26-0.5,0.53-0.47
		c0.28,0.01,0.49,0.25,0.47,0.53l-0.71,12.84C127.68,464.54,127.46,464.75,127.2,464.75z"/>
	<path d="M134.3,445.47c-1.22,2.26,1.1,1.44,1.1,1.44s-1.27-0.06-0.55-1.33c0.72-1.27,3.59,0.88,1.05,2.6
		c-2.54,1.71-9.83-2.37-9.83-2.37s-4.44-2.58-7.02,0.35c-2.57-2.93-7.02-0.35-7.02-0.35s-7.29,4.09-9.83,2.37
		c-2.54-1.71,0.33-3.86,1.05-2.6c0.72,1.27-0.55,1.33-0.55,1.33s2.32,0.83,1.11-1.44c-1.22-2.26-6.46,1.38-2.21,3.7
		c7.54,2.11,17.1,1.97,17.46,1.96c0.35,0.01,9.92,0.15,17.46-1.96C140.77,446.85,135.52,443.2,134.3,445.47z"/>
	<g>
		<ellipse class="st23" cx="103.34" cy="435.58" rx="8.64" ry="7.45"/>
		<path class="st138" d="M103.34,443.54c-5.04,0-9.14-3.57-9.14-7.95s4.1-7.95,9.14-7.95c5.04,0,9.14,3.57,9.14,7.95
			S108.38,443.54,103.34,443.54z M103.34,428.63c-4.49,0-8.14,3.12-8.14,6.95c0,3.83,3.65,6.95,8.14,6.95
			c4.49,0,8.14-3.12,8.14-6.95C111.48,431.75,107.83,428.63,103.34,428.63z"/>
	</g>
	<g>
		<ellipse class="st23" cx="135.29" cy="435.58" rx="8.64" ry="7.45"/>
		<path class="st138" d="M135.29,443.54c-5.04,0-9.14-3.57-9.14-7.95s4.1-7.95,9.14-7.95c5.04,0,9.14,3.57,9.14,7.95
			S140.33,443.54,135.29,443.54z M135.29,428.63c-4.49,0-8.14,3.12-8.14,6.95c0,3.83,3.65,6.95,8.14,6.95
			c4.49,0,8.14-3.12,8.14-6.95C143.43,431.75,139.78,428.63,135.29,428.63z"/>
	</g>
	<g>
		<circle class="st139" cx="103.02" cy="435.25" r="4.16"/>
		<path class="st140" d="M103,434.76c1.65,0,3.05,0.96,3.73,2.35c0.27-0.55,0.43-1.16,0.43-1.81c0-2.3-1.86-4.16-4.16-4.16
			c-2.3,0-4.16,1.86-4.16,4.16c0,0.65,0.16,1.26,0.43,1.81C99.94,435.72,101.35,434.76,103,434.76z"/>
		<circle cx="103.02" cy="435.25" r="1.98"/>
		<circle class="st23" cx="102.08" cy="433.39" r="1.04"/>
	</g>
	<g>
		<circle class="st139" cx="135.56" cy="435.25" r="4.16"/>
		<path class="st140" d="M135.54,434.76c1.65,0,3.05,0.96,3.73,2.35c0.27-0.55,0.43-1.16,0.43-1.81c0-2.3-1.86-4.16-4.16-4.16
			c-2.3,0-4.16,1.86-4.16,4.16c0,0.65,0.16,1.26,0.43,1.81C132.48,435.72,133.89,434.76,135.54,434.76z"/>
		<circle cx="135.56" cy="435.25" r="1.98"/>
		<circle class="st23" cx="134.62" cy="433.39" r="1.04"/>
	</g>
	<path class="st131" d="M90.02,423.36c0,0,12.59-6.11,29.12-6.11s29.12,6.11,29.12,6.11s-9.94,4.56-29.12,4.56
		S90.02,423.36,90.02,423.36z"/>
	<path class="st133" d="M94,423.95c0,0,11.63,3.75,30.7,3.09l-0.77-8.91c0,0-7.91-1.36-19.25,1.18L94,423.95z"/>
	<polygon class="st141" points="104.23,426.16 111.37,418.21 114.79,417.88 112.47,426.9 	"/>
	<path class="st141" d="M94,423.95c0,0,8.95,3.35,25.14,3.35s26.41-3.86,26.41-3.86s-11.96,2.93-26.41,2.93S94,423.95,94,423.95z"/>
	<path class="st137" d="M114.32,440.7c0,0,1.58,2.87,4.82,2.87s5.12-2.87,5.12-2.87l-5.12-3.06L114.32,440.7z"/>
	<g>
		<path class="st142" d="M119.4,430.58c0,0-1.22,0.07-3.46,0.85l-1.62,9.28c0,0,1.33,1.36,5.08,1.36V430.58z"/>
		<path class="st143" d="M119.17,430.58c0,0,1.22,0.07,3.46,0.85l1.62,9.28c0,0-1.33,1.36-5.08,1.36V430.58z"/>
	</g>
	<path class="st23" d="M119.65,441.99l-0.48-11.41l-1.47,11.34C117.7,441.91,118.99,442.14,119.65,441.99z"/>
	<path class="st134" d="M147.19,466.47l-0.66,12.85c0,0-0.74,7.4-7.03,12.26h-2.72c0,0,7.4-6.11,7.55-13.1l-0.4-10.75L147.19,466.47
		z"/>
	<polygon class="st134" points="137.91,498.01 141.96,497.92 146.16,509.35 144.28,508.54 	"/>
	<path class="st134" d="M148.25,423.36l1.36-46.89c0,0,0.07-1.46-5.01-2.84c0,0,3.31,1.55,3.64,3.48c0,0-0.94,44.34-1.16,44.34
		s-14.06-4.2-27.96-4.2C119.14,417.25,133.51,418.82,148.25,423.36z"/>
	
		<ellipse transform="matrix(0.866 -0.5 0.5 0.866 -164.8584 106.1648)" class="st144" cx="115.68" cy="360.71" rx="4.25" ry="3.37"/>
	<path class="st145" d="M114.16,466.67c0,0-1.61-0.5-2.06,2.37c-0.44,2.87-2.17,13.09-1.61,13.09c0.56,0,4.28-8.17,4.73-7.51
		c0.44,0.66,4.89,12.2,5.45,10.27s0.56-16.9,0.06-17.28c-0.5-0.39-2.45,9.44-2.78,9c-0.33-0.44-1.67-8.83-2.11-8.94
		c-0.44-0.11-3.06,8.72-3.28,8.39C112.32,475.72,114.16,466.67,114.16,466.67z"/>
	<path class="st145" d="M127.19,479.1c-0.04-0.33-1.12-11.88-0.69-11.6c0.43,0.28,1.92,6.94,2.34,7c0.43,0.06-0.05-7.33,0.37-7.27
		c0.43,0.06,3.3,13.71,3.3,13.71s0.11,1.11-0.59,0.89c-0.69-0.22-2.5-4.16-2.5-4.16l-1.17,2.05
		C128.25,479.71,127.35,480.55,127.19,479.1z"/>
	<path class="st146" d="M126.72,479.64c0,0-1.05-12.2-2.48-12.37c-1.44-0.17-1.33,13.36-2.76,18.06
		C121.47,485.33,122.63,485.39,126.72,479.64z"/>
	<path class="st146" d="M111.2,481.96l3.81-6.52c0,0,0.11,3.64-0.44,4.42S111.2,481.96,111.2,481.96z"/>
	<path class="st146" d="M129.92,467.39l3.04,14.69c0,0,0.55,0.5,0.22-1.71c-0.33-2.21-2.15-12.04-2.15-12.04
		S130.86,467.55,129.92,467.39z"/>
	<path class="st146" d="M117.94,475.23c0-0.17-1.93-8.17-1.55-8.34c0.39-0.17,1.93,1.77,2.04,2.26
		C118.55,469.65,117.94,475.23,117.94,475.23z"/>
	<path class="st147" d="M106.4,417.14l-1.66-42.85c0,0,6.07-0.44,8.39-0.44l0.74,42.15C113.87,416,108.61,416.48,106.4,417.14z"/>
	<path class="st147" d="M80.45,446.41l2.13,31.21c0,0,1.33,0.88,1.33,0.59c0-0.29-1.55-32.02-1.55-32.02L80.45,446.41z"/>
	<polygon class="st147" points="151.42,479.76 152.38,446.26 154.36,446.11 152.74,478.8 	"/>
	<path class="st147" d="M94.36,471.58c0,0-1.55,15.02,7.73,18.04c0,0-6.26-2.65-6.04-17.37L94.36,471.58z"/>
	<path class="st124" d="M94.59,507.22c0.15-0.29,3.68-8.02,3.68-8.02h14.5L94.59,507.22z"/>
	<polygon class="st124" points="124.55,500.44 125.51,498.97 142,507.14 	"/>
	<polygon class="st126" points="102.02,492.12 100.47,497.42 110.19,497.42 110.93,492.2 	"/>
	<polygon class="st127" points="101.65,497.35 103.12,492.2 105.11,492.2 104.16,497.35 	"/>
	<circle class="st127" cx="105.52" cy="486.27" r="1.21"/>
	<circle class="st127" cx="103.09" cy="480.01" r="1.21"/>
	<path d="M119.6,354.75c3.82,0,7.2,1.85,9.31,4.7c-0.02-0.08-0.03-0.12-0.03-0.12c0.08,0.12,0.14,0.25,0.22,0.37
		c1.32,1.88,2.1,4.17,2.1,6.64c0,0.44-0.03,0.87-0.08,1.29c-0.19,1.92-0.8,3.39-1.21,4.18c10.75,0.6,19.43,2.11,19.64,4.56
		c0.01,0.06,0.01,0.09,0.01,0.09l-1.36,46.95v0.86c0,0-0.01,0.01-0.03,0.03l-0.04,1.21l-0.54,19.17c1.94-0.55,5.06-0.83,8.17-0.83
		c5.08,0,10.15,0.74,10.15,2.21l-4.31,49.36c0,0,0.01,0.05-0.03,0.14c-0.12,0.32-0.63,0.58-1.4,0.78c1.03,1.29,1.65,2.93,1.65,4.71
		c0,4.18-3.39,7.56-7.56,7.56s-7.56-3.39-7.56-7.56c0-1.37,0.37-2.65,1.01-3.76c0.21-0.46,0.41-0.8,0.54-1.01
		c-0.04-0.01-0.07-0.03-0.11-0.04c-1.32-0.43-1.22-0.93-1.22-0.93l-0.28-9.22l0,0c0,0,0.02-0.02,0.03-0.03v0
		c-0.01,0.01-0.03,0.04-0.03,0.04l0,0v-1.04l-0.16-5.96c-0.01,0.05-0.01,0.1-0.02,0.15l0,0.06c0,0-0.06,0.56-0.27,1.45
		c-0.94,4.36-3.34,8.15-6.63,10.82l6.64,17.76h-8.84l-1.09,7.82l-1.92,15.22l4.05,6.41c-2.18,1.37-5,1.83-7.78,1.83
		c-5.56,0-10.99-1.83-10.99-1.83s0.08-19.17,0.06-29.45h-1.82c-0.02,10.27,0.06,29.45,0.06,29.45s-5.43,1.83-10.99,1.83
		c-2.78,0-5.6-0.46-7.78-1.83l4.05-6.41l-1.92-15.22l-1.09-7.82h-8.25l6.54-17.49l0.07-0.18h0l0.03-0.09
		c-4.01-3.25-6.68-8.15-7.02-13.71l-0.19,7.19v1.04c0,0-0.02-0.02-0.03-0.04v0c0.01,0.01,0.03,0.03,0.03,0.03l-0.28,9.22
		c0,0,0.1,0.5-1.22,0.93c-0.04,0.01-0.07,0.03-0.11,0.04c0.13,0.2,0.33,0.55,0.54,1.01c0.64,1.11,1,2.39,1,3.76
		c0,4.18-3.39,7.56-7.56,7.56s-7.56-3.39-7.56-7.56c0-1.78,0.62-3.42,1.66-4.71c-0.77-0.2-1.28-0.46-1.4-0.78
		c-0.04-0.09-0.03-0.14-0.03-0.14l-4.31-49.36c0-1.47,5.08-2.21,10.16-2.21c3.19,0,6.38,0.29,8.31,0.87l-0.59-20.36
		c-0.03-0.03-0.05-0.05-0.05-0.05v-1.32c0,0,0.01,0,0.01,0l-1.35-46.54c0-2.58,9.36-4.15,20.75-4.7c-0.52-0.99-0.91-2.06-1.13-3.19
		c-0.18-0.73-0.22-1.23-0.22-1.23s0.02,0.06,0.06,0.14c-0.04-0.37-0.06-0.75-0.06-1.13C108,359.94,113.19,354.75,119.6,354.75
		 M119.6,351.75c-8.05,0-14.6,6.55-14.6,14.59c0,0.22,0.01,0.44,0.02,0.67c-0.02,0.19-0.02,0.39,0,0.59
		c0.01,0.11,0.06,0.65,0.23,1.41c-4.43,0.32-8.23,0.81-11.15,1.41c-2.54,0.53-8.49,1.77-8.49,6.05c0,0.03,0,0.06,0,0.09l1.34,46.33
		c0,0.04,0,0.08,0,0.12v1.32c0,0.2,0.02,0.4,0.06,0.6l0.47,16.2c-2.11-0.23-4.14-0.26-5.21-0.26c-2.85,0-5.53,0.22-7.55,0.61
		c-1.39,0.27-5.6,1.08-5.6,4.6c0,0.09,0,0.17,0.01,0.26l4.3,49.26c0.02,0.39,0.11,0.77,0.27,1.14c0.07,0.17,0.15,0.33,0.24,0.48
		c-0.48,1.22-0.73,2.53-0.73,3.85c0,5.83,4.74,10.56,10.56,10.56c1.94,0,3.75-0.52,5.31-1.44c0.09,0.3,0.23,0.6,0.41,0.86
		c0.56,0.81,1.48,1.29,2.46,1.29h5.64l0.73,5.23l1.78,14.11l-3.47,5.49c-0.43,0.67-0.57,1.49-0.39,2.27
		c0.18,0.78,0.65,1.45,1.33,1.88c2.42,1.52,5.57,2.29,9.38,2.29c5.6,0,10.98-1.67,11.84-1.95c0.86,0.28,6.24,1.95,11.84,1.95
		c3.8,0,6.96-0.77,9.38-2.29c0.67-0.42,1.15-1.1,1.33-1.88c0.18-0.78,0.04-1.59-0.39-2.27l-3.47-5.49l1.78-14.16l0.73-5.19h6.23
		c0.98,0,1.9-0.48,2.46-1.29c0.17-0.25,0.3-0.52,0.39-0.8c1.54,0.87,3.31,1.37,5.2,1.37c5.83,0,10.56-4.74,10.56-10.56
		c0-1.32-0.25-2.63-0.73-3.85c0.09-0.15,0.17-0.31,0.24-0.48c0.16-0.37,0.25-0.75,0.26-1.14l4.3-49.26
		c0.01-0.09,0.01-0.17,0.01-0.26c0-2.24-1.36-5.21-13.15-5.21c-1.81,0-3.53,0.09-5.07,0.25l0.44-15.5l0.02-0.85
		c0.02-0.16,0.04-0.31,0.04-0.47v-0.82l1.36-46.91c0-0.03,0-0.06,0-0.09c0-0.16-0.01-0.33-0.04-0.5c-0.33-2.88-3.05-5.65-18.58-6.88
		c0.07-0.37,0.12-0.76,0.16-1.16c0.06-0.53,0.09-1.06,0.09-1.58c0-2.96-0.89-5.82-2.57-8.26l-0.01-0.02
		c-0.07-0.13-0.15-0.26-0.24-0.39c-0.15-0.23-0.33-0.43-0.52-0.6C128.09,353.73,123.94,351.75,119.6,351.75L119.6,351.75z
		 M94.12,495l0.1-3.44c0.27,0.31,0.56,0.6,0.85,0.89L94.12,495L94.12,495z M143.09,492.45c0.25-0.25,0.49-0.5,0.72-0.76l0.09,2.93
		L143.09,492.45L143.09,492.45z"/>
</g>
</svg>
