<svg version="1.1" id="ALL" xmlns="http://www.w3.org/2000/svg" xmlns:xlink="http://www.w3.org/1999/xlink" x="0px" y="0px"
	 viewBox="0 0 510.24 595.28" style="enable-background:new 0 0 510.24 595.28;" xml:space="preserve">
<style type="text/css">
	.st0{fill:#5D2D16;}
	.st1{fill:#7A3A2B;}
	.st2{fill:#C5743C;}
	.st3{fill:#C37D46;}
	.st4{fill:#526D32;}
	.st5{fill:#639916;}
	.st6{opacity:0.5;}
	.st7{fill:#83C121;}
	.st8{fill:#BAAB3F;}
	.st9{fill:#A57044;}
	.st10{fill:#B78253;}
	.st11{fill:#7F5038;}
	.st12{fill:#DA211E;}
	.st13{fill:#A80000;}
	.st14{fill:#F42A2A;}
	.st15{fill:#720000;}
	.st16{fill:#E5E7EA;}
	.st17{fill:#CBC8C3;}
	.st18{fill:#B2ACA4;}
	.st19{fill:#B2B6B7;}
	.st20{fill:#E88D0A;}
	.st21{fill:#963600;}
	.st22{fill:#FFD664;}
	.st23{fill:#FFFFFF;}
	.st24{fill:#510E0E;}
	.st25{fill:#D1B8A1;}
	.st26{fill:#3F4042;}
	.st27{fill:#EFEEED;}
	.st28{fill:#965632;}
	.st29{fill:#9E7954;}
	.st30{fill:#C69F6B;}
	.st31{fill:#B7AFA7;}
	.st32{fill:#84330F;}
	.st33{fill:#B3B0A1;}
	.st34{fill:#663E1D;}
	.st35{fill:#AA5B21;}
	.st36{fill:#682A00;}
	.st37{fill:#CC0000;}
	.st38{fill:#880000;}
	.st39{fill:#1BBDEF;}
	.st40{fill:#83FFFF;}
	.st41{fill:#D7FFFE;}
	.st42{fill:#C6541A;}
	.st43{fill:#8C3610;}
	.st44{fill:#D86C00;}
	.st45{fill:#F2790A;}
	.st46{fill:#F2B30A;}
	.st47{fill:#1A2B0E;}
	.st48{fill:#F78F1E;}
	.st49{fill:#FFD683;}
	.st50{fill:#FFBD48;}
	.st51{fill:#87FFFF;}
	.st52{fill:#FFCC00;}
	.st53{fill:#5B1E06;}
	.st54{fill:#30541A;}
	.st55{fill:#35720E;}
	.st56{fill:#9E3612;}
	.st57{fill:#48AA09;}
	.st58{fill:#FFA200;}
	.st59{fill:#C1006A;}
	.st60{fill:#7B2322;}
	.st61{fill:#D30056;}
	.st62{fill:#680E37;}
	.st63{fill:#7C193A;}
	.st64{fill:#FF2C72;}
	.st65{fill:#FF5A8D;}
	.st66{fill:#FF48D6;}
	.st67{fill:#FF6D9F;}
	.st68{fill:#E88725;}
	.st69{fill:#E8B425;}
	.st70{fill:#FFD15F;}
	.st71{fill:#893A28;}
	.st72{fill:#FFFF42;}
	.st73{fill:#2C7A3C;}
	.st74{fill:#295B31;}
	.st75{fill:#3BC458;}
	.st76{fill:#5E4031;}
	.st77{fill:#605F33;}
	.st78{fill:#82804A;}
	.st79{fill:#82533F;}
	.st80{fill:#A06955;}
	.st81{fill:#444332;}
	.st82{fill:#66686B;}
	.st83{fill:#B7AF51;}
	.st84{fill:#47462C;}
	.st85{fill:#C17B5D;}
	.st86{fill:#FFD346;}
	.st87{fill:#F7A800;}
	.st88{fill:#ED7601;}
	.st89{fill:#FFE18D;}
	.st90{fill:#FFB857;}
	.st91{fill:#8B9BAF;}
	.st92{fill:#9DC2EA;}
	.st93{fill:#AA0000;}
	.st94{fill:#EF7F22;}
	.st95{fill:#C17E3A;}
	.st96{fill:#82562E;}
	.st97{fill:#542906;}
	.st98{fill:#CE6B13;}
	.st99{fill:#FF9536;}
	.st100{fill:#FFD55F;}
	.st101{fill:#A85007;}
	.st102{fill:#E29652;}
	.st103{fill:#FFA861;}
	.st104{fill:#FF0000;}
	.st105{fill:#5DE7FF;}
	.st106{fill:#32323A;}
	.st107{fill:#D6CBBF;}
	.st108{fill:#EBE0CE;}
	.st109{fill:#E28F01;}
	.st110{fill:#C94727;}
	.st111{fill:#7A2413;}
	.st112{fill:#3B454C;}
	.st113{fill:#5B676D;}
	.st114{fill:#DD5D05;}
	.st115{fill:#FF8939;}
	.st116{fill:#FFF6E9;}
	.st117{fill:#FFCE00;}
	.st118{fill:#C59648;}
	.st119{fill:#936135;}
	.st120{fill:#FCB072;}
	.st121{fill:#CC7E52;}
	.st122{fill:#8E624C;}
	.st123{fill:#AC1212;}
	.st124{fill:#E5231A;}
	.st125{fill:#318D8A;}
	.st126{fill:#F4A32C;}
	.st127{fill:#FFC06C;}
	.st128{fill:#B5720F;}
	.st129{fill:#FFD1AE;}
	.st130{fill:#C4CCCE;}
	.st131{fill:#1F2023;}
	.st132{fill:#E3E5E5;}
	.st133{fill:#3F4144;}
	.st134{fill:#7C0D0D;}
	.st135{fill:#AEB7BA;}
	.st136{fill:#8A909E;}
	.st137{fill:#AA7B57;}
	.st138{fill:#B78570;}
	.st139{fill:#6E7E8E;}
	.st140{fill:#4B5D6B;}
	.st141{fill:#76797C;}
	.st142{fill:#FFCEA9;}
	.st143{fill:#BF744F;}
	.st144{fill:#FCC068;}
	.st145{fill:#D7DFE2;}
	.st146{fill:#7A8E93;}
	.st147{fill:#FF6161;}
	.st148{fill:#EFD5B6;}
	.st149{fill:#505356;}
	.st150{fill:#AAAAAA;}
	.st151{fill:#8E7C6F;}
	.st152{fill:#747B84;}
	.st153{fill:#EDD5C0;}
	.st154{fill:#A0805A;}
	.st155{fill:#725D46;}
	.st156{fill:#AA6333;}
	.st157{fill:#DBC09E;}
	.st158{fill:#6D4029;}
	.st159{fill:#826341;}
	.st160{fill:#E08032;}
	.st161{fill:#AF520C;}
	.st162{fill:#891313;}
	.st163{fill:#B73030;}
	.st164{fill:#E84242;}
	.st165{fill:#562708;}
	.st166{fill:#FFBE71;}
	.st167{fill:#603429;}
	.st168{fill:#FFA124;}
	.st169{fill:#696C70;}
	.st170{fill:#50555B;}
	.st171{fill:#8C9196;}
	.st172{fill:#E0E0E0;}
	.st173{fill:#FF4A4A;}
	.st174{fill:#607F91;}
	.st175{fill:#C3D3DD;}
	.st176{fill:#8BA1AF;}
	.st177{fill:#60A0BA;}
	.st178{fill:#6088AD;}
	.st179{fill:#4A7493;}
	.st180{fill:#696389;}
	.st181{fill:#4663A3;}
	.st182{fill:#AEE6FF;}
	.st183{fill:#54A7CC;}
	.st184{fill:#4BB9E0;}
	.st185{fill:#4F4B75;}
	.st186{fill:#542E15;}
	.st187{fill:#6D3516;}
	.st188{fill:#68472B;}
	.st189{fill:#AF6D37;}
	.st190{fill:#3A2E2C;}
	.st191{fill:#663418;}
	.st192{fill:#915436;}
	.st193{fill:#B57255;}
	.st194{fill:#F28B3D;}
	.st195{fill:#56829B;}
	.st196{fill:#85B5D6;}
	.st197{fill:#B7D8EA;}
	.st198{fill:#3B6375;}
	.st199{fill:#5C6466;}
	.st200{fill:#FF5A20;}
	.st201{fill:#37454F;}
	.st202{fill:#202528;}
	.st203{fill:#566772;}
	.st204{fill:#69838E;}
	.st205{fill:#415156;}
	.st206{fill:#8E999B;}
	.st207{fill:#FF9A7B;}
	.st208{fill:#5B4F49;}
	.st209{fill:#6B5146;}
	.st210{fill:#924B2F;}
	.st211{fill:#A56F5B;}
	.st212{fill:#6B4A40;}
	.st213{fill:#FFD469;}
	.st214{fill:#7D8389;}
	.st215{fill:#B3B5BC;}
	.st216{fill:#92C6EA;}
	.st217{fill:#D3A12F;}
	.st218{fill:#3353A3;}
	.st219{fill:#2D4068;}
	.st220{fill:#09425B;}
	.st221{fill:#FF4800;}
	.st222{fill:#32697C;}
	.st223{fill:#A8E0EF;}
	.st224{fill:#71C0DB;}
	.st225{fill:#6089C6;}
	.st226{fill:#009311;}
	.st227{fill:#08FF2E;}
	.st228{fill:#536D54;}
	.st229{fill:#C84229;}
	.st230{fill:#FF4229;}
	.st231{fill:#C85529;}
	.st232{fill:#FF5529;}
	.st233{fill:#B96829;}
	.st234{fill:#FF6829;}
	.st235{fill:#A48929;}
	.st236{fill:#FF8929;}
	.st237{fill:#A4CC29;}
	.st238{fill:#FFCC29;}
	.st239{fill:#00CE31;}
	.st240{fill:#A1CE31;}
	.st241{fill:#FFFF2E;}
	.st242{fill:#BBEDFF;}
	.st243{fill:#A9E7FF;}
	.st244{fill:#475572;}
	.st245{fill:#FF680C;}
	.st246{fill:#FFFF0C;}
	.st247{fill:#348AA5;}
	.st248{fill:#16638E;}
	.st249{opacity:0.15;fill:#FFFF0C;}
	.st250{opacity:0.15;fill:#71F0DC;}
	.st251{opacity:0.3;fill:#71F0DC;}
	.st252{fill:#80A9B2;}
	.st253{fill:#88E6FF;}
	.st254{fill:#5376A0;}
	.st255{fill:#6D9DCC;}
	.st256{fill:#90B4D3;}
	.st257{fill:#B7B4A7;}
	.st258{fill:#20314F;}
	.st259{fill:#FFD808;}
	.st260{fill:#CCCC6E;}
	.st261{fill:#A5C2D3;}
	.st262{fill:#FF8710;}
	.st263{fill:#C45800;}
	.st264{fill:#2791CC;}
	.st265{fill:#A01717;}
	.st266{fill:#E51717;}
	.st267{fill:#C90D0D;}
	.st268{fill:#FF7171;}
	.st269{fill:#FFB428;}
	.st270{fill:#BC0F0F;}
	.st271{fill:#F76A00;}
	.st272{fill:#C14000;}
	.st273{fill:#AA2800;}
	.st274{fill:#FFAB31;}
	.st275{fill:#F7C27C;}
	.st276{fill:#560D0D;}
	.st277{fill:#960202;}
	.st278{fill:#700F0F;}
	.st279{fill:#CC5200;}
	.st280{fill:#951717;}
	.st281{fill:#71F0DC;}
	.st282{opacity:0.37;fill:#FFFFFF;}
	.st283{opacity:0.5;fill:#A7FFFF;}
	.st284{fill:#FFEB38;}
	.st285{fill:#304777;}
	.st286{fill:#03EDFF;}
	.st287{opacity:0.3;}
	.st288{opacity:0.2;}
	.st289{fill:#74A1B5;}
	.st290{fill:#33F5FF;}
	.st291{opacity:0.3;fill:#33F5FF;}
	.st292{fill:#99FFFF;}
	.st293{fill:#FCF9D9;}
	.st294{fill:#546077;}
	.st295{fill:#E5E1A8;}
	.st296{fill:#478461;}
	.st297{fill:#D3B5A5;}
	.st298{fill:#DE4400;}
	.st299{fill:#F77991;}
	.st300{fill:#FFDCE0;}
	.st301{fill:#663E20;}
	.st302{fill:#9B5D3B;}
	.st303{fill:#3F2D27;}
	.st304{fill:#DBB06B;}
	.st305{fill:#AF834F;}
	.st306{fill:#493B33;}
	.st307{fill:#81574A;}
	.st308{fill:#CC9933;}
	.st309{fill:#FFFF93;}
	.st310{fill:#D1993F;}
	.st311{fill:#D1AA66;}
	.st312{opacity:0.2;fill:#FFFF93;}
	.st313{opacity:0.1;fill:#FFFF93;}
	.st314{opacity:0.1;fill:#FFFF89;}
	.st315{opacity:0.7;}
	.st316{fill:#BC874D;}
	.st317{opacity:0.4;fill:#444951;}
	.st318{opacity:0.3;fill:#373944;}
	.st319{fill:#775742;}
	.st320{opacity:0.5;fill:#444951;}
	.st321{fill:#969436;}
	.st322{fill:#4C3529;}
	.st323{fill:#D8A355;}
	.st324{fill:#FFD578;}
	.st325{opacity:0.4;fill:#FFD578;}
	.st326{fill:#A79253;}
	.st327{fill:#CBAC4E;}
	.st328{fill:#5E4F2A;}
	.st329{opacity:0.6;fill:#52575E;}
	.st330{fill:#E5CF4A;}
	.st331{opacity:0.6;}
	.st332{fill:#444951;}
	.st333{fill:#1D1D1D;}
	.st334{fill:#1D1D1B;}
	.st335{fill:#D38C54;}
	.st336{fill:#B4FFFF;}
	.st337{opacity:0.4;fill:#FFFFFF;}
	.st338{opacity:0.7;fill:#7A3A2B;}
	.st339{fill:#D3AF85;}
	.st340{fill:#F9CB9D;}
	.st341{opacity:0.6;fill:#5D2D16;}
	.st342{opacity:0.29;fill:#5D2D16;}
	.st343{fill:#4F3220;}
	.st344{fill:#775542;}
	.st345{fill:#E2C54C;}
	.st346{fill:#F2E8B3;}
	.st347{fill:#F7F8F6;}
	.st348{fill:#976616;}
	.st349{fill:#6F3B0C;}
	.st350{fill:#5A0C0C;}
	.st351{opacity:0.44;}
	.st352{opacity:0.46;fill:#350B00;}
	.st353{fill:#B1B4B9;}
	.st354{fill:#B1B4A5;}
	.st355{fill:#C9CACC;}
	.st356{fill:#E9EAEC;}
	.st357{opacity:0.5;fill:#E9EAEC;}
	.st358{opacity:0.4;fill:#E9EAEC;}
	.st359{opacity:0.7;fill:#FFFFFF;}
	.st360{opacity:0.5;fill:#FFFFFF;}
</style>
<path class="st218" d="M344.78,424.1H160.29c-1.56,0-2.83-1.28-2.83-2.83V214.69c0-1.56,1.28-2.83,2.83-2.83h184.49
	c1.56,0,2.83,1.28,2.83,2.83v206.58C347.62,422.82,346.34,424.1,344.78,424.1z"/>
<path class="st219" d="M157.53,254.55h8.54l11.48,21.35c0,0,0.74,1.77,4.86,1.77l-3.39,20.91l-13.99-8.69l0.88,15.61l-8.39-3.24
	v90.7h117.2V238.5h-35.34v73.91l-5.01,0.59l2.36-7.21c0,0-8.25,2.65-8.39,2.06c-0.15-0.59,2.06-18.4,2.06-18.4l-14.58,10.01
	l-4.86-20.47c0,0,3.39-0.15,5.15-3.09l11.48-21.5h60.37v-27.24H157.82L157.53,254.55z"/>
<path d="M313.68,211.26c0.08,0,0.2,0.01,0.35,0.02c1.29,0.05,2.51,0.37,3.6,0.9c2.04,0.87,4.19,2.55,4.83,5.71h17.7
	c4.27,0,8.51,0.59,12.61,1.77l-0.07,0.04c1.56,0,2.83,1.28,2.83,2.83v22.6c0,0.52-0.15,1.01-0.4,1.43V389.1
	c0.18,0.24,0.29,0.53,0.29,0.85v12.16c0.06,0.24,0.11,0.48,0.11,0.74v10.56c0,1.56-1.28,2.83-2.83,2.83h0.26
	c-4.1,1.17-8.35,1.77-12.61,1.77h-62.96h-49.07h-62.96c-4.27,0-8.51-0.59-12.61-1.77c-1.56,0-2.83-1.28-2.83-2.83v-10.56
	c0-0.38,0.08-0.75,0.22-1.08l0-0.02l6.55-11.82c0.18-0.7,1.02-1.4,1.8-1.4h3.87l2.46-5.96l-5.74,0.44l4.97-12.7l-6.52,1.88
	l3.31-8.72l-11.71,0.66l11.37-14.91l-7.84-1.88l6.63-5.96l-7.95-5.96l6.85-3.86l-9.72-13.03l18,0.22l-1.77-6.74l7.62,1.44
	l-1.66-13.91l11.6,7.51c0,0,0,0,0,0c0.29,0,3.75-19.28,5.15-27.17h-0.52v-6.18h-1.46c-1.15,0-2.19-0.64-2.68-1.64l-11.82-24.09
	h-18.2c-1.56,0-2.83-1.28-2.83-2.83v-22.6c0-1.56,1.28-2.83,2.83-2.83v-0.04c4.1-1.17,8.35-1.77,12.61-1.77h111.63
	c0.27-0.98,0.7-1.89,1.26-2.7c0.69-1.05,1.67-2.06,3.07-2.79c0.03-0.02,0.05-0.03,0.08-0.05c0.08-0.04,0.16-0.08,0.25-0.12
	c1.22-0.61,2.6-0.97,4.05-0.97H313.68 M211.42,307.6C211.42,307.6,211.42,307.6,211.42,307.6l11.6-7.51L221.36,314l7.62-1.44
	l-1.77,6.74l16.45-0.2v-71.14H223.4l-11.82,24.09c-0.49,1-1.54,1.64-2.68,1.64h-2.45v6.18h-0.28
	C207.5,287.38,211.12,307.6,211.42,307.6 M243.66,363.53v-42.38l-8.17,10.96l6.85,3.87l-7.95,5.96l6.63,5.96l-7.84,1.88
	L243.66,363.53 M236.16,372.75l-6.52-1.88l4.97,12.7l-5.74-0.44l2.23,5.41h12.57v-23.9l-10.82-0.61L236.16,372.75 M313.68,208.26
	H285.7c-1.87,0-3.68,0.43-5.37,1.27c-0.12,0.06-0.21,0.1-0.3,0.15c-0.02,0.01-0.04,0.02-0.06,0.03c-0.04,0.02-0.08,0.05-0.13,0.07
	c-1.69,0.9-3.06,2.16-4.1,3.74c-0.3,0.44-0.57,0.9-0.81,1.37H165.36c-4.5,0-8.98,0.62-13.31,1.84c-2.89,0.34-5.14,2.81-5.14,5.79
	v22.6c0,3.22,2.62,5.83,5.83,5.83h16.33l11,22.41c0.76,1.55,2.18,2.68,3.83,3.12v3.39c0,0.43,0.09,0.84,0.25,1.21
	c-1.89,10.59-3.14,17.32-3.87,21.1l-7.98-5.17c-0.5-0.32-1.06-0.48-1.63-0.48c-0.55,0-1.1,0.15-1.59,0.45
	c-0.99,0.62-1.53,1.75-1.39,2.9l1.17,9.85l-3.6-0.68c-0.19-0.03-0.37-0.05-0.56-0.05c-0.82,0-1.62,0.34-2.19,0.95
	c-0.7,0.75-0.97,1.81-0.71,2.81l0.77,2.93l-14.06-0.17c-0.01,0-0.02,0-0.04,0c-1.13,0-2.16,0.63-2.67,1.64
	c-0.52,1.02-0.41,2.24,0.27,3.16l7.68,10.3l-3.88,2.19c-0.88,0.5-1.45,1.41-1.52,2.42c-0.07,1.01,0.38,1.99,1.19,2.59l5.03,3.77
	l-3.91,3.52c-0.83,0.75-1.18,1.89-0.9,2.97c0.27,1.08,1.12,1.92,2.21,2.18l3.36,0.8l-8.58,11.24c-0.71,0.93-0.81,2.19-0.27,3.23
	c0.52,0.98,1.54,1.59,2.65,1.59c0.06,0,0.11,0,0.17,0l7.09-0.4l-1.67,4.4c-0.4,1.06-0.17,2.26,0.6,3.1
	c0.58,0.63,1.38,0.97,2.21,0.97c0.28,0,0.56-0.04,0.83-0.12l0.68-0.2l-2.76,7.04c-0.38,0.96-0.23,2.05,0.38,2.88
	c0.26,0.34,0.58,0.62,0.94,0.83c-1.61,0.33-3.08,1.55-3.67,3.08l-6.42,11.59c-0.09,0.17-0.17,0.35-0.23,0.53
	c-0.24,0.65-0.37,1.33-0.37,2.03v10.56c0,3.05,2.36,5.57,5.35,5.81c4.27,1.19,8.67,1.79,13.1,1.79h62.96h49.07h62.96
	c4.5,0,8.97-0.62,13.3-1.84c2.77-0.45,4.89-2.86,4.89-5.76v-10.56c0-0.35-0.04-0.71-0.11-1.08v-11.82c0-0.55-0.1-1.08-0.29-1.58
	V247.24c0.27-0.68,0.4-1.39,0.4-2.11v-22.6c0-2.94-2.18-5.37-5.01-5.78c-4.35-1.24-8.85-1.86-13.37-1.86h-15.54
	c-1.11-2.4-3.08-4.29-5.74-5.44c-1.47-0.7-3.04-1.1-4.68-1.17C313.98,208.27,313.8,208.26,313.68,208.26L313.68,208.26z
	 M225.27,250.96h15.39v65.17l-9.55,0.12l0.77-2.93c0.26-1-0.01-2.05-0.71-2.81c-0.57-0.61-1.37-0.95-2.19-0.95
	c-0.18,0-0.37,0.02-0.56,0.05l-3.6,0.68l1.17-9.85c0.14-1.16-0.41-2.29-1.39-2.9c-0.49-0.3-1.04-0.45-1.59-0.45
	c-0.57,0-1.14,0.16-1.63,0.48l-7.98,5.17c-0.86-4.4-2.29-12.22-4.05-22.09c0.07-0.25,0.1-0.5,0.1-0.77v-3.21
	c2.06-0.19,3.92-1.44,4.83-3.3L225.27,250.96L225.27,250.96z M239.93,331.17l0.73-0.98v1.39L239.93,331.17L239.93,331.17z
	 M239.11,342.15l1.56-1.17v2.57L239.11,342.15L239.11,342.15z M238.35,351.62l2.31-0.55v3.58L238.35,351.62L238.35,351.62z
	 M236.16,375.75c0.83,0,1.63-0.34,2.21-0.97c0.77-0.84,1-2.03,0.6-3.1l-1.67-4.4l3.38,0.19v18.07h-3.79
	c0.05-0.06,0.1-0.12,0.15-0.18c0.61-0.83,0.76-1.92,0.38-2.88l-2.76-7.04l0.68,0.2C235.6,375.71,235.88,375.75,236.16,375.75
	L236.16,375.75z"/>
<rect x="243.66" y="242.33" class="st220" width="3.98" height="150.85"/>
<path class="st221" d="M188.01,276.57c0,0-5.41,30.7-5.74,30.48l-11.6-7.51l1.66,13.91l-7.62-1.44l1.77,6.74l-18-0.22l9.72,13.03
	l-6.85,3.87l7.95,5.96l-6.63,5.96l7.84,1.88l-11.37,14.91l11.71-0.66l-3.31,8.72l6.52-1.88l-4.97,12.7l5.74-0.44l-3.64,8.83h36.99
	l-2.21-115.62C195.96,275.79,191.43,274.91,188.01,276.57z"/>
<path class="st221" d="M205.68,277.12c0,0,5.41,30.7,5.74,30.48l11.6-7.51L221.36,314l7.62-1.44l-1.77,6.74l18-0.22l-9.72,13.03
	l6.85,3.87l-7.95,5.96l6.63,5.96l-7.84,1.88l11.37,14.91l-11.71-0.66l3.31,8.72l-6.52-1.88l4.97,12.7l-5.74-0.44l3.64,8.83h-36.99
	l2.21-115.62C197.73,276.34,202.25,275.46,205.68,277.12z"/>
<rect x="351.15" y="242.33" class="st220" width="3.98" height="150.85"/>
<path class="st222" d="M149.97,402.97l0.17-1.21l6.55-11.82c0.18-0.7,1.02-1.4,1.8-1.4H354c0.78,0,1.42,0.64,1.42,1.42v13.01
	c0,0.78-0.64,1.42-1.42,1.42H151.38C150.6,404.39,149.97,403.75,149.97,402.97z"/>
<path class="st223" d="M151.29,403.14l6.72-12.68c0-0.31,0.64-0.64,0.95-0.64h194.68c0.31,0,0.57,0.26,0.57,0.57v12.76
	c0,0.31-0.26,0.57-0.57,0.57H151.86C151.55,403.7,151.29,403.45,151.29,403.14z"/>
<path class="st222" d="M352.7,247.96H152.74c-1.56,0-2.83-1.28-2.83-2.83v-22.6c0-1.56,1.28-2.83,2.83-2.83H352.7
	c1.56,0,2.83,1.28,2.83,2.83v22.6C355.53,246.69,354.25,247.96,352.7,247.96z"/>
<path class="st224" d="M152.75,246.55c-0.78,0-1.42-0.64-1.42-1.42v-22.6c0-0.78,0.64-1.42,1.42-1.42H352.7
	c0.78,0,1.42,0.64,1.42,1.42v22.6c0,0.78-0.64,1.42-1.42,1.42H152.75z"/>
<path class="st222" d="M352.7,416.26H152.74c-1.56,0-2.83-1.28-2.83-2.83v-10.56c0-1.56,1.28-2.83,2.83-2.83H352.7
	c1.56,0,2.83,1.28,2.83,2.83v10.56C355.53,414.98,354.25,416.26,352.7,416.26z"/>
<path class="st224" d="M152.75,414.84c-0.78,0-1.42-0.64-1.42-1.42v-10.56c0-0.78,0.64-1.42,1.42-1.42H352.7
	c0.78,0,1.42,0.64,1.42,1.42v10.56c0,0.78-0.64,1.42-1.42,1.42H152.75z"/>
<circle class="st225" cx="168.43" cy="234.64" r="7.9"/>
<circle class="st226" cx="168.43" cy="234.64" r="6.48"/>
<circle class="st227" cx="167.87" cy="234.09" r="4.6"/>
<path class="st225" d="M184.07,239.81c-2.34,0-4.25-1.91-4.25-4.25v-1.84c0-2.34,1.91-4.25,4.25-4.25h49.99
	c2.34,0,4.25,1.91,4.25,4.25v1.84c0,2.34-1.91,4.25-4.25,4.25H184.07z"/>
<path class="st228" d="M234.06,238.39h-49.99c-1.56,0-2.83-1.28-2.83-2.83v-1.84c0-1.56,1.28-2.83,2.83-2.83h49.99
	c1.56,0,2.83,1.28,2.83,2.83v1.84C236.89,237.12,235.62,238.39,234.06,238.39z"/>
<path class="st229" d="M187.58,237.84h-2.78c-1.56,0-2.83-1.28-2.83-2.83v-0.74c0-1.56,1.28-2.83,2.83-2.83h2.78
	c1.56,0,2.83,1.28,2.83,2.83v0.74C190.42,236.57,189.14,237.84,187.58,237.84z"/>
<path class="st230" d="M184.81,236.25c-1.09,0-1.98-0.89-1.98-1.98v-0.74c0-1.09,0.89-1.98,1.98-1.98h2.78
	c1.09,0,1.98,0.89,1.98,1.98v0.74c0,1.09-0.89,1.98-1.98,1.98H184.81z"/>
<path class="st231" d="M196.72,237.84h-2.78c-1.56,0-2.83-1.28-2.83-2.83v-0.74c0-1.56,1.28-2.83,2.83-2.83h2.78
	c1.56,0,2.83,1.28,2.83,2.83v0.74C199.55,236.57,198.28,237.84,196.72,237.84z"/>
<path class="st232" d="M193.94,236.25c-1.09,0-1.98-0.89-1.98-1.98v-0.74c0-1.09,0.89-1.98,1.98-1.98h2.78
	c1.09,0,1.98,0.89,1.98,1.98v0.74c0,1.09-0.89,1.98-1.98,1.98H193.94z"/>
<path class="st233" d="M205.85,237.84h-2.78c-1.56,0-2.83-1.28-2.83-2.83v-0.74c0-1.56,1.28-2.83,2.83-2.83h2.78
	c1.56,0,2.83,1.28,2.83,2.83v0.74C208.68,236.57,207.41,237.84,205.85,237.84z"/>
<path class="st234" d="M203.07,236.25c-1.09,0-1.98-0.89-1.98-1.98v-0.74c0-1.09,0.89-1.98,1.98-1.98h2.78
	c1.09,0,1.98,0.89,1.98,1.98v0.74c0,1.09-0.89,1.98-1.98,1.98H203.07z"/>
<path class="st235" d="M214.98,237.84h-2.78c-1.56,0-2.83-1.28-2.83-2.83v-0.74c0-1.56,1.28-2.83,2.83-2.83h2.78
	c1.56,0,2.83,1.28,2.83,2.83v0.74C217.82,236.57,216.54,237.84,214.98,237.84z"/>
<path class="st236" d="M212.2,236.25c-1.09,0-1.98-0.89-1.98-1.98v-0.74c0-1.09,0.89-1.98,1.98-1.98h2.78
	c1.09,0,1.98,0.89,1.98,1.98v0.74c0,1.09-0.89,1.98-1.98,1.98H212.2z"/>
<path class="st237" d="M224.11,237.84h-2.78c-1.56,0-2.83-1.28-2.83-2.83v-0.74c0-1.56,1.28-2.83,2.83-2.83h2.78
	c1.56,0,2.83,1.28,2.83,2.83v0.74C226.95,236.57,225.67,237.84,224.11,237.84z"/>
<path class="st238" d="M221.34,236.25c-1.09,0-1.98-0.89-1.98-1.98v-0.74c0-1.09,0.89-1.98,1.98-1.98h2.78
	c1.09,0,1.98,0.89,1.98,1.98v0.74c0,1.09-0.89,1.98-1.98,1.98H221.34z"/>
<path class="st239" d="M233.25,237.84h-2.78c-1.56,0-2.83-1.28-2.83-2.83v-0.74c0-1.56,1.28-2.83,2.83-2.83h2.78
	c1.56,0,2.83,1.28,2.83,2.83v0.74C236.08,236.57,234.81,237.84,233.25,237.84z"/>
<path class="st240" d="M230.47,236.25c-1.09,0-1.98-0.89-1.98-1.98v-0.74c0-1.09,0.89-1.98,1.98-1.98h2.78
	c1.09,0,1.98,0.89,1.98,1.98v0.74c0,1.09-0.89,1.98-1.98,1.98H230.47z"/>
<circle class="st241" cx="167.14" cy="233.28" r="2.32"/>
<circle class="st23" cx="166.92" cy="232.95" r="1.66"/>
<path class="st242" d="M162.54,240.05c0,0,4.12,4.56,10.6,1.03c0,0,3.61-2.5,3.17-7.14c0,0,1.77,6.77-4.49,9.06
	S162.54,240.05,162.54,240.05z"/>
<path class="st242" d="M151.33,245.13v-22.6c0,0,0.02-1.42,1.42-1.42s199.95,0,199.95,0s1.42-0.06,1.42,1.42H154.07
	c0,0-1.62-0.37-1.62,1.62s0,19.88,0,19.88S152.71,245.13,151.33,245.13z"/>
<path class="st23" d="M152.45,224.15c0,0-0.22-1.62,1.62-1.62c1.84,0,197.08,0,197.08,0c1.08,0,1.08,1.91,0,1.91L152.45,224.15z"/>
<path class="st23" d="M179.82,233.72c0,0,0.09-3.68,4.25-4.25c0,0-2.25-0.9-3.72,0.79C178.88,231.95,179.82,233.72,179.82,233.72z"
	/>
<path class="st23" d="M160.7,232.76c0,0,1.03-4.05,5.45-5.74C166.14,227.02,160.18,226.8,160.7,232.76z"/>
<path class="st243" d="M352.15,246.55c0.47-9.06-105.91-9.06-106.38,0l0,146.23c0.47,13.1,106.85,13.1,106.38,0L352.15,246.55z"/>
<path class="st244" d="M352.29,246.69c0,0-4.71-23.8-32.39-26.74c-0.53-0.11-13.66-1.14-20.91-1.1c-7.25-0.03-20.38,1-20.91,1.1
	c-27.68,2.94-32.39,26.74-32.39,26.74s2.94-6.5,53.3-6.5S352.29,246.69,352.29,246.69z"/>
<ellipse class="st245" cx="299.43" cy="247.41" rx="46.53" ry="3.31"/>
<path class="st246" d="M255.94,246.22c6.67,1.25,23.62,2.14,43.49,2.14s36.82-0.89,43.49-2.14c-6.67-1.25-23.62-2.13-43.49-2.13
	S262.61,244.97,255.94,246.22z"/>
<path class="st23" d="M279.72,244.32c0,0,3.81,3.26,18.99,3.26c15.18,0,18.66-3.26,18.66-3.26S293.97,243.82,279.72,244.32z"/>
<path class="st247" d="M299.1,251.72c-30.73-0.01-43.84-2.21-43.84-2.21l1.32,139.73c6.13-6.13,39.53-5.28,42.41-5.2v0.01
	c0,0,0.04,0,0.11,0c0.07,0,0.11,0,0.11,0v-0.01c2.88-0.08,36.28-0.93,42.4,5.2l1.33-139.73
	C342.94,249.51,329.83,251.71,299.1,251.72z"/>
<path class="st248" d="M265.42,250.61l1,135.04c4.47-1.33,16.17-1.6,32.04-1.6v0.01c0,0,0.03,0,0.08,0c0.05,0,0.08,0,0.08,0v-0.01
	c2.18-0.08,23.6-0.38,32.04,1.33l1-134.76C318.98,252.33,270.44,251.14,265.42,250.61z"/>
<path class="st249" d="M351.33,303.62c-1.08-52.65-42.54-53.31-52.16-52.76c-9.62-0.56-51.08,0.1-52.16,52.76
	c-1.23,59.56-0.05,95.86,49.56,97.55c0.5,0.03,0.99,0.07,1.52,0.07c0.37,0,0.72-0.01,1.09-0.01c0.36,0,0.72,0.01,1.09,0.01
	c0.52,0,1.01-0.04,1.52-0.07C351.38,399.48,352.56,363.18,351.33,303.62z"/>
<path class="st250" d="M299.12,394.95l-1.03,0.01c-0.27,0-0.53-0.02-0.79-0.04c0,0-0.47-0.03-0.52-0.03
	c-20.92-0.71-32.34-7.6-38.19-23.03c-5.9-15.56-5.91-39.04-5.31-68.13c0.84-40.63,27.21-46.7,42.86-46.7c0.92,0,1.82,0.02,2.67,0.07
	c0.12,0.01,0.24,0.01,0.36,0.01c0.12,0,0.24,0,0.36-0.01c0.85-0.05,1.75-0.07,2.67-0.07c15.65,0,42.02,6.07,42.86,46.7
	c0.6,29.08,0.59,52.57-5.31,68.13c-5.85,15.43-17.27,22.32-38.19,23.03c-0.05,0-0.52,0.03-0.52,0.03c-0.26,0.02-0.52,0.04-0.79,0.04
	C300.26,394.96,299.14,394.95,299.12,394.95z"/>
<path class="st250" d="M297.67,388.67c0,0-0.67-0.04-0.74-0.04c-21.24-0.72-28.36-8.11-32.48-18.98c-5.5-14.51-5.49-37.38-4.9-65.78
	c0.69-33.53,20.28-40.56,36.59-40.56c0.81,0,1.58,0.02,2.3,0.06c0.26,0.02,0.5,0.02,0.73,0.02s0.47-0.01,0.7-0.02
	c0.75-0.04,1.53-0.07,2.33-0.07c16.31,0,35.9,7.04,36.59,40.56c0.58,28.4,0.59,51.27-4.9,65.78c-4.12,10.87-11.23,18.26-32.54,18.99
	l-1.09,0.06c-0.25,0-1.12-0.01-1.14-0.01l-1.1,0.01L297.67,388.67z"/>
<path class="st251" d="M297.13,382.37c-19.79-0.67-23.98-7.45-26.82-14.94c-5.1-13.45-5.07-35.72-4.5-63.43
	c0.48-23.16,10.4-34.42,30.33-34.42c0.68,0,1.33,0.02,1.94,0.05c0.4,0.02,0.75,0.03,1.09,0.03c0.35,0,0.7-0.01,1.05-0.03
	c0.65-0.04,1.31-0.06,1.99-0.06c19.93,0,29.85,11.26,30.33,34.42c0.57,27.71,0.6,49.97-4.5,63.43c-2.84,7.49-7.03,14.27-26.89,14.94
	c-0.04,0-1.02,0.06-1.02,0.06l-1-0.01l-0.91,0.01C298.21,382.43,297.2,382.37,297.13,382.37z"/>
<ellipse class="st252" cx="299.6" cy="390.45" rx="50.63" ry="8.94"/>
<path class="st220" d="M298.33,381.45c0,0-44.39,0.06-49.36,9v-2.93C248.97,387.53,251.51,381.45,298.33,381.45z"/>
<path class="st220" d="M300.79,381.45c0,0,44.39,0.06,49.36,9v-2.93C350.16,387.53,347.62,381.45,300.79,381.45z"/>
<path class="st23" d="M248.63,247.08c0,0.33,0,144.48,0,144.48s0.44,7.73,47.71,7.73c0,0-45.39-2.32-45.39-9.28V247.74
	c0,0,1.33-7.18,59.19-7.18C310.14,240.57,248.63,239.13,248.63,247.08z"/>
<path class="st23" d="M350.45,247.08c0,0.33,0,144.48,0,144.48s-0.44,7.73-47.71,7.73c0,0,45.39-2.32,45.39-9.28V247.74
	c0,0-1.33-7.18-59.19-7.18C288.94,240.57,350.45,239.13,350.45,247.08z"/>
<path class="st253" d="M151.27,404.96v-2.1c0,0,0.07-1.42,1.47-1.42s112.05,0,112.05,0l3.24,1.45c0,0-114.63,0.07-114.63,0
	S151.42,402.97,151.27,404.96z"/>
<path class="st254" d="M346,242.26c0,0-5.99-1.92-23.59-2.99c0-13.34-11.33-18.03-16.57-19.55
	C318.37,220.2,339.98,223.78,346,242.26z"/>
<path class="st254" d="M252.78,242.26c0,0,5.99-1.92,23.59-2.99c0-13.34,11.33-18.03,16.56-19.55
	C280.41,220.2,258.8,223.78,252.78,242.26z"/>
<path class="st255" d="M270.8,239.71c16.94-1.14,41.97-1.03,57.62,0.08c0,0,1.21-20.37-29.48-20.37S270.8,239.71,270.8,239.71z"/>
<path class="st255" d="M249.02,243.38c0,0,3.53-1.38,8.01-2.04c0,0-0.33-14.19,23.91-20.21
	C280.93,221.13,257.58,222.57,249.02,243.38z"/>
<path class="st255" d="M349.77,243.38c0,0-3.53-1.38-8.01-2.04c0,0,0.33-14.19-23.91-20.21
	C317.85,221.13,341.21,222.57,349.77,243.38z"/>
<path class="st256" d="M273.56,239.54c0,0-0.52-12.84,10.63-16.32s9.58,15.71,9.58,15.71S284.55,238.94,273.56,239.54z"/>
<path class="st257" d="M324.61,223.23c0,0,17.21,6.42,21.39,19.03c0,0-2.62-0.75-5.27-1.03
	C340.73,241.23,339.96,230.57,324.61,223.23z"/>
<path class="st257" d="M258.24,241.17c0,0-1.79-12.92,23.05-20.15c0,0-23.27,4.09-24.82,20.43L258.24,241.17z"/>
<path class="st23" d="M275.97,236.2c-0.17,0.06,0.06-6.85,5.47-10.71c0,0,1.6,4.36,0.06,10.27
	C279.85,235.82,278.05,235.95,275.97,236.2z"/>
<path class="st23" d="M249.02,243.38l2.18-0.75c0,0,3.51-10.41,13.72-16.65C264.92,225.99,254.24,230.63,249.02,243.38z"/>
<path class="st254" d="M276.65,220.32L276.65,220.32c0-5,4.05-9.06,9.06-9.06h27.98c5,0,9.06,4.05,9.06,9.06l0,0.44
	C306.53,219.22,299.87,218.92,276.65,220.32z"/>
<path class="st258" d="M276.65,220.32c0,0,0.01-8.55,9.06-9.06c7.8,0,26.9,0,27.98,0c1.08,0,8.98,0.81,8.98,8.54
	c0,0-1.77-6.77-10.9-6.77c-9.13,0-24.81,0-24.81,0S279.15,212.15,276.65,220.32z"/>
<path class="st258" d="M276.87,219.66H152.74h0c4.1-1.17,8.35-1.77,12.61-1.77h112.02L276.87,219.66z"/>
<path class="st258" d="M276.87,416.26H152.74h0c4.1,1.17,8.35,1.77,12.61,1.77h112.02L276.87,416.26z"/>
<path class="st258" d="M228.83,416.26h124.12h0c-4.1,1.17-8.35,1.77-12.61,1.77H228.32L228.83,416.26z"/>
<path class="st258" d="M322.59,219.66h30.17l0,0c-4.1-1.17-8.35-1.77-12.61-1.77h-17.81L322.59,219.66z"/>
<path class="st220" d="M246.32,393.4c0,0,5.85,9.17,54.44,9.17s51.86-9.79,51.86-9.79s-4.82,8.8-16.53,8.8c0,0-9.83,9.61-35.34,9.61
	c-25.51,0-38.65-9.5-38.65-9.5S250.29,400.03,246.32,393.4z"/>
<path class="st258" d="M276.65,220.32c15.83-1.95,31.95-1.73,46.09,0C322.73,220.32,302.23,212.33,276.65,220.32z"/>
<path class="st23" d="M151.27,404.96c0,0,0.29-2.06,2.13-2.06h107.85l2.58,1.91L151.27,404.96z"/>
<polygon class="st259" points="222.9,392.81 170.49,392.81 188.89,275.61 204.5,275.61 "/>
<rect x="186.9" y="269.28" class="st258" width="19.55" height="10.6"/>
<path class="st244" d="M208.9,273.69h-23.46c-1.15,0-2.19-0.64-2.68-1.64l-11.98-24.42h52.79l-11.98,24.42
	C211.09,273.05,210.05,273.69,208.9,273.69z"/>
<path class="st255" d="M175.05,253.08c0,0,2.87-3.83,17.52-3.83c14.65,0,20.17,1.86,20.17,1.86l-6.92,21.33h-20.09
	c-0.68,0-1.3-0.39-1.6-1L175.05,253.08z"/>
<path class="st260" d="M212.74,251.11l-6.06,18.68c-0.17,0.52-0.65,0.87-1.19,0.87h-19.39c-0.57,0-1.09-0.3-1.37-0.79l-9.68-16.78
	l9.08,18.37c0,0,0.16,1,1.6,1c1.11,0,14.13,0,20.09,0l2.95,0.07c0.81,0,1.54-0.46,1.9-1.19l8.42-17.4
	C217.74,252.86,214.69,251.71,212.74,251.11z"/>
<path class="st261" d="M189.17,270.6h8.94l2.6-21.2c0,0-11.21-0.55-15.24,0.17L189.17,270.6z"/>
<path class="st261" d="M207.17,272.48h1.61c0,0,1.04,0.44,2.04-1.49l8.28-17.06l-1.93-1.16l-8.01,18.28
	C209.16,271.04,208.6,272.15,207.17,272.48z"/>
<path class="st255" d="M188.39,279.1h16.9c0,0-2.93-3.48-8.67-3.48S188.39,279.1,188.39,279.1z"/>
<path class="st259" d="M238,347.27c0,0-6.64-5.59-7.09-5.73c-0.45-0.14,8.91-5.87,8.91-5.87l-9.51-3.01l12.68-13.18
	c0,0-18.42,1.29-19.02,1.29s1.96-6.45,1.96-6.45l-8,2.29l2.11-13.47l-15.55,10.89l-6.58-5.41v-2.04l-1.24,1.02l-1.24-1.02v2.04
	l-6.58,5.41l-15.55-10.89l2.11,13.47l-8-2.29c0,0,2.57,6.45,1.96,6.45c-0.6,0-19.02-1.29-19.02-1.29l12.68,13.18l-9.51,3.01
	c0,0,9.36,5.73,8.91,5.87c-0.45,0.14-7.09,5.73-7.09,5.73l8.76,0.86c0,0-12.83,14.62-12.38,14.62c0.45,0,12.23-1.29,12.23-1.29
	l-3.47,8.45l5.74-1.15l-4.53,13.04l4.68-0.72l-2.11,7.45h31.19h2.48h31.19l-2.11-7.45l4.68,0.72l-4.53-13.04l5.74,1.15l-3.47-8.45
	c0,0,11.77,1.29,12.23,1.29c0.45,0-12.38-14.62-12.38-14.62L238,347.27z"/>
<path class="st23" d="M164.45,389.72c0,0-14.65,8.32,32.17,8.32s31.14-8.25,31.14-8.25L164.45,389.72z"/>
<path class="st23" d="M222.26,322.89c-7.45-8.11-21.15,5.12-21.15,5.12l2.13-6.58l-5.52-4.19l6.48-5.76l-4.71-6.21l3.46-8l-3.17-7.7
	l-0.28-9.65l-2.56-0.1l0-0.01l-0.16,0.01l-0.16-0.01l0,0.01l-2.56,0.1l-0.77,10.17l3.24,7.63l-5.01,9.46c0,0,3.09,2.36,2.98,2.69
	c-0.11,0.34-7.07,7.96-7.07,7.96l5.71,4.79l-2.94,3.59c0,0-12.59-10.73-18.88-3.33c-6.29,7.4,2.98,25.12,2.98,25.12h21h2.96h21
	C219.28,348.01,228.55,330.29,222.26,322.89z"/>
<g>
	<g>
		<path class="st262" d="M194.18,337.15c0.19-0.18-3.61-12.37-15.75-14.8c-12.15-2.43-6.77,15.61-6.77,15.61
			S190.57,340.54,194.18,337.15z"/>
		<path class="st263" d="M193.89,337.15c0,0-3.98-9.57-13.18-13.03s-9.06,4.12-9.06,4.12s-0.37,6.48,1.47,9.13
			C174.97,340.03,191.9,337.74,193.89,337.15z"/>
		<path class="st264" d="M193.08,337.37H181.3c0,0-4.64-5.3-2.72-7.95C180.49,326.77,190.5,330.53,193.08,337.37z"/>
		<path class="st259" d="M181.69,336.74c-1.21-1.57-3.58-5.31-2.43-7.01c0.23-0.34,0.79-0.53,1.58-0.53c3.06,0,8.6,2.96,10.92,7.54
			H181.69z"/>
	</g>
	<g>
		<path class="st262" d="M198.97,337.15c-0.19-0.18,3.61-12.37,15.75-14.8c12.15-2.43,6.77,15.61,6.77,15.61
			S202.57,340.54,198.97,337.15z"/>
		<path class="st263" d="M199.26,337.15c0,0,3.98-9.57,13.18-13.03s9.06,4.12,9.06,4.12s0.37,6.48-1.47,9.13
			C218.18,340.03,201.25,337.74,199.26,337.15z"/>
		<path class="st264" d="M200.07,337.37h11.78c0,0,4.64-5.3,2.72-7.95C212.66,326.77,202.65,330.53,200.07,337.37z"/>
		<path class="st259" d="M201.39,336.74c2.32-4.58,7.86-7.54,10.92-7.54c0.78,0,1.34,0.19,1.58,0.53c1.15,1.69-1.22,5.43-2.43,7.01
			H201.39z"/>
	</g>
	<path class="st262" d="M190.5,337.52c0,0-0.88-4.71,5.82-4.71s6.77,4.42,6.77,4.42S196.09,339.36,190.5,337.52z"/>
	<path class="st263" d="M190.5,338.7c0,0-0.88-4.71,5.82-4.71s6.77,4.42,6.77,4.42S196.09,340.54,190.5,338.7z"/>
	<g>
		<path class="st265" d="M223.89,394.39h-54.77c-0.33,0-0.59-0.26-0.59-0.59v-54.77c0-0.33,0.26-0.59,0.59-0.59h54.77
			c0.33,0,0.59,0.26,0.59,0.59v54.77C224.48,394.13,224.22,394.39,223.89,394.39z"/>
		<path class="st266" d="M223.34,393.12h-53.67c-0.33,0-0.59-0.26-0.59-0.59v-53.67c0-0.33,0.26-0.59,0.59-0.59h53.67
			c0.33,0,0.59,0.26,0.59,0.59v53.67C223.93,392.86,223.67,393.12,223.34,393.12z"/>
		<rect x="168.53" y="356.13" class="st265" width="55.74" height="7.67"/>
		<path class="st266" d="M224.98,361.65h-56.94c-0.33,0-0.59-0.26-0.59-0.59v-23.45c0-0.33,0.26-0.59,0.59-0.59h56.94
			c0.33,0,0.59,0.26,0.59,0.59v23.45C225.57,361.39,225.3,361.65,224.98,361.65z"/>
		<path class="st267" d="M169.08,392.53c-0.14-0.29,0-5.6,0-5.6c19.72,0.66,30.81-7.87,35.53-23.19l18.5,0v28.19
			c0,0.29-0.23,0.52-0.52,0.52L169.08,392.53z"/>
		<path class="st268" d="M224.98,337.03h-56.94c-0.33,0-0.59,0.26-0.59,0.59v0.77c0-0.33,0.26-0.59,0.59-0.59h56.94
			c0.33,0,0.59,0.26,0.59,0.59v-0.77C225.57,337.29,225.3,337.03,224.98,337.03z"/>
		<rect x="201.85" y="337.08" class="st265" width="3.87" height="25.23"/>
		<polygon class="st265" points="206.09,394.39 207.54,361.65 204.72,361.65 204.72,394.39 		"/>
		<rect x="187.59" y="337.03" class="st262" width="17.83" height="57.37"/>
		<polygon class="st263" points="187.99,361.54 187.99,367.34 188.92,366.92 189.78,367.32 190.99,366.92 191.85,367.31 193,366.92 
			193.98,367.31 194.88,366.96 196.11,367.33 197.11,366.95 198.3,367.34 199.34,366.97 200.49,367.33 201.56,366.95 202.73,367.34 
			203.85,366.96 205.04,367.34 205.04,361.54 		"/>
		<polygon class="st269" points="187.99,337.03 187.99,340.17 188.92,339.95 189.78,340.16 190.99,339.95 191.85,340.16 193,339.95 
			193.98,340.16 194.88,339.97 196.11,340.17 197.11,339.96 198.3,340.17 199.34,339.97 200.49,340.17 201.56,339.96 202.73,340.17 
			203.85,339.97 205.04,340.17 205.04,337.03 		"/>
		<path class="st270" d="M225.55,349.05v11.75c0,0.74-0.21,0.84-1.24,0.84h-54.64l0,0c0.82-0.5,1.88-0.78,2.99-0.78h50.59
			c0.65,0,1.2-0.34,1.24-0.79L225.55,349.05z"/>
		<rect x="187.57" y="360.81" class="st271" width="17.88" height="1.9"/>
	</g>
	<path class="st272" d="M213.81,334.73l6.98,0.88c0,0,0.77-2.6,0.69-5.38l-6.52,1.63C214.97,331.86,214.55,333.41,213.81,334.73z"/>
	<path class="st272" d="M179.36,334.73l-6.98,0.88c0,0-0.77-2.6-0.69-5.38l6.52,1.63C178.2,331.86,178.62,333.41,179.36,334.73z"/>
</g>
<path class="st23" d="M168.5,394.14v-32.47c0,0-1.03,0.29-1.03-1.4v-21.88c0,0-0.01-1.36,0.95-1.36h2.94l-0.8-1.64h-2.98
	c-1.28,0-2.32,1.04-2.32,2.32v23.37c0,0.98,0.79,1.77,1.77,1.77l0,0v29.6C167.03,392.44,166.59,394.14,168.5,394.14z"/>
<path class="st23" d="M224.55,394.14v-32.47c0,0,1.03,0.29,1.03-1.4v-21.88c0,0,0.01-1.36-0.95-1.36h-2.94l0.8-1.64h2.98
	c1.28,0,2.32,1.04,2.32,2.32v23.37c0,0.98-0.79,1.77-1.77,1.77l0,0v29.6C226.02,392.44,226.47,394.14,224.55,394.14z"/>
<path class="st23" d="M185.8,270.49h23.25C209.05,270.49,197.23,267.79,185.8,270.49z"/>
<path class="st23" d="M189.78,279.16h13.86C203.63,279.16,197.01,276.73,189.78,279.16z"/>
<g>
	<g>
		<path class="st273" d="M314.41,278.48c0,0,4.49,0.29,12,4.49c0,0,4.12,4.64-1.03,10.75s-25.1-0.22-25.55-2.13
			C299.39,289.67,310,279.51,314.41,278.48z"/>
		<path class="st263" d="M298.81,290.63c-0.15-0.22,5.41-10.75,15.61-12.15c5.52,1.1,4.75,11.15-5.01,13.55
			C298.66,294.82,298.81,290.63,298.81,290.63z"/>
		<path class="st263" d="M283.27,283.71c-0.22,0-4.27-1.4-6.48-0.37s-5.15,6.85,0.22,11.56c5.37,4.71,21.06-0.81,20.83-2.87
			C297.63,289.96,283.27,283.71,283.27,283.71z"/>
		<path class="st274" d="M290.19,291.88c0,0-4.49-10.09-13.4-8.54c0,0,3.61-1.4,17.67,2.06c0,0,2.65,0.88,5.08,6.63L290.19,291.88z"
			/>
		<path class="st275" d="M274.77,292.25c0,0-0.02-0.05-0.06-0.14c-0.29-0.77-1.53-4.52,0.94-7.52c2.54-2.87,7.91-0.07,7.91-0.07
			l7.38,1.18c3.5,0.56,6.52,2.81,7.98,6.04c0.02,0.05,0.04,0.09,0.06,0.14l0.55,0.15c0,0-2.36-5.67-5.08-6.63
			c0,0-8.87-2.76-16.67-2.5C277.79,282.9,271.97,283.85,274.77,292.25z"/>
		<path class="st274" d="M297.92,291.58c0,0,3.94-7.55,10.05-11.04c6.11-3.5,9.17-1.58,9.17-1.58s6.52,2.02,9.28,4.01
			c0,0,0.66,0.88,1.14,2.13l-10.09-4.05c0,0-0.66-2.5-3.83-2.02c-3.17,0.48-9.79,3.09-15.06,12.74L297.92,291.58z"/>
	</g>
	<path class="st276" d="M335.59,344.03h-15.5l-0.29-5.7l14.17,2.76C333.97,341.09,336.17,342.18,335.59,344.03z"/>
	<g>
		<path class="st265" d="M313.46,341.76l22.11,2.26c0.13,0.01,0.24-0.22,0.24-0.53v-46.76c0-0.3-0.11-0.58-0.24-0.62l-22.11-6.17
			c-0.16-0.04-0.28,0.19-0.28,0.52v50.67C313.18,341.47,313.31,341.75,313.46,341.76z"/>
		<path class="st277" d="M313.71,340.61l21.66,2.31c0.13,0.01,0.24-0.22,0.24-0.53v-45.85c0-0.31-0.11-0.58-0.24-0.62l-21.66-6.05
			c-0.16-0.04-0.28,0.19-0.28,0.52v49.6C313.42,340.32,313.55,340.6,313.71,340.61z"/>
		<polygon class="st265" points="313.28,313.4 313.28,306.29 335.82,311.32 335.82,317.88 		"/>
		<path class="st277" d="M312.99,311.34l22.99,4.73c0.13,0.03,0.24-0.2,0.24-0.5v-19.93c0-0.3-0.11-0.58-0.24-0.62l-21.66-6.14
			c0,0-0.9,0.09-1.61,0.14v21.67C312.71,311.02,312.83,311.31,312.99,311.34z"/>
		<path class="st278" d="M335.61,342.44c0.05-0.25,0-4.79,0-4.79c-7.58-0.38-12.03-8.55-13.97-22.64l-7.86-1.56v26.08
			c0,0.27,0.1,0.5,0.23,0.51L335.61,342.44z"/>
		<path class="st268" d="M314.32,288.88l21.68,6.15c0.12,0.03,0.22,0.29,0.22,0.57v0.66c0-0.28-0.1-0.53-0.22-0.56l-23.04-6.47
			c-0.14-0.04-0.26,0.17-0.26,0.47v-0.72C313.59,288.91,314.32,288.88,314.32,288.88z"/>
		<polygon class="st265" points="322.78,291.33 321.18,290.87 321.18,313.63 322.78,313.95 		"/>
		<polygon class="st265" points="321.03,342.54 320.43,312.87 321.6,313.12 321.6,342.6 		"/>
		<polygon class="st279" points="321.31,342.57 328.51,343.3 328.51,292.9 321.31,290.86 		"/>
		<polygon class="st263" points="328.35,314.41 328.35,319.5 327.99,319.07 327.65,319.36 327.17,318.92 326.82,319.19 
			326.36,318.76 325.97,319.03 325.61,318.65 325.11,318.89 324.71,318.48 324.23,318.73 323.81,318.32 323.34,318.56 322.9,318.13 
			322.42,318.39 321.96,317.96 321.47,318.21 321.47,312.99 		"/>
		<polygon class="st269" points="328.35,292.86 328.35,295.62 327.99,295.33 327.65,295.42 327.17,295.1 326.82,295.19 
			326.36,294.88 325.97,294.96 325.61,294.69 325.11,294.73 324.71,294.44 324.23,294.5 323.81,294.2 323.34,294.25 322.9,293.94 
			322.42,294 321.96,293.69 321.47,293.74 321.47,290.9 		"/>
		<path class="st270" d="M312.71,299.59v10.91c0,0.69,0.09,0.8,0.54,0.89l22.13,4.55l0,0c-0.31-0.5-0.71-0.82-1.12-0.91l-20.55-4.28
			c-0.29-0.06-0.52-0.43-0.54-0.84L312.71,299.59z"/>
		<polygon class="st271" points="321.3,314.01 328.52,315.47 328.52,313.8 321.3,312.29 		"/>
	</g>
	<g>
		<path class="st265" d="M313.1,341.26l-43.11,2.23c-0.27,0.01-0.48-0.22-0.48-0.53v-47.27c0-0.31,0.22-0.58,0.48-0.61l43.11-4.81
			c0.3-0.03,0.54,0.2,0.54,0.53v49.86C313.64,340.97,313.4,341.24,313.1,341.26z"/>
		<path class="st266" d="M312.64,340.13l-42.24,2.24c-0.27,0.01-0.48-0.22-0.48-0.53v-46.34c0-0.31,0.22-0.58,0.48-0.61l42.24-4.72
			c0.3-0.03,0.54,0.2,0.54,0.53v48.82C313.18,339.83,312.94,340.11,312.64,340.13z"/>
		<polygon class="st265" points="313.46,313.35 313.46,306.35 269.51,310.42 269.51,317.06 		"/>
		<path class="st266" d="M314,311.34l-44.83,3.89c-0.27,0.02-0.48-0.21-0.48-0.52v-20.16c0-0.31,0.22-0.58,0.48-0.61l44.83-5.07
			c0.3-0.03,0.54,0.2,0.54,0.53v21.31C314.54,311.03,314.3,311.31,314,311.34z"/>
		<path class="st267" d="M269.92,341.88c-0.1-0.25,0-4.84,0-4.84c15.03-0.32,23.74-8.43,27.51-22.39l15.07-1.27v25.68
			c0,0.26-0.19,0.49-0.43,0.5L269.92,341.88z"/>
		<path class="st268" d="M314.05,288.86l-44.92,5.08c-0.24,0.03-0.44,0.28-0.44,0.56v0.67c0-0.28,0.2-0.53,0.44-0.56l44.92-5.04
			c0.27-0.03,0.49,0.19,0.49,0.48v-0.71C314.54,289.04,314.32,288.83,314.05,288.86z"/>
		<polygon class="st265" points="295.22,291.04 298.31,290.69 298.31,313.29 295.22,313.56 		"/>
		<polygon class="st265" points="298.61,342.01 299.77,312.57 297.51,312.77 297.51,342.07 		"/>
		<polygon class="st262" points="298.07,342.04 284.02,342.76 284.02,292.26 298.07,290.67 		"/>
		<polygon class="st263" points="284.33,313.81 284.33,318.92 285.05,318.5 285.72,318.79 286.66,318.36 287.33,318.65 
			288.23,318.24 289,318.52 289.71,318.15 290.68,318.4 291.46,318 292.4,318.27 293.22,317.87 294.14,318.12 294.99,317.71 
			295.92,317.98 296.81,317.57 297.76,317.84 297.76,312.65 		"/>
		<polygon class="st269" points="284.33,292.22 284.33,294.99 285.05,294.72 285.72,294.83 286.66,294.54 287.33,294.65 
			288.23,294.37 289,294.47 289.71,294.22 290.68,294.29 291.46,294.02 292.4,294.11 293.22,293.84 294.14,293.91 294.99,293.64 
			295.92,293.72 296.81,293.44 297.76,293.52 297.76,290.7 		"/>
		<path class="st270" d="M314.53,299.78v10.73c0,0.68-0.17,0.78-1.03,0.86l-43.13,3.74l0,0c0.61-0.49,1.41-0.8,2.25-0.88l40.01-3.51
			c0.54-0.05,0.99-0.4,1.03-0.81L314.53,299.78z"/>
		<polygon class="st271" points="298.09,313.67 284,314.87 284,313.2 298.09,311.96 		"/>
	</g>
	<polygon class="st266" points="265.71,344.04 265.71,391.19 296.85,395.39 296.85,339.51 	"/>
	<path class="st280" d="M296.85,339.51c0.55,0,34.34,3.98,34.34,3.98v47.71l-34.34,4.2V339.51z"/>
	<g>
		<path class="st265" d="M297.17,395.58l-31.81-4.06c-0.19-0.02-0.35-0.31-0.35-0.64v-45.64c0-0.33,0.16-0.61,0.35-0.63l31.81-3.86
			c0.27-0.03,0.48,0.25,0.48,0.63v53.55C297.66,395.33,297.44,395.61,297.17,395.58z"/>
		<path class="st266" d="M296.8,394.29l-31.16-3.8c-0.19-0.02-0.35-0.31-0.35-0.63v-44.78c0-0.33,0.16-0.61,0.35-0.63l31.16-3.8
			c0.27-0.03,0.48,0.25,0.48,0.63v52.38C297.28,394.04,297.06,394.32,296.8,394.29z"/>
		<polygon class="st265" points="297.51,365.61 297.51,358.08 265.01,359.46 265.01,365.88 		"/>
		<path class="st266" d="M297.92,363.49l-33.09,0.6c-0.19,0-0.35-0.26-0.35-0.58v-19.37c0-0.33,0.16-0.61,0.35-0.63l33.09-4.22
			c0.27-0.03,0.49,0.25,0.49,0.63v22.87C298.4,363.17,298.18,363.48,297.92,363.49z"/>
		<path class="st267" d="M265.29,390.01c-0.07-0.25,0-4.69,0-4.69c10.37,1.56,16.73-5.6,19.55-19.61l11.88-0.1v27.56
			c0,0.28-0.16,0.49-0.36,0.47L265.29,390.01z"/>
		<path class="st268" d="M298,339.27l-33.23,4.24c-0.16,0.02-0.29,0.26-0.29,0.53v0.64c0-0.27,0.13-0.51,0.29-0.53l33.23-4.12
			c0.22-0.03,0.41,0.21,0.41,0.53v-0.76C298.4,339.47,298.22,339.24,298,339.27z"/>
		<polygon class="st265" points="283.18,341.21 285.52,340.91 285.52,364.32 283.18,364.36 		"/>
		<polygon class="st265" points="285.74,394.12 286.64,363.69 284.91,363.72 284.91,394.02 		"/>
		<polygon class="st262" points="285.34,394.07 274.99,392.75 274.99,342.2 285.34,340.88 		"/>
		<polygon class="st263" points="275.22,363.8 275.22,368.91 275.73,368.55 276.21,368.91 276.88,368.56 277.37,368.9 
			278.02,368.56 278.58,368.91 279.1,368.6 279.81,368.94 280.38,368.6 281.08,368.96 281.69,368.62 282.37,368.96 283.01,368.62 
			283.71,368.97 284.38,368.63 285.1,368.98 285.1,363.62 		"/>
		<polygon class="st269" points="275.22,342.17 275.22,344.95 275.73,344.69 276.21,344.83 276.88,344.56 277.37,344.69 
			278.02,344.43 278.58,344.55 279.1,344.32 279.81,344.42 280.38,344.17 281.08,344.28 281.69,344.03 282.37,344.13 283.01,343.87 
			283.71,343.98 284.38,343.72 285.1,343.83 285.1,340.91 		"/>
		<path class="st270" d="M298.39,351.06v11.58c0,0.73-0.14,0.83-0.85,0.84l-31.95,0.58l0,0c0.41-0.43,0.95-0.68,1.51-0.69
			l29.73-0.64c0.45-0.01,0.82-0.35,0.84-0.79L298.39,351.06z"/>
		<polygon class="st271" points="285.35,364.7 274.98,364.84 274.98,363.16 285.35,362.93 		"/>
	</g>
	<g>
		<path class="st276" d="M298.99,395.58l31.81-4.06c0.19-0.02,0.35-0.31,0.35-0.64v-45.64c0-0.33-0.16-0.61-0.35-0.63l-31.81-3.86
			c-0.27-0.03-0.48,0.25-0.48,0.63v53.55C298.5,395.33,298.72,395.61,298.99,395.58z"/>
		<path class="st277" d="M299.36,394.29l31.16-3.8c0.19-0.02,0.35-0.31,0.35-0.63v-44.78c0-0.33-0.16-0.61-0.35-0.63l-31.16-3.8
			c-0.27-0.03-0.48,0.25-0.48,0.63v52.38C298.88,394.04,299.1,394.32,299.36,394.29z"/>
		<polygon class="st276" points="298.65,365.61 298.65,358.08 331.14,359.46 331.14,365.88 		"/>
		<path class="st277" d="M298.24,363.49l33.09,0.6c0.19,0,0.35-0.26,0.35-0.58v-19.37c0-0.33-0.16-0.61-0.35-0.63l-33.09-4.22
			c-0.27-0.03-0.49,0.25-0.49,0.63v22.87C297.76,363.17,297.98,363.48,298.24,363.49z"/>
		<path class="st278" d="M330.87,389.96c0.07-0.25,0-4.69,0-4.69c-10.37,1.56-16.73-5.6-19.55-19.56l-11.88-0.1v27.52
			c0,0.28,0.16,0.49,0.36,0.47L330.87,389.96z"/>
		<path class="st268" d="M298.16,339.27l33.23,4.24c0.16,0.02,0.29,0.26,0.29,0.53v0.64c0-0.27-0.13-0.51-0.29-0.53l-33.23-4.12
			c-0.22-0.03-0.41,0.21-0.41,0.53v-0.76C297.76,339.47,297.94,339.24,298.16,339.27z"/>
		<polygon class="st265" points="312.98,341.21 310.64,340.91 310.64,364.32 312.98,364.36 		"/>
		<polygon class="st276" points="310.42,394.12 309.52,363.69 311.25,363.72 311.25,394.02 		"/>
		<polygon class="st279" points="310.82,394.07 321.17,392.75 321.17,342.2 310.82,340.88 		"/>
		<polygon class="st263" points="320.94,363.8 320.94,368.91 320.43,368.55 319.95,368.91 319.28,368.56 318.79,368.9 
			318.14,368.56 317.58,368.91 317.06,368.6 316.35,368.94 315.78,368.6 315.08,368.96 314.47,368.62 313.79,368.96 313.15,368.62 
			312.45,368.97 311.78,368.63 311.06,368.98 311.06,363.62 		"/>
		<polygon class="st262" points="320.94,342.17 320.94,344.95 320.43,344.69 319.95,344.83 319.28,344.56 318.79,344.69 
			318.14,344.43 317.58,344.55 317.06,344.32 316.35,344.42 315.78,344.17 315.08,344.28 314.47,344.03 313.79,344.13 
			313.15,343.87 312.45,343.98 311.78,343.72 311.06,343.83 311.06,340.91 		"/>
		<path class="st270" d="M297.77,351.06v11.58c0,0.73,0.14,0.83,0.85,0.84l31.95,0.58l0,0c-0.41-0.43-0.95-0.68-1.51-0.69
			l-29.73-0.64c-0.45-0.01-0.82-0.35-0.84-0.79L297.77,351.06z"/>
		<polygon class="st271" points="310.81,364.7 321.18,364.84 321.18,363.16 310.81,362.93 		"/>
	</g>
	<path class="st265" d="M292.55,395l4.37,0.55c0.76,0.1,1.53,0.1,2.3,0.01l4.82-0.58c0,0-5.16,0.83-5.16-1.21
		c0-2.04,0.06-28.13,0.06-28.13s-0.22-2.03,5.05-2.03l-5.83-0.12l-7.45,0.22c0,0,6.79,0,6.87,1.6v27.91
		C297.57,393.21,297.77,395.41,292.55,395z"/>
	<path class="st265" d="M292.55,362.84l11.4-0.01c0,0-5.08-0.12-5.08-1.66c0-1.54,0.06-19.86,0.06-19.86s-0.67-0.61,4.6-0.61
		l-4.93-0.65c-0.29-0.04-0.59-0.04-0.88,0l-3.09,0.42c0,0,2.87-0.46,2.95,0.75v19.93C297.57,361.14,297.72,362.84,292.55,362.84z"/>
	<path class="st266" d="M297.74,365.57v28.27c0,0-0.08,1.44-1.99,1.33c0,0,2.73,0.66,2.73-1.38v-28.21L297.74,365.57z"/>
	<path class="st281" d="M265.01,390.89v-26.72c0,0-0.52-0.29-0.52-2.13c0-1.84,0-17.36,0-17.36s-0.07-1.04,0.81-1.19l4.2-0.53
		l0.15-27.74c0,0-0.96,0.59-0.96-1.25s0-18.92,0-18.92s-0.22-1.03,0.88-1.25c1.1-0.22,5.85-0.61,5.85-0.61s-2.71-3.53-0.5-8.5
		c0,0,1.16-1.77,3.53-1.82c2.37-0.06,10.23,0.77,15.99,2.54c0,0,1.62,0.11,4.05,4.75l0.33-0.17c0,0,4.97-8.06,10.99-10.21
		s7.31-0.81,7.31-0.81l8.15,3.4c0,0,2.37,0.94,2.37,5.85c-0.28,2.87-1.44,3.92-1.44,3.92c0.22,0.06,9.06,2.76,9.06,2.76
		s0.94,0,0.94,1.77s0,17.78,0,17.78s0.06,1.21-0.61,1.77v27.06c0,0-0.17,0.66-0.77,0.77l-3.16-0.01v18.72c0,0,0.35,0.63-0.35,1.33
		v26.89c0,0,2.07,0.39,2.07-2.93c0-3.31-0.39-42.07,0-42.07h1.93c1.34,0,2.43-1.09,2.43-2.43v-25.25c0-0.57,0.12-1.14,0.34-1.67
		l0.35-0.82c0.34-0.79,0.52-1.64,0.52-2.5v-17.35c0-1.61-1.06-3.03-2.6-3.49l-6.29-1.87c0,0,0.53-1.08,0.69-2.68
		c0.34-3.33-1.57-6.5-4.57-7.98l-6.84-3.39c-1.7-0.84-3.59-1.22-5.47-1.06c-4,0.33-10.54,2.24-14.88,10.52c0,0-0.88-2.6-5.52-3.53
		c-3.53-0.71-10.2-1.75-13.18-2.2c-1.69-0.26-3.44-0.1-4.99,0.61c-2.52,1.14-5.26,3.83-3.91,10.21l-3.02,0.47
		c-1.76,0.27-3.05,1.78-3.05,3.56v17.43c0,1.38,0.4,2.73,1.16,3.88l0,0v23.32c0,0.71-0.54,1.31-1.24,1.38l-1.22,0.13
		c-1.55,0.17-2.73,1.47-2.74,3.03c0,4.66-0.01,14.02,0,17.91c0,1.12,0.51,2.17,1.38,2.87l0,0v22.97
		C262.68,388.04,262.44,390.04,265.01,390.89z"/>
	<path d="M331.7,391.4c-0.28,0-0.5-0.22-0.5-0.5v-27.1l0.15-0.15c0.4-0.39,0.29-0.69,0.26-0.74l-0.06-0.23v-19.22l3.7,0.01
		c0.15-0.03,0.25-0.25,0.28-0.35V315.9l0.18-0.15c0.39-0.32,0.44-1.09,0.43-1.36v-17.8c0-0.96-0.31-1.25-0.47-1.27l-0.12-0.02
		c-2.45-0.74-8.88-2.69-9.13-2.75l-0.9-0.24l0.69-0.62c0.01-0.01,1.03-0.99,1.29-3.6c0-4.41-2-5.3-2.09-5.34l-8.41-3.52l0,0
		c-0.01,0-1.37-1.01-6.86,0.93c-5.85,2.07-10.8,9.93-10.85,10.01l-0.08,0.12l-0.9,0.44l-0.23-0.43c-2.22-4.2-3.69-4.48-3.71-4.49
		c-5.81-1.75-13.7-2.59-16.1-2.54c-2.12,0.05-3.16,1.58-3.17,1.6c-2.04,4.55,0.38,7.79,0.48,7.92l0.56,0.73l-0.91,0.07
		c-0.05,0-4.78,0.39-5.86,0.6c-0.21,0.04-0.35,0.12-0.43,0.24c-0.12,0.18-0.08,0.42-0.08,0.42l0.01,0.11v18.92
		c0,0.7,0.16,0.85,0.16,0.85l0.76-0.46l0.05,0.87l-0.15,28.18l-4.68,0.58c-0.39,0.06-0.39,0.56-0.38,0.66l0,17.39
		c0,1.4,0.32,1.73,0.32,1.74l0.25,0.14l-0.05,0.25v26.72c0,0.28-0.22,0.5-0.5,0.5s-0.5-0.22-0.5-0.5v-26.51
		c-0.24-0.31-0.52-0.96-0.52-2.34V344.6c-0.04-0.48,0.18-1.51,1.24-1.68l3.83-0.48l0.14-26.72c-0.1-0.02-0.2-0.05-0.3-0.11
		c-0.45-0.25-0.66-0.81-0.66-1.72v-18.88c-0.03-0.18-0.07-0.67,0.23-1.12c0.16-0.24,0.47-0.55,1.07-0.67
		c0.86-0.17,3.73-0.43,5.16-0.55c-0.72-1.34-1.85-4.38-0.1-8.28c0.09-0.15,1.39-2.06,4.02-2.12c2.49-0.07,10.46,0.79,16.29,2.55
		c0.43,0.07,1.97,0.58,4.13,4.45c1.07-1.62,5.62-8.11,11.14-10.06c5.57-1.97,7.36-1.13,7.82-0.77l8.17,3.38
		c0.1,0.04,2.71,1.12,2.71,6.31c-0.18,1.85-0.71,3.01-1.11,3.65c1.93,0.58,7.11,2.15,8.42,2.54c0.33,0.04,1.35,0.34,1.35,2.26v17.78
		c0.01,0.12,0.04,1.26-0.61,1.98l-0.02,26.97c-0.09,0.36-0.44,1.01-1.18,1.14l-2.78,0v18.12c0.14,0.37,0.18,1-0.35,1.63v26.69
		C332.2,391.17,331.98,391.4,331.7,391.4z"/>
</g>
<path class="st282" d="M249.96,246.53l0.33,145.55c5.09,4.04,15.41,5.37,26.5,6.29l-0.33-157.03
	C265.36,241.84,255.25,242.88,249.96,246.53z"/>
<polygon class="st283" points="333.48,395.28 333.48,242.99 329.65,242.44 329.65,396.01 "/>
<path class="st284" d="M338.27,281.35l1.11-2.21l-3.19-1.18l3.03-5.74l-8.28,0.44l0.48-2.94l-3.98-0.15l0.16-3.98l-5.1,1.47
	l0.16-7.21l-8.6,4.71l-0.64-2.65l-2.39,1.91l-2.07-6.48l-5.8,5.96l-2.01-2.13l-2.01,2.13l-5.8-5.96l-2.07,6.48l-2.39-1.91
	l-0.64,2.65l-8.6-4.71l0.16,7.21l-5.1-1.47l0.16,3.98l-3.98,0.15l0.48,2.94l-8.28-0.44l3.03,5.74l-3.19,1.18l1.12,2.21l-4.78,1.03
	l3.19,2.5l0.96,2.36c0,0,8.38-21.5,37.75-22.48c29.37,0.98,37.75,22.48,37.75,22.48l0.96-2.36l3.19-2.5L338.27,281.35z"/>
<path class="st23" d="M262.44,288.82c0,0,11.15-22.75,38.76-22.75s38.21,22.97,38.21,22.97s-7.84-25.18-38.32-25.18
	C270.61,263.87,262.44,288.82,262.44,288.82z"/>
</svg>
