<svg version="1.1" id="ALL" xmlns="http://www.w3.org/2000/svg" xmlns:xlink="http://www.w3.org/1999/xlink" x="0px" y="0px"
	 viewBox="0 0 510.24 595.28" style="enable-background:new 0 0 510.24 595.28;" xml:space="preserve">
<style type="text/css">
	.st0{fill:#5D2D16;}
	.st1{fill:#7A3A2B;}
	.st2{fill:#C5743C;}
	.st3{fill:#C37D46;}
	.st4{fill:#526D32;}
	.st5{fill:#639916;}
	.st6{opacity:0.5;}
	.st7{fill:#83C121;}
	.st8{fill:#BAAB3F;}
	.st9{fill:#A57044;}
	.st10{fill:#B78253;}
	.st11{fill:#7F5038;}
	.st12{fill:#DA211E;}
	.st13{fill:#A80000;}
	.st14{fill:#F42A2A;}
	.st15{fill:#720000;}
	.st16{fill:#E5E7EA;}
	.st17{fill:#CBC8C3;}
	.st18{fill:#B2ACA4;}
	.st19{fill:#B2B6B7;}
	.st20{fill:#E88D0A;}
	.st21{fill:#963600;}
	.st22{fill:#FFD664;}
	.st23{fill:#FFFFFF;}
	.st24{fill:#510E0E;}
	.st25{fill:#D1B8A1;}
	.st26{fill:#3F4042;}
	.st27{fill:#EFEEED;}
	.st28{fill:#965632;}
	.st29{fill:#9E7954;}
	.st30{fill:#C69F6B;}
	.st31{fill:#B7AFA7;}
	.st32{fill:#84330F;}
	.st33{fill:#B3B0A1;}
	.st34{fill:#663E1D;}
	.st35{fill:#AA5B21;}
	.st36{fill:#682A00;}
	.st37{fill:#CC0000;}
	.st38{fill:#880000;}
	.st39{fill:#1BBDEF;}
	.st40{fill:#83FFFF;}
	.st41{fill:#D7FFFE;}
	.st42{fill:#C6541A;}
	.st43{fill:#8C3610;}
	.st44{fill:#D86C00;}
	.st45{fill:#F2790A;}
	.st46{fill:#F2B30A;}
	.st47{fill:#1A2B0E;}
	.st48{fill:#F78F1E;}
	.st49{fill:#FFD683;}
	.st50{fill:#FFBD48;}
	.st51{fill:#87FFFF;}
	.st52{fill:#FFCC00;}
	.st53{fill:#5B1E06;}
	.st54{fill:#30541A;}
	.st55{fill:#35720E;}
	.st56{fill:#9E3612;}
	.st57{fill:#48AA09;}
	.st58{fill:#FFA200;}
	.st59{fill:#C1006A;}
	.st60{fill:#7B2322;}
	.st61{fill:#D30056;}
	.st62{fill:#680E37;}
	.st63{fill:#7C193A;}
	.st64{fill:#FF2C72;}
	.st65{fill:#FF5A8D;}
	.st66{fill:#FF48D6;}
	.st67{fill:#FF6D9F;}
	.st68{fill:#E88725;}
	.st69{fill:#E8B425;}
	.st70{fill:#FFD15F;}
	.st71{fill:#893A28;}
	.st72{fill:#FFFF42;}
	.st73{fill:#2C7A3C;}
	.st74{fill:#295B31;}
	.st75{fill:#3BC458;}
	.st76{fill:#5E4031;}
	.st77{fill:#605F33;}
	.st78{fill:#82804A;}
	.st79{fill:#82533F;}
	.st80{fill:#A06955;}
	.st81{fill:#444332;}
	.st82{fill:#66686B;}
	.st83{fill:#B7AF51;}
	.st84{fill:#47462C;}
	.st85{fill:#C17B5D;}
	.st86{fill:#FFD346;}
	.st87{fill:#F7A800;}
	.st88{fill:#ED7601;}
	.st89{fill:#FFE18D;}
	.st90{fill:#FFB857;}
	.st91{fill:#8B9BAF;}
	.st92{fill:#9DC2EA;}
	.st93{fill:#AA0000;}
	.st94{fill:#EF7F22;}
	.st95{fill:#C17E3A;}
	.st96{fill:#82562E;}
	.st97{fill:#542906;}
	.st98{fill:#CE6B13;}
	.st99{fill:#FF9536;}
	.st100{fill:#FFD55F;}
	.st101{fill:#A85007;}
	.st102{fill:#E29652;}
	.st103{fill:#FFA861;}
	.st104{fill:#FF0000;}
	.st105{fill:#5DE7FF;}
	.st106{fill:#32323A;}
	.st107{fill:#D6CBBF;}
	.st108{fill:#EBE0CE;}
	.st109{fill:#E28F01;}
	.st110{fill:#C94727;}
	.st111{fill:#7A2413;}
	.st112{fill:#3B454C;}
	.st113{fill:#5B676D;}
	.st114{fill:#DD5D05;}
	.st115{fill:#FF8939;}
	.st116{fill:#FFF6E9;}
	.st117{fill:#FFCE00;}
	.st118{fill:#C59648;}
	.st119{fill:#936135;}
	.st120{fill:#FCB072;}
	.st121{fill:#CC7E52;}
	.st122{fill:#8E624C;}
	.st123{fill:#AC1212;}
	.st124{fill:#E5231A;}
	.st125{fill:#318D8A;}
	.st126{fill:#F4A32C;}
	.st127{fill:#FFC06C;}
	.st128{fill:#B5720F;}
	.st129{fill:#FFD1AE;}
	.st130{fill:#C4CCCE;}
	.st131{fill:#1F2023;}
	.st132{fill:#E3E5E5;}
	.st133{fill:#3F4144;}
	.st134{fill:#7C0D0D;}
	.st135{fill:#AEB7BA;}
	.st136{fill:#8A909E;}
	.st137{fill:#AA7B57;}
	.st138{fill:#B78570;}
	.st139{fill:#6E7E8E;}
	.st140{fill:#4B5D6B;}
	.st141{fill:#76797C;}
	.st142{fill:#FFCEA9;}
	.st143{fill:#BF744F;}
	.st144{fill:#FCC068;}
	.st145{fill:#D7DFE2;}
	.st146{fill:#7A8E93;}
	.st147{fill:#FF6161;}
	.st148{fill:#EFD5B6;}
	.st149{fill:#505356;}
	.st150{fill:#AAAAAA;}
	.st151{fill:#8E7C6F;}
	.st152{fill:#747B84;}
	.st153{fill:#EDD5C0;}
	.st154{fill:#A0805A;}
	.st155{fill:#725D46;}
	.st156{fill:#AA6333;}
	.st157{fill:#DBC09E;}
	.st158{fill:#6D4029;}
	.st159{fill:#826341;}
	.st160{fill:#E08032;}
	.st161{fill:#AF520C;}
	.st162{fill:#891313;}
	.st163{fill:#B73030;}
	.st164{fill:#E84242;}
	.st165{fill:#562708;}
	.st166{fill:#FFBE71;}
	.st167{fill:#603429;}
	.st168{fill:#FFA124;}
	.st169{fill:#696C70;}
	.st170{fill:#50555B;}
	.st171{fill:#8C9196;}
	.st172{fill:#E0E0E0;}
	.st173{fill:#FF4A4A;}
	.st174{fill:#607F91;}
	.st175{fill:#C3D3DD;}
	.st176{fill:#8BA1AF;}
	.st177{fill:#60A0BA;}
	.st178{fill:#6088AD;}
	.st179{fill:#4A7493;}
	.st180{fill:#696389;}
	.st181{fill:#4663A3;}
	.st182{fill:#AEE6FF;}
	.st183{fill:#54A7CC;}
	.st184{fill:#4BB9E0;}
	.st185{fill:#4F4B75;}
	.st186{fill:#542E15;}
	.st187{fill:#6D3516;}
	.st188{fill:#68472B;}
	.st189{fill:#AF6D37;}
	.st190{fill:#3A2E2C;}
	.st191{fill:#663418;}
	.st192{fill:#915436;}
	.st193{fill:#B57255;}
	.st194{fill:#F28B3D;}
	.st195{fill:#56829B;}
	.st196{fill:#85B5D6;}
	.st197{fill:#B7D8EA;}
	.st198{fill:#3B6375;}
	.st199{fill:#5C6466;}
	.st200{fill:#FF5A20;}
	.st201{fill:#37454F;}
	.st202{fill:#202528;}
	.st203{fill:#566772;}
	.st204{fill:#69838E;}
	.st205{fill:#415156;}
	.st206{fill:#8E999B;}
	.st207{fill:#FF9A7B;}
	.st208{fill:#5B4F49;}
	.st209{fill:#6B5146;}
	.st210{fill:#924B2F;}
	.st211{fill:#A56F5B;}
	.st212{fill:#6B4A40;}
	.st213{fill:#FFD469;}
	.st214{fill:#7D8389;}
	.st215{fill:#B3B5BC;}
	.st216{fill:#92C6EA;}
	.st217{fill:#D3A12F;}
	.st218{fill:#3353A3;}
	.st219{fill:#2D4068;}
	.st220{fill:#09425B;}
	.st221{fill:#FF4800;}
	.st222{fill:#32697C;}
	.st223{fill:#A8E0EF;}
	.st224{fill:#71C0DB;}
	.st225{fill:#6089C6;}
	.st226{fill:#009311;}
	.st227{fill:#08FF2E;}
	.st228{fill:#536D54;}
	.st229{fill:#C84229;}
	.st230{fill:#FF4229;}
	.st231{fill:#C85529;}
	.st232{fill:#FF5529;}
	.st233{fill:#B96829;}
	.st234{fill:#FF6829;}
	.st235{fill:#A48929;}
	.st236{fill:#FF8929;}
	.st237{fill:#A4CC29;}
	.st238{fill:#FFCC29;}
	.st239{fill:#00CE31;}
	.st240{fill:#A1CE31;}
	.st241{fill:#FFFF2E;}
	.st242{fill:#BBEDFF;}
	.st243{fill:#A9E7FF;}
	.st244{fill:#475572;}
	.st245{fill:#FF680C;}
	.st246{fill:#FFFF0C;}
	.st247{fill:#348AA5;}
	.st248{fill:#16638E;}
	.st249{opacity:0.15;fill:#FFFF0C;}
	.st250{opacity:0.15;fill:#71F0DC;}
	.st251{opacity:0.3;fill:#71F0DC;}
	.st252{fill:#80A9B2;}
	.st253{fill:#88E6FF;}
	.st254{fill:#5376A0;}
	.st255{fill:#6D9DCC;}
	.st256{fill:#90B4D3;}
	.st257{fill:#B7B4A7;}
	.st258{fill:#20314F;}
	.st259{fill:#FFD808;}
	.st260{fill:#CCCC6E;}
	.st261{fill:#A5C2D3;}
	.st262{fill:#FF8710;}
	.st263{fill:#C45800;}
	.st264{fill:#2791CC;}
	.st265{fill:#A01717;}
	.st266{fill:#E51717;}
	.st267{fill:#C90D0D;}
	.st268{fill:#FF7171;}
	.st269{fill:#FFB428;}
	.st270{fill:#BC0F0F;}
	.st271{fill:#F76A00;}
	.st272{fill:#C14000;}
	.st273{fill:#AA2800;}
	.st274{fill:#FFAB31;}
	.st275{fill:#F7C27C;}
	.st276{fill:#560D0D;}
	.st277{fill:#960202;}
	.st278{fill:#700F0F;}
	.st279{fill:#CC5200;}
	.st280{fill:#951717;}
	.st281{fill:#71F0DC;}
	.st282{opacity:0.37;fill:#FFFFFF;}
	.st283{opacity:0.5;fill:#A7FFFF;}
	.st284{fill:#FFEB38;}
	.st285{fill:#304777;}
	.st286{fill:#03EDFF;}
	.st287{opacity:0.3;}
	.st288{opacity:0.2;}
	.st289{fill:#74A1B5;}
	.st290{fill:#33F5FF;}
	.st291{opacity:0.3;fill:#33F5FF;}
	.st292{fill:#99FFFF;}
	.st293{fill:#FCF9D9;}
	.st294{fill:#546077;}
	.st295{fill:#E5E1A8;}
	.st296{fill:#478461;}
	.st297{fill:#D3B5A5;}
	.st298{fill:#DE4400;}
	.st299{fill:#F77991;}
	.st300{fill:#FFDCE0;}
	.st301{fill:#663E20;}
	.st302{fill:#9B5D3B;}
	.st303{fill:#3F2D27;}
	.st304{fill:#DBB06B;}
	.st305{fill:#AF834F;}
	.st306{fill:#493B33;}
	.st307{fill:#81574A;}
	.st308{fill:#CC9933;}
	.st309{fill:#FFFF93;}
	.st310{fill:#D1993F;}
	.st311{fill:#D1AA66;}
	.st312{opacity:0.2;fill:#FFFF93;}
	.st313{opacity:0.1;fill:#FFFF93;}
	.st314{opacity:0.1;fill:#FFFF89;}
	.st315{opacity:0.7;}
	.st316{fill:#BC874D;}
	.st317{opacity:0.4;fill:#444951;}
	.st318{opacity:0.3;fill:#373944;}
	.st319{fill:#775742;}
	.st320{opacity:0.5;fill:#444951;}
	.st321{fill:#969436;}
	.st322{fill:#4C3529;}
	.st323{fill:#D8A355;}
	.st324{fill:#FFD578;}
	.st325{opacity:0.4;fill:#FFD578;}
	.st326{fill:#A79253;}
	.st327{fill:#CBAC4E;}
	.st328{fill:#5E4F2A;}
	.st329{opacity:0.6;fill:#52575E;}
	.st330{fill:#E5CF4A;}
	.st331{opacity:0.6;}
	.st332{fill:#444951;}
	.st333{fill:#1D1D1D;}
	.st334{fill:#1D1D1B;}
	.st335{fill:#D38C54;}
	.st336{fill:#B4FFFF;}
	.st337{opacity:0.4;fill:#FFFFFF;}
	.st338{opacity:0.7;fill:#7A3A2B;}
	.st339{fill:#D3AF85;}
	.st340{fill:#F9CB9D;}
	.st341{opacity:0.6;fill:#5D2D16;}
	.st342{opacity:0.29;fill:#5D2D16;}
	.st343{fill:#4F3220;}
	.st344{fill:#775542;}
	.st345{fill:#E2C54C;}
	.st346{fill:#F2E8B3;}
	.st347{fill:#F7F8F6;}
	.st348{fill:#976616;}
	.st349{fill:#6F3B0C;}
	.st350{fill:#5A0C0C;}
	.st351{opacity:0.44;}
	.st352{opacity:0.46;fill:#350B00;}
	.st353{fill:#B1B4B9;}
	.st354{fill:#B1B4A5;}
	.st355{fill:#C9CACC;}
	.st356{fill:#E9EAEC;}
	.st357{opacity:0.5;fill:#E9EAEC;}
	.st358{opacity:0.4;fill:#E9EAEC;}
	.st359{opacity:0.7;fill:#FFFFFF;}
	.st360{opacity:0.5;fill:#FFFFFF;}
</style>
<g>
	<path class="st34" d="M116.1,500.72l104.66,26.79c0,0,23.7,6.76,36.98-5.57c13.27-12.33,5.1-45.63-10.55-60.92
		c-9.01-8.81-21.41-13.13-31.65-10.03c-2.47,0.75-4.23,1.44-5.2,1.86c-0.57,0.24-1.06,0.62-1.43,1.12
		c-2.03,2.72-9.08,12.43-10.31,17.12l9.96,3.79c0,0,1.01-12.92,12.56-15.17c7.17-1.42,21.28,5.57,29.33,24.53
		c8.06,18.96,5.99,33.54-14.28,35.32c-8.06,0.59-18.49-2.13-18.49-2.13l-90.79-22.28c0,0,3.61-3.08,1.36-7.88
		c-1.43-3.05-5.46-4.02-9.16-3.29c-1.66,0.33-4.62,1.49-5.84,1.99c-0.35,0.14-0.61,0.44-0.69,0.81
		C111.97,489.29,110.12,499.02,116.1,500.72z"/>
	<path class="st35" d="M111.99,502.22l104.66,26.79c0,0,23.7,6.76,36.98-5.57c13.27-12.33,5.1-45.63-10.55-60.92
		s-41.48-17.07-48.59,10.07l9.96,3.79c0,0,1.01-12.92,12.56-15.17c7.17-1.42,21.28,5.57,29.33,24.53
		c8.06,18.96,5.99,33.54-14.28,35.32c-8.06,0.59-18.49-2.13-18.49-2.13s-90.79-22.28-90.79-22.28s3.61-3.08,1.36-7.88
		c-2.25-4.8-10.96-4.44-14.64-0.41C105.83,492.38,105.12,500.27,111.99,502.22z"/>
</g>
<path d="M231.61,531.35c-8.09,0-14.66-1.84-14.74-1.86l-104.64-26.78c-3.48-0.99-4.8-3.28-5.29-5.02c-0.88-3.08,0.18-7.06,2.56-9.67
	c0.96-1.05,2.3-1.92,3.88-2.49l0.05-0.02c1.22-0.49,4.23-1.68,5.93-2.01c3.65-0.72,8.08,0.1,9.71,3.57
	c1.77,3.77,0.12,6.59-0.87,7.81l89.96,22.08c0.11,0.03,10.46,2.7,18.33,2.12c2.04-0.18,3.97-0.51,5.73-0.98
	c12.09-5.89,8.87-20.73,4.02-32.15c-8.01-18.84-21.91-25.59-28.78-24.24l-0.13,0.03c-7.11,3.96-7.92,13.1-7.93,13.19l-0.05,0.67
	l-3.67-1.4c-0.31,1.33-0.39,2.22-0.39,2.23l-0.05,0.66l-11-4.19l0.11-0.43c2.69-10.25,8.25-17.19,16.09-20.05
	c1.09-0.48,2.86-1.17,5.3-1.91c10.09-3.05,22.71,0.93,32.15,10.15l0,0c10.24,10.01,17.54,28.06,17.35,42.93
	c-0.1,8.21-2.46,14.68-6.81,18.72c-3.4,3.16-12.78,7.97-20.31,8.61C235.91,531.23,233.71,531.35,231.61,531.35z M113.86,486.41
	l-0.07,0.03c-1.47,0.53-2.69,1.31-3.55,2.25c-2.16,2.37-3.12,5.96-2.34,8.72c0.61,2.15,2.2,3.65,4.59,4.33l104.64,26.78
	c0.11,0.03,10.32,2.88,20.88,1.4c7.35-0.63,16.45-5.29,19.75-8.35c4.14-3.85,6.39-10.07,6.49-18c0.19-14.62-6.98-32.36-17.05-42.2
	c-9.18-8.97-21.41-12.86-31.16-9.91c-2.4,0.73-4.13,1.4-5.15,1.84l-0.1,0.05c-7.41,2.7-12.71,9.24-15.35,18.93l8.94,3.4
	c0.08-0.52,0.22-1.32,0.47-2.29l0.14-0.54l3.5,1.33c0.32-2.27,1.85-9.74,8.43-13.36l0.13-0.05l0.22-0.05
	c7.2-1.42,21.67,5.48,29.89,24.83c7.2,16.94,5.61,28.51-4.59,33.47c-1.91,0.52-3.9,0.86-6,1.04c-8.06,0.59-18.55-2.12-18.66-2.15
	l-91.72-22.51l0.74-0.63c0.13-0.12,3.29-2.91,1.24-7.29c-1.39-2.96-5.44-3.64-8.61-3.01C117.96,484.78,115.08,485.91,113.86,486.41z
	"/>
<path class="st34" d="M149.14,501.14c-0.07-0.24,0.42-9.39-3.01-17c-3.43-7.6-6.86-0.58-6.86-0.58l2.71,17.33l4.06,1.45
	L149.14,501.14z"/>
<path class="st35" d="M139.02,500.76c0,0,0.24-23.47-16.59-24.18c-14.76-0.62,9.01-1.34,16.67,1.82c0.4-0.08,7.66,8.06,6.95,24.49
	L139.02,500.76z"/>
<g>
	<path class="st35" d="M257.06,478.17l-95.3-22.7c0,0-9.23-2.39-11.28-16.79c-2.06-14.4-3.32-25.95-3.32-25.95
		s-1.33-13.89-14.22-12.45c-13.99,1.57-13.82,20.66-1.15,20.66c0,0,6.77,0.4,8.46-6.02l3.32,26.68c0,0,0.73,6.02,4.53,11.89
		c3.23,4.99,8.34,8.48,14.1,9.98l92.88,31.21c0,0,8.5-0.46,8.77-7.11C264.18,479.66,257.06,478.17,257.06,478.17z"/>
	<path class="st36" d="M255.02,495.18l-0.09-0.03l-92.88-31.21c-6.01-1.57-11.13-5.19-14.36-10.18c-3.82-5.9-4.57-11.85-4.6-12.1
		l-3.07-24.7c-2.48,4.76-8.18,4.49-8.24,4.48c0,0,0,0,0,0c-6.46,0-9.62-4.68-9.88-9.33c-0.31-5.48,3.38-11.48,11-12.33
		c3.78-0.42,6.97,0.4,9.48,2.43c4.6,3.74,5.27,10.19,5.3,10.46c0.01,0.11,1.28,11.7,3.32,25.93c1.98,13.87,10.83,16.36,10.92,16.38
		l95.28,22.7c0.34,0.08,7.5,1.82,7.18,9.9c-0.28,7.03-9.16,7.59-9.25,7.59L255.02,495.18z M140.44,412.28l3.64,29.25
		c0.01,0.06,0.76,5.98,4.45,11.68c3.1,4.78,8,8.25,13.8,9.77l92.82,31.18c0.94-0.07,7.97-0.79,8.21-6.62
		c0.29-7.37-6.13-8.82-6.4-8.88l-0.01,0l-95.3-22.7c-0.4-0.1-9.58-2.64-11.66-17.21c-2.04-14.25-3.31-25.86-3.32-25.97
		c-0.01-0.07-0.66-6.32-4.94-9.79c-2.29-1.86-5.23-2.61-8.73-2.21c-7.01,0.79-10.39,6.27-10.11,11.28c0.23,4.17,3.08,8.38,8.91,8.38
		c0.29,0.02,6.42,0.29,7.98-5.65L140.44,412.28z"/>
</g>
<path class="st37" d="M93.98,409.97l37.53-5.29c0,0,10.51-0.63,11.38,8.69s3,28.29,3,28.29s-0.16,13.75,15.25,19.91l95.14,21.49
	c0,0,4.35,0.87,4.35,5.06c0,5.77-5.85,6.48-5.85,6.48l-36.19,8.3l-100.51-26.71c0,0-11.14-5.14-13.83-22.44
	S103.14,414.71,93.98,409.97z"/>
<path class="st38" d="M256.43,483.14l-95.13-21.49c-15.41-6.16-15.25-19.91-15.25-19.91s-2.13-18.96-3-28.29s-11.38-8.69-11.38-8.69
	l-2.75,0.39c3.17,0.46,8.24,2.19,8.83,8.54c0.87,9.32,3,28.29,3,28.29s-0.16,13.75,15.25,19.91l95.14,21.49c0,0,4.35,0.87,4.35,5.06
	c0,5.77-5.85,6.48-5.85,6.48l-32.87,7.54l1.97,0.52l36.19-8.3c0,0,5.85-0.71,5.85-6.48C260.78,484.01,256.43,483.14,256.43,483.14z"
	/>
<path class="st93" d="M123.53,471.72c0.16,0,38.52-8.53,38.52-8.53l89.6,20.23c0,0,4.86,0.79,3.99,6.76c0,0-0.99,3.63-5.97,4.9
	l-29.87,6.99c0,0,0.87-6.83-6.4-8.42l-8.34-1.15L123.53,471.72z"/>
<polygon class="st94" points="199.05,516.21 120.94,497.07 119.16,497.72 198.57,517.27 "/>
<g>
	<path class="st95" d="M211.87,494.75l-89.68-22.84c0,0-10.98-2.84-13.43-19.99c-2.45-17.15-3.95-30.9-3.95-30.9
		s-1.58-16.53-16.93-14.82c-16.65,1.86-16.46,24.59-1.36,24.59c0,0,8.06,0.47,10.07-7.17l3.95,31.76c0,0,0.86,7.16,5.39,14.15
		c3.85,5.94,9.93,10.09,16.78,11.88l89.16,23.27V494.75z"/>
	<path class="st36" d="M212.37,505.36l-0.63-0.16l-89.16-23.27c-7.17-1.87-13.24-6.17-17.08-12.09c-4.54-7.01-5.43-14.07-5.47-14.36
		l-3.7-29.71c-2.84,5.89-9.79,5.57-9.86,5.56c0,0,0,0,0,0c-7.63,0-11.37-5.53-11.67-11.01c-0.36-6.48,3.99-13.57,13.01-14.58
		c4.48-0.5,8.25,0.47,11.21,2.88c5.45,4.42,6.24,12.06,6.27,12.39c0.01,0.13,1.53,13.93,3.95,30.87
		c2.37,16.58,12.96,19.55,13.06,19.58l90.06,22.93V505.36z M96.76,421.01l4.27,34.33c0.01,0.07,0.91,7.14,5.31,13.94
		c3.7,5.72,9.56,9.86,16.49,11.67l88.54,23.11v-8.92l-89.31-22.74c-0.46-0.12-11.34-3.13-13.8-20.41
		c-2.42-16.96-3.94-30.77-3.95-30.91c-0.01-0.08-0.79-7.56-5.91-11.72c-2.75-2.23-6.27-3.12-10.47-2.65
		c-8.4,0.94-12.46,7.52-12.12,13.53c0.28,5.01,3.7,10.07,10.71,10.07c0.34,0.02,7.71,0.35,9.59-6.8L96.76,421.01z"/>
</g>
<path class="st35" d="M152.05,481.18c0,0-0.77,2.73,0.12,6.16l55.94,14.58l0.41-6.64L152.05,481.18z"/>
<g>
	<path class="st96" d="M179.67,485.49l6.08-1.99c2.88-0.94,6.07-0.68,8.62,0.94c2.01,1.28,3.94,3.51,4.85,7.4
		c2.31,9.9-11.85,17.13-15.17,17.72c-2.91,0.52-4.82-18.19-5.24-22.77C178.76,486.22,179.11,485.68,179.67,485.49z"/>
	<path class="st96" d="M177.18,495.41c0,0-10.55-2.13-8.24-17.01c2.31-14.87,19.26-12.98,19.26-12.98s-16.53-3.32-23.11,10.61
		c-6.58,13.93,5.69,24.65,5.69,24.65s7.94,4.62,9.6,0.41S177.18,495.41,177.18,495.41z"/>
	<path class="st96" d="M65.29,495.17l6.17-0.59c3.76-0.28,7.31,2.11,8.2,5.78c0.43,1.77,0.49,3.96-0.21,6.6l95.47,25.78L160.59,536
		l-92.27-25.96L65.29,495.17z"/>
	<path class="st95" d="M175.52,499.5c0,0-7.3-2.77-9.17-8.85c-2.23-7.29-0.55-17.62,7.35-21.97c6.01-3.08,19.12-7.59,29.39,11.46
		c4.49,14.37,2.4,25.43-1.11,33.34c-8.53,19.25-29.47,22.52-48.21,17.27l-79.89-22.2c0,0,1.49-4.43-0.61-9.29
		c-2.11-4.87-9.64-5.93-13.51-0.95c-3.35,4.3-2.47,13.64,4.35,15.8l96.79,27.89c0,0,24.93,7.51,43.14-7.19
		c10.11-8.48,17.37-23.31,17.17-39.65c-0.14-11.36-3.86-22.52-13.45-32.53c-8.3-8.62-26.22-11.03-39.17-3.32
		c-7.03,4.19-12.55,10.98-14.16,20.58c-2.29,14.46,4.42,26.71,18.02,30.11s20.39-5.53,21.18-10.67c0.79-5.14-0.95-12.25-8.69-14.06
		C177.18,483.46,167.86,491.59,175.52,499.5z"/>
	<path class="st96" d="M160.9,542.01c0,0,16.99,4.19,34.85-5.29c14.51-8.23,18.44-21.56,19.66-31.8c0.75-6.26,0.65-12.62-0.55-18.81
		c-2.04-10.49-6.99-20.71-16.63-26.67c-12.95-8-28.54-0.79-28.54-0.79s14.44-8.69,30.68-1.28c18.09,8.22,21.27,32.83,21.27,40.77
		c0,7.92-2.49,31.86-24.93,41.74C178.31,548.27,160.9,542.01,160.9,542.01z"/>
</g>
<path d="M176.12,544.96c-8.97,0-15.29-2.21-15.39-2.25l-96.76-27.88c-2.92-0.93-5.06-3.18-6.04-6.35c-1.11-3.58-0.53-7.7,1.44-10.24
	c1.7-2.19,4.25-3.44,7.01-3.44c0.01,0,0.02,0,0.02,0l5.02-0.48c4.04-0.29,7.8,2.34,8.73,6.16c0.48,1.95,0.45,4.09-0.09,6.37
	l92.8,25.06c7.17-0.74,20.08-3.67,26.77-14.91c5.53-10.46,7.95-20.2,2.91-36.31c-0.83-2.65-4.64-9.15-11.14-12.33
	c-4.4-2.15-9.1-2.32-13.95-0.5c-4.5,2.03-7.21,5.69-8.01,10.86c-1.1,7.09,0.81,11.15,2.89,13.41c0.72-3.36,3.83-6.2,7.91-7.1
	l5.36-1.76c3.14-1.03,6.43-0.66,9.05,1c2.55,1.62,4.25,4.21,5.07,7.71c2.02,8.66-7.84,15.29-13.33,17.59
	c-3.97,2.1-8.72,2.5-14.06,1.16c-13.58-3.4-20.8-15.43-18.39-30.67c1.91-11.35,8.88-17.65,14.4-20.93c0.37-0.22,0.74-0.42,1.11-0.62
	l-0.03-0.06c0.15-0.09,14.85-8.74,31.14-1.31c7.69,3.49,13.54,10.21,17.36,19.95c1.67,3.87,2.8,8.02,3.36,12.31
	c0.76,4.51,0.84,7.78,0.84,8.97c0,5.19-1.22,31.63-25.23,42.2C189.49,543.95,182.2,544.96,176.12,544.96z M66.43,495.8
	c-2.5,0-4.77,1.11-6.28,3.05c-1.76,2.26-2.28,6.09-1.28,9.33c0.88,2.85,2.8,4.87,5.38,5.69l96.78,27.89
	c0.2,0.07,17.46,6.1,35.45-2.11c23.45-10.32,24.64-36.2,24.64-41.29c0-1.17-0.08-4.37-0.83-8.81l0-0.02
	c-0.54-4.2-1.65-8.26-3.3-12.07c-3.73-9.51-9.4-16.04-16.85-19.42c-13.77-6.28-26.37-0.73-29.48,0.86l0.04,0.08
	c-0.61,0.31-1.25,0.63-1.85,0.99c-5.34,3.18-12.09,9.27-13.93,20.24c-2.33,14.68,4.6,26.28,17.64,29.54
	c5.1,1.27,9.6,0.91,13.39-1.09c5.27-2.21,14.66-8.46,12.79-16.46c-0.75-3.23-2.31-5.62-4.63-7.09c-2.36-1.5-5.35-1.82-8.2-0.89
	l-5.41,1.77c-4.04,0.89-7.1,3.92-7.32,7.22l-0.07,1.03l-0.76-0.69c-2.49-2.25-5.19-6.68-3.89-14.99c0.86-5.52,3.76-9.44,8.62-11.63
	c5.15-1.93,10.11-1.75,14.77,0.52c6.2,3.03,10.55,9.38,11.65,12.93c5.14,16.45,2.66,26.39-3,37.1
	c-5.15,8.66-14.96,14.13-27.63,15.42l-0.09,0.01l-0.09-0.02l-93.84-25.34l0.13-0.48c0.61-2.29,0.68-4.43,0.21-6.36
	c-0.82-3.34-4.13-5.68-7.68-5.39l-5.05,0.48C66.44,495.8,66.44,495.8,66.43,495.8z"/>
<g>
	<ellipse class="st96" cx="66.24" cy="504.35" rx="4.66" ry="5.81"/>
	<path class="st97" d="M65.45,510.32c-0.28,0-0.55-0.03-0.83-0.09c-2.31-0.48-4.05-3.03-4.05-5.92c0-2.89,1.74-5.44,4.05-5.92
		c0.27-0.06,0.55-0.09,0.83-0.09c2.72,0,4.85,2.64,4.85,6C70.3,507.68,68.17,510.32,65.45,510.32z"/>
	<path class="st98" d="M69.48,504.28c0,3.53-2.62,5.87-5.31,5.34c-2.25-0.45-3.81-2.81-3.81-5.34s1.56-4.89,3.81-5.34
		C66.86,498.4,69.48,500.75,69.48,504.28z"/>
	<path d="M60.64,504.56c0-2.55,1.58-4.93,3.84-5.38c1.29-0.26,2.56,0.15,3.54,1.01c-1.02-1.17-2.48-1.75-3.98-1.45
		c-2.27,0.45-3.84,2.83-3.84,5.38c0,1.72,0.73,3.35,1.88,4.37C61.19,507.47,60.64,506.05,60.64,504.56z"/>
	<path class="st99" d="M64.15,508.98c0,0-3.12-1.3-3.12-5.18c0-1.87,0.9-2.95,1.83-3.58c1.3-0.87,3.04-0.92,4.26,0.05
		c0.49,0.38,0.96,0.94,1.29,1.75c0,0-2.53-2.81-5.18-0.67C60.59,503.49,62.41,507.87,64.15,508.98z"/>
	
		<ellipse transform="matrix(0.4533 -0.8914 0.8914 0.4533 -413.1305 331.617)" class="st99" cx="63.77" cy="502.6" rx="2" ry="1.56"/>
	
		<ellipse transform="matrix(0.4533 -0.8914 0.8914 0.4533 -413.076 331.3897)" class="st100" cx="63.61" cy="502.44" rx="1.31" ry="1.03"/>
	<circle class="st23" cx="63.4" cy="502.18" r="0.4"/>
	<path class="st101" d="M65.25,509.17c0,0,3.67-0.4,3.75-5.77c0,0-2.05-0.55-3.36,1.66C64.35,507.28,65.25,509.17,65.25,509.17z"/>
</g>
<g>
	<ellipse class="st96" cx="86.27" cy="418.66" rx="4.66" ry="5.81"/>
	<path class="st97" d="M85.48,424.63c-0.28,0-0.55-0.03-0.83-0.09c-2.31-0.48-4.05-3.03-4.05-5.92s1.74-5.44,4.05-5.92
		c0.27-0.06,0.55-0.09,0.83-0.09c2.72,0,4.85,2.64,4.85,6C90.33,421.99,88.2,424.63,85.48,424.63z"/>
	<path class="st98" d="M89.51,418.58c0,3.53-2.62,5.87-5.31,5.34c-2.25-0.45-3.81-2.81-3.81-5.34c0-2.53,1.56-4.89,3.81-5.34
		C86.89,412.71,89.51,415.05,89.51,418.58z"/>
	<path d="M80.67,418.86c0-2.55,1.58-4.93,3.84-5.38c1.29-0.26,2.56,0.15,3.54,1.01c-1.02-1.17-2.48-1.75-3.98-1.45
		c-2.27,0.45-3.84,2.83-3.84,5.38c0,1.72,0.73,3.35,1.88,4.37C81.22,421.77,80.67,420.35,80.67,418.86z"/>
	<path class="st99" d="M84.18,423.28c0,0-3.12-1.3-3.12-5.18c0-1.87,0.9-2.95,1.83-3.58c1.3-0.87,3.04-0.92,4.26,0.05
		c0.49,0.38,0.96,0.94,1.29,1.75c0,0-2.53-2.81-5.18-0.67C80.62,417.79,82.44,422.18,84.18,423.28z"/>
	
		<ellipse transform="matrix(0.4533 -0.8914 0.8914 0.4533 -325.7966 302.6227)" class="st99" cx="83.8" cy="416.9" rx="2" ry="1.56"/>
	
		<ellipse transform="matrix(0.4533 -0.8914 0.8914 0.4533 -325.7422 302.3954)" class="st100" cx="83.64" cy="416.75" rx="1.31" ry="1.03"/>
	<circle class="st23" cx="83.43" cy="416.49" r="0.4"/>
	<path class="st101" d="M85.28,423.48c0,0,3.67-0.4,3.75-5.77c0,0-2.05-0.55-3.36,1.66C84.38,421.59,85.28,423.48,85.28,423.48z"/>
</g>
<g>
	<ellipse class="st96" cx="184.05" cy="496.89" rx="4.66" ry="5.81"/>
	<path class="st97" d="M183.26,502.85c-0.28,0-0.55-0.03-0.83-0.09c-2.31-0.48-4.05-3.03-4.05-5.92s1.74-5.44,4.05-5.92
		c0.27-0.06,0.55-0.09,0.83-0.09c2.72,0,4.85,2.64,4.85,6C188.11,500.22,185.98,502.85,183.26,502.85z"/>
	<path class="st98" d="M187.29,496.81c0,3.53-2.62,5.87-5.31,5.34c-2.25-0.45-3.81-2.81-3.81-5.34s1.56-4.89,3.81-5.34
		C184.68,490.94,187.29,493.28,187.29,496.81z"/>
	<path d="M178.45,497.09c0-2.55,1.58-4.93,3.84-5.38c1.29-0.26,2.56,0.15,3.54,1.01c-1.02-1.17-2.48-1.75-3.98-1.45
		c-2.27,0.45-3.84,2.83-3.84,5.38c0,1.72,0.73,3.35,1.88,4.37C179,500,178.45,498.58,178.45,497.09z"/>
	<path class="st99" d="M181.96,501.51c0,0-3.12-1.3-3.12-5.18c0-1.87,0.9-2.95,1.83-3.58c1.3-0.87,3.04-0.92,4.26,0.05
		c0.49,0.38,0.96,0.94,1.29,1.75c0,0-2.53-2.81-5.18-0.67C178.4,496.02,180.22,500.4,181.96,501.51z"/>
	
		<ellipse transform="matrix(0.4533 -0.8914 0.8914 0.4533 -342.0659 432.5483)" class="st99" cx="181.58" cy="495.13" rx="2" ry="1.56"/>
	
		<ellipse transform="matrix(0.4533 -0.8914 0.8914 0.4533 -342.0114 432.321)" class="st100" cx="181.43" cy="494.97" rx="1.31" ry="1.03"/>
	<circle class="st23" cx="181.21" cy="494.71" r="0.4"/>
	<path class="st101" d="M183.07,501.71c0,0,3.67-0.4,3.75-5.77c0,0-2.05-0.55-3.36,1.66C182.16,499.81,183.07,501.71,183.07,501.71z
		"/>
</g>
<path class="st96" d="M87.1,512.18l4.03-1.96c0,0,1.72-21.45,23.53-32.53l-1.96-4.5c0,0-7.53,0.36-18.02,12.27
	C84.2,497.36,83.07,510.16,87.1,512.18z"/>
<path class="st95" d="M78.69,510.52c0,0,2.49-28.03,28.15-40.59l8,4.56c0,0-24.71,8.95-27.79,38.22L78.69,510.52z"/>
<path d="M79.1,509.98l-0.99-0.11c0.03-0.29,3.61-28.94,29.17-40.66l0.42,0.91C82.66,481.6,79.14,509.7,79.1,509.98z"/>
<path d="M87.56,512.41l-1-0.06c0.02-0.26,1.93-26.27,27.27-38.03l0.42,0.91C89.45,486.73,87.58,512.15,87.56,512.41z"/>
<path d="M91.23,510.87l-0.99-0.14c0.03-0.23,3.62-23.29,24.2-33.48l0.44,0.9C94.78,488.09,91.26,510.64,91.23,510.87z"/>
<path d="M138.51,500.76c0-0.11-0.05-10.69-3.85-15.9l0.81-0.59c4,5.48,4.05,16.05,4.05,16.49H138.51z"/>
<path d="M146.54,502.37l-1-0.05c0-0.09,0.45-9.01-2.09-15.19l0.93-0.38C147,493.13,146.56,501.99,146.54,502.37z"/>
<path d="M149.22,501.09c0-0.08-0.3-8.46-2.17-13.06l0.93-0.38c1.95,4.77,2.24,13.06,2.25,13.41L149.22,501.09z"/>
<path class="st102" d="M81.95,501.51c0,0,4.27-15.94,17.6-25.6c0,0,0.12,2.73,2.9,4.86c0,0-10.61,8-14.34,21.69
	C88.11,502.46,85.09,500.92,81.95,501.51z"/>
<path class="st102" d="M102.69,419.79l3.79,30.82c0,0,0.47,6.82,3.08,11.38c0,0-5.57-0.53-7.47-3.85l-4.98-38.94
	c0,0,1.3-4.44,4.03-4.92C101.15,414.28,102.21,416.77,102.69,419.79z"/>
<path class="st102" d="M83.43,429.27c0.18,0.03-2.61-1.36-1.66-5.63c0,0-2.31-1.42-1.84-6.16c0.59-4.39,4.44-5.69,6.46-5.27
	c0,0,3.14-1.72,1.66-4.56c0,0-8.65,0.12-11.14,8.3C74.42,424.11,80.58,428.86,83.43,429.27z"/>
<path class="st102" d="M85.26,425.36c0,0,4.8,0.3,6.04-4.5c1.24-4.8-1.24-7.53-2.61-8.3c0,0,5.1,0.65,4.15,7.76
	C91.55,426.54,85.26,425.36,85.26,425.36z"/>
<path class="st102" d="M116.55,470.75c0-0.18,1.36,2.31,6.58,3.44c5.22,1.13,26.31,6.7,26.31,6.7s-0.65,3.14,0.3,5.69l-27.26-6.82
	C122.48,479.76,116.44,477.69,116.55,470.75z"/>
<path class="st102" d="M177.3,501.15c0,0-11.2-1.36-12.86-12.92s5.04-17.72,5.04-17.72s6.16-7.53,18.07-5.51
	c11.91,2.01,19.97,13.16,19.67,29.57c0,0,7.16-21.2-5.99-32c-13.99-11.5-29.39-4.09-34.67-0.12c-3.79,2.84-11.56,10.07-11.2,24.83
	c0.28,11.61,8.55,17.57,12.07,19.58c1.54,0.88,3.38,1.18,5.06,0.63C174.36,506.9,176.44,505.27,177.3,501.15z"/>
<path class="st102" d="M132.79,525.57l21.87,6.52c0,0,16.53,4.8,31.05-0.89c14.52-5.69,18.25-18.67,18.25-18.67
	s1.9,18.61-19.5,27.79c0,0-11.32,4.21-26.08,0c-14.76-4.21-21.33-6.16-21.33-6.16S133.33,531.5,132.79,525.57z"/>
<path class="st102" d="M65.95,513.78l40.36,11.56c0,0-5.51-3.67-6.64-8.95l-26.25-7.11C73.41,509.27,71.04,514.84,65.95,513.78z"/>
<path class="st102" d="M193.65,537.78c0,0,20.86-7.47,22.88-35.02c2.01-27.56-13.99-39.65-13.87-39.82
	c0.12-0.18,14.58,15.17,12.03,40.36C212.14,528.47,193.65,537.78,193.65,537.78z"/>
<path class="st102" d="M173.8,494.1c-0.1,0.22,0.77-7.59,9.42-7.94s9.66,9.9,9.66,9.9s0.36,8.89-7.23,11.97c0,0,7.35-4.92,5.1-13.1
	c-2.25-8.18-9.48-6.7-9.48-6.7S176.35,488.59,173.8,494.1z"/>
<path class="st103" d="M169.53,533.87c0.17-0.04-8.83-0.06-12.39-1.42c-0.06-0.24-83.74-23.17-83.74-23.17l-0.59,0.95l83.91,23.53
	C156.73,533.75,162.48,535.53,169.53,533.87z"/>
<path class="st103" d="M68.43,496.06c-0.29-0.05,6.22,0.59,5.57,12.03C74,508.09,77.62,497.54,68.43,496.06z"/>
<path class="st103" d="M87.1,506.67c0,0,1.72-16.24,20.27-29.63C107.37,477.04,88.64,485.27,87.1,506.67z"/>
<path class="st103" d="M110.94,466.13c0,0-4.56-6.4-5.39-12.62c-0.83-6.22-4.33-35.2-4.33-35.2s-0.89-9.36-9.66-11.73
	c0,0,6.58,2.19,8.47,12.62l4.21,34.55C104.25,453.75,104.07,458.37,110.94,466.13z"/>
<path class="st103" d="M159.28,499.32c0,0-7.82-8.83-1.84-25.19c5.99-16.36,25.13-17.84,25.13-17.84s-21.93,2.19-25.78,25.72
	C155.37,492.56,159.28,499.32,159.28,499.32z"/>
<path class="st94" d="M204.8,457.95c0,0,6.34-5.87,14.87-5.33s22.52,5.99,31.41,22.99l-2.19-0.41c0,0-7.49-15.64-24.87-20.35
	c-3.38-0.92-6.92-1.02-10.3-0.12c-2.45,0.65-5.32,1.82-7.92,3.94L204.8,457.95z"/>
<path class="st94" d="M220.38,521.07c0,0,13.69,2.79,23.11-1.48s9.42-13.51,8.71-19.38c0,0,1.01,1.84,1.3,4.09
	c0.3,2.25,0.71,12.33-9.66,16.53c-10.37,4.21-25.25,0.95-25.25,0.95L220.38,521.07z"/>
<path class="st94" d="M122.64,488.41c-1.2-1.21-3.87-2.89-8.67-1.2c-6.18,2.17-6.13,9.31-4.27,11.9c0.68,0.98,1.86,0.43,0.87-1.33
	c0,0-2.17-3.97,1.38-7.53c3.79-3.48,8.57-1.54,9.52-0.83S123.19,488.96,122.64,488.41z"/>
<path class="st37" d="M222.1,494.52l32.59-6.7c0,0-0.24-3.38-5.99-4.03l-27.38,5.16C221.33,488.95,222.1,493.15,222.1,494.52z"/>
<path class="st104" d="M101.62,411.14l31.53-4.68c0,0,3.93,1.54,4.6,7.23l-32.87,4.89C104.88,418.57,104.23,414.9,101.62,411.14z"/>
<path class="st104" d="M115.31,466.49l35.68-7.35c0,0,2.13,1.96,5.27,2.79l-36.86,8.12C119.4,470.04,116.44,467.67,115.31,466.49z"
	/>
<path class="st94" d="M145.18,411.79l3.44,28.21c0,0,0.47,12.21,10.49,16.3l8.53,2.37l-2.37,1.42l-7.11-2.37
	c0,0-10.43-3.26-10.84-17.78l-3.5-29.22c0,0-2.79-10.07-13.04-8.42C130.78,402.31,142.93,398.87,145.18,411.79z"/>
<path class="st104" d="M104.88,418.57l1.84,0.8l1.54-1.42l2.31,0.89l1.24-1.42l2.25,1.01c0,0,1.36-1.54,1.54-1.48
	c0.18,0.06,2.31,0.95,2.31,0.95l1.9-1.48l2.61,0.77l1.72-1.48l2.25,1.13l1.9-1.6l2.25,1.07l1.42-1.78l2.07,1.13
	c0,0,1.01-1.6,1.19-1.54c0.18,0.06,2.49,1.3,2.49,1.3s-0.12-1.78-0.12-2.07c0-0.3,0.65-1.72-1.96-2.55
	c-2.61-0.83-30.7,4.44-30.7,4.44L104.88,418.57z"/>
<path d="M134.36,400.31c11.19,0,12.39,12.55,12.39,12.55s1.26,11.55,3.32,25.95c2.06,14.4,11.28,16.79,11.28,16.79l9.62,2.29
	c2.67-1.25,8.26-3.39,15.23-3.39c4.19,0,8.89,0.78,13.74,2.99c0.59,0.27,1.17,0.56,1.73,0.86c2.43-2.49,5.2-4.25,8.18-5.33
	c0.03-0.01,0.04-0.03,0.07-0.04c0.97-0.42,2.74-1.11,5.2-1.86c2.03-0.62,4.15-0.93,6.31-0.98c0.34-0.01,0.67-0.02,1.01-0.02
	c8.54,0,17.65,4.15,24.69,11.03c4.83,4.72,8.94,11.16,11.94,18.16c2.03,1.17,4.57,3.6,4.37,8.39c-0.04,1.06-0.31,1.94-0.7,2.71
	c2.99,12.58,2.01,25.1-5.06,31.67c-3.16,2.93-12.33,7.82-20.02,8.48c-1.68,0.24-3.34,0.35-4.96,0.4c-0.06,0-0.12,0-0.18,0.01
	c-0.35,0.01-0.71,0.02-1.05,0.02c-0.23,0-0.45,0-0.68,0c-8.08,0-14.57-1.84-14.57-1.84l-4.41-1.13c-3.64,4.82-8.64,9.19-15.54,12.23
	c-7.38,3.37-14.6,4.38-20.6,4.38c-8.95,0-15.19-2.24-15.19-2.24l-96.79-27.89c-4.31-1.37-6.24-5.61-6.23-9.63
	c-0.04-2.42,0.62-4.78,1.89-6.41c1.74-2.24,4.22-3.25,6.62-3.25c0.01,0,0.01,0,0.02,0l5.06-0.48c0.2-0.02,0.4-0.02,0.61-0.02
	c3.53,0,6.75,2.33,7.6,5.8c0.22,0.9,0.34,1.91,0.32,3.03c0,0.05,0,0.1,0,0.15c2.17-7.74,7.54-20.83,20.14-29.65
	c0.05-0.03,0.09-0.07,0.14-0.1c0.48-0.34,0.98-0.66,1.48-0.98c0.31-0.2,0.62-0.4,0.93-0.59c0.21-0.12,0.41-0.25,0.62-0.37
	c0.98-0.58,2-1.15,3.06-1.68c-0.14-0.21-0.3-0.4-0.44-0.61c-4.53-6.99-5.39-14.15-5.39-14.15l-3.95-31.76
	c-1.79,6.8-8.37,7.18-9.8,7.18c-0.18,0-0.28-0.01-0.28-0.01c-15.09,0-15.28-22.73,1.36-24.59c0.76-0.08,1.48-0.12,2.17-0.12
	c3.95,0,6.85,1.32,8.99,3.17l24.91-3.51c1.66-2.79,4.64-4.98,9-5.47C133.17,400.34,133.77,400.31,134.36,400.31 M212.4,466.88
	c0.02,0,0.04-0.01,0.06-0.01c0.04,0,0.08,0.02,0.17,0.14l26.31,6.4c-6.72-8.84-14.78-11.83-20.45-11.97
	c-0.04-0.01-0.09-0.01-0.13-0.01c-1.41,0-4.68,2.78-6.13,5.3C212.31,466.86,212.36,466.88,212.4,466.88 M172.91,531.91
	c7.87-0.89,15.1-3.01,20.92-8.3l-82.26-21.26c-5.99-1.62-6.16-9.84-2.49-13.87c0.97-1.06,2.28-1.86,3.73-2.38
	c0,0,0.01-0.01,0.01-0.01c1.22-0.49,4.18-1.66,5.84-1.99c0.77-0.15,1.56-0.23,2.33-0.23c0.02,0,0.05,0,0.07,0c0.1,0,0.2,0,0.3,0
	c2.93,0,5.68,1.11,6.81,3.52c2.25,4.8,0.03,7.53,0.03,7.53l10.02,2.31c-0.17-5-1.58-8.96-3.57-12.43l-12.39-3.23
	c-2.91-0.76-5.67-1.97-8.2-3.54c-11.47,7.18-18.95,16.9-22.73,31.77L172.91,531.91 M147.13,488.22l-0.03-0.17l-0.02-0.01
	C147.1,488.1,147.12,488.16,147.13,488.22 M160,503.43c-3.35-3.63-5.44-8.32-6.15-13.61l-6.73-1.76c1.66,4.13,2.08,11,2.17,12.74
	L160,503.43 M233.56,519.79c0.74,0,1.48-0.03,2.19-0.08c2.15-0.19,4.08-0.53,5.83-0.99c8.44-4.22,10.48-12.35,8.02-22.83
	l-28.57,6.61c-0.34,4.02-1.25,9.44-3.44,15.07l0.03,0.01C217.62,517.57,226.01,519.76,233.56,519.79 M201.51,513.61
	c0.52-1.14,0.99-2.3,1.43-3.47c0.74-2.16,1.36-4.52,1.76-7.06L196.7,501c-2.91,4.01-7.83,6.95-10.93,8.25
	c-0.23,0.12-0.47,0.22-0.71,0.33L201.51,513.61 M91.63,505.62c0.01-0.03,0.02-0.06,0.03-0.08l-0.01,0.01
	C91.64,505.57,91.64,505.59,91.63,505.62 M149.68,499.83C149.68,499.83,149.68,499.83,149.68,499.83S149.68,499.83,149.68,499.83
	 M149.68,499.83L149.68,499.83L149.68,499.83 M149.68,499.83L149.68,499.83L149.68,499.83 M149.68,499.83L149.68,499.83
	L149.68,499.83 M149.68,499.83C149.68,499.83,149.68,499.83,149.68,499.83C149.68,499.83,149.68,499.83,149.68,499.83
	 M149.68,499.83C149.68,499.83,149.68,499.83,149.68,499.83C149.68,499.83,149.68,499.83,149.68,499.83 M149.68,499.83
	C149.68,499.83,149.68,499.83,149.68,499.83C149.68,499.83,149.68,499.83,149.68,499.83 M149.68,499.83L149.68,499.83L149.68,499.83
	 M149.68,499.83C149.68,499.83,149.68,499.83,149.68,499.83C149.68,499.83,149.68,499.83,149.68,499.83 M149.68,499.83
	C149.68,499.83,149.68,499.83,149.68,499.83S149.68,499.83,149.68,499.83 M149.68,499.83C149.68,499.83,149.68,499.83,149.68,499.83
	S149.68,499.83,149.68,499.83 M149.68,499.83L149.68,499.83L149.68,499.83 M149.68,499.83
	C149.68,499.83,149.68,499.83,149.68,499.83C149.68,499.83,149.68,499.83,149.68,499.83 M149.68,499.83
	C149.68,499.83,149.68,499.83,149.68,499.83C149.68,499.83,149.68,499.83,149.68,499.83 M149.68,499.83L149.68,499.83L149.68,499.83
	 M149.68,499.83C149.68,499.83,149.68,499.83,149.68,499.83C149.68,499.83,149.68,499.83,149.68,499.83 M149.68,499.83
	C149.68,499.83,149.68,499.83,149.68,499.83C149.68,499.83,149.68,499.83,149.68,499.83 M149.68,499.83
	C149.68,499.83,149.68,499.83,149.68,499.83C149.68,499.83,149.68,499.83,149.68,499.83 M149.68,499.83
	C149.68,499.83,149.68,499.83,149.68,499.83C149.68,499.83,149.68,499.83,149.68,499.83 M149.68,499.83L149.68,499.83L149.68,499.83
	 M149.68,499.83C149.68,499.83,149.68,499.83,149.68,499.83C149.68,499.83,149.68,499.83,149.68,499.83 M149.68,499.83
	L149.68,499.83L149.68,499.83 M149.68,499.83C149.68,499.83,149.68,499.83,149.68,499.83C149.68,499.83,149.68,499.83,149.68,499.83
	 M149.68,499.83C149.68,499.83,149.68,499.83,149.68,499.83C149.68,499.83,149.68,499.83,149.68,499.83 M149.68,499.83
	C149.68,499.83,149.68,499.83,149.68,499.83C149.68,499.83,149.68,499.83,149.68,499.83 M149.68,499.83
	C149.68,499.83,149.68,499.83,149.68,499.83C149.68,499.83,149.68,499.83,149.68,499.83 M149.68,499.83
	C149.68,499.83,149.68,499.83,149.68,499.83C149.68,499.83,149.68,499.83,149.68,499.83 M149.68,499.83
	C149.68,499.83,149.68,499.83,149.68,499.83C149.68,499.83,149.68,499.83,149.68,499.83 M149.68,499.84
	C149.68,499.84,149.68,499.84,149.68,499.84C149.68,499.84,149.68,499.84,149.68,499.84 M149.68,499.84
	C149.68,499.84,149.68,499.84,149.68,499.84C149.68,499.84,149.68,499.84,149.68,499.84 M149.68,499.84
	C149.68,499.84,149.68,499.84,149.68,499.84C149.68,499.84,149.68,499.84,149.68,499.84 M149.68,499.84
	C149.68,499.84,149.68,499.84,149.68,499.84C149.68,499.84,149.68,499.84,149.68,499.84 M149.68,499.84
	C149.68,499.84,149.68,499.84,149.68,499.84C149.68,499.84,149.68,499.84,149.68,499.84 M149.68,499.84
	C149.68,499.84,149.68,499.84,149.68,499.84C149.68,499.84,149.68,499.84,149.68,499.84 M149.68,499.84
	C149.68,499.84,149.68,499.84,149.68,499.84C149.68,499.84,149.68,499.84,149.68,499.84 M149.68,499.84
	C149.68,499.84,149.68,499.85,149.68,499.84C149.68,499.85,149.68,499.84,149.68,499.84 M149.68,499.85
	C149.68,499.85,149.68,499.85,149.68,499.85C149.68,499.85,149.68,499.85,149.68,499.85 M149.68,499.85
	C149.68,499.85,149.68,499.85,149.68,499.85C149.68,499.85,149.68,499.85,149.68,499.85 M149.68,499.85
	C149.68,499.85,149.68,499.85,149.68,499.85L149.68,499.85 M149.68,499.85C149.68,499.85,149.68,499.85,149.68,499.85
	C149.68,499.85,149.68,499.85,149.68,499.85 M149.68,499.85C149.68,499.85,149.68,499.85,149.68,499.85
	C149.68,499.85,149.68,499.85,149.68,499.85 M149.68,499.85C149.68,499.85,149.68,499.85,149.68,499.85
	C149.68,499.85,149.68,499.85,149.68,499.85 M149.68,499.85C149.68,499.85,149.68,499.85,149.68,499.85
	C149.68,499.85,149.68,499.85,149.68,499.85 M149.68,499.85C149.68,499.85,149.68,499.85,149.68,499.85
	C149.68,499.85,149.68,499.85,149.68,499.85 M149.68,499.85C149.68,499.86,149.68,499.86,149.68,499.85
	C149.68,499.86,149.68,499.86,149.68,499.85 M149.68,499.86C149.68,499.86,149.68,499.86,149.68,499.86
	C149.68,499.86,149.68,499.86,149.68,499.86 M149.68,499.86C149.68,499.86,149.68,499.86,149.68,499.86
	C149.68,499.86,149.68,499.86,149.68,499.86 M149.68,499.86C149.68,499.86,149.68,499.86,149.68,499.86
	C149.68,499.86,149.68,499.86,149.68,499.86 M149.68,499.87C149.68,499.87,149.68,499.87,149.68,499.87
	C149.68,499.87,149.68,499.87,149.68,499.87 M149.68,499.87C149.68,499.87,149.68,499.87,149.68,499.87
	C149.68,499.87,149.68,499.87,149.68,499.87 M149.68,499.87C149.68,499.88,149.68,499.88,149.68,499.87
	C149.68,499.88,149.68,499.88,149.68,499.87 M149.68,499.88C149.68,499.88,149.68,499.88,149.68,499.88
	C149.68,499.88,149.68,499.88,149.68,499.88 M149.68,499.88C149.68,499.88,149.68,499.88,149.68,499.88
	C149.68,499.88,149.68,499.88,149.68,499.88 M149.68,499.88L149.68,499.88L149.68,499.88 M149.68,499.88
	C149.68,499.88,149.68,499.89,149.68,499.88C149.68,499.89,149.68,499.88,149.68,499.88 M149.68,499.89
	C149.68,499.89,149.68,499.89,149.68,499.89C149.68,499.89,149.68,499.89,149.68,499.89 M149.68,499.89
	C149.68,499.89,149.68,499.89,149.68,499.89C149.68,499.89,149.68,499.89,149.68,499.89 M149.68,499.89c0,0,0,0.01,0,0.01
	C149.68,499.89,149.68,499.89,149.68,499.89 M149.68,499.9C149.68,499.9,149.68,499.9,149.68,499.9
	C149.68,499.9,149.68,499.9,149.68,499.9 M149.68,499.9C149.68,499.9,149.68,499.9,149.68,499.9
	C149.68,499.9,149.68,499.9,149.68,499.9 M149.68,499.9C149.68,499.9,149.68,499.9,149.68,499.9
	C149.68,499.9,149.68,499.9,149.68,499.9 M149.68,499.91C149.68,499.91,149.68,499.91,149.68,499.91
	C149.68,499.91,149.68,499.91,149.68,499.91 M149.68,499.91C149.68,499.91,149.68,499.91,149.68,499.91
	C149.68,499.91,149.68,499.91,149.68,499.91 M149.68,499.91C149.68,499.91,149.68,499.91,149.68,499.91
	C149.68,499.91,149.68,499.91,149.68,499.91 M149.68,499.91C149.68,499.91,149.68,499.91,149.68,499.91
	C149.68,499.91,149.68,499.91,149.68,499.91 M149.68,499.92C149.68,499.92,149.68,499.92,149.68,499.92
	C149.68,499.92,149.68,499.92,149.68,499.92 M149.68,499.92C149.68,499.92,149.68,499.92,149.68,499.92
	C149.68,499.92,149.68,499.92,149.68,499.92 M149.68,499.92C149.68,499.92,149.68,499.92,149.68,499.92
	C149.68,499.92,149.68,499.92,149.68,499.92 M149.68,499.92C149.68,499.93,149.68,499.93,149.68,499.92
	C149.68,499.93,149.68,499.93,149.68,499.92 M149.68,499.93C149.68,499.93,149.68,499.93,149.68,499.93
	C149.68,499.93,149.68,499.93,149.68,499.93 M149.68,499.94C149.68,499.94,149.68,499.94,149.68,499.94
	C149.68,499.94,149.68,499.94,149.68,499.94 M149.68,499.94C149.68,499.94,149.68,499.94,149.68,499.94
	C149.68,499.94,149.68,499.94,149.68,499.94 M149.68,499.94C149.68,499.94,149.68,499.94,149.68,499.94
	C149.68,499.94,149.68,499.94,149.68,499.94 M149.68,499.95C149.68,499.95,149.68,499.95,149.68,499.95
	C149.68,499.95,149.68,499.95,149.68,499.95 M149.68,499.95C149.68,499.95,149.68,499.95,149.68,499.95
	C149.68,499.95,149.68,499.95,149.68,499.95 M149.68,499.95C149.68,499.95,149.68,499.95,149.68,499.95
	C149.68,499.95,149.68,499.95,149.68,499.95 M149.68,499.95c0,0,0,0.01,0,0.01C149.68,499.96,149.68,499.96,149.68,499.95
	 M149.68,499.97C149.68,499.97,149.68,499.97,149.68,499.97C149.68,499.97,149.68,499.97,149.68,499.97 M149.68,499.97
	c0,0,0,0.01,0,0.01C149.68,499.98,149.68,499.97,149.68,499.97 M149.68,499.98C149.68,499.98,149.68,499.98,149.68,499.98
	C149.68,499.98,149.68,499.98,149.68,499.98 M149.68,499.99C149.68,499.99,149.68,499.99,149.68,499.99
	C149.68,499.99,149.68,499.99,149.68,499.99 M149.68,500C149.68,500,149.68,500,149.68,500C149.68,500,149.68,500,149.68,500
	 M149.68,500c0,0,0,0.01,0,0.01C149.68,500.01,149.68,500,149.68,500 M149.68,500.01C149.68,500.01,149.68,500.01,149.68,500.01
	C149.68,500.01,149.68,500.01,149.68,500.01 M149.68,500.01C149.68,500.01,149.68,500.01,149.68,500.01
	C149.68,500.01,149.68,500.01,149.68,500.01 M149.68,500.01C149.68,500.02,149.68,500.02,149.68,500.01
	C149.68,500.02,149.68,500.02,149.68,500.01 M149.68,500.02c0,0,0,0.01,0,0.01C149.68,500.02,149.68,500.02,149.68,500.02
	 M149.68,500.03C149.68,500.03,149.68,500.03,149.68,500.03C149.68,500.03,149.68,500.03,149.68,500.03 M149.68,500.03
	C149.68,500.03,149.68,500.03,149.68,500.03C149.68,500.03,149.68,500.03,149.68,500.03 M149.68,500.04
	C149.68,500.04,149.68,500.04,149.68,500.04C149.68,500.04,149.68,500.04,149.68,500.04 M149.68,500.04
	C149.68,500.04,149.68,500.04,149.68,500.04C149.68,500.04,149.68,500.04,149.68,500.04 M149.68,500.04
	C149.68,500.04,149.68,500.04,149.68,500.04C149.68,500.04,149.68,500.04,149.68,500.04 M149.68,500.04
	C149.68,500.04,149.68,500.04,149.68,500.04C149.68,500.05,149.68,500.04,149.68,500.04 M149.68,500.05
	C149.68,500.05,149.68,500.05,149.68,500.05C149.68,500.05,149.68,500.05,149.68,500.05 M149.68,500.05
	C149.68,500.05,149.68,500.05,149.68,500.05C149.68,500.05,149.68,500.05,149.68,500.05 M149.68,500.05
	C149.68,500.05,149.68,500.05,149.68,500.05C149.68,500.05,149.68,500.05,149.68,500.05 M149.68,500.05
	C149.68,500.05,149.68,500.05,149.68,500.05C149.68,500.05,149.68,500.05,149.68,500.05 M149.68,500.05c0,0,0,0.01,0,0.01
	C149.68,500.06,149.68,500.06,149.68,500.05 M149.68,500.07C149.68,500.07,149.68,500.07,149.68,500.07
	C149.68,500.07,149.68,500.07,149.68,500.07 M149.68,500.07C149.68,500.07,149.68,500.07,149.68,500.07
	C149.68,500.07,149.68,500.07,149.68,500.07 M149.68,500.07C149.68,500.07,149.68,500.07,149.68,500.07
	C149.68,500.07,149.68,500.07,149.68,500.07 M149.68,500.07C149.68,500.07,149.68,500.08,149.68,500.07
	C149.68,500.08,149.68,500.07,149.68,500.07 M149.68,500.08C149.68,500.08,149.68,500.08,149.68,500.08
	C149.68,500.08,149.68,500.08,149.68,500.08 M149.68,500.08C149.68,500.08,149.68,500.08,149.68,500.08
	C149.68,500.08,149.68,500.08,149.68,500.08 M149.68,500.08C149.68,500.08,149.68,500.08,149.68,500.08
	C149.68,500.08,149.68,500.08,149.68,500.08 M149.68,500.08C149.68,500.08,149.68,500.08,149.68,500.08
	C149.68,500.08,149.68,500.08,149.68,500.08 M149.68,500.08C149.68,500.09,149.68,500.09,149.68,500.08
	C149.68,500.09,149.68,500.09,149.68,500.08 M149.68,500.09C149.68,500.09,149.68,500.09,149.68,500.09
	C149.68,500.09,149.68,500.09,149.68,500.09 M149.68,500.09C149.68,500.09,149.68,500.09,149.68,500.09
	C149.68,500.09,149.68,500.09,149.68,500.09 M149.68,500.09C149.68,500.09,149.68,500.09,149.68,500.09
	C149.68,500.09,149.68,500.09,149.68,500.09 M149.68,500.09C149.68,500.1,149.68,500.1,149.68,500.09
	C149.68,500.1,149.68,500.1,149.68,500.09 M149.68,500.1L149.68,500.1L149.68,500.1 M149.68,500.1
	C149.68,500.1,149.68,500.1,149.68,500.1C149.68,500.1,149.68,500.1,149.68,500.1 M149.68,500.1
	C149.68,500.1,149.68,500.11,149.68,500.1C149.68,500.11,149.68,500.1,149.68,500.1 M149.68,500.11
	C149.68,500.11,149.68,500.11,149.68,500.11C149.68,500.11,149.68,500.11,149.68,500.11 M149.68,500.11
	C149.68,500.11,149.68,500.11,149.68,500.11C149.68,500.11,149.68,500.11,149.68,500.11 M149.68,500.11c0,0,0,0.01,0,0.01
	C149.68,500.12,149.68,500.12,149.68,500.11 M149.68,500.12C149.68,500.12,149.68,500.13,149.68,500.12
	C149.68,500.13,149.68,500.12,149.68,500.12 M149.68,500.13c0,0,0,0.01,0,0.01C149.68,500.14,149.68,500.13,149.68,500.13
	 M149.68,500.14C149.68,500.14,149.68,500.14,149.68,500.14C149.68,500.14,149.68,500.14,149.68,500.14 M149.68,500.14
	C149.68,500.14,149.68,500.14,149.68,500.14C149.68,500.14,149.68,500.14,149.68,500.14 M149.68,500.14
	C149.68,500.14,149.68,500.14,149.68,500.14C149.68,500.14,149.68,500.14,149.68,500.14 M149.68,500.14
	C149.68,500.14,149.68,500.14,149.68,500.14S149.68,500.14,149.68,500.14 M149.68,500.14C149.68,500.15,149.68,500.15,149.68,500.14
	C149.68,500.15,149.68,500.14,149.68,500.14 M134.36,397.31C134.36,397.31,134.36,397.31,134.36,397.31c-0.7,0-1.43,0.04-2.16,0.12
	c-4.38,0.49-8.02,2.48-10.41,5.66l-22.32,3.15c-2.77-2-6.07-3.02-9.84-3.02c-0.81,0-1.65,0.05-2.5,0.14
	c-10.56,1.18-15.66,9.55-15.23,17.2c0.44,7.85,6.24,13.34,14.13,13.37c0.08,0,0.19,0.01,0.35,0.01c2.56,0,5.38-0.66,7.76-2.26
	l3.01,24.22c0.03,0.28,0.83,6.55,4.57,13.29c-0.12,0.07-0.24,0.14-0.36,0.21l-0.04,0.02c-0.2,0.12-0.41,0.24-0.61,0.36
	c-0.35,0.22-0.68,0.42-1,0.64c-0.57,0.36-1.08,0.7-1.56,1.04l-0.11,0.08l-0.05,0.04c-9.67,6.77-15.29,15.92-18.5,23.38
	c-1.98-2.03-4.78-3.26-7.83-3.26c-0.28,0-0.55,0.01-0.83,0.03l-0.03,0l-0.03,0l-4.94,0.47c-3.5,0.05-6.71,1.65-8.85,4.4
	c-1.65,2.12-2.57,5.14-2.52,8.28c0,5.97,3.27,10.86,8.32,12.46l0.04,0.01l0.04,0.01l96.71,27.87c0.91,0.31,7.26,2.38,16.1,2.38
	c7.74,0,15.09-1.56,21.85-4.65c6.09-2.68,11.29-6.57,15.44-11.57l2.49,0.64c0.65,0.18,7.2,1.95,15.34,1.95c0.24,0,0.48,0,0.72,0
	c0.29,0,0.6-0.01,0.91-0.02l0.18-0.01l0.08,0l0.12,0c1.85-0.06,3.56-0.19,5.19-0.42c8.36-0.74,18.14-5.94,21.72-9.26
	c7.21-6.7,9.44-18.9,6.16-33.59c0.33-0.91,0.51-1.87,0.55-2.86c0.18-4.49-1.58-8.19-4.99-10.55c-3.23-7.29-7.44-13.59-12.22-18.27
	c-7.73-7.55-17.49-11.88-26.79-11.88c-0.38,0-0.75,0.01-1.13,0.02c-2.45,0.06-4.84,0.43-7.07,1.11c-2.55,0.77-4.41,1.5-5.51,1.97
	l-0.22,0.09c-2.7,1.02-5.17,2.51-7.39,4.43c-4.72-2.15-9.75-3.24-14.93-3.24c-6.77,0-12.34,1.86-15.53,3.24l-8.58-2.04
	c-0.39-0.12-7.35-2.38-9.06-14.31c-2.03-14.18-3.29-25.74-3.31-25.86C149.23,407.3,145.37,397.31,134.36,397.31L134.36,397.31
	L134.36,397.31z M217.59,465.14c0.4-0.32,0.76-0.56,1.01-0.69c1.66,0.07,5.55,0.56,10.03,3.37L217.59,465.14L217.59,465.14z
	 M111.65,483.35c0.81-0.61,1.66-1.21,2.53-1.79c0.31,0.17,0.62,0.33,0.93,0.49c-1.17,0.41-2.38,0.88-3.39,1.28l-0.01,0
	C111.68,483.33,111.66,483.34,111.65,483.35L111.65,483.35z M132.14,492.76c0.19-1.53,0.06-3.46-0.84-5.73l1.36,0.36
	c1.01,1.96,1.71,3.92,2.13,5.98L132.14,492.76L132.14,492.76z M95.06,507.7c2.17-7.2,5.33-13.11,9.77-18.11
	c-1.26,2.78-1.57,6.07-0.72,8.99c0.98,3.36,3.41,5.79,6.68,6.68l76.07,19.66c-3.69,2.01-8.13,3.27-13.72,3.95L95.06,507.7
	L95.06,507.7z M152.11,498.09c-0.1-1.15-0.24-2.52-0.46-3.97c0.43,1.59,0.98,3.12,1.64,4.57l-0.96-0.24
	C152.27,498.33,152.2,498.21,152.11,498.09L152.11,498.09z M223.79,504.93l23.45-5.43c1.21,8.01-1.01,13.39-6.74,16.39
	c-1.55,0.39-3.23,0.67-5.02,0.83c-0.56,0.04-1.23,0.07-1.93,0.07c-4.32-0.02-9.01-0.8-12.02-1.41
	C222.77,511.47,223.44,507.83,223.79,504.93L223.79,504.93z M193.19,508.49c1.65-1.18,3.25-2.55,4.62-4.1l3.4,0.89
	c-0.3,1.31-0.67,2.6-1.11,3.87c-0.12,0.32-0.24,0.64-0.36,0.95L193.19,508.49L193.19,508.49z"/>
<path class="st38" d="M126.45,443.13c-0.73,0-1.36-0.55-1.51-1.31l-0.13-0.68l-0.09,0.16c-0.22,0.37-0.58,0.63-0.99,0.71
	c-0.06,0.01-0.21,0.03-0.27,0.03c-0.33,0-0.65-0.11-0.92-0.32c-0.03-0.02-0.05-0.04-0.07-0.06c-0.3-0.09-0.55-0.27-0.74-0.51
	c-0.13-0.17-0.22-0.3-0.33-0.7c-0.2,0.17-0.43,0.29-0.69,0.34c-0.05,0.01-0.21,0.02-0.26,0.02c-0.33,0-0.65-0.12-0.92-0.32
	c-0.63-0.49-0.8-1.43-0.4-2.12l0.03-0.06l-0.31,0.06c-0.05,0.01-0.21,0.02-0.26,0.02c-0.73,0-1.37-0.55-1.51-1.31
	c-0.01-0.04-0.01-0.08-0.02-0.11c-0.16-0.27-0.23-0.57-0.23-0.89c0.01-0.27,0.03-0.44,0.32-1l-0.51,0.1
	c-0.06,0.01-0.21,0.02-0.26,0.02c-0.73,0-1.37-0.55-1.51-1.31c-0.16-0.86,0.37-1.69,1.18-1.84l0.58-0.11l-0.3-0.24
	c-0.63-0.5-0.8-1.43-0.4-2.12c0.01-0.03,0.03-0.05,0.05-0.08c0.06-0.32,0.2-0.6,0.43-0.83c0.19-0.2,0.36-0.31,0.88-0.44l-0.07-0.05
	c-0.63-0.5-0.81-1.43-0.4-2.12c0.27-0.46,0.74-0.73,1.25-0.73c0.23,0,0.46,0.05,0.66,0.16l-0.02-0.12
	c-0.08-0.43,0.01-0.88,0.25-1.23c0.22-0.33,0.56-0.55,0.94-0.62c0.01,0,0.03,0,0.04-0.01c0.23-0.15,0.5-0.23,0.78-0.23
	c0.03,0,0.11,0,0.14,0.01c0.21,0.02,0.36,0.05,0.63,0.21l-0.12-0.66c-0.08-0.43,0.01-0.88,0.25-1.23c0.22-0.33,0.56-0.55,0.94-0.62
	c0.05-0.01,0.21-0.02,0.26-0.02c0.73,0,1.37,0.55,1.51,1.31l0.13,0.71c0.27-0.45,0.74-0.71,1.25-0.71c0.33,0,0.65,0.11,0.92,0.32
	c0.03,0.02,0.05,0.04,0.08,0.06c0.3,0.09,0.55,0.27,0.74,0.51c0.12,0.15,0.2,0.27,0.3,0.6c0.27-0.3,0.66-0.48,1.07-0.48
	c0.33,0,0.65,0.11,0.92,0.32c0.63,0.5,0.8,1.43,0.4,2.12l-0.16,0.28l0.34-0.06c0.06-0.01,0.21-0.02,0.26-0.02
	c0.73,0,1.36,0.55,1.51,1.31c0.01,0.04,0.01,0.08,0.02,0.11c0.15,0.27,0.23,0.57,0.22,0.89c-0.01,0.23-0.04,0.41-0.22,0.79l0.5-0.09
	c0.05-0.01,0.21-0.02,0.26-0.02c0.73,0,1.37,0.55,1.51,1.31c0.16,0.86-0.37,1.69-1.18,1.84l-0.87,0.16l0.5,0.4
	c0.63,0.5,0.81,1.43,0.4,2.12c-0.01,0.03-0.03,0.05-0.05,0.08c-0.06,0.32-0.2,0.6-0.43,0.83c-0.16,0.16-0.31,0.27-0.62,0.37
	c0.55,0.51,0.69,1.38,0.3,2.04c-0.22,0.37-0.58,0.63-1,0.71c-0.05,0.01-0.21,0.02-0.26,0.02c-0.29,0-0.57-0.08-0.81-0.25l0.08,0.42
	c0.08,0.43-0.01,0.88-0.25,1.23c-0.22,0.33-0.56,0.55-0.94,0.62c-0.01,0-0.03,0-0.04,0.01c-0.23,0.15-0.5,0.23-0.78,0.23
	c-0.03,0-0.11,0-0.14-0.01c-0.16-0.02-0.3-0.04-0.48-0.13l0.07,0.37c0.08,0.43-0.01,0.88-0.25,1.23c-0.22,0.33-0.56,0.55-0.94,0.62
	C126.66,443.12,126.51,443.13,126.45,443.13z M123.79,436.8l0.17-0.28l-0.04-0.19l-0.16,0.28
	C123.76,436.67,123.78,436.74,123.79,436.8z M120.97,434.71l0.35-0.07l0.24-0.41l-0.35,0.06
	C121.13,434.44,121.05,434.58,120.97,434.71z M128.87,433.42C128.87,433.42,128.88,433.42,128.87,433.42l-0.55-0.44l-0.01,0
	L128.87,433.42z M120.68,431.16l0.3-0.06l-0.36-0.28c-0.1,0.02-0.2,0.03-0.3,0.05L120.68,431.16z M127.73,429.84l0.38-0.07
	c0.04-0.07,0.08-0.13,0.12-0.2l-0.39,0.07L127.73,429.84z M122.41,428.31l-0.05-0.25c-0.03-0.02-0.05-0.04-0.07-0.06l0.05,0.25
	L122.41,428.31z M125.37,427.75l0.06-0.11c-0.01-0.05-0.02-0.11-0.03-0.16l-0.06,0.11L125.37,427.75z"/>
<path class="st105" d="M132.79,429.82l-2.44,0.46c1.07-1.77,1.07-1.89,1.08-2.07c0.01-0.22-0.08-0.42-0.22-0.56
	c0.01-0.08,0.01-0.16,0-0.25c-0.07-0.37-0.39-0.62-0.71-0.56l-2.31,0.43l1.18-2c0.18-0.3,0.1-0.73-0.18-0.94
	c-0.28-0.22-0.64-0.15-0.82,0.15l-1.04,1.76c-0.4-2.29-0.47-2.38-0.59-2.52c-0.13-0.17-0.32-0.25-0.5-0.24
	c-0.04-0.07-0.09-0.13-0.16-0.18c-0.28-0.22-0.64-0.15-0.82,0.15l-1.22,2.08l-0.58-3.11c-0.07-0.37-0.39-0.62-0.71-0.56
	c-0.32,0.06-0.53,0.41-0.46,0.78l0.56,2.99c-1.78-1.45-1.89-1.46-2.06-1.48c-0.19-0.02-0.37,0.07-0.48,0.23
	c-0.07-0.02-0.15-0.02-0.22-0.01c-0.32,0.06-0.53,0.41-0.46,0.78l0.46,2.47l-1.65-1.3c-0.28-0.22-0.64-0.15-0.82,0.15
	c-0.18,0.3-0.1,0.73,0.18,0.94l1.63,1.29c-2.15,0.37-2.23,0.44-2.35,0.57c-0.14,0.14-0.2,0.35-0.18,0.56
	c-0.06,0.04-0.11,0.1-0.15,0.17c-0.18,0.3-0.1,0.73,0.18,0.94l1.88,1.49l-2.55,0.48c-0.32,0.06-0.53,0.41-0.46,0.78
	s0.39,0.62,0.71,0.56l2.48-0.46c-1.2,1.98-1.2,2.09-1.21,2.29c-0.01,0.22,0.08,0.42,0.22,0.56c-0.01,0.08-0.01,0.16,0,0.25
	c0.07,0.37,0.39,0.62,0.71,0.56l2.28-0.43l-1.05,1.79c-0.18,0.3-0.1,0.73,0.18,0.94c0.14,0.11,0.3,0.15,0.45,0.12
	c0.15-0.03,0.29-0.12,0.37-0.27l0.94-1.59c0.41,2.33,0.48,2.41,0.59,2.56c0.13,0.17,0.32,0.25,0.5,0.24
	c0.04,0.07,0.09,0.13,0.16,0.18c0.14,0.11,0.3,0.15,0.45,0.12c0.15-0.03,0.29-0.12,0.37-0.27l1.33-2.26l0.58,3.07
	c0.07,0.37,0.39,0.62,0.71,0.56c0.32-0.06,0.53-0.41,0.46-0.78l-0.5-2.66c1.63,1.32,1.73,1.33,1.9,1.35
	c0.19,0.02,0.37-0.07,0.48-0.23c0.07,0.02,0.14,0.02,0.22,0.01c0.32-0.06,0.53-0.41,0.46-0.78l-0.53-2.81l1.8,1.43
	c0.14,0.11,0.3,0.15,0.45,0.12c0.15-0.03,0.29-0.12,0.37-0.27c0.18-0.3,0.1-0.73-0.18-0.94l-1.43-1.13c1.87-0.32,1.94-0.4,2.06-0.52
	c0.14-0.14,0.2-0.35,0.18-0.56c0.06-0.04,0.11-0.1,0.15-0.17c0.18-0.3,0.1-0.73-0.18-0.94l-2.07-1.64l2.84-0.53
	c0.32-0.06,0.53-0.41,0.46-0.78C133.43,430.01,133.11,429.76,132.79,429.82z M130.05,428.31c-0.3,0.52-0.83,1.41-1.37,2.29
	l-2.75,0.52l1.34-2.28L130.05,428.31z M125.87,424.91c0.13,0.65,0.33,1.79,0.52,2.92l-1.47,2.5l-0.54-2.89L125.87,424.91z
	 M120.94,425.75c0.51,0.39,1.4,1.12,2.26,1.82l0.56,2.97l-2.25-1.78L120.94,425.75z M118.16,430.33c0.6-0.12,1.67-0.31,2.7-0.48
	l2.25,1.78l-2.68,0.5L118.16,430.33z M119.15,435.98c0.32-0.56,0.92-1.56,1.5-2.5l2.71-0.51l-1.47,2.5L119.15,435.98z
	 M123.33,439.38c-0.13-0.66-0.34-1.82-0.53-2.95l1.57-2.67l0.55,2.93L123.33,439.38z M128.25,438.54c-0.48-0.37-1.29-1.03-2.1-1.69
	l-0.62-3.31l2.1,1.66L128.25,438.54z M131.03,433.96c-0.54,0.11-1.47,0.27-2.41,0.43l-2.45-1.94l2.39-0.45L131.03,433.96z"/>
</svg>
