<svg version="1.1" id="left-wing_1_" xmlns="http://www.w3.org/2000/svg" xmlns:xlink="http://www.w3.org/1999/xlink" x="0px"
	 y="0px" viewBox="0 0 510.24 595.28" style="enable-background:new 0 0 510.24 595.28;" xml:space="preserve">

<path class="fsst0" d="M418.61,372.22c-4.75-6.07,9.83-21.09,4.09-46.27c0,0-10.49,13.14-16.12,9.72c-5.63-3.42-1.44-15.9-1.44-15.9
	s-15.42-6.05-34.56-8.49c-0.3,6.03-2.27,13.13-9.72,14.12c-7.53,1-12.62-3.35-15.58-7.36c-7.08,5.53-16.58,13.3-24.4,20.94
	c0,0,17.56,13.91-10.49,12.37c0,0,8.94,43.29,20.54,59.19c11.6,15.9,31.14,27.39,61.73,33.68c0,0,30.81-27.28,34.56-72.88
	C427.22,371.34,422.25,375.53,418.61,372.22z"/>
<path class="fsst1" d="M391.04,442.9c-28.57-6.05-48.18-16.76-59.93-32.72c-9.42-12.81-17.28-44.62-19.73-55.32c0.17,0,0.52,0,0.52,0
	c5.47,0,12.94-0.58,14.7-5.59c1.31-3.72-1.53-7.59-3.88-9.99c6.71-6.28,14.32-12.5,20.3-17.19c3.12,3.33,7.76,6.49,14.16,6.49
	c0.85,0,1.72-0.06,2.59-0.17c6.72-0.89,10.96-5.79,12.16-13.91c13.27,1.96,24.48,5.5,29.25,7.14c-1.1,4.55-2.3,13.3,3.48,16.79
	c1.1,0.66,2.33,1,3.67,1c0,0,0,0,0,0c4.35,0,9.13-3.73,12.49-7.01c1.35,11.55-1.63,20.62-3.9,27.5c-2.05,6.23-3.67,11.16-0.73,14.89
	l0.15,0.19l0.18,0.16c1.48,1.33,3.31,2.04,5.3,2.04c0.7,0,1.39-0.09,2.03-0.23C419.01,413.88,396.19,437.89,391.04,442.9z"/>
<path class="fsst2" d="M331.37,339.64l14.36-11.6c0,0,6.18,6.4,17.34,3.98c11.15-2.43,13.69-10.93,13.69-10.93l19.66,4.75
	c0,0-4.85,16.6,11.93,18.11c0,0,15.24,66.26-18,90.44c0,0-41.96-6.4-52.34-36.55c-10.38-30.15-10.49-38.21-10.49-38.21
	S338.66,353.67,331.37,339.64z"/>
<path class="fsst3" d="M389.62,431.38c-6.64-1.29-40.18-9.01-48.95-34.47c-7.68-22.3-9.66-32.38-10.17-35.86
	c4.2-3.16,8.79-10.19,4.37-20.61l10.86-8.77c2.31,1.58,6.51,3.73,12.38,3.73c1.81,0,3.68-0.21,5.55-0.62
	c8.8-1.92,12.95-7.22,14.7-10.4l14.76,3.56c-0.4,3.12-0.43,8.19,2.42,12.36c2.24,3.28,5.74,5.35,10.42,6.17
	C408.05,357.25,416.73,410.3,389.62,431.38z"/>
<path class="fsst4" d="M390.67,429.31c0.97-0.23,9.37-30.33,8.17-83.6c0,0,2.1,1.33,4.75,1.88c2.16,21.9,1.74,43.21-1.77,63.83
	C401.82,411.42,400.94,419.08,390.67,429.31z"/>
<path d="M351.58,429.2c0.44-0.33,14.91-6.18,20.43-23.85c5.36,3.17,12.56,4.63,21.2,4.75l8.61-14.36c0,0-15.02-4.75-14.69-4.86
	c0.33-0.11,10.05-11.82,5.96-23.19c-4.09-11.37-37.88-21.75-37.88-21.75l-9.28-14.69l-8.17,20.54l10.93,21.42l-16.45,22.86
	l10.6,25.4l4.31,4.86L351.58,429.2z"/>
<path class="fsst5" d="M369.91,388.57c0,0,4.09,31.03-34.01,33.57s-16.79-65.82-16.79-65.82s11.93,1.77,19.44,15.35
	C352.96,375.56,369.58,371.72,369.91,388.57z"/>
<path class="fsst5" d="M380.18,381.94c0,0,4.97,8.39-18.55,14.02s-26.06-28.05-26.06-28.05s-1.1-10.05,16.12-20.43
	c17.23-10.38,23.63,6.74,23.63,6.74C381.66,364.21,385.33,371.9,380.18,381.94z"/>
<path class="fsst6" d="M393.76,410.32c0,0-54.33-19.33-58.88-69.87l11.06-9.64c0,0,5.3,46.71,57.98,62.06L393.76,410.32z"/>
<path class="fsst7" d="M347.6,368.25c0,0-9.94-8.39,0-18s20.43-9.5,24.96-2.32c4.53,7.18,28.16,15.79,21.2,28.93
	c-6.96,13.14-20.76,17.67-31.14,9.83S359.2,375.76,347.6,368.25z"/>
<path class="fsst8" d="M357.98,382.27c0,0-4.31,11.48-13.91,6.52c-9.61-4.97-13.25-26.28-4.2-30.81c9.06-4.53,32.36,8.72,35.56,18.88
	C377.2,383.71,366.59,388.68,357.98,382.27z"/>
<path class="fsst9" d="M384.7,404.47c0,0,9.83-1.33,14.47-10.93l-10.6-4.31c0,0-7.84,9.39-21.09,4.97
	C367.48,394.2,377.86,400.93,384.7,404.47z"/>
<path class="fsst9" d="M337.66,348.26c0,0,1.99-6.18,7.95-11.37c0,0,1.99,6.96,3.42,10.6c0,0-4.86,3.42-6.96,8.06l-2.21,0.77
	C339.87,356.32,338.32,351.02,337.66,348.26z"/>
<polygon class="fsst2" points="392.43,411.09 403.59,391.88 405.8,392.87 394.75,412.2 "/>
<polygon class="fsst10" points="333.36,341.41 346.83,330.92 345.72,329.93 "/>
<polygon class="fsst10" points="392.43,411.09 402.48,392.87 398.07,403.36 "/>
<path class="fsst4" d="M378.96,326.28c0,0,0.88,14.02-1.88,23.85c0,0,13.25,10.6,16.34,13.91c0,0,0.88-12.37,1.88-21.98
	c0,0-4.86-2.54-3.75-12.92L378.96,326.28z"/>
<path class="fsst4" d="M384.82,411.31l-3.75,17.12c0,0-10.71-2.98-16.01-6.63c0,0,5.3-5.96,8.06-13.47
	C373.11,408.33,379.63,411.31,384.82,411.31z"/>
<path class="fsst11" d="M423.86,376.95l3.36-5.61c0,0-1.55,41.85-34.56,72.88l-1.62-1.33C391.04,442.9,417.94,419.04,423.86,376.95z"
	/>
<path class="fsst11" d="M414.96,368.36l2.87-1.66c0,0,9.28-23.41,4.86-40.75l-1.87,6.46c0,0,2.21,6-0.49,15.73
	C418.71,353.96,416.43,361.04,414.96,368.36z"/>
<path class="fsst11" d="M401.18,321.63l3.96-1.86c0,0-2.98,8.17-1.21,12.04l-2.43,2.43C401.49,334.23,398.77,328.8,401.18,321.63z"/>
<path class="fsst11" d="M345.28,318.44l-2.26,3.64c0,0,6.35,9.06,17.83,3.32C360.85,325.4,351.24,326.72,345.28,318.44z"/>
<path class="fsst12" d="M419.17,372.16c-4.8-6.14,9.94-21.33,4.13-46.79c0,0-10.61,13.29-16.31,9.83c-5.7-3.46-1.45-16.08-1.45-16.08
	s-15.6-6.12-34.96-8.59c-0.3,6.1-2.29,13.28-9.83,14.28c-7.61,1.02-12.76-3.39-15.75-7.44c-7.16,5.59-16.76,13.45-24.68,21.18
	c0,0,17.76,14.07-10.61,12.51c0,0,9.05,43.78,20.77,59.86c11.73,16.08,31.49,27.7,62.43,34.06c0,0,31.16-27.59,34.96-73.71
	C427.88,371.27,422.86,375.51,419.17,372.16z"/>
<path class="fsst13" d="M346.02,398.1c0,0,0.88,17.08,8.98,14.58c8.1-2.5,10.01-14.13,10.01-14.13l-8.25-6.48
	C356.77,392.06,353.82,396.63,346.02,398.1z"/>
<path class="fsst14" d="M351.91,411.06c0,0,8.83-0.29,11.04-12.66l-3.68-3.09C359.27,395.3,363.39,403.55,351.91,411.06z"/>
<path class="fsst7" d="M347.49,375.13c0.13-0.42,17.08,17.52,27.09,6.33c0,0-7.36,10.6-24.44,0.59c0,0-7.36,1.03-10.01-0.88
	c0,0,6.48-0.29,8.69-1.18C348.82,379.99,346.61,377.93,347.49,375.13z"/>
<path class="fsst8" d="M349.99,355.1c0.15-0.44,9.28-11.63,17.67-6.92c8.39,4.71,11.04,9.87,17.23,13.25s8.54,10.6,3.83,17.96
	c-4.71,7.36-10.9,5.01-10.9,5.01s6.92-6.33-3.98-16.79C362.95,357.17,349.99,355.1,349.99,355.1z"/>
<g>
	<path d="M338.36,383.82c-5.27-9.79-7.81-24.48,5.26-29.1c0,0-0.94,0.96-0.94,0.96c0.37-1.03,0.77-1.83,1.24-2.69
		c5.15-9.3,17.06-13.62,26.65-8.55c3.28,1.67,6.02,4.13,7.98,7.29c0,0-0.69-0.64-0.69-0.64c16.92,8.26,26.12,23.06,8.16,36.63
		c-6.38,4.52-15.47,3.76-21.89,0.37c6.77,1.99,13.64,1.1,19.38-2.37c2.24-1.33,4.19-3.13,5.76-5.21
		c9.71-11.26-2.58-21.81-12.65-26.68c0,0-0.43-0.21-0.43-0.21c-1.59-2.73-4.13-5.08-6.97-6.5c-8.76-4.72-20.14,0.19-23.67,9.48
		c0,0-0.25,0.7-0.25,0.7l-0.69,0.27C334.13,360.99,336.02,375.38,338.36,383.82L338.36,383.82z"/>
</g>
<g>
	<path d="M335.71,369.24c-0.85-11.83,7.89-15.51,18.23-12.98c10.56,2.49,31.44,12.38,23.89,25.98c-5.48,8.06-17.51,7.34-24.84,2.36
		c-3.48-2.95-5.8-7.02-6.39-11.23c3.46,7.48,11.12,11.89,19.09,11.96c3.79-0.05,7.67-1.71,9.61-4.7
		c5.98-10.95-13.79-19.53-22.03-21.43C345.06,357.04,337.26,359.94,335.71,369.24L335.71,369.24z"/>
</g>
<path d="M357.5,386.17c0,0,18.55,18.99,36.81,24.15l-7.51-1.03c0,0-21.2-8.1-31.66-23.85L357.5,386.17z"/>
<path d="M334.88,340.45c0,0,1.86,12.3,5.69,17.16l-2.36,1.77C338.21,359.37,333.9,354.66,334.88,340.45z"/>
<path class="fsst15" d="M338.51,372.92c0,0-1.91-10.9,6.77-12.81c8.69-1.91,16.64,4.42,16.64,4.42s14.28,7.51,12.07,15.02
	c-2.21,7.51-12.07,4.12-12.07,4.12s19.14-3.09-2.65-16.2C359.27,367.47,340.42,356.43,338.51,372.92z"/>
<path class="fsst15" d="M351.91,352.45c0,0,5.01-6.04,12.52-4.56c7.51,1.47,10.75,8.25,10.75,8.25s18.55,6.18,14.43,20.17
	c0,0-2.06-13.69-17.67-17.67C371.93,358.64,366.63,344.95,351.91,352.45z"/>
<path class="fsst16" d="M401.18,321.63l2.41-1.42c0,0-3.39,9.28-3.39,8.83C400.2,328.6,401.18,321.63,401.18,321.63z"/>
<polygon class="fsst16" points="344.69,319.47 343.02,322.08 349.4,323.89 "/>
<path class="fsst16" d="M345.72,364.09c0,0,1.03-3.53,6.77-3.24c5.74,0.29,10.31,5.45,10.31,5.45S355.88,360.26,345.72,364.09z"/>
<path class="fsst16" d="M344.69,335.96c0,0,3.83,10.53,4.34,11.52l-1.69,1.14C347.34,348.63,345.13,340.23,344.69,335.96z"/>
<path class="fsst16" d="M386.95,388.68c0.59,0.15,13.25,5.3,13.25,5.3s-9.57-1.03-15.17-4.12L386.95,388.68z"/>
<path class="fsst16" d="M420.82,333.02l1.77-4.12c0,0,2.06,11.93-2.94,22.53C419.64,351.42,421.99,341.26,420.82,333.02z"/>
</svg>
