<svg version="1.1" id="_x31_00" xmlns="http://www.w3.org/2000/svg" xmlns:xlink="http://www.w3.org/1999/xlink" x="0px" y="0px"
	 viewBox="0 0 510.2 595.3" style="enable-background:new 0 0 510.2 595.3;" xml:space="preserve">
<style type="text/css">
	.st0{fill:#C3D3DD;}
	.st1{fill:#E1F5FF;}
	.st2{fill:#FFFFFF;}
	.st3{fill:none;stroke:#000000;stroke-width:5.3405;stroke-miterlimit:10;}
	.st4{fill:#D8D8D8;}
	.st5{fill:#9DA5A5;}
	.st6{fill:#DDDDDD;}
	.st7{fill:#F72300;}
	.st8{fill:#F7C100;}
	.st9{fill:#B90000;}
	.st10{opacity:0.2;fill:#33485E;enable-background:new    ;}
	.st11{fill:#5B656B;}
	.st12{fill:#ABE7FF;}
	.st13{fill:#CCDDED;}
	.st14{fill:#B50F0F;}
	.st15{opacity:0.2;fill:#5489D0;enable-background:new    ;}
	.st16{fill:#FFD300;}
	.st17{fill:#FF9D00;}
	.st18{opacity:0.5;fill:#FFFFFF;enable-background:new    ;}
	.st19{fill:#FF5F5F;}
	.st20{opacity:0.7;fill:#FFFFFF;enable-background:new    ;}
	.st21{opacity:0.3;fill:#FFFFFF;enable-background:new    ;}
	.st22{fill:none;stroke:#000000;stroke-width:5.3405;stroke-linejoin:round;stroke-miterlimit:10;}
	.st23{fill:none;stroke:#4F0000;stroke-width:3.5603;stroke-miterlimit:10;}
	.st24{opacity:0.4;fill:#FFFFFF;enable-background:new    ;}
	.st25{opacity:0.4;fill:#33485E;enable-background:new    ;}
	.st26{fill:#FF0000;}
	.st27{fill:#E00045;}
	.st28{fill:#FF3B6E;}
	.st29{fill:none;stroke:#890B4D;stroke-width:3.5603;stroke-miterlimit:10;}
	.st30{fill:#00B18A;}
	.st31{fill:#39FF9C;}
	.st32{fill:none;stroke:#093A2E;stroke-width:3.5603;stroke-miterlimit:10;}
	.st33{fill:#3AA800;}
	.st34{fill:#4EF400;}
	.st35{fill:none;stroke:#2F3F25;stroke-width:3.5603;stroke-miterlimit:10;}
	.st36{fill:#009DA5;}
	.st37{fill:#31CDDD;}
	.st38{fill:none;stroke:#454E60;stroke-width:3.5603;stroke-miterlimit:10;}
	.st39{fill:#640ACC;}
	.st40{fill:#9E39FF;}
	.st41{fill:#8A00F7;}
	.st42{fill:none;stroke:#2C2F42;stroke-width:3.5603;stroke-miterlimit:10;}
	.st43{fill:#0082AF;}
	.st44{fill:#00B1FF;}
</style>
<path class="st0" d="M320,146.9l28.6-26.3l24-6.4c5.6-1.5,11.2,2.7,11.2,8.6v82.4l-9.4-39.7L320,146.9z"/>
<path class="st1" d="M348.6,120.5v35l35-9v-23.8c0-5.8-5.5-10.1-11.2-8.6L348.6,120.5z"/>
<path class="st2" d="M322.6,146.5l26.7-25l25.6-7.3c0,0,7.3,1,7.3,10c0,0-1.6-7.5-9.1-5.1l-24.3,7.4l-23.4,21.5L322.6,146.5z"/>
<path class="st3" d="M320,146.9l26.7-25l25.8-7.8c5.6-1.5,11.2,2.7,11.2,8.6v82.4l-9.4-39.7L320,146.9z"/>
<path class="st2" d="M347,156.1l27.3,9.3v216.8l91.4-24.1c8.5-2.2,14.4-9.9,14.4-18.6V146c0-12.6-12-21.9-24.2-18.6L347,156.1z"/>
<path class="st4" d="M345.3,162.3l27.4,9v209.6l91.1-23.4c8.5-2.2,14.4-9.6,14.4-18l0.8-186.8c0-12.2-12-21.1-24.3-18L345.3,162.3z"
	/>
<path class="st5" d="M374.2,165.4L320,146.9L37.6,221.3c-2.3,0.6-3.9,2.7-3.9,5v231.3c0,2.9,1.9,5.5,4.6,6.5L88,481.1V240.8
	L374.2,165.4z"/>
<path class="st6" d="M369.6,406.8L88,481.1V240.8l286.2-75.5v235.4C374.2,403.6,372.3,406.1,369.6,406.8z"/>
<path class="st27" d="M36.2,223.2L88,240.8v240.2l-48.9-16.7c-3.2-1.1-5.3-4.1-5.3-7.5v-232C33.8,223.7,35,222.8,36.2,223.2z"/>
<path class="st28" d="M320,146.9l54.3,18.5l-112.3,29.6l-53.3-18.8L320,146.9z"/>
<path class="st2" d="M77,462.4c-0.3,0-0.6-0.1-0.8-0.1l-32.6-11.7c-1-0.3-1.6-1.3-1.6-2.3v-9.1c0-4.8,1.7-8,5.1-9.5
	c1.4-0.6,3-0.9,4.7-0.9c2.5,0,5.5,0.6,8.8,1.8c6,2.2,10.7,5.1,13.9,8.9c3.2,3.8,4.9,8.3,4.9,13.3v7.1
	C79.4,461.3,78.3,462.4,77,462.4z M53.2,438.1c-2.6,0-3.7,1.1-3.7,3.5v1.7c0,0.3,0.2,0.5,0.4,0.6l21.9,7.9v-1c0-2.4-0.9-4.4-2.8-6.2
	c-1.9-1.9-4.9-3.5-8.8-4.9C57.3,438.6,54.9,438.1,53.2,438.1z"/>
<path class="st9" d="M51.8,429.8c2.4,0,5.3,0.6,8.5,1.8c5.9,2.1,10.4,5,13.5,8.7c3.1,3.7,4.7,7.9,4.7,12.7v7.1
	c0,0.9-0.7,1.5-1.5,1.5c-0.2,0-0.3,0-0.5-0.1l-32.6-11.7c-0.6-0.2-1-0.8-1-1.5v-9.1c0-4.4,1.5-7.3,4.6-8.7
	C48.7,430,50.1,429.8,51.8,429.8z M72.7,453v-2.3c0-2.6-1-4.8-3-6.8c-2-2-5.1-3.6-9.1-5.1c-3-1.1-5.5-1.6-7.4-1.6
	c-3.1,0-4.6,1.4-4.6,4.3v1.7c0,0.7,0.4,1.2,1,1.5L72.7,453z M51.8,428c-1.9,0-3.6,0.3-5.1,1c-2.6,1.1-5.7,3.9-5.7,10.3v9.1
	c0,1.4,0.9,2.7,2.2,3.1l32.6,11.7c0.4,0.1,0.7,0.2,1.1,0.2c1.8,0,3.3-1.5,3.3-3.3v-7.1c0-5.2-1.7-9.9-5.1-13.8
	c-3.3-3.9-8.1-7-14.3-9.2C57.5,428.6,54.4,428,51.8,428z M50.3,443.1v-1.6c0-1.6,0.5-2.6,2.8-2.6c1.7,0,3.9,0.5,6.7,1.5
	c3.8,1.4,6.7,3,8.5,4.7c1.6,1.5,2.4,3.3,2.5,5.3L50.3,443.1z"/>
<path class="st2" d="M72.2,430.3c-1.9,0-4.1-0.5-6.7-1.4l-22-7.9c-1-0.3-1.6-1.3-1.6-2.3v-3.7c0-1.3,1.1-2.4,2.4-2.4
	c0.3,0,0.6,0.1,0.8,0.1l21.4,7.7c1.4,0.5,2.6,0.8,3.5,0.8c0.7,0,1.3-0.2,1.6-0.5c0.3-0.4,0.5-1,0.5-1.8c0-1.3-0.5-2.4-1.5-3.5
	c-1.1-1.1-2.6-2-4.6-2.8l-22.6-8.1c-1-0.3-1.6-1.3-1.6-2.3v-3.7c0-1.3,1.1-2.4,2.4-2.4c0.3,0,0.6,0.1,0.8,0.1l21,7.5
	c4.4,1.6,7.8,3.9,10.1,6.8c2.3,3,3.5,6.6,3.5,10.6c0,4.1-1.3,6.9-3.8,8.2C75,430,73.7,430.3,72.2,430.3z"/>
<path class="st9" d="M44.4,397.1c0.2,0,0.3,0,0.5,0.1l21,7.5c4.3,1.5,7.5,3.7,9.7,6.5c2.2,2.8,3.4,6.2,3.4,10c0,3.8-1.1,6.2-3.3,7.4
	c-1,0.5-2.1,0.8-3.5,0.8c-1.8,0-3.9-0.4-6.4-1.3l-22-7.9c-0.6-0.2-1-0.8-1-1.5v-3.7c0-0.9,0.7-1.5,1.5-1.5c0.2,0,0.3,0,0.5,0.1
	l21.4,7.7c1.5,0.6,2.8,0.8,3.8,0.8c2,0,3-1.1,3-3.2c0-1.5-0.6-2.8-1.7-4.1s-2.8-2.2-4.9-3l-22.6-8.1c-0.6-0.2-1-0.8-1-1.5v-3.7
	C42.8,397.7,43.5,397.1,44.4,397.1z M44.4,395.3c-1.8,0-3.3,1.5-3.3,3.3v3.7c0,1.4,0.9,2.7,2.2,3.1l22.6,8.1
	c1.9,0.7,3.3,1.5,4.2,2.5c0.8,0.9,1.2,1.8,1.2,2.8c0,1.3-0.4,1.4-1.2,1.4c-0.8,0-1.9-0.2-3.2-0.7L45.5,412c-0.4-0.1-0.7-0.2-1.1-0.2
	c-1.8,0-3.3,1.5-3.3,3.3v3.7c0,1.4,0.9,2.7,2.2,3.1l22,7.9c2.7,0.9,5,1.4,7,1.4c1.6,0,3.1-0.3,4.3-1c2.8-1.5,4.3-4.5,4.3-9
	c0-4.3-1.3-8-3.7-11.1c-2.4-3.1-6-5.5-10.5-7.1l-21-7.5C45.1,395.3,44.8,395.3,44.4,395.3z"/>
<path class="st2" d="M70.3,400.3c-2.7,0-6.1-0.7-9.9-2c-5.9-2.1-10.6-5-13.9-8.6c-3.4-3.7-5.1-7.8-5.1-12.2c0-1.5,0.2-2.8,0.6-4.1
	c0.2-0.7,0.6-1.5,1-2.2c0.4-0.7,1.2-1.2,2.1-1.2c0.6,0,1.1,0.2,1.5,0.5l2.9,2.3c1,0.8,1.2,2.2,0.5,3.2c-0.2,0.3-0.4,0.6-0.5,0.9
	c-0.3,0.6-0.5,1.3-0.5,2.2c0,1.7,1,3.5,3,5.3c2.1,1.9,5.2,3.5,9,4.9c3.1,1.1,5.7,1.7,7.5,1.7c1.3,0,2.2-0.3,2.8-0.8
	c0.6-0.5,0.9-1.3,0.9-2.5c0-1.1-0.2-2.3-0.6-3.7c-0.2-0.7-0.1-1.5,0.4-2.2c0.5-0.6,1.2-1,1.9-1c0.3,0,0.6,0.1,0.8,0.1l2.2,0.8
	c0.6,0.2,1.1,0.7,1.4,1.3c1,2.2,1.5,4.8,1.5,7.5c0,4.7-1.8,7.7-5.4,9C73.3,400.1,71.9,400.3,70.3,400.3z"/>
<path class="st9" d="M45.1,370.9c0.3,0,0.7,0.1,1,0.3l2.9,2.3c0.6,0.5,0.8,1.4,0.3,2c-0.2,0.3-0.4,0.6-0.6,0.9
	c-0.4,0.7-0.6,1.6-0.6,2.7c0,2,1.1,4,3.3,6c2.2,2,5.3,3.6,9.3,5.1c3.2,1.2,5.8,1.7,7.8,1.7c3.1,0,4.6-1.4,4.6-4.2
	c0-1.2-0.2-2.5-0.6-3.9c-0.3-1,0.5-2,1.5-2c0.2,0,0.3,0,0.5,0.1l2.2,0.8c0.4,0.1,0.7,0.4,0.9,0.8c1,2.1,1.4,4.5,1.4,7.1
	c0,4.3-1.6,7-4.8,8.1c-1.1,0.4-2.4,0.6-3.9,0.6c-2.7,0-5.8-0.7-9.6-2c-5.8-2.1-10.3-4.9-13.5-8.4c-3.2-3.5-4.9-7.4-4.9-11.6
	c0-1.4,0.2-2.7,0.5-3.8c0.2-0.7,0.5-1.3,0.9-2C44,371.2,44.5,370.9,45.1,370.9z M45.1,369.2c-1.2,0-2.3,0.6-2.8,1.6
	c-0.4,0.8-0.8,1.6-1.1,2.3c-0.4,1.3-0.6,2.8-0.6,4.3c0,4.6,1.8,9,5.3,12.8c3.4,3.7,8.2,6.7,14.3,8.9c3.9,1.4,7.3,2.1,10.2,2.1
	c1.7,0,3.2-0.2,4.5-0.7c2.7-1,6-3.5,6-9.8c0-2.9-0.5-5.5-1.6-7.9c-0.4-0.8-1.1-1.4-1.9-1.7l-2.2-0.8c-0.4-0.1-0.7-0.2-1.1-0.2
	c-1,0-2,0.5-2.7,1.4c-0.6,0.9-0.8,1.9-0.5,2.9c0.4,1.2,0.6,2.4,0.6,3.4c0,1.5-0.5,2.4-2.8,2.4c-1.8,0-4.2-0.6-7.2-1.6
	c-3.7-1.3-6.7-2.9-8.7-4.7c-1.8-1.6-2.7-3.2-2.7-4.6c0-0.7,0.1-1.3,0.4-1.8c0.2-0.3,0.3-0.5,0.5-0.8c0.9-1.4,0.6-3.3-0.7-4.4
	l-2.9-2.3C46.6,369.4,45.8,369.2,45.1,369.2z"/>
<path class="st2" d="M77,378.3c-0.3,0-0.6-0.1-0.8-0.1l-32.6-11.7c-1-0.3-1.6-1.3-1.6-2.3v-3.8c0-1.3,1.1-2.4,2.4-2.4
	c0.3,0,0.6,0.1,0.8,0.1L56,362l-1.4-1.1l-11.9-10.4c-0.5-0.5-0.8-1.1-0.8-1.8v-3.3c0-1.3,1.1-2.4,2.4-2.4c0.6,0,1.2,0.2,1.6,0.6
	l12.4,11.4c0.1,0.1,0.3,0.2,0.4,0.2l18-1.5H77c1.3,0,2.4,1.1,2.4,2.4v4.4c0,1.3-1,2.4-2.3,2.4l-11,0.6c-0.3,0-0.5,0.3-0.6,0.4
	s-0.1,0.4,0.1,0.7l0.8,1.1c0.1,0.1,0.2,0.2,0.3,0.2l11.1,4c1,0.3,1.6,1.3,1.6,2.3v3.8C79.4,377.2,78.3,378.3,77,378.3z"/>
<path class="st9" d="M44.4,343.7c0.4,0,0.7,0.1,1,0.4l12.4,11.4c0.3,0.3,0.7,0.4,1.1,0.4c0,0,0.1,0,0.1,0l17.9-1.4c0,0,0.1,0,0.1,0
	c0.8,0,1.5,0.7,1.5,1.5v4.4c0,0.8-0.6,1.5-1.5,1.5l-11,0.6c-1.2,0.1-1.9,1.4-1.2,2.4l0.8,1.1c0.2,0.3,0.4,0.5,0.7,0.6l11.1,4
	c0.6,0.2,1,0.8,1,1.5v3.8c0,0.9-0.7,1.5-1.5,1.5c-0.2,0-0.3,0-0.5-0.1l-32.6-11.7c-0.6-0.2-1-0.8-1-1.5v-3.8c0-0.9,0.7-1.5,1.5-1.5
	c0.2,0,0.3,0,0.5,0.1l15.6,5.6l-5.3-4.4l-11.8-10.4c-0.3-0.3-0.5-0.7-0.5-1.2v-3.3C42.8,344.4,43.6,343.7,44.4,343.7z M44.4,341.9
	c-1.8,0-3.3,1.5-3.3,3.3v3.3c0,1,0.4,1.9,1.1,2.5l9.6,8.4l-6.2-2.2c-0.4-0.1-0.7-0.2-1.1-0.2c-1.8,0-3.3,1.5-3.3,3.3v3.8
	c0,1.4,0.9,2.7,2.2,3.1L75.9,379c0.4,0.1,0.7,0.2,1.1,0.2c1.8,0,3.3-1.5,3.3-3.3v-3.8c0-1.4-0.9-2.7-2.2-3.1l-11-4l-0.5-0.7
	l10.6-0.5c1.8-0.1,3.2-1.5,3.2-3.3v-4.4c0-1.8-1.5-3.3-3.3-3.3c-0.1,0-0.2,0-0.3,0l-17.8,1.4l-12.3-11.4
	C46,342.3,45.2,341.9,44.4,341.9z"/>
<path class="st2" d="M70.3,349.5c-2.7,0-6.1-0.7-9.9-2c-5.9-2.1-10.6-5-13.9-8.6c-3.4-3.7-5.1-7.8-5.1-12.2c0-1.5,0.2-2.8,0.6-4.1
	c0.2-0.7,0.6-1.5,1-2.2c0.4-0.7,1.2-1.2,2.1-1.2c0.6,0,1.1,0.2,1.5,0.5l2.9,2.3c1,0.8,1.2,2.2,0.5,3.2c-0.2,0.3-0.4,0.6-0.5,0.9
	c-0.3,0.6-0.5,1.3-0.5,2.2c0,1.7,1,3.5,3,5.3c2.1,1.9,5.2,3.5,9,4.9c3.1,1.1,5.7,1.7,7.5,1.7c1.3,0,2.2-0.3,2.8-0.8
	c0.6-0.5,0.9-1.3,0.9-2.5c0-1.1-0.2-2.3-0.6-3.7c-0.2-0.7-0.1-1.5,0.4-2.2c0.5-0.6,1.2-1,1.9-1c0.3,0,0.6,0.1,0.8,0.1l2.2,0.8
	c0.6,0.2,1.1,0.7,1.4,1.3c1,2.2,1.5,4.8,1.5,7.5c0,4.7-1.8,7.7-5.4,9C73.3,349.3,71.9,349.5,70.3,349.5z"/>
<path class="st9" d="M45.1,320.2c0.3,0,0.7,0.1,1,0.3l2.9,2.3c0.6,0.5,0.8,1.4,0.3,2c-0.2,0.3-0.4,0.6-0.6,0.9
	c-0.4,0.7-0.6,1.6-0.6,2.7c0,2,1.1,4,3.3,6s5.3,3.6,9.3,5.1c3.2,1.2,5.8,1.7,7.8,1.7c3.1,0,4.6-1.4,4.6-4.2c0-1.2-0.2-2.5-0.6-3.9
	c-0.3-1,0.5-2,1.5-2c0.2,0,0.3,0,0.5,0.1l2.2,0.8c0.4,0.1,0.7,0.4,0.9,0.8c1,2.1,1.4,4.5,1.4,7.1c0,4.3-1.6,7-4.8,8.1
	c-1.1,0.4-2.4,0.6-3.9,0.6c-2.7,0-5.8-0.7-9.6-2c-5.8-2.1-10.3-4.9-13.5-8.4s-4.9-7.4-4.9-11.6c0-1.4,0.2-2.7,0.5-3.8
	c0.2-0.7,0.5-1.3,0.9-2C44,320.4,44.5,320.2,45.1,320.2z M45.1,318.4c-1.2,0-2.3,0.6-2.8,1.6c-0.5,0.8-0.8,1.6-1.1,2.4
	c-0.4,1.3-0.6,2.8-0.6,4.3c0,4.6,1.8,9,5.3,12.8c3.4,3.7,8.2,6.7,14.3,8.9c3.9,1.4,7.3,2.1,10.2,2.1c1.7,0,3.2-0.2,4.5-0.7
	c2.7-1,6-3.5,6-9.8c0-2.9-0.5-5.5-1.6-7.9c-0.4-0.8-1.1-1.4-1.9-1.7l-2.2-0.8c-0.4-0.1-0.7-0.2-1.1-0.2c-1,0-2,0.5-2.7,1.4
	c-0.6,0.9-0.8,1.9-0.5,2.9c0.4,1.2,0.6,2.4,0.6,3.4c0,1.5-0.5,2.4-2.8,2.4c-1.8,0-4.2-0.6-7.2-1.6c-3.7-1.3-6.7-2.9-8.7-4.7
	c-1.8-1.6-2.7-3.2-2.7-4.6c0-0.7,0.1-1.3,0.4-1.8c0.2-0.3,0.3-0.5,0.5-0.8c0.9-1.4,0.6-3.3-0.7-4.4l-2.9-2.3
	C46.6,318.6,45.8,318.4,45.1,318.4z"/>
<path class="st2" d="M77,330.3c-0.4,0-0.9-0.1-1.3-0.4l-32.7-20.3c-0.7-0.4-1.2-1.2-1.2-2.1v-7c0-1.3,1.1-2.4,2.4-2.4l0.2,0
	l32.7,3.1c1.3,0.1,2.2,1.2,2.2,2.4v4c0,1.3-1.1,2.4-2.4,2.4c-0.1,0-0.2,0-0.3,0l-5.6-0.6c-0.4,0-0.7,0.3-0.7,0.6v7.3
	c0,0.2,0.1,0.4,0.3,0.6l7.5,4.5c0.7,0.4,1.2,1.2,1.2,2.1v3.4C79.4,329.2,78.3,330.3,77,330.3z M52.5,307c1.5,0.8,4.5,2.6,9.2,5.4
	c0.1,0.1,0.2,0.1,0.3,0.1c0.2,0,0.3-0.1,0.5-0.2c0.1-0.1,0.2-0.2,0.2-0.5v-3.1c0-0.3-0.2-0.6-0.6-0.6l-6.9-0.8
	C54.8,307.4,53.9,307.3,52.5,307z"/>
<path class="st9" d="M44.2,299c0.1,0,0.1,0,0.1,0l32.7,3.1c0.8,0.1,1.4,0.7,1.4,1.5v4c0,0.9-0.7,1.5-1.5,1.5c-0.1,0-0.1,0-0.2,0
	l-5.6-0.6c-0.1,0-0.1,0-0.2,0c-0.8,0-1.5,0.7-1.5,1.5v7.3c0,0.5,0.3,1.1,0.7,1.3l7.5,4.5c0.5,0.3,0.7,0.8,0.7,1.3v3.4
	c0,0.9-0.7,1.5-1.5,1.5c-0.3,0-0.6-0.1-0.8-0.2l-32.7-20.3c-0.4-0.3-0.7-0.8-0.7-1.3v-7C42.7,299.7,43.4,299,44.2,299z M62.1,313.5
	c0.8,0,1.5-0.6,1.5-1.5v-3.1c0-0.8-0.6-1.4-1.4-1.5l-6.9-0.8c-0.5-0.1-1.8-0.2-3.8-0.5c-2-0.3-3.4-0.5-4.1-0.7
	c1.4,0.7,2.9,1.6,4.6,2.5c1.5,0.8,4.5,2.6,9.2,5.4C61.5,313.4,61.8,313.5,62.1,313.5z M44.2,297.2c-1.8,0-3.3,1.5-3.3,3.3v7
	c0,1.2,0.6,2.2,1.6,2.8l32.7,20.3c0.5,0.3,1.1,0.5,1.7,0.5c1.8,0,3.3-1.5,3.3-3.3v-3.4c0-1.2-0.6-2.2-1.6-2.8l-7.4-4.4v-6.9l5.3,0.6
	c0.1,0,0.2,0,0.4,0c1.8,0,3.3-1.5,3.3-3.3v-4c0-1.7-1.3-3.2-3-3.3l-32.8-3.1C44.4,297.2,44.3,297.2,44.2,297.2z M61.9,311.5
	c-2-1.2-3.7-2.2-5.1-3l5.1,0.6V311.5z"/>
<path class="st2" d="M77,299.1c-0.3,0-0.6-0.1-0.8-0.1l-32.6-11.7c-1-0.3-1.6-1.3-1.6-2.3v-8.2c0-4.3,1-7,3-8.4
	c1-0.7,2.3-1.1,3.7-1.1c1.4,0,3.1,0.3,5.1,1c4.3,1.5,7.5,4.1,9.5,7.7c0.1,0.2,0.4,0.4,0.6,0.4l13-1.4l0.2,0c1.3,0,2.4,1.1,2.4,2.4
	v4.4c0,1.3-1,2.3-2.3,2.4l-11,0.8c-0.3,0-0.6,0.3-0.6,0.7c0,0.3,0.2,0.5,0.4,0.6l11.8,4.2c1,0.3,1.6,1.3,1.6,2.3v3.8
	C79.4,298,78.3,299.1,77,299.1z M58,283.5V283c0-1.5-0.4-2.6-1.1-3.5c-0.8-0.9-2-1.7-3.6-2.2c-0.9-0.3-1.7-0.5-2.3-0.5
	c-0.4,0-0.6,0.1-0.8,0.2c-0.6,0.4-0.7,1.5-0.7,2.4v1.1L58,283.5z"/>
<path class="st9" d="M48.7,268.2c1.4,0,2.9,0.3,4.8,1c4.1,1.5,7.1,3.9,9,7.3c0.3,0.5,0.8,0.8,1.4,0.8c0.1,0,0.1,0,0.2,0l12.9-1.4
	c0.1,0,0.1,0,0.2,0c0.8,0,1.5,0.7,1.5,1.5v4.4c0,0.8-0.6,1.5-1.4,1.5l-11,0.8c-0.8,0.1-1.4,0.7-1.4,1.5c0,0.7,0.4,1.2,1,1.5
	l11.8,4.2c0.6,0.2,1,0.8,1,1.5v3.8c0,0.9-0.7,1.5-1.5,1.5c-0.2,0-0.3,0-0.5-0.1l-32.6-11.7c-0.6-0.2-1-0.8-1-1.5v-8.2
	c0-3.9,0.9-6.5,2.6-7.7C46.3,268.6,47.4,268.2,48.7,268.2z M58.9,284.8V283c0-1.7-0.4-3-1.3-4.1c-0.9-1.1-2.2-1.9-4-2.5
	c-1-0.4-1.9-0.6-2.6-0.6c-0.5,0-1,0.1-1.3,0.3c-0.8,0.5-1.2,1.5-1.2,3.2v1.8L58.9,284.8z M48.7,266.5c-1.7,0-3.1,0.4-4.3,1.2
	c-2.3,1.6-3.4,4.6-3.4,9.2v8.2c0,1.4,0.9,2.7,2.2,3.1l32.6,11.7c0.4,0.1,0.7,0.2,1.1,0.2c1.8,0,3.3-1.5,3.3-3.3v-3.8
	c0-1.4-0.9-2.7-2.2-3.1l-10.8-3.9l9.9-0.7c1.7-0.1,3.1-1.6,3.1-3.3v-4.4c0-1.8-1.5-3.3-3.3-3.3c-0.1,0-0.2,0-0.4,0l-12.7,1.4
	c-2.1-3.7-5.4-6.4-9.9-8C52,266.8,50.2,266.5,48.7,266.5z M50.7,277.7c0,0,0.1,0,0.3,0c0.3,0,1,0.1,2,0.4c1.5,0.5,2.5,1.2,3.2,2
	c0.5,0.6,0.8,1.3,0.9,2.2l-6.7-2.4v-0.5C50.3,278.2,50.6,277.7,50.7,277.7z"/>
<path class="st2" d="M77,272.6c-0.3,0-0.6-0.1-0.8-0.1l-32.6-11.7c-1-0.3-1.6-1.3-1.6-2.3v-13.8c0-1.3,1.1-2.4,2.4-2.4
	c0.3,0,0.6,0.1,0.8,0.1l2.7,0.9c1,0.3,1.6,1.3,1.6,2.3v7.9c0,0.3,0.2,0.5,0.4,0.6l5.4,1.9c0.1,0,0.1,0,0.2,0c0.3,0,0.6-0.2,0.6-0.7
	v-4.9c0-1.3,1.1-2.4,2.4-2.4c0.3,0,0.6,0.1,0.8,0.1l2.7,1c1,0.3,1.6,1.3,1.6,2.3v7.1c0,0.3,0.2,0.5,0.4,0.6l6.8,2.4
	c0.1,0,0.1,0,0.2,0c0.3,0,0.6-0.2,0.6-0.7v-5.6c0-1.3,1.1-2.4,2.4-2.4c0.3,0,0.6,0.1,0.8,0.1l2.7,1c1,0.3,1.6,1.3,1.6,2.3v13.8
	C79.4,271.5,78.3,272.6,77,272.6z"/>
<path class="st9" d="M44.4,243.1c0.2,0,0.3,0,0.5,0.1l2.7,0.9c0.6,0.2,1,0.8,1,1.5v7.9c0,0.7,0.4,1.2,1,1.5l5.4,1.9
	c0.2,0.1,0.4,0.1,0.5,0.1c0.8,0,1.5-0.7,1.5-1.5v-4.9c0-0.9,0.7-1.5,1.5-1.5c0.2,0,0.4,0,0.5,0.1l2.7,1c0.6,0.2,1,0.8,1,1.5v7.1
	c0,0.7,0.4,1.2,1,1.5l6.8,2.4c0.2,0.1,0.4,0.1,0.5,0.1c0.8,0,1.5-0.7,1.5-1.5v-5.7c0-0.9,0.7-1.5,1.5-1.5c0.2,0,0.4,0,0.5,0.1l2.7,1
	c0.6,0.2,1,0.8,1,1.5v13.8c0,0.9-0.7,1.5-1.5,1.5c-0.2,0-0.3,0-0.5-0.1l-32.6-11.7c-0.6-0.2-1-0.8-1-1.5v-13.8
	C42.8,243.8,43.5,243.1,44.4,243.1z M44.4,241.3c-1.8,0-3.3,1.5-3.3,3.3v13.8c0,1.4,0.9,2.7,2.2,3.1l32.6,11.7
	c0.4,0.1,0.7,0.2,1.1,0.2c1.8,0,3.3-1.5,3.3-3.3v-13.8c0-1.4-0.9-2.7-2.2-3.1l-2.7-1c-0.4-0.1-0.7-0.2-1.1-0.2
	c-1.8,0-3.3,1.5-3.3,3.3v5.3l-6.3-2.3v-7c0-1.4-0.9-2.7-2.2-3.1l-2.7-1c-0.4-0.1-0.7-0.2-1.1-0.2c-1.8,0-3.3,1.5-3.3,3.3v4.6
	l-4.9-1.8v-7.7c0-1.4-0.9-2.7-2.2-3.1l-2.7-0.9C45.1,241.4,44.8,241.3,44.4,241.3z"/>
<path class="st10" d="M454.3,355l-79.4,21.5V181C374.9,181,384.9,311.2,454.3,355z"/>
<path class="st11" d="M423.8,340c-18.1,0-32.8-14.7-32.8-32.8V206.4c0-4.4,0.9-8.5,2.4-12.4c-8.5,5-14.3,14.3-14.3,24.9v98
	c0,15.9,12.9,28.8,28.8,28.8c6.5,0,12.5-2.2,17.3-5.8C424.8,340,424.3,340,423.8,340z"/>
<path class="st12" d="M423.8,341.8c-19.1,0-34.6-15.5-34.6-34.6V206.4c0-19.1,15.5-34.6,34.6-34.6c19.1,0,34.6,15.5,34.6,34.6v100.8
	C458.4,326.3,442.9,341.8,423.8,341.8z"/>
<path class="st11" d="M423.8,173.6c18.1,0,32.8,14.7,32.8,32.8v100.8c0,18.1-14.7,32.8-32.8,32.8c-18.1,0-32.8-14.7-32.8-32.8V206.4
	C390.9,188.3,405.7,173.6,423.8,173.6z M423.8,170.1c-20.1,0-36.4,16.3-36.4,36.4v100.8c0,20.1,16.3,36.4,36.4,36.4
	c20.1,0,36.4-16.3,36.4-36.4V206.4C460.2,186.4,443.9,170.1,423.8,170.1z"/>
<path class="st13" d="M425,334.7c-15.9,0-28.8-12.9-28.8-28.8v-98c0-15.9,12.9-28.8,28.8-28.8c15.9,0,28.8,12.9,28.8,28.8v98
	C453.8,321.8,440.9,334.7,425,334.7z"/>
<path class="st27" d="M453.9,256.2c0,3.9-12.9,7-28.8,7c-15.9,0-28.8-3.1-28.8-7V306c0,15.8,12.8,28.7,28.6,28.7
	c15.8,0,28.7-12.7,28.8-28.6L453.9,256.2z"/>
<path class="st5" d="M261.7,343.5l-5.8,11.7l-5.8-8.3l-5.8,11.7l-5.8-8.3l-5.8,11.7l-5.8-8.3l-5.8,11.7l-5.8-8.3l-5.8,11.7l-5.8-8.3
	l-5.8,11.7l-5.8-8.3l-5.8,11.7l-5.8-8.3l-5.8,11.7l-5.8-8.3l-5.8,11.7l-5.8-8.3l-5.8,11.7l-5.8-8.3l-5.8,11.7l-5.8-8.3l-5.8,11.7
	l-5.8-8.3l-5.8,11.7l-5.7-8.3l-5.8,11.7l-5.8-8.3l-5.7,11.7l-5.7-8.3c0.5,1.4,0,86.8,0,86.8l173-45.2L261.7,343.5z"/>
<path class="st2" d="M146.9,464.3c-16.8-10.9-34.1-27.2-34.1-46.1c0-21.2,14.7-41.8,25.5-56.8c4.3-6,10.1-14.1,10.1-16.6
	c-0.2-2.8-3.4-5-7.6-5c-5.2,0-10.5,3.3-14.4,9.1c-1.4,2.1-3.8,3.4-6.4,3.4c-4.3,0-7.7-3.4-7.7-7.7c-0.1-5,1.3-11.5,6.7-17.9
	c-7.7-2.4-17.2-7.8-22-19.9l-0.1-0.3c-2.4-7.4-2.1-13.7,0.8-17.6c1.9-2.6,4.8-4,8-4c3.9,0,8.1,2,12.5,6c4.9,4.5,9.3,6.7,11.8,7.4
	c-0.7-10.4,3.3-35.7,28.7-45.9c-4.4-5.4-5.4-12.7-2.9-21.3c1.4-4.1,4.4-6.5,8.2-6.5c3.2,0,7.9,1.5,16.7,11.1
	c2.4-5.4,7.1-9.6,13.4-11.2l4.6-1.2l1.4,4.6c0.1,0.3,1.6,5.3,2.7,13.2c1.1-0.4,2.3-0.7,3.6-0.7c1.4,0,2.8,0.3,4.1,0.9
	c3.2,1.5,5.2,4.4,5.5,7.9c0.2,2.3-0.4,4.6-1.6,6.7c7.6,4.9,13.3,11.9,16.8,20.4c3.5,8.6,4.3,18.3,2.3,28.1
	c-3.4,16.8-9.3,25.9-14.6,34c-4.1,6.3-7.7,11.8-9.8,20.4c-1.5,6.1,0.2,7.4,15,12c13.9,4.3,33,10.3,51.5,29.4
	c7.9,8.2,13,17.1,15.4,25.3L146.9,464.3z"/>
<path class="st15" d="M262,380.6c0,0-133.5,50.9-173,3v96.8l173-48.3V380.6z"/>
<path class="st16" d="M155.8,461.4c-16.7-10-36.2-25.5-36.2-43.2c0-19,14-38.6,24.2-52.8c6.8-9.4,11.6-16.3,11.4-20.9
	c-0.4-6.5-6.6-11.4-14.4-11.4c-7.5,0-14.8,4.4-20.1,12.1c-0.2,0.3-0.4,0.4-0.7,0.4c-0.3,0-0.9-0.2-0.9-0.9
	c-0.1-5.2,2-12.8,12.2-19.4c0.7-0.4,1-1.2,0.7-2c-0.2-0.7-0.9-1.3-1.7-1.3c-0.8,0-20.1-0.2-27-17.6c-1.6-5-1.7-9.3-0.2-11.4
	c0.6-0.8,1.4-1.2,2.5-1.2c2.1,0,4.9,1.5,7.9,4.2c6.4,5.8,13.2,9.4,17.8,9.4c2.3,0,3.6-0.9,4.3-1.7c1-1.2,1.4-2.8,1.2-4.8
	c-1.1-8.7,2.2-35,30.6-42.1c0.7-0.2,1.3-0.3,2-0.4l0.7-0.2c0.8-0.2,1.3-0.8,1.4-1.6c0.1-0.8-0.4-1.5-1.1-1.8
	c-8.3-3.4-11.1-10-8.2-19.7c0.5-1.6,1.3-1.6,1.6-1.6c1.2,0,6.3,1.3,19.1,17.8c0.3,0.4,0.9,0.7,1.4,0.7c0.3,0,0.5-0.1,0.8-0.2
	c0.7-0.4,1.2-1.2,1-2c-1.7-7,1.7-13.6,7.8-16.1c0.8,3.3,2.5,11,2.8,21c0,0.8,0.6,1.5,1.4,1.7c0.1,0,0.2,0,0.4,0c0.7,0,1.3-0.4,1.6-1
	c0.7-1.6,3.5-6.1,6.1-6.1c0.4,0,0.7,0.1,1.1,0.3c1,0.5,1.5,1.2,1.6,2.3c0.1,1.6-1,4.1-3.7,6.1c-0.5,0.4-0.8,1-0.7,1.6
	c0.1,0.6,0.4,1.2,1,1.5c8.9,4.1,15.5,11,19.1,20c3,7.4,3.6,15.7,1.9,24.2c-3.1,15.5-8.4,23.7-13.6,31.6c-4.3,6.6-8.3,12.8-10.7,22.5
	c-3.2,13.1,6.4,16.1,19.6,20.2c13.2,4.1,31.4,9.7,48.6,27.6c7.2,7.5,12,15.1,14,22.4L155.8,461.4z"/>
<path class="st17" d="M164.1,233.3c1.8,0.3,7.5,4.2,17.4,17.1c0.7,0.9,1.7,1.4,2.8,1.4c0.5,0,1.1-0.1,1.5-0.4c1.5-0.7,2.3-2.4,1.9-4
	c-1.3-5.5,0.7-10.5,4.9-13.1c0.9,3.8,2,10.4,2.2,18.5c0.1,1.6,1.2,3,2.8,3.4c0.2,0.1,0.5,0.1,0.7,0.1c1.4,0,2.6-0.8,3.2-2
	c1.1-2.3,3.4-5.1,4.5-5.1c0.1,0,0.2,0,0.3,0.1c0.5,0.2,0.6,0.5,0.6,0.8c0.1,1.1-0.9,3-3,4.5c-1,0.7-1.6,2-1.5,3.2
	c0.1,1.3,0.9,2.4,2,2.9c8.6,4,14.7,10.4,18.2,19.1c2.8,7,3.5,15,1.9,23.2c-3,15.1-8.3,23.2-13.3,31c-4.2,6.4-8.5,13-10.9,23
	c-3.6,14.7,7.7,18.2,20.8,22.3c13,4.1,30.9,9.6,47.9,27.1c6.4,6.7,10.9,13.5,13.1,19.9l-126.2,33.3c-13.5-8.2-34.7-23.8-34.7-41.3
	c0-18.5,13.8-37.7,23.9-51.8c7.2-10.1,12-16.8,11.7-22c-0.4-7.5-7.4-13.1-16.2-13.1c-7.3,0-14.3,3.8-19.7,10.4
	c0.9-5.6,4.8-10.8,11.2-15c1.3-0.9,1.9-2.5,1.5-4c-0.4-1.5-1.8-2.5-3.4-2.6c-0.8,0-18.9-0.3-25.3-16.3c-1.7-5.3-1.3-8.6-0.4-9.8
	c0.2-0.3,0.5-0.5,1.1-0.5c0.6,0,2.9,0.3,6.7,3.7c6.7,6.1,14,9.9,19,9.9c3,0,4.7-1.2,5.7-2.3c1-1.1,2-3,1.6-6.2
	c-1.1-8.3,2.1-33.3,29.3-40.1c0.6-0.2,1.3-0.3,1.9-0.4l0.7-0.2c1.5-0.3,2.7-1.6,2.8-3.2c0.1-1.5-0.7-3-2.2-3.6
	c-7.4-3.1-9.8-8.8-7.2-17.4C164,233.5,164.1,233.4,164.1,233.3z M195.2,229.4c-8,2-12.9,9.9-10.8,18.8c-5.9-7.6-15.2-18.5-20.5-18.5
	c-1.5,0-2.6,0.9-3.3,2.9c-3.9,13.3,2.9,19.2,9.3,21.8c-0.9,0.2-1.9,0.4-2.8,0.6c-30.7,7.7-32.9,36.3-31.9,44
	c0.4,3.1-1.1,4.5-3.7,4.5c-3.9,0-10.4-3.2-16.6-9c-3.5-3.2-6.6-4.7-9.1-4.7c-4.8,0-7,5.7-4,15.1c7.4,18.7,28.6,18.7,28.6,18.7
	c-10.8,7-13.1,15.2-13,21c0,1.7,1.3,2.7,2.7,2.7c0.8,0,1.6-0.4,2.2-1.2c5.5-8.1,12.6-11.3,18.6-11.3c6.8,0,12.3,4.1,12.6,9.8
	c0.6,10.6-35.6,42.2-35.6,73.6c0,19,21.1,35.3,37.8,45.1l131.2-34.6c-1.5-7.1-5.9-15.6-14.9-24.9c-35-36.2-73.5-23.1-67.8-46.1
	c5.2-21,18.6-25.5,24.3-54.2c1.7-8.4,1.2-17.2-2-25.2c-4-9.9-11.1-16.8-20-21c5-3.6,6.1-9.4,1.9-11.4c-0.6-0.3-1.3-0.4-1.9-0.4
	c-4.4,0-7.7,7.1-7.7,7.1C198.1,238.9,195.2,229.4,195.2,229.4z"/>
<path d="M155.1,313c2.8,0,5.1-6.6,5.1-14.7c0-8.1-2.3-14.7-5.1-14.7c-2.8,0-5.1,6.6-5.1,14.7C150.1,306.4,152.3,313,155.1,313z"/>
<path class="st17" d="M100.5,298.7c0,0-0.7,19,26.8,18.6c27.5-0.4,55.2-6.7,64.6,8.8c9.3,15.5-11,38-1.8,51.1
	c9.2,13.1,41.1,3.9,49,25.7c3.7,11.7-1.5,22-7.7,26.7c-10.4,8.4-35.9,18.4-61.1,10.6c-8.8-3.2-18.1-8.8-19-19.4
	c-2.1-25.6,30.4-28.8,25.5-39.7c-4.9-10.9-2.3-16.7,1.2-29c3.5-12.6,7.7-21.7-6.8-24.9c-10.2-2.2-35.5,2-45,14c0,0-3.1,3.2-4.1,4.9
	c0,0-0.9,1.5-2.8,1.1c-2-0.3-2.1-2.6-2.1-2.6s-1.5-11.6,13-21c0,0-12.4-0.4-20.7-7.6C109.6,316.1,100.9,309.4,100.5,298.7z"/>
<path class="st28" d="M261.9,195v240.3l107.7-28.5c2.7-0.7,4.6-3.2,4.6-6V165.4L261.9,195z"/>
<path class="st10" d="M262,432.1v-51.5c0,0,75.1-30.3,109.3-118.7v138.4c0,1.7-1.1,3.1-2.7,3.5L262,432.1z"/>
<path class="st2" d="M310,277.2c-4.2,0-7.6-3.4-7.6-7.6v-10.5l-10.2,2.8c-0.7,0.2-1.3,0.3-2,0.3c-4.2,0-7.6-3.4-7.6-7.6v-17.9
	c0-3.4,2.3-6.4,5.6-7.3l14.3-4v-14.7c0-3.4,2.3-6.4,5.6-7.3l17.3-4.8c0.7-0.2,1.3-0.3,2-0.3c4.2,0,7.6,3.4,7.6,7.6v10.5l10.2-2.8
	c0.7-0.2,1.3-0.3,2-0.3c4.2,0,7.6,3.4,7.6,7.6v17.9c0,3.4-2.3,6.4-5.6,7.3l-14.3,4v14.7c0,3.4-2.3,6.4-5.6,7.3l-17.3,4.8
	C311.3,277.1,310.6,277.2,310,277.2z"/>
<path class="st27" d="M327.3,199.1c3.8,0,6.8,3.1,6.8,6.8v11.6l11.2-3.1c0.6-0.2,1.2-0.3,1.8-0.3c3.8,0,6.8,3.1,6.8,6.8v17.9
	c0,3.1-2,5.8-5,6.6l-14.9,4.1v15.3c0,3.1-2.1,5.8-5,6.6l-17.3,4.8c-0.6,0.2-1.2,0.3-1.8,0.3c-3.8,0-6.8-3.1-6.8-6.8V258l-11.2,3.1
	c-0.6,0.2-1.2,0.3-1.8,0.3c-3.8,0-6.8-3.1-6.8-6.8v-17.9c0-3.1,2.1-5.8,5-6.6l14.9-4.1v-15.3c0-3.1,2-5.8,5-6.6l17.3-4.8
	C326,199.2,326.6,199.1,327.3,199.1z M327.3,197.5c-0.8,0-1.5,0.1-2.3,0.3l-17.3,4.8c-3.6,1-6.2,4.3-6.2,8.1v14.1l-13.7,3.8
	c-3.6,1-6.2,4.3-6.2,8.1v17.9c0,4.6,3.8,8.4,8.4,8.4c0.8,0,1.5-0.1,2.3-0.3l9.2-2.5v9.5c0,4.6,3.8,8.4,8.4,8.4
	c0.8,0,1.5-0.1,2.3-0.3l17.3-4.8c3.6-1,6.2-4.3,6.2-8.1v-14.1l13.7-3.8c3.6-1,6.2-4.3,6.2-8.1v-17.9c0-4.6-3.8-8.4-8.4-8.4
	c-0.8,0-1.5,0.1-2.3,0.3l-9.2,2.6v-9.5C335.7,201.3,331.9,197.5,327.3,197.5z"/>
<path class="st7" d="M346.5,218.7l-14.1,3.9c-1.5,0.4-2.9-0.7-2.9-2.2v-14.5c0-1.5-1.4-2.6-2.9-2.2l-17.3,4.8
	c-1,0.3-1.7,1.2-1.7,2.2v17c0,1-0.7,1.9-1.7,2.2l-16.5,4.6c-1,0.3-1.7,1.2-1.7,2.2v17.9c0,1.5,1.4,2.6,2.9,2.2l14.1-3.9
	c1.5-0.4,2.9,0.7,2.9,2.2v14.5c0,1.5,1.4,2.6,2.9,2.2l17.3-4.8c1-0.3,1.7-1.2,1.7-2.2v-17c0-1,0.7-1.9,1.7-2.2l16.5-4.6
	c1-0.3,1.7-1.2,1.7-2.2v-17.9C349.4,219.4,347.9,218.3,346.5,218.7z"/>
<path class="st18" d="M439.1,262.1v-62.7c0,0-0.4-14-13.8-16.5c0,0,12.3,0,18.4,11.1c1.8,3.3,2.6,7.2,2.6,11v55.9L439.1,262.1z"/>
<path class="st19" d="M428.6,331c0,0,16.7-2.3,21-18.7c0.6-2.4,0.8-4.9,0.8-7.4v-45.3l-4.1,1.2v46.3
	C446.4,307.1,446.6,324.8,428.6,331z"/>
<path class="st16" d="M159.2,306.7c1.7,0,3.2-4.3,3.2-9.6s-1.4-9.6-3.2-9.6c-1.7,0-3.2,4.3-3.2,9.6S157.4,306.7,159.2,306.7z"/>
<path class="st20" d="M90.5,476.7V243.7c0-1,0.7-1.9,1.7-2.2l280-73.2c4.7-4.5-6-3.2-6-3.2c-0.4-0.2-278,73.4-278,73.4
	c-0.4,0.1-0.9,0.1-1.3,0l-48.3-15.7c-0.9-0.3-1.8,0-2.4,0.7c-1,1.2-2.3,2.8-1.8,2.8c0.7,0,41.7,13.8,50.1,16.7
	c0.9,0.3,1.5,1.2,1.5,2.1v231.5c0,1,0.7,1.9,1.7,2.2C89.2,479.2,90.5,478.1,90.5,476.7z"/>
<path class="st2" d="M158.6,304c1,0,1.9-2.9,1.9-6.6c0-3.6-0.8-6.6-1.9-6.6c-1,0-1.9,2.9-1.9,6.6C156.7,301.1,157.6,304,158.6,304z"
	/>
<path class="st13" d="M179.7,432.5c-4.4,0-8.3-2.6-10-6.7c-1.1-2.7-1.1-5.6,0.1-8.3c1.1-2.7,3.2-4.7,5.9-5.8l31.2-12.7
	c1.3-0.5,2.7-0.8,4.1-0.8c4.4,0,8.3,2.6,10,6.7c2.2,5.5-0.4,11.8-5.9,14.1l-31.2,12.7C182.4,432.3,181,432.5,179.7,432.5z"/>
<path class="st16" d="M210.8,399.2c3.9,0,7.6,2.3,9.2,6.2c2.1,5.1-0.4,10.8-5.4,12.9l-31.2,12.7c-1.2,0.5-2.5,0.7-3.7,0.7
	c-3.9,0-7.6-2.3-9.2-6.2c-2.1-5.1,0.4-10.8,5.4-12.9l31.2-12.7C208.3,399.4,209.6,399.2,210.8,399.2z M210.8,397.4
	c-1.5,0-3,0.3-4.4,0.9l-31.2,12.7c-2.9,1.2-5.1,3.4-6.4,6.3c-1.2,2.9-1.2,6.1-0.1,8.9c1.8,4.4,6.1,7.3,10.8,7.3c1.5,0,3-0.3,4.4-0.9
	l31.2-12.7c6-2.4,8.8-9.3,6.4-15.2C219.9,400.3,215.6,397.4,210.8,397.4z"/>
<path class="st27" d="M199.2,424.5c-1.2,0.5-3.9-3.2-6-8.3c-2.1-5.1-2.7-9.6-1.5-10.1l-15.8,6.4c-5,2-7.5,7.8-5.4,12.8
	c2,5,7.8,7.5,12.8,5.5L199.2,424.5z"/>
<path class="st2" d="M174.2,420.8c-0.4-1,0.1-2.2,1.1-2.7l34.1-13.7c1-0.4,2.2,0.1,2.7,1.1c0.4,1.1-0.1,2.2-1.1,2.7l-34.1,13.7
	C175.8,422.3,174.6,421.8,174.2,420.8z"/>
<path class="st21" d="M88.4,280.2v-39.3l285.8-75.5v10.2C374.2,175.6,154.9,207,88.4,280.2z"/>
<path class="st10" d="M36.2,223.2l22,7.1c0,0,205.5-62.9,314.6-62.4L320,146.9L40.8,220L36.2,223.2z"/>
<path class="st22" d="M323.9,148.2c-2.5-0.9-5.2-1-7.8-0.3L37.7,221.4c-2.3,0.6-3.9,2.7-3.9,5v231.3c0,2.9,1.9,5.5,4.6,6.5
	l44.8,15.3c3.2,1.1,6.5,1.2,9.8,0.3l276.7-73c2.7-0.7,4.6-3.2,4.6-6V169c0-2.2-1.4-4.1-3.5-4.8L323.9,148.2z"/>
<path class="st29" d="M425,334.7c-15.9,0-28.8-12.9-28.8-28.8v-98c0-15.9,12.9-28.8,28.8-28.8c15.9,0,28.8,12.9,28.8,28.8v98
	C453.8,321.8,440.9,334.7,425,334.7z"/>
<path class="st24" d="M384.1,162.1l72.3-19c5.2-1.4,10.3,2.5,10.3,7.9v190.4l10,8.7l4.2-9.4V142.2c0,0-7.6-18.1-24.4-16l-94.9,26.2
	L384.1,162.1z"/>
<path class="st3" d="M347,156.1l27.3,9.3v216.8l91.4-24.1c8.5-2.2,14.4-9.9,14.4-18.6V146c0-12.6-12-21.9-24.2-18.6L347,156.1z"/>
<path class="st25" d="M392.9,188.7c0,0,8-15,15.5-7.9c0.1,0.1,0.1,0.1,0.2,0.2c5.8,5.6,9.1,15.3,9.1,25.5v107.8
	c0,0,0.5,19.9-12.3,18.7c0,0-13.6-1.5-16.3-27.6V203.7C389.1,203.7,390.4,193.1,392.9,188.7z"/>
<path class="st28" d="M405.9,261.9v43.3c0,9.3,7.5,16.8,16.8,16.8c9.3,0,16.8-7.5,16.8-16.8v-43
	C439.5,262.3,425.7,264.8,405.9,261.9z"/>
<path class="st2" d="M409.8,247.3v-46.4c0-6,4.8-10.8,10.8-10.8c6,0,10.8,4.8,10.8,10.8v25.2C431.4,238,421.7,247.5,409.8,247.3z"/>
<g>
	<path class="st2" d="M364.8,316c-0.7-3.9-2.1-7.3-4.1-10.1c-2.3-3.2-5.5-5.4-9.6-6.7c-1.6-0.5-3.3-0.8-5.1-0.8
		c-2.4-0.1-4.9,0.2-7.5,0.9c-5.3,1.4-9.9,4.1-13.7,8c-3.2,3.2-5.5,7-6.9,11.1c-0.2-0.3-0.4-0.6-0.6-0.9c-2.3-3.2-5.5-5.4-9.6-6.7
		c-1.6-0.5-3.3-0.8-5.1-0.8c-2.4-0.1-4.9,0.2-7.5,0.9c-5.3,1.4-9.9,4.1-13.7,8c-2.2,2.3-4,4.8-5.4,7.6c-0.1-2.1-1-4-2.5-5.3
		c-1.1-1-2.5-1.5-3.9-1.6c-0.6,0-1.1,0-1.7,0.2l-34.2,9.2c-2.7,0.7-4.6,3.4-4.7,6.5l-0.7,41.9c0,1.9,0.6,3.7,1.8,5.1
		c-1.2,1.3-1.9,3.1-1.9,5v4.5c0,8.9,0.8,15.1,2.5,19.5c2.1,5.3,5.9,9,10.9,10.7c1.8,0.6,3.8,0.9,5.8,1c2.6,0.1,5.4-0.2,8.4-1
		c4.4-1.2,8.2-3,11.3-5.3c3.3-2.5,5.9-5.6,7.8-9.1c0.7-1.3,1.3-2.6,1.8-4c0.3,0.4,0.6,0.9,0.9,1.3c2.5,3.4,6,5.6,10.1,6.3
		c0.9,0.2,1.8,0.3,2.8,0.3c2.8,0.1,5.8-0.3,9.3-1.2c3.6-1,6.9-2.5,9.8-4.7c3.1-2.2,5.7-5.3,7.8-9c1-1.7,1.8-3.4,2.4-5.2
		c0.4,0.6,0.8,1.3,1.3,1.9c2.5,3.4,6,5.6,10.1,6.3c0.9,0.2,1.8,0.3,2.8,0.3c2.8,0.1,5.8-0.3,9.3-1.2c3.6-1,6.9-2.5,9.8-4.7
		c3.1-2.2,5.7-5.3,7.8-9c2.1-3.6,3.4-7.4,4.1-11.3c0.6-3.5,0.9-8.5,0.9-15.3v-27.6C365.6,324.1,365.4,319.2,364.8,316z"/>
	<path d="M259.5,350.9c-3.9,1-7.1,3.8-9.6,8.2v-14.1l19.8-5.3v-13.3l-34.2,9.2l-0.7,41.9l15.8-4.2c0-2.4,0.1-4,0.2-4.7
		c0.1-0.7,0.5-1.4,1-2.1c0.5-0.7,1.1-1.2,1.9-1.4c1.2-0.3,2,0,2.5,1c0.5,1,0.8,3,0.8,6.1v16.4c-0.1,5.8-0.1,9.1-0.1,9.8
		c0,0.8-0.3,1.5-0.8,2.3c-0.5,0.8-1.1,1.3-1.9,1.5c-1.7,0.5-2.7-0.4-3-2.6c-0.3-2.2-0.4-5.9-0.4-11.3v-5.2l-16,4.3v4.5
		c0,7.7,0.7,13.2,2,16.6c1.3,3.3,3.5,5.5,6.7,6.5c3.1,1,6.8,1,10.9-0.1c3.7-1,6.8-2.4,9.3-4.4c2.5-1.9,4.5-4.2,5.9-7
		c1.4-2.7,2.3-5.5,2.8-8.4c0.4-2.9,0.7-7.2,0.7-13.1v-11.8c0-9.1-1.1-14.9-3.4-17.5C267.2,350.4,263.9,349.7,259.5,350.9z"/>
	<path d="M312.4,321.7c-1.4-1.9-3.4-3.3-6.2-4.1c-2.8-0.8-5.9-0.8-9.4,0.1c-4.3,1.1-7.9,3.3-11,6.4c-3,3.1-5,6.7-6,10.7
		c-1,4.1-1.5,9.9-1.5,17.5v28.9c0,5.8,0.3,10,0.9,12.5c0.6,2.5,1.7,4.8,3.2,6.8c1.5,2,3.5,3.3,6,3.7c2.5,0.5,5.7,0.2,9.5-0.8
		c2.9-0.8,5.5-2,7.9-3.7c2.3-1.7,4.3-4,6-7c1.7-2.9,2.8-5.9,3.3-8.9c0.5-3,0.8-7.6,0.8-13.9v-27.6c0-6.3-0.2-10.8-0.7-13.5
		C314.7,326,313.8,323.6,312.4,321.7z M299.9,380.6c0,4.1-0.2,6.7-0.6,8c-0.4,1.3-1.1,2-2.3,2.4c-1.2,0.3-2,0-2.3-0.9
		c-0.4-0.9-0.5-3.7-0.5-8.6v-40.4c0-4.3,0.2-7,0.6-8.3c0.4-1.3,1.2-2.1,2.4-2.4c1.2-0.3,2,0,2.3,1c0.3,1,0.5,3.7,0.5,8.1V380.6z"/>
	<path d="M358.6,317.1c-0.5-2.7-1.4-5.1-2.8-7c-1.4-1.9-3.4-3.3-6.2-4.1c-2.8-0.8-5.9-0.8-9.4,0.1c-4.3,1.1-7.9,3.3-11,6.4
		c-3,3.1-5,6.7-6,10.7c-1,4.1-1.5,9.9-1.5,17.5v28.9c0,5.8,0.3,10,0.9,12.5c0.6,2.5,1.7,4.8,3.2,6.8s3.5,3.3,6,3.7
		c2.5,0.5,5.7,0.2,9.5-0.8c2.9-0.8,5.5-2,7.9-3.7c2.3-1.7,4.3-4,6-7c1.7-2.9,2.8-5.9,3.3-8.9c0.5-3,0.8-7.6,0.8-13.9v-27.6
		C359.3,324.3,359,319.8,358.6,317.1z M343.3,369c0,4.1-0.2,6.7-0.6,8c-0.4,1.3-1.1,2-2.3,2.4c-1.2,0.3-2,0-2.3-0.9
		c-0.4-0.9-0.5-3.7-0.5-8.6v-40.4c0-4.3,0.2-7,0.6-8.3c0.4-1.3,1.2-2.1,2.4-2.4c1.2-0.3,2,0,2.3,1s0.5,3.7,0.5,8.1V369z"/>
</g>
</svg>
