<svg version="1.1" xmlns="http://www.w3.org/2000/svg" xmlns:xlink="http://www.w3.org/1999/xlink" x="0px" y="0px"
	 viewBox="0 0 510.24 595.28" style="enable-background:new 0 0 510.24 595.28;" xml:space="preserve">
<style type="text/css">
	.bunnyst0{fill:#728033;stroke:#000000;stroke-width:3.3777;stroke-miterlimit:10;}
	.bunnyst1{fill:#728033;}
	.bunnyst2{fill:#4C4530;}
	.bunnyst3{fill:#332E20;}
	.bunnyst4{fill:#769299;}
	.bunnyst5{fill:#AF8F51;}
	.bunnyst6{fill:#A6D8E0;}
	.bunnyst7{fill:none;stroke:#000000;stroke-width:3;stroke-miterlimit:10;}
	.bunnyst8{fill:#EFBD65;}
	.bunnyst9{fill:#B2B6B7;}
	.bunnyst10{fill:#A80000;}
	.bunnyst11{fill:#DA211E;}
	.bunnyst12{fill:#E0E0E0;}
	.bunnyst13{fill:#FFFFFF;}
	.bunnyst14{fill:#F18A0E;stroke:#000000;stroke-width:3.0752;stroke-miterlimit:10;}
	.bunnyst15{fill:none;}
	.bunnyst16{fill:#F06BAC;}
	.bunnyst17{fill:#FF92CB;}
	.bunnyst18{fill:#FFB255;}
	.bunnyst19{fill:#0028FF;}
	.bunnyst20{fill:#8628FF;}
	.bunnyst21{fill:#D34690;}
	.bunnyst22{fill:#912D66;}
	.bunnyst23{fill:#F9D2E8;}
	.bunnyst24{fill:#FF43A6;}
	.bunnyst25{fill:#007BFF;}
	.bunnyst26{fill:none;stroke:#000000;stroke-width:2.2205;stroke-miterlimit:10;}
	.bunnyst27{opacity:0.54;fill:#3C459E;}
	.bunnyst28{opacity:0.31;fill:#FFDC00;}
	.bunnyst29{opacity:0.25;fill:#FFFFFF;}
	.bunnyst30{opacity:0.16;fill:#FFDC00;}
	.bunnyst31{opacity:0.58;fill:#3E4056;}
	.bunnyst32{fill:#F18A0E;stroke:#000000;stroke-width:3.2054;stroke-miterlimit:10;}
	.bunnyst33{fill:#F7A800;}
	.bunnyst34{fill:none;stroke:#000000;stroke-width:3.2054;stroke-miterlimit:10;}
	.bunnyst35{opacity:0.63;fill:#3E4056;}
	.bunnyst36{fill:#685F3C;}
	.bunnyst37{fill:#99B541;}
	.bunnyst38{fill:#877846;}
	.bunnyst39{fill:#F7A800;stroke:#000000;stroke-width:3;stroke-miterlimit:10;}
	.bunnyst40{fill:#F18A0E;}
	.bunnyst41{fill:#1D1D1D;}
	.bunnyst42{fill:#FFD346;}
	.bunnyst43{fill:#BCD362;}
	.bunnyst44{fill:none;stroke:#000000;stroke-width:3.3338;stroke-miterlimit:10;}
	.bunnyst45{opacity:0.53;fill:none;stroke:#3A3426;stroke-miterlimit:10;}
	.bunnyst46{opacity:0.53;fill:none;stroke:#3A3426;stroke-width:0.5;stroke-miterlimit:10;}
	.bunnyst47{fill:#9E7841;}
	.bunnyst48{fill:#E2B564;}
	.bunnyst49{fill:#47862B;}
	.bunnyst50{fill:#5BC125;}
	.bunnyst51{fill:#C5CCD3;}
	.bunnyst52{fill:#335122;}
	.bunnyst53{fill:#838B91;}
	.bunnyst54{fill:#F18A0E;stroke:#000000;stroke-width:3;stroke-miterlimit:10;}
	.bunnyst55{fill:#728033;stroke:#000000;stroke-width:3;stroke-miterlimit:10;}
	.bunnyst56{fill:#4B632C;}
	.bunnyst57{fill:#FFFFFF;stroke:#000000;stroke-width:3;stroke-miterlimit:10;}
	.bunnyst58{fill:#606D72;}
	.bunnyst59{fill:#FFFFFF;stroke:#1D1D1B;stroke-width:4;stroke-miterlimit:10;}
	.bunnyst60{fill:#3F4147;}
	.bunnyst61{fill:#ED7601;}
	.bunnyst62{fill:#D64422;}
	.bunnyst63{fill:#FF871A;}
	.bunnyst64{fill:#FFA255;}
	.bunnyst65{fill:#FFDB8A;}
	.bunnyst66{fill:#C7D0D1;}
	.bunnyst67{fill:#98B1B7;}
	.bunnyst68{fill:#E4F8F9;}
	.bunnyst69{fill:#A5766A;}
	.bunnyst70{fill:#D8AEA0;}
	.bunnyst71{fill:#5F682A;}
	.bunnyst72{fill:#45491D;}
	.bunnyst73{fill:#E2D8CF;}
	.bunnyst74{fill:#DCC4A8;}
	.bunnyst75{fill:#C99D75;}
	.bunnyst76{fill:#AD9884;}
	.bunnyst77{fill:#846E5D;}
	.bunnyst78{fill:#5D3D32;}
	.bunnyst79{fill:#DADCE8;}
	.bunnyst80{fill:#C1A595;}
	.bunnyst81{fill:#AD867D;}
	.bunnyst82{fill:#C6BEB1;}
	.bunnyst83{fill:#3F3C36;}
	.bunnyst84{fill:#EFEEEA;}
	.bunnyst85{fill:#E2DBD1;}
	.bunnyst86{fill:#63615C;}
	.bunnyst87{fill:#EFEAE4;}
	.bunnyst88{fill:#616163;}
	.bunnyst89{fill:#EAEAEA;}
	.bunnyst90{fill:#5F5F66;}
	.bunnyst91{opacity:0.7;fill:#FFFFFF;}
	.bunnyst92{fill:#7F685C;}
	.bunnyst93{fill:#DDB6B6;}
	.bunnyst94{fill:#FFDEDE;}
	.bunnyst95{fill:#996666;}
	.bunnyst96{fill:#8E725E;}
	.bunnyst97{fill:#917171;}
	.bunnyst98{fill:#45474C;}
	.bunnyst99{fill:#42383E;}
	.bunnyst100{opacity:0.23;fill:#FF9570;}
	.bunnyst101{fill:#CAA684;}
	.bunnyst102{fill:#AF6C68;}
	.bunnyst103{fill:#C69391;}
	.bunnyst104{fill:#E2AD81;}
	.bunnyst105{fill:#AA8363;}
	.bunnyst106{fill:none;stroke:#000000;stroke-width:4.3565;stroke-miterlimit:10;}
</style>
<g id="left-wing_1_">
</g>
<g id="tail">
</g>
<g id="body">
</g>
<g id="head">
</g>
<g id="accessory">
</g>
<g id="right-wing">
</g>
<g id="eyes">
</g>
<g id="beak">
</g>
<g id="on-head">
</g>
<g id="eyebrows">
</g>
<g id="PET">
	<path class="bunnyst73" d="M101.84,504.38c0,0-11.78,2.94-26.94-7.21s-15.75-20.02-12.66-25.33c3.09-5.3,17.96-6.77,31.21,0.15
		C106.7,478.91,101.84,504.38,101.84,504.38z"/>
	<path class="bunnyst74" d="M94.66,497.35c0,0-3.09,3.09-11.78,1.18l1.03-2.5c0,0-7.07-1.47-9.42-2.5l3.53-1.91c0,0-7.07-1.77-9.42-4.71
		l4.12-1.77c0,0-5.89-0.74-7.8-4.56l4.12-1.77c0,0-3.68-2.36-4.56-5.01c0,0,1.91-2.94,7.95-2.36c0,0-1.62-2.65-1.18-2.5
		c0.44,0.15,6.48-1.03,16.49,1.03C97.75,472.03,96.82,495.39,94.66,497.35z"/>
	<path class="bunnyst13" d="M92.6,501.91c0,0-7.07,1.77-14.43-1.33l-1.03-1.91c0,0-7.51-2.8-12.96-7.66l0.88-2.21
		c0,0-5.01-4.42-6.18-6.92l1.33-1.77l-1.62-6.92l5.45-2.94c0,0-2.94,4.27,1.18,7.95c0,0-3.24,4.27,3.53,8.1c0,0-2.94,3.83,1.91,7.36
		c4.86,3.53,11.04,3.53,11.04,3.53s-1.33,4.71,10.31,4.56"/>
	<path class="bunnyst75" d="M88.47,494.99c0,0-6.63-0.29-10.6-1.77l4.27-2.21c0,0-7.07-1.33-11.04-3.53l5.89-2.8
		c0,0-7.07-0.74-10.16-3.24c0,0,4.42-2.94,7.8-3.09c0,0-5.45-2.36-8.54-4.42c0,0,5.89-1.47,8.83-0.88l-1.47-3.39
		c0,0,7.07,0,9.28,0.15l-5.6,1.47l1.18,3.24h-6.48l8.25,4.86l-7.8,1.77l8.98,3.24l-5.3,2.36l9.72,3.83l-2.5,2.06L88.47,494.99z"/>
	<path class="bunnyst76" d="M134.41,503.83c0,0,14.13,3.83,19.44-0.74s1.18-11.48-5.45-13.99c-6.63-2.5-26.8,1.77-25.03,7.07
		C125.14,501.47,134.41,503.83,134.41,503.83z"/>
	<path class="bunnyst74" d="M151.35,474.68c0,0-2.36,25.91,6.04,30.04c7.87,3.87,20.92-0.94,14.26-10.18c-0.72-1-1.64-1.82-2.64-2.54
		c-1.86-1.35-5.47-5.02-4.7-12.75C165.33,468.93,151.35,474.68,151.35,474.68z"/>
	<path class="bunnyst75" d="M141.33,395.76c0,0-33.87-56.69-32.69-63.61c1.18-6.92,31.95,11.04,39.02,22.82
		c7.07,11.78,9.72,42.26,7.51,42.99C152.97,398.7,141.33,395.76,141.33,395.76z"/>
	<path class="bunnyst77" d="M150.17,392.66c0,0-9.13-36.22-23.12-49.62s-18.85-13.55-18.4-10.9c0.74,5.15,11.34,29.45,25.77,48.59
		l4.86,15.02C139.27,395.76,150.46,399.29,150.17,392.66z"/>
	<path class="bunnyst78" d="M136.47,343.78c0,0-21.79-16.34-27.68-12.81c0,0-1.62,2.5,4.42,14.28s11.48,24.59,11.48,24.59l8.25,1.47
		c0,0-18.99-30.92-18.4-34.6C115.12,333.03,136.47,343.78,136.47,343.78z"/>
	<path class="bunnyst74" d="M147.37,427.12c0,0-38.43-16.05-61.69,17.23c-11.94,23.64,1,47.02,7.28,56.18c1.79,2.61,4.46,4.5,7.52,5.29
		c4.99,1.28,13.3,3.15,20.71,3.5c3.94,0.19,15.09,1.84,16.16-5.04c1.18-7.51-7.21-10.01-7.21-10.01s57.72,3.83,38.58-46.97
		C163.27,397.82,147.37,427.12,147.37,427.12z"/>
	<path class="bunnyst73" d="M138.24,421.96c0,0-12.66-3.09-11.63,13.99c1.03,17.08,8.1,41.08,30.77,45.2
		c22.67,4.12,22.38-24.44,9.87-38.58C154.73,428.44,138.24,421.96,138.24,421.96z"/>
	<path class="bunnyst73" d="M135.78,393.4c0,0-10.27,16.12-5.85,40.64c9.28,19.66,37.44,13.58,37.44,13.58L135.78,393.4z"/>
	<path class="bunnyst74" d="M137.51,478.95c0,0-2.36,25.91,6.04,30.04c7.87,3.87,20.92-0.94,14.26-10.18c-0.72-1-1.64-1.82-2.64-2.54
		c-1.86-1.35-5.47-5.02-4.7-12.75C151.49,473.2,137.51,478.95,137.51,478.95z"/>
	<path class="bunnyst74" d="M182.56,438.9c0,0,2.5,11.63-11.34,10.6s-14.58-12.81-3.83-17.67C178.14,426.97,182.56,438.9,182.56,438.9z"
		/>
	<path class="bunnyst74" d="M135.74,392.81c0,0-7.66,31.66,0.74,45.06c8.39,13.4,44.02,9.28,44.02,9.28s5.74,2.5,8.98-3.98
		c3.24-6.48-2.06-12.52-2.06-12.52s-6.77-21.35-15.9-27.53S146.19,390.01,135.74,392.81z"/>
	<path class="bunnyst75" d="M164.82,446.3c0,0-9.61,1.99-19.66-4.97l-4.42-0.88l2.1-2.32l-5.52-1.44l3.87-2.1l-6.52-2.43l2.65-1.66
		l-3.98-2.32l2.76-1.21l-2.98-4.09l2.65-0.44c0,0-4.31-8.17-0.88-15.9s9.94-9.72,21.64-1.99c11.71,7.73,15.13,25.18,15.35,28.49
		c0,0,11.15,4.86,8.17,10.27C176.8,449.22,164.82,446.3,164.82,446.3z"/>
	<path class="bunnyst75" d="M189.44,442.21c0,0-6.52,5.52-6.18-1.21c0.33-6.74,3.98-6.18,0.55-15.13c-3.42-8.94-9.72-26.61-36.22-29.15
		c0,0-10.6-1.88-13.47,7.07c-2.87,8.94,2.06-11.71,2.06-11.71s15.5-3.75,38.25,13.8c0,0,6,4.27,12.99,24.77
		C187.42,430.65,192.76,437.24,189.44,442.21z"/>
	<path class="bunnyst95" d="M175.2,434.92c0,0,2.5,5.37,6.92,7.14c4.93-1.91,4.56-7.73,4.56-7.73l-3.24,2.94
		C183.44,437.28,179.32,435.36,175.2,434.92z"/>
	<path class="bunnyst96" d="M166.95,433.6c0,0-5.15,4.2-0.37,9.87c6.26,7.29,15.31,1.03,15.31,1.03s4.12,1.91,6.92-1.84
		c2.8-3.75-1.4-12-1.4-12s5.96,7.29,1.77,13.18c-4.2,5.89-8.69,3.31-8.69,3.31s-5.3,5.45-16.2,0.66c0,0-15.75-1.4-21.06-10.6
		c0,0,7.44,7.66,20.47,7.36C160.92,441.4,161.95,435.14,166.95,433.6z"/>
	<path class="bunnyst74" d="M164.16,418.91c0,0,0.99,8.17-0.77,10.27c-6.07,3.87-19.21-0.88-19.99-7.18c-0.77-4.86,6.85-4.53,6.85-4.53
		s-5.63-6.52-4.53-12.92s10.05-4.53,17.12,2.21c7.07,6.74,7.07,14.8,3.64,21.64C165.59,420.34,164.16,418.91,164.16,418.91z"/>
	<g>
		<path class="bunnyst97" d="M162.46,427.93c0,0,3.02-8.02-1.55-14.13c-6.04-6.77-14.21-1.4-14.21-1.4s-2.72,8.76,4.42,13.77
			C156.57,429.77,162.46,427.93,162.46,427.93z"/>
		<path class="bunnyst98" d="M156.51,411.92c2.72,1.27,4.6,3.84,5.25,6.77c0.58,2.62,1.02,6.4-0.77,8.14c-2.58,2.06-9.79-1.1-11.63-4.2
			c-1.8-3.03-2.13-7.58,0.37-10.23C151.23,410.8,153.95,410.72,156.51,411.92z"/>
		<path d="M159.79,416.39c2,3.47,2.34,8.07-0.35,9.63c-2.69,1.56-7.4-0.53-9.4-3.99c-2-3.47-1.44-7.54,1.25-9.1
			S157.79,412.92,159.79,416.39z"/>
		<ellipse class="bunnyst99" cx="153.48" cy="417.88" rx="3.17" ry="4.01"/>
		<ellipse class="bunnyst13" cx="153.08" cy="417.44" rx="1.07" ry="1.44"/>
		<path class="bunnyst100" d="M151.49,422.31c0,0,3.54,2.69,6.11,0.24s0-7.36,0-7.36s2.36,2.21,2.5,6.48c0.07,2.02-1.52,4-3.53,3.88
			C153.61,425.36,151.49,422.31,151.49,422.31z"/>
	</g>
	<path class="bunnyst73" d="M147.59,409.19c0,0-1.77-5.74,3.87-6.96c5.63-1.21,16.45,3.09,15.35,19.21
		C166.81,421.45,162.5,404.99,147.59,409.19z"/>
	<path class="bunnyst73" d="M173.65,431.39c0,0-3.2-15.02-9.28-22.2l3.98,2.1l-0.88-4.31l4.2,3.31l-0.77-4.53c0,0,8.43,4.12,13.36,21.09
		l-2.87-1.33l-0.77,2.65l-1.99-1.66l-1.21,3.64l-2.21-2.32L173.65,431.39z"/>
	<path class="bunnyst101" d="M88.77,473.79c0,0,7.95-19.29,23.56-16.05s23.85,19.44,13.69,35.04c0,0-8.25-1.91-23.26,1.33
		c0,0,31.14-3.42,30.37,10.93c-0.41,7.61-22.1,3.25-32.14,0.81c-3.63-0.88-6.71-3.26-8.49-6.55
		C89.6,493.97,86.33,484.91,88.77,473.79z"/>
	<path class="bunnyst101" d="M105.53,502.83c-5.98,1.29-12.03-1.72-14.65-7.25c-4.79-10.1-10.25-27.38-3.14-44.91
		c0,0,6.77-18.55,33.72-19.44c0,0-3.39,10.6,1.33,22.09c0,0-2.34-3.18-10.14-3.65c-6.05-0.36-13.91,3.3-17.67,8.05
		c-8.75,11.09-5.56,20.36-2.38,25.34c0,0,3.39,15.02,16.05,16.34C115.64,500.14,111.04,501.64,105.53,502.83z"/>
	<path class="bunnyst75" d="M133.82,410.48c0,0-24.29-17.23-34.31-33.72c-10.01-16.49-14.28-40.34-12.37-42.26
		c1.91-1.91,22.53,8.83,43.73,31.95c13.64,14.87,11.78,22.53,10.9,35.19C140.89,414.31,138.54,414.01,133.82,410.48z"/>
	<path class="bunnyst78" d="M133.82,410.48c0,0-24.15-16.05-36.37-36.22s-12.07-39.02-10.31-39.75c1.77-0.74,22.67,10.6,38.72,37.69
		C137.21,393.69,133.82,410.48,133.82,410.48z"/>
	<path class="bunnyst102" d="M133.82,407.83c0,0-22.53-16.49-30.77-30.63c-8.25-14.13-13.99-36.07-7.21-35.19
		c6.77,0.88,28.12,23.85,33.42,37.25C134.56,392.66,133.82,407.83,133.82,407.83z"/>
	<path class="bunnyst103" d="M134.12,403.78c0,0-23.71-18.77-31.36-38.36c-7.01-17.93-2.94-20.61,7.21-12.37
		C120.13,361.3,135,383.24,134.12,403.78z"/>
	<path class="bunnyst102" d="M134.56,400.32c0,0-17.96-16.79-20.76-24.29c0,0,16.05,15.75,17.82,13.1c0,0-17.08-16.64-26.8-33.57
		C104.82,355.56,133.35,378.2,134.56,400.32z"/>
	<path class="bunnyst74" d="M133.82,410.48c0,0,4.56-8.98-1.77-26.94c-6.33-17.96-30.48-46.53-44.91-49.03c0,0-1.47,2.36,0.29,3.68
		c1.77,1.33,11.19-0.59,32.54,31.66C136.92,396.05,133.82,410.48,133.82,410.48z"/>
	<path class="bunnyst74" d="M126.61,340.98c0,0,11.93,7.51,18.7,30.63c6.77,23.12,6.33,20.91,6.33,20.91l1.18,0.29
		C152.82,392.81,152.08,350.7,126.61,340.98z"/>
	<path class="bunnyst104" d="M124.25,362.92c0,0,12.07,11.19,14.43,18.11c2.36,6.92,0,19.29,0,19.29S140.16,382.8,124.25,362.92z"/>
	<path class="bunnyst101" d="M146.78,497.79c0,0,9.42-2.06,10.9,5.01c1.47,7.07-10.9,9.42-15.61,2.21c-4.71-7.21-5.6-35.04-5.6-35.04
		s1.62,4.27,10.01,9.72c0,0,0,9.13,2.5,15.02L146.78,497.79z"/>
	<path class="bunnyst101" d="M153.85,493.52c0,0,8.98,4.12,6.04,11.93c0,0,11.19,2.36,10.31-6.77c-0.88-9.13-10.16-6.18-10.16-6.18
		l4.56-1.91l-1.77-4.12c0,0-5.01,4.12-10.01,3.83L153.85,493.52z"/>
	<path class="bunnyst96" d="M112.92,502.65c0,0-0.29,5.01,6.48,5.89c6.77,0.88,6.33-6.63,1.03-8.83c0,0,6.63,0,6.18,6.77
		c0,0,0.59,2.21-1.47,3.09c0,0,12.07-0.29,5.89-11.04c0,0,7.07,5.01,2.21,10.16c0,0-7.8,4.56-19.58-0.29
		C113.65,508.39,110.56,506.63,112.92,502.65z"/>
	<path class="bunnyst96" d="M147.08,501.03c0,0,3.24,8.39-1.47,8.83c0,0,11.04,2.65,14.58-5.6c0,0,0.29-6.63-4.86-6.92
		c0,0,7.21,4.56-0.44,11.04c0,0,3.09-6.48-2.5-9.42c0,0,4.27,7.95-2.5,10.01C149.87,508.98,150.9,505.15,147.08,501.03z"/>
	<path class="bunnyst96" d="M168.57,480.12l-2.21-0.59l-6.04,2.36l-1.91-2.5l-4.86,0.59l-1.62-2.5l-4.71-0.29l-0.88-3.39l-4.27-1.91
		l-0.88-3.24l-5.89-3.24l0.59-3.98l-3.98-3.83l0.59-2.5l-4.12-3.53l-0.44-4.71l-1.33,4.86l3.24,3.24l-1.47,3.53l3.98,2.5v5.01
		l5.89,3.39l1.33,3.68l4.42,2.36l1.62,3.39l5.3,0.59l1.47,2.8l4.27-0.74l2.94,2.5l5.15-1.62c-6.18,8.39-11.93,7.95-11.93,7.95
		S162.54,490.43,168.57,480.12z"/>
	<path class="bunnyst96" d="M122.19,455.09c0,0,20.76,9.42,6.77,38.72c0,0,8.83,1.91,8.39,10.45l2.5,0.74
		c-4.31-10.2-6.02-22.19-6.04-35.34C133.82,469.67,138.09,458.18,122.19,455.09z"/>
	<path class="bunnyst96" d="M152.82,490.28l1.03,3.24c0,0,7.07,3.53,6.63,9.28c0,0,2.8-5.74-4.71-9.42l1.77-3.68L152.82,490.28z"/>
	<polygon class="bunnyst105" points="113.95,459.36 109.53,454.8 108.35,457.15 101.87,455.68 100.84,459.36 95.1,460.54 95.84,463.19 
		92.01,464.81 92.74,467.02 89.51,468.93 90.83,470.55 87.74,473.94 89.51,477.03 88.18,480.86 91.86,476.44 90.54,474.09 
		94.07,470.55 92.74,469.23 96.28,468.05 94.66,465.84 98.78,464.66 97.6,461.87 103.2,461.13 103.49,458.18 109.53,459.22 
		110.41,457.6 	"/>
	<path class="bunnyst13" d="M136.62,448.76l1.03,3.53l5.01-1.77l2.5,6.33l4.86-3.83l3.09,5.15l3.83-4.42l3.53,5.45l2.8-5.15l3.53,4.42
		l2.5-5.15l2.94,4.12c0,0,2.94,10.9-2.94,18.26l-2.8-3.68l-4.27,5.15l-4.56-5.15l-4.86,2.21l-1.62-5.01l-5.45,1.18l-1.33-5.74
		l-6.18-0.88l-0.29-6.18l-3.98-0.29l1.03-5.15l-3.53-1.47L136.62,448.76z"/>
	<path class="bunnyst13" d="M169.6,413.87l2.94,8.54l0.29-5.3l3.39,3.68l-0.44-4.86l4.42,3.09c0,0-2.94-6.63-5.89-9.13v4.86L169.6,413.87
		z"/>
	<path class="bunnyst13" d="M96.87,342.16c0,0,25.03,21.94,34.6,51.53C131.47,393.69,131.03,367.63,96.87,342.16z"/>
	<path class="bunnyst13" d="M90.54,465.25c0,0,3.39-11.63,16.93-13.25c13.55-1.62,23.26,6.63,25.03,22.23c0,0-1.47-16.2-17.96-19.58
		S90.54,465.25,90.54,465.25z"/>
	<path class="bunnyst13" d="M83.03,461.13c0,0,0.88-35.78,45.06-34.9c0,0-1.18,1.03-1.18,3.39C126.9,429.62,88.47,425.64,83.03,461.13z"
		/>
	<path class="bunnyst75" d="M93.7,493.89c0,0,12.59-3.09,29.6-2.87c0,0,7.73-18.33-7.73-27.39C100.11,454.58,88.18,475.56,93.7,493.89z"
		/>
	<path class="bunnyst75" d="M93.48,492.79c0,0,0.81,10.6,8.36,11.6s7.55-0.11,7.55-0.11l3.98-4.2c0,0,0.66,6.85,5.96,7.07
		s2.65-6.85-1.99-9.06c0,0,9.28,0.66,10.16,7.29c0,0,4.56-6.48-4.12-9.2c-8.69-2.72-21.5,2.13-21.06-4.49
		C102.32,491.68,97.9,490.14,93.48,492.79z"/>
	<g>
		<path d="M110.86,330.47c2.24,0,5.31,1.1,8.54,2.67c9.94,4.57,23.75,14.42,28.19,21.83c5.82,9.71,8.65,32.1,8.22,40.09
			c1.29,0.51,2.63,1.09,4.03,1.75c4.37,1.89,8.42,4.14,11.6,6.3c1.49,1.01,2.92,2.43,4.27,4.1c1.81,2.05,5.25,6.85,9.25,16.96
			c1.52,3.77,2.38,6.48,2.38,6.48s1.39,1.59,2.31,4.01c1.06,2.61,1.66,6.08-0.54,9.17c-0.1,0.14-0.21,0.26-0.31,0.39
			c-1.21,1.89-2.66,2.77-4.02,3.15c-0.7,0.24-1.35,0.32-1.93,0.32c-1.46,0-2.44-0.55-2.44-0.55s-2.56,2.63-7.78,2.63
			c-0.23,0-0.47-0.01-0.71-0.02c5.48,11.08,5.35,25.12-3.15,30.02c-0.25,0.4-0.52,0.78-0.79,1.16c-1.07,1.68-2.24,3.06-3.45,4.19
			c0.91,3.83,3.07,5.92,4.38,6.87c0.99,0.72,1.92,1.54,2.64,2.54c5.09,7.05-1.31,11.52-8.13,11.52c-1.34,0-2.69-0.17-3.98-0.53
			c-0.49,0.8-1.06,1.48-1.68,2.04c-0.06,0.05-0.12,0.1-0.18,0.15c-0.06,0.05-0.12,0.11-0.19,0.16c-1.9,1.58-4.82,2.45-7.82,2.45
			c-0.77,0-1.55-0.06-2.32-0.18c-1.07-0.12-1.74-0.28-1.74-0.28c0.07-0.01,0.13-0.03,0.2-0.04c-0.78-0.21-1.54-0.49-2.26-0.84
			c-1.51-0.74-2.66-2.19-3.55-4.06c-0.06-0.01-0.12-0.02-0.17-0.02c0.02,0.04,0.03,0.07,0.04,0.11l-0.72-0.21
			c-0.66-0.1-1.28-0.21-1.83-0.32c-0.48,2.5-2.34,3.83-4.68,4.51c-1.17,0.54-4.08,1.64-8.28,1.64c-2.83,0-6.24-0.5-10.11-2
			c-5.25-0.75-10.31-1.92-13.77-2.81c-0.94-0.24-1.83-0.6-2.68-1.03c-0.1,0-0.21,0-0.31,0c-3.05,0-7.53-0.49-12.89-2.53
			c-27.27-7.91-27.38-24.7-27.6-27.24c0,0,5.86-8.08,17.21-8.08c2.05,0,4.28,0.26,6.68,0.89c-0.45-7.43,0.73-15.43,4.78-23.47
			c11.84-16.94,27.61-21.09,40.24-21.09c0.99,0,1.97,0.03,2.92,0.07c-0.13-5.86,0.53-11.01,1.48-15.33
			c-7.14-5.25-23.5-18.28-32.87-33.74c-12.22-20.17-12.07-39.02-10.31-39.75c0.15-0.14,0.4-0.22,0.75-0.22
			c3.25,0,15.02,6.21,29.06,18.53c-1.19-2.48-2.45-5.04-3.75-7.56c-3.4-6.64-4.37-10.33-4.57-12.29c0-0.03,0-0.06-0.01-0.09
			c-0.13-1.44,0.16-1.9,0.16-1.9C109.29,330.63,110.02,330.47,110.86,330.47 M125.06,509.57c0,0,0.03,0,0.08,0
			c-0.02,0-0.05,0-0.07,0C125.07,509.57,125.07,509.57,125.06,509.57 M110.86,328.47c-1.23,0-2.3,0.26-3.17,0.78l-0.41,0.25
			l-0.25,0.41c-0.3,0.47-0.62,1.4-0.46,3.15c0,0.01,0,0.05,0.01,0.1c0.29,2.88,1.75,6.96,4.33,12.13
			c-10.59-8.24-19.6-12.99-23.09-12.99c0,0,0,0,0,0c-0.76,0-1.4,0.19-1.9,0.57c-0.54,0.35-0.95,0.94-1.21,1.75
			c-1.41,4.32-0.26,22.17,10.96,40.69c9.17,15.14,24.97,28.01,32.35,33.54c-0.81,4.05-1.24,8.21-1.28,12.42
			c-0.3,0-0.6-0.01-0.9-0.01c-12.11,0-29.2,3.81-41.88,21.95l-0.08,0.12l-0.06,0.13c-3.45,6.84-5.16,14.18-5.09,21.88
			c-1.55-0.26-3.09-0.4-4.59-0.4c-12.23,0-18.56,8.54-18.83,8.91l-0.44,0.6l0.06,0.74c0.01,0.09,0.02,0.2,0.02,0.32
			c0.94,13.31,11.21,23.48,28.93,28.64c5.64,2.14,10.36,2.62,13.37,2.63c0.88,0.42,1.77,0.74,2.65,0.97
			c3.35,0.86,8.44,2.05,13.76,2.82c3.57,1.36,7.14,2.06,10.61,2.06c4.36,0,7.45-1.07,8.98-1.76c1.08-0.32,1.98-0.75,2.71-1.23
			l9.09,2.17c0.08,0.02,0.81,0.19,1.95,0.32c0.85,0.13,1.71,0.19,2.58,0.19c3.56,0,6.88-1.06,9.1-2.91c0.04-0.03,0.1-0.08,0.16-0.14
			l0.05-0.04l0.07-0.06c0.05-0.05,0.11-0.09,0.16-0.14c0.43-0.39,0.83-0.81,1.19-1.26c1.01,0.19,2.05,0.28,3.12,0.28
			c5.1,0,9.49-2.14,11.18-5.46c0.81-1.58,1.7-4.89-1.43-9.23c-0.76-1.05-1.77-2.03-3.08-2.99c-0.9-0.66-2.43-2.09-3.31-4.67
			c1.04-1.1,2-2.32,2.85-3.65c0.2-0.28,0.39-0.55,0.56-0.81c8.62-5.38,9.15-18.63,4.74-29.64c2.78-0.39,4.72-1.44,5.82-2.2
			c0.56,0.15,1.26,0.28,2.08,0.28c0.85,0,1.7-0.14,2.52-0.41c2.04-0.58,3.74-1.89,5.05-3.89l0.05-0.06
			c0.09-0.11,0.18-0.22,0.27-0.34c2.2-3.09,2.46-6.92,0.77-11.08c-0.77-2.03-1.87-3.57-2.38-4.23c-0.29-0.87-1.09-3.22-2.31-6.26
			c-3.93-9.93-7.38-15-9.58-17.5c-1.55-1.91-3.12-3.41-4.67-4.46c-3.45-2.33-7.67-4.63-11.9-6.47c-0.95-0.45-1.89-0.87-2.82-1.26
			c0.09-9.42-2.86-30.32-8.55-39.79c-4.73-7.88-18.77-17.87-29.07-22.61C116.29,329.41,113.21,328.47,110.86,328.47L110.86,328.47z
			 M137.22,508.63c0.6-0.6,1.04-1.25,1.35-1.89c0.01,0,0.02,0,0.03,0.01c0.34,0.61,0.71,1.16,1.1,1.65L137.22,508.63L137.22,508.63z
			"/>
	</g>
	<path d="M139.42,441.33c0.33,0,11.6,6.63,24.85,5.96c0,0,8.91,4.9,16.16-0.15c0,0,0.18,3.9-6.77,4.56
		c-5.96,0.33-10.27-2.32-10.27-2.32S149.25,451.15,139.42,441.33z"/>
	<path d="M89.62,468.38c0,0,0.08-3.32,3.01-7.25c9.81-13.18,30.42-11.85,38.29,2.57c4.3,7.87,2.76,15.73,2.76,15.73
		s5.27-19.07-10.61-27.3c-5.72-2.96-12.41-3.6-18.62-1.93C97.76,452.01,89.68,456.62,89.62,468.38z"/>
	<path d="M134.45,482.3c0,0,3.9,25.55,9.02,26.69l-7.91,0.26c0,0,6.74-10.38-7.18-15.24c0,0-7.21-2.69-16.34-1.36
		c0,0,8.39-3.53,19.1-1.29C131.14,491.35,131.91,491.13,134.45,482.3z"/>
	<path d="M81.66,477.22c0,0,6.51,25.48,19.32,28.64c0,0-0.66,1.39-2.87,0.84S84.54,501.4,81.66,477.22z"/>
	<path d="M130.25,430.5c0,0-3.21-6.59-0.01-22.51l-2.09,1.08C128.16,409.08,123.3,425.42,130.25,430.5z"/>
	<path d="M140.19,406.21c0,0,5.52-17.45-2.54-30.37c-8.06-12.92-31.8-32.25-31.8-32.25l-1.99-3.31c0,0,26.17,16.45,38.32,37.55
		C149.03,393.4,140.19,406.21,140.19,406.21z"/>
	<path d="M143.62,392.63c0,0,9.94,0.77,19.66,5.63c0,0-2.21-2.98-5.52-4.2c0,0-5.74-3.31-13.69-4.09L143.62,392.63z"/>
	<path d="M175.2,434.92c0,0,2.91,5.56,6.92,7.14C182.12,442.06,177.41,434.92,175.2,434.92z"/>
	<path d="M156.09,494.77c0,0,7.18,6.4,2.43,11.93c0,0-2.65,3.42-7.18,3.75l1.1,1.66c0,0,6.85-1.1,8.94-5.96
		S159.63,495.66,156.09,494.77z"/>
</g>
</svg>
