<svg version="1.1" id="_x31_00" xmlns="http://www.w3.org/2000/svg" xmlns:xlink="http://www.w3.org/1999/xlink" x="0px" y="0px"
	 viewBox="0 0 510.2 595.3" style="enable-background:new 0 0 510.2 595.3;" xml:space="preserve">
<style type="text/css">
	.st0{fill:#C3D3DD;}
	.st1{fill:#E1F5FF;}
	.st2{fill:#FFFFFF;}
	.st3{fill:none;stroke:#000000;stroke-width:5.3405;stroke-miterlimit:10;}
	.st4{fill:#D8D8D8;}
	.st5{fill:#9DA5A5;}
	.st6{fill:#DDDDDD;}
	.st7{fill:#F72300;}
	.st8{fill:#F7C100;}
	.st9{fill:#B90000;}
	.st10{opacity:0.2;fill:#33485E;enable-background:new    ;}
	.st11{fill:#5B656B;}
	.st12{fill:#ABE7FF;}
	.st13{fill:#CCDDED;}
	.st14{fill:#B50F0F;}
	.st15{opacity:0.2;fill:#5489D0;enable-background:new    ;}
	.st16{fill:#FFD300;}
	.st17{fill:#FF9D00;}
	.st18{opacity:0.5;fill:#FFFFFF;enable-background:new    ;}
	.st19{fill:#FF5F5F;}
	.st20{opacity:0.7;fill:#FFFFFF;enable-background:new    ;}
	.st21{opacity:0.3;fill:#FFFFFF;enable-background:new    ;}
	.st22{fill:none;stroke:#000000;stroke-width:5.3405;stroke-linejoin:round;stroke-miterlimit:10;}
	.st23{fill:none;stroke:#4F0000;stroke-width:3.5603;stroke-miterlimit:10;}
	.st24{opacity:0.4;fill:#FFFFFF;enable-background:new    ;}
	.st25{opacity:0.4;fill:#33485E;enable-background:new    ;}
	.st26{fill:#FF0000;}
	.st27{fill:#E00045;}
	.st28{fill:#FF3B6E;}
	.st29{fill:none;stroke:#890B4D;stroke-width:3.5603;stroke-miterlimit:10;}
	.st30{fill:#00B18A;}
	.st31{fill:#39FF9C;}
	.st32{fill:none;stroke:#093A2E;stroke-width:3.5603;stroke-miterlimit:10;}
	.st33{fill:#3AA800;}
	.st34{fill:#4EF400;}
	.st35{fill:none;stroke:#2F3F25;stroke-width:3.5603;stroke-miterlimit:10;}
	.st36{fill:#009DA5;}
	.st37{fill:#31CDDD;}
	.st38{fill:none;stroke:#454E60;stroke-width:3.5603;stroke-miterlimit:10;}
	.st39{fill:#640ACC;}
	.st40{fill:#9E39FF;}
	.st41{fill:#8A00F7;}
	.st42{fill:none;stroke:#2C2F42;stroke-width:3.5603;stroke-miterlimit:10;}
	.st43{fill:#0082AF;}
	.st44{fill:#00B1FF;}
</style>
<path class="st0" d="M318.2,147.1l28.6-26.3l24-6.4c5.6-1.5,11.2,2.7,11.2,8.6v82.4l-9.4-39.7L318.2,147.1z"/>
<path class="st1" d="M346.8,120.8v35l35-9v-23.8c0-5.8-5.5-10.1-11.2-8.6L346.8,120.8z"/>
<path class="st2" d="M320.8,146.7l26.7-25l25.6-7.3c0,0,7.3,1,7.3,10c0,0-1.6-7.5-9.1-5.1l-24.3,7.4l-23.4,21.5L320.8,146.7z"/>
<path class="st3" d="M318.2,147.1l26.7-25l25.8-7.8c5.6-1.5,11.2,2.7,11.2,8.6v82.4l-9.4-39.7L318.2,147.1z"/>
<path class="st2" d="M345.2,156.3l27.3,9.3v216.8l91.4-24.1c8.5-2.2,14.4-9.9,14.4-18.6V146.2c0-12.6-12-21.9-24.2-18.6L345.2,156.3
	z"/>
<path class="st4" d="M343.5,162.5l27.4,9V381l91.1-23.4c8.5-2.2,14.4-9.6,14.4-18l0.8-186.8c0-12.2-12-21.1-24.3-18L343.5,162.5z"/>
<path class="st5" d="M372.5,165.6l-54.3-18.5L35.9,221.6c-2.3,0.6-3.9,2.7-3.9,5v231.3c0,2.9,1.9,5.5,4.6,6.5l49.6,16.9V241.1
	L372.5,165.6z"/>
<path class="st6" d="M367.9,407L86.3,481.3V241.1l286.2-75.5V401C372.5,403.8,370.6,406.3,367.9,407z"/>
<path class="st30" d="M34.4,223.4l51.9,17.7v240.2l-48.9-16.7c-3.2-1.1-5.3-4.1-5.3-7.5v-232C32,223.9,33.2,223,34.4,223.4z"/>
<path class="st31" d="M318.2,147.1l54.3,18.5l-112.3,29.6l-53.3-18.8L318.2,147.1z"/>
<path class="st2" d="M75.2,462.6c-0.3,0-0.6-0.1-0.8-0.1l-32.6-11.7c-1-0.3-1.6-1.3-1.6-2.3v-9.1c0-4.8,1.7-8,5.1-9.5
	c1.4-0.6,3-0.9,4.7-0.9c2.5,0,5.5,0.6,8.8,1.8c6,2.2,10.7,5.1,13.9,8.9c3.2,3.8,4.9,8.3,4.9,13.3v7.1
	C77.6,461.5,76.6,462.6,75.2,462.6z M51.4,438.3c-2.6,0-3.7,1.1-3.7,3.5v1.7c0,0.3,0.2,0.5,0.4,0.6l21.9,7.9v-1
	c0-2.4-0.9-4.4-2.8-6.2c-1.9-1.9-4.9-3.5-8.8-4.9C55.6,438.9,53.2,438.3,51.4,438.3z"/>
<path class="st31" d="M50,430c2.4,0,5.3,0.6,8.5,1.8c5.9,2.1,10.4,5,13.5,8.7c3.1,3.7,4.7,7.9,4.7,12.7v7.1c0,0.9-0.7,1.5-1.5,1.5
	c-0.2,0-0.3,0-0.5-0.1L42.1,450c-0.6-0.2-1-0.8-1-1.5v-9.1c0-4.4,1.5-7.3,4.6-8.7C46.9,430.3,48.4,430,50,430z M70.9,453.3V451
	c0-2.6-1-4.8-3-6.8c-2-2-5.1-3.6-9.1-5.1c-3-1.1-5.5-1.6-7.4-1.6c-3.1,0-4.6,1.4-4.6,4.3v1.7c0,0.7,0.4,1.2,1,1.5L70.9,453.3z
	 M50,428.2c-1.9,0-3.6,0.3-5.1,1c-2.6,1.1-5.7,3.9-5.7,10.3v9.1c0,1.4,0.9,2.7,2.2,3.1l32.6,11.7c0.4,0.1,0.7,0.2,1.1,0.2
	c1.8,0,3.3-1.5,3.3-3.3v-7.1c0-5.2-1.7-9.9-5.1-13.8c-3.3-3.9-8.1-7-14.3-9.2C55.7,428.8,52.6,428.2,50,428.2z M48.6,443.4v-1.6
	c0-1.6,0.5-2.6,2.8-2.6c1.7,0,3.9,0.5,6.7,1.5c3.8,1.4,6.7,3,8.5,4.7c1.6,1.5,2.4,3.3,2.5,5.3L48.6,443.4z"/>
<path class="st2" d="M70.5,430.6c-1.9,0-4.1-0.5-6.7-1.4l-22-7.9c-1-0.3-1.6-1.3-1.6-2.3v-3.7c0-1.3,1.1-2.4,2.4-2.4
	c0.3,0,0.6,0.1,0.8,0.1l21.4,7.7c1.4,0.5,2.6,0.8,3.5,0.8c0.7,0,1.3-0.2,1.6-0.5c0.3-0.4,0.5-1,0.5-1.8c0-1.3-0.5-2.4-1.5-3.5
	c-1.1-1.1-2.6-2-4.6-2.8l-22.6-8.1c-1-0.3-1.6-1.3-1.6-2.3v-3.7c0-1.3,1.1-2.4,2.4-2.4c0.3,0,0.6,0.1,0.8,0.1l21,7.5
	c4.4,1.6,7.8,3.9,10.1,6.8c2.3,3,3.5,6.6,3.5,10.6c0,4.1-1.3,6.9-3.8,8.2C73.2,430.3,71.9,430.6,70.5,430.6z"/>
<path class="st31" d="M42.6,397.3c0.2,0,0.3,0,0.5,0.1l21,7.5c4.3,1.5,7.5,3.7,9.7,6.5c2.2,2.8,3.4,6.2,3.4,10
	c0,3.8-1.1,6.2-3.3,7.4c-1,0.5-2.1,0.8-3.5,0.8c-1.8,0-3.9-0.4-6.4-1.3l-22-7.9c-0.6-0.2-1-0.8-1-1.5v-3.7c0-0.9,0.7-1.5,1.5-1.5
	c0.2,0,0.3,0,0.5,0.1l21.4,7.7c1.5,0.6,2.8,0.8,3.8,0.8c2,0,3-1.1,3-3.2c0-1.5-0.6-2.8-1.7-4.1s-2.8-2.2-4.9-3L42.1,404
	c-0.6-0.2-1-0.8-1-1.5v-3.7C41.1,397.9,41.8,397.3,42.6,397.3z M42.6,395.5c-1.8,0-3.3,1.5-3.3,3.3v3.7c0,1.4,0.9,2.7,2.2,3.1
	l22.6,8.1c1.9,0.7,3.3,1.5,4.2,2.5c0.8,0.9,1.2,1.8,1.2,2.8c0,1.3-0.4,1.4-1.2,1.4c-0.8,0-1.9-0.2-3.2-0.7l-21.4-7.7
	c-0.4-0.1-0.7-0.2-1.1-0.2c-1.8,0-3.3,1.5-3.3,3.3v3.7c0,1.4,0.9,2.7,2.2,3.1l22,7.9c2.7,0.9,5,1.4,7,1.4c1.6,0,3.1-0.3,4.3-1
	c2.8-1.5,4.3-4.5,4.3-9c0-4.3-1.3-8-3.7-11.1c-2.4-3.1-6-5.5-10.5-7.1l-21-7.5C43.4,395.6,43,395.5,42.6,395.5z"/>
<path class="st2" d="M68.5,400.6c-2.7,0-6.1-0.7-9.9-2c-5.9-2.1-10.6-5-13.9-8.6c-3.4-3.7-5.1-7.8-5.1-12.2c0-1.5,0.2-2.8,0.6-4.1
	c0.2-0.7,0.6-1.5,1-2.2c0.4-0.7,1.2-1.2,2.1-1.2c0.6,0,1.1,0.2,1.5,0.5l2.9,2.3c1,0.8,1.2,2.2,0.5,3.2c-0.2,0.3-0.4,0.6-0.5,0.9
	c-0.3,0.6-0.5,1.3-0.5,2.2c0,1.7,1,3.5,3,5.3c2.1,1.9,5.2,3.5,9,4.9c3.1,1.1,5.7,1.7,7.5,1.7c1.3,0,2.2-0.3,2.8-0.8
	c0.6-0.5,0.9-1.3,0.9-2.5c0-1.1-0.2-2.3-0.6-3.7c-0.2-0.7-0.1-1.5,0.4-2.2c0.5-0.6,1.2-1,1.9-1c0.3,0,0.6,0.1,0.8,0.1l2.2,0.8
	c0.6,0.2,1.1,0.7,1.4,1.3c1,2.2,1.5,4.8,1.5,7.5c0,4.7-1.8,7.7-5.4,9C71.5,400.3,70.1,400.6,68.5,400.6z"/>
<path class="st31" d="M43.3,371.2c0.3,0,0.7,0.1,1,0.3l2.9,2.3c0.6,0.5,0.8,1.4,0.3,2c-0.2,0.3-0.4,0.6-0.6,0.9
	c-0.4,0.7-0.6,1.6-0.6,2.7c0,2,1.1,4,3.3,6c2.2,2,5.3,3.6,9.3,5.1c3.2,1.2,5.8,1.7,7.8,1.7c3.1,0,4.6-1.4,4.6-4.2
	c0-1.2-0.2-2.5-0.6-3.9c-0.3-1,0.5-2,1.5-2c0.2,0,0.3,0,0.5,0.1l2.2,0.8c0.4,0.1,0.7,0.4,0.9,0.8c1,2.1,1.4,4.5,1.4,7.1
	c0,4.3-1.6,7-4.8,8.1c-1.1,0.4-2.4,0.6-3.9,0.6c-2.7,0-5.8-0.7-9.6-2c-5.8-2.1-10.3-4.9-13.5-8.4c-3.2-3.5-4.9-7.4-4.9-11.6
	c0-1.4,0.2-2.7,0.5-3.8c0.2-0.7,0.5-1.3,0.9-2C42.3,371.4,42.8,371.2,43.3,371.2z M43.3,369.4c-1.2,0-2.3,0.6-2.8,1.6
	c-0.4,0.8-0.8,1.6-1.1,2.3c-0.4,1.3-0.6,2.8-0.6,4.3c0,4.6,1.8,9,5.3,12.8c3.4,3.7,8.2,6.7,14.3,8.9c3.9,1.4,7.3,2.1,10.2,2.1
	c1.7,0,3.2-0.2,4.5-0.7c2.7-1,6-3.5,6-9.8c0-2.9-0.5-5.5-1.6-7.9c-0.4-0.8-1.1-1.4-1.9-1.7l-2.2-0.8c-0.4-0.1-0.7-0.2-1.1-0.2
	c-1,0-2,0.5-2.7,1.4c-0.6,0.9-0.8,1.9-0.5,2.9c0.4,1.2,0.6,2.4,0.6,3.4c0,1.5-0.5,2.4-2.8,2.4c-1.8,0-4.2-0.6-7.2-1.6
	c-3.7-1.3-6.7-2.9-8.7-4.7c-1.8-1.6-2.7-3.2-2.7-4.6c0-0.7,0.1-1.3,0.4-1.8c0.2-0.3,0.3-0.5,0.5-0.8c0.9-1.4,0.6-3.3-0.7-4.4
	l-2.9-2.3C44.8,369.7,44.1,369.4,43.3,369.4z"/>
<path class="st2" d="M75.2,378.5c-0.3,0-0.6-0.1-0.8-0.1l-32.6-11.7c-1-0.3-1.6-1.3-1.6-2.3v-3.8c0-1.3,1.1-2.4,2.4-2.4
	c0.3,0,0.6,0.1,0.8,0.1l10.8,3.9l-1.4-1.1L41,350.6c-0.5-0.5-0.8-1.1-0.8-1.8v-3.3c0-1.3,1.1-2.4,2.4-2.4c0.6,0,1.2,0.2,1.6,0.6
	l12.4,11.4c0.1,0.1,0.3,0.2,0.4,0.2l18-1.5h0.2c1.3,0,2.4,1.1,2.4,2.4v4.4c0,1.3-1,2.4-2.3,2.4l-11,0.6c-0.3,0-0.5,0.3-0.6,0.4
	c-0.1,0.1-0.1,0.4,0.1,0.7l0.8,1.1c0.1,0.1,0.2,0.2,0.3,0.2l11.1,4c1,0.3,1.6,1.3,1.6,2.3v3.8C77.6,377.4,76.6,378.5,75.2,378.5z"/>
<path class="st31" d="M42.6,344c0.4,0,0.7,0.1,1,0.4L56,355.8c0.3,0.3,0.7,0.4,1.1,0.4c0,0,0.1,0,0.1,0l17.9-1.4c0,0,0.1,0,0.1,0
	c0.8,0,1.5,0.7,1.5,1.5v4.4c0,0.8-0.6,1.5-1.5,1.5l-11,0.6c-1.2,0.1-1.9,1.4-1.2,2.4l0.8,1.1c0.2,0.3,0.4,0.5,0.7,0.6l11.1,4
	c0.6,0.2,1,0.8,1,1.5v3.8c0,0.9-0.7,1.5-1.5,1.5c-0.2,0-0.3,0-0.5-0.1l-32.6-11.7c-0.6-0.2-1-0.8-1-1.5v-3.8c0-0.9,0.7-1.5,1.5-1.5
	c0.2,0,0.3,0,0.5,0.1l15.6,5.6l-5.3-4.4L41.6,350c-0.3-0.3-0.5-0.7-0.5-1.2v-3.3C41.1,344.6,41.8,344,42.6,344z M42.6,342.2
	c-1.8,0-3.3,1.5-3.3,3.3v3.3c0,1,0.4,1.9,1.1,2.5l9.6,8.4l-6.2-2.2c-0.4-0.1-0.7-0.2-1.1-0.2c-1.8,0-3.3,1.5-3.3,3.3v3.8
	c0,1.4,0.9,2.7,2.2,3.1l32.6,11.7c0.4,0.1,0.7,0.2,1.1,0.2c1.8,0,3.3-1.5,3.3-3.3v-3.8c0-1.4-0.9-2.7-2.2-3.1l-11-4l-0.5-0.7
	l10.6-0.5c1.8-0.1,3.2-1.5,3.2-3.3v-4.4c0-1.8-1.5-3.3-3.3-3.3c-0.1,0-0.2,0-0.3,0l-17.8,1.4L44.9,343
	C44.2,342.5,43.5,342.2,42.6,342.2z"/>
<path class="st2" d="M68.5,349.8c-2.7,0-6.1-0.7-9.9-2c-5.9-2.1-10.6-5-13.9-8.6c-3.4-3.7-5.1-7.8-5.1-12.2c0-1.5,0.2-2.8,0.6-4.1
	c0.2-0.7,0.6-1.5,1-2.2c0.4-0.7,1.2-1.2,2.1-1.2c0.6,0,1.1,0.2,1.5,0.5l2.9,2.3c1,0.8,1.2,2.2,0.5,3.2c-0.2,0.3-0.4,0.6-0.5,0.9
	c-0.3,0.6-0.5,1.3-0.5,2.2c0,1.7,1,3.5,3,5.3c2.1,1.9,5.2,3.5,9,4.9c3.1,1.1,5.7,1.7,7.5,1.7c1.3,0,2.2-0.3,2.8-0.8
	c0.6-0.5,0.9-1.3,0.9-2.5c0-1.1-0.2-2.3-0.6-3.7c-0.2-0.7-0.1-1.5,0.4-2.2c0.5-0.6,1.2-1,1.9-1c0.3,0,0.6,0.1,0.8,0.1l2.2,0.8
	c0.6,0.2,1.1,0.7,1.4,1.3c1,2.2,1.5,4.8,1.5,7.5c0,4.7-1.8,7.7-5.4,9C71.5,349.6,70.1,349.8,68.5,349.8z"/>
<path class="st31" d="M43.3,320.4c0.3,0,0.7,0.1,1,0.3l2.9,2.3c0.6,0.5,0.8,1.4,0.3,2c-0.2,0.3-0.4,0.6-0.6,0.9
	c-0.4,0.7-0.6,1.6-0.6,2.7c0,2,1.1,4,3.3,6s5.3,3.6,9.3,5.1c3.2,1.2,5.8,1.7,7.8,1.7c3.1,0,4.6-1.4,4.6-4.2c0-1.2-0.2-2.5-0.6-3.9
	c-0.3-1,0.5-2,1.5-2c0.2,0,0.3,0,0.5,0.1l2.2,0.8c0.4,0.1,0.7,0.4,0.9,0.8c1,2.1,1.4,4.5,1.4,7.1c0,4.3-1.6,7-4.8,8.1
	c-1.1,0.4-2.4,0.6-3.9,0.6c-2.7,0-5.8-0.7-9.6-2c-5.8-2.1-10.3-4.9-13.5-8.4s-4.9-7.4-4.9-11.6c0-1.4,0.2-2.7,0.5-3.8
	c0.2-0.7,0.5-1.3,0.9-2C42.3,320.6,42.8,320.4,43.3,320.4z M43.3,318.6c-1.2,0-2.3,0.6-2.8,1.6c-0.5,0.8-0.8,1.6-1.1,2.4
	c-0.4,1.3-0.6,2.8-0.6,4.3c0,4.6,1.8,9,5.3,12.8c3.4,3.7,8.2,6.7,14.3,8.9c3.9,1.4,7.3,2.1,10.2,2.1c1.7,0,3.2-0.2,4.5-0.7
	c2.7-1,6-3.5,6-9.8c0-2.9-0.5-5.5-1.6-7.9c-0.4-0.8-1.1-1.4-1.9-1.7l-2.2-0.8c-0.4-0.1-0.7-0.2-1.1-0.2c-1,0-2,0.5-2.7,1.4
	c-0.6,0.9-0.8,1.9-0.5,2.9c0.4,1.2,0.6,2.4,0.6,3.4c0,1.5-0.5,2.4-2.8,2.4c-1.8,0-4.2-0.6-7.2-1.6c-3.7-1.3-6.7-2.9-8.7-4.7
	c-1.8-1.6-2.7-3.2-2.7-4.6c0-0.7,0.1-1.3,0.4-1.8c0.2-0.3,0.3-0.5,0.5-0.8c0.9-1.4,0.6-3.3-0.7-4.4l-2.9-2.3
	C44.8,318.9,44.1,318.6,43.3,318.6z"/>
<path class="st2" d="M75.2,330.5c-0.4,0-0.9-0.1-1.3-0.4l-32.7-20.3c-0.7-0.4-1.2-1.2-1.2-2.1v-7c0-1.3,1.1-2.4,2.4-2.4l0.2,0
	l32.7,3.1c1.3,0.1,2.2,1.2,2.2,2.4v4c0,1.3-1.1,2.4-2.4,2.4c-0.1,0-0.2,0-0.3,0l-5.6-0.6c-0.4,0-0.7,0.3-0.7,0.6v7.3
	c0,0.2,0.1,0.4,0.3,0.6l7.5,4.5c0.7,0.4,1.2,1.2,1.2,2.1v3.4C77.6,329.4,76.6,330.5,75.2,330.5z M50.8,307.3
	c1.5,0.8,4.5,2.6,9.2,5.4c0.1,0.1,0.2,0.1,0.3,0.1c0.2,0,0.3-0.1,0.5-0.2c0.1-0.1,0.2-0.2,0.2-0.5v-3.1c0-0.3-0.2-0.6-0.6-0.6
	l-6.9-0.8C53.1,307.6,52.2,307.5,50.8,307.3z"/>
<path class="st31" d="M42.5,299.2c0.1,0,0.1,0,0.1,0l32.7,3.1c0.8,0.1,1.4,0.7,1.4,1.5v4c0,0.9-0.7,1.5-1.5,1.5c-0.1,0-0.1,0-0.2,0
	l-5.6-0.6c-0.1,0-0.1,0-0.2,0c-0.8,0-1.5,0.7-1.5,1.5v7.3c0,0.5,0.3,1.1,0.7,1.3l7.5,4.5c0.5,0.3,0.7,0.8,0.7,1.3v3.4
	c0,0.9-0.7,1.5-1.5,1.5c-0.3,0-0.6-0.1-0.8-0.2l-32.7-20.3c-0.4-0.3-0.7-0.8-0.7-1.3v-7C40.9,299.9,41.6,299.2,42.5,299.2z
	 M60.3,313.7c0.8,0,1.5-0.6,1.5-1.5v-3.1c0-0.8-0.6-1.4-1.4-1.5l-6.9-0.8c-0.5-0.1-1.8-0.2-3.8-0.5c-2-0.3-3.4-0.5-4.1-0.7
	c1.4,0.7,2.9,1.6,4.6,2.5c1.5,0.8,4.5,2.6,9.2,5.4C59.8,313.6,60.1,313.7,60.3,313.7z M42.5,297.4c-1.8,0-3.3,1.5-3.3,3.3v7
	c0,1.2,0.6,2.2,1.6,2.8l32.7,20.3c0.5,0.3,1.1,0.5,1.7,0.5c1.8,0,3.3-1.5,3.3-3.3v-3.4c0-1.2-0.6-2.2-1.6-2.8l-7.4-4.4v-6.9l5.3,0.6
	c0.1,0,0.2,0,0.4,0c1.8,0,3.3-1.5,3.3-3.3v-4c0-1.7-1.3-3.2-3-3.3l-32.8-3.1C42.7,297.4,42.6,297.4,42.5,297.4z M60.1,311.7
	c-2-1.2-3.7-2.2-5.1-3l5.1,0.6V311.7z"/>
<path class="st2" d="M75.2,299.3c-0.3,0-0.6-0.1-0.8-0.1l-32.6-11.7c-1-0.3-1.6-1.3-1.6-2.3v-8.2c0-4.3,1-7,3-8.4
	c1-0.7,2.3-1.1,3.7-1.1c1.4,0,3.1,0.3,5.1,1c4.3,1.5,7.5,4.1,9.5,7.7c0.1,0.2,0.4,0.4,0.6,0.4l13-1.4l0.2,0c1.3,0,2.4,1.1,2.4,2.4
	v4.4c0,1.3-1,2.3-2.3,2.4l-11,0.8c-0.3,0-0.6,0.3-0.6,0.7c0,0.3,0.2,0.5,0.4,0.6l11.8,4.2c1,0.3,1.6,1.3,1.6,2.3v3.8
	C77.6,298.3,76.6,299.3,75.2,299.3z M56.3,283.8v-0.6c0-1.5-0.4-2.6-1.1-3.5c-0.8-0.9-2-1.7-3.6-2.2c-0.9-0.3-1.7-0.5-2.3-0.5
	c-0.4,0-0.6,0.1-0.8,0.2c-0.6,0.4-0.7,1.5-0.7,2.4v1.1L56.3,283.8z"/>
<path class="st31" d="M46.9,268.5c1.4,0,2.9,0.3,4.8,1c4.1,1.5,7.1,3.9,9,7.3c0.3,0.5,0.8,0.8,1.4,0.8c0.1,0,0.1,0,0.2,0l12.9-1.4
	c0.1,0,0.1,0,0.2,0c0.8,0,1.5,0.7,1.5,1.5v4.4c0,0.8-0.6,1.5-1.4,1.5l-11,0.8c-0.8,0.1-1.4,0.7-1.4,1.5c0,0.7,0.4,1.2,1,1.5
	l11.8,4.2c0.6,0.2,1,0.8,1,1.5v3.8c0,0.9-0.7,1.5-1.5,1.5c-0.2,0-0.3,0-0.5-0.1l-32.6-11.7c-0.6-0.2-1-0.8-1-1.5v-8.2
	c0-3.9,0.9-6.5,2.6-7.7C44.5,268.8,45.6,268.5,46.9,268.5z M57.2,285v-1.8c0-1.7-0.4-3-1.3-4.1c-0.9-1.1-2.2-1.9-4-2.5
	c-1-0.4-1.9-0.6-2.6-0.6c-0.5,0-1,0.1-1.3,0.3c-0.8,0.5-1.2,1.5-1.2,3.2v1.8L57.2,285z M46.9,266.7c-1.7,0-3.1,0.4-4.3,1.2
	c-2.3,1.6-3.4,4.6-3.4,9.2v8.2c0,1.4,0.9,2.7,2.2,3.1L74.1,300c0.4,0.1,0.7,0.2,1.1,0.2c1.8,0,3.3-1.5,3.3-3.3v-3.8
	c0-1.4-0.9-2.7-2.2-3.1l-10.8-3.9l9.9-0.7c1.7-0.1,3.1-1.6,3.1-3.3v-4.4c0-1.8-1.5-3.3-3.3-3.3c-0.1,0-0.2,0-0.4,0l-12.7,1.4
	c-2.1-3.7-5.4-6.4-9.9-8C50.2,267,48.5,266.7,46.9,266.7z M48.9,277.9c0,0,0.1,0,0.3,0c0.3,0,1,0.1,2,0.4c1.5,0.5,2.5,1.2,3.2,2
	c0.5,0.6,0.8,1.3,0.9,2.2l-6.7-2.4v-0.5C48.6,278.4,48.8,278,48.9,277.9z"/>
<path class="st2" d="M75.2,272.8c-0.3,0-0.6-0.1-0.8-0.1L41.8,261c-1-0.3-1.6-1.3-1.6-2.3v-13.8c0-1.3,1.1-2.4,2.4-2.4
	c0.3,0,0.6,0.1,0.8,0.1l2.7,0.9c1,0.3,1.6,1.3,1.6,2.3v7.9c0,0.3,0.2,0.5,0.4,0.6l5.4,1.9c0.1,0,0.1,0,0.2,0c0.3,0,0.6-0.2,0.6-0.7
	v-4.9c0-1.3,1.1-2.4,2.4-2.4c0.3,0,0.6,0.1,0.8,0.1l2.7,1c1,0.3,1.6,1.3,1.6,2.3v7.1c0,0.3,0.2,0.5,0.4,0.6l6.8,2.4
	c0.1,0,0.1,0,0.2,0c0.3,0,0.6-0.2,0.6-0.7v-5.6c0-1.3,1.1-2.4,2.4-2.4c0.3,0,0.6,0.1,0.8,0.1l2.7,1c1,0.3,1.6,1.3,1.6,2.3v13.8
	C77.6,271.7,76.6,272.8,75.2,272.8z"/>
<path class="st31" d="M42.6,243.3c0.2,0,0.3,0,0.5,0.1l2.7,0.9c0.6,0.2,1,0.8,1,1.5v7.9c0,0.7,0.4,1.2,1,1.5l5.4,1.9
	c0.2,0.1,0.4,0.1,0.5,0.1c0.8,0,1.5-0.7,1.5-1.5v-4.9c0-0.9,0.7-1.5,1.5-1.5c0.2,0,0.4,0,0.5,0.1l2.7,1c0.6,0.2,1,0.8,1,1.5v7.1
	c0,0.7,0.4,1.2,1,1.5l6.8,2.4c0.2,0.1,0.4,0.1,0.5,0.1c0.8,0,1.5-0.7,1.5-1.5v-5.7c0-0.9,0.7-1.5,1.5-1.5c0.2,0,0.4,0,0.5,0.1l2.7,1
	c0.6,0.2,1,0.8,1,1.5v13.8c0,0.9-0.7,1.5-1.5,1.5c-0.2,0-0.3,0-0.5-0.1L42,260.2c-0.6-0.2-1-0.8-1-1.5v-13.8
	C41.1,244,41.8,243.3,42.6,243.3z M42.6,241.5c-1.8,0-3.3,1.5-3.3,3.3v13.8c0,1.4,0.9,2.7,2.2,3.1l32.6,11.7
	c0.4,0.1,0.7,0.2,1.1,0.2c1.8,0,3.3-1.5,3.3-3.3v-13.8c0-1.4-0.9-2.7-2.2-3.1l-2.7-1c-0.4-0.1-0.7-0.2-1.1-0.2
	c-1.8,0-3.3,1.5-3.3,3.3v5.3l-6.3-2.3v-7c0-1.4-0.9-2.7-2.2-3.1l-2.7-1c-0.4-0.1-0.7-0.2-1.1-0.2c-1.8,0-3.3,1.5-3.3,3.3v4.6
	l-4.9-1.8v-7.7c0-1.4-0.9-2.7-2.2-3.1l-2.7-0.9C43.4,241.6,43,241.5,42.6,241.5z"/>
<path class="st10" d="M452.6,355.2l-79.4,21.5V181.2C373.1,181.2,383.1,311.4,452.6,355.2z"/>
<path class="st11" d="M422,340.3c-18.1,0-32.8-14.7-32.8-32.8V206.7c0-4.4,0.9-8.5,2.4-12.4c-8.5,5-14.3,14.3-14.3,24.9v98
	c0,15.9,12.9,28.8,28.8,28.8c6.5,0,12.5-2.2,17.3-5.8C423,340.2,422.5,340.3,422,340.3z"/>
<path class="st12" d="M422,342c-19.1,0-34.6-15.5-34.6-34.6V206.7c0-19.1,15.5-34.6,34.6-34.6c19.1,0,34.6,15.5,34.6,34.6v100.8
	C456.6,326.5,441.1,342,422,342z"/>
<path class="st11" d="M422,173.8c18.1,0,32.8,14.7,32.8,32.8v100.8c0,18.1-14.7,32.8-32.8,32.8c-18.1,0-32.8-14.7-32.8-32.8V206.7
	C389.2,188.5,403.9,173.8,422,173.8z M422,170.3c-20.1,0-36.4,16.3-36.4,36.4v100.8c0,20.1,16.3,36.4,36.4,36.4
	c20.1,0,36.4-16.3,36.4-36.4V206.7C458.4,186.6,442.1,170.3,422,170.3z"/>
<path class="st13" d="M423.2,334.9c-15.9,0-28.8-12.9-28.8-28.8v-98c0-15.9,12.9-28.8,28.8-28.8c15.9,0,28.8,12.9,28.8,28.8v98
	C452,322,439.1,334.9,423.2,334.9z"/>
<path class="st30" d="M452.2,256.5c0,3.9-12.9,7-28.8,7c-15.9,0-28.8-3.1-28.8-7v49.8c0,15.8,12.8,28.7,28.6,28.7
	c15.8,0,28.7-12.7,28.8-28.6L452.2,256.5z"/>
<path class="st5" d="M259.9,343.7l-5.8,11.7l-5.8-8.3l-5.8,11.7l-5.8-8.3l-5.8,11.7l-5.8-8.3l-5.8,11.7l-5.8-8.3l-5.8,11.7l-5.8-8.3
	l-5.8,11.7l-5.8-8.3l-5.8,11.7l-5.8-8.3l-5.8,11.7l-5.8-8.3l-5.8,11.7l-5.8-8.3l-5.8,11.7l-5.8-8.3l-5.8,11.7l-5.8-8.3l-5.8,11.7
	l-5.8-8.3l-5.8,11.7L110,387l-5.8,11.7l-5.8-8.3L92.7,402l-5.7-8.3c0.5,1.4,0,86.8,0,86.8l173-45.2L259.9,343.7z"/>
<path class="st2" d="M145.1,464.5c-16.8-10.9-34.1-27.2-34.1-46.1c0-21.2,14.7-41.8,25.5-56.8c4.3-6,10.1-14.1,10.1-16.6
	c-0.2-2.8-3.4-5-7.6-5c-5.2,0-10.5,3.3-14.4,9.1c-1.4,2.1-3.8,3.4-6.4,3.4c-4.3,0-7.7-3.4-7.7-7.7c-0.1-5,1.3-11.5,6.7-17.9
	c-7.7-2.4-17.2-7.8-22-19.9l-0.1-0.3c-2.4-7.4-2.1-13.7,0.8-17.6c1.9-2.6,4.8-4,8-4c3.9,0,8.1,2,12.5,6c4.9,4.5,9.3,6.7,11.8,7.4
	c-0.7-10.4,3.3-35.7,28.7-45.9c-4.4-5.4-5.4-12.7-2.9-21.3c1.4-4.1,4.4-6.5,8.2-6.5c3.2,0,7.9,1.5,16.7,11.1
	c2.4-5.4,7.1-9.6,13.4-11.2l4.6-1.2l1.4,4.6c0.1,0.3,1.6,5.3,2.7,13.2c1.1-0.4,2.3-0.7,3.6-0.7c1.4,0,2.8,0.3,4.1,0.9
	c3.2,1.5,5.2,4.4,5.5,7.9c0.2,2.3-0.4,4.6-1.6,6.7c7.6,4.9,13.3,11.9,16.8,20.4c3.5,8.6,4.3,18.3,2.3,28.1
	c-3.4,16.8-9.3,25.9-14.6,34c-4.1,6.3-7.7,11.8-9.8,20.4c-1.5,6.1,0.2,7.4,15,12c13.9,4.3,33,10.3,51.5,29.4
	c7.9,8.2,13,17.1,15.4,25.3L145.1,464.5z"/>
<path class="st15" d="M260.2,380.8c0,0-133.5,50.9-173,3v96.8l173-48.3V380.8z"/>
<path class="st16" d="M154.1,461.6c-16.7-10-36.2-25.5-36.2-43.2c0-19,14-38.6,24.2-52.8c6.8-9.4,11.6-16.3,11.4-20.9
	c-0.4-6.5-6.6-11.4-14.4-11.4c-7.5,0-14.8,4.4-20.1,12.1c-0.2,0.3-0.4,0.4-0.7,0.4c-0.3,0-0.9-0.2-0.9-0.9
	c-0.1-5.2,2-12.8,12.2-19.4c0.7-0.4,1-1.2,0.7-2c-0.2-0.7-0.9-1.3-1.7-1.3c-0.8,0-20.1-0.2-27-17.6c-1.6-5-1.7-9.3-0.2-11.4
	c0.6-0.8,1.4-1.2,2.5-1.2c2.1,0,4.9,1.5,7.9,4.2c6.4,5.8,13.2,9.4,17.8,9.4c2.3,0,3.6-0.9,4.3-1.7c1-1.2,1.4-2.8,1.2-4.8
	c-1.1-8.7,2.2-35,30.6-42.1c0.7-0.2,1.3-0.3,2-0.4l0.7-0.2c0.8-0.2,1.3-0.8,1.4-1.6c0.1-0.8-0.4-1.5-1.1-1.8
	c-8.3-3.4-11.1-10-8.2-19.7c0.5-1.6,1.3-1.6,1.6-1.6c1.2,0,6.3,1.3,19.1,17.8c0.3,0.4,0.9,0.7,1.4,0.7c0.3,0,0.5-0.1,0.8-0.2
	c0.7-0.4,1.2-1.2,1-2c-1.7-7,1.7-13.6,7.8-16.1c0.8,3.3,2.5,11,2.8,21c0,0.8,0.6,1.5,1.4,1.7c0.1,0,0.2,0,0.4,0c0.7,0,1.3-0.4,1.6-1
	c0.7-1.6,3.5-6.1,6.1-6.1c0.4,0,0.7,0.1,1.1,0.3c1,0.5,1.5,1.2,1.6,2.3c0.1,1.6-1,4.1-3.7,6.1c-0.5,0.4-0.8,1-0.7,1.6
	c0.1,0.6,0.4,1.2,1,1.5c8.9,4.1,15.5,11,19.1,20c3,7.4,3.6,15.7,1.9,24.2c-3.1,15.5-8.4,23.7-13.6,31.6c-4.3,6.6-8.3,12.8-10.7,22.5
	c-3.2,13.1,6.4,16.1,19.6,20.2c13.2,4.1,31.4,9.7,48.6,27.6c7.2,7.5,12,15.1,14,22.4L154.1,461.6z"/>
<path class="st17" d="M162.4,233.5c1.8,0.3,7.5,4.2,17.4,17.1c0.7,0.9,1.7,1.4,2.8,1.4c0.5,0,1.1-0.1,1.5-0.4c1.5-0.7,2.3-2.4,1.9-4
	c-1.3-5.5,0.7-10.5,4.9-13.1c0.9,3.8,2,10.4,2.2,18.5c0.1,1.6,1.2,3,2.8,3.4c0.2,0.1,0.5,0.1,0.7,0.1c1.4,0,2.6-0.8,3.2-2
	c1.1-2.3,3.4-5.1,4.5-5.1c0.1,0,0.2,0,0.3,0.1c0.5,0.2,0.6,0.5,0.6,0.8c0.1,1.1-0.9,3-3,4.5c-1,0.7-1.6,2-1.5,3.2
	c0.1,1.3,0.9,2.4,2,2.9c8.6,4,14.7,10.4,18.2,19.1c2.8,7,3.5,15,1.9,23.2c-3,15.1-8.3,23.2-13.3,31c-4.2,6.4-8.5,13-10.9,23
	c-3.6,14.7,7.7,18.2,20.8,22.3c13,4.1,30.9,9.6,47.9,27.1c6.4,6.7,10.9,13.5,13.1,19.9l-126.2,33.3c-13.5-8.2-34.7-23.8-34.7-41.3
	c0-18.5,13.8-37.7,23.9-51.8c7.2-10.1,12-16.8,11.7-22c-0.4-7.5-7.4-13.1-16.2-13.1c-7.3,0-14.3,3.8-19.7,10.4
	c0.9-5.6,4.8-10.8,11.2-15c1.3-0.9,1.9-2.5,1.5-4c-0.4-1.5-1.8-2.5-3.4-2.6c-0.8,0-18.9-0.3-25.3-16.3c-1.7-5.3-1.3-8.6-0.4-9.8
	c0.2-0.3,0.5-0.5,1.1-0.5c0.6,0,2.9,0.3,6.7,3.7c6.7,6.1,14,9.9,19,9.9c3,0,4.7-1.2,5.7-2.3c1-1.1,2-3,1.6-6.2
	c-1.1-8.3,2.1-33.3,29.3-40.1c0.6-0.2,1.3-0.3,1.9-0.4l0.7-0.2c1.5-0.3,2.7-1.6,2.8-3.2c0.1-1.5-0.7-3-2.2-3.6
	c-7.4-3.1-9.8-8.8-7.2-17.4C162.3,233.7,162.3,233.6,162.4,233.5z M193.4,229.7c-8,2-12.9,9.9-10.8,18.8
	c-5.9-7.6-15.2-18.5-20.5-18.5c-1.5,0-2.6,0.9-3.3,2.9c-3.9,13.3,2.9,19.2,9.3,21.8c-0.9,0.2-1.9,0.4-2.8,0.6
	c-30.7,7.7-32.9,36.3-31.9,44c0.4,3.1-1.1,4.5-3.7,4.5c-3.9,0-10.4-3.2-16.6-9c-3.5-3.2-6.6-4.7-9.1-4.7c-4.8,0-7,5.7-4,15.1
	c7.4,18.7,28.6,18.7,28.6,18.7c-10.8,7-13.1,15.2-13,21c0,1.7,1.3,2.7,2.7,2.7c0.8,0,1.6-0.4,2.2-1.2c5.5-8.1,12.6-11.3,18.6-11.3
	c6.8,0,12.3,4.1,12.6,9.8c0.6,10.6-35.6,42.2-35.6,73.6c0,19,21.1,35.3,37.8,45.1L285,428.9c-1.5-7.1-5.9-15.6-14.9-24.9
	c-35-36.2-73.5-23.1-67.8-46.1c5.2-21,18.6-25.5,24.3-54.2c1.7-8.4,1.2-17.2-2-25.2c-4-9.9-11.1-16.8-20-21c5-3.6,6.1-9.4,1.9-11.4
	c-0.6-0.3-1.3-0.4-1.9-0.4c-4.4,0-7.7,7.1-7.7,7.1C196.3,239.1,193.4,229.7,193.4,229.7z"/>
<path d="M153.4,313.2c2.8,0,5.1-6.6,5.1-14.7c0-8.1-2.3-14.7-5.1-14.7c-2.8,0-5.1,6.6-5.1,14.7C148.3,306.6,150.6,313.2,153.4,313.2
	z"/>
<path class="st17" d="M98.7,298.9c0,0-0.7,19,26.8,18.6c27.5-0.4,55.2-6.7,64.6,8.8c9.3,15.5-11,38-1.8,51.1
	c9.2,13.1,41.1,3.9,49,25.7c3.7,11.7-1.5,22-7.7,26.7c-10.4,8.4-35.9,18.4-61.1,10.6c-8.8-3.2-18.1-8.8-19-19.4
	c-2.1-25.6,30.4-28.8,25.5-39.7c-4.9-10.9-2.3-16.7,1.2-29c3.5-12.6,7.7-21.7-6.8-24.9c-10.2-2.2-35.5,2-45,14c0,0-3.1,3.2-4.1,4.9
	c0,0-0.9,1.5-2.8,1.1c-2-0.3-2.1-2.6-2.1-2.6s-1.5-11.6,13-21c0,0-12.4-0.4-20.7-7.6C107.9,316.4,99.1,309.6,98.7,298.9z"/>
<path class="st31" d="M260.2,195.2v240.3L367.9,407c2.7-0.7,4.6-3.2,4.6-6V165.6L260.2,195.2z"/>
<path class="st10" d="M260.2,432.3v-51.5c0,0,75.1-30.3,109.3-118.7v138.4c0,1.7-1.1,3.1-2.7,3.5L260.2,432.3z"/>
<path class="st18" d="M437.4,262.3v-62.7c0,0-0.4-14-13.8-16.5c0,0,12.3,0,18.4,11.1c1.8,3.3,2.6,7.2,2.6,11V261L437.4,262.3z"/>
<path class="st31" d="M426.9,331.2c0,0,16.7-2.3,21-18.7c0.6-2.4,0.8-4.9,0.8-7.4v-45.3l-4.1,1.2v46.3
	C444.6,307.4,444.8,325.1,426.9,331.2z"/>
<path class="st16" d="M157.4,306.9c1.7,0,3.2-4.3,3.2-9.6s-1.4-9.6-3.2-9.6c-1.7,0-3.2,4.3-3.2,9.6S155.7,306.9,157.4,306.9z"/>
<path class="st20" d="M88.8,476.9V244c0-1,0.7-1.9,1.7-2.2l280-73.2c4.7-4.5-6-3.2-6-3.2c-0.4-0.2-278,73.4-278,73.4
	c-0.4,0.1-0.9,0.1-1.3,0l-48.3-15.7c-0.9-0.3-1.8,0-2.4,0.7c-1,1.2-2.3,2.8-1.8,2.8c0.7,0,41.7,13.8,50.1,16.7
	c0.9,0.3,1.5,1.2,1.5,2.1v231.5c0,1,0.7,1.9,1.7,2.2C87.4,479.4,88.8,478.3,88.8,476.9z"/>
<path class="st2" d="M156.8,304.3c1,0,1.9-2.9,1.9-6.6c0-3.6-0.8-6.6-1.9-6.6c-1,0-1.9,2.9-1.9,6.6
	C155,301.3,155.8,304.3,156.8,304.3z"/>
<path class="st13" d="M177.9,432.8c-4.4,0-8.3-2.6-10-6.7c-1.1-2.7-1.1-5.6,0.1-8.3c1.1-2.7,3.2-4.7,5.9-5.8l31.2-12.7
	c1.3-0.5,2.7-0.8,4.1-0.8c4.4,0,8.3,2.6,10,6.7c2.2,5.5-0.4,11.8-5.9,14.1L182,432C180.7,432.5,179.3,432.8,177.9,432.8z"/>
<path class="st16" d="M209.1,399.4c3.9,0,7.6,2.3,9.2,6.2c2.1,5.1-0.4,10.8-5.4,12.9l-31.2,12.7c-1.2,0.5-2.5,0.7-3.7,0.7
	c-3.9,0-7.6-2.3-9.2-6.2c-2.1-5.1,0.4-10.8,5.4-12.9l31.2-12.7C206.6,399.6,207.8,399.4,209.1,399.4z M209.1,397.6
	c-1.5,0-3,0.3-4.4,0.9l-31.2,12.7c-2.9,1.2-5.1,3.4-6.4,6.3c-1.2,2.9-1.2,6.1-0.1,8.9c1.8,4.4,6.1,7.3,10.8,7.3c1.5,0,3-0.3,4.4-0.9
	l31.2-12.7c6-2.4,8.8-9.3,6.4-15.2C218.1,400.5,213.9,397.6,209.1,397.6z"/>
<path class="st31" d="M197.4,424.8c-1.2,0.5-3.9-3.2-6-8.3c-2.1-5.1-2.7-9.6-1.5-10.1l-15.8,6.4c-5,2-7.5,7.8-5.4,12.8
	c2,5,7.8,7.5,12.8,5.5L197.4,424.8z"/>
<path class="st2" d="M172.5,421c-0.4-1,0.1-2.2,1.1-2.7l34.1-13.7c1-0.4,2.2,0.1,2.7,1.1c0.4,1.1-0.1,2.2-1.1,2.7l-34.1,13.7
	C174.1,422.5,172.9,422,172.5,421z"/>
<path class="st21" d="M86.6,280.4v-39.3l285.8-75.5v10.2C372.5,175.8,153.1,207.3,86.6,280.4z"/>
<path class="st10" d="M34.4,223.4l22,7.1c0,0,205.5-62.9,314.6-62.4l-52.7-20.9L39.1,220.2L34.4,223.4z"/>
<path class="st22" d="M322.1,148.4c-2.5-0.9-5.2-1-7.8-0.3L35.9,221.6c-2.3,0.6-3.9,2.7-3.9,5V458c0,2.9,1.9,5.5,4.6,6.5l44.8,15.3
	c3.2,1.1,6.5,1.2,9.8,0.3l276.7-73c2.7-0.7,4.6-3.2,4.6-6V169.3c0-2.2-1.4-4.1-3.5-4.8L322.1,148.4z"/>
<path class="st32" d="M423.2,334.9c-15.9,0-28.8-12.9-28.8-28.8v-98c0-15.9,12.9-28.8,28.8-28.8c15.9,0,28.8,12.9,28.8,28.8v98
	C452,322,439.1,334.9,423.2,334.9z"/>
<path class="st24" d="M382.3,162.3l72.3-19c5.2-1.4,10.3,2.5,10.3,7.9v190.4l10,8.7l4.2-9.4V142.4c0,0-7.6-18.1-24.4-16l-94.9,26.2
	L382.3,162.3z"/>
<path class="st3" d="M345.2,156.3l27.3,9.3v216.8l91.4-24.1c8.5-2.2,14.4-9.9,14.4-18.6V146.2c0-12.6-12-21.9-24.2-18.6L345.2,156.3
	z"/>
<path class="st25" d="M391.1,188.9c0,0,8-15,15.5-7.9c0.1,0.1,0.1,0.1,0.2,0.2c5.8,5.6,9.1,15.3,9.1,25.5v107.8
	c0,0,0.5,19.9-12.3,18.7c0,0-13.6-1.5-16.3-27.6V203.9C387.3,203.9,388.6,193.3,391.1,188.9z"/>
<path class="st31" d="M404.1,262.1v43.3c0,9.3,7.5,16.8,16.8,16.8c9.3,0,16.8-7.5,16.8-16.8v-43C437.8,262.5,424,265,404.1,262.1z"
	/>
<path class="st2" d="M408.1,247.6v-46.4c0-6,4.8-10.8,10.8-10.8c6,0,10.8,4.8,10.8,10.8v25.2C429.7,238.2,419.9,247.8,408.1,247.6z"
	/>
<g>
	<path class="st2" d="M312.9,386.5c-1.7,0-3.4-0.2-5-0.6c-4.5-1.2-7.9-4-9.8-8.3c-1.5-3.3-2.1-7.8-2.1-14.3v-3.1
		c0-1.3,0.3-2.5,1-3.6c-0.6-1.1-0.9-2.2-0.8-3.5l0.5-28.9c0.1-3.1,2.2-5.9,5.2-6.7l26.3-7.2c0.6-0.2,1.2-0.3,1.9-0.3
		c1.5,0,3,0.5,4.3,1.5c1.8,1.3,2.8,3.4,2.8,5.6v9.1c0,1.8-0.7,3.4-1.8,4.7c2.9,3.3,4.2,8.4,4.2,16.4v8.1c0,4.5-0.2,7.8-0.6,10.2
		c-0.5,2.8-1.5,5.6-3,8.2c-1.6,2.8-3.8,5.2-6.6,7.2c-2.6,1.9-5.8,3.3-9.4,4.3C317.5,386.1,315.1,386.5,312.9,386.5z"/>
	<path d="M330,317.2v9.1l-15.2,4.2v9.7c1.9-3.1,4.3-5.1,7.3-5.9c3.4-0.9,5.9-0.5,7.7,1.2c1.7,1.7,2.6,5.7,2.6,12v8.1
		c0,4-0.2,7.1-0.5,9c-0.3,2-1,3.9-2.1,5.8c-1.1,1.9-2.6,3.6-4.6,5s-4.3,2.5-7.1,3.2c-3.2,0.9-5.9,1-8.3,0.4
		c-2.4-0.6-4.1-2.1-5.1-4.3s-1.5-6-1.5-11.4v-3.1l12.3-3.4v3.6c0,3.7,0.1,6.3,0.3,7.8c0.2,1.5,1,2.1,2.3,1.7
		c0.6-0.2,1.1-0.5,1.5-1.1c0.4-0.5,0.6-1.1,0.6-1.6c0-0.5,0.1-2.8,0.1-6.8v-11.3c0-2.1-0.2-3.5-0.6-4.2c-0.4-0.7-1-0.9-1.9-0.6
		c-0.6,0.2-1,0.5-1.4,1c-0.4,0.5-0.6,1-0.7,1.5c-0.1,0.5-0.2,1.6-0.2,3.2l-12.1,3.3l0.5-28.9L330,317.2z"/>
</g>
<path class="st2" d="M305.6,286.5c-4.7,0-8.5-3.8-8.5-8.5v-11.7l-11.4,3.2c-0.7,0.2-1.5,0.3-2.3,0.3c-4.7,0-8.5-3.8-8.5-8.5v-19.9
	c0-3.8,2.6-7.2,6.2-8.2l15.9-4.4v-16.4c0-3.8,2.5-7.2,6.2-8.2l19.3-5.3c0.7-0.2,1.5-0.3,2.3-0.3c4.7,0,8.5,3.8,8.5,8.5v11.7
	l11.4-3.2c0.7-0.2,1.5-0.3,2.3-0.3c4.7,0,8.5,3.8,8.5,8.5v19.9c0,3.8-2.5,7.2-6.2,8.2l-15.9,4.4v16.4c0,3.8-2.6,7.2-6.2,8.2
	l-19.3,5.3C307.1,286.4,306.3,286.5,305.6,286.5z"/>
<path class="st30" d="M324.9,199.5c4.2,0,7.6,3.4,7.6,7.6V220l12.5-3.5c0.7-0.2,1.4-0.3,2-0.3c4.2,0,7.6,3.4,7.6,7.6v19.9
	c0,3.4-2.3,6.4-5.6,7.3l-16.6,4.6v17.1c0,3.4-2.3,6.4-5.6,7.3l-19.3,5.3c-0.7,0.2-1.4,0.3-2,0.3c-4.2,0-7.6-3.4-7.6-7.6v-12.9
	l-12.5,3.5c-0.7,0.2-1.4,0.3-2,0.3c-4.2,0-7.6-3.4-7.6-7.6v-19.9c0-3.4,2.3-6.4,5.6-7.3l16.6-4.6v-17.1c0-3.4,2.3-6.4,5.6-7.3
	l19.3-5.3C323.5,199.6,324.2,199.5,324.9,199.5z M324.9,197.7c-0.8,0-1.7,0.1-2.5,0.3l-19.3,5.3c-4,1.1-6.9,4.8-6.9,9v15.7
	l-15.2,4.2c-4,1.1-6.9,4.8-6.9,9v19.9c0,5.2,4.2,9.4,9.4,9.4c0.9,0,1.7-0.1,2.5-0.3l10.3-2.8v10.5c0,5.2,4.2,9.4,9.4,9.4
	c0.8,0,1.7-0.1,2.5-0.3l19.3-5.3c4-1.1,6.9-4.8,6.9-9V257l15.3-4.2c4-1.1,6.9-4.8,6.9-9v-19.9c0-5.2-4.2-9.4-9.4-9.4
	c-0.8,0-1.7,0.1-2.5,0.3l-10.3,2.8v-10.5C334.2,201.9,330,197.7,324.9,197.7z"/>
<path class="st7" d="M346.3,221.4l-15.7,4.3c-1.6,0.4-3.2-0.8-3.2-2.4v-16.2c0-1.7-1.6-2.9-3.2-2.4l-19.3,5.3
	c-1.1,0.3-1.9,1.3-1.9,2.4v19c0,1.1-0.8,2.1-1.9,2.4l-18.4,5.1c-1.1,0.3-1.9,1.3-1.9,2.4v19.9c0,1.7,1.6,2.9,3.2,2.4l15.7-4.3
	c1.6-0.4,3.2,0.8,3.2,2.4V278c0,1.7,1.6,2.9,3.2,2.4l19.3-5.3c1.1-0.3,1.9-1.3,1.9-2.4v-19c0-1.1,0.8-2.1,1.9-2.4l18.4-5.1
	c1.1-0.3,1.9-1.3,1.9-2.4v-19.9C349.5,222.2,347.9,220.9,346.3,221.4z"/>
</svg>
