<svg version="1.1" id="ALL" xmlns="http://www.w3.org/2000/svg" xmlns:xlink="http://www.w3.org/1999/xlink" x="0px" y="0px"
	 viewBox="0 0 510.24 595.28" style="enable-background:new 0 0 510.24 595.28;" xml:space="preserve">
<style type="text/css">
	.deer-st0{fill:#5D2D16;}
	.deer-st1{fill:#7A3A2B;}
	.deer-st2{fill:#C5743C;}
	.deer-st3{fill:#C37D46;}
	.deer-st4{fill:#526D32;}
	.deer-st5{fill:#639916;}
	.deer-st6{opacity:0.5;}
	.deer-st7{fill:#83C121;}
	.deer-st8{fill:#BAAB3F;}
	.deer-st9{fill:#A57044;}
	.deer-st10{fill:#B78253;}
	.deer-st11{fill:#7F5038;}
	.deer-st12{fill:#DA211E;}
	.deer-st13{fill:#A80000;}
	.deer-st14{fill:#F42A2A;}
	.deer-st15{fill:#720000;}
	.deer-st16{fill:#E5E7EA;}
	.deer-st17{fill:#CBC8C3;}
	.deer-st18{fill:#B2ACA4;}
	.deer-st19{fill:#B2B6B7;}
	.deer-st20{fill:#E88D0A;}
	.deer-st21{fill:#963600;}
	.deer-st22{fill:#FFD664;}
	.deer-st23{fill:#FFFFFF;}
	.deer-st24{fill:#510E0E;}
	.deer-st25{fill:#D1B8A1;}
	.deer-st26{fill:#3F4042;}
	.deer-st27{fill:#EFEEED;}
	.deer-st28{fill:#965632;}
	.deer-st29{fill:#9E7954;}
	.deer-st30{fill:#C69F6B;}
	.deer-st31{fill:#B7AFA7;}
	.deer-st32{fill:#84330F;}
	.deer-st33{fill:#B3B0A1;}
	.deer-st34{fill:#663E1D;}
	.deer-st35{fill:#AA5B21;}
	.deer-st36{fill:#682A00;}
	.deer-st37{fill:#CC0000;}
	.deer-st38{fill:#880000;}
	.deer-st39{fill:#1BBDEF;}
	.deer-st40{fill:#83FFFF;}
	.deer-st41{fill:#D7FFFE;}
	.deer-st42{fill:#C6541A;}
	.deer-st43{fill:#8C3610;}
	.deer-st44{fill:#D86C00;}
	.deer-st45{fill:#F2790A;}
	.deer-st46{fill:#F2B30A;}
	.deer-st47{fill:#1A2B0E;}
	.deer-st48{fill:#F78F1E;}
	.deer-st49{fill:#FFD683;}
	.deer-st50{fill:#FFBD48;}
	.deer-st51{fill:#87FFFF;}
	.deer-st52{fill:#FFCC00;}
	.deer-st53{fill:#5B1E06;}
	.deer-st54{fill:#30541A;}
	.deer-st55{fill:#35720E;}
	.deer-st56{fill:#9E3612;}
	.deer-st57{fill:#48AA09;}
	.deer-st58{fill:#FFA200;}
	.deer-st59{fill:#C1006A;}
	.deer-st60{fill:#7B2322;}
	.deer-st61{fill:#D30056;}
	.deer-st62{fill:#680E37;}
	.deer-st63{fill:#7C193A;}
	.deer-st64{fill:#FF2C72;}
	.deer-st65{fill:#FF5A8D;}
	.deer-st66{fill:#FF48D6;}
	.deer-st67{fill:#FF6D9F;}
	.deer-st68{fill:#E88725;}
	.deer-st69{fill:#E8B425;}
	.deer-st70{fill:#FFD15F;}
	.deer-st71{fill:#893A28;}
	.deer-st72{fill:#FFFF42;}
	.deer-st73{fill:#2C7A3C;}
	.deer-st74{fill:#295B31;}
	.deer-st75{fill:#3BC458;}
	.deer-st76{fill:#5E4031;}
	.deer-st77{fill:#605F33;}
	.deer-st78{fill:#82804A;}
	.deer-st79{fill:#82533F;}
	.deer-st80{fill:#A06955;}
	.deer-st81{fill:#444332;}
	.deer-st82{fill:#66686B;}
	.deer-st83{fill:#B7AF51;}
	.deer-st84{fill:#47462C;}
	.deer-st85{fill:#C17B5D;}
	.deer-st86{fill:#FFD346;}
	.deer-st87{fill:#F7A800;}
	.deer-st88{fill:#ED7601;}
	.deer-st89{fill:#FFE18D;}
	.deer-st90{fill:#FFB857;}
	.deer-st91{fill:#8B9BAF;}
	.deer-st92{fill:#9DC2EA;}
	.deer-st93{fill:#AA0000;}
	.deer-st94{fill:#EF7F22;}
	.deer-st95{fill:#C17E3A;}
	.deer-st96{fill:#82562E;}
	.deer-st97{fill:#542906;}
	.deer-st98{fill:#CE6B13;}
	.deer-st99{fill:#FF9536;}
	.deer-st100{fill:#FFD55F;}
	.deer-st101{fill:#A85007;}
	.deer-st102{fill:#E29652;}
	.deer-st103{fill:#FFA861;}
	.deer-st104{fill:#FF0000;}
	.deer-st105{fill:#5DE7FF;}
	.deer-st106{fill:#32323A;}
	.deer-st107{fill:#D6CBBF;}
	.deer-st108{fill:#EBE0CE;}
	.deer-st109{fill:#E28F01;}
	.deer-st110{fill:#C94727;}
	.deer-st111{fill:#7A2413;}
	.deer-st112{fill:#3B454C;}
	.deer-st113{fill:#5B676D;}
	.deer-st114{fill:#DD5D05;}
	.deer-st115{fill:#FF8939;}
	.deer-st116{fill:#FFF6E9;}
	.deer-st117{fill:#FFCE00;}
	.deer-st118{fill:#C59648;}
	.deer-st119{fill:#936135;}
	.deer-st120{fill:#FCB072;}
	.deer-st121{fill:#CC7E52;}
	.deer-st122{fill:#8E624C;}
	.deer-st123{fill:#AC1212;}
	.deer-st124{fill:#E5231A;}
	.deer-st125{fill:#318D8A;}
	.deer-st126{fill:#F4A32C;}
	.deer-st127{fill:#FFC06C;}
	.deer-st128{fill:#B5720F;}
	.deer-st129{fill:#FFD1AE;}
	.deer-st130{fill:#C4CCCE;}
	.deer-st131{fill:#1F2023;}
	.deer-st132{fill:#E3E5E5;}
	.deer-st133{fill:#3F4144;}
	.deer-st134{fill:#7C0D0D;}
	.deer-st135{fill:#AEB7BA;}
	.deer-st136{fill:#8A909E;}
	.deer-st137{fill:#AA7B57;}
	.deer-st138{fill:#B78570;}
	.deer-st139{fill:#6E7E8E;}
	.deer-st140{fill:#4B5D6B;}
	.deer-st141{fill:#76797C;}
	.deer-st142{fill:#FFCEA9;}
	.deer-st143{fill:#BF744F;}
	.deer-st144{fill:#FCC068;}
	.deer-st145{fill:#D7DFE2;}
	.deer-st146{fill:#7A8E93;}
	.deer-st147{fill:#FF6161;}
	.deer-st148{fill:#EFD5B6;}
	.deer-st149{fill:#505356;}
	.deer-st150{fill:#AAAAAA;}
	.deer-st151{fill:#8E7C6F;}
	.deer-st152{fill:#747B84;}
	.deer-st153{fill:#EDD5C0;}
	.deer-st154{fill:#A0805A;}
	.deer-st155{fill:#725D46;}
	.deer-st156{fill:#AA6333;}
	.deer-st157{fill:#DBC09E;}
	.deer-st158{fill:#6D4029;}
	.deer-st159{fill:#826341;}
	.deer-st160{fill:#E08032;}
	.deer-st161{fill:#AF520C;}
	.deer-st162{fill:#891313;}
	.deer-st163{fill:#B73030;}
	.deer-st164{fill:#E84242;}
	.deer-st165{fill:#562708;}
	.deer-st166{fill:#FFBE71;}
	.deer-st167{fill:#603429;}
	.deer-st168{fill:#FFA124;}
	.deer-st169{fill:#696C70;}
	.deer-st170{fill:#50555B;}
	.deer-st171{fill:#8C9196;}
	.deer-st172{fill:#E0E0E0;}
	.deer-st173{fill:#FF4A4A;}
	.deer-st174{fill:#607F91;}
	.deer-st175{fill:#C3D3DD;}
	.deer-st176{fill:#8BA1AF;}
	.deer-st177{fill:#60A0BA;}
	.deer-st178{fill:#6088AD;}
	.deer-st179{fill:#4A7493;}
	.deer-st180{fill:#696389;}
	.deer-st181{fill:#4663A3;}
	.deer-st182{fill:#AEE6FF;}
	.deer-st183{fill:#54A7CC;}
	.deer-st184{fill:#4BB9E0;}
	.deer-st185{fill:#4F4B75;}
	.deer-st186{fill:#542E15;}
	.deer-st187{fill:#6D3516;}
	.deer-st188{fill:#68472B;}
	.deer-st189{fill:#AF6D37;}
	.deer-st190{fill:#3A2E2C;}
	.deer-st191{fill:#663418;}
	.deer-st192{fill:#915436;}
	.deer-st193{fill:#B57255;}
	.deer-st194{fill:#F28B3D;}
	.deer-st195{fill:#56829B;}
	.deer-st196{fill:#85B5D6;}
	.deer-st197{fill:#B7D8EA;}
	.deer-st198{fill:#3B6375;}
	.deer-st199{fill:#5C6466;}
	.deer-st200{fill:#FF5A20;}
	.deer-st201{fill:#37454F;}
	.deer-st202{fill:#202528;}
	.deer-st203{fill:#566772;}
	.deer-st204{fill:#69838E;}
	.deer-st205{fill:#415156;}
	.deer-st206{fill:#8E999B;}
	.deer-st207{fill:#FF9A7B;}
	.deer-st208{fill:#5B4F49;}
	.deer-st209{fill:#6B5146;}
	.deer-st210{fill:#924B2F;}
	.deer-st211{fill:#A56F5B;}
	.deer-st212{fill:#6B4A40;}
	.deer-st213{fill:#FFD469;}
	.deer-st214{fill:#7D8389;}
	.deer-st215{fill:#B3B5BC;}
	.deer-st216{fill:#92C6EA;}
	.deer-st217{fill:#D3A12F;}
	.deer-st218{fill:#3353A3;}
	.deer-st219{fill:#2D4068;}
	.deer-st220{fill:#09425B;}
	.deer-st221{fill:#FF4800;}
	.deer-st222{fill:#32697C;}
	.deer-st223{fill:#A8E0EF;}
	.deer-st224{fill:#71C0DB;}
	.deer-st225{fill:#6089C6;}
	.deer-st226{fill:#009311;}
	.deer-st227{fill:#08FF2E;}
	.deer-st228{fill:#536D54;}
	.deer-st229{fill:#C84229;}
	.deer-st230{fill:#FF4229;}
	.deer-st231{fill:#C85529;}
	.deer-st232{fill:#FF5529;}
	.deer-st233{fill:#B96829;}
	.deer-st234{fill:#FF6829;}
	.deer-st235{fill:#A48929;}
	.deer-st236{fill:#FF8929;}
	.deer-st237{fill:#A4CC29;}
	.deer-st238{fill:#FFCC29;}
	.deer-st239{fill:#00CE31;}
	.deer-st240{fill:#A1CE31;}
	.deer-st241{fill:#FFFF2E;}
	.deer-st242{fill:#BBEDFF;}
	.deer-st243{fill:#A9E7FF;}
	.deer-st244{fill:#475572;}
	.deer-st245{fill:#FF680C;}
	.deer-st246{fill:#FFFF0C;}
	.deer-st247{fill:#348AA5;}
	.deer-st248{fill:#16638E;}
	.deer-st249{opacity:0.15;fill:#FFFF0C;}
	.deer-st250{opacity:0.15;fill:#71F0DC;}
	.deer-st251{opacity:0.3;fill:#71F0DC;}
	.deer-st252{fill:#80A9B2;}
	.deer-st253{fill:#88E6FF;}
	.deer-st254{fill:#5376A0;}
	.deer-st255{fill:#6D9DCC;}
	.deer-st256{fill:#90B4D3;}
	.deer-st257{fill:#B7B4A7;}
	.deer-st258{fill:#20314F;}
	.deer-st259{fill:#FFD808;}
	.deer-st260{fill:#CCCC6E;}
	.deer-st261{fill:#A5C2D3;}
	.deer-st262{fill:#FF8710;}
	.deer-st263{fill:#C45800;}
	.deer-st264{fill:#2791CC;}
	.deer-st265{fill:#A01717;}
	.deer-st266{fill:#E51717;}
	.deer-st267{fill:#C90D0D;}
	.deer-st268{fill:#FF7171;}
	.deer-st269{fill:#FFB428;}
	.deer-st270{fill:#BC0F0F;}
	.deer-st271{fill:#F76A00;}
	.deer-st272{fill:#C14000;}
	.deer-st273{fill:#AA2800;}
	.deer-st274{fill:#FFAB31;}
	.deer-st275{fill:#F7C27C;}
	.deer-st276{fill:#560D0D;}
	.deer-st277{fill:#960202;}
	.deer-st278{fill:#700F0F;}
	.deer-st279{fill:#CC5200;}
	.deer-st280{fill:#951717;}
	.deer-st281{fill:#71F0DC;}
	.deer-st282{opacity:0.37;fill:#FFFFFF;}
	.deer-st283{opacity:0.5;fill:#A7FFFF;}
	.deer-st284{fill:#FFEB38;}
	.deer-st285{fill:#304777;}
	.deer-st286{fill:#03EDFF;}
	.deer-st287{opacity:0.3;}
	.deer-st288{opacity:0.2;}
	.deer-st289{fill:#74A1B5;}
	.deer-st290{fill:#33F5FF;}
	.deer-st291{opacity:0.3;fill:#33F5FF;}
	.deer-st292{fill:#99FFFF;}
	.deer-st293{fill:#FCF9D9;}
	.deer-st294{fill:#546077;}
	.deer-st295{fill:#E5E1A8;}
	.deer-st296{fill:#478461;}
	.deer-st297{fill:#D3B5A5;}
	.deer-st298{fill:#DE4400;}
	.deer-st299{fill:#F77991;}
	.deer-st300{fill:#FFDCE0;}
	.deer-st301{fill:#663E20;}
	.deer-st302{fill:#9B5D3B;}
	.deer-st303{fill:#3F2D27;}
	.deer-st304{fill:#DBB06B;}
	.deer-st305{fill:#AF834F;}
	.deer-st306{fill:#493B33;}
	.deer-st307{fill:#81574A;}
	.deer-st308{fill:#CC9933;}
	.deer-st309{fill:#FFFF93;}
	.deer-st310{fill:#D1993F;}
	.deer-st311{fill:#D1AA66;}
	.deer-st312{opacity:0.2;fill:#FFFF93;}
	.deer-st313{opacity:0.1;fill:#FFFF93;}
	.deer-st314{opacity:0.1;fill:#FFFF89;}
	.deer-st315{opacity:0.7;}
	.deer-st316{fill:#BC874D;}
	.deer-st317{opacity:0.4;fill:#444951;}
	.deer-st318{opacity:0.3;fill:#373944;}
	.deer-st319{fill:#775742;}
	.deer-st320{opacity:0.5;fill:#444951;}
	.deer-st321{fill:#969436;}
	.deer-st322{fill:#4C3529;}
	.deer-st323{fill:#D8A355;}
	.deer-st324{fill:#FFD578;}
	.deer-st325{opacity:0.4;fill:#FFD578;}
	.deer-st326{fill:#A79253;}
	.deer-st327{fill:#CBAC4E;}
	.deer-st328{fill:#5E4F2A;}
	.deer-st329{opacity:0.6;fill:#52575E;}
	.deer-st330{fill:#E5CF4A;}
	.deer-st331{opacity:0.6;}
	.deer-st332{fill:#444951;}
	.deer-st333{fill:#1D1D1D;}
	.deer-st334{fill:#1D1D1B;}
	.deer-st335{fill:#D38C54;}
	.deer-st336{fill:#B4FFFF;}
	.deer-st337{opacity:0.4;fill:#FFFFFF;}
	.deer-st338{opacity:0.7;fill:#7A3A2B;}
	.deer-st339{fill:#D3AF85;}
	.deer-st340{fill:#F9CB9D;}
	.deer-st341{opacity:0.6;fill:#5D2D16;}
	.deer-st342{opacity:0.29;fill:#5D2D16;}
	.deer-st343{fill:#4F3220;}
	.deer-st344{fill:#775542;}
	.deer-st345{fill:#E2C54C;}
	.deer-st346{fill:#F2E8B3;}
	.deer-st347{fill:#F7F8F6;}
	.deer-st348{fill:#976616;}
	.deer-st349{fill:#6F3B0C;}
	.deer-st350{fill:#5A0C0C;}
	.deer-st351{opacity:0.44;}
	.deer-st352{opacity:0.46;fill:#350B00;}
	.deer-st353{fill:#B1B4B9;}
	.deer-st354{fill:#B1B4A5;}
	.deer-st355{fill:#C9CACC;}
	.deer-st356{fill:#E9EAEC;}
	.deer-st357{opacity:0.5;fill:#E9EAEC;}
	.deer-st358{opacity:0.4;fill:#E9EAEC;}
	.deer-st359{opacity:0.7;fill:#FFFFFF;}
	.deer-st360{opacity:0.5;fill:#FFFFFF;}
</style>
<g>
	<path d="M396.84,491.91c-0.15,0-0.3-0.07-0.4-0.2c-0.32-0.41-0.5-0.67-0.5-0.67c-0.16-0.22-0.11-0.52,0.1-0.69
		c0.21-0.16,0.52-0.13,0.69,0.08c0,0,0.2,0.25,0.51,0.68c0.16,0.22,0.11,0.53-0.11,0.69C397.05,491.88,396.95,491.91,396.84,491.91z
		"/>
	<path d="M358,543.09c-0.16,0-0.31-0.07-0.4-0.2c-0.03-0.04-0.05-0.08-0.07-0.13c-0.13-0.01-0.26-0.07-0.35-0.17
		c-0.09-0.11-0.14-0.25-0.12-0.4c0,0,0.39-2.97,1-7.37c0.91-8.2,1.81-21.15,0.91-36.26c-0.89-14.92-5.62-29.67-9.44-39.43
		c-0.22-0.29-0.44-0.59-0.66-0.89c-0.01-0.01-0.01-0.01-0.02-0.02c-0.37-0.36-0.75-0.83-1.14-1.37c-1.67,0.1-3.48,0.13-5.39,0.09
		c0,0.42-0.03,0.83-0.1,1.23c-0.29,1.75-1.16,3.3-2.46,4.36c-1.32,1.08-2.91,1.53-4.49,1.27c-0.17-0.03-0.33-0.06-0.5-0.11
		c-0.09,0.02-0.2,0.02-0.29-0.02c-0.01,0-0.35-0.14-0.82-0.42c-2.33-1.2-3.64-4.09-3.16-7.01c0.02-0.12,0.04-0.24,0.07-0.36
		c-4.42-0.68-8.45-1.6-11.41-2.62c-0.79-0.2-2.31-1.1-2.1-3.01c0.21-1.91,1.92-2.5,2.79-2.54c0.02,0,0.05,0,0.07,0
		c0.29-0.03,6.28-0.77,7.53-7.82c0.09-0.52,0.18-1.05,0.27-1.59c1.1-6.49,2.46-14.51,8.85-15.9c-0.49-1.19-0.65-2.53-0.45-3.85
		c0.09-0.6,0.26-1.2,0.5-1.78c0.05-0.12,0.09-0.21,0.14-0.31c0.56-1.23,1.36-2.17,2.38-2.79c0.11-0.78,0.23-1.46,0.36-2.12
		c-0.8-0.87-1.16-2.1-0.97-3.35c0.05-0.3,0.13-0.6,0.27-0.95c0.03-0.08,0.06-0.15,0.1-0.22c0.08-0.17,0.14-0.29,0.21-0.41
		c0.35-0.62,0.83-1.08,1.4-1.38c0.44-0.25,0.94-0.39,1.46-0.41c0.86-1.47,1.91-2.85,3.2-4.2c0-0.09,0.01-0.16,0.02-0.22
		c0.05-0.3,0.13-0.6,0.27-0.95c0.02-0.06,0.05-0.13,0.08-0.2c0.09-0.2,0.15-0.31,0.22-0.42c0.35-0.62,0.83-1.09,1.4-1.38
		c0.54-0.3,1.15-0.44,1.75-0.42c0.3-0.27,0.61-0.53,0.92-0.79c-5.27-0.2-9.43-1.17-9.47-1.18c-0.13-0.02-3.97-0.66-7.17-2.78
		c-0.7-0.31-1.43-0.71-2.09-1.16c-2.24-1.12-3.85-2.85-4.74-5.09c-0.25-0.45-0.38-0.77-0.38-0.77c-0.37-1.31-0.5-2.5-0.39-3.56
		c0-0.79,0.09-1.39,0.14-1.67c0.14-0.77,0.79-1.56,1.89-2.28c0.32-0.28,0.72-0.55,1.15-0.77c0.03-0.03,0.06-0.05,0.1-0.07l1.01-0.5
		c0.68-0.49,1.51-0.98,2.49-1.46l0.11-0.06c0.1-0.06,0.2-0.12,0.31-0.17l13.51-6.54c-0.12-0.35-0.25-0.73-0.37-1.12
		c-0.9-2.21-2.02-5.77-2.32-10.18c-2.79,0.58-6.67,0.75-11.57,0.51c-4.31-0.21-8.22-1.89-11.62-5.01c-4.77-4.16-6.67-9.65-6.75-9.88
		c-0.08-0.23,0.02-0.48,0.23-0.6c3.09-1.71,6.21-2.84,9.3-3.38c-7.11-2.88-12.22-7.32-15.2-13.21c-6.97-14.38-4.54-26.68-2.47-32.74
		c0.22-0.63,0.83-0.97,1.48-0.83c0.66,0.15,1.07,0.71,1,1.39c-0.19,1.83-0.27,3.67-0.24,5.46c0.44,6.33,2.63,18.35,12.36,27.33
		c4.16,3.71,9.1,6.51,14.69,8.33c0.86,0.28,1.78,0.09,2.47-0.52c0.66-0.58,0.96-1.43,0.81-2.27c-0.73-3.97-3.24-6.5-6.42-9.69
		c-4.09-4.11-9.18-9.22-12.38-19.66c-4.94-16.13,0.68-30.72,3.33-36.24c0.27-0.56,0.86-0.84,1.46-0.69c0.61,0.15,1,0.67,0.97,1.3
		c-0.29,7.16-0.51,16.4,0.4,24.31c0.65,5.14,1.71,9.24,3.16,12.17c0.38,0.71,0.79,1.33,1.2,1.85c3.09,3.86,4.34,4.08,4.82,3.87
		c1.1-0.48,1.93-4.09-0.33-18.5c-2.56-16.34-1.95-29.58-1.57-34.51c0.04-0.58,0.44-1.03,1.01-1.15c0.54-0.12,1.08,0.12,1.36,0.59
		c0.54,0.59,1.61,2.91,2.66,5.77c1.36,3.45,2.41,7.09,3.22,11.11c0.31,1.44,0.59,3.06,0.85,4.95c0.42,2.65,0.71,5.33,0.88,7.97
		c0.23,2.61,0.41,5.19,0.58,7.53c0.15,2.09,0.28,3.99,0.42,5.55c0.48,2.36,1.19,2.64,1.69,2.65c0.02,0,0.03,0,0.05,0
		c1.64,0,3.45-1.08,5.09-3.04c3.24-3.87,5.8-11.42,4.23-19.56c-1.63-8.46-9.39-18.3-13.87-23.41c-0.42-0.48-0.43-1.17-0.02-1.66
		c0.42-0.5,1.1-0.61,1.65-0.28c16.54,9.94,23.37,24.08,24.19,33.16c0.97,10.77-18.81,24.61-19.65,25.19
		c-0.01,0.01-5.59,5.12-4.07,10.5c1.31,4.65,9.59,9.22,12.09,10.5c0.02,0.01,0.03,0.02,0.05,0.03c2.99-1.41,6.51-2.18,10.49-2.3
		c-6.74-14.98-2.78-28.3,0.22-34.97c0.3-0.67,1-1.01,1.71-0.83c0.71,0.18,1.18,0.81,1.13,1.55c-0.58,8.66-0.79,29.45,9.72,35.56
		c1.92,1.12,4.15,1.54,6.29,1.2c3.68-0.59,7.42-2.8,10.27-6.06c6.43-7.37,9.31-17.35,7.91-27.4c-1.19-8.54-4.38-20.84-12.78-30.92
		c-0.45-0.54-0.48-1.29-0.06-1.86c0.41-0.56,1.12-0.75,1.75-0.49c12.83,5.32,20.63,27.02,19.88,43.96
		c-0.03,0.63,0.41,0.98,0.79,1.09c0.38,0.11,0.91,0.03,1.2-0.51c3.7-6.74,7.16-17.35,2.66-29.62c-4.94-13.46-10.21-21.51-12.91-25.1
		c-0.42-0.56-0.4-1.3,0.04-1.84c0.44-0.54,1.16-0.7,1.79-0.39c3.97,1.94,11.54,7.17,17.66,20.47c5.1,11.08,4.84,21.86,3.72,28.95
		c-0.38,2.41-1.06,4.76-2.02,7c0.86-0.77,1.62-1.55,2.3-2.37c4.09-5.07,5.78-12,5.01-20.58c-0.82-9.06-4.11-17.53-6-21.78
		c-0.38-0.83-0.74-1.62-1.08-2.3c-0.26-0.52-0.1-1.1,0.38-1.43c0.48-0.32,1.08-0.25,1.46,0.18c5.15,5.78,16.61,21.2,11.79,39.6
		c-4.16,15.84-17.71,21.25-28.59,25.59c-1.15,0.46-2.26,0.9-3.33,1.34c-0.88,0.42-1.76,0.87-2.65,1.34
		c-3.79,2.99-6.85,6.15-9.01,9.36c-1.01,1.5-2.11,2.77-3.27,3.79c0.46,1.77,0.59,3.56,0.63,4.68c4.11-4.9,10.93-10.5,21.08-11.54
		c0.21-0.02,0.43-0.04,0.65-0.06l0.23-0.02c6.21-0.49,12.7,0.7,19.3,3.52c0.24,0.1,0.36,0.37,0.28,0.61
		c-0.09,0.3-2.35,7.31-8.87,12.6c-4.21,3.61-9.14,5.7-14.64,6.19c-10.2,0.92-15.46,0.35-18.14-0.37c-0.04,0.92-0.12,2.17-0.27,3.62
		c0.44,4.99,0.25,12.23-3.19,17.82c-0.63,1.02-1.39,2.02-2.27,2.97c1.28,0.28,3.21,1.36,3.67,5.26c0.13,1.1,0.34,2.08,0.55,3.02
		c0.61,2.77,1.18,5.39-0.22,10.82c-0.11,1-0.47,3.18-1.53,5.96c2.74,4.27,7.62,6.75,14.1,9.03c-0.36-1.67-0.31-3.49,0.15-5.43
		c1.3-5.55,4.35-8.34,7.04-10.8c2.42-2.22,4.52-4.13,5.15-7.62c0.06-0.84,0.06-1.49,0.06-1.75c-0.19-0.22-0.31-0.35-0.31-0.36
		c-0.16-0.18-0.18-0.44-0.04-0.63c0.14-0.19,0.4-0.26,0.62-0.16c6,2.83,7.08,8.48,7.24,11.12l0.78-0.94c0.1-0.12,0.24-0.2,0.41-0.18
		c0.16,0.01,0.3,0.09,0.39,0.22c6.09,8.98,4.56,14.78,3.1,17.44c-0.04,0.11-0.08,0.22-0.12,0.32c0.89-0.36,1.65-0.79,1.66-0.79
		c0.17-0.1,0.38-0.08,0.54,0.04c0.16,0.12,0.23,0.31,0.19,0.51c-1.04,4.88-4.3,6.52-6.2,7.06c-0.24,0.13-0.49,0.25-0.74,0.36
		c0.38,0.38,0.75,0.79,1.08,1.22c0.22,0.29,0.39,0.5,0.54,0.72l0.1,0.15c4.62,6.84,4.09,17.12,3.65,21.22
		c-0.18,3.42-0.59,7.08-1.2,10.54c-1.93,11.05-1.68,24.34,4.78,28.5c0.17,0.11,0.26,0.31,0.22,0.5c-0.03,0.18-3.01,18.44,2.21,51.67
		c0.02,0.14-0.02,0.29-0.11,0.4c-0.07,0.08-0.17,0.14-0.27,0.16c-0.09,0.08-0.21,0.12-0.33,0.12h-4.36
		c-0.09,0.08-0.21,0.13-0.34,0.11l-1.99-0.11l-2.15,0c-0.14,0-0.28-0.06-0.38-0.17c-0.06-0.06-0.09-0.14-0.11-0.22
		c-0.06-0.09-0.09-0.19-0.08-0.29c0.02-0.12,1.8-12.21,0.56-27.08c-0.2-2.17-0.45-4.4-0.75-6.63c-0.45-3.17-1.03-6.23-1.71-9.1
		c-2.59-10.8-7.02-18.64-10.6-24.27c-1.02-1.55-2.08-3.05-3.16-4.47c-1.48,0.62-3.08,1.2-4.77,1.73c-0.04,0.18-0.07,0.37-0.11,0.55
		c-0.34,5.2,1,13.12,9.31,20.98c0.13,0.12,0.18,0.3,0.14,0.48c-0.07,0.32-7.37,32.08-8.38,46.6c-0.02,0.26-0.24,0.46-0.5,0.46h-8.83
		c-0.14,0-0.28-0.06-0.38-0.17c-0.09-0.11-0.14-0.25-0.12-0.39c0.03-0.22,0.7-5.45,1.99-7.83c0.75-3.24,1.4-6.4,1.93-9.38
		c0.97-6.09,1.46-11.95,1.46-17.41c0-5.71-2.68-10.12-3.84-11.76c-0.1-0.14-0.12-0.31-0.06-0.46c-0.99-1.7-2.1-3.42-3.27-5.22
		c-1.13-1.75-2.31-3.56-3.48-5.52c-0.72-1.02-1.48-2.13-2.27-3.29c-0.16,1.18-0.33,2.29-0.48,3.31c-0.24,1.6-0.45,2.98-0.55,4.1
		c-0.71,7.66,2.1,12,2.13,12.05c0.07,0.11,0.1,0.25,0.07,0.38l-9.57,45.5c-0.05,0.23-0.25,0.4-0.49,0.4h-4.27
		c-0.15,0-0.29-0.07-0.38-0.18c-0.1-0.11-0.14-0.26-0.11-0.41l0.05-0.33c0.1-0.78,0.42-3.2,0.89-6.56
		c0.94-8.28,1.88-21.39,0.96-36.72c-0.45-7.52-1.93-15.75-4.4-24.49l-0.22,0.61c-0.23,2-0.51,3.84-0.75,5.47
		c-0.24,1.6-0.45,2.99-0.55,4.11c-0.02,0.17-0.03,0.34-0.04,0.5l-0.01,0.24c-0.05,1.29-0.05,2.53,0.01,3.66
		c0.38,4.89,2.15,7.62,2.16,7.65c0.07,0.11,0.1,0.25,0.07,0.38l-9.52,45.26c-0.01,0.12-0.04,0.23-0.08,0.32
		c-0.08,0.19-0.26,0.31-0.46,0.31h-1.14c-0.02,0.04-0.04,0.07-0.07,0.1c-0.09,0.11-0.22,0.17-0.36,0.17l-2.25,0.06
		C358.01,543.09,358,543.09,358,543.09z M358.13,541.76c0.15,0.01,0.29,0.08,0.38,0.21c0.02,0.03,0.04,0.07,0.06,0.11l1.19-0.03
		c0.02-0.04,0.05-0.08,0.08-0.12c0.1-0.1,0.23-0.17,0.37-0.17h1.21l9.44-44.91c-0.42-0.71-1.86-3.44-2.21-7.95
		c-0.06-1.17-0.07-2.44-0.02-3.78l0.02-0.25c0.01-0.18,0.02-0.35,0.04-0.54c0.11-1.15,0.32-2.54,0.56-4.16
		c0.25-1.63,0.52-3.48,0.75-5.49c0-0.04,0.01-0.08,0.03-0.11l0.6-1.67l-0.04-0.08c-0.09-0.17-0.07-0.39,0.05-0.54
		c0.12-0.16,0.32-0.23,0.51-0.18l0.14,0.03c0.18,0.04,0.41,0.2,0.46,0.37c2.75,9.35,4.38,18.15,4.86,26.17
		c0.92,15.4-0.02,28.57-0.97,36.91c-0.44,3.17-0.75,5.49-0.86,6.35h3.28l9.45-44.9c-0.56-0.93-2.84-5.28-2.18-12.51
		c0.11-1.15,0.32-2.54,0.56-4.16c0.21-1.39,0.44-2.94,0.65-4.6c0.03-0.21,0.18-0.38,0.38-0.42c0.2-0.05,0.42,0.03,0.53,0.21
		c0.02,0.04,0.05,0.09,0.08,0.15c0.03,0.02,0.05,0.05,0.07,0.07c0.99,1.48,1.95,2.89,2.87,4.19c1.18,1.97,2.35,3.78,3.48,5.52
		c1.47,2.27,2.86,4.42,4.04,6.57c0.05,0.09,0.07,0.19,0.06,0.28c1.35,2.23,3.23,6.22,3.23,11.13c0,5.51-0.5,11.42-1.47,17.57
		c-0.53,3.03-1.19,6.22-1.95,9.5c-0.01,0.05-0.03,0.09-0.05,0.13c-0.98,1.75-1.61,5.54-1.82,6.97h7.79
		c1.08-14.05,7.59-42.86,8.31-46.01c-8.41-8.06-9.76-16.2-9.41-21.63c0.06-0.35,0.12-0.64,0.18-0.93c0.04-0.17,0.17-0.32,0.34-0.37
		c1.89-0.59,3.68-1.24,5.31-1.93c0.21-0.09,0.45-0.03,0.59,0.15c1.18,1.53,2.34,3.16,3.45,4.85c3.62,5.7,8.11,13.64,10.73,24.58
		c0.69,2.89,1.28,5.98,1.73,9.19c0.3,2.24,0.55,4.48,0.75,6.67c1.12,13.35-0.19,24.49-0.5,26.85h1.69l1.69,0.09
		c0.08-0.06,0.19-0.09,0.29-0.09h4.32c0,0,0.01-0.01,0.02-0.01c-4.77-30.7-2.55-48.61-2.18-51.19c-6.62-4.61-6.91-18.12-4.96-29.33
		c0.6-3.43,1.01-7.05,1.19-10.45c0.43-4.02,0.96-14.01-3.44-20.51l-0.13-0.2c-0.15-0.21-0.3-0.41-0.46-0.61
		c-0.52-0.66-1.04-1.21-1.59-1.71c-0.13-0.12-0.19-0.3-0.16-0.47c0.03-0.17,0.16-0.32,0.32-0.38c0.47-0.17,0.93-0.38,1.39-0.62
		c0.03-0.02,0.07-0.03,0.1-0.04c1.53-0.43,4.12-1.68,5.27-5.27c-0.54,0.25-1.23,0.55-1.87,0.73c-0.02,0.01-0.14,0.03-0.16,0.03
		c-0.19,0.03-0.38-0.06-0.49-0.22c-0.11-0.16-0.11-0.37-0.01-0.54c0,0,0.29-0.49,0.61-1.33c1.35-2.47,2.71-7.69-2.66-15.91
		l-1.23,1.47c-0.14,0.17-0.37,0.22-0.58,0.14c-0.2-0.08-0.33-0.29-0.31-0.51c0.03-0.31,0.57-7.24-5.51-10.92
		c0,0.36-0.02,0.87-0.07,1.5c-0.7,3.88-3.01,5.99-5.47,8.23c-2.71,2.48-5.52,5.04-6.74,10.29c-0.5,2.13-0.47,4.09,0.08,5.84
		c0.06,0.18,0.01,0.38-0.13,0.51c-0.14,0.13-0.34,0.18-0.51,0.12c-5.83-2-12.32-4.58-15.64-9.97c-0.08-0.13-0.1-0.3-0.04-0.44
		c0.24-0.6,0.44-1.18,0.61-1.72c-0.17-0.13-0.25-0.36-0.18-0.57c0.26-0.75,0.49-1.46,0.69-2.13c0.04-0.14,0.14-0.24,0.25-0.3
		c0.1-0.53,0.16-0.97,0.2-1.3c1.35-5.27,0.8-7.78,0.22-10.43c-0.21-0.97-0.43-1.97-0.57-3.12c-0.49-4.13-2.69-4.52-3.61-4.47
		c-0.23-0.01-0.47-0.1-0.56-0.29c-0.09-0.19-0.11-0.42,0.04-0.56c1.15-1.13,2.12-2.32,2.87-3.56c3.29-5.36,3.47-12.37,3.04-17.31
		c0.19-1.9,0.26-3.37,0.29-4.29c0-0.16,0.08-0.3,0.21-0.39c0.13-0.09,0.29-0.12,0.44-0.07c1.93,0.63,6.89,1.54,18.37,0.51
		c5.29-0.48,10.03-2.48,14.09-5.96c5.39-4.37,7.81-10.11,8.41-11.7c-6.3-2.63-12.48-3.73-18.39-3.26l-0.21,0.02
		c-0.23,0.02-0.44,0.04-0.65,0.06c-10.5,1.08-17.33,7.22-21.21,12.17c-0.13,0.17-0.34,0.23-0.54,0.17c-0.2-0.06-0.34-0.24-0.35-0.45
		c-0.02-0.3-0.04-0.61-0.06-0.91c-0.02-1.09-0.13-3.17-0.69-5.15c-0.05-0.19,0.01-0.39,0.16-0.52c1.18-0.99,2.3-2.27,3.33-3.79
		c2.22-3.29,5.35-6.53,9.3-9.63c0.97-0.52,1.87-0.98,2.78-1.41c1.09-0.45,2.21-0.9,3.36-1.36c10.68-4.26,23.97-9.56,28-24.92
		c4.71-17.94-6.52-33.03-11.57-38.68c-0.02-0.02-0.07-0.08-0.16-0.02c-0.09,0.06-0.06,0.13-0.04,0.16c0.34,0.7,0.71,1.49,1.1,2.34
		c1.92,4.3,5.25,12.89,6.08,22.08c0.8,8.86-0.97,16.03-5.24,21.32c-1.17,1.39-2.54,2.68-4.19,3.97c-0.19,0.14-0.45,0.14-0.63-0.01
		c-0.18-0.15-0.23-0.41-0.12-0.62c1.44-2.76,2.42-5.71,2.9-8.77c1.1-6.95,1.36-17.52-3.64-28.37
		c-5.99-13.02-13.34-18.11-17.19-19.99c-0.32-0.15-0.52,0.06-0.58,0.13s-0.23,0.32-0.02,0.6c2.73,3.64,8.06,11.77,13.05,25.36
		c4.63,12.62,1.07,23.52-2.73,30.45c-0.47,0.85-1.42,1.25-2.35,0.99c-0.95-0.27-1.56-1.11-1.51-2.09
		c0.74-16.6-6.83-37.83-19.26-42.99c-0.32-0.13-0.51,0.09-0.57,0.16c-0.11,0.15-0.17,0.4,0.02,0.62
		c8.55,10.26,11.79,22.75,13.01,31.42c1.44,10.34-1.52,20.62-8.15,28.2c-3,3.43-6.96,5.76-10.86,6.39
		c-2.37,0.38-4.84-0.09-6.96-1.32c-10.99-6.4-10.81-27.65-10.22-36.5c0.03-0.39-0.3-0.49-0.37-0.51c-0.09-0.02-0.4-0.07-0.56,0.27
		c-2.98,6.62-6.92,19.94,0.09,34.83c0.07,0.15,0.06,0.33-0.03,0.48s-0.25,0.23-0.42,0.23c-4.25,0.03-7.98,0.82-11.08,2.33
		c-0.16,0.08-0.35,0.07-0.5-0.04c-0.09-0.06-0.14-0.1-0.19-0.12c-2.6-1.33-11.18-6.08-12.6-11.12c-1.68-5.97,4.17-11.33,4.42-11.55
		c0.25-0.18,20.19-14.13,19.27-24.32c-0.8-8.85-7.49-22.65-23.71-32.4c-0.19-0.11-0.32,0.01-0.37,0.06c-0.06,0.07-0.13,0.21,0,0.36
		c4.55,5.19,12.42,15.19,14.1,23.88c1.74,9.04-1.3,16.64-4.44,20.39c-1.83,2.19-3.91,3.4-5.86,3.4c-0.02,0-0.04,0-0.06,0
		c-1.76-0.02-2.36-2.01-2.66-3.51c-0.15-1.62-0.28-3.52-0.43-5.62c-0.17-2.33-0.35-4.91-0.58-7.53c-0.16-2.62-0.46-5.27-0.87-7.9
		c-0.26-1.88-0.54-3.47-0.84-4.89c-0.8-3.97-1.84-7.55-3.18-10.96c-1.22-3.36-2.2-5.2-2.45-5.44c-0.04-0.04-0.09-0.1-0.11-0.14
		c-0.1-0.18-0.27-0.16-0.32-0.15c-0.06,0.01-0.21,0.06-0.22,0.25c-0.38,4.9-0.99,18.04,1.56,34.28c2.51,16.04,1.28,18.89-0.26,19.57
		c-1.36,0.6-3.21-0.68-6-4.16c-0.46-0.57-0.89-1.23-1.31-2.02c-1.5-3.04-2.59-7.25-3.26-12.51c-0.91-7.99-0.7-17.28-0.4-24.47
		c0.01-0.21-0.15-0.27-0.22-0.29c-0.07-0.02-0.23-0.03-0.32,0.15c-2.6,5.42-8.11,19.72-3.27,35.51c3.12,10.2,8.12,15.21,12.13,19.24
		c3.17,3.18,5.91,5.93,6.69,10.21c0.22,1.19-0.21,2.39-1.13,3.2c-0.96,0.84-2.24,1.1-3.44,0.72c-5.72-1.86-10.79-4.73-15.06-8.54
		c-9.99-9.23-12.23-21.52-12.68-28.03c-0.04-1.86,0.04-3.74,0.24-5.61c0.02-0.23-0.15-0.29-0.22-0.31
		c-0.09-0.02-0.25-0.02-0.32,0.18c-2.47,7.22-4.05,18.62,2.42,31.97c3.11,6.15,8.66,10.66,16.5,13.41c0.22,0.08,0.36,0.3,0.33,0.53
		c-0.03,0.23-0.22,0.42-0.45,0.44c-3.47,0.32-7.01,1.44-10.51,3.32c0.52,1.32,2.46,5.7,6.32,9.07c3.23,2.96,6.93,4.56,11.01,4.75
		c6.42,0.31,9.99-0.17,11.87-0.62c0.15-0.03,0.3,0,0.42,0.09c0.12,0.09,0.19,0.23,0.2,0.38c0.23,4.54,1.37,8.2,2.3,10.48
		c0.19,0.58,0.36,1.09,0.52,1.55c0.09,0.24-0.02,0.51-0.25,0.62l-13.91,6.74c-0.08,0.04-0.16,0.09-0.24,0.13l-0.15,0.09
		c-0.95,0.47-1.74,0.93-2.44,1.43l-0.96,0.48c-0.03,0.03-0.06,0.05-0.1,0.07c-0.4,0.2-0.77,0.44-1.11,0.73
		c-0.89,0.59-1.42,1.18-1.51,1.66c-0.04,0.21-0.12,0.77-0.13,1.55c-0.1,0.99,0.02,2.05,0.34,3.19c0,0,0,0,0,0
		c0,0,0.11,0.26,0.33,0.66c0.82,2.07,2.27,3.61,4.33,4.65c0.67,0.44,1.36,0.82,2.08,1.15c3.09,2.04,6.84,2.67,6.88,2.68
		c0.08,0.02,4.86,1.13,10.63,1.2c0.21,0,0.4,0.14,0.47,0.34s0.01,0.42-0.16,0.55c-0.7,0.57-1.4,1.16-2.07,1.76
		c-0.11,0.1-0.25,0.14-0.4,0.12c-0.48-0.06-0.96,0.04-1.39,0.28c-0.42,0.21-0.75,0.55-1.01,1.01c-0.06,0.09-0.1,0.18-0.14,0.27
		c-0.05,0.11-0.07,0.15-0.09,0.2c-0.11,0.28-0.18,0.51-0.21,0.74c-0.01,0.06-0.01,0.12-0.01,0.18l0,0.13
		c-0.01,0.12-0.06,0.23-0.14,0.32c-1.37,1.41-2.46,2.85-3.33,4.39c-0.09,0.17-0.26,0.28-0.46,0.25c-0.44-0.02-0.87,0.07-1.25,0.29
		c-0.42,0.21-0.75,0.55-1.01,1.01c-0.06,0.1-0.1,0.18-0.14,0.27c-0.05,0.1-0.07,0.15-0.09,0.21c-0.11,0.28-0.17,0.51-0.21,0.73
		c-0.16,1.03,0.17,2.03,0.87,2.67c0.13,0.12,0.19,0.3,0.15,0.47c-0.16,0.78-0.3,1.59-0.44,2.56c-0.02,0.16-0.12,0.29-0.26,0.37
		c-0.94,0.51-1.67,1.33-2.17,2.44c-0.05,0.11-0.09,0.19-0.13,0.28c-0.22,0.52-0.37,1.04-0.45,1.56c-0.2,1.34,0.02,2.7,0.63,3.84
		c0.08,0.14,0.08,0.32,0,0.46s-0.21,0.25-0.38,0.27c-6.23,0.87-7.58,8.81-8.66,15.2c-0.09,0.55-0.18,1.08-0.28,1.6
		c-0.73,4.15-3.03,6.3-4.83,7.37c-1.57,0.93-3.13,1.26-3.7,1.27v0.01c-0.07,0-1.68,0.12-1.85,1.66c-0.17,1.49,1.23,1.9,1.39,1.94
		c3.06,1.06,7.24,2,11.82,2.67c0.14,0.02,0.27,0.1,0.35,0.23c0.08,0.12,0.1,0.27,0.06,0.41c-0.08,0.26-0.14,0.52-0.19,0.79
		c-0.41,2.5,0.69,4.95,2.67,5.98c0.12,0.07,0.23,0.14,0.33,0.19c0.1,0.01,0.11,0.01,0.16,0.03c0.28,0.11,0.55,0.18,0.8,0.22
		c1.29,0.21,2.6-0.16,3.69-1.06c1.11-0.91,1.86-2.24,2.1-3.75c0.08-0.5,0.1-1.02,0.06-1.54c-0.01-0.14,0.04-0.28,0.14-0.38
		c0.1-0.1,0.24-0.15,0.38-0.16c2.19,0.06,4.24,0.03,6.11-0.09c0.2-0.01,0.34,0.07,0.45,0.22c0.39,0.57,0.77,1.04,1.13,1.41
		c0.05,0.03,0.09,0.07,0.12,0.12c0.25,0.34,0.49,0.68,0.75,1.01c0.03,0.04,0.05,0.08,0.07,0.12c3.85,9.83,8.63,24.72,9.53,39.81
		c0.9,15.18,0,28.2-0.92,36.45C358.6,538.22,358.27,540.7,358.13,541.76z M344.82,348.13c-0.15,0-0.29-0.07-0.39-0.18
		c-2.09-2.57-4.44-4.62-7.01-6.1c-0.2-0.12-0.3-0.36-0.23-0.59c0.07-0.22,0.3-0.37,0.53-0.34c2.96,0.3,5.99,0.42,9,0.35
		c0.15,0,0.33,0.08,0.43,0.22c0.09,0.14,0.11,0.32,0.04,0.48c-0.81,1.88-1.45,3.82-1.89,5.77c-0.04,0.19-0.19,0.33-0.37,0.38
		C344.9,348.12,344.86,348.13,344.82,348.13z M339.67,342.09c1.75,1.22,3.39,2.72,4.9,4.46c0.37-1.44,0.84-2.87,1.41-4.27
		C343.86,342.31,341.76,342.24,339.67,342.09z"/>
</g>
<g>
	<path d="M396.54,490.76c0,0,0.19,0.23,0.49,0.65C396.72,491.01,396.54,490.76,396.54,490.76 M396.54,488.76
		c-0.42,0-0.85,0.13-1.21,0.41c-0.86,0.66-1.04,1.87-0.41,2.75c0,0,0.19,0.27,0.53,0.71c0.39,0.51,0.99,0.78,1.59,0.78
		c0.41,0,0.83-0.13,1.18-0.39c0.88-0.65,1.08-1.87,0.45-2.76c-0.33-0.46-0.55-0.74-0.58-0.77
		C397.69,489.01,397.11,488.76,396.54,488.76L396.54,488.76z"/>
	<path d="M342.06,253.02c0.13,0,0.27,0.04,0.41,0.12c15.64,9.4,23.07,23.02,23.95,32.78c0.96,10.6-19.44,24.74-19.44,24.74
		s-5.89,5.3-4.27,11.04c1.37,4.85,9.76,9.48,12.35,10.81c0.09,0.04,0.16,0.1,0.24,0.15c3.37-1.65,7.3-2.36,11.3-2.38
		c-7.1-15.08-3.09-28.58-0.09-35.25c0.18-0.4,0.53-0.58,0.88-0.58c0.52,0,1.05,0.4,1,1.06c-0.63,9.44-0.67,29.84,9.97,36.03
		c1.55,0.9,3.31,1.38,5.09,1.38c0.51,0,1.03-0.04,1.54-0.12c3.99-0.64,7.83-3.09,10.57-6.22c6.63-7.6,9.42-17.81,8.03-27.8
		c-1.26-9.01-4.55-21.15-12.89-31.17c-0.57-0.69-0.04-1.64,0.73-1.64c0.12,0,0.25,0.03,0.39,0.08c12.04,4.99,20.35,25.9,19.57,43.48
		c-0.05,1.02,0.77,1.65,1.59,1.65c0.51,0,1.03-0.25,1.34-0.81c3.42-6.24,7.38-17.25,2.69-30.03c-4.9-13.35-10.09-21.39-12.98-25.23
		c-0.52-0.69,0.04-1.59,0.78-1.59c0.14,0,0.29,0.03,0.44,0.11c4.21,2.05,11.47,7.28,17.43,20.23c5,10.86,4.82,21.43,3.68,28.66
		c-0.5,3.14-1.5,6.15-2.95,8.92c1.51-1.17,2.89-2.44,4.11-3.88c4.78-5.92,5.79-13.6,5.13-20.94c0-0.01,0-0.01,0-0.02
		c-0.83-9.23-4.26-17.92-6.04-21.92c-0.38-0.84-0.75-1.63-1.09-2.32c-0.23-0.47,0.15-0.91,0.57-0.91c0.16,0,0.32,0.06,0.46,0.21
		c5.65,6.33,16.37,21.24,11.68,39.14c-4.53,17.28-20.65,22.04-31.63,26.6c-0.91,0.43-1.8,0.89-2.69,1.36
		c-3.16,2.48-6.63,5.72-9.19,9.52c-1.13,1.68-2.29,2.94-3.42,3.9c0.56,1.98,0.69,4.05,0.71,5.25c0.02,0.31,0.05,0.61,0.06,0.92
		c4.06-5.19,11.02-11.28,21.55-12.36c0.21-0.02,0.43-0.04,0.64-0.06c0.08-0.01,0.15-0.01,0.23-0.02c0.83-0.07,1.72-0.1,2.66-0.1
		c4.39,0,9.97,0.83,16.4,3.59c0,0-2.23,7.1-8.71,12.36c-3.5,3.01-8.21,5.53-14.37,6.08c-3.77,0.34-6.84,0.47-9.35,0.47
		c-5.05,0-7.79-0.54-9.22-1c-0.03,1.05-0.11,2.51-0.29,4.23c0.42,4.86,0.29,12.08-3.12,17.61c-0.83,1.35-1.84,2.56-2.95,3.65
		c0.02,0,0.05,0,0.08,0c0.02,0,0.04,0,0.07,0c0.04,0,0.08,0,0.12,0c1.02,0,3.48,0.47,4.01,4.91c0.51,4.3,2.2,6.45,0.34,13.67
		c-0.12,1.08-0.5,3.31-1.6,6.14c3.06,4.96,8.74,7.49,15.38,9.76c-0.53-1.66-0.66-3.68-0.09-6.1c2.4-10.24,10.8-10.71,12.2-18.45
		c0.09-1.2,0.06-1.98,0.06-1.98c0.03,0.02,0.05,0.03,0.08,0.05c-0.31-0.38-0.52-0.6-0.52-0.6c7.73,3.64,6.96,12.04,6.96,12.04
		l1.66-1.99c5.97,8.8,4.45,14.41,3.08,16.92c-0.34,0.91-0.65,1.42-0.65,1.42l0.1-0.02c1.26-0.36,2.77-1.2,2.77-1.2
		c-0.99,4.64-4.07,6.19-5.9,6.7c-0.5,0.27-0.99,0.49-1.46,0.65c0.59,0.52,1.12,1.09,1.6,1.7c0.02,0.02,0.04,0.05,0.05,0.07
		c0.16,0.21,0.32,0.41,0.47,0.63c0.05,0.07,0.09,0.14,0.14,0.21c4.51,6.67,3.94,16.93,3.53,20.82c-0.19,3.62-0.62,7.22-1.2,10.51
		c-2.21,12.66-1.18,25.03,5.01,29.01c0,0-3.09,18.11,2.21,51.83h-0.27c0.03,0.07,0.05,0.11,0.05,0.11s-2.39,0-4.68,0
		c0,0.06,0.01,0.11,0.01,0.11l-1.99-0.11c-1.16,0-2.05,0-2.17,0c0,0,0.01-0.04,0.01-0.11h-0.09c0,0,1.82-12.09,0.56-27.2
		c-0.19-2.09-0.44-4.31-0.75-6.65c-0.43-3.01-0.99-6.08-1.72-9.15c-2.53-10.54-6.72-18.21-10.66-24.43
		c-1.26-1.92-2.43-3.53-3.42-4.81c-1.77,0.75-3.58,1.4-5.36,1.95c-0.06,0.28-0.12,0.56-0.17,0.85c-0.38,5.77,1.21,13.64,9.46,21.43
		c0,0-7.36,31.95-8.39,46.67h-8.83c0,0,0.69-5.42,1.96-7.71c0.64-2.75,1.34-6.01,1.95-9.47c0.83-5.24,1.46-11.28,1.46-17.49
		c0-5.88-2.78-10.42-3.93-12.05c0.19,0.24,0.43,0.55,0.7,0.88c-2.06-3.77-4.8-7.56-7.48-12.04c-1.01-1.43-1.99-2.86-2.88-4.2
		c-0.03,0.01-0.07,0.01-0.1,0.02l0.02-0.15c-0.02-0.03-0.04-0.06-0.06-0.1c-0.45,3.6-1.01,6.63-1.21,8.75
		c-0.74,7.95,2.21,12.37,2.21,12.37l-9.57,45.5h-4.27c0,0,0.02-0.12,0.06-0.33c0.08-0.59,0.41-3.06,0.89-6.58
		c0.87-7.68,1.9-21.08,0.97-36.82c-0.54-9.15-2.54-18.24-4.84-26.06c-0.08-0.02-0.16-0.04-0.24-0.06l0.15,0.27l-0.67,1.88
		c-0.46,3.99-1.1,7.35-1.31,9.64c-0.02,0.26-0.03,0.51-0.05,0.76c-0.05,1.25-0.05,2.5,0.01,3.72c0.4,5.11,2.25,7.89,2.25,7.89
		l-9.52,45.26c-0.01,0.11-0.03,0.19-0.05,0.23h-1.61l0.03,0.27l-2.25,0.06l0.11-0.33h-0.55c0,0,0.39-2.97,1-7.37
		c0.86-7.75,1.83-20.94,0.91-36.36c-0.91-15.25-5.85-30.33-9.5-39.65c-0.26-0.33-0.51-0.68-0.76-1.02c0,0-0.01,0-0.01,0
		c-0.42-0.41-0.84-0.94-1.25-1.53c-1.29,0.08-2.62,0.12-3.97,0.12c-0.72,0-1.45-0.01-2.19-0.03c0.04,0.54,0.02,1.1-0.07,1.66
		c-0.5,3.07-2.92,5.29-5.58,5.29c-0.26,0-0.52-0.02-0.78-0.06c-0.31-0.05-0.61-0.14-0.9-0.24c0.07,0.05,0.12,0.1,0.19,0.14
		c0,0-0.31-0.12-0.74-0.38c-2.13-1.1-3.39-3.71-2.93-6.5c0.05-0.29,0.12-0.58,0.2-0.85c-4.63-0.68-8.86-1.64-11.87-2.68
		c0,0-1.99-0.5-1.77-2.48s2.32-2.1,2.32-2.1c0,0,0.02,0,0.03,0c0.52,0,6.74-0.95,8.03-8.23c1.2-6.8,2.22-16.21,9.36-17.2
		c-0.64-1.19-0.91-2.64-0.68-4.15c0.09-0.59,0.25-1.14,0.47-1.66c0-0.01,0.01-0.01,0.01-0.02c0.04-0.1,0.09-0.19,0.13-0.29
		c0.6-1.32,1.46-2.17,2.38-2.67c0.12-0.85,0.26-1.72,0.44-2.59c-0.78-0.72-1.21-1.88-1.02-3.11c0.05-0.3,0.13-0.57,0.24-0.84
		c0.03-0.09,0.07-0.16,0.11-0.24c0.05-0.1,0.1-0.21,0.16-0.3c0.33-0.57,0.75-0.96,1.2-1.2c0.42-0.23,0.88-0.35,1.36-0.35
		c0.06,0,0.11,0,0.17,0c0.83-1.47,1.92-2.97,3.41-4.5c0.01-0.12,0-0.23,0.02-0.35c0.04-0.3,0.13-0.57,0.24-0.84
		c0.03-0.09,0.07-0.16,0.11-0.24c0.05-0.1,0.1-0.21,0.16-0.3c0.33-0.57,0.75-0.96,1.2-1.2c0.42-0.24,0.88-0.36,1.36-0.36
		c0.11,0,0.22,0.01,0.33,0.02c0.71-0.63,1.4-1.22,2.09-1.78c-5.9-0.07-10.71-1.2-10.71-1.2s-3.86-0.63-7.01-2.72
		c-0.77-0.35-1.47-0.74-2.09-1.16c-2.48-1.25-3.84-3.06-4.55-4.86c-0.26-0.47-0.37-0.77-0.37-0.77c-0.36-1.31-0.45-2.4-0.36-3.33
		c0.01-0.7,0.07-1.27,0.14-1.64c0.11-0.65,0.72-1.33,1.67-1.95c0.43-0.37,0.86-0.62,1.22-0.8c-0.01,0-0.02-0.01-0.02-0.01
		s0.36-0.18,1.01-0.5c0.75-0.53,1.58-1.01,2.49-1.46c0.14-0.08,0.27-0.16,0.42-0.23l13.91-6.74c-0.17-0.46-0.34-0.98-0.52-1.53
		c-0.99-2.44-2.11-6.14-2.33-10.64c-1.62,0.39-4.16,0.73-8.08,0.73c-1.18,0-2.48-0.03-3.93-0.1c-4.81-0.23-8.54-2.34-11.31-4.88
		c-4.74-4.13-6.61-9.67-6.61-9.67c4.22-2.33,7.99-3.3,11.09-3.59c-6.77-2.37-13.17-6.52-16.78-13.66
		c-6.73-13.89-4.7-25.74-2.44-32.35c0.12-0.36,0.42-0.53,0.72-0.53c0.42,0,0.85,0.33,0.79,0.87c-0.2,1.88-0.27,3.72-0.24,5.53
		c0.42,6.02,2.54,18.47,12.52,27.69c4.17,3.72,9.21,6.6,14.88,8.43c0.31,0.1,0.63,0.15,0.94,0.15c1.79,0,3.33-1.61,2.99-3.5
		c-1.72-9.43-13.19-11.05-18.81-29.4c-4.82-15.75,0.42-29.87,3.3-35.88c0.15-0.31,0.42-0.44,0.69-0.44c0.41,0,0.81,0.31,0.79,0.82
		c-0.31,7.75-0.47,16.75,0.4,24.39c0.59,4.62,1.58,9.03,3.21,12.33c0.38,0.72,0.8,1.37,1.26,1.94c2.08,2.59,3.76,4.11,4.93,4.11
		c2.2,0,2.6-5.36,0.44-19.13c-2.53-16.15-1.97-29.15-1.56-34.39c0.04-0.46,0.41-0.72,0.78-0.72c0.27,0,0.54,0.13,0.69,0.42
		c0.34,0.29,1.38,2.33,2.59,5.64c1.46,3.7,2.48,7.43,3.2,11.04c0.33,1.52,0.6,3.18,0.85,4.92c0.39,2.51,0.7,5.17,0.87,7.94
		c0.43,4.98,0.7,9.79,1,13.09c0.39,1.96,1.02,3.09,2.18,3.1c0.02,0,0.04,0,0.06,0c5.58,0,12.16-11.01,9.81-23.19
		c-1.65-8.58-9.47-18.49-13.98-23.65C340.99,253.77,341.46,253.02,342.06,253.02 M345,347.63c0.43-1.9,1.05-3.86,1.92-5.86
		c-0.51,0.01-1.06,0.02-1.64,0.02c-2.12,0-4.66-0.09-7.42-0.38C340.85,343.13,343.22,345.43,345,347.63 M388.97,405.18
		c0.26-0.7,0.49-1.42,0.7-2.15C389.47,403.7,389.24,404.42,388.97,405.18 M342.06,251.02C342.06,251.02,342.06,251.02,342.06,251.02
		c-1.09,0-2.09,0.65-2.54,1.66c-0.45,1-0.28,2.13,0.45,2.96c4.38,5,11.96,14.6,13.53,22.71c1.47,7.61-0.88,14.65-3.85,18.25
		c-1.27,1.54-2.65,2.46-3.8,2.55c-0.1-0.18-0.27-0.58-0.44-1.39c-0.14-1.53-0.27-3.42-0.41-5.42c-0.16-2.31-0.35-4.92-0.58-7.55
		c-0.16-2.63-0.46-5.36-0.89-8.07c-0.27-1.89-0.55-3.54-0.87-5.03c-0.82-4.08-1.9-7.79-3.29-11.33c-0.67-1.82-1.84-4.83-2.81-6.08
		c-0.51-0.79-1.39-1.27-2.34-1.27c-1.47,0-2.67,1.1-2.78,2.56c-0.39,4.98-1.01,18.36,1.58,34.86c1.81,11.52,1.47,15.34,1.15,16.57
		c-0.5-0.36-1.44-1.19-2.99-3.11c-0.35-0.44-0.7-0.98-1.04-1.61c-1.36-2.78-2.37-6.7-3-11.67c-0.89-7.79-0.67-16.95-0.39-24.06
		c0.03-0.77-0.24-1.49-0.76-2.04c-0.52-0.55-1.26-0.86-2.03-0.86c-1.07,0-2.03,0.6-2.49,1.58c-2.72,5.68-8.5,20.69-3.41,37.33
		c3.31,10.79,8.54,16.05,12.75,20.28c3.11,3.13,5.36,5.38,6,8.9c0.05,0.28-0.02,0.53-0.2,0.75c-0.2,0.25-0.51,0.39-0.82,0.39
		c-0.11,0-0.21-0.02-0.32-0.05c-5.39-1.75-10.15-4.45-14.16-8.02c-9.3-8.59-11.42-20.14-11.85-26.29c-0.03-1.72,0.05-3.47,0.23-5.23
		c0.08-0.8-0.16-1.56-0.69-2.15c-0.53-0.59-1.29-0.93-2.09-0.93c-1.2,0-2.22,0.74-2.61,1.88c-2.14,6.27-4.66,19.02,2.54,33.87
		c2.59,5.12,6.65,9.18,12.14,12.14c-1.87,0.63-3.75,1.46-5.61,2.49c-0.85,0.47-1.24,1.47-0.93,2.39c0.08,0.25,2.11,6.11,7.19,10.54
		c3.63,3.33,7.86,5.14,12.53,5.37c1.41,0.07,2.77,0.1,4.02,0.1c2.39,0,4.49-0.12,6.27-0.37c0.43,3.69,1.37,6.72,2.19,8.78
		l-12.31,5.97c-0.14,0.07-0.28,0.15-0.42,0.23l-0.07,0.04c-0.96,0.48-1.8,0.97-2.57,1.49l-0.87,0.43c-0.08,0.04-0.16,0.09-0.24,0.14
		c-0.45,0.24-0.88,0.53-1.28,0.86c-1.41,0.95-2.23,2.03-2.44,3.21c-0.06,0.32-0.15,0.99-0.17,1.88c-0.11,1.23,0.04,2.56,0.43,3.98
		c0.02,0.06,0.04,0.13,0.06,0.19c0.02,0.06,0.16,0.39,0.42,0.89c1.02,2.51,2.82,4.44,5.36,5.74c0.66,0.43,1.38,0.83,2.13,1.18
		c3.23,2.09,6.99,2.82,7.58,2.92c0.38,0.09,2.23,0.49,4.89,0.82c-0.18,0.22-0.35,0.47-0.5,0.73c-0.09,0.15-0.16,0.3-0.24,0.45
		l-0.04,0.08c-0.05,0.1-0.1,0.21-0.14,0.32c-0.13,0.33-0.23,0.67-0.3,1.01c-1.04,1.13-1.93,2.28-2.69,3.49
		c-0.44,0.1-0.87,0.26-1.27,0.48c-0.81,0.43-1.5,1.1-1.99,1.96c-0.07,0.11-0.15,0.27-0.23,0.43l-0.04,0.08
		c-0.05,0.1-0.1,0.21-0.14,0.32c-0.16,0.41-0.28,0.83-0.34,1.24c-0.22,1.43,0.1,2.84,0.86,3.97c-0.05,0.28-0.1,0.56-0.15,0.86
		c-0.99,0.76-1.8,1.79-2.36,3.03c-0.04,0.08-0.1,0.21-0.15,0.33c-0.01,0.01-0.01,0.03-0.02,0.04c-0.29,0.68-0.49,1.4-0.59,2.11
		c-0.16,1.03-0.13,2.08,0.07,3.07c-6.06,2.43-7.43,10.55-8.46,16.65c-0.09,0.54-0.18,1.07-0.27,1.59c-1.02,5.76-5.59,6.51-6.1,6.57
		c-0.03,0-0.07,0-0.1,0c-1.83,0.1-3.92,1.35-4.2,3.87c-0.3,2.67,1.7,4.21,3.17,4.62c2.7,0.93,6.26,1.78,10.17,2.43
		c-0.1,3.12,1.46,6.07,4.04,7.43c0.53,0.32,0.93,0.47,1.01,0.5c0.23,0.09,0.46,0.13,0.69,0.13c0.13,0.03,0.26,0.06,0.39,0.08
		c0.36,0.06,0.74,0.09,1.11,0.09c3.7,0,6.87-2.9,7.55-6.91c0.1,0,0.19,0,0.29,0c1.03,0,2.04-0.02,3-0.07
		c0.25,0.31,0.49,0.59,0.74,0.83c0.16,0.22,0.32,0.44,0.48,0.65c3.77,9.67,8.39,24.16,9.26,38.78c0.89,14.99,0,27.84-0.9,36
		c-0.61,4.39-1,7.36-1,7.36c-0.08,0.57,0.1,1.15,0.48,1.58c0.15,0.18,0.34,0.32,0.54,0.43c0.37,0.37,0.88,0.58,1.41,0.58
		c0.02,0,0.04,0,0.06,0l2.25-0.06c0.34-0.01,0.66-0.1,0.95-0.27h0.58c0.8,0,1.52-0.47,1.84-1.21c0.11-0.25,0.16-0.49,0.18-0.68
		l9.51-45.2c0.11-0.52,0.01-1.07-0.29-1.52c-0.01-0.01-1.57-2.49-1.92-6.95c-0.05-1.02-0.06-2.21-0.01-3.46l0.01-0.22
		c0.01-0.15,0.02-0.29,0.03-0.45c0.08-0.82,0.21-1.81,0.38-2.92c1.38,6.05,2.23,11.8,2.55,17.18c0.91,15.23-0.02,28.24-0.96,36.48
		c-0.47,3.4-0.8,5.86-0.88,6.5l-0.05,0.28c-0.1,0.58,0.06,1.18,0.44,1.63c0.38,0.45,0.94,0.72,1.53,0.72h4.27
		c0.95,0,1.76-0.66,1.96-1.59l9.57-45.5c0.11-0.53,0.01-1.07-0.29-1.52c-0.02-0.03-2.53-4.02-1.88-11.07
		c0.09-0.97,0.26-2.17,0.47-3.55c0.03,0.04,0.06,0.08,0.09,0.13c1.17,1.95,2.34,3.76,3.46,5.5c1.07,1.65,2.09,3.23,3.01,4.78
		c0.03,0.33,0.15,0.66,0.36,0.95c1.07,1.52,3.56,5.62,3.56,10.89c0,5.37-0.48,11.15-1.44,17.18c-0.5,2.86-1.13,5.93-1.86,9.08
		c-1.33,2.64-1.98,7.59-2.06,8.17c-0.07,0.57,0.1,1.14,0.48,1.57c0.38,0.43,0.93,0.68,1.5,0.68h8.83c1.05,0,1.92-0.81,2-1.86
		c1.01-14.4,8.27-46.05,8.35-46.37c0.16-0.69-0.06-1.42-0.58-1.9c-6.18-5.83-9.16-12.33-8.86-19.31c1-0.33,1.97-0.68,2.89-1.04
		c0.82,1.11,1.63,2.28,2.42,3.48c3.71,5.85,7.87,13.27,10.39,23.79c0.68,2.82,1.24,5.83,1.69,8.96c0.29,2.19,0.54,4.4,0.74,6.55
		c1.22,14.66-0.53,26.6-0.55,26.72c-0.08,0.51,0.05,1.04,0.35,1.46c0.06,0.09,0.12,0.18,0.2,0.27c0.38,0.43,0.93,0.68,1.51,0.68
		h2.12l1.93,0.11c0.04,0,0.07,0,0.11,0c0.23,0,0.45-0.04,0.66-0.11h4.02c0.36,0,0.7-0.1,1-0.27c0.28-0.12,0.53-0.3,0.74-0.54
		c0.38-0.44,0.55-1.03,0.46-1.61c-5.18-32.92-2.24-51-2.21-51.18c0.13-0.79-0.22-1.58-0.89-2.02c-4.82-3.1-6.44-13.69-4.12-26.98
		c0.61-3.51,1.03-7.21,1.22-10.7c0.46-4.3,0.98-14.94-3.86-22.1l-0.03-0.05c-0.04-0.06-0.08-0.12-0.12-0.18
		c-0.12-0.17-0.24-0.33-0.36-0.49c2.18-0.97,4.92-3.09,5.91-7.7c0.16-0.77-0.14-1.56-0.77-2.02c-0.18-0.14-0.39-0.24-0.6-0.3
		c0.92-3.49,0.76-8.97-4.24-16.33c-0.35-0.52-0.93-0.84-1.56-0.87c-0.03,0-0.06,0-0.09,0c-0.68-3.18-2.58-7.41-7.77-9.86
		c-0.27-0.13-0.56-0.19-0.85-0.19c-0.62,0-1.23,0.29-1.61,0.82c-0.54,0.74-0.51,1.74,0.06,2.44c-0.01,0.27-0.02,0.62-0.05,1.02
		c-0.56,2.93-2.38,4.59-4.67,6.68c-2.71,2.48-6.09,5.56-7.49,11.57c-0.29,1.22-0.43,2.4-0.42,3.54c-4.86-1.87-8.44-3.89-10.69-7.01
		c0.87-2.48,1.21-4.44,1.35-5.51c1.44-5.7,0.81-8.59,0.2-11.39c-0.21-0.95-0.4-1.85-0.53-2.88c-0.33-2.82-1.42-4.59-2.76-5.6
		c0.42-0.55,0.81-1.11,1.16-1.68c3.61-5.87,3.86-13.34,3.42-18.64c0.06-0.63,0.12-1.22,0.16-1.76c1.98,0.34,4.44,0.51,7.34,0.51
		c2.79,0,5.99-0.16,9.53-0.48c5.81-0.52,11.02-2.72,15.47-6.54c6.85-5.57,9.24-12.98,9.34-13.3c0.31-0.98-0.18-2.03-1.12-2.44
		c-5.8-2.49-11.59-3.75-17.19-3.75c-0.95,0-1.9,0.04-2.82,0.11l-0.15,0.01l-0.08,0.01c-0.25,0.02-0.47,0.04-0.7,0.07
		c-8.92,0.92-15.37,5.18-19.76,9.56c-0.04-0.23-0.08-0.46-0.13-0.69c1.01-0.98,1.97-2.14,2.86-3.46c2.05-3.04,4.95-6.05,8.63-8.95
		c0.85-0.45,1.64-0.84,2.41-1.21c1.04-0.43,2.13-0.87,3.26-1.32c10.61-4.23,25.14-10.03,29.49-26.6
		c5.01-19.11-6.8-35.02-12.12-40.98c-0.5-0.56-1.21-0.88-1.95-0.88c-0.9,0-1.77,0.48-2.25,1.25c-0.48,0.77-0.52,1.72-0.12,2.54
		c0.33,0.67,0.69,1.43,1.06,2.26c1.85,4.15,5.08,12.46,5.87,21.28c0.55,6.18-0.21,11.43-2.26,15.68c1.1-7.3,1.27-18.2-3.9-29.43
		c-6.32-13.72-14.22-19.17-18.37-21.19c-0.42-0.2-0.86-0.31-1.32-0.31c-1.11,0-2.16,0.65-2.67,1.67c-0.51,1.01-0.4,2.21,0.29,3.12
		c2.65,3.53,7.83,11.43,12.7,24.72c3.95,10.77,1.48,20.22-1.69,26.7c0.14-17.13-7.93-38.16-20.85-43.52
		c-0.37-0.15-0.76-0.23-1.15-0.23c-1.14,0-2.2,0.68-2.69,1.73c-0.5,1.06-0.34,2.29,0.42,3.19c8.18,9.81,11.28,21.82,12.45,30.17
		c1.34,9.62-1.41,19.17-7.55,26.21c-2.58,2.95-6.08,5.03-9.38,5.56c-0.4,0.06-0.81,0.1-1.22,0.1c-1.42,0-2.83-0.38-4.08-1.11
		c-9.78-5.69-9.54-25.79-8.98-34.17c0.06-0.84-0.22-1.64-0.79-2.24c-0.57-0.61-1.37-0.95-2.21-0.95c-0.12,0-0.24,0.01-0.35,0.02
		c1.03-2.26,1.57-4.53,1.38-6.73c-0.85-9.44-7.89-24.08-24.92-34.31C343.06,251.16,342.56,251.02,342.06,251.02L342.06,251.02
		L342.06,251.02z M348.25,312.21c1.65-1.15,9.21-6.6,14.6-13.23c-2.31,7.16-3.84,17.73,0.77,29.44c-3.02,0.28-5.78,0.94-8.23,2
		c-4.55-2.42-9.88-6.17-10.75-9.27C343.48,317.01,347.62,312.82,348.25,312.21L348.25,312.21z"/>
</g>
<g>
	
		<ellipse transform="matrix(0.1498 -0.9887 0.9887 0.1498 -113.4008 685.5483)" class="deer-st20" cx="341.92" cy="408.71" rx="3.41" ry="3"/>
	<path class="deer-st21" d="M339.71,408.86c0,0,0.06,2.56,2.53,2.34c2.47-0.21,3.17-4.66,0.09-5.18c0,0,1.64,1.49,0.33,2.98
		S339.71,408.86,339.71,408.86z"/>
	<ellipse class="deer-st20" cx="341.68" cy="408.15" rx="2.02" ry="2.27"/>
	<ellipse class="deer-st22" cx="341.51" cy="407.92" rx="1.73" ry="1.95"/>
	<path class="deer-st22" d="M341.02,412.03c0,0-2.37-0.84-2.07-3.77c0.51-2.75,2.58-3.08,3.68-2.87c1.1,0.21,1.74,1.13,1.83,1.34
		c0,0-1.55-1.64-3.38-0.76c-1.83,0.88-1.58,3.07-1.58,3.07S339.53,411.12,341.02,412.03z"/>
	<circle class="deer-st23" cx="341.23" cy="407.4" r="0.85"/>
	<path d="M341.81,412.36c-0.14,0-0.29-0.01-0.43-0.03c-1.77-0.27-2.97-2.11-2.66-4.11c0.3-1.99,1.99-3.41,3.76-3.13
		c1.77,0.27,2.97,2.11,2.66,4.11l0,0C344.85,411.03,343.41,412.36,341.81,412.36z M342.03,405.56c-1.36,0-2.59,1.16-2.83,2.74
		c-0.26,1.72,0.75,3.31,2.24,3.54c1.51,0.22,2.93-0.99,3.19-2.71l0,0c0.26-1.72-0.75-3.31-2.24-3.54
		C342.27,405.57,342.15,405.56,342.03,405.56z"/>
</g>
<g>
	
		<ellipse transform="matrix(0.1498 -0.9887 0.9887 0.1498 -100.0484 685.5165)" class="deer-st20" cx="348.58" cy="400.93" rx="3.41" ry="3"/>
	<path class="deer-st21" d="M346.37,401.08c0,0,0.06,2.56,2.53,2.34c2.47-0.21,3.17-4.66,0.09-5.18c0,0,1.64,1.49,0.33,2.98
		C348.01,402.73,346.37,401.08,346.37,401.08z"/>
	<ellipse class="deer-st20" cx="348.33" cy="400.37" rx="2.02" ry="2.27"/>
	<ellipse class="deer-st22" cx="348.17" cy="400.14" rx="1.73" ry="1.95"/>
	<path class="deer-st22" d="M347.68,404.25c0,0-2.37-0.84-2.07-3.77c0.51-2.75,2.58-3.08,3.68-2.87c1.1,0.21,1.74,1.13,1.83,1.34
		c0,0-1.55-1.64-3.38-0.76c-1.83,0.88-1.58,3.07-1.58,3.07S346.19,403.34,347.68,404.25z"/>
	<circle class="deer-st23" cx="347.89" cy="399.62" r="0.85"/>
	<path d="M348.46,404.58c-0.14,0-0.29-0.01-0.43-0.03c-0.86-0.13-1.62-0.63-2.12-1.42c-0.5-0.77-0.69-1.73-0.54-2.69
		c0.3-2,2-3.41,3.76-3.13c0.86,0.13,1.62,0.63,2.12,1.42c0.5,0.77,0.69,1.73,0.54,2.69C351.51,403.25,350.07,404.58,348.46,404.58z
		 M348.69,397.78c-1.36,0-2.59,1.16-2.83,2.74c-0.13,0.84,0.04,1.67,0.47,2.34c0.42,0.66,1.05,1.08,1.77,1.19
		c1.5,0.22,2.93-0.99,3.19-2.71c0.13-0.84-0.04-1.67-0.47-2.34c-0.42-0.66-1.05-1.08-1.77-1.19
		C348.93,397.79,348.81,397.78,348.69,397.78z"/>
</g>
<path class="deer-st24" d="M341.56,412.8c0,0-1.23-6.61,5.32-13.21c6.55-6.61,13.4-9.75,13.4-9.75l8.06-1.49l-4.91,11.71l-15.46,15.63
	C347.97,415.67,343.6,420.14,341.56,412.8z"/>
<path d="M345.26,415.56c0,0-4.2-10.55,7.45-19.99c0,0,5.85-2.32,8.61-1.05C364.09,395.79,352.71,415.01,345.26,415.56z"/>
<path class="deer-st25" d="M421.68,403.3c0,0,1.77-8.17-5.85-12.59c0,0,0.33,7.73-3.98,11.93c-4.31,4.2-7.18,21.75,6.52,22.64
	c0.44,0.03,6.85,0.33,10.16-7.07l-2.1,0.33c0,0,4.64-7.51-2.43-16.9"/>
<path class="deer-st26" d="M411.41,424.39c0,0-10.27-2.87-7.84-13.25s11.04-10.71,12.26-18.77c0,0,5.52,10.71,3.09,17.56l2.87-4.53
	c0,0,7.84,13.14-3.53,18.55S411.41,424.39,411.41,424.39z"/>
<path class="deer-st27" d="M422.01,424.28c0,0,5.85-0.22,7.29-6.96c0,0-1.99,1.1-3.31,1.33c0,0,6.4-6.07-1.99-18.44l-1.66,1.99
	c0,0,0.77-8.39-6.96-12.04c0,0,7.18,7.62,4.86,15.9l2.87-2.87c0,0,5.3,8.39,1.33,16.56l1.88,0.33
	C426.32,420.09,425.65,423.29,422.01,424.28z"/>
<path d="M421.12,411.91c0,0,4.09,9.17-4.31,11.48c-8.39,2.32-12.92-5.19-12.92-5.19s-1.77-11.48,7.95-15.57
	c9.72-4.09,5.19,12.92,5.19,12.92L421.12,411.91z"/>
<path class="deer-st28" d="M345.85,449.5c0,0,12.07,24.29,13.55,49.03c1.47,24.74-1.91,43.73-1.91,43.73h4.27l9.57-45.5
	c0,0-2.94-4.42-2.21-12.37c0.74-7.95,6.63-28.71-7.66-44.47C350.41,426.82,345.85,449.5,345.85,449.5z"/>
<path class="deer-st29" d="M369.78,469.89c0,0-1.77,10.05-1.66,15.13c0.11,5.08,0.77,8.83-2.87,5.63s-0.99-11.71-9.17-25.18
	C347.91,452,369.78,469.89,369.78,469.89z"/>
<path class="deer-st30" d="M405.48,461.13c0,0-8.83,15.31,7.07,30.33c0,0-7.36,31.95-8.39,46.67h-8.83c0,0,8.25-28.71,4.56-40.34
	c-3.68-11.63-16.49-20.47-18.99-44.47C378.39,429.33,406.07,450.53,405.48,461.13z"/>
<path class="deer-st29" d="M382.59,469.01c0,0,13.58,22.31,18.44,23.08s-1.99-20.1,4.64-28.38S382.59,469.01,382.59,469.01z"/>
<g>
	<path class="deer-st28" d="M348.93,354.49c0.07-0.28-10.52-24.97-34.86-12.16c0,0,5.09,13.94,17.92,14.55
		c12.83,0.61,14.75-1.81,14.75-1.81l5.62,5.36L348.93,354.49z"/>
	<path class="deer-st30" d="M345.77,353.73c-0.35-0.35-3.27-8.93-11.14-11.94c-7.87-3.02-18.62,1.55-18.62,1.55s4.53,9.6,13.74,11.52
		S345.77,353.73,345.77,353.73z"/>
	<path class="deer-st31" d="M328.12,350.4c-0.21,0.14,7.74,3.58,16.22,1.08c0,0-4.07-13.25-21.38-10.09c0,0,8.59,5.76,13.17,6.91
		C336.13,348.3,331.77,347.98,328.12,350.4z"/>
	<path d="M334.04,339.87c0,0-8.25-4.02-19.97,2.46c0,0,3.22,9.58,11.93,12.92c0,0-6.71-5.86-8.32-11.35
		C317.68,343.9,322.95,339.63,334.04,339.87z"/>
	<path class="deer-st23" d="M340.78,352.42c0,0-9.16,2.07-15.75-3.06c0,0,4.28-1.34,8.04-1.54c0,0-5.46-2.4-8.4-5.31
		c0,0,8.96,3.42,12.22,6.13l-7.47,1.42C329.42,350.06,335.15,352.91,340.78,352.42z"/>
	<path d="M338.61,344.09c0,0,5.14,2.51,7.16,9.65c0,0-4.24,1.99-8.02,1.91l6.84-2.41C344.6,353.24,342.14,347.24,338.61,344.09z"/>
</g>
<path class="deer-st28" d="M347.91,370.06c-0.25-0.22-8.39-13.8-0.55-29.82c7.84-16.01,35.56-9.72,41.52-2.1s1.1,28.71,1.1,28.71
	S358.51,379.12,347.91,370.06z"/>
<path class="deer-st30" d="M348.02,371.28c0,0-6.63-13.58-0.99-21.98s14.91,20.54,14.91,20.54L348.02,371.28z"/>
<path class="deer-st28" d="M398.71,419.17c0,0,14.28,0.59,22.23,5.01c7.95,4.42,7.8,21.79,5.6,34.45c-2.21,12.66-1.18,25.03,5.01,29.01
	c0,0-3.09,18.11,2.21,51.83h-9.13c0,0,3.24-21.5-1.91-42.99c-5.15-21.5-17.23-31.07-20.02-40.64
	C399.89,446.26,398.71,419.17,398.71,419.17z"/>
<path class="deer-st28" d="M386.05,396.49c0,0-2.65,12.37,10.9,18.26c13.55,5.89,26.65,8.83,26.36,30.18
	c-0.29,21.35-27.68,28.42-49.18,28.27c-25.62-6.92-25.33-31.66-20.61-40.49C358.22,423.88,383.39,392.96,386.05,396.49z"/>
<path class="deer-st30" d="M374.12,473.2c0,0-25.14-2.48-31.42-30.92c-2.03-9.18-1.4-18.81,1.81-27.65
	c9.16-25.27,32.86-39.05,32.86-39.05s17.82,8.98,9.42,32.25c-8.39,23.26-33.13,31.51-25.77,49.33
	C366.76,468.79,374.12,473.2,374.12,473.2z"/>
<path class="deer-st28" d="M362.49,449.68c0,0,12.07,24.29,13.55,49.03s-1.91,43.73-1.91,43.73h4.27l9.57-45.5c0,0-2.94-4.42-2.21-12.37
	c0.74-7.95,6.63-28.71-7.66-44.47C367.05,427.01,362.49,449.68,362.49,449.68z"/>
<path class="deer-st30" d="M382.59,384.09c-0.22,0.25-17.98,15.42-42.18,10.49c0,0-17.89-4.75-13.36-14.36
	c4.53-9.61,28.71-5.52,28.05-27.06c-0.66-21.53,4.03,3.59,8.28,1.29c-0.11-0.33,5.08-9.02,11.37-7.91
	c6.29,1.1,8.28,16.79,8.28,16.79l8.61-7.84C391.64,355.49,392.19,373.49,382.59,384.09z"/>
<g>
	<path class="deer-st28" d="M387.22,356.04c-0.11-0.33,12.37-30.37,46.05-16.67c0,0-5.85,16.9-23.08,18.44
		c-17.23,1.55-19.99-1.21-19.99-1.21l-7.18,6.74L387.22,356.04z"/>
	<path class="deer-st30" d="M391.42,354.93c0.44-0.44,3.75-10.82,14.13-14.91c10.38-4.09,25.18,0.66,25.18,0.66s-5.41,11.71-17.67,14.58
		C400.81,358.14,391.42,354.93,391.42,354.93z"/>
	<path class="deer-st31" d="M414.94,349.85c0.29,0.15-10.16,4.75-21.75,2.32c0,0,4.53-16.01,28.05-13.36c0,0-11.15,7.4-17.23,9.06
		C404.01,347.87,409.86,347.2,414.94,349.85z"/>
	<path d="M406.22,337.71c0,0,10.82-5.3,27.06,1.66c0,0-3.64,11.6-15.13,16.12c0,0,8.61-7.4,10.38-14.02
		C428.52,341.46,421.12,336.71,406.22,337.71z"/>
	<path class="deer-st23" d="M398.05,353.06c0,0,12.48,1.88,20.98-4.64c0,0-5.85-1.33-10.93-1.33c0,0,7.18-3.2,10.93-6.85
		c0,0-11.82,4.64-16.01,8.06l10.16,1.21C413.17,349.52,405.66,353.28,398.05,353.06z"/>
	<path d="M400.36,343.01c0,0-6.74,3.31-8.94,11.93c0,0,5.85,2.1,10.93,1.77l-9.39-2.43C392.97,354.27,395.84,346.98,400.36,343.01z"
		/>
</g>
<path class="deer-st148" d="M363.87,363.74c0,0,0.43-9.69,5.86-10.61c5.43-0.92,8.25,7.69,8.25,7.69s-1.17,8.36-7.14,8.61
	C366.69,369.67,363.87,363.74,363.87,363.74z"/>
<path d="M364.58,363.53c0,0,0.65-6.98,4.79-8.07c4.14-1.09,7.82,5.38,7.82,5.38s-1.45,5.28-5.48,6.36S364.58,363.53,364.58,363.53z"
	/>
<path class="deer-st148" d="M349.92,367c-0.11-0.25-2.77-1.67-2.88-5.93c-0.11-4.26,1.07-6.85,2.98-7.27c1.92-0.42,6.18,3.93,6.6,7.44
	C357.06,364.74,349.92,367,349.92,367z"/>
<g>
	<path d="M356.56,363.42c0,0-1.3-6.64-4.8-7.37c-5.18-0.28-4.54,5.88-4.54,5.88s0.52,4.82,3.93,5.55
		C353.86,367.17,356.56,363.42,356.56,363.42z"/>
	<ellipse transform="matrix(0.9908 -0.1352 0.1352 0.9908 -45.6754 50.8138)" cx="351.39" cy="361.79" rx="3.73" ry="5.44"/>
	
		<ellipse transform="matrix(0.1533 -0.9882 0.9882 0.1533 -59.1257 651.3759)" class="deer-st149" cx="350.55" cy="360.19" rx="3.16" ry="2.16"/>
	
		<ellipse transform="matrix(0.0823 -0.9966 0.9966 0.0823 -37.1985 679.0869)" class="deer-st150" cx="350.14" cy="359.74" rx="1.47" ry="1.2"/>
	
		<ellipse transform="matrix(0.0397 -0.9992 0.9992 0.0397 -23.2312 695.3106)" class="deer-st23" cx="350.14" cy="359.74" rx="0.82" ry="0.9"/>
</g>
<path class="deer-st25" d="M356.19,358.91c-0.03-0.45,0.44-5.19,0.44-5.19c-1.32,0.27,6.03-4.52,6.74,0.74
	c-0.83,14.56-15.41,10.25-14.02,26.21c4.86,2.76,6.29,13.03-9.83,13.69c-10.1-3.48-11.55-9.09-11.07-13.08
	c0.32-2.66,2.08-4.94,4.49-6.11l18.52-8.97c1.99-0.97,3.14-2.95,3.45-5.14C355.07,359.98,356.17,360.01,356.19,358.91z"/>
<path class="deer-st25" d="M347.25,377.46c0,0,6.07,5.19-0.11,9.61s-6.74,7.51-6.74,7.51s-8.94-1.44-10.71-7.29
	C327.92,381.44,343.16,375.58,347.25,377.46z"/>
<path class="deer-st151" d="M326.38,385.08c0,0,1.88,4.86,7.95,7.18c6.07,2.32,8.72-5.74,8.72-5.74s5.85-2.65,2.87-7.07
	c-2.98-4.42-16.01-2.43-16.01-2.43S324.5,378.34,326.38,385.08z"/>
<path class="deer-st151" d="M356.41,352.61c0.97-0.35,6.08-3.1,6.85-0.33c0.15,0.55,0.12,1.53-0.1,2.7c-0.69,3.64-2.87,6.83-5.88,9
	c-7,5.06-12.64,10.16-10.81,16.9c-3.64,1.66-17.45-3.53-17.45-3.53s10.2-5.03,20.25-10.11
	C358.73,361.01,354.87,353.17,356.41,352.61z"/>
<path d="M342.17,386.18c0,0,3.64-1.66,3.31-4.86c-0.33-3.2-3.75-5.52-9.17-5.41c-5.41,0.11-9.83,2.32-10.16,4.2
	c-0.33,1.88-0.77,9.39,7.84,11.6C339.63,393.58,342.17,386.18,342.17,386.18z"/>
<path class="deer-st26" d="M327.59,379.78c0,0-1.1,1.88,2.43,1.99c3.53,0.11,12.92,0.55,13.14-2.54
	C343.38,376.14,331.12,376.25,327.59,379.78z"/>
<path class="deer-st152" d="M327.92,379.01c0,0-2.32,1.1,0.22,6.52c0,0-0.88-3.09,1.21-2.87c2.1,0.22,12.15,1.99,13.8-2.65
	c0,0-13.03,2.65-14.47,0.88C327.26,379.12,327.92,379.01,327.92,379.01z"/>
<path class="deer-st23" d="M341.73,380.11c0,0-3.75-1.1-6.85,1.1C334.88,381.22,339.19,382.32,341.73,380.11z"/>
<path class="deer-st25" d="M369.55,386.52c0,0-11.37,4.31-10.16-2.21s12.7-12.26,15.79-7.95C378.28,380.66,374.85,385.3,369.55,386.52z"
	/>
<path d="M336.09,389.61c0.77,7.07,15.02,2.54,23.08-1.33c8.06-3.87,5.85-6.29,8.17-5.96c2.32,0.33,2.65,1.21-2.1,4.31
	c-4.75,3.09-17.89,8.39-23.3,7.84s-7.62-4.09-7.62-4.09L336.09,389.61z"/>
<ellipse cx="370.5" cy="361.36" rx="4.55" ry="5.64"/>
<ellipse transform="matrix(0.4415 -0.8973 0.8973 0.4415 -116.1943 532.5742)" class="deer-st149" cx="369.7" cy="359.62" rx="3.37" ry="2.57"/>
<ellipse transform="matrix(0.6195 -0.785 0.785 0.6195 -141.3946 426.5585)" class="deer-st150" cx="369.28" cy="359.12" rx="1.57" ry="1.42"/>
<path class="deer-st149" d="M368.51,365.03c0,0,1.12,1.55,3.04,0.88c1.92-0.67,2.13-4.43,2.13-4.43S372.77,366.37,368.51,365.03z"/>
<ellipse class="deer-st23" cx="369.28" cy="359.12" rx="1.09" ry="0.86"/>
<path class="deer-st153" d="M360.72,383.31c0,0,2.54-3.42,6.52-3.42s5.63,4.64,6.63,1.88s-2.1-6.29-7.07-4.97
	C361.82,378.12,360.72,383.31,360.72,383.31z"/>
<path class="deer-st154" d="M340.62,394.14c0,0,4.2,2.32,14.8,1.33l-4.09,5.41c0,0,5.41,9.61,29.93-15.35
	C381.26,385.52,360.28,398.33,340.62,394.14z"/>
<path class="deer-st155" d="M340.4,394.58c0,0,9.28,2.21,17.89,0.66c8.61-1.55,17.34-6.63,17.34-6.63S360.17,396.57,340.4,394.58z"/>
<path class="deer-st30" d="M383.47,450.01c0,0,4.75,10.05,3.98,22.31c0,0,21.64-2.1,30.81-11.48s2.98-28.49-0.88-32.69
	c0,0,8.83,20.1-3.64,27.28C401.25,462.6,383.47,450.01,383.47,450.01z"/>
<path class="deer-st30" d="M425.21,535.15c0,0,3.98-21.42,0.11-41.74c-3.87-20.32-13.91-29.04-19.66-29.71c0,0,13.2,13.69,17.78,35.45
	C427.31,521.57,425.21,535.15,425.21,535.15z"/>
<path class="deer-st29" d="M362.27,458.96c0,0-6.4-9.72,2.1-19.44c8.5-9.72,35.28-35.52,20.1-57.53c0,0,8.06,19.21-6.63,34.23
	c-14.69,15.02-16.9,16.9-16.9,16.9s1.77,0.66,1.44,0.77c-0.33,0.11-4.64,4.09-4.64,4.09l1.77,0.66l-3.2,4.09l1.88,0.33l-2.1,3.31
	l1.77,0.44l-1.44,3.87c0,0,1.55-0.11,1.44,0.22c-0.11,0.33-0.33,3.53-0.33,3.53l1.1-0.66l0.22,3.53l0.66-0.44L362.27,458.96z"/>
<path class="deer-st29" d="M368.78,391.26c0,0,13.8-2.98,19.44-12.15s2.32-22.97,2.32-22.97l-4.53,3.98c0,0,5.3,3.87-0.55,15.79
	S368.78,391.26,368.78,391.26z"/>
<path class="deer-st156" d="M378.5,487.23c0,0-6.52-26.06-12.15-33.68s6.18-18.66,6.18-18.66s7.95-14.02,24.96-11.6
	s21.64,12.37,19.1,21.75s-25.4,8.83-38.65-1.33C377.95,443.72,393.85,472.76,378.5,487.23z"/>
<path class="deer-st25" d="M387.63,443.89c0,0-6.71,2.32-8.36-2.68C377.61,436.22,386.09,437.03,387.63,443.89z"/>
<path class="deer-st25" d="M405.86,452.36c0,0-5.93,3.9-8.77-0.53S402.68,446.09,405.86,452.36z"/>
<path class="deer-st25" d="M401.84,439.95c0,0-6.71,2.32-8.36-2.68C391.82,432.28,400.31,433.09,401.84,439.95z"/>
<path class="deer-st25" d="M391.13,429.13c0,0-6.71,2.32-8.36-2.68C381.11,421.46,389.59,422.27,391.13,429.13z"/>
<path class="deer-st25" d="M415.79,442.04c0,0-6.71,2.32-8.36-2.68C405.78,434.37,414.26,435.18,415.79,442.04z"/>
<path class="deer-st25" d="M406.15,430.13c0,0-6.71,2.32-8.36-2.68C396.13,422.45,404.61,423.27,406.15,430.13z"/>
<path class="deer-st27" d="M382.92,444.27c0,0,1.36,0.67,4.71-0.38c0,0-0.4-2.93-3.16-4.59C384.46,439.3,388,443.28,382.92,444.27z"/>
<path class="deer-st27" d="M386.23,429.36c0,0,1.36,0.67,4.71-0.38c0,0-0.4-2.93-3.16-4.59C387.78,424.39,391.31,428.37,386.23,429.36z"
	/>
<path class="deer-st27" d="M401.03,430.36c0,0,1.36,0.67,4.71-0.38c0,0-0.4-2.93-3.16-4.59C402.57,425.39,406.11,429.36,401.03,430.36z"
	/>
<path class="deer-st27" d="M410.85,442.17c0,0,1.36,0.67,4.71-0.38c0,0-0.4-2.93-3.16-4.59C412.4,437.2,415.93,441.18,410.85,442.17z"/>
<path class="deer-st27" d="M397.05,440.18c0,0,1.36,0.67,4.71-0.38c0,0-0.4-2.93-3.16-4.59C398.6,435.22,402.13,439.19,397.05,440.18z"/>
<path class="deer-st27" d="M401.29,453.79c0,0,1.47,0.35,4.51-1.42c0,0-1.05-2.77-4.11-3.77C401.68,448.6,406.02,451.69,401.29,453.79z"
	/>
<path class="deer-st157" d="M395.32,538.14c0,0,5.6-1.21,8.91-11.82c3.31-10.6,6.29-34.01,6.29-34.01l-4.86-7.07
	c0,0,1.77,11.26-1.21,12.04s-8.17-6.52-8.17-6.52s4.42,5.3,4.42,12.7C400.7,521.57,395.32,538.14,395.32,538.14z"/>
<path class="deer-st157" d="M423,444.66c0,0,2.76,11.76-7.84,19.05s-27.72,8.61-27.72,8.61s0.33-2.98-0.33-8.61c0,0,8.94,4.31,20.32,0.22
	S422.23,454.93,423,444.66z"/>
<path class="deer-st157" d="M371.1,472.87c0,0-24.52-5.52-28.71-31.69s9.39-40.31,9.39-40.31s4.64,6.18,20.21-6.63
	c0,0,3.53,7.18-7.73,18.99s-23.85,45.06,3.98,54.22L371.1,472.87z"/>
<path class="deer-st157" d="M365.91,467.13l-3.09-4.42c0,0-1.66,1.44-1.66,1.1c0-0.33-0.33-3.31-0.33-3.31l-1.99,1.33l-0.66-3.87
	c0,0-2.65,1.21-2.54,0.88c0.11-0.33,0.33-4.42,0.33-4.42l-2.76,0.33l0.88-4.53l-3.31,0.33l2.43,8.06l10.38,8.83L365.91,467.13z"/>
<path class="deer-st157" d="M361.75,542.26l-3.24-0.15c0,0,9.72-37.1,2.87-63.39c0,0,4.42,12.81,6.4,4.53c1.99-8.28,1.44-10.6,1.44-10.6
	l1.44,0.44c0,0-4.09,17.78,0.66,23.67C371.32,496.76,364.03,527.98,361.75,542.26z"/>
<path class="deer-st26" d="M357.48,542.26c0,0,2.35-0.15,4.27,0c0.29-0.7,0.07-10.09-2.58-12.29
	C358.18,536.92,357.48,542.26,357.48,542.26z"/>
<path class="deer-st26" d="M374.16,542.26c0,0,2.35-0.15,4.27,0c0.29-0.7,0.07-10.09-2.58-12.29
	C374.85,536.92,374.16,542.26,374.16,542.26z"/>
<path class="deer-st26" d="M395.32,538.14c0.4,0,8.83,0,8.83,0s-4.34-9.61-6.11-8.61C396.28,530.52,395.32,538.14,395.32,538.14z"/>
<path class="deer-st26" d="M424.7,539.57c0.4,0,8.83,0,8.83,0s-4.34-9.61-6.11-8.61C425.65,531.95,424.7,539.57,424.7,539.57z"/>
<polygon class="deer-st152" points="375.85,537.03 374.16,542.26 376.4,542.2 "/>
<polygon class="deer-st152" points="359.62,537.36 357.92,542.59 360.17,542.53 "/>
<path class="deer-st152" d="M396.61,537.97c0,0,0.08-4.14,1.24-4.31c1.57,0.08,1.74,4.47,1.74,4.47L396.61,537.97z"/>
<path class="deer-st152" d="M425.87,539.52c0,0,0.08-4.14,1.24-4.31c1.57,0.08,1.74,4.47,1.74,4.47L425.87,539.52z"/>
<path class="deer-st158" d="M374.63,427.93c0-0.44,9.94-8.17,17.34-9.17s27.94,6.07,27.94,6.07s8.83,4.86,7.62,24.85
	c0,0,3.64-21.87-9.17-27.28c-12.81-5.41-26.39-6.63-30.92-16.45C387.44,405.95,383.58,417.88,374.63,427.93z"/>
<path class="deer-st158" d="M354.83,333.69c0,0-9.09,7.21,1.4,21.57c0,0,3.02,2.8,7.14-0.81c1.21-2.54-0.26-16.01,17.96-14.58
	c18.22,1.44-1.29-6.26-1.29-6.59S365.76,328.28,354.83,333.69z"/>
<path class="deer-st159" d="M382.2,417.33c0,0-8.61,14.36-28.76,16.73s-8.16-18.5-8.16-18.5S382.14,408.27,382.2,417.33z"/>
<path class="deer-st160" d="M307.44,293.07c0.1-0.92-1.21-1.22-1.51-0.34c-2.26,6.61-4.29,18.46,2.44,32.35
	c9.55,18.9,38.62,16.82,42.43,16.46c0.3-0.03,0.58-0.12,0.84-0.26c1.38-0.74,5.58-3.37,4.3-7.46c-0.18-0.57-0.6-1.04-1.14-1.32
	c-2.58-1.33-10.98-5.97-12.35-10.81c-1.62-5.74,4.27-11.04,4.27-11.04s20.39-14.13,19.44-24.74c-0.88-9.76-8.31-23.38-23.95-32.78
	c-0.76-0.46-1.59,0.51-1,1.18c4.52,5.15,12.33,15.07,13.99,23.65c2.36,12.22-4.27,23.26-9.87,23.19
	c-5.41-0.07,0.6-24.55-10.69-45.73c-0.37-0.69-1.42-0.48-1.48,0.3c-0.41,5.24-0.97,18.25,1.56,34.39
	c3.31,21.13,0.59,22.45-5.37,15.02c-5.5-6.85-5.43-24.78-4.86-38.67c0.03-0.85-1.12-1.14-1.48-0.37c-2.88,6.01-8.12,20.13-3.3,35.88
	c5.62,18.35,17.08,19.97,18.81,29.4c0.41,2.22-1.78,4.05-3.92,3.35C316.92,328.99,305.33,313.21,307.44,293.07z"/>
<path class="deer-st25" d="M381.2,355.37c0,0-3.64-9.22-8.06-7.79c-4.42,1.44-9.55,9.61-14.8,8.89c-5.25-0.72-4.64-8.17-9.33-8.12
	c-3.31,0.11-4.31,8.23-4.31,8.23s-0.17-9.66,4.58-9.77c4.75-0.11,5.36,7.95,9.44,7.45c4.09-0.5,7.9-7.23,13.64-8.45
	C378.11,344.61,380.6,351.62,381.2,355.37z"/>
<path class="deer-st158" d="M386.63,356.59l5.08-8.17c0,0,0.29-6.26-2.21-9.5c-2.5-3.24-7.58-0.66-7.58-0.66S392.01,342.16,386.63,356.59
	z"/>
<path class="deer-st160" d="M411.81,323.31c0,0-11.26,5.89-17.37,14.94c-6.11,9.06-12.96,6.18-12.96,6.18s-6.63-1.18-10.53-6.4
	c-13.1-18.09-8.21-35.21-4.7-43.01c0.45-1,1.96-0.62,1.88,0.48c-0.63,9.44-0.67,29.84,9.97,36.03c1.99,1.16,4.35,1.62,6.62,1.26
	c3.99-0.64,7.83-3.09,10.57-6.22c6.63-7.6,9.42-17.81,8.03-27.8c-1.26-9.01-4.55-21.15-12.89-31.17c-0.66-0.8,0.16-1.96,1.12-1.56
	c12.04,4.99,20.35,25.9,19.57,43.48c-0.07,1.66,2.13,2.3,2.93,0.84c3.42-6.24,7.38-17.25,2.69-30.03
	c-4.9-13.35-10.09-21.39-12.97-25.23c-0.62-0.83,0.29-1.93,1.22-1.48c4.21,2.05,11.47,7.28,17.43,20.23
	c5,10.86,4.82,21.43,3.68,28.66c-1.16,7.36-5.13,14.04-11.07,18.55C414.06,321.78,412.99,322.54,411.81,323.31z"/>
<path class="deer-st161" d="M425.25,262.34c-0.32-0.65,0.54-1.23,1.02-0.69c5.65,6.33,16.37,21.24,11.68,39.14
	c-6.26,23.85-34.6,23.85-41.01,32.39c-6.4,8.54-0.88-4.71,10.53-12.07s22.75-10.45,24.88-25.55
	C433.8,282.17,428.43,268.78,425.25,262.34z"/>
<path class="deer-st162" d="M346.88,399.58c0,0-7.51,8.98-2.72,10.97s23.78-1.4,34.38-10.09c10.6-8.69,6.55-17.67,6.55-17.67
	s1.79-0.6,3.18,3.28c1.49,4.14,3.13,12.35-0.55,21.92c-3.68,9.57-15.06,19.49-30.26,20.6c-15.2,1.1-18.81-8.12-18.17-12.87
	C339.96,410.81,340.47,405.4,346.88,399.58z"/>
<path class="deer-st163" d="M341.39,409.6c0,0-2.98,6.46,14.74,3.81c17.72-2.65,24.24-11.93,24.24-11.93s4.2,8.34-2.82,16.73
	c-6.4,7.62-29.32,11.6-34.84,4.25c-0.71-0.94-1.25-1.85-1.67-2.72C339.35,416.55,341.39,409.6,341.39,409.6z"/>
<path class="deer-st164" d="M381.54,399.99c0,0-5.69,7.67-23.8,11.6c0,0-18.66,4.09-16.23-4.2c0,0-5.39,8.79,11.54,6.63
	C371.65,411.64,381.37,403.03,381.54,399.99z"/>
<path class="deer-st164" d="M342.22,421.91c0.17,0.11,0.77,5.3,15.4,4.69s20.28-8.76,20.28-8.76s-8.63,6.99-20.61,7.44
	S342.22,421.91,342.22,421.91z"/>
<path class="deer-st24" d="M385.09,382.8c0,0,3.79-0.75,4.45,4.88c0.66,5.63,3.37,7.56-2.54,22.03c0,0,4.64-13.75,0.88-17.28
	c0,0-1.38,4.36-4.2,6.85C383.69,399.27,390.59,386.46,385.09,382.8z"/>
<path class="deer-st24" d="M342.89,406.17c0,0-1.79,3.04,0.41,4.44s6.68,0.88,6.68,0.88s12.73-0.03,25.62-8.09
	c12.89-8.06,10.13-17.81,10.13-17.81s1.66,8.01-11.24,17.45c-16.12,9.66-29.46,7.37-29.46,7.37S341.95,409.57,342.89,406.17z"/>
<path class="deer-st24" d="M339.22,416.63c0,0,0.15,9.68,12.18,11.67s24.55-6.18,24.55-6.18s12-9.35,13.99-21.5
	c0,0-0.37,12.15-13.73,22.34s-28.31,5.74-28.31,5.74S338.67,426.57,339.22,416.63z"/>
<path class="deer-st159" d="M350.06,459.12c0,0,6.24,9,21.04,13.75l-0.77,2.15C370.33,475.03,359.56,472.93,350.06,459.12z"/>
<path class="deer-st159" d="M387.44,472.32c0,0,10.71-1.21,15.74-2.98c0,0-6.9,5.13-16.18,6.74L387.44,472.32z"/>
<path class="deer-st161" d="M387.53,342.42c1.56-0.51,2.88-1.56,3.89-2.85c2.27-2.88,7.82-9.58,12-11.7c5.37-2.72,15.9-7.8,19.29-18.26
	c3.39-10.45,5.74-24.07-4.27-41.45c0,0-4.71-7.8-10.67-11.85c0,0,23.78,24.96,10.97,53.52c0,0-1.91,3.9-6.33,4.42
	c-4.42,0.52-1.99-5.45-3.17-15.68s-5.82-21.94-11.34-27.09c0,0,12.88,17.82,8.39,41.45c-2.58,13.55-10.9,18.55-10.9,18.55
	s-8.54,7.36-17.23,1.77c-7.88-5.52-9.79-12.66-11.26-28.79c0,0-4.71,15.98,7.14,31.66C379.16,342.02,383.59,343.72,387.53,342.42z"
	/>
<path class="deer-st160" d="M425.25,262.34c0,0,15.35,29.76,1.58,45.74c0,0,7.66-1.55,9.06-12.74S431.32,268.94,425.25,262.34z"/>
<path class="deer-st161" d="M324.5,266.46c0,0-2.13,25.64,3.76,37.05c5.89,11.41,9.94,6.11,9.94,6.11s3.98-6.18,2.28-20.25
	c-1.69-14.06-5.33-34.18-7.3-33.66c0,0,0.51-1.12,1.48-0.3c0.97,0.82,7.59,15.77,7.67,34.17c0,0,0.29,12.88,3.09,13.18
	c2.8,0.29,3.83,0.44,10.82-6.4s4.27-29.52-13.77-41.96c0,0,12.15,4.64,20.02,24.07c7.88,19.44-10.97,24.29-17.01,31.14
	c-6.04,6.85-5.74,11.48-2.87,14.94c2.87,3.46,12.52,8.17,12.52,8.17s3.17,2.43-1.1,6.92c0,0-17.15,3.39-33.42-8.47
	c-16.27-11.85-13.47-36.15-13.47-36.15s-1.62,28.86,25.4,39.02c27.02,10.16,3.68-12.37,3.68-12.37s-13.03-14.06-13.99-27.61
	S324.5,266.46,324.5,266.46z"/>
<path class="deer-st165" d="M323.54,276.71c0,0-2.5,20.61,3.39,30.4c5.89,9.79,18.92,22.82,18.92,22.82s13.18,9.79-2.72,8.25
	c0.84,1.14,11.05,0.68,10.9,1.47c0,0,4.56-3.39,1.1-6.92c0,0-9.06-2.06-14.13-9.87c-5.08-7.8,8.39-17.23,8.39-17.23
	s-4.86,0.37-5.82-4.34c-0.96-4.71-1.1-24.07-4.12-32.91c0,0,2.5,13.69,2.21,34.16c-0.13,8.99-4.79,11.26-8.54,8.1
	C324.2,303.07,323.05,289.92,323.54,276.71z"/>
<path class="deer-st165" d="M354.39,302.33c0,0,8.69-5.6,9.28-13.99s-4.42-19.95-13.18-27.61c0,0,13.33,16.71,11.12,28.42
	C360.13,297.91,354.39,302.33,354.39,302.33z"/>
<path class="deer-st165" d="M309.7,315.51c0,0,2.5,15.02,27.24,22.9c0,0,7.58,1.69,15.02,0.96c0,0,1.99-0.96,2.06,0.29
	c0,0-2.5,1.55-4.71,2.06c0,0,3.75,0.66,6.18-2.28c2.43-2.94-0.05-6.47-0.37-6.7c0,0,0.22,4.64-3.9,5.52
	C347.1,339.14,318.76,337.52,309.7,315.51z"/>
<path class="deer-st165" d="M367.05,313.89c0,0,0.22,16.64,13.25,24.88c13.03,8.25,9.35-1.62,20.02-8.17
	c10.67-6.55,23.93-9.06,31.29-18.26c7.05-8.82,8.84-26.63,0.49-40.28c-0.13-0.22-0.47-0.06-0.39,0.18
	c2.08,5.66,7.18,22.57-0.41,35.37c-0.04,0.06-0.08,0.13-0.13,0.18c-4.94,5.76-7.82,6.39-9.25,6.1c-0.65-0.13-1.01-0.83-0.74-1.43
	c2-4.53,10.34-26.76-6.87-49.23c0,0,18.22,27.11,3.43,50.5c-0.03,0.05-0.06,0.09-0.1,0.14c-0.55,0.61-4.97,5.31-7.45,2.07
	c-2.65-3.46,0.74-15.46-3.9-27.75c0,0,6.11,24.81-5.37,39.24c-3.43,3.77-10.53,11.34-20.55,8.27
	C375.03,333.2,368.92,327.12,367.05,313.89z"/>
<path class="deer-st166" d="M305.8,297.4c-0.07,0.22,0.07,22.23,9.94,31.21c9.87,8.98,20.61,12,31.14,12.07c0,0-13.7,1.89-26.75-5.4
	c-5.27-2.95-9.45-7.43-11.97-12.92C301.98,308.86,305.8,297.4,305.8,297.4z"/>
<path class="deer-st166" d="M323.62,266.7c0,0-5.6,22.75,0.15,36.96c5.74,14.21,17.37,22.31,20.02,28.79c0,0-8.1-8.83-11.26-11.63
	c-3.17-2.8-11.26-11.85-13.03-23.78C316.62,279.36,323.62,266.7,323.62,266.7z"/>
<path class="deer-st166" d="M334.88,309.99c0,0,3.31,0.96,2.06-9.5c-1.25-10.45-4.12-32.61-3.09-42.18c0,0,5.67,23.93,5.52,37.25
	C339.22,308.88,338.41,309.84,334.88,309.99z"/>
<path class="deer-st166" d="M347.03,302.04c0,0,8.91-2.43,9.87-15.9c0.96-13.47-12.22-29.3-12.22-29.3s15.46,10.75,15.68,30.11
	C359.47,301.67,347.03,302.04,347.03,302.04z"/>
<path class="deer-st166" d="M367.27,295.49c0,0-3.39,19.21,4.42,36.37c7.8,17.15,18.77,9.06,18.77,9.06s-4.71,6.04-14.58,0.37
	C366.02,335.61,358.73,309.25,367.27,295.49z"/>
<path class="deer-st166" d="M391.57,267.51c-0.21-0.07,14.58,17.52,12.59,40.64c-1.99,23.12-19.21,25.25-19.21,25.25
	s19.58,0.81,22.09-25.47C409.53,281.64,394.81,268.61,391.57,267.51z"/>
<path class="deer-st166" d="M410.41,310.5c0,0-0.37,5.01,3.68,3.53c4.05-1.47,15.24-18.48,3.09-42.48c0,0,7.44,16.56,0.07,35.34
	C412.7,317.5,410.41,310.5,410.41,310.5z"/>
<path class="deer-st166" d="M430.66,304.32c0,0,12.07-13.99-2.28-36.74C428.38,267.58,438.09,289.01,430.66,304.32z"/>
<path class="deer-st23" d="M320.67,284.15c0,0-0.37,12.29,2.21,17.82C322.88,301.96,316.62,294.01,320.67,284.15z"/>
<path class="deer-st23" d="M335.62,274.36c0,0,4.27,7.36,1.77,16.05C337.38,290.41,333.48,284,335.62,274.36z"/>
<path class="deer-st23" d="M354.46,296.3c0,0,4.56-2.58,5.23-7.21c0.66-4.64-2.58-9.2-2.58-9.2S360.35,288.57,354.46,296.3z"/>
<path class="deer-st23" d="M305.87,308.07c0.03-0.22,1.84,9.94,5.01,15.02C310.88,323.09,304.4,318.16,305.87,308.07z"/>
<path class="deer-st23" d="M338.93,333.91c0,0,2.58-3.24-2.36-9.2C336.57,324.71,344.08,330.82,338.93,333.91z"/>
<path class="deer-st23" d="M365.73,300.64c0,0-0.59,7.8,0.44,13.77C366.17,314.41,362.41,308.22,365.73,300.64z"/>
<path class="deer-st23" d="M397.82,276.34c0,0,4.27,7.8,5.3,14.13C403.12,290.48,404.16,280.61,397.82,276.34z"/>
<path class="deer-st23" d="M420.87,290.63c0,0,0,6.77-1.84,12.44C419.03,303.07,424.62,297.55,420.87,290.63z"/>
<path class="deer-st23" d="M432.57,280.32c0,0,1.25,5.52,1.33,10.82C433.9,291.14,436.11,284.07,432.57,280.32z"/>
<path class="deer-st23" d="M367.57,331.19c0,0,5.01,11.12,13.33,12.37C380.89,343.56,373.01,340.47,367.57,331.19z"/>
<g>
	<ellipse class="deer-st13" cx="356.83" cy="419.83" rx="4.7" ry="4.68"/>
	<g>
		<g>
			<circle class="deer-st20" cx="357.53" cy="419.52" r="3.84"/>
			<path class="deer-st167" d="M357.53,423.86c-2.39,0-4.34-1.95-4.34-4.34s1.95-4.34,4.34-4.34s4.34,1.95,4.34,4.34
				S359.92,423.86,357.53,423.86z M357.53,416.18c-1.84,0-3.34,1.5-3.34,3.34s1.5,3.34,3.34,3.34s3.34-1.5,3.34-3.34
				S359.37,416.18,357.53,416.18z"/>
		</g>
		<path class="deer-st21" d="M354.26,419.22c0,0-0.27,2.14,1.97,3.15c2.19,0.74,3.7-0.9,3.97-1.62
			C360.99,418.69,355.3,417.04,354.26,419.22z"/>
		<path class="deer-st22" d="M355.14,417.57c0,0,0.96-1.34,2.85-1.07c1.97,0.22,2.49,2.22,2.49,2.22s0.6,2.25-1.4,3.37
			c0,0,1.48-1.4,0.77-3.43C359.19,416.76,356.98,416.53,355.14,417.57z"/>
	</g>
	<circle class="deer-st20" cx="357.63" cy="419.33" r="2.33"/>
	<circle class="deer-st22" cx="357.94" cy="418.74" r="1.86"/>
	<circle class="deer-st23" cx="358.27" cy="418.36" r="0.78"/>
</g>
<g>
	<ellipse class="deer-st13" cx="371.99" cy="414.16" rx="4.7" ry="4.68"/>
	<g>
		<g>
			<circle class="deer-st20" cx="372.69" cy="413.85" r="3.84"/>
			<path class="deer-st167" d="M372.69,418.19c-2.39,0-4.34-1.95-4.34-4.34s1.95-4.34,4.34-4.34s4.34,1.95,4.34,4.34
				S375.08,418.19,372.69,418.19z M372.69,410.51c-1.84,0-3.34,1.5-3.34,3.34c0,1.84,1.5,3.34,3.34,3.34c1.84,0,3.34-1.5,3.34-3.34
				C376.03,412.01,374.53,410.51,372.69,410.51z"/>
		</g>
		<path class="deer-st21" d="M369.43,413.55c0,0-0.27,2.14,1.97,3.15c2.19,0.74,3.7-0.9,3.97-1.62
			C376.16,413.03,370.46,411.37,369.43,413.55z"/>
		<path class="deer-st22" d="M370.31,411.9c0,0,0.96-1.34,2.85-1.07c1.97,0.22,2.49,2.22,2.49,2.22s0.6,2.25-1.4,3.37
			c0,0,1.48-1.4,0.77-3.43C374.35,411.09,372.14,410.86,370.31,411.9z"/>
	</g>
	<circle class="deer-st20" cx="372.8" cy="413.67" r="2.33"/>
	<circle class="deer-st22" cx="373.11" cy="413.07" r="1.86"/>
	<circle class="deer-st23" cx="373.44" cy="412.7" r="0.78"/>
</g>
<g>
	<ellipse class="deer-st13" cx="383.74" cy="404.82" rx="4.14" ry="4.12"/>
	<g>
		<g>
			<circle class="deer-st20" cx="384.35" cy="404.54" r="3.37"/>
			<path class="deer-st167" d="M384.35,408.42c-2.14,0-3.87-1.74-3.87-3.87s1.74-3.87,3.87-3.87s3.87,1.74,3.87,3.87
				S386.49,408.42,384.35,408.42z M384.35,401.67c-1.58,0-2.87,1.29-2.87,2.87s1.29,2.87,2.87,2.87s2.87-1.29,2.87-2.87
				S385.94,401.67,384.35,401.67z"/>
		</g>
		<path class="deer-st21" d="M381.48,404.28c0,0-0.24,1.88,1.74,2.77c1.93,0.65,3.25-0.8,3.49-1.42
			C387.4,403.82,382.39,402.37,381.48,404.28z"/>
		<path class="deer-st22" d="M382.26,402.83c0,0,0.84-1.18,2.51-0.94c1.74,0.19,2.19,1.95,2.19,1.95s0.53,1.98-1.23,2.96
			c0,0,1.3-1.23,0.67-3.01C385.81,402.12,383.87,401.92,382.26,402.83z"/>
	</g>
	<circle class="deer-st20" cx="384.44" cy="404.38" r="2.05"/>
	<circle class="deer-st22" cx="384.72" cy="403.85" r="1.63"/>
	<circle class="deer-st23" cx="385.01" cy="403.53" r="0.69"/>
</g>
<path class="deer-st13" d="M343.71,425.44c0.28-0.11,5.47,1.1,6.29-5.3s-6.13-7.12-7.79-6.57C340.57,414.12,343.71,425.44,343.71,425.44z
	"/>
<path class="deer-st167" d="M343.66,425.28c0,0,3.92,0.17,4.75-4.97s-3.53-7.01-4.91-6.96C343.49,413.35,341.51,423.01,343.66,425.28z"/>
<g>
	
		<ellipse transform="matrix(0.1498 -0.9887 0.9887 0.1498 -123.9916 694.6554)" class="deer-st20" cx="341.92" cy="419.42" rx="6.18" ry="5.44"/>
	<path class="deer-st21" d="M337.92,419.7c0,0,0.11,4.64,4.58,4.25c4.47-0.39,5.74-8.45,0.17-9.39c0,0,2.98,2.71,0.61,5.41
		C340.9,422.68,337.92,419.7,337.92,419.7z"/>
	<ellipse class="deer-st20" cx="341.48" cy="418.41" rx="3.67" ry="4.12"/>
	<ellipse class="deer-st22" cx="341.17" cy="417.99" rx="3.15" ry="3.53"/>
	<path class="deer-st22" d="M340.29,425.44c0,0-4.29-1.52-3.75-6.83c0.93-4.98,4.69-5.59,6.67-5.2c1.99,0.39,3.15,2.04,3.31,2.43
		c0,0-2.82-2.98-6.13-1.38c-3.31,1.6-2.87,5.58-2.87,5.58S337.59,423.79,340.29,425.44z"/>
	<circle class="deer-st23" cx="340.68" cy="417.05" r="1.55"/>
	<path d="M341.72,425.97c-0.26,0-0.52-0.02-0.79-0.06c-3.17-0.48-5.31-3.78-4.77-7.36c0.26-1.72,1.1-3.26,2.36-4.32
		c1.27-1.07,2.82-1.53,4.37-1.3c3.17,0.48,5.31,3.78,4.77,7.36l0,0c-0.26,1.72-1.1,3.26-2.36,4.32
		C344.25,425.5,343,425.97,341.72,425.97z M342.12,413.63c-1.1,0-2.18,0.41-3.1,1.18c-1.12,0.94-1.87,2.31-2.1,3.85
		c-0.48,3.17,1.38,6.08,4.14,6.5c1.33,0.2,2.67-0.2,3.78-1.13c1.12-0.94,1.87-2.31,2.1-3.85l0,0c0.48-3.17-1.38-6.08-4.14-6.5
		C342.57,413.65,342.34,413.63,342.12,413.63z"/>
</g>
<path class="deer-st159" d="M349.12,457.85c0,0,6.24-0.28,6.85-3.42c0.61-3.15-1.44-3.64-2.87-4.09c-8.23-2.32-2.69-20.58-2.69-20.58
	s-2.8-1.55-7.66-2.58C337.9,426.16,343.16,451.96,349.12,457.85z"/>
<g>
	
		<ellipse transform="matrix(0.1618 -0.9868 0.9868 0.1618 -169.2798 715.095)" class="deer-st20" cx="336.29" cy="457.19" rx="6.18" ry="5.44"/>
	<path class="deer-st21" d="M332.28,457.42c0,0,0.05,4.64,4.53,4.31s5.84-8.38,0.28-9.38c0,0,2.95,2.74,0.54,5.42
		C335.23,460.44,332.28,457.42,332.28,457.42z"/>
	
		<ellipse transform="matrix(0.0121 -0.9999 0.9999 0.0121 -124.3487 786.4854)" class="deer-st20" cx="335.86" cy="456.17" rx="4.12" ry="3.67"/>
	
		<ellipse transform="matrix(0.0121 -0.9999 0.9999 0.0121 -124.2157 785.7641)" class="deer-st22" cx="335.56" cy="455.75" rx="3.53" ry="3.15"/>
	<path class="deer-st22" d="M334.59,463.19c0,0-4.28-1.57-3.67-6.88c0.99-4.97,4.75-5.53,6.74-5.12c1.98,0.41,3.12,2.08,3.28,2.47
		c0,0-2.78-3.02-6.11-1.45c-3.33,1.56-2.94,5.54-2.94,5.54S331.9,461.5,334.59,463.19z"/>
	<circle class="deer-st23" cx="335.07" cy="454.8" r="1.55"/>
	<path d="M336.08,463.73c-0.28,0-0.57-0.02-0.85-0.07c-3.16-0.52-5.26-3.84-4.68-7.41c0.28-1.72,1.14-3.24,2.41-4.29
		c1.29-1.06,2.85-1.5,4.39-1.25c3.16,0.52,5.26,3.84,4.68,7.41c-0.28,1.72-1.14,3.24-2.41,4.29
		C338.56,463.28,337.33,463.73,336.08,463.73z M336.5,451.4c-1.08,0-2.15,0.39-3.07,1.15c-1.13,0.93-1.89,2.29-2.15,3.83
		c-0.52,3.16,1.3,6.1,4.06,6.55c1.33,0.22,2.67-0.17,3.79-1.09c1.13-0.93,1.89-2.29,2.15-3.83l0,0c0.52-3.16-1.3-6.1-4.06-6.55
		C336.99,451.42,336.74,451.4,336.5,451.4z"/>
</g>
<path class="deer-st20" d="M319.81,448.19c0.17,0.06,6.74-0.72,8.06-8.23c1.33-7.51,2.43-18.22,11.82-17.23s7.23,11.76,7.23,11.76
	s-2.6,14.8,5.36,16.62c0,0,2.21,0.11,2.26,2.37c0.06,2.26-2.54,2.37-2.54,2.37c-10.16,1.66-25.23-0.5-32.74-3.09
	c0,0-1.99-0.5-1.77-2.48S319.81,448.19,319.81,448.19z"/>
<path class="deer-st21" d="M337.31,453.27c-0.09,0.14,11.82,0.88,14.3-0.5c0,0-7.79,0.17-6.85-11.15c0.94-11.32,0.44-14.02-1.6-15.52
	c-2.04-1.49-4.25,1.38-4.25,6.4C337.86,444.99,344.49,452.66,337.31,453.27z"/>
<path class="deer-st22" d="M321.13,449.18c0,0,2.48,2.43,11.93,3.64c9.44,1.21,0.77-11.71,2.76-20.54s6.79-7.79,6.79-7.79
	s-6.46-2.82-9.44,2.48c-2.98,5.3-1.71,11.15-4.75,18.17C326.49,449.74,321.13,449.18,321.13,449.18z"/>
<path class="deer-st168" d="M344.32,427.43c0,0,1.6,2.1,0.94,10.27c-0.66,8.17,1.6,14.36,7.18,14.69c0,0-2.21,1.93-6.18,0.22
	c-3.98-1.71-1.88-15.63-1.88-15.63S345.48,430.91,344.32,427.43z"/>
<path class="deer-st168" d="M327.81,451.84c0,0,6.07,2.71,9.33,0.5c3.26-2.21-1.38-9.5-0.99-17.56c0.39-8.06,3.92-10.55,6.74-10.16
	c0,0-4.91-2.21-7.18,4.36c-2.26,6.57,2.71,19.16-0.88,22.14S327.81,451.84,327.81,451.84z"/>
<path class="deer-st23" d="M331.46,439.69c0,0-0.11-12.48,5.36-14.96c0,0-2.04,2.6-2.04,5.36S334.05,439.03,331.46,439.69z"/>
<path class="deer-st22" d="M319.81,449.02c0,0-2.48,2.1,11.15,4.47c0,0-5.52,0.11-10.27-1.44c0,0-2.04-0.39-1.82-2.1
	C319.09,448.58,319.81,449.02,319.81,449.02z"/>
<path class="deer-st22" d="M337.53,453.88c0,0,16.34,1.33,15.29-1.99c0,0,1.82,0.83,0.72,2.04C352.44,455.15,342.06,454.71,337.53,453.88
	z"/>
<path class="deer-st23" d="M319.42,449.68c0,0-0.39,2.54,7.23,2.87C326.65,452.55,322.24,447.64,319.42,449.68z"/>
<path class="deer-st23" d="M344.43,443.88c0,0-1.16,6.63,2.54,8.06C346.97,451.95,344.49,449.24,344.43,443.88z"/>
<path d="M343.93,456.81c-8.73,0-18.76-1.6-24.8-3.68c-0.77-0.19-2.22-1.05-2.02-2.88c0.2-1.82,1.84-2.39,2.67-2.43
	c0.02,0,0.04,0,0.06,0c0.25-0.02,6.39-0.78,7.65-7.92c0.09-0.52,0.18-1.05,0.27-1.6c1.28-7.53,2.88-16.89,11.95-15.94
	c2.64,0.28,4.64,1.33,5.97,3.14c2.65,3.6,1.63,8.85,1.59,9.07c-0.02,0.14-2.44,14.46,5.07,16.18c0.82,0.04,2.5,0.66,2.55,2.73
	c0.05,2.08-1.87,2.71-2.9,2.76C349.59,456.64,346.83,456.81,343.93,456.81z M319.83,448.56L319.83,448.56
	c-0.07,0.01-1.78,0.13-1.97,1.77c-0.18,1.63,1.42,2.06,1.49,2.08c7.99,2.76,22.97,4.65,32.59,3.09c0.13-0.01,2.27-0.13,2.23-2
	c-0.04-1.85-1.72-2-1.91-2.01c-8.27-1.89-5.81-16.44-5.71-17.06c0.01-0.06,0.99-5.16-1.46-8.49c-1.2-1.62-3.03-2.58-5.44-2.83
	c-8.4-0.9-9.91,8.1-11.13,15.32c-0.09,0.55-0.18,1.08-0.28,1.6c-0.72,4.09-2.98,6.21-4.74,7.27
	C321.94,448.22,320.36,448.56,319.83,448.56C319.83,448.56,319.83,448.56,319.83,448.56z"/>
<path class="deer-st159" d="M353.43,397.95c0,0-6.85,8.78-8.06,12.48c0,0,15.46,2.71,32.74-10.05c0,0-11.23,7.42-26.52,8.49
	c-1.7,0.12-2.96-1.57-2.31-3.15C350,403.95,351.26,401.4,353.43,397.95z"/>
<path class="deer-st156" d="M378.83,493.41c0,0,0.88,17.67-0.33,27.17C378.5,520.58,388.33,497.5,378.83,493.41z"/>
<path class="deer-st156" d="M417.26,468.12c0,0,5.3,6.63,7.51,16.67c0,0-2.65-16.23-0.77-25.29C424,459.51,421.79,466.25,417.26,468.12z"
	/>
<path d="M348.63,448.12c0,0-2.04-3.48-1.88-9.44c0.17-5.96,1.66-9.44-1.49-13.69c0,0,3.75-1.38,3.09-7.62c0,0,1.49,5.74-0.88,8.39
	c1.01,0.93,1.53,1.94,1.49,3.04c0,0,11.98,2.6,22.91-3.15c0,0-9,7.73-22.97,6.68C348.9,432.33,346.53,440.99,348.63,448.12z"/>
<path d="M359.12,467.28c0,0,7.84,4.86,11.76,4.47l1.16,4.09l-0.94-1.33C371.1,474.51,365.03,472.63,359.12,467.28z"/>
<path d="M386.12,457.84c0,0,2.32,10.66,0.66,20.15l1.88,2.04C388.66,480.03,390.43,470.15,386.12,457.84z"/>
<path d="M394.51,471.25c0,0,18.22-2.6,25.34-11.98C419.85,459.27,411.85,472.08,394.51,471.25z"/>
<path d="M357.08,542.53c0,0,1.27-1.93,5.25-0.22C362.32,542.31,359.45,544.3,357.08,542.53z"/>
<path d="M373.25,542.53c0,0,1.27-1.93,5.25-0.22C378.5,542.31,375.63,544.3,373.25,542.53z"/>
<path d="M394.35,538.61c0,0,2.51-1.93,10.38-0.22C404.73,538.39,399.04,540.38,394.35,538.61z"/>
<path d="M424.05,539.88c0,0,2.51-1.93,10.38-0.22C434.43,539.66,428.75,541.65,424.05,539.88z"/>
</svg>
