<svg version="1.1" id="ALL" xmlns="http://www.w3.org/2000/svg" xmlns:xlink="http://www.w3.org/1999/xlink" x="0px" y="0px"
	 viewBox="0 0 510.24 595.28" style="enable-background:new 0 0 510.24 595.28;" xml:space="preserve">
<style type="text/css">
	.st0{fill:#5D2D16;}
	.st1{fill:#7A3A2B;}
	.st2{fill:#C5743C;}
	.st3{fill:#C37D46;}
	.st4{fill:#526D32;}
	.st5{fill:#639916;}
	.st6{opacity:0.5;}
	.st7{fill:#83C121;}
	.st8{fill:#BAAB3F;}
	.st9{fill:#A57044;}
	.st10{fill:#B78253;}
	.st11{fill:#7F5038;}
	.st12{fill:#DA211E;}
	.st13{fill:#A80000;}
	.st14{fill:#F42A2A;}
	.st15{fill:#720000;}
	.st16{fill:#E5E7EA;}
	.st17{fill:#CBC8C3;}
	.st18{fill:#B2ACA4;}
	.st19{fill:#B2B6B7;}
	.st20{fill:#E88D0A;}
	.st21{fill:#963600;}
	.st22{fill:#FFD664;}
	.st23{fill:#FFFFFF;}
	.st24{fill:#510E0E;}
	.st25{fill:#D1B8A1;}
	.st26{fill:#3F4042;}
	.st27{fill:#EFEEED;}
	.st28{fill:#965632;}
	.st29{fill:#9E7954;}
	.st30{fill:#C69F6B;}
	.st31{fill:#B7AFA7;}
	.st32{fill:#84330F;}
	.st33{fill:#B3B0A1;}
	.st34{fill:#663E1D;}
	.st35{fill:#AA5B21;}
	.st36{fill:#682A00;}
	.st37{fill:#CC0000;}
	.st38{fill:#880000;}
	.st39{fill:#1BBDEF;}
	.st40{fill:#83FFFF;}
	.st41{fill:#D7FFFE;}
	.st42{fill:#C6541A;}
	.st43{fill:#8C3610;}
	.st44{fill:#D86C00;}
	.st45{fill:#F2790A;}
	.st46{fill:#F2B30A;}
	.st47{fill:#1A2B0E;}
	.st48{fill:#F78F1E;}
	.st49{fill:#FFD683;}
	.st50{fill:#FFBD48;}
	.st51{fill:#87FFFF;}
	.st52{fill:#FFCC00;}
	.st53{fill:#5B1E06;}
	.st54{fill:#30541A;}
	.st55{fill:#35720E;}
	.st56{fill:#9E3612;}
	.st57{fill:#48AA09;}
	.st58{fill:#FFA200;}
	.st59{fill:#C1006A;}
	.st60{fill:#7B2322;}
	.st61{fill:#D30056;}
	.st62{fill:#680E37;}
	.st63{fill:#7C193A;}
	.st64{fill:#FF2C72;}
	.st65{fill:#FF5A8D;}
	.st66{fill:#FF48D6;}
	.st67{fill:#FF6D9F;}
	.st68{fill:#E88725;}
	.st69{fill:#E8B425;}
	.st70{fill:#FFD15F;}
	.st71{fill:#893A28;}
	.st72{fill:#FFFF42;}
	.st73{fill:#2C7A3C;}
	.st74{fill:#295B31;}
	.st75{fill:#3BC458;}
	.st76{fill:#5E4031;}
	.st77{fill:#605F33;}
	.st78{fill:#82804A;}
	.st79{fill:#82533F;}
	.st80{fill:#A06955;}
	.st81{fill:#444332;}
	.st82{fill:#66686B;}
	.st83{fill:#B7AF51;}
	.st84{fill:#47462C;}
	.st85{fill:#C17B5D;}
	.st86{fill:#FFD346;}
	.st87{fill:#F7A800;}
	.st88{fill:#ED7601;}
	.st89{fill:#FFE18D;}
	.st90{fill:#FFB857;}
	.st91{fill:#8B9BAF;}
	.st92{fill:#9DC2EA;}
	.st93{fill:#AA0000;}
	.st94{fill:#EF7F22;}
	.st95{fill:#C17E3A;}
	.st96{fill:#82562E;}
	.st97{fill:#542906;}
	.st98{fill:#CE6B13;}
	.st99{fill:#FF9536;}
	.st100{fill:#FFD55F;}
	.st101{fill:#A85007;}
	.st102{fill:#E29652;}
	.st103{fill:#FFA861;}
	.st104{fill:#FF0000;}
	.st105{fill:#5DE7FF;}
	.st106{fill:#32323A;}
	.st107{fill:#D6CBBF;}
	.st108{fill:#EBE0CE;}
	.st109{fill:#E28F01;}
	.st110{fill:#C94727;}
	.st111{fill:#7A2413;}
	.st112{fill:#3B454C;}
	.st113{fill:#5B676D;}
	.st114{fill:#DD5D05;}
	.st115{fill:#FF8939;}
	.st116{fill:#FFF6E9;}
	.st117{fill:#FFCE00;}
	.st118{fill:#C59648;}
	.st119{fill:#936135;}
	.st120{fill:#FCB072;}
	.st121{fill:#CC7E52;}
	.st122{fill:#8E624C;}
	.st123{fill:#AC1212;}
	.st124{fill:#E5231A;}
	.st125{fill:#318D8A;}
	.st126{fill:#F4A32C;}
	.st127{fill:#FFC06C;}
	.st128{fill:#B5720F;}
	.st129{fill:#FFD1AE;}
	.st130{fill:#C4CCCE;}
	.st131{fill:#1F2023;}
	.st132{fill:#E3E5E5;}
	.st133{fill:#3F4144;}
	.st134{fill:#7C0D0D;}
	.st135{fill:#AEB7BA;}
	.st136{fill:#8A909E;}
	.st137{fill:#AA7B57;}
	.st138{fill:#B78570;}
	.st139{fill:#6E7E8E;}
	.st140{fill:#4B5D6B;}
	.st141{fill:#76797C;}
	.st142{fill:#FFCEA9;}
	.st143{fill:#BF744F;}
	.st144{fill:#FCC068;}
	.st145{fill:#D7DFE2;}
	.st146{fill:#7A8E93;}
	.st147{fill:#FF6161;}
	.st148{fill:#EFD5B6;}
	.st149{fill:#505356;}
	.st150{fill:#AAAAAA;}
	.st151{fill:#8E7C6F;}
	.st152{fill:#747B84;}
	.st153{fill:#EDD5C0;}
	.st154{fill:#A0805A;}
	.st155{fill:#725D46;}
	.st156{fill:#AA6333;}
	.st157{fill:#DBC09E;}
	.st158{fill:#6D4029;}
	.st159{fill:#826341;}
	.st160{fill:#E08032;}
	.st161{fill:#AF520C;}
	.st162{fill:#891313;}
	.st163{fill:#B73030;}
	.st164{fill:#E84242;}
	.st165{fill:#562708;}
	.st166{fill:#FFBE71;}
	.st167{fill:#603429;}
	.st168{fill:#FFA124;}
	.st169{fill:#696C70;}
	.st170{fill:#50555B;}
	.st171{fill:#8C9196;}
	.st172{fill:#E0E0E0;}
	.st173{fill:#FF4A4A;}
	.st174{fill:#607F91;}
	.st175{fill:#C3D3DD;}
	.st176{fill:#8BA1AF;}
	.st177{fill:#60A0BA;}
	.st178{fill:#6088AD;}
	.st179{fill:#4A7493;}
	.st180{fill:#696389;}
	.st181{fill:#4663A3;}
	.st182{fill:#AEE6FF;}
	.st183{fill:#54A7CC;}
	.st184{fill:#4BB9E0;}
	.st185{fill:#4F4B75;}
	.st186{fill:#542E15;}
	.st187{fill:#6D3516;}
	.st188{fill:#68472B;}
	.st189{fill:#AF6D37;}
	.st190{fill:#3A2E2C;}
	.st191{fill:#663418;}
	.st192{fill:#915436;}
	.st193{fill:#B57255;}
	.st194{fill:#F28B3D;}
	.st195{fill:#56829B;}
	.st196{fill:#85B5D6;}
	.st197{fill:#B7D8EA;}
	.st198{fill:#3B6375;}
	.st199{fill:#5C6466;}
	.st200{fill:#FF5A20;}
	.st201{fill:#37454F;}
	.st202{fill:#202528;}
	.st203{fill:#566772;}
	.st204{fill:#69838E;}
	.st205{fill:#415156;}
	.st206{fill:#8E999B;}
	.st207{fill:#FF9A7B;}
	.st208{fill:#5B4F49;}
	.st209{fill:#6B5146;}
	.st210{fill:#924B2F;}
	.st211{fill:#A56F5B;}
	.st212{fill:#6B4A40;}
	.st213{fill:#FFD469;}
	.st214{fill:#7D8389;}
	.st215{fill:#B3B5BC;}
	.st216{fill:#92C6EA;}
	.st217{fill:#D3A12F;}
	.st218{fill:#3353A3;}
	.st219{fill:#2D4068;}
	.st220{fill:#09425B;}
	.st221{fill:#FF4800;}
	.st222{fill:#32697C;}
	.st223{fill:#A8E0EF;}
	.st224{fill:#71C0DB;}
	.st225{fill:#6089C6;}
	.st226{fill:#009311;}
	.st227{fill:#08FF2E;}
	.st228{fill:#536D54;}
	.st229{fill:#C84229;}
	.st230{fill:#FF4229;}
	.st231{fill:#C85529;}
	.st232{fill:#FF5529;}
	.st233{fill:#B96829;}
	.st234{fill:#FF6829;}
	.st235{fill:#A48929;}
	.st236{fill:#FF8929;}
	.st237{fill:#A4CC29;}
	.st238{fill:#FFCC29;}
	.st239{fill:#00CE31;}
	.st240{fill:#A1CE31;}
	.st241{fill:#FFFF2E;}
	.st242{fill:#BBEDFF;}
	.st243{fill:#A9E7FF;}
	.st244{fill:#475572;}
	.st245{fill:#FF680C;}
	.st246{fill:#FFFF0C;}
	.st247{fill:#348AA5;}
	.st248{fill:#16638E;}
	.st249{opacity:0.15;fill:#FFFF0C;}
	.st250{opacity:0.15;fill:#71F0DC;}
	.st251{opacity:0.3;fill:#71F0DC;}
	.st252{fill:#80A9B2;}
	.st253{fill:#88E6FF;}
	.st254{fill:#5376A0;}
	.st255{fill:#6D9DCC;}
	.st256{fill:#90B4D3;}
	.st257{fill:#B7B4A7;}
	.st258{fill:#20314F;}
	.st259{fill:#FFD808;}
	.st260{fill:#CCCC6E;}
	.st261{fill:#A5C2D3;}
	.st262{fill:#FF8710;}
	.st263{fill:#C45800;}
	.st264{fill:#2791CC;}
	.st265{fill:#A01717;}
	.st266{fill:#E51717;}
	.st267{fill:#C90D0D;}
	.st268{fill:#FF7171;}
	.st269{fill:#FFB428;}
	.st270{fill:#BC0F0F;}
	.st271{fill:#F76A00;}
	.st272{fill:#C14000;}
	.st273{fill:#AA2800;}
	.st274{fill:#FFAB31;}
	.st275{fill:#F7C27C;}
	.st276{fill:#560D0D;}
	.st277{fill:#960202;}
	.st278{fill:#700F0F;}
	.st279{fill:#CC5200;}
	.st280{fill:#951717;}
	.st281{fill:#71F0DC;}
	.st282{opacity:0.37;fill:#FFFFFF;}
	.st283{opacity:0.5;fill:#A7FFFF;}
	.st284{fill:#FFEB38;}
	.st285{fill:#304777;}
	.st286{fill:#03EDFF;}
	.st287{opacity:0.3;}
	.st288{opacity:0.2;}
	.st289{fill:#74A1B5;}
	.st290{fill:#33F5FF;}
	.st291{opacity:0.3;fill:#33F5FF;}
	.st292{fill:#99FFFF;}
	.st293{fill:#FCF9D9;}
	.st294{fill:#546077;}
	.st295{fill:#E5E1A8;}
	.st296{fill:#478461;}
	.st297{fill:#D3B5A5;}
	.st298{fill:#DE4400;}
	.st299{fill:#F77991;}
	.st300{fill:#FFDCE0;}
	.st301{fill:#663E20;}
	.st302{fill:#9B5D3B;}
	.st303{fill:#3F2D27;}
	.st304{fill:#DBB06B;}
	.st305{fill:#AF834F;}
	.st306{fill:#493B33;}
	.st307{fill:#81574A;}
	.st308{fill:#CC9933;}
	.st309{fill:#FFFF93;}
	.st310{fill:#D1993F;}
	.st311{fill:#D1AA66;}
	.st312{opacity:0.2;fill:#FFFF93;}
	.st313{opacity:0.1;fill:#FFFF93;}
	.st314{opacity:0.1;fill:#FFFF89;}
	.st315{opacity:0.7;}
	.st316{fill:#BC874D;}
	.st317{opacity:0.4;fill:#444951;}
	.st318{opacity:0.3;fill:#373944;}
	.st319{fill:#775742;}
	.st320{opacity:0.5;fill:#444951;}
	.st321{fill:#969436;}
	.st322{fill:#4C3529;}
	.st323{fill:#D8A355;}
	.st324{fill:#FFD578;}
	.st325{opacity:0.4;fill:#FFD578;}
	.st326{fill:#A79253;}
	.st327{fill:#CBAC4E;}
	.st328{fill:#5E4F2A;}
	.st329{opacity:0.6;fill:#52575E;}
	.st330{fill:#E5CF4A;}
	.st331{opacity:0.6;}
	.st332{fill:#444951;}
	.st333{fill:#1D1D1D;}
	.st334{fill:#1D1D1B;}
	.st335{fill:#D38C54;}
	.st336{fill:#B4FFFF;}
	.st337{opacity:0.4;fill:#FFFFFF;}
	.st338{opacity:0.7;fill:#7A3A2B;}
	.st339{fill:#D3AF85;}
	.st340{fill:#F9CB9D;}
	.st341{opacity:0.6;fill:#5D2D16;}
	.st342{opacity:0.29;fill:#5D2D16;}
	.st343{fill:#4F3220;}
	.st344{fill:#775542;}
	.st345{fill:#E2C54C;}
	.st346{fill:#F2E8B3;}
	.st347{fill:#F7F8F6;}
	.st348{fill:#976616;}
	.st349{fill:#6F3B0C;}
	.st350{fill:#5A0C0C;}
	.st351{opacity:0.44;}
	.st352{opacity:0.46;fill:#350B00;}
	.st353{fill:#B1B4B9;}
	.st354{fill:#B1B4A5;}
	.st355{fill:#C9CACC;}
	.st356{fill:#E9EAEC;}
	.st357{opacity:0.5;fill:#E9EAEC;}
	.st358{opacity:0.4;fill:#E9EAEC;}
	.st359{opacity:0.7;fill:#FFFFFF;}
	.st360{opacity:0.5;fill:#FFFFFF;}
</style>
<g>
	<path class="st353" d="M306.59,314.09c-0.35,4.61-1.96,8.8-4.68,12.34c-1.97,2.56-3.68,5.33-5.15,8.21
		c-1.98,3.87-4.92,6.97-8.66,9.12c-2.71,1.56-5.26,3.4-7.61,5.47c-3.23,2.86-7.11,4.67-11.4,5.31c-3.2,0.48-6.36,1.21-9.42,2.27
		c-4.22,1.46-8.7,1.65-13.19,0.52c-3.25-0.82-6.55-1.36-9.89-1.61c-4.61-0.35-8.8-1.96-12.34-4.68c-2.56-1.97-5.33-3.68-8.21-5.15
		c-3.87-1.98-6.97-4.92-9.12-8.66c-1.56-2.71-3.4-5.26-5.47-7.61c-2.86-3.23-4.67-7.11-5.31-11.4c-0.48-3.2-1.21-6.36-2.27-9.42
		c-1.46-4.22-1.65-8.7-0.52-13.19c0.82-3.25,1.36-6.55,1.61-9.89c0.35-4.61,1.96-8.8,4.68-12.34c1.97-2.56,3.68-5.33,5.15-8.21
		c1.98-3.87,4.92-6.97,8.66-9.12c2.71-1.56,5.26-3.4,7.61-5.47c3.23-2.86,7.11-4.67,11.4-5.31c3.2-0.48,6.36-1.21,9.42-2.27
		c4.22-1.46,8.7-1.65,13.19-0.52c3.25,0.82,6.55,1.36,9.89,1.61c4.61,0.35,8.8,1.96,12.34,4.68c2.56,1.97,5.33,3.68,8.21,5.15
		c3.87,1.98,6.97,4.92,9.12,8.66c1.56,2.71,3.4,5.26,5.47,7.61c2.86,3.23,4.67,7.11,5.31,11.4c0.48,3.2,1.21,6.36,2.27,9.42
		c1.46,4.22,1.65,8.7,0.52,13.19C307.38,307.45,306.84,310.75,306.59,314.09z"/>
	<path class="st354" d="M302.01,297.05c0.71,4.14,0.22,8.18-1.4,11.9c-1.17,2.69-2.06,5.5-2.72,8.36c-0.88,3.84-2.79,7.22-5.61,9.95
		c-2.04,1.97-3.88,4.16-5.49,6.5c-2.21,3.23-5.22,5.68-8.86,7.2c-2.71,1.13-5.33,2.47-7.79,4.08c-3.4,2.22-7.3,3.38-11.49,3.37
		c-3.04-0.01-6.06,0.25-9.06,0.76c-4.14,0.71-8.18,0.22-11.9-1.4c-2.69-1.17-5.5-2.06-8.36-2.72c-3.84-0.88-7.22-2.79-9.95-5.61
		c-1.97-2.04-4.16-3.88-6.5-5.49c-3.23-2.21-5.68-5.22-7.2-8.86c-1.13-2.71-2.47-5.33-4.08-7.79c-2.22-3.4-3.38-7.3-3.37-11.49
		c0.01-3.04-0.25-6.06-0.76-9.06c-0.71-4.14-0.22-8.18,1.4-11.9c1.17-2.69,2.06-5.5,2.72-8.36c0.88-3.84,2.79-7.22,5.61-9.95
		c2.04-1.97,3.88-4.16,5.49-6.5c2.21-3.23,5.22-5.68,8.86-7.2c2.71-1.13,5.33-2.47,7.79-4.08c3.4-2.22,7.3-3.38,11.49-3.37
		c3.04,0.01,6.06-0.25,9.06-0.76c4.14-0.71,8.18-0.22,11.9,1.4c2.69,1.17,5.5,2.06,8.36,2.72c3.84,0.88,7.22,2.79,9.95,5.61
		c1.97,2.04,4.16,3.88,6.5,5.49c3.23,2.21,5.68,5.22,7.2,8.86c1.13,2.71,2.47,5.33,4.08,7.79c2.22,3.4,3.38,7.3,3.37,11.49
		C301.24,291.03,301.49,294.05,302.01,297.05z"/>
	<path class="st355" d="M297.84,276.53c1.57,3.37,1.94,6.97,1.15,10.59c-0.58,2.62-0.85,5.27-0.89,7.91
		c-0.05,3.54-1.21,6.94-3.38,10.03c-1.58,2.24-2.92,4.6-3.99,7.03c-1.48,3.36-3.9,6.26-7.14,8.52c-2.41,1.68-4.69,3.53-6.75,5.56
		c-2.85,2.8-6.42,4.83-10.52,5.93c-2.97,0.8-5.87,1.81-8.69,3.05c-3.89,1.7-7.94,2.35-11.92,1.94c-2.88-0.3-5.81-0.32-8.74-0.13
		c-3.94,0.25-7.65-0.5-10.9-2.2c-2.36-1.23-4.88-2.24-7.51-3c-3.62-1.05-6.65-2.99-8.9-5.72c-1.67-2.03-3.54-3.93-5.63-5.62
		c-2.88-2.33-4.84-5.38-5.72-8.99c-0.64-2.61-1.52-5.15-2.66-7.58c-1.57-3.37-1.94-6.97-1.15-10.59c0.58-2.62,0.85-5.27,0.89-7.91
		c0.05-3.54,1.21-6.94,3.38-10.03c1.58-2.24,2.92-4.6,3.99-7.03c1.48-3.36,3.9-6.26,7.14-8.52c2.41-1.68,4.69-3.53,6.75-5.56
		c2.85-2.8,6.42-4.83,10.52-5.93c2.97-0.8,5.87-1.81,8.69-3.05c3.89-1.7,7.94-2.35,11.92-1.94c2.88,0.3,5.81,0.32,8.74,0.13
		c3.94-0.25,7.65,0.5,10.9,2.2c2.36,1.23,4.88,2.24,7.51,3c3.62,1.05,6.65,2.99,8.9,5.72c1.67,2.03,3.54,3.93,5.63,5.62
		c2.88,2.33,4.84,5.38,5.72,8.99C295.82,271.56,296.71,274.09,297.84,276.53z"/>
	<path class="st356" d="M206.27,268.05c0,0-9.92,12.1-9.13,24.01c0.59,8.92,4.78,36.49,42.26,31.75
		c34.52-4.37,59.33-32.74,49.6-58.53c-4.56-13.1-27.6-21.39-48.84-19.01C218.94,248.64,206.27,268.05,206.27,268.05z"/>
</g>
<path class="st357" d="M202.2,305.49c-3.21,0-3.21,4.99,0,4.99C205.41,310.47,205.42,305.49,202.2,305.49z"/>
<path class="st357" d="M201.51,300.73c-0.02-0.33-0.11-0.64-0.3-0.93c-0.16-0.29-0.37-0.52-0.64-0.7c-0.24-0.22-0.52-0.37-0.85-0.45
	c-0.22-0.03-0.44-0.06-0.66-0.09c-0.45,0-0.87,0.11-1.26,0.34c-0.17,0.13-0.34,0.26-0.5,0.39c-0.31,0.31-0.52,0.68-0.64,1.1
	c-0.07,0.21-0.14,0.42-0.21,0.63c-0.1,0.33-0.12,0.66-0.04,0.99c0.02,0.33,0.11,0.64,0.3,0.93c0.16,0.29,0.37,0.52,0.64,0.7
	c0.24,0.22,0.52,0.37,0.85,0.45c0.22,0.03,0.44,0.06,0.66,0.09c0.45,0,0.87-0.11,1.26-0.34c0.17-0.13,0.34-0.26,0.5-0.39
	c0.31-0.31,0.52-0.68,0.64-1.1c0.07-0.21,0.14-0.42,0.21-0.63C201.57,301.39,201.58,301.06,201.51,300.73z"/>
<path class="st357" d="M202.09,292.85c-0.12-0.42-0.33-0.79-0.64-1.1c-0.17-0.13-0.34-0.26-0.5-0.39c-0.39-0.23-0.81-0.34-1.26-0.34
	c-0.13-0.01-0.32,0.03-0.42,0.05c-0.13,0.02-0.28,0.02-0.41,0.07c-0.22,0.08-0.46,0.16-0.67,0.29c-0.01,0-0.01,0.01-0.02,0.01
	c-0.17,0.13-0.34,0.26-0.5,0.39c-0.01,0.01-0.03,0.02-0.04,0.04c-0.01,0.01-0.02,0.02-0.03,0.03c-0.1,0.12-0.31,0.39-0.4,0.52
	c-0.01,0.02-0.02,0.03-0.03,0.05c0,0.01-0.01,0.01-0.01,0.02c-0.08,0.2-0.17,0.4-0.25,0.6c-0.1,0.26-0.14,0.56-0.12,0.84
	c-0.01,0.34,0.06,0.66,0.21,0.96c0.1,0.31,0.27,0.58,0.52,0.8c0.23,0.24,0.49,0.42,0.8,0.52c0.3,0.16,0.62,0.23,0.96,0.21
	c0.22-0.03,0.44-0.06,0.66-0.09c0.42-0.12,0.79-0.33,1.1-0.64l0.15-0.19c0.09-0.07,0.19-0.14,0.27-0.22
	c0.24-0.23,0.42-0.49,0.52-0.8c0.16-0.3,0.23-0.62,0.21-0.96C202.15,293.29,202.12,293.07,202.09,292.85z"/>
<path class="st357" d="M214.35,324.03c-0.01-0.33-0.11-0.64-0.3-0.93c-0.16-0.29-0.37-0.52-0.64-0.7c-0.24-0.22-0.52-0.37-0.85-0.45
	c-0.22-0.03-0.44-0.06-0.66-0.09c-0.45,0-0.87,0.11-1.26,0.34c-0.17,0.13-0.34,0.26-0.5,0.39c-0.31,0.31-0.52,0.68-0.64,1.1
	c-0.07,0.21-0.14,0.42-0.21,0.63c-0.1,0.33-0.12,0.66-0.04,0.99c0.01,0.33,0.11,0.64,0.3,0.93c0.16,0.29,0.37,0.52,0.64,0.7
	c0.24,0.22,0.52,0.37,0.85,0.45c0.22,0.03,0.44,0.06,0.66,0.09c0.45,0,0.87-0.11,1.26-0.34c0.17-0.13,0.34-0.26,0.5-0.39
	c0.31-0.31,0.52-0.68,0.64-1.1c0.07-0.21,0.14-0.42,0.21-0.63C214.41,324.69,214.43,324.36,214.35,324.03z"/>
<path class="st357" d="M210.99,317.09c-0.1-0.31-0.27-0.58-0.52-0.8c-0.17-0.13-0.34-0.26-0.5-0.39c-0.39-0.23-0.81-0.34-1.26-0.34
	c-0.22,0.03-0.44,0.06-0.66,0.09c-0.42,0.12-0.79,0.33-1.1,0.64l-0.21,0.21c-0.24,0.23-0.42,0.49-0.52,0.8
	c-0.16,0.3-0.23,0.62-0.21,0.96c-0.01,0.34,0.06,0.66,0.21,0.96c0.1,0.31,0.27,0.58,0.52,0.8c0.17,0.13,0.34,0.26,0.5,0.39
	c0.39,0.23,0.81,0.34,1.26,0.34c0.22-0.03,0.44-0.06,0.66-0.09c0.42-0.12,0.79-0.33,1.1-0.64c0.07-0.07,0.14-0.14,0.21-0.21
	c0.24-0.23,0.42-0.49,0.52-0.8c0.16-0.3,0.23-0.62,0.21-0.96C211.22,317.71,211.14,317.39,210.99,317.09z"/>
<path class="st357" d="M226.88,324.83c-0.02-0.33-0.11-0.64-0.3-0.93c-0.13-0.17-0.26-0.34-0.39-0.5c-0.31-0.31-0.68-0.52-1.1-0.64
	c-0.22-0.03-0.44-0.06-0.66-0.09c-0.45,0-0.87,0.11-1.26,0.34c-0.14,0.07-0.28,0.14-0.42,0.21c-0.29,0.16-0.52,0.37-0.7,0.64
	c-0.22,0.24-0.37,0.52-0.45,0.85c-0.1,0.33-0.12,0.66-0.04,0.99c0.01,0.33,0.11,0.64,0.3,0.93c0.13,0.17,0.26,0.34,0.39,0.5
	c0.31,0.31,0.68,0.52,1.1,0.64c0.22,0.03,0.44,0.06,0.66,0.09c0.45,0,0.87-0.11,1.26-0.34c0.14-0.07,0.28-0.14,0.42-0.21
	c0.29-0.16,0.52-0.37,0.7-0.64c0.22-0.24,0.37-0.52,0.45-0.85C226.94,325.49,226.96,325.16,226.88,324.83z"/>
<path class="st357" d="M243.63,323.68c-0.12-0.42-0.33-0.79-0.64-1.1c-0.17-0.13-0.34-0.26-0.5-0.39c-0.39-0.23-0.81-0.34-1.26-0.34
	h-0.42c-0.34-0.01-0.66,0.06-0.96,0.21c-0.31,0.1-0.58,0.27-0.8,0.52c-0.24,0.23-0.42,0.49-0.52,0.8c-0.16,0.3-0.23,0.62-0.21,0.96
	c0.03,0.22,0.06,0.44,0.09,0.66c0.12,0.42,0.33,0.79,0.64,1.1c0.17,0.13,0.34,0.26,0.5,0.39c0.39,0.23,0.81,0.34,1.26,0.34h0.42
	c0.34,0.01,0.66-0.06,0.96-0.21c0.31-0.1,0.58-0.27,0.8-0.52c0.24-0.23,0.42-0.49,0.52-0.8c0.16-0.3,0.23-0.62,0.21-0.96
	C243.69,324.12,243.66,323.9,243.63,323.68z"/>
<path class="st357" d="M241.53,329.98c-0.12-0.42-0.33-0.79-0.64-1.1c-0.17-0.13-0.34-0.26-0.5-0.39c-0.39-0.23-0.81-0.34-1.26-0.34
	h-0.21c-0.34-0.01-0.66,0.06-0.96,0.21c-0.31,0.1-0.58,0.27-0.8,0.52c-0.24,0.23-0.41,0.49-0.52,0.8c-0.16,0.3-0.23,0.62-0.21,0.96
	c0.03,0.22,0.06,0.44,0.09,0.66c0.12,0.42,0.33,0.79,0.64,1.1c0.17,0.13,0.34,0.26,0.5,0.39c0.39,0.23,0.81,0.34,1.26,0.34h0.21
	c0.34,0.01,0.66-0.06,0.96-0.21c0.31-0.1,0.58-0.27,0.8-0.52c0.24-0.23,0.42-0.49,0.52-0.8c0.16-0.3,0.23-0.62,0.21-0.96
	C241.59,330.42,241.56,330.2,241.53,329.98z"/>
<path class="st357" d="M227.8,328.36c-3.21,0-3.21,4.99,0,4.99C231.01,333.34,231.02,328.36,227.8,328.36z"/>
<path class="st357" d="M250.04,334.86c-3.21,0-3.21,4.99,0,4.99C253.25,339.85,253.25,334.86,250.04,334.86z"/>
<path class="st357" d="M239.31,339.96c-0.1-0.31-0.27-0.58-0.52-0.8c-0.17-0.13-0.34-0.26-0.5-0.39c-0.39-0.23-0.81-0.34-1.26-0.34
	c-0.22,0.03-0.44,0.06-0.66,0.09c-0.42,0.12-0.79,0.33-1.1,0.64c-0.14,0.14-0.28,0.28-0.42,0.42c-0.24,0.23-0.41,0.49-0.52,0.8
	c-0.16,0.3-0.23,0.62-0.21,0.96c-0.01,0.34,0.06,0.66,0.21,0.96c0.1,0.31,0.27,0.58,0.52,0.8c0.17,0.13,0.34,0.26,0.5,0.39
	c0.39,0.23,0.81,0.34,1.26,0.34c0.22-0.03,0.44-0.06,0.66-0.09c0.42-0.12,0.79-0.33,1.1-0.64l0.42-0.42
	c0.24-0.23,0.42-0.49,0.52-0.8c0.16-0.3,0.23-0.62,0.21-0.96C239.54,340.58,239.47,340.26,239.31,339.96z"/>
<path class="st357" d="M219.41,332.34c-3.21,0-3.21,4.99,0,4.99C222.62,337.33,222.62,332.34,219.41,332.34z"/>
<path class="st357" d="M263.05,328.15c-3.21,0-3.21,4.99,0,4.99C266.26,333.13,266.26,328.15,263.05,328.15z"/>
<path class="st357" d="M252.44,326.83c-0.12-0.42-0.33-0.79-0.64-1.1c-0.17-0.13-0.34-0.26-0.5-0.39c-0.39-0.23-0.81-0.34-1.26-0.34
	h-0.21c-0.34-0.01-0.66,0.06-0.96,0.21c-0.31,0.1-0.58,0.27-0.8,0.52c-0.24,0.23-0.42,0.49-0.52,0.8c-0.16,0.3-0.23,0.62-0.21,0.96
	c0.03,0.22,0.06,0.44,0.09,0.66c0.12,0.42,0.33,0.79,0.64,1.1c0.17,0.13,0.34,0.26,0.5,0.39c0.39,0.23,0.81,0.34,1.26,0.34h0.21
	c0.34,0.01,0.66-0.06,0.96-0.21c0.31-0.1,0.58-0.27,0.8-0.52c0.24-0.23,0.41-0.49,0.52-0.8c0.16-0.3,0.23-0.62,0.21-0.96
	C252.5,327.27,252.47,327.05,252.44,326.83z"/>
<path class="st357" d="M257.8,318.7c-3.21,0-3.21,4.99,0,4.99C261.01,323.69,261.02,318.7,257.8,318.7z"/>
<path class="st357" d="M269.1,321.5c-0.1-0.31-0.27-0.58-0.52-0.8c-0.17-0.13-0.34-0.26-0.5-0.39c-0.39-0.23-0.81-0.34-1.26-0.34
	c-0.22,0.03-0.44,0.06-0.66,0.09c-0.42,0.12-0.79,0.33-1.1,0.64c-0.07,0.07-0.14,0.14-0.21,0.21c-0.24,0.23-0.42,0.49-0.52,0.8
	c-0.16,0.3-0.23,0.62-0.21,0.96c-0.01,0.34,0.06,0.66,0.21,0.96c0.1,0.31,0.27,0.58,0.52,0.8c0.17,0.13,0.34,0.26,0.5,0.39
	c0.39,0.23,0.81,0.34,1.26,0.34c0.22-0.03,0.44-0.06,0.66-0.09c0.42-0.12,0.79-0.33,1.1-0.64c0.07-0.07,0.14-0.14,0.21-0.21
	c0.24-0.23,0.42-0.49,0.52-0.8c0.16-0.3,0.23-0.62,0.21-0.96C269.33,322.11,269.26,321.79,269.1,321.5z"/>
<path class="st357" d="M269.86,315.08c-0.12-0.42-0.33-0.79-0.64-1.1c-0.17-0.13-0.34-0.26-0.5-0.39c-0.39-0.23-0.81-0.34-1.26-0.34
	h-0.21c-0.34-0.01-0.66,0.06-0.96,0.21c-0.31,0.1-0.58,0.27-0.8,0.52c-0.24,0.23-0.42,0.49-0.52,0.8c-0.16,0.3-0.23,0.62-0.21,0.96
	c0.03,0.22,0.06,0.44,0.09,0.66c0.12,0.42,0.33,0.79,0.64,1.1c0.17,0.13,0.34,0.26,0.5,0.39c0.39,0.23,0.81,0.34,1.26,0.34h0.21
	c0.34,0.01,0.66-0.06,0.96-0.21c0.31-0.1,0.58-0.27,0.8-0.52c0.24-0.23,0.42-0.49,0.52-0.8c0.16-0.3,0.23-0.62,0.21-0.96
	C269.92,315.52,269.89,315.3,269.86,315.08z"/>
<path class="st357" d="M282.03,308.16c-0.12-0.42-0.33-0.79-0.64-1.1c-0.17-0.13-0.34-0.26-0.5-0.39c-0.39-0.23-0.81-0.34-1.26-0.34
	h-0.21c-0.34-0.01-0.66,0.06-0.96,0.21c-0.31,0.1-0.58,0.27-0.8,0.52c-0.24,0.23-0.42,0.49-0.52,0.8c-0.16,0.3-0.23,0.62-0.21,0.96
	c0.03,0.22,0.06,0.44,0.09,0.66c0.12,0.42,0.33,0.79,0.64,1.1c0.17,0.13,0.34,0.26,0.5,0.39c0.39,0.23,0.81,0.34,1.26,0.34h0.21
	c0.34,0.01,0.66-0.06,0.96-0.21c0.31-0.1,0.58-0.27,0.8-0.52c0.24-0.23,0.42-0.49,0.52-0.8c0.16-0.3,0.23-0.62,0.21-0.96
	C282.09,308.6,282.06,308.38,282.03,308.16z"/>
<path class="st357" d="M286.55,295.84c-3.21,0-3.21,4.99,0,4.99C289.76,300.82,289.76,295.84,286.55,295.84z"/>
<path class="st357" d="M297.22,304.08c-0.1-0.31-0.27-0.58-0.52-0.8c-0.23-0.24-0.49-0.42-0.8-0.52c-0.3-0.16-0.62-0.23-0.96-0.21
	c-0.22,0.03-0.44,0.06-0.66,0.09c-0.42,0.12-0.79,0.33-1.1,0.64c-0.13,0.17-0.26,0.34-0.39,0.5c-0.23,0.39-0.34,0.81-0.34,1.26v0.21
	c-0.01,0.34,0.06,0.66,0.21,0.96c0.1,0.31,0.27,0.58,0.52,0.8c0.23,0.24,0.49,0.42,0.8,0.52c0.3,0.16,0.62,0.23,0.96,0.21
	c0.22-0.03,0.44-0.06,0.66-0.09c0.42-0.12,0.79-0.33,1.1-0.64c0.13-0.17,0.26-0.34,0.39-0.5c0.23-0.39,0.34-0.81,0.34-1.26v-0.21
	C297.45,304.7,297.37,304.38,297.22,304.08z"/>
<path class="st357" d="M291.34,311.22c-0.1-0.31-0.27-0.58-0.52-0.8c-0.23-0.24-0.49-0.42-0.8-0.52c-0.3-0.16-0.62-0.23-0.96-0.21
	c-0.22,0.03-0.44,0.06-0.66,0.09c-0.42,0.12-0.79,0.33-1.1,0.64c-0.13,0.17-0.26,0.34-0.39,0.5c-0.23,0.39-0.34,0.81-0.34,1.26v0.21
	c-0.01,0.34,0.06,0.66,0.21,0.96c0.1,0.31,0.27,0.58,0.52,0.8c0.23,0.24,0.49,0.42,0.8,0.52c0.3,0.16,0.62,0.23,0.96,0.21
	c0.22-0.03,0.44-0.06,0.66-0.09c0.42-0.12,0.79-0.33,1.1-0.64c0.13-0.17,0.26-0.34,0.39-0.5c0.23-0.39,0.34-0.81,0.34-1.26v-0.21
	C291.57,311.83,291.5,311.51,291.34,311.22z"/>
<path class="st357" d="M287.6,304.02c-3.21,0-3.21,4.99,0,4.99C290.8,309,290.81,304.02,287.6,304.02z"/>
<path class="st357" d="M289.66,324.43c-0.1-0.31-0.27-0.58-0.52-0.8c-0.23-0.24-0.49-0.42-0.8-0.52c-0.3-0.16-0.62-0.23-0.96-0.21
	c-0.22,0.03-0.44,0.06-0.66,0.09c-0.42,0.12-0.79,0.33-1.1,0.64c-0.13,0.17-0.26,0.34-0.39,0.5c-0.23,0.39-0.34,0.81-0.34,1.26v0.21
	c-0.01,0.34,0.06,0.66,0.21,0.96c0.1,0.31,0.27,0.58,0.52,0.8c0.23,0.24,0.49,0.42,0.8,0.52c0.3,0.16,0.62,0.23,0.96,0.21
	c0.22-0.03,0.44-0.06,0.66-0.09c0.42-0.12,0.79-0.33,1.1-0.64c0.13-0.17,0.26-0.34,0.39-0.5c0.23-0.39,0.34-0.81,0.34-1.26v-0.21
	C289.89,325.05,289.82,324.73,289.66,324.43z"/>
<path class="st357" d="M278.54,326.95c-0.1-0.31-0.27-0.58-0.52-0.8c-0.17-0.13-0.34-0.26-0.5-0.39c-0.39-0.23-0.81-0.34-1.26-0.34
	c-0.22,0.03-0.44,0.06-0.66,0.09c-0.42,0.12-0.79,0.33-1.1,0.64c-0.07,0.07-0.14,0.14-0.21,0.21c-0.24,0.23-0.42,0.49-0.52,0.8
	c-0.16,0.3-0.23,0.62-0.21,0.96c-0.01,0.34,0.06,0.66,0.21,0.96c0.1,0.31,0.27,0.58,0.52,0.8c0.17,0.13,0.34,0.26,0.5,0.39
	c0.39,0.23,0.81,0.34,1.26,0.34c0.22-0.03,0.44-0.06,0.66-0.09c0.42-0.12,0.79-0.33,1.1-0.64c0.07-0.07,0.14-0.14,0.21-0.21
	c0.24-0.23,0.42-0.49,0.52-0.8c0.16-0.3,0.23-0.62,0.21-0.96C278.77,327.57,278.7,327.25,278.54,326.95z"/>
<path class="st357" d="M281.61,317.39c-0.12-0.42-0.33-0.79-0.64-1.1c-0.17-0.13-0.34-0.26-0.5-0.39c-0.39-0.23-0.81-0.34-1.26-0.34
	h-0.21c-0.34-0.01-0.66,0.06-0.96,0.21c-0.31,0.1-0.58,0.27-0.8,0.52c-0.24,0.23-0.42,0.49-0.52,0.8c-0.16,0.3-0.23,0.62-0.21,0.96
	c0.03,0.22,0.06,0.44,0.09,0.66c0.12,0.42,0.33,0.79,0.64,1.1c0.17,0.13,0.34,0.26,0.5,0.39c0.39,0.23,0.81,0.34,1.26,0.34h0.21
	c0.34,0.01,0.66-0.06,0.96-0.21c0.31-0.1,0.58-0.27,0.8-0.52c0.24-0.23,0.42-0.49,0.52-0.8c0.16-0.3,0.23-0.62,0.21-0.96
	C281.67,317.83,281.64,317.61,281.61,317.39z"/>
<path class="st357" d="M299.34,312.41c-3.21,0-3.21,4.99,0,4.99C302.55,317.4,302.56,312.41,299.34,312.41z"/>
<path class="st357" d="M298.09,295c-3.21,0-3.21,4.99,0,4.99C301.29,299.98,301.3,295,298.09,295z"/>
<path class="st357" d="M294.22,292.01c-0.08-0.32-0.23-0.61-0.45-0.85c-0.18-0.27-0.41-0.49-0.7-0.64l-0.6-0.25
	c-0.44-0.12-0.88-0.12-1.33,0l-0.6,0.25c-0.37,0.22-0.67,0.52-0.89,0.89c-0.07,0.14-0.14,0.28-0.21,0.42
	c-0.18,0.29-0.28,0.6-0.3,0.93c-0.07,0.33-0.06,0.66,0.04,0.99c0.08,0.32,0.23,0.61,0.45,0.85c0.18,0.27,0.41,0.49,0.7,0.64
	c0.2,0.08,0.4,0.17,0.6,0.25c0.44,0.12,0.88,0.12,1.33,0c0.2-0.08,0.4-0.17,0.6-0.25c0.38-0.22,0.67-0.52,0.89-0.89
	c0.07-0.14,0.14-0.28,0.21-0.42c0.18-0.29,0.28-0.6,0.3-0.93C294.34,292.67,294.32,292.34,294.22,292.01z"/>
<path class="st357" d="M293.36,283.61c-0.12-0.42-0.33-0.79-0.64-1.1c-0.17-0.13-0.34-0.26-0.5-0.39c-0.39-0.23-0.81-0.34-1.26-0.34
	h-0.21c-0.34-0.01-0.66,0.06-0.96,0.21c-0.31,0.1-0.58,0.27-0.8,0.52c-0.24,0.23-0.42,0.49-0.52,0.8c-0.16,0.3-0.23,0.62-0.21,0.96
	c0.03,0.22,0.06,0.44,0.09,0.66c0.12,0.42,0.33,0.79,0.64,1.1c0.17,0.13,0.34,0.26,0.5,0.39c0.39,0.23,0.81,0.34,1.26,0.34h0.21
	c0.34,0.01,0.66-0.06,0.96-0.21c0.31-0.1,0.58-0.27,0.8-0.52c0.24-0.23,0.42-0.49,0.52-0.8c0.16-0.3,0.23-0.62,0.21-0.96
	C293.42,284.05,293.39,283.83,293.36,283.61z"/>
<path class="st357" d="M298.09,287.65c-3.21,0-3.21,4.99,0,4.99C301.29,292.64,301.3,287.65,298.09,287.65z"/>
<path class="st357" d="M300.18,280.73c-3.21,0-3.21,4.99,0,4.99C303.39,285.72,303.4,280.73,300.18,280.73z"/>
<path class="st357" d="M297.64,277.86c-0.1-0.31-0.27-0.58-0.52-0.8c-0.23-0.24-0.49-0.42-0.8-0.52c-0.3-0.16-0.62-0.23-0.96-0.21
	c-0.22,0.03-0.44,0.06-0.66,0.09c-0.42,0.12-0.79,0.33-1.1,0.64c-0.13,0.17-0.26,0.34-0.39,0.5c-0.23,0.39-0.34,0.81-0.34,1.26v0.21
	c-0.01,0.34,0.06,0.66,0.21,0.96c0.1,0.31,0.27,0.58,0.52,0.8c0.23,0.24,0.49,0.42,0.8,0.52c0.3,0.16,0.62,0.23,0.96,0.21
	c0.22-0.03,0.44-0.06,0.66-0.09c0.42-0.12,0.79-0.33,1.1-0.64c0.13-0.17,0.26-0.34,0.39-0.5c0.23-0.39,0.34-0.81,0.34-1.26v-0.21
	C297.86,278.47,297.79,278.15,297.64,277.86z"/>
<path class="st357" d="M293.23,271.14c-0.1-0.31-0.27-0.58-0.52-0.8c-0.23-0.24-0.49-0.42-0.8-0.52c-0.3-0.16-0.62-0.23-0.96-0.21
	c-0.22,0.03-0.44,0.06-0.66,0.09c-0.42,0.12-0.79,0.33-1.1,0.64c-0.13,0.17-0.26,0.34-0.39,0.5c-0.23,0.39-0.34,0.81-0.34,1.26v0.21
	c-0.01,0.34,0.06,0.66,0.21,0.96c0.1,0.31,0.27,0.58,0.52,0.8c0.23,0.24,0.49,0.42,0.8,0.52c0.3,0.16,0.62,0.23,0.96,0.21
	c0.22-0.03,0.44-0.06,0.66-0.09c0.42-0.12,0.79-0.33,1.1-0.64c0.13-0.17,0.26-0.34,0.39-0.5c0.23-0.39,0.34-0.81,0.34-1.26v-0.21
	C293.46,271.76,293.39,271.44,293.23,271.14z"/>
<path class="st357" d="M290.21,264.94c-0.12-0.42-0.33-0.79-0.64-1.1l-0.21-0.21c-0.23-0.24-0.49-0.42-0.8-0.52
	c-0.3-0.16-0.62-0.23-0.96-0.21c-0.34-0.01-0.66,0.06-0.96,0.21c-0.31,0.1-0.58,0.27-0.8,0.52c-0.13,0.17-0.26,0.34-0.39,0.5
	c-0.23,0.39-0.34,0.81-0.34,1.26c0.03,0.22,0.06,0.44,0.09,0.66c0.12,0.42,0.33,0.79,0.64,1.1c0.07,0.07,0.14,0.14,0.21,0.21
	c0.23,0.24,0.49,0.42,0.8,0.52c0.3,0.16,0.62,0.23,0.96,0.21c0.34,0.01,0.66-0.06,0.96-0.21c0.31-0.1,0.58-0.27,0.8-0.52
	c0.13-0.17,0.26-0.34,0.39-0.5c0.23-0.39,0.34-0.81,0.34-1.26C290.27,265.38,290.24,265.16,290.21,264.94z"/>
<path class="st357" d="M202,313.88c-3.21,0-3.21,4.99,0,4.99C205.2,318.87,205.21,313.88,202,313.88z"/>
<path class="st357" d="M283.26,256.37l-0.25-0.6c-0.22-0.37-0.52-0.67-0.89-0.89c-0.21-0.14-0.41-0.29-0.62-0.43
	c-0.29-0.18-0.6-0.28-0.93-0.3c-0.33-0.07-0.66-0.06-0.99,0.04c-0.32,0.08-0.61,0.23-0.85,0.45c-0.27,0.18-0.49,0.41-0.64,0.7
	l-0.25,0.6c-0.12,0.44-0.12,0.88,0,1.33l0.25,0.6c0.22,0.37,0.52,0.67,0.89,0.89c0.21,0.14,0.41,0.29,0.62,0.43
	c0.29,0.18,0.6,0.28,0.93,0.3c0.33,0.07,0.66,0.06,0.99-0.04c0.32-0.08,0.61-0.23,0.85-0.45c0.27-0.18,0.49-0.41,0.64-0.7l0.25-0.6
	C283.38,257.26,283.38,256.82,283.26,256.37z"/>
<path class="st357" d="M264.28,247.43c-0.1-0.31-0.27-0.58-0.52-0.8c-0.23-0.24-0.49-0.42-0.8-0.52c-0.3-0.16-0.62-0.23-0.96-0.21
	c-0.22,0.03-0.44,0.06-0.66,0.09c-0.42,0.12-0.79,0.33-1.1,0.64c-0.13,0.17-0.26,0.34-0.39,0.5c-0.23,0.39-0.34,0.81-0.34,1.26v0.42
	c-0.01,0.34,0.06,0.66,0.21,0.96c0.1,0.31,0.27,0.58,0.52,0.8c0.23,0.24,0.49,0.42,0.8,0.52c0.3,0.16,0.62,0.23,0.96,0.21
	c0.22-0.03,0.44-0.06,0.66-0.09c0.42-0.12,0.79-0.33,1.1-0.64c0.13-0.17,0.26-0.34,0.39-0.5c0.23-0.39,0.34-0.81,0.34-1.26v-0.42
	C264.51,248.05,264.43,247.73,264.28,247.43z"/>
<path class="st357" d="M245.84,244.22c-3.21,0-3.21,4.99,0,4.99C249.05,249.21,249.06,244.22,245.84,244.22z"/>
<path class="st357" d="M258.85,336.96c-3.21,0-3.21,4.99,0,4.99C262.06,341.94,262.07,336.96,258.85,336.96z"/>
<path class="st356" d="M235.14,323.74c-3.21,0-3.21,4.99,0,4.99C238.35,328.73,238.36,323.74,235.14,323.74z"/>
<path class="st356" d="M235.74,334.08c-0.1-0.31-0.27-0.58-0.52-0.8c-0.23-0.24-0.49-0.42-0.8-0.52c-0.3-0.16-0.62-0.23-0.96-0.21
	c-0.22,0.03-0.44,0.06-0.66,0.09c-0.42,0.12-0.79,0.33-1.1,0.64c-0.13,0.17-0.26,0.34-0.39,0.5c-0.23,0.39-0.34,0.81-0.34,1.26v0.21
	c-0.01,0.34,0.06,0.66,0.21,0.96c0.1,0.31,0.27,0.58,0.52,0.8c0.23,0.24,0.49,0.42,0.8,0.52c0.3,0.16,0.62,0.23,0.96,0.21
	c0.22-0.03,0.44-0.06,0.66-0.09c0.42-0.12,0.79-0.33,1.1-0.64c0.13-0.17,0.26-0.34,0.39-0.5c0.23-0.39,0.34-0.81,0.34-1.26v-0.21
	C235.97,334.7,235.9,334.38,235.74,334.08z"/>
<path class="st356" d="M232.51,326.41c-0.12-0.42-0.33-0.79-0.64-1.1c-0.17-0.13-0.34-0.26-0.5-0.39c-0.39-0.23-0.81-0.34-1.26-0.34
	h-0.21c-0.34-0.01-0.66,0.06-0.96,0.21c-0.31,0.1-0.58,0.27-0.8,0.52c-0.24,0.23-0.42,0.49-0.52,0.8c-0.16,0.3-0.23,0.62-0.21,0.96
	c0.03,0.22,0.06,0.44,0.09,0.66c0.12,0.42,0.33,0.79,0.64,1.1c0.17,0.13,0.34,0.26,0.5,0.39c0.39,0.23,0.81,0.34,1.26,0.34h0.21
	c0.34,0.01,0.66-0.06,0.96-0.21c0.31-0.1,0.58-0.27,0.8-0.52c0.24-0.23,0.42-0.49,0.52-0.8c0.16-0.3,0.23-0.62,0.21-0.96
	C232.57,326.85,232.54,326.63,232.51,326.41z"/>
<path class="st356" d="M228.19,334.08c-0.1-0.31-0.27-0.58-0.52-0.8c-0.23-0.24-0.49-0.42-0.8-0.52c-0.3-0.16-0.62-0.23-0.96-0.21
	c-0.22,0.03-0.44,0.06-0.66,0.09c-0.42,0.12-0.79,0.33-1.1,0.64c-0.13,0.17-0.26,0.34-0.39,0.5c-0.23,0.39-0.34,0.81-0.34,1.26v0.42
	c-0.01,0.34,0.06,0.66,0.21,0.96c0.1,0.31,0.27,0.58,0.52,0.8c0.23,0.24,0.49,0.42,0.8,0.52c0.3,0.16,0.62,0.23,0.96,0.21
	c0.22-0.03,0.44-0.06,0.66-0.09c0.42-0.12,0.79-0.33,1.1-0.64c0.13-0.17,0.26-0.34,0.39-0.5c0.23-0.39,0.34-0.81,0.34-1.26v-0.42
	C228.42,334.7,228.35,334.38,228.19,334.08z"/>
<path class="st356" d="M218.54,328.42c-0.1-0.31-0.27-0.58-0.52-0.8c-0.23-0.24-0.49-0.42-0.8-0.52c-0.3-0.16-0.62-0.23-0.96-0.21
	c-0.22,0.03-0.44,0.06-0.66,0.09c-0.42,0.12-0.79,0.33-1.1,0.64c-0.13,0.17-0.26,0.34-0.39,0.5c-0.23,0.39-0.34,0.81-0.34,1.26v0.21
	c-0.01,0.34,0.06,0.66,0.21,0.96c0.1,0.31,0.27,0.58,0.52,0.8c0.23,0.24,0.49,0.42,0.8,0.52c0.3,0.16,0.62,0.23,0.96,0.21
	c0.22-0.03,0.44-0.06,0.66-0.09c0.42-0.12,0.79-0.33,1.1-0.64c0.13-0.17,0.26-0.34,0.39-0.5c0.23-0.39,0.34-0.81,0.34-1.26v-0.21
	C218.77,329.04,218.7,328.72,218.54,328.42z"/>
<path class="st356" d="M224.21,321.92c-0.1-0.31-0.27-0.58-0.52-0.8c-0.23-0.24-0.49-0.42-0.8-0.52c-0.3-0.16-0.62-0.23-0.96-0.21
	c-0.22,0.03-0.44,0.06-0.66,0.09c-0.42,0.12-0.79,0.33-1.1,0.64c-0.13,0.17-0.26,0.34-0.39,0.5c-0.02,0.03-0.03,0.06-0.05,0.1
	c-0.07-0.12-0.15-0.24-0.25-0.35c-0.18-0.27-0.41-0.49-0.7-0.64l-0.6-0.25c-0.44-0.12-0.88-0.12-1.33,0l-0.6,0.25
	c-0.22,0.13-0.4,0.29-0.56,0.47c-0.16-1.09-0.95-2.07-2.37-2.07c-0.05,0-0.09,0.01-0.14,0.01c-0.15-1.11-0.94-2.11-2.38-2.11
	c-3.21,0-3.21,4.99,0,4.99c0.05,0,0.09-0.01,0.14-0.01c0.03,0.22,0.09,0.44,0.17,0.65c-0.12,0.16-0.22,0.33-0.28,0.52
	c-0.16,0.3-0.23,0.62-0.21,0.96c0.03,0.22,0.06,0.44,0.09,0.66c0.12,0.42,0.33,0.79,0.64,1.1c0.17,0.13,0.34,0.26,0.5,0.39
	c0.39,0.23,0.81,0.34,1.26,0.34h0.21c0.34,0.01,0.66-0.06,0.96-0.21c0.31-0.1,0.58-0.27,0.8-0.52c0.24-0.22,0.41-0.49,0.51-0.8
	c0.13,0.13,0.28,0.25,0.45,0.35l0.6,0.25c0.44,0.12,0.88,0.12,1.33,0l0.6-0.25c0.38-0.22,0.67-0.52,0.89-0.89
	c0.06-0.11,0.11-0.23,0.17-0.34c0.01,0.01,0.01,0.03,0.01,0.04c0.1,0.31,0.27,0.58,0.52,0.8c0.23,0.24,0.49,0.42,0.8,0.52
	c0.3,0.16,0.62,0.23,0.96,0.21c0.22-0.03,0.44-0.06,0.66-0.09c0.42-0.12,0.79-0.33,1.1-0.64c0.13-0.17,0.26-0.34,0.39-0.5
	c0.23-0.39,0.34-0.81,0.34-1.26v-0.42C224.43,322.53,224.36,322.21,224.21,321.92z"/>
<path class="st356" d="M205.14,321.64c-3.21,0-3.21,4.99,0,4.99C208.35,326.63,208.36,321.64,205.14,321.64z"/>
<path class="st356" d="M206.28,316.5c2.01-1.02,1.63-4.72-1.14-4.72c-0.96,0-1.62,0.45-2.01,1.07c-0.07-1.19-0.86-2.33-2.4-2.33
	c-3.21,0-3.21,4.99,0,4.99c0.96,0,1.62-0.45,2.01-1.07c0.03,0.57,0.23,1.12,0.6,1.54c0,0,0,0,0,0c-0.31,0.1-0.58,0.27-0.8,0.52
	c-0.24,0.23-0.42,0.49-0.52,0.8c-0.16,0.3-0.23,0.62-0.21,0.96c0.03,0.22,0.06,0.44,0.09,0.66c0.12,0.42,0.33,0.79,0.64,1.1
	c0.17,0.13,0.34,0.26,0.5,0.39c0.39,0.23,0.81,0.34,1.26,0.34h0.21c0.34,0.01,0.66-0.06,0.96-0.21c0.31-0.1,0.58-0.27,0.8-0.52
	c0.24-0.23,0.42-0.49,0.52-0.8c0.16-0.3,0.23-0.62,0.21-0.96c-0.03-0.22-0.06-0.44-0.09-0.66
	C206.8,317.18,206.59,316.81,206.28,316.5z"/>
<path class="st356" d="M200.11,303.6c-1.66,0-2.46,1.34-2.4,2.63c-1.25,1.39-0.66,4.24,1.77,4.24c1.66,0,2.46-1.34,2.4-2.63
	C203.12,306.45,202.54,303.6,200.11,303.6z"/>
<path class="st356" d="M198.69,297.49c0.09-0.14,0.16-0.29,0.21-0.45c3.15-0.06,3.14-4.98-0.06-4.98c-1.25,0-2.01,0.76-2.28,1.68
	c-0.23,0-0.46,0.03-0.69,0.09l-0.6,0.25c-0.37,0.22-0.67,0.52-0.89,0.89c-0.14,0.21-0.28,0.42-0.42,0.63
	c-0.18,0.29-0.28,0.6-0.3,0.93c-0.07,0.33-0.06,0.66,0.04,0.99c0.08,0.32,0.23,0.61,0.45,0.85c0.18,0.27,0.41,0.49,0.7,0.64
	c0.2,0.08,0.4,0.17,0.6,0.25c0.05,0.01,0.11,0.02,0.16,0.03c-0.07,0.09-0.14,0.18-0.2,0.28c-0.14,0.28-0.29,0.56-0.43,0.83
	c-0.31,0.6-0.43,1.26-0.25,1.92c0.08,0.32,0.23,0.61,0.45,0.85c0.18,0.27,0.41,0.49,0.7,0.64c0.58,0.31,1.28,0.46,1.92,0.25
	c0.6-0.19,1.19-0.57,1.49-1.15c0.14-0.28,0.29-0.56,0.43-0.83c0.31-0.6,0.43-1.26,0.25-1.92c-0.08-0.32-0.23-0.61-0.45-0.85
	c-0.18-0.27-0.41-0.49-0.7-0.64c-0.24-0.13-0.51-0.22-0.78-0.28c0.08-0.09,0.16-0.18,0.22-0.29
	C198.41,297.91,198.55,297.7,198.69,297.49z"/>
<path class="st356" d="M248.46,334.59c-0.07-0.21-0.14-0.42-0.21-0.63c-0.08-0.32-0.23-0.61-0.45-0.85
	c-0.18-0.27-0.41-0.49-0.7-0.64c-0.29-0.18-0.6-0.28-0.93-0.3c-0.33-0.07-0.66-0.06-0.99,0.04l-0.6,0.25
	c-0.37,0.22-0.67,0.52-0.89,0.89l-0.25,0.6c-0.12,0.44-0.12,0.88,0,1.33c0.07,0.21,0.14,0.42,0.21,0.63
	c0.08,0.32,0.23,0.61,0.45,0.85c0.18,0.27,0.41,0.49,0.7,0.64c0.29,0.18,0.6,0.28,0.93,0.3c0.33,0.07,0.66,0.06,0.99-0.04l0.6-0.25
	c0.37-0.22,0.67-0.52,0.89-0.89c0.08-0.2,0.17-0.4,0.25-0.6C248.58,335.48,248.58,335.03,248.46,334.59z"/>
<path class="st356" d="M243.65,328.1c-0.08-0.32-0.23-0.61-0.45-0.85c-0.18-0.27-0.41-0.49-0.7-0.64c-0.58-0.31-1.28-0.46-1.92-0.25
	l-0.6,0.25c-0.13,0.08-0.24,0.17-0.35,0.27c0,0,0,0,0,0c-0.31,0.1-0.58,0.27-0.8,0.52c-0.24,0.23-0.42,0.49-0.52,0.8
	c-0.16,0.3-0.23,0.62-0.21,0.96c0.03,0.22,0.06,0.44,0.09,0.66c0.12,0.42,0.33,0.79,0.64,1.1c0.17,0.13,0.34,0.26,0.5,0.39
	c0.39,0.23,0.81,0.34,1.26,0.34c0.62-0.06,1.09-0.13,1.63-0.46c0.51-0.31,0.85-0.67,1.17-1.17c0.18-0.29,0.28-0.6,0.3-0.93
	C243.77,328.76,243.76,328.43,243.65,328.1z"/>
<path class="st356" d="M254.63,330.1c-0.1-0.31-0.27-0.58-0.52-0.8c-0.23-0.24-0.49-0.42-0.8-0.52c-0.3-0.16-0.62-0.23-0.96-0.21
	c-0.22,0.03-0.44,0.06-0.66,0.09c-0.42,0.12-0.79,0.33-1.1,0.64c-0.13,0.17-0.26,0.34-0.39,0.5c-0.23,0.39-0.34,0.81-0.34,1.26v0.21
	c-0.01,0.34,0.06,0.66,0.21,0.96c0.1,0.31,0.27,0.58,0.52,0.8c0.23,0.24,0.49,0.42,0.8,0.52c0.3,0.16,0.62,0.23,0.96,0.21
	c0.22-0.03,0.44-0.06,0.66-0.09c0.42-0.12,0.79-0.33,1.1-0.64c0.13-0.17,0.26-0.34,0.39-0.5c0.23-0.39,0.34-0.81,0.34-1.26v-0.21
	C254.85,330.72,254.78,330.4,254.63,330.1z"/>
<path class="st356" d="M246.68,327.1c-3.21,0-3.21,4.99,0,4.99C249.89,332.08,249.9,327.1,246.68,327.1z"/>
<path class="st356" d="M255.73,323.46c2.08-0.97,1.72-4.76-1.08-4.76c-2.7,0-3.12,3.51-1.29,4.63c-0.09,0.04-0.17,0.1-0.26,0.15
	c-0.1-0.26-0.25-0.5-0.47-0.7c-0.23-0.24-0.49-0.42-0.8-0.52c-0.18-0.09-0.37-0.15-0.57-0.18c0-0.02,0.01-0.04,0-0.06
	c-0.03-0.22-0.06-0.44-0.09-0.66c-0.12-0.42-0.33-0.79-0.64-1.1c-0.17-0.13-0.34-0.26-0.5-0.39c-0.39-0.23-0.81-0.34-1.26-0.34
	h-0.21c-0.34-0.01-0.66,0.06-0.96,0.21c-0.31,0.1-0.58,0.27-0.8,0.52c-0.16,0.15-0.28,0.33-0.38,0.52c-0.4-0.49-1.01-0.83-1.84-0.83
	c-0.84,0-1.45,0.34-1.85,0.85c-0.01,0.01-0.03,0.02-0.04,0.03c-0.29-0.27-0.62-0.49-1.01-0.58c-0.22-0.03-0.44-0.06-0.66-0.09
	c-0.45,0-0.87,0.11-1.26,0.34l-0.65,0.39c-0.29,0.16-0.52,0.37-0.7,0.64c-0.22,0.24-0.37,0.52-0.45,0.85
	c-0.1,0.33-0.12,0.66-0.04,0.99c0.01,0.33,0.11,0.64,0.3,0.93c0.34,0.53,0.85,1,1.49,1.15c0.22,0.03,0.44,0.06,0.66,0.09
	c0.33,0,0.63-0.06,0.93-0.18c0.08,0.12,0.17,0.23,0.27,0.33c0.48,0.44,1.1,0.76,1.76,0.73c0.62-0.03,1.35-0.23,1.76-0.73
	c0.35-0.42,0.7-0.84,1.05-1.26c0.03-0.04,0.06-0.08,0.09-0.12c0.2-0.19,0.35-0.41,0.47-0.65c0.04,0.04,0.06,0.09,0.1,0.14
	c0.17,0.13,0.34,0.26,0.5,0.39c0.34,0.19,0.69,0.3,1.08,0.33c0,0.01,0,0.02,0,0.04v0.21c-0.01,0.34,0.06,0.66,0.21,0.96
	c0.1,0.31,0.27,0.58,0.52,0.8c0.23,0.24,0.49,0.42,0.8,0.52c0.3,0.16,0.62,0.23,0.96,0.21c0.22-0.03,0.44-0.06,0.66-0.09
	c0.28-0.08,0.53-0.22,0.76-0.38c0.35,0.75,1.06,1.31,2.14,1.31C257.14,328.1,257.57,324.59,255.73,323.46z"/>
<path class="st356" d="M259.48,325c-3.21,0-3.21,4.99,0,4.99C262.69,329.99,262.7,325,259.48,325z"/>
<path class="st356" d="M263.68,315.98c-1.74,0-2.53,1.47-2.38,2.81c-0.33-0.18-0.72-0.29-1.18-0.29c-3.21,0-3.21,4.99,0,4.99
	c1.74,0,2.53-1.47,2.38-2.81c0.33,0.18,0.72,0.29,1.18,0.29C266.89,320.96,266.89,315.98,263.68,315.98z"/>
<path class="st356" d="M268.29,323.95c-3.21,0-3.21,4.99,0,4.99C271.5,328.94,271.51,323.95,268.29,323.95z"/>
<path class="st356" d="M289.06,291.01c-1.48,0-2.27,1.06-2.38,2.2c-2.47,0.68-2.25,4.89,0.71,4.89c1.48,0,2.27-1.06,2.39-2.2
	C292.25,295.21,292.02,291.01,289.06,291.01z"/>
<path class="st356" d="M295.15,300.24c-0.21,0-0.41,0.03-0.59,0.07c-0.05-0.18-0.12-0.36-0.22-0.53c-0.16-0.29-0.37-0.52-0.64-0.7
	c-0.23-0.21-0.51-0.36-0.82-0.44c-0.07-0.1-0.14-0.2-0.21-0.29c-0.39-0.54-0.82-0.96-1.49-1.15c-0.6-0.16-1.39-0.09-1.92,0.25
	c-0.53,0.34-1,0.85-1.15,1.49c-0.09,0.39-0.11,0.84-0.02,1.26c-0.2-0.13-0.42-0.23-0.66-0.3c-0.22-0.03-0.44-0.06-0.66-0.09
	c-0.45,0-0.87,0.11-1.26,0.34l-0.42,0.21c-0.18,0.1-0.33,0.22-0.47,0.36c-0.19-0.05-0.38-0.08-0.58-0.08
	c-0.22,0.03-0.44,0.06-0.66,0.09c-0.42,0.12-0.79,0.33-1.1,0.64c-0.13,0.17-0.26,0.34-0.39,0.5c-0.17,0.29-0.28,0.6-0.32,0.93
	c-0.05-0.02-0.09-0.05-0.13-0.06c-0.3-0.16-0.62-0.23-0.96-0.21c-0.22,0.03-0.44,0.06-0.66,0.09c-0.42,0.12-0.79,0.33-1.1,0.64
	c-0.13,0.17-0.26,0.34-0.39,0.5c-0.17,0.29-0.27,0.59-0.31,0.91c-0.14-0.07-0.29-0.14-0.45-0.19c-0.22-0.03-0.44-0.06-0.66-0.09
	c-0.45,0-0.87,0.11-1.26,0.34c-0.14,0.07-0.28,0.14-0.42,0.21c-0.29,0.16-0.52,0.37-0.7,0.64c-0.09,0.09-0.15,0.2-0.22,0.31
	c-0.04,0-0.08-0.01-0.12-0.01c-2,0-2.76,1.95-2.26,3.41c-0.15-0.03-0.31-0.05-0.47-0.05c-0.07,0-0.14,0-0.21,0
	c-0.34-0.01-0.66,0.06-0.96,0.21c-0.31,0.1-0.58,0.27-0.8,0.52c-0.24,0.23-0.42,0.49-0.52,0.8c-0.1,0.2-0.16,0.41-0.19,0.63
	c-0.14-0.07-0.28-0.14-0.44-0.19c-0.22-0.03-0.44-0.06-0.66-0.09c-0.45,0-0.87,0.11-1.26,0.34l-0.42,0.21
	c-0.29,0.16-0.52,0.37-0.7,0.64c-0.22,0.24-0.37,0.52-0.45,0.85c-0.1,0.33-0.12,0.66-0.04,0.99c0.02,0.33,0.11,0.64,0.3,0.93
	c0.13,0.17,0.26,0.34,0.39,0.5c0.31,0.31,0.68,0.52,1.1,0.64c0.22,0.03,0.44,0.06,0.66,0.09c0.45,0,0.87-0.11,1.26-0.34l0.42-0.21
	c0.29-0.16,0.52-0.37,0.7-0.64c0.22-0.24,0.37-0.52,0.45-0.85c0.03-0.11,0.04-0.22,0.06-0.33c0.2,0.1,0.42,0.18,0.64,0.22
	c-0.07,0.39-0.06,0.79,0.04,1.17c-2.75,0.21-2.9,4.24-0.45,4.88c-1.31,1.37-0.74,4.29,1.72,4.29c2.96,0,3.19-4.25,0.67-4.9
	c0.61-0.64,0.8-1.61,0.6-2.47c1.78-0.14,2.46-1.89,2.06-3.27c0.26,0.16,0.56,0.27,0.91,0.32c0.05,0.51,0.21,1.01,0.54,1.41
	c-0.69,1.48,0.02,3.66,2.15,3.66c1.92,0,2.68-1.78,2.31-3.22c0.1-0.07,0.21-0.15,0.3-0.24c0.43-0.43,0.76-1.14,0.73-1.76
	c-0.02-0.39-0.11-0.79-0.29-1.14c0.22,0.01,0.44-0.01,0.66-0.06c0.03,0.09,0.05,0.18,0.1,0.27c0.1,0.31,0.27,0.58,0.52,0.8
	c0.23,0.24,0.49,0.42,0.8,0.52c0.3,0.16,0.62,0.23,0.96,0.21c0.22-0.03,0.44-0.06,0.66-0.09c0.42-0.12,0.79-0.33,1.1-0.64
	c0.45-0.49,0.73-1.09,0.73-1.76v-0.63c0.01-0.34-0.06-0.66-0.21-0.96c-0.1-0.31-0.27-0.58-0.52-0.8c-0.23-0.24-0.49-0.42-0.8-0.52
	c-0.3-0.16-0.62-0.23-0.96-0.21c-0.22,0.03-0.44,0.06-0.66,0.09c-0.04,0.01-0.08,0.04-0.12,0.05c-0.34-0.52-0.86-1.02-1.49-1.14
	l-1.05-0.21c-0.66-0.13-1.32-0.1-1.92,0.25c-0.52,0.3-1.01,0.9-1.15,1.49c-0.05,0.21-0.07,0.43-0.07,0.65
	c-0.27-0.38-0.65-0.68-1.14-0.84c0.08-0.04,0.16-0.07,0.24-0.12c0.14-0.07,0.28-0.14,0.42-0.21c0.29-0.16,0.52-0.37,0.7-0.64
	c0.22-0.24,0.37-0.52,0.45-0.85c0.01-0.04,0.01-0.09,0.02-0.13c0.06,0.03,0.12,0.07,0.19,0.09c0.3,0.16,0.62,0.23,0.96,0.21
	c0.22-0.03,0.44-0.06,0.66-0.09c0.42-0.12,0.79-0.33,1.1-0.64c0.13-0.17,0.26-0.34,0.39-0.5c0.17-0.29,0.28-0.6,0.32-0.93
	c0.05,0.02,0.09,0.05,0.13,0.06c0.3,0.16,0.62,0.23,0.96,0.21c0.22-0.03,0.44-0.06,0.66-0.09c0.42-0.12,0.79-0.33,1.1-0.64
	l0.13-0.16c0.14,0.02,0.28,0.04,0.42,0.06c0.45,0,0.87-0.11,1.26-0.34l0.42-0.21c0.29-0.16,0.52-0.37,0.7-0.64
	c0.22-0.24,0.37-0.52,0.45-0.85c0.09-0.3,0.11-0.6,0.05-0.9c0.01,0.01,0.01,0.02,0.02,0.02c0.13,0.19,0.28,0.35,0.43,0.5
	c0.04,0.11,0.09,0.23,0.16,0.34c0.16,0.29,0.37,0.52,0.64,0.7c0.24,0.22,0.52,0.37,0.85,0.45c0.22,0.03,0.44,0.06,0.66,0.09
	c0.37,0,0.72-0.08,1.05-0.24c0.15,0.3,0.35,0.57,0.61,0.79c-0.19-0.05-0.38-0.08-0.58-0.07c-0.22,0.03-0.44,0.06-0.66,0.09
	c-0.42,0.12-0.79,0.33-1.1,0.64c-0.13,0.17-0.26,0.34-0.39,0.5c-0.23,0.39-0.34,0.81-0.34,1.26v0.21c-0.01,0.34,0.06,0.66,0.21,0.96
	c0.1,0.31,0.27,0.58,0.52,0.8c0.23,0.24,0.49,0.42,0.8,0.52c0.3,0.16,0.62,0.23,0.96,0.21c0.22-0.03,0.44-0.06,0.66-0.09
	c0.42-0.12,0.79-0.33,1.1-0.64c0.13-0.17,0.26-0.34,0.39-0.5c0.23-0.39,0.34-0.81,0.34-1.26v-0.21c0.01-0.34-0.06-0.66-0.21-0.96
	c-0.1-0.31-0.27-0.58-0.52-0.8c-0.08-0.08-0.17-0.15-0.25-0.21c0.18,0.04,0.38,0.06,0.59,0.06
	C298.36,305.23,298.36,300.24,295.15,300.24z M274.4,312.56c-0.16-0.1-0.33-0.19-0.53-0.24c0.05-0.18,0.07-0.36,0.07-0.56
	c-0.03-0.22-0.06-0.44-0.09-0.66c-0.02-0.09-0.07-0.16-0.1-0.24c0.14,0.02,0.27,0.04,0.42,0.04c0.09,0,0.17-0.01,0.25-0.02
	C274.24,311.42,274.24,312.01,274.4,312.56z"/>
<path class="st356" d="M298.65,293.81c-0.01-0.33-0.11-0.64-0.3-0.93c-0.34-0.53-0.85-1-1.49-1.15c-0.22-0.03-0.44-0.06-0.66-0.09
	c-0.45,0-0.87,0.11-1.26,0.34c-0.21,0.14-0.42,0.28-0.63,0.42c-0.29,0.16-0.52,0.37-0.7,0.64c-0.22,0.24-0.37,0.52-0.45,0.85
	c-0.1,0.33-0.12,0.66-0.04,0.99c0.01,0.33,0.11,0.64,0.3,0.93c0.34,0.53,0.85,1,1.49,1.15c0.22,0.03,0.44,0.06,0.66,0.09
	c0.45,0,0.87-0.11,1.26-0.34c0.21-0.14,0.42-0.28,0.63-0.42c0.29-0.16,0.52-0.37,0.7-0.64c0.22-0.24,0.37-0.52,0.45-0.85
	C298.71,294.48,298.73,294.14,298.65,293.81z"/>
<path class="st356" d="M294.13,285.88c2.06-0.98,1.72-4.73-1.08-4.73c-0.74,0-1.31,0.27-1.71,0.68c-0.25,0.12-0.48,0.27-0.69,0.47
	c-0.14,0.14-0.28,0.28-0.42,0.42c-0.24,0.23-0.42,0.49-0.52,0.8c-0.16,0.3-0.23,0.62-0.21,0.96c-0.01,0.34,0.06,0.66,0.21,0.96
	c0.05,0.14,0.11,0.27,0.19,0.4c-0.07-0.05-0.14-0.11-0.22-0.15c-0.2-0.08-0.4-0.17-0.6-0.25c-0.44-0.12-0.88-0.12-1.33,0
	c-0.2,0.08-0.4,0.17-0.6,0.25c-0.37,0.22-0.67,0.52-0.89,0.89l-0.21,0.42c-0.18,0.29-0.28,0.6-0.3,0.93
	c-0.07,0.33-0.06,0.66,0.04,0.99c0.08,0.32,0.23,0.61,0.45,0.85c0.18,0.27,0.41,0.49,0.7,0.64l0.6,0.25c0.44,0.12,0.88,0.12,1.33,0
	l0.6-0.25c0.25-0.15,0.45-0.34,0.63-0.55c0.4,0.53,1.02,0.89,1.89,0.89c2.52,0,3.06-3.07,1.61-4.39c0.05-0.04,0.11-0.07,0.15-0.12
	L294.13,285.88z"/>
<path class="st356" d="M297.04,285.35c-3.21,0-3.21,4.99,0,4.99C300.25,290.33,300.25,285.35,297.04,285.35z"/>
<path class="st356" d="M295.57,275.48c-3.21,0-3.21,4.99,0,4.99C298.78,280.47,298.78,275.48,295.57,275.48z"/>
<path class="st356" d="M292.21,271.29c-0.42,0-0.77,0.09-1.08,0.24c0-0.02,0.01-0.03,0.01-0.05v-0.84c0-0.64-0.28-1.31-0.73-1.76
	c-0.08-0.08-0.16-0.14-0.25-0.21c0.34-0.72,0.34-1.61,0.01-2.33c1.29-1.38,0.72-4.27-1.74-4.27c-2.12,0-2.83,2.17-2.15,3.65
	c-0.95,1.01-0.89,2.85,0.19,3.75c-0.2,0.36-0.32,0.75-0.32,1.18v0.84c0,0.64,0.28,1.31,0.73,1.76c0.23,0.24,0.49,0.42,0.8,0.52
	c0.3,0.16,0.62,0.23,0.96,0.21c0.4-0.02,0.81-0.12,1.17-0.3c-0.03,0.88,0.33,1.78,1.11,2.26c-0.06,0-0.12-0.02-0.18-0.02
	c-3.21,0-3.21,4.99,0,4.99c2.69,0,3.12-3.51,1.29-4.63c0.06,0,0.12,0.02,0.18,0.02C295.42,276.28,295.43,271.29,292.21,271.29z"/>
<path class="st356" d="M286.85,259.27c-0.12-0.42-0.33-0.79-0.64-1.1l-0.42-0.42c-0.23-0.24-0.49-0.42-0.8-0.52
	c-0.3-0.16-0.62-0.23-0.96-0.21c-0.17-0.01-0.32,0.01-0.48,0.04c-0.04-0.08-0.07-0.17-0.11-0.25c-0.22-0.37-0.52-0.67-0.89-0.89
	c-0.14-0.07-0.28-0.14-0.42-0.21c-0.29-0.18-0.6-0.28-0.93-0.3c-0.33-0.07-0.66-0.06-0.99,0.04c-0.32,0.08-0.61,0.23-0.85,0.45
	c-0.27,0.18-0.49,0.41-0.64,0.7l-0.25,0.6c-0.12,0.44-0.12,0.88,0,1.33l0.25,0.6c0.22,0.37,0.52,0.67,0.89,0.89
	c0.14,0.07,0.28,0.14,0.42,0.21c0.29,0.18,0.6,0.28,0.93,0.3c0.27,0.06,0.54,0.05,0.8-0.01c0.12,0.28,0.28,0.55,0.5,0.77
	c0.14,0.14,0.28,0.28,0.42,0.42c0.23,0.24,0.49,0.42,0.8,0.52c0.3,0.16,0.62,0.23,0.96,0.21c0.34,0.01,0.66-0.06,0.96-0.21
	c0.31-0.1,0.58-0.27,0.8-0.52c0.13-0.17,0.26-0.34,0.39-0.5c0.23-0.39,0.34-0.81,0.34-1.26
	C286.91,259.71,286.88,259.49,286.85,259.27z"/>
<path class="st356" d="M225.88,328.42c-0.1-0.31-0.27-0.58-0.52-0.8c-0.23-0.24-0.49-0.42-0.8-0.52c-0.3-0.16-0.62-0.23-0.96-0.21
	c-0.22,0.03-0.44,0.06-0.66,0.09c-0.42,0.12-0.79,0.33-1.1,0.64c-0.45,0.49-0.73,1.09-0.73,1.76v0.63
	c-0.01,0.34,0.06,0.66,0.21,0.96c0.1,0.31,0.27,0.58,0.52,0.8c0.23,0.24,0.49,0.42,0.8,0.52c0.3,0.16,0.62,0.23,0.96,0.21
	c0.22-0.03,0.44-0.06,0.66-0.09c0.42-0.12,0.79-0.33,1.1-0.64c0.45-0.49,0.73-1.09,0.73-1.76v-0.63
	C226.11,329.04,226.04,328.72,225.88,328.42z"/>
<path class="st356" d="M198.64,285.35c-3.21,0-3.21,4.99,0,4.99C201.85,290.33,201.85,285.35,198.64,285.35z"/>
<path class="st358" d="M244.26,340.26c-0.12-0.42-0.33-0.79-0.64-1.1c-0.07-0.07-0.14-0.14-0.21-0.21c-0.23-0.24-0.49-0.42-0.8-0.52
	c-0.3-0.16-0.62-0.23-0.96-0.21c-0.34-0.01-0.66,0.06-0.96,0.21c-0.31,0.1-0.58,0.27-0.8,0.52c-0.13,0.17-0.26,0.34-0.39,0.5
	c-0.23,0.39-0.34,0.81-0.34,1.26c0.03,0.22,0.06,0.44,0.09,0.66c0.12,0.42,0.33,0.79,0.64,1.1l0.21,0.21
	c0.23,0.24,0.49,0.42,0.8,0.52c0.3,0.16,0.62,0.23,0.96,0.21c0.34,0.01,0.66-0.06,0.96-0.21c0.31-0.1,0.58-0.27,0.8-0.52
	c0.13-0.17,0.26-0.34,0.39-0.5c0.23-0.39,0.34-0.81,0.34-1.26C244.32,340.7,244.29,340.48,244.26,340.26z"/>
<path class="st358" d="M243.21,332.49c-0.12-0.42-0.33-0.79-0.64-1.1c-0.49-0.45-1.09-0.73-1.76-0.73h-0.63
	c-0.34-0.01-0.66,0.06-0.96,0.21c-0.31,0.1-0.58,0.27-0.8,0.52c-0.24,0.23-0.42,0.49-0.52,0.8c-0.04,0.08-0.07,0.17-0.1,0.26
	c-0.09,0.03-0.18,0.05-0.26,0.1c-0.31,0.1-0.58,0.27-0.8,0.52c-0.13,0.17-0.26,0.34-0.39,0.5c-0.23,0.39-0.34,0.81-0.34,1.26
	c0.03,0.22,0.06,0.44,0.09,0.66c0.12,0.42,0.33,0.79,0.64,1.1l0.21,0.21c0.23,0.24,0.49,0.42,0.8,0.52c0.3,0.16,0.62,0.23,0.96,0.21
	c0.34,0.01,0.66-0.06,0.96-0.21c0.31-0.1,0.58-0.27,0.8-0.52c0.13-0.17,0.26-0.34,0.39-0.5c0.13-0.22,0.21-0.45,0.27-0.68
	c0.22-0.03,0.44-0.08,0.64-0.19c0.31-0.1,0.58-0.27,0.8-0.52c0.24-0.23,0.42-0.49,0.52-0.8c0.16-0.3,0.23-0.62,0.21-0.96
	C243.27,332.94,243.24,332.71,243.21,332.49z"/>
<path class="st358" d="M229.03,337.65c-0.1-0.31-0.27-0.58-0.52-0.8c-0.23-0.24-0.49-0.42-0.8-0.52c-0.3-0.16-0.62-0.23-0.96-0.21
	c-0.22,0.03-0.44,0.06-0.66,0.09c-0.42,0.12-0.79,0.33-1.1,0.64c-0.13,0.17-0.26,0.34-0.39,0.5c-0.23,0.39-0.34,0.81-0.34,1.26v0.21
	c-0.01,0.34,0.06,0.66,0.21,0.96c0.1,0.31,0.27,0.58,0.52,0.8c0.23,0.24,0.49,0.42,0.8,0.52c0.3,0.16,0.62,0.23,0.96,0.21
	c0.22-0.03,0.44-0.06,0.66-0.09c0.42-0.12,0.79-0.33,1.1-0.64c0.13-0.17,0.26-0.34,0.39-0.5c0.23-0.39,0.34-0.81,0.34-1.26v-0.21
	C229.26,338.27,229.19,337.95,229.03,337.65z"/>
<path class="st358" d="M230.95,339.06c-3.21,0-3.21,4.99,0,4.99C234.16,344.04,234.16,339.06,230.95,339.06z"/>
<path class="st358" d="M262.39,340.38c-0.1-0.31-0.27-0.58-0.52-0.8c-0.23-0.24-0.49-0.42-0.8-0.52c-0.3-0.16-0.62-0.23-0.96-0.21
	c-0.22,0.03-0.44,0.06-0.66,0.09c-0.42,0.12-0.79,0.33-1.1,0.64c-0.13,0.17-0.26,0.34-0.39,0.5c-0.23,0.39-0.34,0.81-0.34,1.26v0.21
	c-0.01,0.34,0.06,0.66,0.21,0.96c0.1,0.31,0.27,0.58,0.52,0.8c0.23,0.24,0.49,0.42,0.8,0.52c0.3,0.16,0.62,0.23,0.96,0.21
	c0.22-0.03,0.44-0.06,0.66-0.09c0.42-0.12,0.79-0.33,1.1-0.64c0.13-0.17,0.26-0.34,0.39-0.5c0.23-0.39,0.34-0.81,0.34-1.26v-0.21
	C262.62,341,262.55,340.68,262.39,340.38z"/>
<path class="st358" d="M258.72,331.53c0.12-1.33-0.67-2.76-2.39-2.76c-3.11,0-3.2,4.66-0.29,4.96c-0.12,1.33,0.67,2.76,2.39,2.76
	C261.54,336.49,261.63,331.83,258.72,331.53z"/>
<path class="st358" d="M274.38,328.15c-0.63,0-1.14,0.2-1.52,0.51c0.01-0.11,0.03-0.21,0.03-0.33c-0.03-0.22-0.06-0.44-0.09-0.66
	c-0.12-0.42-0.33-0.79-0.64-1.1c-0.17-0.13-0.34-0.26-0.5-0.39c-0.39-0.23-0.81-0.34-1.26-0.34h-0.21
	c-0.34-0.01-0.66,0.06-0.96,0.21c-0.31,0.1-0.58,0.27-0.8,0.52c-0.24,0.23-0.42,0.49-0.52,0.8c-0.16,0.3-0.23,0.62-0.21,0.96
	c0.03,0.22,0.06,0.44,0.09,0.66c0.12,0.42,0.33,0.79,0.64,1.1c0.17,0.13,0.34,0.26,0.5,0.39c0.39,0.23,0.81,0.34,1.26,0.34h0.21
	c0.34,0.01,0.66-0.06,0.96-0.21c0.25-0.08,0.46-0.22,0.65-0.39c-0.2,1.37,0.59,2.91,2.38,2.91
	C277.59,333.13,277.59,328.15,274.38,328.15z"/>
<path class="st358" d="M269.53,332.21c-0.1-0.31-0.27-0.58-0.52-0.8c-0.17-0.13-0.34-0.26-0.5-0.39c-0.39-0.23-0.81-0.34-1.26-0.34
	c-0.22,0.03-0.44,0.06-0.66,0.09c-0.42,0.12-0.79,0.33-1.1,0.64c-0.14,0.14-0.28,0.28-0.42,0.42c-0.24,0.23-0.42,0.49-0.52,0.8
	c-0.16,0.3-0.23,0.62-0.21,0.96c-0.01,0.34,0.06,0.66,0.21,0.96c0.1,0.31,0.27,0.58,0.52,0.8c0.17,0.13,0.34,0.26,0.5,0.39
	c0.39,0.23,0.81,0.34,1.26,0.34c0.22-0.03,0.44-0.06,0.66-0.09c0.42-0.12,0.79-0.33,1.1-0.64c0.14-0.14,0.28-0.28,0.42-0.42
	c0.24-0.23,0.42-0.49,0.52-0.8c0.16-0.3,0.23-0.62,0.21-0.96C269.76,332.82,269.69,332.5,269.53,332.21z"/>
<path class="st358" d="M274.38,322.27c-3.21,0-3.21,4.99,0,4.99C277.59,327.26,277.59,322.27,274.38,322.27z"/>
<path class="st358" d="M294.07,317.72c-0.1-0.31-0.27-0.58-0.52-0.8c-0.23-0.24-0.49-0.42-0.8-0.52c-0.3-0.16-0.62-0.23-0.96-0.21
	c-0.04,0.01-0.08,0.01-0.12,0.02c-0.07-1.19-0.86-2.32-2.4-2.32c-0.41,0-0.76,0.08-1.07,0.22c-0.27-0.93-1.03-1.69-2.29-1.69
	c-3.04,0-3.2,4.47-0.48,4.94c-0.09,0.03-0.19,0.05-0.27,0.1c-0.31,0.1-0.58,0.27-0.8,0.52c-0.15,0.14-0.27,0.31-0.37,0.49
	c-0.29-0.9-1.04-1.64-2.28-1.64c-3.2,0-3.21,4.95-0.03,4.98c-0.12,0.19-0.21,0.4-0.27,0.62c-0.03,0.22-0.06,0.44-0.09,0.66
	c0,0.45,0.11,0.87,0.34,1.26l0.21,0.42c0.16,0.29,0.37,0.52,0.64,0.7c0.24,0.22,0.52,0.37,0.85,0.45c0.33,0.1,0.66,0.12,0.99,0.04
	c0.33-0.02,0.64-0.11,0.93-0.3c0.17-0.13,0.34-0.26,0.5-0.39c0.31-0.31,0.52-0.68,0.64-1.1c0.03-0.22,0.06-0.44,0.09-0.66
	c0-0.45-0.11-0.87-0.34-1.26l-0.01-0.02h0.38c0.34,0.01,0.66-0.06,0.96-0.21c0.31-0.1,0.58-0.27,0.8-0.52
	c0.24-0.23,0.41-0.49,0.52-0.8c0.16-0.3,0.23-0.62,0.21-0.96c-0.03-0.22-0.06-0.44-0.09-0.66c-0.02-0.09-0.07-0.16-0.1-0.24
	c0.14,0.02,0.27,0.04,0.42,0.04c0.01,0,0.02,0,0.02,0v0.24c-0.01,0.34,0.06,0.66,0.21,0.96c0.1,0.31,0.27,0.58,0.52,0.8
	c0.23,0.24,0.49,0.42,0.8,0.52c0.3,0.16,0.62,0.23,0.96,0.21c0.22-0.03,0.44-0.06,0.66-0.09c0.42-0.12,0.79-0.33,1.1-0.64
	c0.13-0.17,0.26-0.34,0.39-0.5c0.23-0.39,0.34-0.81,0.34-1.26v-0.42C294.3,318.34,294.23,318.02,294.07,317.72z"/>
<path class="st358" d="M295.78,308.84c-0.73,0-1.28,0.26-1.68,0.66c-0.4-0.4-0.95-0.66-1.68-0.66c-3.21,0-3.21,4.99,0,4.99
	c0.73,0,1.28-0.26,1.68-0.66c0.4,0.4,0.95,0.66,1.68,0.66C298.99,313.83,298.99,308.84,295.78,308.84z"/>
<path class="st358" d="M302.49,295.84c-1.29,0-2.05,0.8-2.31,1.76c-0.2-0.05-0.4-0.08-0.63-0.08c-2.07,0-2.8,2.07-2.2,3.54
	c-0.6,1.47,0.13,3.54,2.2,3.54c2.07,0,2.79-2.06,2.2-3.54c0.04-0.11,0.08-0.21,0.11-0.33c0.2,0.05,0.4,0.09,0.63,0.09
	C305.7,300.82,305.71,295.84,302.49,295.84z"/>
<path class="st358" d="M302.88,292.12c-0.1-0.31-0.27-0.58-0.52-0.8c-0.23-0.24-0.49-0.42-0.8-0.52c-0.3-0.16-0.62-0.23-0.96-0.21
	c-0.22,0.03-0.44,0.06-0.66,0.09c-0.42,0.12-0.79,0.33-1.1,0.64c-0.13,0.17-0.26,0.34-0.39,0.5c-0.23,0.39-0.34,0.81-0.34,1.26v0.42
	c-0.01,0.34,0.06,0.66,0.21,0.96c0.1,0.31,0.27,0.58,0.52,0.8c0.23,0.24,0.49,0.42,0.8,0.52c0.3,0.16,0.62,0.23,0.96,0.21
	c0.22-0.03,0.44-0.06,0.66-0.09c0.42-0.12,0.79-0.33,1.1-0.64c0.13-0.17,0.26-0.34,0.39-0.5c0.23-0.39,0.34-0.81,0.34-1.26v-0.42
	C303.11,292.74,303.04,292.42,302.88,292.12z"/>
<path class="st358" d="M213.92,331.57c-0.09-0.29-0.26-0.54-0.47-0.75c0.05-0.06,0.09-0.12,0.14-0.18c0.23-0.39,0.34-0.81,0.34-1.26
	v-0.21c0.01-0.34-0.06-0.66-0.21-0.96c-0.1-0.31-0.27-0.58-0.52-0.8c-0.23-0.24-0.49-0.42-0.8-0.52c-0.3-0.16-0.62-0.23-0.96-0.21
	c-0.22,0.03-0.44,0.06-0.66,0.09c-0.42,0.12-0.79,0.33-1.1,0.64c-0.05,0.06-0.1,0.13-0.15,0.19c0-0.01,0-0.01-0.01-0.02
	c-0.1-0.31-0.27-0.58-0.52-0.8c-0.17-0.13-0.34-0.26-0.5-0.39c-0.39-0.23-0.81-0.34-1.26-0.34l-0.66,0.09
	c-0.42,0.12-0.79,0.33-1.1,0.64l-0.21,0.21c-0.24,0.23-0.41,0.49-0.52,0.8c-0.16,0.3-0.23,0.62-0.21,0.96
	c-0.01,0.34,0.06,0.66,0.21,0.96c0.1,0.31,0.27,0.58,0.52,0.8c0.17,0.13,0.34,0.26,0.5,0.39c0.39,0.23,0.81,0.34,1.26,0.34
	c0.22-0.03,0.44-0.06,0.66-0.09c0.42-0.12,0.79-0.33,1.1-0.64l0.21-0.21c0.04-0.04,0.06-0.08,0.1-0.12c0.02,0.05,0.03,0.1,0.06,0.15
	c0.09,0.29,0.25,0.53,0.47,0.75c-0.29,0.42-0.48,0.9-0.48,1.44v0.63c-0.01,0.34,0.06,0.66,0.21,0.96c0.1,0.31,0.27,0.58,0.52,0.8
	c0.23,0.24,0.49,0.42,0.8,0.52c0.3,0.16,0.62,0.23,0.96,0.21c0.22-0.03,0.44-0.06,0.66-0.09c0.42-0.12,0.79-0.33,1.1-0.64
	c0.45-0.49,0.73-1.09,0.73-1.76v-0.63C214.15,332.18,214.08,331.86,213.92,331.57z"/>
<path class="st358" d="M209.01,320.6c0.07-0.05,0.14-0.11,0.2-0.16c0.31-0.31,0.52-0.68,0.64-1.1c0.03-0.22,0.06-0.44,0.09-0.66
	c0-0.45-0.11-0.87-0.34-1.26c-0.07-0.14-0.14-0.28-0.21-0.42c-0.16-0.29-0.37-0.52-0.64-0.7c-0.24-0.22-0.52-0.37-0.85-0.45
	c-0.33-0.1-0.66-0.12-0.99-0.04c-0.33,0.02-0.64,0.11-0.93,0.3c-0.17,0.13-0.34,0.26-0.5,0.39c-0.31,0.31-0.52,0.68-0.64,1.1
	c-0.03,0.22-0.06,0.44-0.09,0.66c0,0.45,0.11,0.87,0.34,1.26c0.07,0.14,0.14,0.28,0.21,0.42c0.16,0.29,0.37,0.52,0.64,0.7
	c0.24,0.22,0.52,0.37,0.85,0.45c0.18,0.06,0.36,0.08,0.54,0.09c-1.47,1.31-0.95,4.41,1.59,4.41
	C212.1,325.58,212.13,320.7,209.01,320.6z"/>
<path class="st358" d="M202.62,319.33c-3.21,0-3.21,4.99,0,4.99C205.83,324.32,205.84,319.33,202.62,319.33z"/>
<path class="st358" d="M203.85,310.17c-0.1-0.31-0.27-0.58-0.52-0.8c-0.23-0.24-0.49-0.42-0.8-0.52c-0.3-0.16-0.62-0.23-0.96-0.21
	c-0.22,0.03-0.44,0.06-0.66,0.09c-0.42,0.12-0.79,0.33-1.1,0.64c-0.01,0.01-0.01,0.02-0.02,0.02c-0.01-0.01-0.01-0.02-0.02-0.02
	c-0.19-0.21-0.42-0.35-0.67-0.45c0.15-0.18,0.27-0.38,0.35-0.6c0.16-0.3,0.23-0.62,0.21-0.96c-0.03-0.22-0.06-0.44-0.09-0.66
	c-0.12-0.42-0.33-0.79-0.64-1.1c-0.02-0.02-0.05-0.04-0.07-0.06c0.11-0.29,0.17-0.59,0.17-0.91v-0.42c0.01-0.34-0.06-0.66-0.21-0.96
	c-0.1-0.31-0.27-0.58-0.52-0.8c-0.23-0.24-0.49-0.42-0.8-0.52c-0.3-0.16-0.62-0.23-0.96-0.21c-0.22,0.03-0.44,0.06-0.66,0.09
	c-0.42,0.12-0.79,0.33-1.1,0.64c-0.13,0.17-0.26,0.34-0.39,0.5c-0.23,0.39-0.34,0.81-0.34,1.26v0.42c-0.01,0.34,0.06,0.66,0.21,0.96
	c0.09,0.28,0.25,0.52,0.46,0.73c-0.01,0.03-0.03,0.05-0.04,0.08c-0.16,0.3-0.23,0.62-0.21,0.96c0.03,0.22,0.06,0.44,0.09,0.66
	c0.12,0.42,0.33,0.79,0.64,1.1c0.17,0.13,0.34,0.26,0.5,0.39c0.1,0.06,0.21,0.11,0.31,0.15c-0.31,0.43-0.5,0.92-0.5,1.47v0.63
	c-0.01,0.34,0.06,0.66,0.21,0.96c0.1,0.31,0.27,0.58,0.52,0.8c0.23,0.24,0.49,0.42,0.8,0.52c0.3,0.16,0.62,0.23,0.96,0.21
	c0.22-0.03,0.44-0.06,0.66-0.09c0.42-0.12,0.79-0.33,1.1-0.64c0.04-0.05,0.08-0.1,0.11-0.15c0.21,0.21,0.45,0.36,0.73,0.45
	c0.3,0.16,0.62,0.23,0.96,0.21c0.22-0.03,0.44-0.06,0.66-0.09c0.42-0.12,0.79-0.33,1.1-0.64c0.13-0.17,0.26-0.34,0.39-0.5
	c0.23-0.39,0.34-0.81,0.34-1.26v-0.42C204.08,310.78,204.01,310.46,203.85,310.17z"/>
<path class="st358" d="M303.01,285.29c-0.08-0.2-0.17-0.4-0.25-0.6c-0.22-0.37-0.52-0.67-0.89-0.89l-0.29-0.12
	c0.32-0.43,0.57-0.97,0.52-1.5c-0.03-0.31-0.06-0.63-0.13-0.93c-0.07-0.28-0.23-0.62-0.34-0.85c-0.01-0.02-0.03-0.04-0.04-0.06
	c-0.01-0.09-0.03-0.19-0.04-0.28c-0.12-0.42-0.33-0.79-0.64-1.1c-0.13-0.1-0.27-0.21-0.4-0.31c-0.05-0.23-0.13-0.46-0.26-0.66
	c-0.28-0.42-0.56-0.84-0.84-1.26c-0.12-0.17-0.25-0.33-0.39-0.48c-0.15-0.34-0.37-0.65-0.66-0.88c0.26-1.4-0.52-3.02-2.36-3.02
	c-0.12,0-0.23,0.02-0.34,0.03c0.53-1.23,0.11-2.92-1.27-3.43c-0.12-0.08-0.25-0.15-0.4-0.2c-0.01-0.89-0.41-1.77-1.24-2.2
	c0.18-0.36,0.28-0.74,0.28-1.14v-0.42c0.01-0.34-0.06-0.66-0.21-0.96c-0.1-0.31-0.27-0.58-0.52-0.8c-0.13-0.14-0.28-0.25-0.44-0.34
	c0.1-0.72-0.07-1.48-0.51-2.05c-0.22-0.73-0.74-1.36-1.57-1.59c-0.12-1.14-0.91-2.2-2.39-2.2c-0.32,0-0.59,0.06-0.84,0.15
	c-0.32-0.81-1.03-1.36-1.93-1.53c-0.18-0.03-0.36-0.08-0.53-0.13c-0.06-0.03-0.12-0.06-0.18-0.1c-0.03-0.02-0.04-0.02-0.06-0.04
	c-0.24-0.2-0.49-0.36-0.76-0.48c-0.36-0.24-0.81-0.39-1.36-0.39c-0.29,0-0.54,0.05-0.78,0.12c0.19-1.01-0.16-2.16-1.15-2.65
	c-0.12-0.06-0.24-0.12-0.36-0.18c-0.36-0.73-1.06-1.29-2.12-1.29c-0.08,0-0.16,0.01-0.24,0.02c-0.08-0.06-0.18-0.11-0.27-0.16
	c-0.2-0.31-0.45-0.58-0.77-0.72c-0.67-0.29-1.33-0.57-2-0.86c-0.39-0.59-1.04-1.01-1.96-1.01c-0.47,0-0.86,0.12-1.19,0.3
	c-0.16-0.13-0.32-0.25-0.49-0.38c-0.39-0.23-0.81-0.34-1.26-0.34h-0.07c-0.17-0.23-0.37-0.44-0.6-0.6
	c-0.08-0.12-0.18-0.24-0.29-0.35c-0.17-0.13-0.34-0.26-0.5-0.39c-0.39-0.23-0.81-0.34-1.26-0.34c-0.22,0.03-0.44,0.06-0.66,0.09
	c-0.42,0.12-0.79,0.33-1.1,0.64c-0.07,0.07-0.14,0.14-0.21,0.21c-0.02,0.01-0.03,0.03-0.04,0.05c-0.26-0.6-0.73-1.1-1.44-1.3
	c-0.35-0.19-0.74-0.31-1.17-0.31h-0.26c-0.32-0.15-0.66-0.24-1-0.21c-0.23,0.03-0.45,0.05-0.68,0.08c-0.02-0.01-0.05-0.02-0.07-0.02
	c-0.11-0.22-0.24-0.42-0.42-0.59c-0.49-0.45-1.09-0.73-1.76-0.73h-1.05c-0.48,0-0.98,0.16-1.39,0.43c-0.03,0-0.05-0.01-0.08-0.01
	c-0.09,0.01-0.18,0.02-0.27,0.04c-0.05-0.01-0.11-0.01-0.17-0.02c-0.4-0.39-0.94-0.65-1.66-0.65c-0.51,0-0.93,0.14-1.28,0.35
	c-0.06-0.02-0.12-0.05-0.19-0.06c-0.16-0.12-0.32-0.22-0.51-0.28c-0.3-0.16-0.62-0.23-0.96-0.21c-0.22,0.03-0.44,0.06-0.66,0.09
	c-0.36,0.1-0.67,0.28-0.94,0.52c-0.05,0.02-0.08,0.05-0.13,0.07c-0.12-0.02-0.24-0.03-0.36-0.05c-0.37,0-0.72,0.08-1.06,0.24
	c-0.14-0.11-0.28-0.21-0.41-0.32c-0.39-0.23-0.81-0.34-1.26-0.34h-0.21c-0.34-0.01-0.66,0.06-0.96,0.21
	c-0.26,0.08-0.48,0.23-0.69,0.42c-0.01,0-0.02,0-0.03,0c-0.61,0-1.1,0.18-1.48,0.47c-0.37-0.29-0.86-0.47-1.46-0.47
	c-1.34,0-2.12,0.87-2.34,1.89c-0.4-0.38-0.94-0.63-1.65-0.63c-1.27,0-2.03,0.79-2.3,1.73c-0.38-0.29-0.87-0.47-1.48-0.47
	c-1.14,0-1.86,0.63-2.2,1.44c-0.1-0.04-0.19-0.09-0.3-0.11c-0.62-0.14-1.38-0.13-1.92,0.25c-0.49,0.35-0.98,0.7-1.47,1.05
	c-0.08,0.06-0.16,0.12-0.24,0.19c-0.52,0.13-0.92,0.42-1.2,0.79c-0.07,0.03-0.14,0.06-0.21,0.1c-0.17,0.13-0.34,0.26-0.5,0.39
	c-0.08,0.08-0.13,0.17-0.2,0.26c-0.07,0.05-0.14,0.09-0.21,0.14c-0.27,0.18-0.49,0.41-0.64,0.7c-0.1,0.16-0.16,0.33-0.21,0.51
	c-0.53,0.26-0.9,0.71-1.1,1.23c-0.4-0.26-0.86-0.43-1.34-0.4c-0.22,0.03-0.44,0.06-0.66,0.09c-0.33,0.09-0.62,0.26-0.88,0.47
	c-0.47,0.17-0.83,0.48-1.08,0.86c-0.14,0.11-0.28,0.22-0.42,0.34c-0.05,0.04-0.09,0.09-0.14,0.13c-0.24,0.11-0.45,0.26-0.63,0.44
	c-0.54,0.07-1,0.28-1.44,0.63c-1.06,0.15-1.69,0.89-1.91,1.76c-0.46,0.27-0.77,0.69-0.95,1.17c-0.1-0.01-0.19-0.03-0.3-0.03
	c-1.31,0-2.08,0.84-2.32,1.82c-0.23,0.14-0.44,0.31-0.6,0.52c-0.49,0.08-0.97,0.3-1.37,0.67c-0.06,0.06-0.11,0.12-0.17,0.18
	c-0.18-0.04-0.37-0.06-0.57-0.06c-2.06,0-2.79,2.04-2.21,3.52c-0.58,0.51-0.86,1.3-0.81,2.08c-0.3,0.34-0.49,0.75-0.58,1.2
	c-0.36,0.28-0.61,0.67-0.76,1.09c-0.55,0.2-1.15,0.56-1.39,1.11c-0.27,0.63-0.54,1.27-0.82,1.9c-0.08,0.2-0.15,0.39-0.21,0.58
	c-0.05,0.07-0.1,0.14-0.14,0.22c-0.56,0.3-1.01,0.8-1.16,1.48c-0.14,0.63-0.28,1.26-0.42,1.89c0,0.02,0,0.04-0.01,0.06
	c-0.28,0.44-0.42,0.97-0.41,1.5c-0.05,0.03-0.11,0.04-0.16,0.08c-0.17,0.13-0.34,0.26-0.5,0.39c-0.31,0.31-0.52,0.68-0.64,1.1
	c-0.1,0.27-0.21,0.53-0.31,0.8c-0.23,0.26-0.41,0.57-0.46,0.9c-0.05,0.3-0.1,0.59-0.15,0.89c-0.47,0.93-0.36,2.16,0.31,2.95
	c-2.46,0.11-2.93,3.22-1.39,4.47c-0.09,0.3-0.18,0.61-0.29,0.9c-0.01,0.03-0.01,0.07-0.02,0.1c-0.87,0.39-1.5,1.22-1.5,2.25v1.47
	c0,0.64,0.28,1.31,0.73,1.76c0.43,0.43,1.14,0.76,1.76,0.73c1.35-0.06,2.49-1.1,2.49-2.49v-0.94c0.6-0.3,1.08-0.84,1.34-1.56
	c0.5-1.35,0.74-2.78,0.78-4.21c0.02-0.76-0.38-1.48-0.98-1.96c0.27-0.13,0.49-0.32,0.67-0.53c0.4-0.32,0.75-0.76,0.83-1.26
	c0.06-0.38,0.13-0.76,0.19-1.14c0.17-0.23,0.3-0.48,0.38-0.77c0.14-0.35,0.27-0.7,0.41-1.05c0.08-0.25,0.09-0.49,0.07-0.74
	c0.56-0.29,0.92-0.8,1.11-1.38c0.26-0.28,0.47-0.61,0.56-1.01c0.1-0.45,0.2-0.9,0.3-1.34c0.41-0.3,0.68-0.73,0.83-1.2
	c0.12-0.13,0.22-0.27,0.29-0.43c0.27-0.63,0.54-1.27,0.82-1.9c0.02-0.04,0.03-0.07,0.04-0.11c1.03-0.28,1.58-1.17,1.68-2.11
	c0.6-0.51,0.88-1.31,0.84-2.09c0.05-0.05,0.09-0.1,0.13-0.16c0.95-0.14,1.56-0.77,1.82-1.53c0.3-0.29,0.53-0.64,0.62-1.08
	c0.03-0.17,0.08-0.32,0.13-0.49c0.02-0.03,0.04-0.06,0.05-0.08c0.02-0.04,0.09-0.15,0.15-0.23c0.07-0.08,0.15-0.15,0.23-0.23
	c0.04-0.04,0.07-0.09,0.11-0.13c0.84-0.12,1.41-0.6,1.72-1.23c0.71-0.32,1.13-0.97,1.28-1.69c0.06,0,0.11,0.02,0.18,0.02
	c1.02,0,1.72-0.51,2.09-1.2c0.18-0.1,0.35-0.22,0.52-0.36c0.46-0.4,0.93-0.79,1.39-1.19c0.73-0.06,1.27-0.39,1.64-0.85
	c0.27-0.12,0.53-0.28,0.74-0.49c0.43-0.34,0.85-0.69,1.28-1.03c0.21-0.17,0.37-0.42,0.49-0.7c0.35,0.22,0.78,0.36,1.3,0.36
	c1.06,0,1.76-0.55,2.12-1.28c0.38-0.18,0.68-0.46,0.9-0.79c0.28,0.11,0.6,0.18,0.96,0.18c1.71,0,2.5-1.41,2.39-2.74
	c0.37-0.28,0.69-0.59,0.89-1c0.27,0.1,0.57,0.17,0.92,0.17c1.27,0,2.03-0.79,2.3-1.73c0.38,0.29,0.87,0.47,1.48,0.47
	c1.34,0,2.12-0.87,2.34-1.89c0.4,0.38,0.94,0.63,1.65,0.63c0.53,0,0.96-0.15,1.31-0.37c0.08,0.16,0.17,0.31,0.29,0.44
	c0.18,0.27,0.41,0.49,0.7,0.64c0.29,0.18,0.6,0.28,0.93,0.3c0.33,0.07,0.66,0.06,0.99-0.04l0.6-0.25c0.3-0.18,0.53-0.41,0.73-0.69
	c0.03-0.02,0.06-0.04,0.09-0.06c0.1,0.02,0.2,0.02,0.3,0.03c0.1,0.05,0.2,0.1,0.31,0.13c0.22,0.03,0.44,0.06,0.66,0.09
	c0.45,0,0.87-0.11,1.26-0.34c0.16-0.11,0.32-0.21,0.47-0.32c0.12,0.02,0.24,0.03,0.37,0.03c0.27,0,0.51-0.04,0.74-0.11
	c0.22,0.06,0.46,0.11,0.73,0.11c0.5,0,0.92-0.13,1.26-0.34c0.19,0.06,0.41,0.1,0.64,0.11c0.32,0.31,0.74,0.53,1.26,0.6
	c0.03,0.01,0.05,0.03,0.07,0.04c0.3,0.16,0.62,0.23,0.96,0.21c0.22-0.03,0.44-0.06,0.66-0.09c0.27-0.08,0.5-0.21,0.73-0.36
	c0.11,0.21,0.24,0.4,0.41,0.57c0.46,0.42,1.12,0.8,1.76,0.73c0.55-0.06,1.09-0.12,1.64-0.18c0.27,0.11,0.57,0.18,0.88,0.18h0.01
	c0.3,0.13,0.64,0.21,1.03,0.21c0.74,0,1.3-0.27,1.7-0.69c0.04,0.09,0.08,0.19,0.13,0.28c0.35,0.54,0.85,0.99,1.49,1.15
	c0.28,0.07,0.56,0.14,0.84,0.21c0.08,0.02,0.17,0.02,0.25,0.04c0.26,0.95,1.02,1.74,2.3,1.74c0.15,0,0.29-0.02,0.43-0.04
	c0.29,0.22,0.64,0.37,1.06,0.43c0.4,0.51,1.02,0.87,1.87,0.87c0.47,0,0.86-0.12,1.2-0.3c0.01,0.01,0.02,0.01,0.04,0.02
	c0.03,0.01,0.07,0.03,0.1,0.04c0.28,0.45,0.71,0.81,1.28,0.98c0.15,0.15,0.32,0.29,0.53,0.39c0.34,0.17,0.69,0.34,1.03,0.51
	c0.37,0.38,0.89,0.63,1.55,0.66c0.39,0.09,0.78,0.11,1.19-0.01c0.06-0.02,0.12-0.05,0.18-0.07c-0.22,1.16,0.28,2.48,1.51,2.89
	c0.99,0.72,2.08,1.11,3.35,1.21c0.3,0.02,0.6-0.04,0.89-0.15c0.23,0.7,0.76,1.28,1.56,1.5c0.05,0.48,0.22,0.93,0.51,1.31
	c0.15,0.52,0.45,0.98,0.9,1.3c-0.03,0.15-0.04,0.29-0.05,0.45v0.42c-0.01,0.34,0.06,0.66,0.21,0.96c0.1,0.31,0.27,0.58,0.52,0.8
	c0.19,0.2,0.41,0.34,0.66,0.45c-0.56,1.23-0.16,2.93,1.22,3.47c0,0.98,0.51,1.94,1.5,2.31c0.36,0.23,0.79,0.38,1.33,0.38
	c0.12,0,0.23-0.02,0.34-0.03c-0.45,1.03-0.23,2.38,0.66,3.09c-0.14,0.75,0.03,1.56,0.5,2.15c0.04,0.09,0.07,0.18,0.13,0.26
	c0.28,0.42,0.56,0.84,0.84,1.26c0.1,0.14,0.2,0.28,0.31,0.4c0.02,0.16,0.04,0.31,0.06,0.47c0.09,0.34,0.27,0.63,0.48,0.9
	c-0.19-0.04-0.38-0.07-0.6-0.07c-0.08,0-0.15,0.01-0.23,0.01c-0.19-0.63-0.6-1.18-1.23-1.47c-0.13-0.12-0.27-0.23-0.43-0.3
	c-0.28-0.14-0.56-0.28-0.84-0.42c-0.29-0.18-0.6-0.28-0.93-0.3c-0.33-0.07-0.66-0.06-0.99,0.04c-0.32,0.08-0.61,0.23-0.85,0.45
	c-0.27,0.18-0.49,0.41-0.64,0.7c-0.31,0.58-0.46,1.28-0.25,1.92c0.19,0.6,0.57,1.2,1.15,1.49l0.84,0.42c0.06,0.04,0.13,0.06,0.2,0.1
	c0.4,0.4,0.95,0.66,1.69,0.66c0.08,0,0.15-0.02,0.23-0.02c0.03,0.09,0.06,0.19,0.1,0.28c-0.2,0.01-0.39,0.03-0.59,0.08
	c-0.2,0.08-0.4,0.17-0.6,0.25c-0.37,0.22-0.67,0.52-0.89,0.89l-0.21,0.42c-0.18,0.29-0.28,0.6-0.3,0.93
	c-0.07,0.33-0.06,0.66,0.04,0.99c0.08,0.32,0.23,0.61,0.45,0.85c0.04,0.06,0.09,0.1,0.13,0.15c-0.01-0.01-0.02-0.02-0.03-0.03
	c-0.39-0.23-0.81-0.34-1.26-0.34c-0.22,0.03-0.44,0.06-0.66,0.09c-0.42,0.12-0.79,0.33-1.1,0.64c-0.07,0.07-0.14,0.14-0.21,0.21
	c-0.24,0.23-0.42,0.49-0.52,0.8c-0.16,0.3-0.23,0.62-0.21,0.96c-0.01,0.18,0.01,0.36,0.05,0.52c-1.16,0.63-1.49,2.15-1,3.3
	c-0.04,0.08-0.08,0.16-0.12,0.24c-0.05-0.05-0.08-0.11-0.14-0.16c-0.23-0.24-0.49-0.42-0.8-0.52c-0.3-0.16-0.62-0.23-0.96-0.21
	c-0.22,0.03-0.44,0.06-0.66,0.09c-0.42,0.12-0.79,0.33-1.1,0.64c-0.13,0.17-0.26,0.34-0.39,0.5c-0.23,0.39-0.34,0.81-0.34,1.26v0.21
	c-0.01,0.34,0.06,0.66,0.21,0.96c0.1,0.31,0.27,0.58,0.52,0.8c0.23,0.24,0.49,0.42,0.8,0.52c0.3,0.16,0.62,0.23,0.96,0.21
	c0.22-0.03,0.44-0.06,0.66-0.09c0.42-0.12,0.79-0.33,1.1-0.64c0.13-0.17,0.26-0.34,0.39-0.5c0.05-0.09,0.1-0.19,0.14-0.29
	c0.05,0.05,0.08,0.11,0.14,0.16c0.23,0.24,0.49,0.42,0.8,0.52c0.3,0.16,0.62,0.23,0.96,0.21c0.22-0.03,0.44-0.06,0.66-0.09
	c0.42-0.12,0.79-0.33,1.1-0.64c0.1-0.13,0.2-0.26,0.3-0.38c0.06,0.06,0.13,0.12,0.2,0.18c-0.27,1.4,0.51,3.04,2.35,3.04
	c2.14,0,2.84-2.21,2.14-3.68c0.08-0.06,0.16-0.12,0.24-0.18c0.31-0.31,0.52-0.68,0.64-1.1c0.03-0.22,0.06-0.44,0.09-0.66
	c0-0.45-0.11-0.87-0.34-1.26c-0.07-0.14-0.14-0.28-0.21-0.42c-0.16-0.29-0.37-0.52-0.64-0.7c-0.24-0.22-0.52-0.37-0.85-0.45
	c-0.33-0.1-0.66-0.12-0.99-0.04c-0.33,0.02-0.64,0.11-0.93,0.3c-0.17,0.13-0.34,0.26-0.5,0.39c-0.14,0.14-0.26,0.3-0.36,0.47
	c-0.18,0.07-0.34,0.15-0.49,0.25c0-0.17-0.01-0.35-0.04-0.52c0.24-0.12,0.47-0.26,0.66-0.46l0.21-0.21c0.24-0.23,0.42-0.49,0.52-0.8
	c0.16-0.3,0.23-0.62,0.21-0.96c0.01-0.34-0.06-0.66-0.21-0.96c-0.08-0.25-0.23-0.47-0.4-0.67c0.2,0.08,0.39,0.16,0.59,0.25
	c0.44,0.12,0.88,0.12,1.33,0c0.2-0.08,0.4-0.17,0.6-0.25c0.37-0.22,0.67-0.52,0.89-0.89c0.07-0.14,0.14-0.28,0.21-0.42
	c0.18-0.29,0.28-0.6,0.3-0.93c0.07-0.33,0.06-0.66-0.04-0.99c-0.04-0.15-0.09-0.28-0.15-0.41c0.68-0.03,1.2-0.29,1.57-0.67
	c0.03,0.42,0.16,0.69,0.35,1.12c0.16,0.29,0.37,0.52,0.64,0.7c0.24,0.22,0.52,0.37,0.85,0.45c0.33,0.1,0.66,0.12,0.99,0.04
	c0.33-0.01,0.64-0.11,0.93-0.3c0.17-0.13,0.34-0.26,0.5-0.39c0.24-0.25,0.41-0.54,0.54-0.85c0.01-0.02,0.03-0.04,0.05-0.06
	c0.18-0.29,0.28-0.6,0.3-0.93C303.13,285.95,303.11,285.62,303.01,285.29z"/>
<path class="st359" d="M221.93,276.64c-0.92,0-0.92,1.42,0,1.42C222.84,278.06,222.84,276.64,221.93,276.64z"/>
<path class="st359" d="M229.06,270.34c-0.92,0-0.92,1.42,0,1.42C229.98,271.77,229.98,270.34,229.06,270.34z"/>
<path class="st359" d="M232.02,276.44c-0.03-0.09-0.08-0.16-0.15-0.23c-0.06-0.07-0.14-0.12-0.23-0.15
	c-0.08-0.04-0.18-0.07-0.27-0.06l-0.19,0.03c-0.12,0.03-0.23,0.09-0.31,0.18c-0.04,0.05-0.07,0.1-0.11,0.14
	c-0.06,0.11-0.1,0.23-0.1,0.36v0.21c0,0.1,0.02,0.19,0.06,0.27c0.03,0.09,0.08,0.16,0.15,0.23c0.06,0.07,0.14,0.12,0.23,0.15
	c0.08,0.04,0.18,0.07,0.27,0.06c0.06-0.01,0.13-0.02,0.19-0.03c0.12-0.03,0.23-0.1,0.31-0.18c0.04-0.05,0.07-0.1,0.11-0.14
	c0.06-0.11,0.1-0.23,0.1-0.36v-0.21C232.08,276.62,232.06,276.53,232.02,276.44z"/>
<path class="st359" d="M228.64,293.21c-0.92,0-0.92,1.42,0,1.42C229.56,294.64,229.56,293.21,228.64,293.21z"/>
<path class="st23" d="M236.42,272.88c-0.03-0.09-0.08-0.16-0.15-0.23c-0.06-0.07-0.14-0.12-0.23-0.15
	c-0.08-0.04-0.18-0.07-0.27-0.06c-0.06,0.01-0.13,0.02-0.19,0.03c-0.12,0.03-0.23,0.09-0.31,0.18c-0.04,0.05-0.07,0.1-0.11,0.14
	c-0.06,0.11-0.1,0.23-0.1,0.36v0.21c0,0.1,0.02,0.19,0.06,0.27c0.03,0.09,0.08,0.16,0.15,0.23c0.06,0.07,0.14,0.12,0.23,0.15
	c0.08,0.04,0.18,0.07,0.27,0.06l0.19-0.03c0.12-0.03,0.23-0.09,0.31-0.18c0.04-0.05,0.07-0.1,0.11-0.14c0.06-0.11,0.1-0.23,0.1-0.36
	v-0.21C236.49,273.05,236.47,272.96,236.42,272.88z"/>
<path class="st23" d="M234.3,267.4c-0.01,0-0.02,0.01-0.03,0.01c0.21-0.42,0.02-1.06-0.6-1.06c-0.92,0-0.92,1.42,0,1.42
	c0.01,0,0.02-0.01,0.03-0.01c-0.21,0.42-0.02,1.05,0.6,1.05C235.22,268.83,235.22,267.4,234.3,267.4z"/>
<path class="st23" d="M221.72,269.71c-0.92,0-0.92,1.42,0,1.42C222.63,271.14,222.63,269.71,221.72,269.71z"/>
<path class="st23" d="M222.35,263.84c-0.92,0-0.92,1.42,0,1.42C223.26,265.26,223.26,263.84,222.35,263.84z"/>
<path class="st23" d="M213.11,275.59c-0.92,0-0.92,1.42,0,1.42C214.03,277.01,214.03,275.59,213.11,275.59z"/>
<path class="st23" d="M208.29,288.59c-0.92,0-0.92,1.42,0,1.42C209.21,290.02,209.21,288.59,208.29,288.59z"/>
<path class="st23" d="M219.05,291.43c-0.03-0.12-0.09-0.23-0.18-0.31c-0.07-0.07-0.14-0.14-0.21-0.21
	c-0.06-0.07-0.14-0.12-0.23-0.15c-0.08-0.04-0.18-0.07-0.27-0.06c-0.1,0-0.19,0.02-0.27,0.06c-0.09,0.03-0.16,0.08-0.23,0.15
	c-0.04,0.05-0.07,0.1-0.11,0.14c-0.06,0.11-0.1,0.23-0.1,0.36c0.01,0.06,0.02,0.13,0.03,0.19c0.03,0.12,0.09,0.23,0.18,0.31
	c0.07,0.07,0.14,0.14,0.21,0.21c0.06,0.07,0.14,0.12,0.23,0.15c0.08,0.04,0.18,0.07,0.27,0.06c0.1,0,0.19-0.02,0.27-0.06
	c0.09-0.03,0.16-0.08,0.23-0.15c0.04-0.05,0.07-0.1,0.11-0.14c0.06-0.11,0.1-0.23,0.1-0.36L219.05,291.43z"/>
<path class="st23" d="M214.37,283.35c-0.92,0-0.92,1.42,0,1.42C215.29,284.77,215.29,283.35,214.37,283.35z"/>
<path class="st23" d="M222.98,283.35c-0.92,0-0.92,1.42,0,1.42C223.89,284.77,223.89,283.35,222.98,283.35z"/>
<path class="st23" d="M241.86,285.45c-0.92,0-0.92,1.42,0,1.42C242.77,286.87,242.78,285.45,241.86,285.45z"/>
<path class="st23" d="M230.95,285.87c-0.92,0-0.92,1.42,0,1.42C231.86,287.29,231.87,285.87,230.95,285.87z"/>
<path class="st23" d="M231.58,278.73c-0.12,0-0.23,0.03-0.31,0.07c-0.09-0.04-0.19-0.07-0.31-0.07c-0.92,0-0.92,1.42,0,1.42
	c0.12,0,0.22-0.03,0.31-0.07c0.09,0.04,0.19,0.07,0.31,0.07C232.49,280.16,232.5,278.73,231.58,278.73z"/>
<path class="st23" d="M255.34,260.79c-0.03-0.12-0.09-0.23-0.18-0.31c-0.05-0.04-0.1-0.07-0.14-0.11c-0.11-0.06-0.23-0.1-0.36-0.1
	h-0.21c-0.1,0-0.19,0.02-0.27,0.06c-0.09,0.03-0.16,0.08-0.23,0.15c-0.07,0.06-0.12,0.14-0.15,0.23c-0.04,0.08-0.07,0.18-0.06,0.27
	l0.03,0.19c0.03,0.12,0.09,0.23,0.18,0.31c0.05,0.04,0.1,0.07,0.14,0.11c0.11,0.06,0.23,0.1,0.36,0.1h0.21
	c0.1,0,0.19-0.02,0.27-0.06c0.09-0.03,0.16-0.08,0.23-0.15c0.07-0.06,0.12-0.14,0.15-0.23c0.04-0.08,0.07-0.18,0.06-0.27
	C255.36,260.92,255.35,260.86,255.34,260.79z"/>
<path class="st23" d="M242.91,258.17c-0.92,0-0.92,1.42,0,1.42C243.82,259.6,243.83,258.17,242.91,258.17z"/>
<path class="st23" d="M235.56,253.98c-0.92,0-0.92,1.42,0,1.42C236.48,255.4,236.48,253.98,235.56,253.98z"/>
<path class="st23" d="M232.84,258.59c-0.92,0-0.92,1.42,0,1.42C233.75,260.02,233.75,258.59,232.84,258.59z"/>
<path class="st23" d="M237.03,259.43c-0.92,0-0.92,1.42,0,1.42C237.95,260.86,237.95,259.43,237.03,259.43z"/>
<path class="st23" d="M243.54,265.52c-0.92,0-0.92,1.42,0,1.42C244.45,266.94,244.45,265.52,243.54,265.52z"/>
<path class="st23" d="M253.4,273.49c-0.92,0-0.92,1.42,0,1.42C254.31,274.91,254.32,273.49,253.4,273.49z"/>
<path class="st23" d="M242.28,276.85c-0.92,0-0.92,1.42,0,1.42C243.19,278.27,243.2,276.85,242.28,276.85z"/>
<path class="st23" d="M241.65,281.46c-0.92,0-0.92,1.42,0,1.42C242.57,282.89,242.57,281.46,241.65,281.46z"/>
<path class="st23" d="M245.01,270.76c-0.92,0-0.92,1.42,0,1.42C245.92,272.19,245.92,270.76,245.01,270.76z"/>
<path class="st23" d="M262.42,267.61c-0.92,0-0.92,1.42,0,1.42C263.34,269.04,263.34,267.61,262.42,267.61z"/>
<path class="st23" d="M274.8,261.32c-0.92,0-0.92,1.42,0,1.42C275.71,262.75,275.72,261.32,274.8,261.32z"/>
<path class="st23" d="M264.31,256.49c-0.92,0-0.92,1.42,0,1.42C265.22,257.92,265.23,256.49,264.31,256.49z"/>
<path class="st23" d="M252.77,253.56c-0.92,0-0.92,1.42,0,1.42C253.68,254.98,253.69,253.56,252.77,253.56z"/>
<path class="st23" d="M246.68,252.72c-0.92,0-0.92,1.42,0,1.42C247.6,254.14,247.6,252.72,246.68,252.72z"/>
<path class="st23" d="M251.3,248.73c-0.92,0-0.92,1.42,0,1.42C252.22,250.16,252.22,248.73,251.3,248.73z"/>
<path class="st23" d="M287.81,272.44c-0.92,0-0.92,1.42,0,1.42C288.72,273.86,288.72,272.44,287.81,272.44z"/>
<path class="st23" d="M267.66,287.13c-0.92,0-0.92,1.42,0,1.42C268.58,288.55,268.58,287.13,267.66,287.13z"/>
<path class="st23" d="M254.66,282.3c-0.92,0-0.92,1.42,0,1.42C255.57,283.73,255.57,282.3,254.66,282.3z"/>
<path class="st23" d="M270.81,272.65c-0.92,0-0.92,1.42,0,1.42C271.73,274.07,271.73,272.65,270.81,272.65z"/>
<path class="st23" d="M265.36,280.2c-0.92,0-0.92,1.42,0,1.42C266.27,281.63,266.27,280.2,265.36,280.2z"/>
<path class="st23" d="M281.74,290.08c-0.03-0.09-0.08-0.16-0.15-0.23l-0.14-0.11c-0.11-0.06-0.23-0.1-0.36-0.1
	c-0.06,0.01-0.13,0.02-0.19,0.03c-0.12,0.03-0.23,0.09-0.31,0.18l-0.21,0.21c-0.07,0.06-0.12,0.14-0.15,0.23
	c-0.04,0.08-0.07,0.18-0.06,0.27c0,0.1,0.02,0.19,0.06,0.27c0.03,0.09,0.08,0.16,0.15,0.23c0.05,0.04,0.1,0.07,0.14,0.11
	c0.11,0.06,0.23,0.1,0.36,0.1l0.19-0.03c0.12-0.03,0.23-0.09,0.31-0.18l0.21-0.21c0.07-0.06,0.12-0.14,0.15-0.23
	c0.04-0.08,0.07-0.18,0.06-0.27C281.81,290.26,281.79,290.17,281.74,290.08z"/>
<path class="st23" d="M284.66,281.46c-0.92,0-0.92,1.42,0,1.42C285.58,282.89,285.58,281.46,284.66,281.46z"/>
<path class="st23" d="M256.12,317.97c-0.92,0-0.92,1.42,0,1.42C257.04,319.39,257.04,317.97,256.12,317.97z"/>
<path class="st23" d="M245.01,306.22c-0.92,0-0.92,1.42,0,1.42C245.92,307.64,245.92,306.22,245.01,306.22z"/>
<path class="st23" d="M260.32,297.62c-0.92,0-0.92,1.42,0,1.42C261.24,299.04,261.24,297.62,260.32,297.62z"/>
<path class="st23" d="M263.68,305.8c-0.92,0-0.92,1.42,0,1.42C264.59,307.22,264.6,305.8,263.68,305.8z"/>
<path class="st23" d="M241.44,315.03c-0.92,0-0.92,1.42,0,1.42C242.36,316.46,242.36,315.03,241.44,315.03z"/>
<path class="st23" d="M224.01,316.43c-0.04-0.08-0.11-0.15-0.18-0.2c-0.07-0.06-0.15-0.11-0.24-0.13c-0.06-0.01-0.13-0.02-0.19-0.03
	c-0.13,0-0.25,0.03-0.36,0.1l-0.14,0.11c-0.09,0.09-0.15,0.19-0.18,0.31c-0.07,0.21-0.14,0.42-0.21,0.63
	c-0.03,0.09-0.03,0.19-0.01,0.28c0,0.09,0.03,0.18,0.08,0.26c0.04,0.08,0.11,0.15,0.18,0.2c0.07,0.06,0.15,0.11,0.24,0.13
	c0.06,0.01,0.13,0.02,0.19,0.03c0.13,0,0.25-0.03,0.36-0.1c0.05-0.04,0.1-0.07,0.14-0.11c0.09-0.09,0.15-0.19,0.18-0.31
	c0.07-0.21,0.14-0.42,0.21-0.63c0.03-0.09,0.03-0.19,0.01-0.28C224.09,316.6,224.06,316.51,224.01,316.43z"/>
<path class="st23" d="M230.55,301.62c-0.03-0.09-0.08-0.16-0.15-0.23c-0.05-0.04-0.1-0.07-0.14-0.11c-0.11-0.06-0.23-0.1-0.36-0.1
	l-0.19,0.03c-0.12,0.03-0.23,0.09-0.31,0.18l-0.21,0.21c-0.07,0.06-0.12,0.14-0.15,0.23c-0.04,0.08-0.07,0.18-0.06,0.27
	c0,0.1,0.02,0.19,0.06,0.27c0.03,0.09,0.08,0.16,0.15,0.23c0.05,0.04,0.1,0.07,0.14,0.11c0.11,0.06,0.23,0.1,0.36,0.1
	c0.06-0.01,0.13-0.02,0.19-0.03c0.12-0.03,0.23-0.09,0.31-0.18l0.21-0.21c0.07-0.06,0.12-0.14,0.15-0.23
	c0.04-0.08,0.07-0.18,0.06-0.27C230.62,301.8,230.59,301.71,230.55,301.62z"/>
<path class="st23" d="M217.1,311.04c-0.92,0-0.92,1.42,0,1.42C218.02,312.47,218.02,311.04,217.1,311.04z"/>
<path class="st23" d="M206,310.43c-0.03-0.09-0.08-0.16-0.15-0.23c-0.06-0.07-0.14-0.12-0.23-0.15c-0.08-0.04-0.18-0.07-0.27-0.06
	c-0.06,0.01-0.13,0.02-0.19,0.03c-0.12,0.03-0.23,0.09-0.31,0.18l-0.11,0.14c-0.06,0.11-0.1,0.23-0.1,0.36v0.63
	c0,0.1,0.02,0.19,0.06,0.27c0.03,0.09,0.08,0.16,0.15,0.23c0.06,0.07,0.14,0.12,0.23,0.15c0.08,0.04,0.18,0.07,0.27,0.06l0.19-0.03
	c0.12-0.03,0.23-0.1,0.31-0.18c0.04-0.05,0.07-0.1,0.11-0.14c0.06-0.11,0.1-0.23,0.1-0.36v-0.63
	C206.07,310.61,206.05,310.52,206,310.43z"/>
<path class="st23" d="M206.4,301.81c-0.92,0-0.92,1.42,0,1.42C207.32,303.24,207.32,301.81,206.4,301.81z"/>
<path class="st23" d="M223.24,305.06c-0.03-0.12-0.09-0.23-0.18-0.31l-0.42-0.42c-0.06-0.07-0.14-0.12-0.23-0.15
	c-0.08-0.04-0.18-0.07-0.27-0.06c-0.1,0-0.19,0.02-0.27,0.06c-0.09,0.03-0.16,0.08-0.23,0.15c-0.04,0.05-0.07,0.1-0.11,0.14
	c-0.06,0.11-0.1,0.23-0.1,0.36c0.01,0.06,0.02,0.13,0.03,0.19c0.03,0.12,0.09,0.23,0.18,0.31l0.42,0.42
	c0.06,0.07,0.14,0.12,0.23,0.15c0.08,0.04,0.18,0.07,0.27,0.06c0.1,0,0.19-0.02,0.27-0.06c0.09-0.03,0.16-0.08,0.23-0.15
	c0.04-0.05,0.07-0.1,0.11-0.14c0.06-0.11,0.1-0.23,0.1-0.36L223.24,305.06z"/>
<path class="st23" d="M213.59,298.14c-0.03-0.12-0.09-0.23-0.18-0.31l-0.21-0.21c-0.06-0.07-0.14-0.12-0.23-0.15
	c-0.08-0.04-0.18-0.07-0.27-0.06c-0.1,0-0.19,0.02-0.27,0.06c-0.09,0.03-0.16,0.08-0.23,0.15c-0.04,0.05-0.07,0.1-0.11,0.14
	c-0.06,0.11-0.1,0.23-0.1,0.36c0.01,0.06,0.02,0.13,0.03,0.19c0.03,0.12,0.09,0.23,0.18,0.31l0.21,0.21
	c0.06,0.07,0.14,0.12,0.23,0.15c0.08,0.04,0.18,0.07,0.27,0.06c0.1,0,0.19-0.02,0.27-0.06c0.09-0.03,0.16-0.08,0.23-0.15
	c0.04-0.05,0.07-0.1,0.11-0.14c0.06-0.11,0.1-0.23,0.1-0.36C213.61,298.27,213.6,298.2,213.59,298.14z"/>
<path class="st23" d="M203.67,298.04c-0.92,0-0.92,1.42,0,1.42C204.59,299.46,204.59,298.04,203.67,298.04z"/>
<path class="st23" d="M216.47,336.22c-0.92,0-0.92,1.42,0,1.42C217.39,337.65,217.39,336.22,216.47,336.22z"/>
<path class="st23" d="M228.22,344.82c-0.92,0-0.92,1.42,0,1.42C229.14,346.25,229.14,344.82,228.22,344.82z"/>
<path class="st23" d="M243.54,343.14c-0.92,0-0.92,1.42,0,1.42C244.45,344.57,244.45,343.14,243.54,343.14z"/>
<path class="st23" d="M247.73,350.49c-0.92,0-0.92,1.42,0,1.42C248.65,351.91,248.65,350.49,247.73,350.49z"/>
<path class="st23" d="M231.01,339.47c-0.03-0.12-0.09-0.23-0.18-0.31c-0.07-0.07-0.14-0.14-0.21-0.21
	c-0.06-0.07-0.14-0.12-0.23-0.15c-0.08-0.04-0.18-0.07-0.27-0.06c-0.1,0-0.19,0.02-0.27,0.06c-0.09,0.03-0.16,0.08-0.23,0.15
	c-0.04,0.05-0.07,0.1-0.11,0.14c-0.06,0.11-0.1,0.23-0.1,0.36c0.01,0.06,0.02,0.13,0.03,0.19c0.03,0.12,0.09,0.23,0.18,0.31
	c0.07,0.07,0.14,0.14,0.21,0.21c0.06,0.07,0.14,0.12,0.23,0.15c0.08,0.04,0.18,0.07,0.27,0.06c0.1,0,0.19-0.02,0.27-0.06
	c0.09-0.03,0.16-0.08,0.23-0.15c0.04-0.05,0.07-0.1,0.11-0.14c0.06-0.11,0.1-0.23,0.1-0.36
	C231.02,339.6,231.01,339.53,231.01,339.47z"/>
<path class="st23" d="M228.43,328.67c-0.92,0-0.92,1.42,0,1.42C229.35,330.09,229.35,328.67,228.43,328.67z"/>
<path class="st23" d="M258.85,337.48c-0.92,0-0.92,1.42,0,1.42C259.77,338.9,259.77,337.48,258.85,337.48z"/>
<path class="st23" d="M274.59,328.04c-0.92,0-0.92,1.42,0,1.42C275.5,329.46,275.51,328.04,274.59,328.04z"/>
<path class="st23" d="M286.36,309.8c-0.03-0.09-0.08-0.16-0.15-0.23c-0.05-0.04-0.1-0.07-0.14-0.11c-0.11-0.06-0.23-0.1-0.36-0.1
	c-0.06,0.01-0.13,0.02-0.19,0.03c-0.12,0.03-0.23,0.09-0.31,0.18c-0.07,0.07-0.14,0.14-0.21,0.21c-0.07,0.06-0.12,0.14-0.15,0.23
	c-0.04,0.08-0.07,0.18-0.06,0.27c0,0.1,0.02,0.19,0.06,0.27c0.03,0.09,0.08,0.16,0.15,0.23c0.05,0.04,0.1,0.07,0.14,0.11
	c0.11,0.06,0.23,0.1,0.36,0.1c0.06-0.01,0.13-0.02,0.19-0.03c0.12-0.03,0.23-0.09,0.31-0.18c0.07-0.07,0.14-0.14,0.21-0.21
	c0.07-0.06,0.12-0.14,0.15-0.23c0.04-0.08,0.07-0.18,0.06-0.27C286.42,309.98,286.4,309.89,286.36,309.8z"/>
<path class="st23" d="M295.57,308.32c-0.92,0-0.92,1.42,0,1.42C296.49,309.74,296.49,308.32,295.57,308.32z"/>
<path class="st23" d="M292.42,302.44c-0.92,0-0.92,1.42,0,1.42C293.34,303.87,293.34,302.44,292.42,302.44z"/>
<path class="st23" d="M299.4,293.94c-0.03-0.12-0.1-0.23-0.18-0.31l-0.21-0.21c-0.06-0.07-0.14-0.12-0.23-0.15
	c-0.08-0.04-0.18-0.07-0.27-0.06c-0.1,0-0.19,0.02-0.27,0.06c-0.09,0.03-0.16,0.08-0.23,0.15c-0.04,0.05-0.07,0.1-0.11,0.14
	c-0.06,0.11-0.1,0.23-0.1,0.36c0.01,0.06,0.02,0.13,0.03,0.19c0.03,0.12,0.09,0.23,0.18,0.31l0.21,0.21
	c0.06,0.07,0.14,0.12,0.23,0.15c0.08,0.04,0.18,0.07,0.27,0.06c0.1,0,0.19-0.02,0.27-0.06c0.09-0.03,0.16-0.08,0.23-0.15
	c0.04-0.05,0.07-0.1,0.11-0.14c0.06-0.11,0.1-0.23,0.1-0.36L299.4,293.94z"/>
<path class="st23" d="M300.81,283.35c-0.92,0-0.92,1.42,0,1.42C301.73,284.77,301.73,283.35,300.81,283.35z"/>
<path class="st23" d="M216.74,279.26c-0.03-0.12-0.09-0.23-0.18-0.31c-0.07-0.07-0.14-0.14-0.21-0.21
	c-0.06-0.07-0.14-0.12-0.23-0.15c-0.08-0.04-0.18-0.07-0.27-0.06c-0.1,0-0.19,0.02-0.27,0.06c-0.09,0.03-0.16,0.08-0.23,0.15
	c-0.04,0.05-0.07,0.1-0.11,0.14c-0.06,0.11-0.1,0.23-0.1,0.36c0.01,0.06,0.02,0.13,0.03,0.19c0.03,0.12,0.09,0.23,0.18,0.31
	c0.07,0.07,0.14,0.14,0.21,0.21c0.06,0.07,0.14,0.12,0.23,0.15c0.08,0.04,0.18,0.07,0.27,0.06c0.1,0,0.19-0.02,0.27-0.06
	c0.09-0.03,0.16-0.08,0.23-0.15c0.04-0.05,0.07-0.1,0.11-0.14c0.06-0.11,0.1-0.23,0.1-0.36
	C216.76,279.38,216.75,279.32,216.74,279.26z"/>
<path class="st23" d="M221.98,273.38c-0.03-0.12-0.09-0.23-0.18-0.31c-0.05-0.04-0.1-0.07-0.14-0.11c-0.11-0.06-0.23-0.1-0.36-0.1
	h-0.42c-0.1,0-0.19,0.02-0.27,0.06c-0.09,0.03-0.16,0.08-0.23,0.15c-0.07,0.06-0.12,0.14-0.15,0.23c-0.04,0.08-0.07,0.18-0.06,0.27
	c0.01,0.06,0.02,0.13,0.03,0.19c0.03,0.12,0.09,0.23,0.18,0.31c0.05,0.04,0.1,0.07,0.14,0.11c0.11,0.06,0.23,0.1,0.36,0.1h0.42
	c0.1,0,0.19-0.02,0.27-0.06c0.09-0.03,0.16-0.08,0.23-0.15c0.07-0.06,0.12-0.14,0.15-0.23c0.04-0.08,0.07-0.18,0.06-0.27
	L221.98,273.38z"/>
<path class="st23" d="M225.28,274.54c-0.92,0-0.92,1.42,0,1.42C226.2,275.96,226.2,274.54,225.28,274.54z"/>
<path class="st23" d="M220.88,284.61c-0.92,0-0.92,1.42,0,1.42C221.79,286.03,221.8,284.61,220.88,284.61z"/>
<path class="st23" d="M217.52,278.52c-0.92,0-0.92,1.42,0,1.42C218.44,279.95,218.44,278.52,217.52,278.52z"/>
<path class="st23" d="M222.77,279.99c-0.92,0-0.92,1.42,0,1.42C223.68,281.42,223.68,279.99,222.77,279.99z"/>
<path class="st23" d="M227.8,278.94c-0.92,0-0.92,1.42,0,1.42C228.72,280.37,228.72,278.94,227.8,278.94z"/>
<path class="st23" d="M220.04,281.88c-0.92,0-0.92,1.42,0,1.42C220.95,283.31,220.96,281.88,220.04,281.88z"/>
<path class="st23" d="M226.98,277.49c-0.03-0.09-0.08-0.16-0.15-0.23c-0.06-0.07-0.14-0.12-0.23-0.15
	c-0.08-0.04-0.18-0.07-0.27-0.06c-0.06,0.01-0.13,0.02-0.19,0.03c-0.12,0.03-0.23,0.09-0.31,0.18c-0.04,0.05-0.07,0.1-0.11,0.14
	c-0.06,0.11-0.1,0.23-0.1,0.36v0.21c0,0.1,0.02,0.19,0.06,0.27c0.03,0.09,0.08,0.16,0.15,0.23c0.06,0.07,0.14,0.12,0.23,0.15
	c0.08,0.04,0.18,0.07,0.27,0.06l0.19-0.03c0.12-0.03,0.23-0.09,0.31-0.18c0.04-0.05,0.07-0.1,0.11-0.14c0.06-0.11,0.1-0.23,0.1-0.36
	v-0.21C227.05,277.67,227.03,277.58,226.98,277.49z"/>
<path class="st23" d="M231.16,273.91c-0.92,0-0.92,1.42,0,1.42C232.07,275.33,232.08,273.91,231.16,273.91z"/>
<path class="st23" d="M227.22,270.04c-0.03-0.12-0.09-0.23-0.18-0.31c-0.14-0.14-0.28-0.28-0.42-0.42
	c-0.06-0.07-0.14-0.12-0.23-0.15c-0.08-0.04-0.18-0.07-0.27-0.06c-0.1,0-0.19,0.02-0.27,0.06c-0.09,0.03-0.16,0.08-0.23,0.15
	c-0.04,0.05-0.07,0.1-0.11,0.14c-0.06,0.11-0.1,0.23-0.1,0.36l0.03,0.19c0.03,0.12,0.09,0.23,0.18,0.31
	c0.14,0.14,0.28,0.28,0.42,0.42c0.06,0.07,0.14,0.12,0.23,0.15c0.08,0.04,0.18,0.07,0.27,0.06c0.1,0,0.19-0.02,0.27-0.06
	c0.09-0.03,0.16-0.08,0.23-0.15c0.04-0.05,0.07-0.1,0.11-0.14c0.06-0.11,0.1-0.23,0.1-0.36
	C227.23,270.16,227.23,270.1,227.22,270.04z"/>
<path class="st23" d="M226.35,265.53c-0.03-0.09-0.08-0.16-0.15-0.23c-0.06-0.07-0.14-0.12-0.23-0.15
	c-0.08-0.04-0.18-0.07-0.27-0.06c-0.06,0.01-0.13,0.02-0.19,0.03c-0.12,0.03-0.23,0.09-0.31,0.18c-0.04,0.05-0.07,0.1-0.11,0.14
	c-0.06,0.11-0.1,0.23-0.1,0.36v0.21c0,0.1,0.02,0.19,0.06,0.27c0.03,0.09,0.08,0.16,0.15,0.23c0.06,0.07,0.14,0.12,0.23,0.15
	c0.08,0.04,0.18,0.07,0.27,0.06c0.06-0.01,0.13-0.02,0.19-0.03c0.12-0.03,0.23-0.09,0.31-0.18c0.04-0.05,0.07-0.1,0.11-0.14
	c0.06-0.11,0.1-0.23,0.1-0.36v-0.21C226.42,265.71,226.4,265.62,226.35,265.53z"/>
<path class="st23" d="M230.95,264.47c-0.92,0-0.92,1.42,0,1.42C231.86,265.89,231.87,264.47,230.95,264.47z"/>
<path class="st23" d="M234.3,272.86c-0.92,0-0.92,1.42,0,1.42C235.22,274.28,235.22,272.86,234.3,272.86z"/>
<path class="st23" d="M237.24,273.07c-0.92,0-0.92,1.42,0,1.42C238.16,274.49,238.16,273.07,237.24,273.07z"/>
<path class="st23" d="M237.87,262.16c-0.92,0-0.92,1.42,0,1.42C238.79,263.58,238.79,262.16,237.87,262.16z"/>
<path class="st23" d="M242.28,264.26c-0.92,0-0.92,1.42,0,1.42C243.19,265.68,243.2,264.26,242.28,264.26z"/>
<path class="st23" d="M243.54,273.91c-0.92,0-0.92,1.42,0,1.42C244.45,275.33,244.45,273.91,243.54,273.91z"/>
<path class="st23" d="M247.31,275.59c-0.92,0-0.92,1.42,0,1.42C248.23,277.01,248.23,275.59,247.31,275.59z"/>
<path class="st23" d="M249.68,269.4c-0.03-0.12-0.09-0.23-0.18-0.31c-0.05-0.04-0.1-0.07-0.14-0.11c-0.04-0.02-0.09-0.04-0.13-0.06
	c-0.08-0.26-0.3-0.46-0.65-0.46c-0.7,0-0.86,0.83-0.49,1.22c0,0.03,0.01,0.07,0.01,0.1c0.03,0.12,0.09,0.23,0.18,0.31
	c0.05,0.04,0.1,0.07,0.14,0.11c0.11,0.06,0.23,0.1,0.36,0.1h0.21c0.1,0,0.19-0.02,0.27-0.06c0.09-0.03,0.16-0.08,0.23-0.15
	c0.07-0.06,0.12-0.14,0.15-0.23c0.04-0.08,0.07-0.18,0.06-0.27C249.7,269.52,249.69,269.46,249.68,269.4z"/>
<path class="st23" d="M238.94,271.2c-0.03-0.09-0.08-0.16-0.15-0.23c-0.06-0.07-0.14-0.12-0.23-0.15c-0.08-0.04-0.18-0.07-0.27-0.06
	c-0.06,0.01-0.13,0.02-0.19,0.03c-0.12,0.03-0.23,0.09-0.31,0.18c-0.04,0.05-0.07,0.1-0.11,0.14c-0.06,0.11-0.1,0.23-0.1,0.36v0.21
	c0,0.1,0.02,0.19,0.06,0.27c0.03,0.09,0.08,0.16,0.15,0.23c0.06,0.07,0.14,0.12,0.23,0.15c0.08,0.04,0.18,0.07,0.27,0.06l0.19-0.03
	c0.12-0.03,0.23-0.09,0.31-0.18c0.04-0.05,0.07-0.1,0.11-0.14c0.06-0.11,0.1-0.23,0.1-0.36v-0.21
	C239.01,271.38,238.99,271.28,238.94,271.2z"/>
<path class="st23" d="M240.39,265.1c-0.92,0-0.92,1.42,0,1.42C241.31,266.52,241.31,265.1,240.39,265.1z"/>
<path class="st23" d="M248.17,266.58c-0.03-0.09-0.08-0.16-0.15-0.23c-0.05-0.04-0.1-0.07-0.14-0.11c-0.11-0.06-0.23-0.1-0.36-0.1
	c-0.06,0.01-0.13,0.02-0.19,0.03c-0.12,0.03-0.23,0.09-0.31,0.18c-0.07,0.07-0.14,0.14-0.21,0.21c-0.07,0.06-0.12,0.14-0.15,0.23
	c-0.04,0.09-0.07,0.18-0.06,0.27c0,0.1,0.02,0.19,0.06,0.27c0.03,0.09,0.08,0.16,0.15,0.23c0.05,0.04,0.1,0.07,0.14,0.11
	c0.11,0.06,0.23,0.1,0.36,0.1c0.06-0.01,0.13-0.02,0.19-0.03c0.12-0.03,0.23-0.09,0.31-0.18c0.07-0.07,0.14-0.14,0.21-0.21
	c0.07-0.06,0.12-0.14,0.15-0.23c0.04-0.08,0.07-0.18,0.06-0.27C248.24,266.76,248.22,266.67,248.17,266.58z"/>
<path class="st23" d="M249.2,259.43c-0.92,0-0.92,1.42,0,1.42C250.12,260.86,250.12,259.43,249.2,259.43z"/>
<path class="st23" d="M254.24,264.89c-0.92,0-0.92,1.42,0,1.42C255.15,266.31,255.15,264.89,254.24,264.89z"/>
<path class="st23" d="M248.78,261.32c-0.92,0-0.92,1.42,0,1.42C249.7,262.75,249.7,261.32,248.78,261.32z"/>
<path class="st23" d="M244.59,263.21c-0.92,0-0.92,1.42,0,1.42C245.5,264.63,245.5,263.21,244.59,263.21z"/>
<path class="st23" d="M255.29,271.18c-0.92,0-0.92,1.42,0,1.42C256.2,272.61,256.2,271.18,255.29,271.18z"/>
<path class="st23" d="M257.38,264.05c-0.92,0-0.92,1.42,0,1.42C258.3,265.47,258.3,264.05,257.38,264.05z"/>
<path class="st23" d="M259.9,263.42c-0.92,0-0.92,1.42,0,1.42C260.82,264.84,260.82,263.42,259.9,263.42z"/>
<path class="st23" d="M264.73,268.87c-0.92,0-0.92,1.42,0,1.42C265.64,270.3,265.64,268.87,264.73,268.87z"/>
<path class="st23" d="M267.24,270.34c-0.92,0-0.92,1.42,0,1.42C268.16,271.77,268.16,270.34,267.24,270.34z"/>
<path class="st23" d="M252.56,277.06c-0.92,0-0.92,1.42,0,1.42C253.47,278.48,253.48,277.06,252.56,277.06z"/>
<path class="st23" d="M244.17,276.43c-0.92,0-0.92,1.42,0,1.42C245.08,277.85,245.08,276.43,244.17,276.43z"/>
<path class="st23" d="M241.44,275.59c-0.92,0-0.92,1.42,0,1.42C242.36,277.01,242.36,275.59,241.44,275.59z"/>
<path class="st23" d="M238.08,282.72c-0.92,0-0.92,1.42,0,1.42C239,284.15,239,282.72,238.08,282.72z"/>
<path class="st23" d="M236.19,280.34c-0.14-0.21-0.28-0.42-0.42-0.63c-0.04-0.08-0.11-0.15-0.18-0.2c-0.07-0.06-0.15-0.11-0.24-0.13
	c-0.09-0.03-0.19-0.03-0.28-0.01c-0.09,0-0.18,0.03-0.27,0.08c-0.05,0.04-0.1,0.07-0.14,0.11c-0.09,0.09-0.15,0.19-0.18,0.31
	l-0.03,0.19c0,0.13,0.03,0.25,0.1,0.36c0.14,0.21,0.28,0.42,0.42,0.63c0.04,0.08,0.11,0.15,0.18,0.2c0.07,0.06,0.15,0.11,0.24,0.13
	c0.09,0.03,0.19,0.03,0.28,0.01c0.09,0,0.18-0.03,0.26-0.08c0.05-0.04,0.1-0.07,0.14-0.11c0.09-0.09,0.15-0.19,0.18-0.31
	c0.01-0.06,0.02-0.13,0.03-0.19C236.28,280.57,236.25,280.45,236.19,280.34z"/>
<path class="st23" d="M236.82,276.43c-0.92,0-0.92,1.42,0,1.42C237.74,277.85,237.74,276.43,236.82,276.43z"/>
<path class="st23" d="M239.13,279.36c-0.92,0-0.92,1.42,0,1.42C240.05,280.79,240.05,279.36,239.13,279.36z"/>
<path class="st23" d="M234.1,276.43c-0.92,0-0.92,1.42,0,1.42C235.01,277.85,235.01,276.43,234.1,276.43z"/>
<path class="st23" d="M242.07,267.82c-0.92,0-0.92,1.42,0,1.42C242.98,269.25,242.99,267.82,242.07,267.82z"/>
<path class="st23" d="M237.89,266.16c-0.03-0.09-0.08-0.16-0.15-0.23c-0.06-0.07-0.14-0.12-0.23-0.15
	c-0.08-0.04-0.18-0.07-0.27-0.06c-0.06,0.01-0.13,0.02-0.19,0.03c-0.12,0.03-0.23,0.09-0.31,0.18c-0.04,0.05-0.07,0.1-0.11,0.14
	c-0.06,0.11-0.1,0.23-0.1,0.36v0.21c0,0.1,0.02,0.19,0.06,0.27c0.03,0.09,0.08,0.16,0.15,0.23c0.06,0.07,0.14,0.12,0.23,0.15
	c0.08,0.04,0.18,0.07,0.27,0.06l0.19-0.03c0.12-0.03,0.23-0.09,0.31-0.18c0.04-0.05,0.07-0.1,0.11-0.14c0.06-0.11,0.1-0.23,0.1-0.36
	v-0.21C237.96,266.34,237.94,266.25,237.89,266.16z"/>
<path class="st23" d="M241.44,271.39c-0.92,0-0.92,1.42,0,1.42C242.36,272.82,242.36,271.39,241.44,271.39z"/>
<ellipse transform="matrix(0.9568 -0.2906 0.2906 0.9568 -71.2063 83.2377)" class="st360" cx="244.6" cy="281.32" rx="44.71" ry="38.57"/>
<g class="st331">
	
		<ellipse transform="matrix(0.9482 -0.3177 0.3177 0.9482 -73.3984 90.4725)" class="st23" cx="240.68" cy="270.27" rx="22.86" ry="17.56"/>
</g>
<path d="M249.5,241.74c1.91,0,3.85,0.24,5.79,0.73c1.52,0.38,3.05,0.7,4.59,0.96c0.97,0.07,1.92,0.21,2.85,0.42
	c0.81,0.1,1.63,0.18,2.45,0.24c4.61,0.35,8.8,1.96,12.34,4.68c2.56,1.97,5.33,3.68,8.21,5.15c3.87,1.98,6.97,4.92,9.12,8.66
	c1.56,2.71,3.4,5.26,5.47,7.61c2.86,3.23,4.67,7.11,5.31,11.4c0.48,3.2,1.21,6.36,2.27,9.42c1.46,4.22,1.65,8.7,0.52,13.19
	c-0.82,3.25-1.36,6.55-1.61,9.89c-0.35,4.61-1.96,8.8-4.68,12.34c-1.97,2.56-3.68,5.33-5.15,8.21c-1.98,3.87-4.92,6.97-8.66,9.12
	c-2.71,1.56-5.26,3.4-7.61,5.47c-3.23,2.86-7.11,4.67-11.4,5.31c-3.2,0.48-6.36,1.21-9.42,2.27c-2.4,0.83-4.88,1.25-7.4,1.25
	c-1.91,0-3.85-0.24-5.79-0.73c-3.25-0.82-6.55-1.36-9.89-1.61c-4.61-0.35-8.8-1.96-12.34-4.68c-2.56-1.97-5.33-3.68-8.21-5.15
	c-3.87-1.98-6.97-4.92-9.12-8.66c-1.56-2.71-3.4-5.26-5.47-7.61c-2.86-3.23-4.67-7.11-5.31-11.4c-0.48-3.2-1.21-6.36-2.27-9.42
	c-1.46-4.22-1.65-8.7-0.52-13.19c0.03-0.13,0.06-0.27,0.09-0.4c-0.01-0.07-0.02-0.15-0.02-0.22v-1.47c0-0.7,0.29-1.31,0.75-1.75
	c0.15-0.81,0.28-1.61,0.39-2.42c-0.36-0.86-0.26-1.94,0.31-2.68c0.03-0.31,0.07-0.62,0.09-0.94c0.35-4.61,1.96-8.8,4.68-12.34
	c0.74-0.96,1.43-1.96,2.09-2.97c0.36-0.7,0.7-1.41,1.02-2.12c0.61-1.38,1.38-2.67,2.29-3.88c0.05-0.96,0.57-1.89,1.57-2.22
	c1.81-2.5,4.11-4.57,6.83-6.14c1.38-0.8,2.72-1.66,4.01-2.59c0.75-0.67,1.55-1.29,2.39-1.86c0.41-0.33,0.81-0.67,1.21-1.01
	c3.23-2.86,7.11-4.67,11.4-5.31c3.2-0.48,6.36-1.21,9.42-2.27C244.5,242.16,246.98,241.74,249.5,241.74 M249.5,238.74
	c-2.85,0-5.67,0.48-8.38,1.41c-2.74,0.95-5.73,1.67-8.88,2.14c-4.89,0.73-9.25,2.76-12.95,6.03c-0.31,0.27-0.63,0.53-0.94,0.8
	l-0.08,0.06c-0.86,0.59-1.69,1.23-2.47,1.92c-1.18,0.84-2.4,1.63-3.63,2.34c-2.85,1.64-5.3,3.78-7.29,6.36
	c-1.24,0.74-2.13,1.97-2.47,3.43c-0.86,1.23-1.6,2.52-2.18,3.85c-0.24,0.55-0.53,1.15-0.87,1.82c-0.69,1.04-1.28,1.88-1.88,2.65
	c-3.12,4.05-4.9,8.74-5.3,13.94c-0.01,0.07-0.01,0.13-0.02,0.2c-0.59,1.18-0.75,2.57-0.46,3.87c-0.05,0.3-0.09,0.61-0.15,0.91
	c-0.61,0.89-0.93,1.94-0.93,3.04v1.45c-1.25,5.03-1.05,10.01,0.61,14.81c0.95,2.74,1.67,5.73,2.14,8.88
	c0.73,4.89,2.76,9.25,6.03,12.95c1.94,2.19,3.66,4.59,5.12,7.12c2.47,4.28,5.95,7.59,10.36,9.84c2.84,1.45,5.45,3.08,7.74,4.85
	c4.05,3.12,8.74,4.9,13.94,5.3c3.15,0.24,6.31,0.75,9.38,1.53c2.16,0.55,4.36,0.82,6.52,0.82c2.85,0,5.67-0.48,8.38-1.41
	c2.74-0.95,5.73-1.67,8.88-2.14c4.89-0.73,9.25-2.76,12.95-6.03c2.19-1.94,4.58-3.66,7.12-5.12c4.28-2.47,7.59-5.95,9.84-10.36
	c1.45-2.84,3.08-5.45,4.85-7.74c3.12-4.05,4.9-8.74,5.3-13.94c0.24-3.15,0.76-6.31,1.53-9.38c1.28-5.05,1.08-10.07-0.59-14.9
	c-0.95-2.74-1.67-5.73-2.14-8.88c-0.73-4.89-2.76-9.25-6.03-12.95c-1.94-2.19-3.66-4.59-5.12-7.12c-2.46-4.28-5.95-7.59-10.36-9.84
	c-2.84-1.45-5.45-3.08-7.74-4.85c-4.05-3.12-8.74-4.9-13.94-5.3c-0.71-0.05-1.44-0.12-2.18-0.21c-0.97-0.21-1.97-0.35-2.97-0.43
	c-1.46-0.25-2.88-0.55-4.22-0.89C253.86,239.02,251.67,238.74,249.5,238.74L249.5,238.74z"/>
</svg>
