<svg version="1.1" id="on-head" xmlns="http://www.w3.org/2000/svg" xmlns:xlink="http://www.w3.org/1999/xlink" x="0px" y="0px"
	 viewBox="0 0 510.24 595.28" style="enable-background:new 0 0 510.24 595.28;" xml:space="preserve">

<path class="fhst0" d="M182.07,325.62l16.23-13.47c0,0-34.56-35.23-24.07-68.58c2.5-8.81,7.2-14.81,12.37-17.67
	c10.05-6.18,30.26,1.1,30.26,1.1s33.46,11.15,50.8,9.17l2.39-7.99l-87.98-27.68l-27.28,28.38l7.51,58.64l15.68,34.56L182.07,325.62z
	"/>
<path class="fhst1" d="M310.53,149.85c0,0,26.5,13.55,14.58,54.33c0,0-16.64,1.18-27.39-12.37c-10.75-13.55-2.94-17.52-2.94-17.52
	S318.63,163.84,310.53,149.85z"/>
<path class="fhst2" d="M152.47,310.49l25.84,15.24l16.12-14.36c0,0-42.85-39.09-17.45-81.06c18.77-27.17,58.75,9.72,94.09,5.08
	c38.87-4.64,48.37-39.09,63.39,3.53c0,0,2.21-42.4-46.82-76.86s-103.8-2.21-103.8-2.21s-48.81,31.8-46.16,91.44L152.47,310.49z"/>
<path d="M166.16,161.96c0,0-17.27,27.43-25.29,58.42c-2.49,9.62-4.09,19.21-3.42,31.25c6.74,28.82,14.8,59.19,14.8,59.19
	s16.56,6.18,32.25,2.54c0,0-44.94-44.5-31.91-99.28C164.84,165.28,166.16,161.96,166.16,161.96z"/>
<path class="fhst3" d="M157.99,192.99c0,0,19.58-37.55,56.25-27.53c36.66,10.01,23.85,51.53,55.07,49.62
	c23.85,0.15,28.86-66.4-25.33-68.91s-83.34,24-96.74,56.54c-8.69,22.67,23.12,13.84,23.12,13.84S143.71,221.71,157.99,192.99z"/>
<path class="fhst4" d="M265.04,229.22c0,0,2.65-75.24-51.09-75.53c-44.61,0.74-66.99,49.62-66.99,49.62s19.73-43.58,20.32-43.44
	c0.59,0.15,10.01,2.5,10.31-3.83c-0.04-7.77-17.82-1.36-20.91-17.71c-3.09-16.34,10.75-42.66,10.75-42.66s1.91,20.91,13.4,26.36
	c15.61,6.04,16.49-19.58-0.15-15.31c0,0-10.9-22.97-0.88-48.44c0,0-0.44,19.58,22.97,34.01s53.3,17.52,65.37,41.37
	c12.07,23.85,12.66,51.24,1.91,94.53L265.04,229.22z"/>
<path class="fhst5" d="M264.3,226.71c0,0,2.21-64.79-43.58-72.59c0,0-44.02-7.51-73.77,49.18c0,0,16.38-31.44,22.42-39.68
	c0,0,10.34,1.55,12.26-4.64c1.55-5.41-1.44-10.71-11.71-12.04c0,0,8.54-7.4-0.44-24.48c0,0,11.19,17.37,25.47,13.25
	c18.11-6.18,2.21-33.87,2.21-33.87s36.88,7.29,55.58,31.29c0,0-7.78,4.22-8.41,10.52c-0.3,3.01,1.02,6.04,3.48,7.8
	c6.45,4.6,15.6-1.46,15.6-1.46s12.52,35.48,2.94,78.18L264.3,226.71z"/>
<path class="fhst5" d="M142.97,157.22c0,0,7.51,30.04,42.55,41.67c0,0-8.83-8.1-12.37-19.73c0,0,35.78-6.33,59.34,18.85
	s42.4,17.67,42.4,17.67s6.92,0.29,15.17-15.75c8.25-16.05,12.81-25.18,25.91-31.07c0,0,6.63,14.28,1.77,28.56
	c0,0,22.23-22.53-7.21-47.56c0,0,30.92,14.58,16.34,55.66c0,0-2.21,10.01,4.86,26.5c0,0-7.66-19.73-15.75-15.46
	c-8.1,4.27-22.97,16.34-45.64,19.58c-31.07,3.24-69.5-25.91-87.75-11.48c-18.26,14.43-19.88,53.3,11.85,86.72
	c0,0-24.22,7.95-40.71-10.16c0,0,4.86-13.4-12.22-47.85c0,0,17.96,16.64,17.67-6.92s-23.41-26.21-23.71-56.39
	C135.47,175.33,142.97,157.22,142.97,157.22z"/>
<path class="fhst6" d="M147.69,186.81c0,0,19.58,35.63,47.41,27.24c18.55-6.48-9.13-28.42-9.13-28.42s29.01-0.29,40.93,19.58
	c0,0-14.28-6.48-13.84,3.09c0.44,9.57,29.74,23.41,55.66,23.41c25.91,0,35.34-19.14,34.31-24.15c-1.03-5.01-7.66-3.53-9.57-0.74
	c0,0,4.27-18.4,19.73-28.27c0,0-10.31,31.51,0.59,29.15c10.9-2.36,15.02-22.97,14.58-32.39c0,0,5.45,10.75-3.98,31.66
	c0,0-3.02,6.33,3.31,17.23c0,0-6.26-10.16-14.8-4.27c-8.54,5.89-20.61,15.46-42.55,16.2c-21.72,2.36-54.77-12.88-63.9-14.21
	c-7.82-1.14-22.23-5.78-31.72,13.05c-4.03,8-5.8,17.02-4.99,25.94c2.52,27.63,24.71,50.45,24.71,50.45s-23.63-1.47-39.09-42.11
	c0,0,7.21-0.15,11.19,6.92c0,0-8.25-12.66-2.5-27.53c5.74-14.87,7.95-29.01,0.44-34.75c-7.51-5.74-8.98,8.39-8.98,8.39
	S144.01,212.72,147.69,186.81z"/>
<path class="fhst5" d="M179.78,58.27c0,0,4.04,23.7,27.68,35.04c25.47,12.22,93.98,22.05,70.67,117.46c0,0-2.65,10.05,8.17,6.4
	l-16.56,33.98l-17.45-33.42c0,0,14.8,5.63,17.12-11.6c2.21-11.93,12.7-62.43-14.69-83.48c-26.22-21.02-45.4-21.48-58.38-31.4
	C188.78,85.46,179.49,75.13,179.78,58.27z"/>
<path class="fhst6" d="M269.75,247.88l8.28-53.23c0,0,9.39-49.91-17.78-69.02c0,0,25.62,16.56,10.05,87.46c0,0-1.33,9.17-12.37,8.06
	L269.75,247.88z"/>
<g>
	<path class="fhst7" d="M178.02,63.47c-6.8,23.32,2.65,43.25,2.65,43.25c11.77-3.02,14.76,8.9,9.99,14.01
		c3.18-2.79,10.34-11.98-6.01-29.18c0,0,8.34,7.48,36.45,13.59C205.7,99.64,177.21,92.14,178.02,63.47z"/>
	<path class="fhst7" d="M170.6,151.03c-4.5-2.55-11.98-5.73-11.87-17.59c0.15-15.75,7.66-22.16,7.66-22.16s3.53,19.29,22.97,19.73
		c0,0-9.4-3.44-13.96-13.35c-6.7-8.08-7.98-21.99-7.98-21.99s-13.84,26.32-10.75,42.66C158.47,147.85,165.25,149.65,170.6,151.03z"
		/>
</g>
<g>
	<path d="M213.94,153.68c30.35-1.13,46.03,24.45,51.1,51.26c0.74,4.1,1.18,8.24,1.57,12.37c-2.23,1.82-4.98,3.1-7.86,3.24
		c-2.49,0.15-4.8-0.14-7.16-0.96c0,0,2.48-2.8,2.48-2.8s17.45,33.42,17.45,33.42s-3.57,0.05-3.57,0.05l16.56-33.98
		c0,0,2.44,2.77,2.44,2.77c-6.95,2.57-12.31-0.47-10.87-8.24c0.89-3.97,2.12-9.31,2.72-13.26c4.47-24.7,2.7-52.8-15.51-71.72
		c-14.69-15.89-35.97-22.04-55.46-30.17c-12.93-5.74-23.14-16.96-28.01-30.2c-0.82-2.23-1.52-4.39-2.01-6.87c0,0,3.97-0.3,3.97-0.3
		s0.01,0.49,0.01,0.49s-4,0.07-4,0.07s-0.01-0.63-0.01-0.63s3.86,0.77,3.86,0.77c-2.12,5.62-3.49,11.5-3.93,17.51
		c-0.52,8.01,0.4,16.11,2.73,23.8c0.58,1.89,1.27,3.85,2.03,5.55l-2.3-1.08c4.85-1.44,11.11-0.05,13.43,4.91
		c2.42,4.7,1.27,11.24-3.51,14.03c-3.13,1.86-6.92,1.36-10.06,0.16c-2.68-1.28-4.92-3.27-6.63-5.5c-4.91-6.56-6.95-14.52-7.98-22.52
		c0,0,3.76,0.75,3.76,0.75c-1.59,3.12-2.99,6.45-4.39,9.72c-3.76,8.92-7.21,18.32-7.25,28.1c-0.05,0.72,0.12,1.86,0.17,2.59
		c0.58,8.08,5.92,11.73,13.37,13.48c1.73,0.53,3.57,0.94,5.19,2.1c1.73,1.16,2.09,3.59,1.17,5.37c-1.98,3.54-6.9,2.7-10.18,1.9
		c2.59,0.49,5.47,0.78,7.89-0.38c2.29-1.09,2.81-4.72,0.54-6.09c-1.4-0.89-3.2-1.23-4.94-1.65c-3.6-0.81-7.38-1.78-10.29-4.29
		c-5.99-5.16-6.01-14.09-5.13-21.32c1.71-13.21,7.02-25.66,13.34-37.3c0.67,6.91,1.51,14.49,4.34,20.88
		c2.45,6.01,8.12,13.55,15.06,10.53c3.74-2.05,3.55-9-0.17-11.06c-2.47-1.56-5.69-0.84-8.4-0.15c-5.52-12.18-7.22-26-4.98-39.15
		c0.98-7.14,4.75-15.63,7.03-22.46c0,0,0.22,10.9,0.22,10.9s0.01,0.39,0.01,0.39s-4,0.07-4,0.07s-0.01-0.53-0.01-0.53l3.97-0.3
		c0.84,4.08,2.53,8.36,4.49,12.1c6.21,12.09,16.75,20.11,29.42,24.57c16.93,6.41,34.76,13.04,48.09,26.03
		c13.81,12.89,20.46,31.59,21.04,50.16c0.57,13.76-1.65,27.46-4.77,40.78c-0.17,0.9-0.21,1.88-0.07,2.64
		c0.5,2.81,3.74,1.6,5.73,1.07c0,0,4.51-1.49,4.51-1.49c-0.96,2.05-17.28,35.39-18.64,38.24c0,0-1.74,3.56-1.74,3.56
		s-1.83-3.51-1.83-3.51c-1.5-2.88-19.03-36.45-19.79-37.9c0,0,4.82,1.69,4.82,1.69c3.27,1.08,7.43,1.17,10.27-1.05
		c0,0-0.75,1.75-0.75,1.75c-1.63-14.42-4.39-29.28-12.06-41.8C242.76,161.73,229.1,154.01,213.94,153.68L213.94,153.68z"/>
</g>
<path class="fhst7" d="M220.16,201.61c0,0-9.5-10.05-25.4-12.37c0,0,19.44,20.87,6.29,26.83c0,0,9.5-1.55,8.17-11.82
	C206.58,191.89,220.16,201.61,220.16,201.61z"/>
<path class="fhst7" d="M148.94,192.88c0,0,14.91,28.16,43.62,25.4c0,0-15.46,5.19-31.47-7.4c-8.72-6.63-6.85,7.18-6.85,7.18
	S148.05,209.12,148.94,192.88z"/>
<path class="fhst7" d="M212.1,213.09c0,0,10.05,12.81,43.4,19.66c0,0-18.88-3.64-40.53-11.82c-8.83-3.53-13.8-2.76-13.8-2.76
	S208.02,218.5,212.1,213.09z"/>
<path class="fhst7" d="M158.77,272.95c0,0,8.17,24.96,24.4,29.15c0,0-19.77-19.88-16.23-54.77c0,0-7.84,10.93,2.21,37.1
	C169.15,284.43,165.28,273.94,158.77,272.95z"/>
<path class="fhst7" d="M284.1,231.09c0,0,23.52-8.39,20.21-23.96c0,0-1.55-6.18-8.17-4.2c0,0,6.18-14.02,13.69-18.66
	c0,0-7.62,14.8-2.32,23.85c5.3,9.06,14.02-2.87,14.02-2.87s-3.53,7.29,0.99,12.37c0,0-3.75-5.41-9.72-3.2
	S303.54,225.57,284.1,231.09z"/>
<path class="fhst7" d="M259.37,222.26l10.05,23.3l8.72-56.54c0,0-4.75,29.6-10.6,33.35C261.69,226.12,259.37,222.26,259.37,222.26z"/>
<g>
	<path d="M182.58,224.65c-6.12,5.31-9.65,12.98-11.02,20.83c-3.92,23.05,8.7,48.18,24.33,64.52c0,0,2.2,2.36,2.2,2.36
		c-11.95,4.07-25.7,3.93-36.8-2.49c-3.72-2.13-6.97-4.97-9.81-8.14c1.36-4.01,0.91-8.53,0.35-12.69
		c-2.27-15.34-9.73-29.79-16.33-43.68c3.58,2.92,9.1,8.75,13.31,10.6c2.08,1.03,4.36,1.48,5.59,0.66c3.16-2.33,2.84-8.76,2.64-12.63
		c-2.35-26.05-39.09-27.4-15.91-87.55c0,0,2.15-5.43,2.15-5.43s1.64,5.71,1.64,5.71c4.45,14.23,14.76,26.51,27.6,34.02
		c2.36,1.53,4.99,2.62,7.49,3.89c1.59,0.62,4.53,1.73,6.15,2.35c0,0-1.98,3.37-1.98,3.37c-5.89-5.78-10.4-12.77-12.96-20.62
		c0,0-0.75-2.19-0.75-2.19s2.33-0.39,2.33-0.39c5.59-0.94,11.04-0.7,16.6-0.17c16.24,1.6,32.39,8.46,43.09,21.01
		c-7.65-7.53-17.31-12.79-27.65-15.42c-10.2-2.66-20.94-2.83-31.33-1.44c0,0,1.59-2.58,1.59-2.58c1.62,5.38,4.53,10.34,8.03,14.72
		c2.24,2.99,8.2,8.32,10.9,10.98c0,0-9.14-3.48-9.14-3.48c-17.93-6.03-32.81-18.28-40.97-35.5c-1.12-2.45-2.12-4.83-2.89-7.58
		c0,0,3.79,0.28,3.79,0.28c-3.65,9.39-6.61,19.53-7.28,29.6c-0.57,10.04,2.25,20,8.41,28.06c9.16,11.88,17.02,19.74,14.89,36.28
		c-0.54,5.01-3.78,10.05-9.48,9.04c-4.42-0.76-7.93-3.33-11.21-6.13c0,0,3.15-2.36,3.15-2.36l2.72,5.72
		c4.58,10.19,8.56,20.72,10,31.88c0.38,3.95,0.69,7.91-0.41,11.82c0,0-0.4-2.03-0.4-2.03c2.37,2.56,5.07,4.81,8.08,6.54
		c9.09,5.27,20.54,5.85,30.52,3.06c0,0-0.83,3.28-0.83,3.28c-2.81-3.02-5.51-6.14-8.01-9.44c-7.39-9.94-13.48-21.21-15.6-33.53
		C166.43,254.01,169,234.78,182.58,224.65L182.58,224.65z"/>
</g>
<g>
	<path d="M290.07,199.91c4.15-9.64,7.87-19.91,15.81-27.24c3.37-2.76,7.19-4.8,11.13-6.48c2.46,5.32,3.93,10.85,4.38,16.64
		c0.4,5.11-0.1,10.33-1.75,15.22c0,0-3.32-2.05-3.32-2.05c0.63-0.66,1.34-1.56,1.95-2.41c7.34-10.01,7.28-22.64-0.1-32.65
		c-4.47-6.85-15.5-14.88-21.61-20.35c5.3,2.84,17.58,8.1,21.81,12.22c10.83,9,15.83,23.63,14.09,37.44c-0.4,4.7-2.4,12.92-3.6,15.44
		c-0.26,7.56,2.35,14.92,4.61,22.04c0,0,1.06,3.14,1.06,3.14s-2.98,1.4-2.98,1.4c-2.54-5.18-8.37-16.55-15.54-13.79
		c5.84-3.26,11.57,3.23,15,7.32c1.25,1.58,2.39,3.18,3.47,4.96c0,0-2.98,1.4-2.98,1.4c-3.22-6.13-5.14-12.84-6.2-19.68
		c-0.33-2.52-0.58-4.77-0.41-7.41c0,0,0.09-0.26,0.09-0.26c7.41-20.04,4.56-41.95-15.31-53.18c0,0,2.15-3.33,2.15-3.33
		c3.56,3.03,6.88,6.42,9.62,10.33c8.34,11.33,8.41,25.89,0.07,37.27c-1.37,2.13-6.72,7.42-8.49,9.38c1.3-4.18,3.97-10.9,4.29-15.24
		c0.72-6.83-0.52-14.08-3.15-20.38c0,0,2.63,0.98,2.63,0.98c-3.02,1.35-5.86,3.03-8.3,5.16
		C300.36,181.97,295.47,191.42,290.07,199.91L290.07,199.91z"/>
</g>
<path class="fhst8" d="M183.17,101.67c0,0-5.41-11.71-4.2-22.42c0,0,2.32,6.4,8.28,10.49l-6.18,0.55c0,0,6.74,6.52,8.72,12.15
	C189.8,102.44,187.04,101.34,183.17,101.67z"/>
<path class="fhst8" d="M263.86,224.21c-0.53,0.04,5.01,19.88,5.01,19.14c0-0.74,0.88-23.41,0.88-23.41S268.13,223.91,263.86,224.21z"
	/>
<path class="fhst8" d="M229.26,107.3c0,0,41.23,11.48,43.58,53.45c0,0,2.21,25.33-2.8,46.23c0,0,5.37-35.12-1.77-58.01
	C259.59,116.72,229.26,107.3,229.26,107.3z"/>
<path class="fhst8" d="M194.77,189.24c0,0,18.66,2.87,25.4,12.37c0,0-9.46-8.02-14.17-5.82s-0.74,11.48-0.74,11.48
	S201.28,194.91,194.77,189.24z"/>
<path class="fhst8" d="M169.63,213.9c0,0-17.37-11.19-20.91-22.38c0,0,0,7.66,3.53,11.19C155.78,206.25,169.63,213.9,169.63,213.9z"/>
<path class="fhst8" d="M161.38,277.95c0,0,5.45,13.99,16.49,19.88C177.87,297.83,170.51,283.4,161.38,277.95z"/>
<path class="fhst8" d="M297.28,201.24c0,0,2.5-8.25,11.19-15.31c0,0-7.07,9.13-4.71,15.31C303.76,201.24,301.7,198.74,297.28,201.24z"
	/>
<path class="fhst7" d="M142.68,162.96c0,0,12.81,31.36,50.21,40.49c0,0-32.25-2.21-48.59-28.27c0,0-7.51,14.13-3.68,30.92
	C140.62,206.1,131.64,193.14,142.68,162.96"/>
<path class="fhst9" d="M184.94,172.68c0,0,18.7-15.75,42.7-9.42c24,6.33,10.01,33.57,10.01,33.57S223.22,172.97,184.94,172.68z"/>
</svg>
