<svg version="1.1" id="right-wing" xmlns="http://www.w3.org/2000/svg" xmlns:xlink="http://www.w3.org/1999/xlink" x="0px" y="0px"
	 viewBox="0 0 510.24 595.28" style="enable-background:new 0 0 510.24 595.28;" xml:space="preserve">

<path d="M155.78,353.01c0,0,1.21-19.1,21.31-19.77c20.1-0.66,42.63,18.33,38.98,36.77c-3.64,18.44-21.87,14.36-21.87,14.36
	L155.78,353.01z"/>
<path class="fswordst0" d="M146.62,327.94c0,0-13.25,34.34-5.08,47.93c8.17,13.58,18.66,9.83,18.66,9.83l10.49-23.19
	C170.69,362.5,150.37,349.58,146.62,327.94z"/>
<path d="M160.2,364.71c0,0-14.69,19.99-12.04,32.02c2.65,12.04,15.9,24.74,16.23,24.74s4.86-28.71,20.43-33.46
	c15.57-4.75,21.75-3.42,21.75-3.42s4.2-13.25-12.04-18.55C178.31,360.74,160.2,364.71,160.2,364.71z"/>
<path class="fswordst1" d="M186.59,444.22c0,0-37.1-10.05-28.05-43.84c9.06-33.79,56.43-25.84,64.38-11.48
	c7.95,14.36,12.37,27.61-5.08,37.21S195.54,448.53,186.59,444.22z"/>
<path class="fswordst2" d="M225.58,387.35l45.5-32.39c0,0-9.13,18.85,24.29,4.71c33.42-14.13,59.78-38.13,59.93-54.77
	c0,0,118.53-45.94,140.47-84.37c0,0-9.13,82.45-125.08,149.6c0,0,12.37-26.06-7.95-19.44c-20.32,6.63-121.03,66.04-121.03,66.04
	L225.58,387.35z"/>
<path class="fswordst3" d="M229.27,388.2l37.94-27.01c0.15,0.99,0.47,1.97,1.05,2.89c1.05,1.68,3.33,3.68,8.21,3.68
	c4.74,0,11.28-1.79,20-5.48c33.73-14.27,59.58-37.7,61.54-55.4c13.74-5.43,100.22-40.46,132.11-74.33
	c-2.57,8.72-7.35,21.51-16.05,36.5c-14.55,25.05-43.24,61.36-97.94,94.55c1.22-4.43,1.87-9.69-0.35-13.2
	c-1.05-1.66-3.17-3.63-7.35-3.63c-1.91,0-4.06,0.4-6.57,1.22c-18.81,6.14-103,55.37-119.07,64.81L229.27,388.2z"/>
<path d="M251.64,393.24c-37.69,7.07-25.77-35.63-25.77-35.63c-13.99,10.31-19.29,25.03-19.29,25.03
	c15.78,7.96,22.74,20.65,23.61,22.34l-0.01,0c0,0,0.02,0.04,0.06,0.09c0.03,0.06,0.05,0.1,0.05,0.1l0.01,0
	c0.96,1.64,8.01,14.27,6.36,31.87c0,0,15.29,3.34,31.46-3.02C268.11,434.01,225.61,421.4,251.64,393.24z"/>
<path class="fswordst4" d="M246.75,435.08c-2.96,0-5.41-0.22-7.08-0.43c0.84-16.79-5.58-28.62-6.93-30.92l-0.03-0.05
	c-1.22-2.37-7.84-14.09-22.5-22.31c1.58-3.39,5.2-10.09,11.41-16.34c-0.82,7.05-0.75,17.17,4.55,24.15c3.88,5.11,9.82,7.7,17.67,7.7
	c0.42,0,0.85-0.01,1.29-0.02c-4.34,6.41-5.73,12.61-4.11,18.49c2.51,9.12,11.74,15.08,18.56,18.34
	C254.61,434.79,250.1,435.08,246.75,435.08L246.75,435.08z"/>
<path class="fswordst5" d="M231.76,388.23c0,0,2.5,3.98,10.9-6.33c0,0,16.93-6.04,23.85-19.14c0,0,0.15,13.55,14.13,6.92
	c0,0,15.17-2.5,24.59-11.04c0,0,29.01-10.31,35.19-24.44c0,0,26.65-13.84,19.44-27.39c0,0,12.52,1.91,25.03-10.9
	c0,0,11.04-1.03,22.09-10.9c0,0,18.99-2.36,34.16-17.96c0,0,30.92-11.34,48.59-34.01c0,0-4.86,14.87-10.45,26.36
	c0,0-11.78,7.07-11.48,17.67c0,0-6.92,2.94-8.39,11.04c0,0-24.29,13.55-27.09,30.04c0,0-12.96,0.59-16.79,16.49
	c0,0-11.48,0.44-17.52,13.4c0,0-14.72,4.56-17.52,11.04c-0.15-0.88,5.01-12.81-4.42-16.79c0,0-5.89-6.04-12.66-3.83
	s-8.98,11.19-8.98,11.19s-6.77-3.53-16.2,8.54c0,0-12.96-0.59-17.82,10.31c0,0-14.87,1.33-17.23,8.83c0,0-11.48,2.06-14.72,9.57
	c-0.59,0.29-14.43,4.71-17.37,9.87c0,0-16.79,4.27-23.56,12.81c0,0,2.65-11.48,11.63-20.02
	C259.15,389.56,237.06,394.12,231.76,388.23z"/>
<path class="fswordst6" d="M241.92,389.26c0,0,16.2-12.22,24.74-17.23c0,0-7.8,8.83-5.89,9.28c1.91,0.44,21.5-6.04,34.16-15.17
	c0.88-0.15,30.18-13.25,37.69-20.76c0,0,37.84-27.09,44.76-39.75c0,0,26.94-7.21,41.67-19.29c0,0,42.55-21.35,64.64-43.58
	c0.59,0.15-7.66,10.6-12.96,15.75c-5.3,5.15-24.29,14.72-33.13,23.56c0,0-25.18,12.96-31.07,17.82c-5.89,4.86-13.4,9.72-13.4,9.72
	s17.52,1.62,27.98,6.48c0,0-17.37-2.65-25.33-0.74c0,0-11.34-2.8-17.52-0.15c-6.18,2.65-17.23,13.25-17.23,13.25
	s-24,15.61-30.63,23.41c0,0-41.08,22.67-51.09,29.45c0,0-13.25,7.8-26.65,19.73c0,0,5.15-8.39,11.78-14.13
	C264.45,386.91,248.55,390.44,241.92,389.26z"/>
<path class="fswordst6" d="M358.68,338.32c0,0,21.35-15.02,25.33-16.34c3.98-1.33,15.9-8.39,19.14-9.42c3.24-1.03,35.78-23.56,47.71-29.01
	c0,0-26.36,11.19-29.45,13.55c0,0-8.39,9.87-29.89,12.96l-6.04,2.21c0,0,0.29,3.83-4.86,8.1
	C375.47,324.63,358.68,338.32,358.68,338.32z"/>
<path class="fswordst6" d="M296.69,374.54c0,0,29.45-20.91,32.54-22.97c3.09-2.06,20.61-9.72,20.61-9.72s-21.06,13.84-23.12,15.61
	C324.67,359.23,296.69,374.54,296.69,374.54z"/>
<path class="fswordst7" d="M258.85,379.25l-10.01,8.1c0,0,7.8-0.15,23.26-6.63c0,0-13.84,4.27-13.69,2.5
	C258.56,381.46,258.85,379.25,258.85,379.25z"/>
<path class="fswordst7" d="M344.55,338.76c-0.37,0.24,12.52-10.6,15.61-12.81c3.09-2.21,16.2-13.69,19.44-18.11c0,0,10.01-1.47,16.34-5.74
	c6.33-4.27,11.04-6.92,11.04-6.92s18.11-7.8,25.91-13.84l19.14-11.93l-17.67,13.25c0,0-27.53,13.55-36.81,21.79
	c-9.28,8.25-5.74,6.48-5.74,6.48l15.9,1.62c0,0-20.61,5.15-20.47,4.71s0.74-5.89,0.74-5.89s-3.98-1.47-7.95,0.74
	S361.33,327.87,344.55,338.76z"/>
<path class="fswordst7" d="M376.64,324.63c0.44-0.29,6.04-4.42,6.04-4.42l4.27-1.18l-3.83,2.21L376.64,324.63z"/>
<path class="fswordst6" d="M244.9,411.64c0,0,14.91-7.07,15.24-7.07c0.33,0,10.93-7.8,10.93-7.8s-13.03,6.59-14.25,7.14
	S244.9,411.64,244.9,411.64z"/>
<path class="fswordst6" d="M275.16,393.76c0.55-0.11,13.25-5.52,13.69-5.96c0.44-0.44,4.53-4.2,4.53-4.2s14.91-7.51,15.24-7.73
	s5.08-3.53,5.08-3.53l-10.93,5.08l-12.59,8.06c0,0-6.63,2.87-6.96,3.09S275.16,393.76,275.16,393.76z"/>
<path class="fswordst6" d="M319.88,368.91c0.52-0.4,17.67-10.38,18.33-10.71c0.66-0.33,5.85-1.88,5.85-1.88l10.34-6.66
	c0,0,14.17-6.59,19.25-1.62c0,0-8.72-3.75-17.78,3.98c0,0-8.5,2.32-12.7,5.19c-4.2,2.87-7.84,4.09-7.84,4.09L319.88,368.91z"/>
<path class="fswordst6" d="M376.12,363.6l21.87-15.57c0,0,14.76-8.13,17.52-13.4l18.22-15.42l-15.13,16.01l-17.34,11.82l-8.06,7.73
	l-7.84,3.09c0,0-5.41,6.07-5.85,6.07C379.07,363.94,376.12,363.6,376.12,363.6z"/>
<path class="fswordst6" d="M443.56,309.94c0-0.33,5.52-9.39,5.52-9.39s10.6-9.06,10.71-9.39c0.11-0.33,4.42-8.39,4.97-8.61
	s3.75-3.64,3.87-4.09c0.11-0.44,1.55-7.18,1.88-7.29c0.33-0.11,6.18-6.29,6.18-6.29l-3.64,9.17l-5.52,6.85l-4.75,7.51l-5.96,6.63
	l-7.4,10.27L443.56,309.94z"/>
<path class="fswordst8" d="M351.17,341.26c0.44-0.29,32.98-29.74,33.57-29.74s53.15-32.69,53.74-32.98c0.59-0.29,31.36-20.32,31.8-20.91
	c0.44-0.59,15.17-17.23,15.17-17.23l-16.64,26.94l-46.67,39.46c0,0,30.48-19.58,29.89-18.85c-0.59,0.74-38.58,36.66-58.01,49.77
	l7.07-11.78c0,0-30.04,5.6-45.64,18.7c-15.61,13.1-62.72,33.87-62.72,33.87l1.47-3.39c0,0-43.58,29.01-43.58,28.27
	c0-0.74,12.66-15.9,20.32-20.91c7.66-5.01,58.31-33.57,58.31-33.57l29.15-19.73L351.17,341.26z"/>
<path d="M219.39,367.03l-1.88,5.19l-0.88,5.41l-1.77,4.31l3.2-2.1c0,0,0.88-4.86,0.99-5.19c0.11-0.33,2.87-1.88,2.98-2.21
	c0.11-0.33,0.99-10.38,0.99-10.38l-3.31,3.2L219.39,367.03z"/>
<path class="fswordst4" d="M134.25,450.52c-0.07-0.39,28.27-11.15,40.75-20.54l4.97,9.5c0,0-25.62,13.8-34.79,23.52
	C145.18,462.99,135.8,459.46,134.25,450.52z"/>
<path d="M226.57,396.52c0.55-0.33,3.09-1.44,3.09-1.44l3.09,3.53l1.1,4.75l0.55,3.98l3.09-2.65l2.54-1.21l-2.87,4.42l-1.44,5.96
	c0,0-4.53-10.38-4.75-11.71C230.77,400.82,226.57,396.52,226.57,396.52z"/>
<path d="M239.05,430.09c0.33,0,5.41,0.77,5.85,0.55c0.44-0.22,5.85-3.64,5.85-3.64l-5.52-0.66l0.33,2.43l-7.4-3.53L239.05,430.09z"
	/>
<path d="M357.65,345.39c0,0,0-5.08,2.43-5.96c2.43-0.88,9.64-3.2,15.98,2.87c0,0-5.6-3.42-10.01,0.11
	C366.04,342.41,360.41,338.98,357.65,345.39z"/>
<path d="M262.57,397.29c-0.42,0.25,6.74-2.54,6.74-2.54l7.95-6.52l9.28-4.31l4.97-6.18c0,0-5.52,4.75-8.06,5.96
	s-12.92,7.62-12.92,7.62S270.74,392.43,262.57,397.29z"/>
<path d="M378.08,346.49c0,0,2.54,1.99,2.54,3.75c0,1.77-1.77,7.51-1.77,7.51s0.55,2.21,0.88,1.88c0.33-0.33,6.52-6.63,10.49-8.39
	c3.98-1.77,8.5-4.53,8.5-4.53s-14.58,5.74-16.23,6.96C380.84,354.88,385.04,348.81,378.08,346.49z"/>
<path d="M227.9,388.12c0,0,7.95-3.31,9.28-4.31c1.33-0.99,5.85-5.3,6.29-5.41c0.44-0.11,18.66-12.37,18.66-12.37
	s-8.72,9.39-14.36,11.6c-5.63,2.21-8.61,5.74-8.61,5.74s-6.52,7.07-10.16,7.18L227.9,388.12z"/>
<path class="fswordst9" d="M206.25,438.7c-0.2-0.29,2.65,5.19-8.39,10.6c-11.04,5.41-22.75-10.93-22.75-10.93s-13.58-16.56,1.33-34.67
	c14.91-18.11,30.92-19.55,40.2-13.36s22.31,19.21,16.9,38.98C229.88,439.58,208.35,441.79,206.25,438.7z"/>
<path class="fswordst10" d="M196.2,417.5c0,0,6.07,22.53,22.2,18.33s12.04-23.96,7.84-31.58s-18.66-18.22-34.79-8.39
	s-21.09,23.74-16.9,33.13c4.2,9.39,19.1,24.18,27.5,9.5C202.05,438.48,194.66,428.65,196.2,417.5z"/>
<path class="fswordst11" d="M177.1,421.58c-0.33,5.96,1.99,10.27,7.07,15.9c5.08,5.63,15.68,3.42,12.59-4.53
	c-3.09-7.95-4.97-14.47-0.22-19.77c0,0,7.18,17.34,14.91,19.21c7.73,1.88,15.79-2.32,15.57-15.9s-12.59-23.63-23.3-21.53
	C193,397.07,177.32,410.43,177.1,421.58z"/>
<circle class="fswordst12" cx="210.94" cy="410.82" r="14.41"/>
<circle class="fswordst12" cx="185.93" cy="425.67" r="8.28"/>
<path class="fswordst5" d="M136.9,451.29c0,0,2.87,2.87,6.18,0.55c3.31-2.32,0.99-4.97,1.55-4.64c0.55,0.33,6.07,1.77,6.07,1.77l0.22-3.31
	l3.2,0.99c0,0-0.11-4.42,3.31-4.75c3.42-0.33,7.29-2.32,8.06-4.09c0,0,3.53,0.22,4.53-2.54c0,0,0.55,3.98,3.42,6.18
	c0,0-2.98-2.54-5.52-0.33c-2.54,2.21-2.1,5.3-2.1,5.3s-3.09-1.21-4.09,0.44c-0.99,1.66-1.21,3.75-1.21,3.75s-1.99-0.88-2.98,0.11
	s-1.21,2.65-1.21,2.65s-4.31-0.99-6.4,1.44c-2.1,2.43-1.99,4.42-1.99,4.42s-1.99-1.88-2.98-1.1c-0.99,0.77,0.11,3.53,0.11,3.53
	S137.45,458.91,136.9,451.29z"/>
<path d="M144.63,447.2c0,0,3.75,7.73,8.72,7.84c0,0-5.08,0.33-8.28-0.99c0,0-1.1,3.64,1.77,5.63c0,0-5.52-1.1-7.18-9.5
	c0,0,4.2,3.09,7.4,3.09C147.06,453.28,144.96,452.39,144.63,447.2z"/>
<path d="M150.93,445.66c-0.33,0.44,2.21,6.18,6.29,6.52l-2.32-4.2c0,0,7.07,2.21,6.96,1.88c-0.11-0.33-2.21-4.53-1.88-4.53
	c0.33,0,3.53,0.44,3.53,0.44s0.55-2.65,0.88-2.65s4.12,1.14,4.12,0.7c0-0.44,7.25-2.58,7.8-2.72s-1.55-2.17-1.55-2.17
	s-2.65-4.42-2.65-4.09c0,0.33-1.21,3.75-1.55,3.75c-0.33,0-7.84,2.1-7.84,2.1l-2.21,3.09l-3.09-1.88l1.33,5.3l-5.52-3.09v2.76
	L150.93,445.66z"/>
<path d="M139.99,448.02l7.52,11.76c1.63,2.56,0.53,6-2.3,7.08c-4.42,1.68-10.87,2.29-15.69-4.99c-0.23-0.35-0.42-0.74-0.55-1.15
	c-2.25-7.08,0.92-11.47,4.02-13.93C135.21,445.05,138.47,445.64,139.99,448.02z"/>
<path class="fswordst4" d="M131.49,461.23c0,0-2.43-2.87-0.66-5.52c1.77-2.65,1.21-5.85,3.2-7.07s3.87,1.44,3.87,2.43s2.32,6.07,2.32,6.07
	l4.86,4.53l-4.09,2.65c0,0-1.88,1.66-4.2,0.55C134.47,463.77,133.15,464.43,131.49,461.23z"/>
<path class="fswordst5" d="M136.46,463.66c0,0-5.74-2.43-5.19-5.41c0.55-2.98,1.21-3.2,1.21-3.53s-0.11-4.75,1.66-5.52
	c1.77-0.77,4.97,1.77,4.97,1.77s-3.42-1.55-4.2,0.66c-0.77,2.21-0.11,3.98-0.11,3.98l2.21-2.54
	C137.01,453.06,133.15,459.24,136.46,463.66z"/>
<polygon class="fswordst6" points="134.36,461.67 132.59,460.23 133.48,457.8 "/>
<polygon class="fswordst6" points="133.37,451.73 133.37,449.63 134.8,449.41 "/>
<polygon class="fswordst6" points="146.29,448.42 147.83,450.63 149.6,448.86 "/>
<path class="fswordst6" d="M152.58,444.88c0.44,0,3.42,0.55,3.42,0.55l-0.33-2.1L152.58,444.88z"/>
<path d="M147.54,462.3c0,0,13.84-13.84,30.85-20.47l-2.36-2.28c0,0-20.54,10.09-29.19,20.13L147.54,462.3z"/>
<path class="fswordst3" d="M212.99,380.5c0.11-0.44,0.11-5.74,0.11-5.74l3.2-2.87l1.99-4.42l4.75-5.41c0,0-0.77,9.72-0.88,9.39
	c-0.11-0.33-1.1-2.87-1.1-2.87l-2.87,4.86l-2.87,2.32L212.99,380.5z"/>
<polygon class="fswordst3" points="247,395.19 243.13,396.18 236.62,395.41 232.86,396.18 235.63,399.72 234.74,406.57 238.16,400.6 
	243.24,398.5 240.04,398.28 "/>
<path class="fswordst3" d="M245.9,433.73l3.31-3.31l4.2,2.21l3.09-1.99c0,0,2.63,3.29,3.08,3.03c0.45-0.27,4.65,0.29,4.65,0.29
	l-10.93,2.32c0,0-2.76-2.1-3.09-1.99C249.87,434.39,245.9,433.73,245.9,433.73z"/>
<path class="fswordst2" d="M221.6,374.32l-2.1,6.52l1.77,1.77l-0.11,5.19l4.2,3.53l7.62,3.98C232.97,395.3,222.26,391.1,221.6,374.32z"/>
<path class="fswordst2" d="M214.97,379.18l0.44-7.62c0,0,2.87-1.55,2.87-1.99s1.44-4.31,1.44-4.31l3.31-3.2l-2.65,6.63
	C220.39,368.69,215.2,372.33,214.97,379.18z"/>
<path class="fswordst2" d="M241.7,403.14l-3.09,4.86c0,0-0.55,12.7,8.39,17.23C247,425.23,236.95,416.17,241.7,403.14z"/>
<path class="fswordst13" d="M146.62,327.94c0,0-4.31,33.46,16.01,39.87s30.26,2.54,44.39,11.26c0,0,0.88-22.53-15.13-25.07
	C175.88,351.46,158.77,358.31,146.62,327.94z"/>
<path class="fswordst1" d="M154.68,402.59c0,0-9.06-11.6,3.64-29.04c0,0,3.64,6.96,12.92,3.87C171.24,377.41,152.91,387.9,154.68,402.59z"
	/>
<path class="fswordst14" d="M162.96,364.82c0,0,6.63,3.53,17.67,4.53c11.04,0.99,19.1,3.98,19.1,3.98s-3.31-16.01-18.55-17.67
	C165.94,354,162.96,364.82,162.96,364.82z"/>
<path class="fswordst14" d="M155.12,360.3c0,0-7.07-7.4-6.74-25.18c0,0,1.44,8.39,14.91,16.79C163.29,351.9,159.1,353.12,155.12,360.3z"/>
<path class="fswordst14" d="M142.97,343.73c0,0-8.28,28.82,7.4,39.31l1.33-3.98C151.7,379.07,137.45,375.64,142.97,343.73z"/>
<path class="fswordst15" d="M190.9,369.24c0.33,0.01-1.77-11.6-12.81-12.48c0,0,0.99,4.42,2.76,5.96c0,0-4.86-2.1-11.26,2.65
	C169.59,365.37,179.53,368.8,190.9,369.24z"/>
<path class="fswordst15" d="M150.59,345.28c0,0,1.66,8.28,3.87,11.82c0,0,0.77-3.64,1.1-3.64c0.33,0,4.64-0.99,4.64-0.99
	S154.24,351.13,150.59,345.28z"/>
<path class="fswordst1" d="M164.29,346.71c0,0,2.54-6.96,9.39-9.17c6.85-2.21,26.28,0,32.58,17.01c0,0-7.21-6.13-20.1-4.97
	C171.47,350.91,164.29,346.71,164.29,346.71z"/>
<path class="fswordst16" d="M159.98,419.37c0,0-5.3-9.17,1.33-23.96s27.61-18.99,39.31-16.23c0,0-27.94,1.66-35.12,18.99
	c-7.18,17.34-0.99,28.27-0.99,28.27L159.98,419.37z"/>
<path class="fswordst16" d="M153.58,398.95c0,0-5.08-11.71,4.64-23.52c0,0-4.86,8.06-1.88,14.8C156.34,390.22,153.69,393.98,153.58,398.95
	z"/>
<path class="fswordst17" d="M159.32,412.64c0,0-1.1-13.91,5.85-21.87c6.96-7.95,18.22-10.38,18.22-10.38s-13.25,4.42-18.33,12.59
	C159.98,401.15,159.32,412.64,159.32,412.64z"/>
<path class="fswordst17" d="M153.02,394.09c0,0-1.66-9.06,3.64-16.12C156.67,377.96,153.24,385.36,153.02,394.09z"/>
<path class="fswordst15" d="M200.73,420.15c0,0-5.63-9.28-1.1-16.9s15.13-4.75,15.13-4.75s-9.39,0.44-12.92,7.62
	C198.9,412.08,200.73,420.15,200.73,420.15z"/>
<path class="fswordst15" d="M178.97,429.87c0,0-2.32-5.63,1.88-9.06c4.2-3.42,9.61-0.99,9.61-0.99s-6.07-0.11-8.94,2.43
	C178.64,424.79,178.97,429.87,178.97,429.87z"/>
<path class="fswordst18" d="M166.5,346.27c0,0,1.55-5.63,7.51-7.51c5.96-1.88,17.01-0.44,25.4,7.4c0,0-12.26-6.18-21.09,1.99
	C178.31,348.15,173.56,348.81,166.5,346.27z"/>
<path class="fswordst17" d="M167.71,345.72c0,0,3.98-10.05,19.21-5.85C186.93,339.87,174.12,337.66,167.71,345.72z"/>
<path class="fswordst17" d="M174.34,434.61c0.11,0.33-5.41-9.83-2.87-18.66c2.54-8.83,14.25-19.44,14.25-19.44s10.38-8.39,20.65-7.95
	c0,0-9.06-0.33-19.99,9.39c-10.93,9.72-13.58,18.66-13.58,18.66S170.14,422.14,174.34,434.61z"/>
<path class="fswordst19" d="M175.51,365.56c0,0,4.56,1.33,10.16,0.29c0,0-1.91-5.89-5.15-7.21l1.47,4.71
	C181.99,363.35,179.05,363.06,175.51,365.56z"/>
<path class="fswordst19" d="M161.67,398.84c0.15-0.44,3.24-7.66,3.24-7.21c0,0.44-0.29,5.3-0.29,5.3L161.67,398.84z"/>
<path class="fswordst19" d="M146.36,334.49c0,0-2.5,18.26,9.28,29.6C155.64,364.09,147.24,355.1,146.36,334.49z"/>
<path class="fswordst19" d="M199.07,405.17c-0.22,0.41,3.68-0.59,3.68-0.59v-3.98C202.75,400.6,200.69,402.07,199.07,405.17z"/>
<path class="fswordst19" d="M178.75,423.13c0.44,0,3.53,0.88,3.53,0.88l-0.59-3.68L178.75,423.13z"/>
<path class="fswordst20" d="M179.34,400.6c0,0,14.72-15.9,5.15-24.29c0,0,14.28-3.83,24.44,3.39l-0.29,1.91c0,0,9.57,5.01,13.99,12.22
	c0,0-11.19-10.45-26.65-4.12C184.65,394.35,179.34,400.6,179.34,400.6z"/>
<path class="fswordst21" d="M181.26,351.13c0,0,1.03-12.22,18.99-7.8s10.6,27.68,10.6,27.68S205.4,348.92,181.26,351.13z"/>
<path d="M242.8,415.73c0,0,50.02-28.38,76.42-43.29c26.39-14.91,40.75-20.87,40.75-20.87s-93.42,51.57-115.73,68.02
	C244.24,419.6,243.02,417.72,242.8,415.73z"/>
<path class="fswordst7" d="M271.07,354.96c0,0-6.07,10.42,7.62,10.42c13.69,0,46.38-21.98,46.38-21.98s-42.4,27.17-52.9,19.1
	C270.51,360.55,270.47,357.9,271.07,354.96z"/>
</svg>
