<svg width="511" height="596" viewBox="0 0 511 596" fill="none" xmlns="http://www.w3.org/2000/svg">
<path d="M318.229 147.099L346.801 120.753L370.762 114.309C376.387 112.796 381.923 117.032 381.923 122.871V205.275L372.489 165.56L318.229 147.099Z" fill="#C3D3DD"/>
<path d="M346.803 120.753V155.751L381.801 146.707V122.889C381.801 117.05 376.264 112.813 370.639 114.326L346.803 120.753Z" fill="#E1F5FF"/>
<path d="M320.796 146.707L347.534 121.75L373.097 114.469C373.097 114.469 380.378 115.448 380.378 124.491C380.378 124.491 378.811 117.014 371.246 119.382L346.964 126.752L323.573 148.274L320.796 146.707Z" fill="white"/>
<path d="M318.229 147.099L344.967 122.141L370.762 114.326C376.387 112.813 381.923 117.05 381.923 122.889V205.292L372.489 165.577L318.229 147.099Z" stroke="black" stroke-width="5.34047" stroke-miterlimit="10"/>
<path d="M345.238 156.286L372.492 165.56V382.383L463.886 358.28C472.359 356.055 478.252 348.382 478.252 339.642V146.246C478.252 133.607 466.289 124.367 454.059 127.607L345.238 156.286Z" fill="white"/>
<path d="M343.545 162.482L370.942 171.454V381.032L462.014 357.587C470.523 355.433 476.451 348.028 476.451 339.572L477.252 152.78C477.252 140.55 465.219 131.65 452.918 134.765L343.545 162.482Z" fill="#D8D8D8"/>
<path d="M372.491 165.578L318.231 147.1L35.8807 221.564C33.6021 222.169 32 224.234 32 226.601V457.933C32 460.852 33.8514 463.451 36.6284 464.395L86.2592 481.306V241.056L372.491 165.578Z" fill="#9DA5A5"/>
<path d="M367.863 407.023L86.2598 481.291V241.059L372.491 165.58V401.024C372.491 403.836 370.586 406.293 367.863 407.023Z" fill="#DDDDDD"/>
<path d="M34.4032 223.397L86.2591 241.057V481.271L37.3582 464.609C34.154 463.523 32.0178 460.514 32.0178 457.132V225.106C32 223.878 33.2283 223.006 34.4032 223.397Z" fill="#F72300"/>
<path d="M318.233 147.1L372.492 165.578L260.147 195.164L206.849 176.401L318.233 147.1Z" fill="#F7C100"/>
<path d="M75.2219 462.616C74.9371 462.616 74.6701 462.563 74.4031 462.474L41.8084 450.814C40.8471 450.476 40.1885 449.55 40.1885 448.517V439.456C40.1885 434.686 41.9152 431.499 45.3153 429.986C46.6682 429.381 48.2704 429.078 50.0327 429.078C52.5428 429.078 55.5156 429.683 58.8623 430.894C64.8792 433.048 69.5432 436.039 72.7475 439.812C75.9874 443.622 77.643 448.09 77.643 453.075V460.177C77.643 461.53 76.5571 462.616 75.2219 462.616ZM51.4213 438.317C48.84 438.317 47.7007 439.385 47.7007 441.771V443.515C47.7007 443.782 47.8787 444.031 48.128 444.12L70.0595 451.971V450.956C70.0595 448.606 69.1516 446.595 67.3003 444.797C65.3777 442.946 62.4048 441.29 58.4707 439.884C55.5512 438.851 53.1836 438.317 51.4213 438.317Z" fill="white"/>
<path d="M50.0322 429.985C52.4532 429.985 55.2836 430.573 58.5769 431.748C64.4692 433.848 68.9731 436.732 72.0883 440.399C75.2036 444.066 76.7701 448.303 76.7701 453.092V460.194C76.7701 461.085 76.0402 461.743 75.2391 461.743C75.0611 461.743 74.9009 461.708 74.7229 461.654L42.1283 449.994C41.523 449.781 41.1136 449.193 41.1136 448.534V439.474C41.1136 435.059 42.6445 432.175 45.7064 430.822C46.9169 430.27 48.3766 429.985 50.0322 429.985ZM70.9489 453.252V450.973C70.9489 448.392 69.9342 446.131 67.9049 444.173C65.8755 442.215 62.8315 440.524 58.7727 439.064C55.7465 437.978 53.3077 437.444 51.4207 437.444C48.341 437.444 46.8101 438.886 46.8101 441.788V443.532C46.8101 444.191 47.2194 444.761 47.8247 444.992L70.9489 453.252ZM50.0322 428.205C48.1274 428.205 46.4184 428.543 44.9586 429.184C42.3774 430.323 39.2979 433.047 39.2979 439.474V448.534C39.2979 449.941 40.1878 451.187 41.5051 451.668L74.0998 463.328C74.4558 463.452 74.8475 463.523 75.2213 463.523C77.0549 463.523 78.5325 462.028 78.5325 460.194V453.092C78.5325 447.894 76.8235 443.23 73.4412 439.26C70.1302 435.379 65.3415 432.282 59.1822 430.074C55.7109 428.828 52.649 428.205 50.0322 428.205ZM48.5901 443.354V441.788C48.5901 440.168 49.0531 439.224 51.4207 439.224C53.0763 439.224 55.3547 439.741 58.1674 440.737C61.9769 442.108 64.843 443.692 66.6765 445.455C68.2965 447.004 69.0976 448.73 69.1688 450.724L48.5901 443.354Z" fill="#B90000"/>
<path d="M70.4514 430.554C68.5644 430.554 66.3214 430.091 63.7758 429.184L41.8086 421.333C40.8474 420.995 40.1887 420.069 40.1887 419.037V415.298C40.1887 413.963 41.2746 412.859 42.6097 412.859C42.8945 412.859 43.1616 412.913 43.4286 413.002L64.8439 420.657C66.268 421.173 67.4429 421.422 68.3508 421.422C69.0984 421.422 69.6325 421.244 69.9529 420.906C70.2911 420.55 70.4692 419.945 70.4692 419.126C70.4692 417.862 69.9885 416.722 68.9738 415.672C67.9236 414.551 66.3748 413.625 64.3988 412.913L41.7908 404.831C40.8296 404.493 40.1709 403.567 40.1709 402.535V398.796C40.1709 397.461 41.2568 396.357 42.5919 396.357C42.8767 396.357 43.1438 396.411 43.4108 396.5L64.4344 404.03C68.8136 405.596 72.2315 407.893 74.5635 410.866C76.9133 413.856 78.106 417.417 78.106 421.458C78.106 425.57 76.8243 428.329 74.2965 429.664C73.2462 430.269 71.9467 430.554 70.4514 430.554Z" fill="white"/>
<path d="M42.6088 397.282C42.7868 397.282 42.9471 397.318 43.1251 397.371L64.1488 404.901C68.4034 406.414 71.6433 408.604 73.8685 411.434C76.1115 414.283 77.233 417.629 77.233 421.474C77.233 425.248 76.1292 427.723 73.904 428.898C72.9427 429.396 71.7857 429.663 70.4328 429.663C68.6526 429.663 66.5164 429.218 64.042 428.346L42.0749 420.495C41.4696 420.282 41.0602 419.694 41.0602 419.036V415.297C41.0602 414.407 41.79 413.749 42.591 413.749C42.769 413.749 42.9293 413.784 43.1073 413.838L64.5226 421.492C66.0535 422.044 67.3174 422.311 68.3321 422.311C70.3259 422.311 71.3228 421.243 71.3228 419.125C71.3228 417.629 70.7532 416.276 69.5961 415.048C68.439 413.82 66.8013 412.823 64.6651 412.057L42.057 403.976C41.4517 403.762 41.0424 403.174 41.0424 402.516V398.777C41.078 397.941 41.7899 397.282 42.6088 397.282ZM42.6088 395.502C40.7753 395.502 39.2979 396.997 39.2979 398.831V402.569C39.2979 403.976 40.1878 405.222 41.5051 405.702L64.1131 413.784C65.9645 414.443 67.3886 415.297 68.3499 416.312C69.1866 417.202 69.5961 418.146 69.5961 419.16C69.5961 420.495 69.2044 420.567 68.3855 420.567C67.5844 420.567 66.4985 420.317 65.1634 419.854L43.7481 412.2C43.3921 412.075 43.0006 412.004 42.6267 412.004C40.7932 412.004 39.3156 413.499 39.3156 415.333V419.071C39.3156 420.478 40.2056 421.724 41.5229 422.204L63.4902 430.055C66.1426 430.998 68.4923 431.479 70.4683 431.479C72.106 431.479 73.548 431.159 74.7585 430.518C77.5889 429.005 79.0308 425.978 79.0308 421.528C79.0308 417.273 77.767 413.535 75.2926 410.384C72.8538 407.287 69.3112 404.901 64.7718 403.263L43.7481 395.733C43.3743 395.555 43.0005 395.502 42.6088 395.502Z" fill="#B90000"/>
<path d="M68.5302 400.56C65.7887 400.56 62.4598 399.865 58.6681 398.512C52.758 396.394 48.094 393.492 44.7651 389.896C41.3828 386.229 39.6738 382.117 39.6738 377.702C39.6738 376.243 39.8696 374.872 40.2435 373.644C40.4749 372.914 40.7953 372.184 41.2226 371.472C41.6498 370.742 42.4509 370.297 43.3053 370.297C43.8572 370.297 44.3912 370.475 44.8185 370.831L47.7379 373.145C48.717 373.928 48.9662 375.335 48.272 376.349C48.0939 376.616 47.9159 376.901 47.7557 377.204C47.4175 377.791 47.2573 378.539 47.2573 379.429C47.2573 381.174 48.2898 382.972 50.3014 384.752C52.4376 386.639 55.4638 388.276 59.309 389.665C62.442 390.786 64.9699 391.356 66.8212 391.356C68.1207 391.356 69.0642 391.089 69.6517 390.537C70.2213 390.021 70.5061 389.202 70.5061 388.063C70.5061 386.959 70.3103 385.731 69.9009 384.396C69.6695 383.648 69.8119 382.865 70.2747 382.242C70.7375 381.619 71.4674 381.263 72.2151 381.263C72.4999 381.263 72.7669 381.316 73.0339 381.405L75.1879 382.171C75.811 382.402 76.3272 382.865 76.5943 383.452C77.6089 385.677 78.1252 388.205 78.1252 390.965C78.1252 395.629 76.3094 398.655 72.7313 399.936C71.5208 400.328 70.0967 400.56 68.5302 400.56Z" fill="white"/>
<path d="M43.3048 371.167C43.643 371.167 43.9812 371.274 44.2661 371.505L47.1855 373.819C47.8086 374.3 47.9688 375.19 47.5238 375.831C47.3279 376.116 47.1499 376.418 46.9719 376.739C46.5625 377.469 46.3489 378.359 46.3489 379.391C46.3489 381.421 47.4703 383.414 49.6955 385.372C51.9207 387.331 55.0182 389.022 58.988 390.446C62.2279 391.603 64.8269 392.191 66.8029 392.191C69.8647 392.191 71.3779 390.802 71.3779 388.007C71.3779 386.814 71.1642 385.497 70.737 384.073C70.4344 383.041 71.2176 382.079 72.1967 382.079C72.3747 382.079 72.535 382.115 72.713 382.168L74.867 382.934C75.2586 383.076 75.5968 383.361 75.757 383.735C76.7183 385.853 77.199 388.239 77.199 390.873C77.199 395.146 75.5968 397.851 72.4104 399.008C71.2711 399.418 69.9715 399.632 68.494 399.632C65.8416 399.632 62.6551 398.973 58.9168 397.638C53.1313 395.573 48.6097 392.778 45.3698 389.253C42.1299 385.729 40.51 381.866 40.51 377.664C40.51 376.276 40.688 375.012 41.044 373.873C41.2576 373.214 41.5424 372.555 41.9341 371.897C42.2723 371.434 42.7885 371.167 43.3048 371.167ZM43.3048 369.387C42.1299 369.387 41.044 370.01 40.4565 371.007C40.0115 371.772 39.6555 372.573 39.4062 373.356C38.9968 374.674 38.7832 376.133 38.7832 377.682C38.7832 382.328 40.5811 386.636 44.1059 390.464C47.5238 394.184 52.3302 397.157 58.3649 399.329C62.2635 400.717 65.6814 401.43 68.5296 401.43C70.203 401.43 71.7161 401.18 73.0512 400.717C75.7749 399.738 79.0325 397.246 79.0325 390.909C79.0325 388.025 78.4985 385.372 77.4304 383.023C77.0566 382.222 76.3623 381.581 75.5078 381.278L73.3538 380.513C72.9978 380.388 72.6062 380.317 72.2323 380.317C71.1998 380.317 70.2029 380.815 69.5799 381.67C68.9568 382.524 68.761 383.592 69.0637 384.607C69.4375 385.853 69.6333 387.01 69.6333 388.025C69.6333 389.538 69.1705 390.428 66.8385 390.428C65.0761 390.428 62.6551 389.876 59.6288 388.79C55.8905 387.455 52.9532 385.853 50.9061 384.055C49.0903 382.453 48.1646 380.886 48.1646 379.409C48.1646 378.679 48.2892 378.092 48.5562 377.629C48.7165 377.362 48.8767 377.095 49.0369 376.846C49.9804 375.439 49.6599 373.499 48.307 372.431L45.3876 370.117C44.8001 369.654 44.0525 369.387 43.3048 369.387Z" fill="#B90000"/>
<path d="M75.2222 378.504C74.9374 378.504 74.6703 378.45 74.4033 378.361L41.8086 366.701C40.8474 366.363 40.1887 365.437 40.1887 364.405V360.613C40.1887 359.278 41.2746 358.174 42.6097 358.174C42.8945 358.174 43.1616 358.228 43.4286 358.317L54.2163 362.18L52.8456 361.058L40.9898 350.626C40.4735 350.164 40.1709 349.505 40.1709 348.811V345.482C40.1709 344.147 41.2746 343.043 42.6097 343.043C43.215 343.043 43.8024 343.274 44.2475 343.684L56.6196 355.13C56.7442 355.237 56.9044 355.308 57.0646 355.308L75.0442 353.849H75.2044C76.5395 353.849 77.6432 354.934 77.6432 356.287V360.667C77.6432 361.966 76.6285 363.034 75.329 363.088L64.3276 363.639C63.9894 363.657 63.8292 363.906 63.7758 364.013C63.7224 364.12 63.6334 364.387 63.8292 364.672L64.5947 365.776C64.6659 365.882 64.7727 365.971 64.8973 366.007L76.0055 369.977C76.9667 370.315 77.6254 371.241 77.6254 372.273V376.047C77.6432 377.418 76.5573 378.504 75.2222 378.504Z" fill="white"/>
<path d="M42.6267 343.95C42.9828 343.95 43.3565 344.075 43.6591 344.36L56.0312 355.806C56.316 356.073 56.69 356.215 57.0816 356.215C57.1172 356.215 57.1706 356.215 57.2062 356.215L75.0968 354.773C75.1324 354.773 75.1857 354.773 75.2213 354.773C76.058 354.773 76.7522 355.45 76.7522 356.322V360.719C76.7522 361.538 76.1115 362.214 75.2926 362.25L64.2911 362.802C63.0806 362.855 62.4042 364.244 63.1162 365.223L63.8818 366.309C64.0598 366.576 64.3268 366.772 64.6295 366.879L75.7376 370.848C76.3429 371.062 76.7522 371.649 76.7522 372.308V376.1C76.7522 376.99 76.0224 377.648 75.2213 377.648C75.0433 377.648 74.8832 377.613 74.7052 377.559L42.1105 365.899C41.5052 365.686 41.0957 365.098 41.0957 364.44V360.648C41.0957 359.758 41.8257 359.099 42.6267 359.099C42.8048 359.099 42.965 359.135 43.143 359.188L58.7727 364.778L53.4323 360.399L41.6119 349.985C41.2737 349.7 41.0957 349.273 41.0957 348.828V345.499C41.0779 344.573 41.8257 343.95 42.6267 343.95ZM42.6267 342.17C40.7932 342.17 39.2979 343.665 39.2979 345.499V348.828C39.2979 349.789 39.7073 350.697 40.4193 351.32L49.9788 359.74L43.7304 357.497C43.3744 357.372 42.9826 357.301 42.6088 357.301C40.7753 357.301 39.2979 358.797 39.2979 360.63V364.422C39.2979 365.828 40.1878 367.074 41.5051 367.555L74.0998 379.215C74.4558 379.34 74.8475 379.411 75.2213 379.411C77.0549 379.411 78.5325 377.915 78.5325 376.082V372.29C78.5325 370.884 77.6424 369.638 76.3251 369.157L65.2881 365.205L64.8075 364.529L75.3815 363.995C77.1439 363.906 78.5325 362.446 78.5325 360.684V356.287C78.5325 354.453 77.0371 352.958 75.2213 352.958C75.1323 352.958 75.0433 352.958 74.9543 352.975L57.1706 354.417L44.8875 343.042C44.2467 342.473 43.4634 342.17 42.6267 342.17Z" fill="#B90000"/>
<path d="M68.5302 349.77C65.7887 349.77 62.4598 349.076 58.6681 347.723C52.758 345.605 48.094 342.703 44.7651 339.107C41.3828 335.44 39.6738 331.328 39.6738 326.913C39.6738 325.454 39.8696 324.083 40.2435 322.855C40.4749 322.125 40.7953 321.395 41.2226 320.683C41.6498 319.953 42.4509 319.508 43.3053 319.508C43.8572 319.508 44.3912 319.686 44.8185 320.042L47.7379 322.356C48.717 323.139 48.9662 324.546 48.272 325.56C48.0939 325.827 47.9159 326.112 47.7557 326.415C47.4175 327.002 47.2573 327.75 47.2573 328.64C47.2573 330.385 48.2898 332.183 50.3014 333.963C52.4376 335.85 55.4638 337.487 59.309 338.876C62.442 339.997 64.9699 340.567 66.8212 340.567C68.1207 340.567 69.0642 340.3 69.6517 339.748C70.2213 339.232 70.5061 338.413 70.5061 337.274C70.5061 336.17 70.3103 334.942 69.9009 333.607C69.6695 332.859 69.8119 332.076 70.2747 331.453C70.7375 330.83 71.4674 330.474 72.2151 330.474C72.4999 330.474 72.7669 330.527 73.0339 330.616L75.1879 331.381C75.811 331.613 76.3272 332.076 76.5943 332.663C77.6089 334.888 78.1252 337.416 78.1252 340.175C78.1252 344.839 76.3094 347.866 72.7313 349.147C71.5208 349.557 70.0967 349.77 68.5302 349.77Z" fill="white"/>
<path d="M43.3048 320.397C43.643 320.397 43.9812 320.504 44.2661 320.736L47.1855 323.05C47.8086 323.53 47.9688 324.42 47.5238 325.061C47.3279 325.346 47.1499 325.649 46.9719 325.969C46.5625 326.699 46.3489 327.589 46.3489 328.622C46.3489 330.651 47.4703 332.645 49.6955 334.603C51.9207 336.561 55.0182 338.252 58.988 339.676C62.2279 340.834 64.8269 341.421 66.8029 341.421C69.8647 341.421 71.3779 340.033 71.3779 337.238C71.3779 336.045 71.1642 334.728 70.737 333.303C70.4344 332.271 71.2176 331.31 72.1967 331.31C72.3747 331.31 72.535 331.345 72.713 331.399L74.867 332.164C75.2586 332.307 75.5968 332.591 75.757 332.965C76.7183 335.084 77.199 337.469 77.199 340.104C77.199 344.376 75.5968 347.082 72.4104 348.239C71.2711 348.648 69.9715 348.844 68.494 348.844C65.8416 348.844 62.6551 348.186 58.9168 346.85C53.1313 344.786 48.6097 341.991 45.3698 338.466C42.1299 334.941 40.51 331.078 40.51 326.877C40.51 325.489 40.688 324.225 41.044 323.085C41.2576 322.427 41.5424 321.768 41.9341 321.109C42.2723 320.647 42.7885 320.397 43.3048 320.397ZM43.3048 318.617C42.1299 318.617 41.044 319.24 40.4565 320.237C39.9937 321.003 39.6555 321.804 39.4062 322.587C38.9968 323.904 38.7832 325.364 38.7832 326.913C38.7832 331.559 40.5811 335.867 44.1059 339.694C47.5238 343.415 52.3302 346.388 58.3649 348.559C62.2635 349.948 65.6814 350.66 68.5296 350.66C70.203 350.66 71.7161 350.411 73.0512 349.948C75.7749 348.969 79.0325 346.477 79.0325 340.139C79.0325 337.255 78.4985 334.603 77.4304 332.253C77.0566 331.452 76.3623 330.811 75.5078 330.509L73.3538 329.743C72.9978 329.619 72.6062 329.547 72.2323 329.547C71.1998 329.547 70.2029 330.046 69.5799 330.9C68.9568 331.755 68.761 332.823 69.0637 333.838C69.4375 335.084 69.6333 336.241 69.6333 337.255C69.6333 338.769 69.1705 339.659 66.8385 339.659C65.0761 339.659 62.6551 339.107 59.6288 338.021C55.8905 336.686 52.9532 335.084 50.9061 333.286C49.0903 331.684 48.1646 330.117 48.1646 328.639C48.1646 327.91 48.2892 327.322 48.5562 326.859C48.7165 326.592 48.8767 326.325 49.0369 326.076C49.9804 324.67 49.6599 322.729 48.307 321.661L45.3876 319.347C44.8001 318.866 44.0525 318.617 43.3048 318.617Z" fill="#B90000"/>
<path d="M75.2072 330.49C74.7621 330.49 74.3171 330.365 73.9254 330.116L41.1884 309.822C40.4763 309.377 40.0312 308.612 40.0312 307.757V300.744C40.0312 299.408 41.1172 298.305 42.4701 298.305L42.7015 298.323L75.4386 301.42C76.7025 301.545 77.6461 302.577 77.6461 303.841V307.793C77.6461 309.128 76.5601 310.232 75.225 310.232C75.1359 310.232 75.0292 310.232 74.9402 310.214L69.3684 309.573C68.9411 309.573 68.6562 309.858 68.6562 310.214V317.495C68.6562 317.726 68.7809 317.94 68.9767 318.047L76.4889 322.55C77.2187 322.996 77.6639 323.779 77.6639 324.633V328.051C77.6461 329.404 76.5601 330.49 75.2072 330.49ZM50.7835 307.259C52.2432 308.078 55.2695 309.858 59.9869 312.688C60.0937 312.76 60.2004 312.777 60.3251 312.777C60.5031 312.777 60.6633 312.706 60.7879 312.599C60.8769 312.51 60.9837 312.368 60.9837 312.137V309.075C60.9837 308.736 60.7346 308.469 60.4142 308.434L53.4893 307.651C53.0621 307.597 52.172 307.472 50.7835 307.259Z" fill="white"/>
<path d="M42.4703 299.196C42.5237 299.196 42.5771 299.196 42.6127 299.196L75.3498 302.294C76.133 302.365 76.7383 303.041 76.7383 303.825V307.777C76.7383 308.631 76.044 309.325 75.2074 309.325C75.1539 309.325 75.0827 309.325 75.0293 309.308L69.4574 308.667C69.404 308.667 69.3328 308.649 69.2794 308.649C68.4428 308.649 67.7485 309.325 67.7485 310.198V317.478C67.7485 318.012 68.0333 318.529 68.4962 318.796L76.0084 323.3C76.4713 323.584 76.7561 324.083 76.7561 324.617V328.035C76.7561 328.943 76.0084 329.583 75.2074 329.583C74.9403 329.583 74.6555 329.512 74.4063 329.352L41.6692 309.058C41.2241 308.773 40.9393 308.275 40.9393 307.741V300.727C40.9393 299.873 41.6336 299.196 42.4703 299.196ZM60.3252 313.687C61.1263 313.687 61.874 313.046 61.874 312.156V309.094C61.874 308.311 61.2865 307.652 60.5032 307.563L53.5784 306.78C53.08 306.726 51.8161 306.548 49.7867 306.246C47.7573 305.943 46.4044 305.712 45.728 305.551C47.1343 306.281 48.6652 307.118 50.3564 308.061C51.8161 308.88 54.878 310.696 59.542 313.473C59.7912 313.615 60.0582 313.687 60.3252 313.687ZM42.4703 297.416C40.6367 297.416 39.1592 298.911 39.1592 300.745V307.759C39.1592 308.916 39.7466 309.966 40.7257 310.589L73.4628 330.883C73.9968 331.203 74.6021 331.381 75.2074 331.381C77.0409 331.381 78.5362 329.886 78.5362 328.053V324.635C78.5362 323.478 77.9132 322.392 76.9163 321.786L69.5286 317.354V310.465L74.8335 311.088C74.9581 311.105 75.0827 311.105 75.2251 311.105C77.0587 311.105 78.5362 309.61 78.5362 307.777V303.825C78.5362 302.098 77.2367 300.674 75.5278 300.514L42.7729 297.416C42.6839 297.416 42.5771 297.416 42.4703 297.416ZM60.0938 311.728C58.1178 310.554 56.4267 309.539 55.0382 308.72L60.0938 309.29V311.728Z" fill="#B90000"/>
<path d="M75.2219 299.338C74.9371 299.338 74.6701 299.285 74.4031 299.196L41.8084 287.536C40.8471 287.197 40.1885 286.272 40.1885 285.239V277.086C40.1885 272.832 41.1675 270.072 43.1791 268.648C44.176 267.936 45.4399 267.58 46.9175 267.58C48.3594 267.58 50.0505 267.918 51.9731 268.613C56.2989 270.161 59.4854 272.743 61.4257 276.303C61.5503 276.534 61.7818 276.677 62.0132 276.677L75.0083 275.27L75.2219 275.253C76.5571 275.253 77.6608 276.338 77.6608 277.691V282.088C77.6608 283.352 76.6639 284.42 75.4 284.509L64.363 285.328C64.0247 285.346 63.7577 285.631 63.7577 285.987C63.7577 286.254 63.9358 286.503 64.185 286.592L76.023 290.829C76.9843 291.167 77.643 292.093 77.643 293.125V296.917C77.643 298.252 76.5571 299.338 75.2219 299.338ZM56.2633 283.762V283.21C56.2633 281.75 55.8894 280.611 55.1418 279.721C54.3585 278.795 53.148 278.047 51.5459 277.478C50.6024 277.14 49.8369 276.979 49.2495 276.979C48.8934 276.979 48.6264 277.033 48.4306 277.157C47.8075 277.549 47.6829 278.688 47.6829 279.56V280.7L56.2633 283.762Z" fill="white"/>
<path d="M46.9169 268.47C48.2698 268.47 49.8541 268.79 51.6698 269.449C55.7998 270.926 58.7905 273.347 60.6418 276.73C60.9266 277.246 61.443 277.566 62.0126 277.566C62.066 277.566 62.1193 277.566 62.1727 277.566L75.0612 276.178C75.1146 276.178 75.1679 276.16 75.2213 276.16C76.058 276.16 76.7522 276.836 76.7522 277.709V282.106C76.7522 282.907 76.1293 283.583 75.3282 283.637L64.2911 284.455C63.4901 284.509 62.8671 285.185 62.8671 285.986C62.8671 286.645 63.2766 287.215 63.8818 287.446L75.7198 291.683C76.3251 291.896 76.7344 292.484 76.7344 293.143V296.934C76.7344 297.824 76.0046 298.483 75.2035 298.483C75.0255 298.483 74.8654 298.447 74.6873 298.394L42.0927 286.734C41.4874 286.52 41.0779 285.933 41.0779 285.274V277.121C41.0779 273.205 41.9503 270.641 43.6948 269.395C44.5493 268.772 45.6174 268.47 46.9169 268.47ZM57.1528 285.025V283.209C57.1528 281.554 56.7077 280.201 55.8176 279.151C54.9275 278.1 53.6103 277.264 51.8479 276.641C50.8154 276.267 49.9432 276.089 49.2489 276.089C48.7149 276.089 48.2876 276.195 47.9494 276.409C47.1839 276.908 46.7923 277.958 46.7923 279.56V281.322L57.1528 285.025ZM46.9169 266.689C45.2436 266.689 43.8194 267.099 42.6623 267.936C40.4015 269.538 39.2979 272.546 39.2979 277.103V285.256C39.2979 286.663 40.1878 287.909 41.5051 288.39L74.0998 300.05C74.4558 300.174 74.8475 300.245 75.2213 300.245C77.0549 300.245 78.5325 298.75 78.5325 296.916V293.125C78.5325 291.718 77.6424 290.472 76.3251 289.992L65.5551 286.129L75.4527 285.399C77.1795 285.274 78.5325 283.815 78.5325 282.088V277.691C78.5325 275.857 77.0371 274.362 75.2213 274.362C75.0967 274.362 74.9722 274.362 74.8654 274.38L62.1551 275.75C60.0901 272.048 56.779 269.36 52.2752 267.74C50.228 267.045 48.4835 266.689 46.9169 266.689ZM48.9285 277.904C48.9285 277.904 49.0175 277.869 49.2667 277.869C49.6049 277.869 50.228 277.94 51.2783 278.314C52.738 278.83 53.8061 279.507 54.4826 280.29C54.9632 280.859 55.248 281.572 55.3548 282.462L48.6081 280.041V279.524C48.5903 278.385 48.8395 277.958 48.9285 277.904Z" fill="#B90000"/>
<path d="M75.2219 272.778C74.9371 272.778 74.6701 272.724 74.4031 272.635L41.8084 260.975C40.8471 260.637 40.1885 259.711 40.1885 258.679V244.847C40.1885 243.512 41.2743 242.408 42.6095 242.408C42.8943 242.408 43.1613 242.462 43.4283 242.551L46.0808 243.494C47.0421 243.832 47.7007 244.758 47.7007 245.79V253.659C47.7007 253.926 47.8787 254.175 48.128 254.264L53.5397 256.204C53.6109 256.222 53.6821 256.24 53.7533 256.24C54.0559 256.24 54.3941 255.991 54.3941 255.581V250.65C54.3941 249.315 55.48 248.212 56.8151 248.212C57.1 248.212 57.367 248.265 57.634 248.354L60.3042 249.315C61.2655 249.653 61.9242 250.579 61.9242 251.612V258.75C61.9242 259.017 62.1022 259.266 62.3514 259.355L69.1516 261.794C69.2228 261.812 69.294 261.83 69.3652 261.83C69.6679 261.83 70.0061 261.581 70.0061 261.171V255.546C70.0061 254.211 71.092 253.107 72.4271 253.107C72.7119 253.107 72.9789 253.16 73.246 253.249L75.9696 254.228C76.9309 254.567 77.5896 255.492 77.5896 256.525V270.357C77.643 271.674 76.5571 272.778 75.2219 272.778Z" fill="white"/>
<path d="M42.6088 243.319C42.7868 243.319 42.9471 243.355 43.1251 243.408L45.7775 244.352C46.3828 244.565 46.7923 245.153 46.7923 245.811V253.68C46.7923 254.338 47.2016 254.908 47.8069 255.139L53.2187 257.08C53.3967 257.133 53.5747 257.169 53.7349 257.169C54.5538 257.169 55.2658 256.51 55.2658 255.62V250.689C55.2658 249.799 55.9956 249.14 56.7967 249.14C56.9747 249.14 57.1528 249.176 57.313 249.229L59.9832 250.191C60.5884 250.404 60.9978 250.992 60.9978 251.65V258.789C60.9978 259.447 61.4074 260.017 62.0126 260.249L68.8127 262.687C68.9907 262.741 69.1689 262.776 69.3291 262.776C70.148 262.776 70.86 262.118 70.86 261.228V255.549C70.86 254.659 71.5898 254 72.3909 254C72.5689 254 72.747 254.036 72.9072 254.089L75.6307 255.068C76.236 255.282 76.6455 255.869 76.6455 256.528V270.36C76.6455 271.25 75.9157 271.909 75.1146 271.909C74.9366 271.909 74.7763 271.873 74.5982 271.82L42.0037 260.159C41.3984 259.946 40.9889 259.358 40.9889 258.7V244.868C41.0779 243.978 41.7899 243.319 42.6088 243.319ZM42.6088 241.539C40.7753 241.539 39.2979 243.034 39.2979 244.868V258.7C39.2979 260.106 40.1878 261.352 41.5051 261.833L74.0998 273.493C74.4558 273.617 74.8475 273.689 75.2213 273.689C77.0549 273.689 78.5325 272.193 78.5325 270.36V256.528C78.5325 255.122 77.6424 253.876 76.3251 253.395L73.6015 252.416C73.2454 252.291 72.8538 252.22 72.48 252.22C70.6464 252.22 69.1688 253.715 69.1688 255.549V260.889L62.8493 258.611V251.633C62.8493 250.226 61.9591 248.98 60.6418 248.499L57.9716 247.538C57.6155 247.414 57.224 247.342 56.8502 247.342C55.0166 247.342 53.5391 248.838 53.5391 250.671V255.282L48.6081 253.502V245.794C48.6081 244.387 47.7179 243.141 46.4007 242.661L43.7481 241.717C43.3743 241.592 43.0005 241.539 42.6088 241.539Z" fill="#B90000"/>
<path opacity="0.2" d="M452.563 355.202L373.15 376.688V181.174C373.15 181.174 383.101 311.446 452.563 355.202Z" fill="#33485E"/>
<path d="M422.033 340.264C403.893 340.264 389.206 325.56 389.206 307.438V206.663C389.206 202.284 390.079 198.136 391.627 194.309C383.1 199.311 377.351 208.568 377.351 219.177V317.211C377.351 333.125 390.257 346.049 406.189 346.049C412.705 346.049 418.704 343.86 423.528 340.21C423.012 340.21 422.531 340.264 422.033 340.264Z" fill="#5B656B"/>
<path d="M422.033 342.044C402.95 342.044 387.427 326.521 387.427 307.438V206.663C387.427 187.58 402.95 172.057 422.033 172.057C441.116 172.057 456.639 187.58 456.639 206.663V307.438C456.639 326.521 441.116 342.044 422.033 342.044Z" fill="#ABE7FF"/>
<path d="M422.033 173.838C440.173 173.838 454.859 188.542 454.859 206.664V307.438C454.859 325.578 440.155 340.264 422.033 340.264C403.911 340.264 389.207 325.56 389.207 307.438V206.664C389.189 188.524 403.893 173.838 422.033 173.838ZM422.033 170.277C401.971 170.277 385.646 186.601 385.646 206.664V307.438C385.646 327.501 401.971 343.825 422.033 343.825C442.095 343.825 458.419 327.501 458.419 307.438V206.664C458.419 186.601 442.095 170.277 422.033 170.277Z" fill="#5B656B"/>
<path d="M423.209 334.888C407.276 334.888 394.37 321.982 394.37 306.049V208.016C394.37 192.102 407.276 179.178 423.209 179.178C439.123 179.178 452.047 192.084 452.047 208.016V306.049C452.047 321.982 439.123 334.888 423.209 334.888Z" fill="#CCDDED"/>
<path d="M452.172 256.455C452.172 260.336 439.266 263.469 423.334 263.469C407.401 263.469 394.495 260.336 394.495 256.455V306.228C394.495 322.054 407.312 334.907 423.138 334.942C438.981 334.978 451.852 322.196 451.923 306.371L452.172 256.455Z" fill="#B50F0F"/>
<path d="M259.912 343.734L254.144 355.412L248.377 347.063L242.609 358.741L236.841 350.392L231.074 362.07L225.306 353.721L219.538 365.399L213.77 357.05L208.003 368.728L202.235 360.379L196.467 372.057L190.7 363.708L184.932 375.386L179.164 367.037L173.397 378.714L167.629 370.366L161.861 382.043L156.093 373.694L150.326 385.372L144.558 377.023L138.79 388.701L133.023 380.352L127.255 392.03L121.487 383.681L115.719 395.359L109.97 387.01L104.22 398.688L98.4519 390.339L92.702 402.017L86.9521 393.668C87.4684 395.056 86.9521 480.504 86.9521 480.504L259.948 435.323L259.912 343.734Z" fill="#9DA5A5"/>
<path d="M145.147 464.485C128.342 453.554 111.004 437.319 111.004 418.379C111.004 397.141 125.726 376.58 136.478 361.574C140.75 355.61 146.589 347.457 146.607 345.018C146.447 342.206 143.171 340.052 139.023 340.052C133.79 340.052 128.538 343.381 124.604 349.166C123.162 351.302 120.759 352.584 118.213 352.584C113.923 352.584 110.523 349.219 110.487 344.929C110.434 339.963 111.751 333.412 117.234 327.021C109.58 324.618 100.02 319.206 95.2493 307.101L95.1425 306.798C92.7571 299.375 93.0241 293.127 95.9079 289.157C97.8127 286.558 100.661 285.116 103.936 285.116C107.871 285.116 112.072 287.128 116.415 291.097C121.346 295.619 125.743 297.826 128.218 298.503C127.488 288.053 131.475 262.811 156.878 252.628C152.517 247.252 151.449 239.918 153.977 231.373C155.33 227.243 158.356 224.858 162.13 224.858C165.316 224.858 170.016 226.317 178.81 235.948C181.195 230.536 185.913 226.371 192.179 224.769L196.807 223.594L198.231 228.151C198.32 228.436 199.869 233.438 200.902 241.395C202.005 240.95 203.198 240.683 204.497 240.683C205.904 240.683 207.275 241.004 208.574 241.627C211.761 243.158 213.754 246.024 214.039 249.495C214.217 251.756 213.665 254.088 212.455 256.242C220.02 261.173 225.753 268.133 229.206 276.678C232.677 285.258 233.478 294.978 231.52 304.769C228.156 321.538 222.21 330.688 216.959 338.77C212.829 345.107 209.268 350.59 207.15 359.153C205.655 365.205 207.346 366.558 222.192 371.169C236.131 375.495 255.214 381.422 273.71 400.541C281.632 408.73 286.759 417.684 289.144 425.873L145.147 464.485Z" fill="white"/>
<path opacity="0.2" d="M260.234 380.836C260.234 380.836 126.757 431.748 87.1846 383.791V480.614L260.234 432.354V380.836Z" fill="#5489D0"/>
<path d="M154.067 461.599C137.369 451.612 117.823 436.125 117.823 418.377C117.823 399.329 131.797 379.801 142.015 365.542C148.779 356.107 153.657 349.271 153.408 344.661C153.034 338.145 146.839 333.232 139.006 333.232C131.476 333.232 124.16 337.647 118.944 345.337C118.766 345.604 118.517 345.747 118.214 345.747C117.912 345.747 117.324 345.551 117.306 344.839C117.253 339.623 119.318 332.021 129.518 325.399C130.177 324.972 130.479 324.153 130.248 323.406C130.034 322.658 129.34 322.124 128.539 322.124C127.72 322.124 108.423 321.875 101.588 304.572C99.9676 299.551 99.8963 295.243 101.427 293.161C102.033 292.342 102.851 291.932 103.937 291.932C106.056 291.932 108.851 293.428 111.806 296.134C118.161 301.955 124.997 305.568 129.625 305.568C131.957 305.568 133.256 304.643 133.951 303.859C134.983 302.685 135.375 301.047 135.126 299.017C134.022 290.366 137.297 264.037 165.744 256.934C166.403 256.774 167.079 256.632 167.738 256.489L168.468 256.329C169.233 256.169 169.803 255.528 169.874 254.745C169.946 253.962 169.5 253.232 168.771 252.929C160.457 249.493 157.68 242.889 160.528 233.276C161.063 231.656 161.792 231.656 162.131 231.656C163.377 231.656 168.432 232.938 181.214 249.476C181.552 249.921 182.086 250.17 182.62 250.17C182.887 250.17 183.136 250.117 183.386 249.992C184.133 249.636 184.543 248.781 184.347 247.98C182.674 240.949 186.003 234.344 192.18 231.888C193.016 235.181 194.69 242.907 194.975 252.876C194.992 253.695 195.58 254.407 196.399 254.567C196.523 254.585 196.648 254.602 196.755 254.602C197.431 254.602 198.072 254.211 198.375 253.588C199.122 252.003 201.846 247.482 204.516 247.482C204.89 247.482 205.246 247.571 205.638 247.749C206.635 248.23 207.186 248.995 207.258 250.027C207.4 251.665 206.296 254.175 203.537 256.133C203.021 256.507 202.736 257.112 202.789 257.753C202.843 258.394 203.234 258.946 203.822 259.213C212.687 263.325 219.291 270.25 222.923 279.222C225.896 286.574 226.572 294.923 224.863 303.414C221.766 318.902 216.425 327.108 211.263 335.03C206.991 341.599 202.95 347.811 200.546 357.496C197.307 370.562 206.902 373.553 220.182 377.665C233.408 381.777 251.548 387.402 268.815 405.257C276.025 412.716 280.849 420.406 282.843 427.616L154.067 461.599Z" fill="#FFD300"/>
<path d="M162.36 233.491C164.194 233.83 169.819 237.675 179.788 250.599C180.482 251.489 181.533 251.987 182.601 251.987C183.117 251.987 183.651 251.88 184.132 251.631C185.645 250.901 186.446 249.228 186.054 247.59C184.755 242.107 186.748 237.087 190.95 234.506C191.804 238.351 192.943 244.884 193.175 252.966C193.228 254.604 194.385 256.01 196.005 256.349C196.254 256.402 196.486 256.42 196.735 256.42C198.088 256.42 199.352 255.637 199.957 254.373C201.043 252.076 203.322 249.281 204.479 249.281C204.532 249.281 204.639 249.299 204.817 249.37C205.298 249.602 205.422 249.833 205.44 250.189C205.529 251.311 204.532 253.216 202.467 254.693C201.435 255.423 200.865 256.651 200.972 257.915C201.079 259.179 201.862 260.283 203.019 260.835C211.582 264.822 217.723 271.231 221.23 279.9C224.078 286.914 224.719 294.942 223.081 303.078C220.037 318.227 214.804 326.291 209.748 334.07C205.583 340.479 201.275 347.101 198.8 357.07C195.151 371.774 206.508 375.299 219.646 379.375C232.694 383.434 250.567 388.97 267.532 406.505C273.958 413.163 278.426 419.963 280.598 426.371L154.367 459.696C140.82 451.489 119.637 435.877 119.637 418.378C119.637 399.9 133.433 380.639 143.491 366.576C150.718 356.482 155.507 349.807 155.204 344.538C154.759 337.061 147.816 331.436 139.022 331.436C131.759 331.436 124.71 335.192 119.334 341.832C120.277 336.189 124.087 331.062 130.495 326.878C131.813 326.024 132.4 324.404 131.955 322.891C131.51 321.378 130.122 320.345 128.555 320.327C127.79 320.327 109.703 320.043 103.295 304.003C101.604 298.663 101.995 295.37 102.867 294.177C103.099 293.874 103.348 293.679 103.936 293.679C104.541 293.679 106.819 293.946 110.611 297.399C117.287 303.505 124.568 307.297 129.623 307.297C132.614 307.297 134.358 306.051 135.284 304.982C136.245 303.897 137.296 301.938 136.886 298.734C135.836 290.474 138.987 265.392 166.17 258.609C166.811 258.449 167.434 258.325 168.075 258.182L168.822 258.022C170.353 257.702 171.493 256.42 171.635 254.871C171.777 253.322 170.887 251.845 169.445 251.257C162.022 248.196 159.654 242.499 162.2 233.812C162.253 233.705 162.307 233.58 162.36 233.491ZM193.406 229.664C185.378 231.711 180.5 239.597 182.618 248.427C176.744 240.826 167.398 229.913 162.129 229.913C160.651 229.913 159.494 230.768 158.818 232.815C154.884 246.113 161.755 252.005 168.092 254.622C167.167 254.818 166.241 254.996 165.298 255.227C134.625 262.9 132.365 291.489 133.362 299.268C133.753 302.366 132.24 303.808 129.623 303.808C125.689 303.808 119.263 300.568 113.014 294.836C109.525 291.631 106.392 290.172 103.936 290.172C99.0935 290.172 96.9217 295.904 99.9302 305.25C107.3 323.923 128.537 323.923 128.537 323.923C117.75 330.955 115.471 339.09 115.524 344.876C115.542 346.531 116.859 347.546 118.212 347.546C119.031 347.546 119.85 347.172 120.42 346.353C125.938 338.218 133.006 335.032 139.005 335.032C145.823 335.032 151.306 339.144 151.626 344.787C152.213 355.397 116.041 386.959 116.041 418.414C116.041 437.426 137.118 453.679 153.798 463.559L284.96 428.935C283.411 421.85 279.032 413.341 270.078 404.066C235.08 367.893 196.557 380.96 202.254 357.96C207.452 336.972 220.838 332.432 226.571 303.808C228.262 295.387 227.745 286.558 224.523 278.601C220.518 268.703 213.397 261.76 204.514 257.648C209.552 254.088 210.62 248.267 206.366 246.22C205.725 245.917 205.084 245.775 204.479 245.775C200.064 245.775 196.735 252.913 196.735 252.913C196.343 239.099 193.406 229.664 193.406 229.664Z" fill="#FF9D00"/>
<path d="M153.353 313.207C156.147 313.207 158.409 306.631 158.409 298.52C158.409 290.41 156.147 283.834 153.353 283.834C150.562 283.834 148.298 290.41 148.298 298.52C148.298 306.631 150.562 313.207 153.353 313.207Z" fill="black"/>
<path d="M98.737 298.949C98.737 298.949 98.0427 317.926 125.564 317.534C153.085 317.142 180.802 310.858 190.148 326.381C199.494 341.904 179.147 364.423 188.386 377.49C197.625 390.556 229.472 381.424 237.429 403.142C241.167 414.837 235.951 425.162 229.756 429.844C219.343 438.229 193.886 448.251 168.608 440.454C159.814 437.267 150.522 431.66 149.649 421.015C147.584 395.452 180.019 392.212 175.106 381.299C170.192 370.387 172.845 364.584 176.281 352.301C179.805 339.715 183.953 330.583 169.498 327.432C159.262 325.207 134.02 329.39 124.478 341.388C124.478 341.388 121.381 344.575 120.384 346.319C120.384 346.319 119.529 347.779 117.553 347.458C115.577 347.138 115.488 344.859 115.488 344.859C115.488 344.859 113.957 333.306 128.501 323.907C128.501 323.907 116.111 323.551 107.851 316.341C107.887 316.359 99.1108 309.612 98.737 298.949Z" fill="#FF9D00"/>
<path d="M260.18 195.237V435.523L367.879 407.041C370.603 406.311 372.49 403.854 372.49 401.041V165.58L260.18 195.237Z" fill="#F7C100"/>
<path d="M260.235 432.334V380.834C260.235 380.834 335.322 350.554 369.537 262.098V400.451C369.537 402.107 368.433 403.549 366.831 403.976L260.235 432.334Z" fill="#BF9500"/>
<path d="M305.837 286.539C301.173 286.539 297.364 282.73 297.364 278.066V266.352L285.988 269.503C285.241 269.717 284.495 269.806 283.729 269.806C279.065 269.806 275.256 265.996 275.256 261.332V241.43C275.256 237.638 277.818 234.274 281.467 233.259L297.364 228.844V212.431C297.364 208.639 299.911 205.275 303.578 204.26L322.855 198.92C323.603 198.706 324.353 198.617 325.118 198.617C329.782 198.617 333.59 202.427 333.59 207.091V218.804L344.967 215.653C345.714 215.44 346.46 215.351 347.226 215.351C351.89 215.351 355.701 219.16 355.701 223.824V243.726C355.701 247.518 353.156 250.883 349.488 251.897L333.59 256.312V272.725C333.59 276.517 331.026 279.881 327.377 280.896L308.116 286.236C307.368 286.432 306.603 286.539 305.837 286.539Z" fill="white"/>
<path d="M325.134 199.524C329.317 199.524 332.717 202.924 332.717 207.108V219.996L345.214 216.525C345.872 216.347 346.568 216.24 347.245 216.24C351.428 216.24 354.828 219.64 354.828 223.823V243.726C354.828 247.126 352.548 250.134 349.272 251.042L332.717 255.635V272.724C332.717 276.124 330.421 279.133 327.145 280.041L307.884 285.381C307.225 285.559 306.533 285.666 305.856 285.666C301.673 285.666 298.271 282.266 298.271 278.083V265.194L285.776 268.666C285.117 268.844 284.421 268.95 283.745 268.95C279.562 268.95 276.163 265.55 276.163 261.367V241.465C276.163 238.065 278.458 235.056 281.733 234.148L298.291 229.556V212.466C298.291 209.066 300.567 206.057 303.843 205.15L323.122 199.809C323.763 199.613 324.439 199.524 325.134 199.524ZM325.134 197.744C324.297 197.744 323.442 197.851 322.624 198.082L303.344 203.423C299.303 204.544 296.473 208.247 296.473 212.448V228.185L281.235 232.404C277.194 233.525 274.365 237.228 274.365 241.429V261.331C274.365 266.494 278.566 270.695 283.729 270.695C284.583 270.695 285.418 270.588 286.237 270.357L296.491 267.526V278.065C296.491 283.227 300.694 287.428 305.856 287.428C306.693 287.428 307.547 287.322 308.366 287.09L327.626 281.75C331.667 280.628 334.497 276.926 334.497 272.724V256.988L349.755 252.769C353.796 251.647 356.625 247.945 356.625 243.743V223.841C356.625 218.679 352.425 214.478 347.263 214.478C346.426 214.478 345.572 214.584 344.753 214.816L334.497 217.664V207.126C334.479 201.945 330.296 197.744 325.134 197.744Z" fill="#F7C100"/>
<path d="M353.212 360.196L353.213 360.196C355.343 358.724 357.136 356.804 358.601 354.475C360.044 352.182 361.028 349.833 361.506 347.431C361.968 345.11 362.181 341.7 362.181 337.328V318.197C362.181 313.837 361.992 310.533 361.56 308.431C361.11 306.237 360.218 304.317 358.863 302.736C357.373 300.997 355.229 299.949 352.716 299.421L352.715 299.42C350.083 298.868 347.216 299.081 344.172 299.956C340.436 301.017 337.203 302.81 334.533 305.341C331.872 307.852 330.037 310.751 329.116 314.022C328.232 317.156 327.824 321.449 327.824 326.79V346.801C327.824 350.854 328.064 354.005 328.671 356.044C329.26 358.064 330.268 359.878 331.684 361.453L331.684 361.454C333.292 363.243 335.422 364.219 337.892 364.482C340.295 364.738 343.131 364.336 346.307 363.427C348.834 362.709 351.144 361.625 353.212 360.196ZM345.809 312.851C345.809 312.851 345.806 312.851 345.8 312.852C345.806 312.851 345.809 312.851 345.809 312.851ZM344.999 314.846C345.015 314.642 345.032 314.459 345.05 314.296C345.082 315.042 345.1 315.949 345.1 317.022V345.423C345.1 346.799 345.064 347.901 344.996 348.746C344.981 348.939 344.965 349.112 344.947 349.268C344.912 348.472 344.894 347.49 344.894 346.316V318.333C344.894 316.887 344.93 315.731 344.999 314.846ZM344.192 350.66C344.192 350.66 344.192 350.66 344.194 350.659L344.192 350.66Z" fill="#333333" stroke="#F7C100" stroke-width="4.36184"/>
<path d="M281.167 382.021C279.799 382.021 278.511 381.49 277.538 380.54C276.532 379.557 275.978 378.245 275.978 376.843V347.968C275.978 345.22 275.944 343.524 275.899 342.496C275.243 342.632 274.305 342.823 273.038 343.129C272.688 343.208 272.315 343.253 271.953 343.253C269.33 343.253 267.193 341.116 267.193 338.482V333.892C267.193 332.015 268.222 330.274 269.872 329.358C274.87 326.588 278.759 322.902 281.45 318.403C282.128 317.261 283.202 316.436 284.469 316.085L289.624 314.604C290.088 314.468 290.574 314.4 291.06 314.4C293.819 314.4 296.08 316.571 296.238 319.296C297.335 317.046 298.884 314.965 300.851 313.1C303.689 310.421 307.148 308.487 311.139 307.345C313.231 306.746 315.232 306.441 317.109 306.441C318.262 306.441 319.381 306.554 320.445 306.78C323.463 307.425 325.826 308.713 327.465 310.613C328.969 312.365 329.998 314.525 330.518 317.023C330.959 319.171 331.173 322.473 331.173 327.12V346.249C331.173 350.885 330.947 354.288 330.473 356.662C329.964 359.206 328.912 361.761 327.353 364.237C325.759 366.758 323.802 368.839 321.518 370.422C319.325 371.936 316.838 373.101 314.147 373.87C311.343 374.672 308.924 375.068 306.776 375.068C306.21 375.068 305.656 375.046 305.125 374.989C302.163 374.672 299.732 373.474 297.9 371.428C297.278 370.727 296.724 369.992 296.227 369.2V374.005C296.227 376.312 294.678 378.358 292.474 378.992L282.592 381.818C282.128 381.954 281.654 382.021 281.167 382.021Z" fill="white"/>
<path d="M317.109 307.007C318.216 307.007 319.302 307.12 320.331 307.335C323.225 307.945 325.486 309.178 327.035 310.987C328.482 312.671 329.466 314.741 329.963 317.137C330.404 319.252 330.608 322.507 330.608 327.12V346.25C330.608 350.852 330.382 354.221 329.918 356.55C329.42 359.026 328.403 361.513 326.877 363.944C325.328 366.409 323.417 368.432 321.201 369.97C319.053 371.451 316.634 372.593 313.999 373.339C311.241 374.131 308.878 374.515 306.786 374.515C306.243 374.515 305.701 374.493 305.192 374.436C302.377 374.131 300.059 373 298.329 371.067C297.21 369.812 296.316 368.41 295.672 366.895V374.017C295.672 376.064 294.293 377.895 292.325 378.461L282.444 381.288C282.026 381.412 281.596 381.469 281.166 381.469C279.957 381.469 278.804 380.994 277.933 380.146C277.04 379.275 276.542 378.099 276.542 376.844V347.968C276.542 344.633 276.486 342.802 276.429 341.818C275.661 341.965 274.519 342.203 272.913 342.576C272.597 342.655 272.28 342.689 271.952 342.689C269.646 342.689 267.758 340.8 267.758 338.483V333.893C267.758 332.219 268.674 330.67 270.143 329.856C275.231 327.041 279.188 323.288 281.935 318.697C282.546 317.68 283.495 316.945 284.615 316.629L289.77 315.148C290.189 315.023 290.618 314.967 291.048 314.967C293.592 314.967 295.661 317.035 295.661 319.591V322.236C296.655 319.003 298.521 316.063 301.223 313.519C303.994 310.908 307.374 309.008 311.275 307.889C313.332 307.301 315.288 307.007 317.109 307.007ZM317.109 305.876C315.186 305.876 313.118 306.193 310.98 306.804C306.899 307.968 303.36 309.958 300.466 312.694C298.861 314.22 297.526 315.871 296.475 317.657C295.684 315.43 293.558 313.836 291.06 313.836C290.528 313.836 289.986 313.915 289.476 314.062L284.321 315.543C282.919 315.939 281.732 316.855 280.975 318.121C278.34 322.542 274.507 326.148 269.612 328.873C267.78 329.891 266.638 331.812 266.638 333.893V338.483C266.638 341.422 269.024 343.819 271.964 343.819C272.371 343.819 272.789 343.774 273.184 343.672C274.066 343.469 274.79 343.299 275.367 343.186C275.401 344.226 275.423 345.752 275.423 347.968V376.844C275.423 378.404 276.033 379.863 277.153 380.948C278.239 382.011 279.663 382.599 281.178 382.599C281.709 382.599 282.252 382.52 282.761 382.373L292.642 379.546C295.096 378.846 296.814 376.573 296.814 374.017V371.01C297.029 371.293 297.255 371.553 297.493 371.824C299.414 373.972 301.969 375.239 305.079 375.567C305.621 375.623 306.198 375.657 306.786 375.657C308.991 375.657 311.456 375.261 314.316 374.436C317.063 373.645 319.607 372.458 321.857 370.909C324.197 369.28 326.221 367.155 327.849 364.554C329.443 362.011 330.517 359.399 331.037 356.788C331.512 354.379 331.75 350.942 331.75 346.261V327.132C331.75 322.451 331.535 319.104 331.082 316.922C330.54 314.333 329.477 312.095 327.906 310.263C326.187 308.262 323.722 306.905 320.58 306.238C319.46 306.001 318.296 305.876 317.109 305.876Z" fill="#F7C100"/>
<path d="M352.964 359.837L352.965 359.837C355.042 358.401 356.795 356.527 358.232 354.243C359.651 351.988 360.612 349.688 361.078 347.346C361.531 345.068 361.745 341.694 361.745 337.328V318.197C361.745 313.839 361.555 310.575 361.133 308.52C360.696 306.389 359.833 304.538 358.532 303.02C357.123 301.376 355.078 300.363 352.626 299.847L352.625 299.847C350.078 299.313 347.286 299.515 344.291 300.375C340.617 301.418 337.448 303.178 334.832 305.658C332.222 308.121 330.433 310.954 329.535 314.14C328.668 317.217 328.26 321.463 328.26 326.79V346.801C328.26 350.852 328.502 353.948 329.089 355.921C329.66 357.878 330.636 359.634 332.008 361.162L332.008 361.162C333.534 362.86 335.559 363.795 337.938 364.048C340.263 364.296 343.039 363.909 346.188 363.007C348.671 362.302 350.937 361.238 352.964 359.837ZM345.348 312.528C345.382 312.772 345.413 313.08 345.44 313.459C345.502 314.337 345.536 315.521 345.536 317.022V345.423C345.536 346.805 345.5 347.919 345.431 348.781C345.36 349.672 345.262 350.186 345.183 350.428C345.09 350.708 344.962 350.874 344.643 350.992C344.614 350.772 344.586 350.498 344.562 350.165C344.494 349.242 344.458 347.964 344.458 346.316V318.333C344.458 316.881 344.494 315.713 344.564 314.812C344.637 313.878 344.738 313.351 344.818 313.113C344.917 312.822 345.055 312.647 345.348 312.528Z" fill="#333333" stroke="white" stroke-width="3.48947"/>
<path d="M292.472 319.592V374.007C292.472 374.641 292.054 375.194 291.444 375.364L281.562 378.202C280.658 378.462 279.753 377.784 279.753 376.845V347.97C279.753 343.526 279.663 340.892 279.47 340.044C279.279 339.196 278.758 338.676 277.911 338.45C277.3 338.292 274.01 339.027 272.178 339.457C271.556 339.603 270.969 339.128 270.969 338.484V333.894C270.969 333.385 271.251 332.91 271.704 332.662C277.311 329.552 281.641 325.448 284.694 320.338C284.875 320.032 285.169 319.806 285.508 319.705L290.664 318.224C291.568 317.975 292.472 318.653 292.472 319.592Z" fill="#333333"/>
<path d="M327.409 327.12V346.25C327.409 350.591 327.194 353.825 326.775 355.928C326.357 358.03 325.487 360.133 324.164 362.236C322.841 364.339 321.247 366.035 319.381 367.324C317.516 368.613 315.424 369.596 313.118 370.252C310.076 371.123 307.544 371.45 305.532 371.236C303.519 371.021 301.913 370.252 300.715 368.918C299.516 367.584 298.669 366.058 298.171 364.35C297.663 362.643 297.414 359.771 297.414 355.724V335.713C297.414 330.444 297.821 326.385 298.623 323.536C299.426 320.686 301.032 318.12 303.44 315.848C305.836 313.575 308.754 311.947 312.179 310.975C314.972 310.172 317.47 310.014 319.676 310.477C321.88 310.941 323.531 311.811 324.616 313.078C325.701 314.344 326.448 315.916 326.832 317.792C327.216 319.658 327.409 322.767 327.409 327.12ZM314.689 325.944C314.689 322.902 314.553 321.026 314.294 320.336C314.034 319.646 313.423 319.431 312.45 319.714C311.501 319.986 310.879 320.573 310.574 321.478C310.269 322.382 310.122 324.305 310.122 327.255V355.238C310.122 358.573 310.269 360.54 310.552 361.139C310.834 361.739 311.444 361.908 312.394 361.637C313.344 361.365 313.954 360.789 314.248 359.896C314.543 359.003 314.689 357.16 314.689 354.345V325.944Z" fill="#333333"/>
<path d="M346.555 221.386L330.872 225.73C329.252 226.175 327.65 224.965 327.65 223.291V207.11C327.65 205.436 326.048 204.208 324.428 204.671L305.149 210.011C304.045 210.314 303.28 211.311 303.28 212.45V231.444C303.28 232.584 302.514 233.58 301.411 233.883L283.021 238.974C281.918 239.277 281.152 240.274 281.152 241.413V261.315C281.152 262.989 282.754 264.217 284.374 263.754L300.058 259.411C301.678 258.966 303.28 260.176 303.28 261.849V278.031C303.28 279.704 304.882 280.933 306.502 280.47L325.781 275.129C326.885 274.827 327.65 273.83 327.65 272.691V253.696C327.65 252.557 328.416 251.56 329.519 251.257L347.908 246.166C349.012 245.864 349.777 244.867 349.777 243.727V223.825C349.777 222.152 348.175 220.941 346.555 221.386Z" fill="#333333"/>
<path opacity="0.5" d="M437.36 262.291V199.576C437.36 199.576 436.969 185.62 423.6 183.057C423.6 183.057 435.918 183.057 442.006 194.165C443.84 197.512 444.641 201.321 444.641 205.131V261.045L437.36 262.291Z" fill="white"/>
<path d="M426.875 331.223C426.875 331.223 443.608 328.908 447.916 312.478C448.539 310.074 448.753 307.6 448.753 305.126V259.803L444.623 261.049V307.368C444.641 307.368 444.837 325.063 426.875 331.223Z" fill="#FF5F5F"/>
<path d="M157.429 306.904C159.168 306.904 160.58 302.592 160.58 297.273C160.58 291.954 159.168 287.643 157.429 287.643C155.688 287.643 154.278 291.954 154.278 297.273C154.278 302.592 155.688 306.904 157.429 306.904Z" fill="#FFD300"/>
<path opacity="0.7" d="M88.7512 476.892V243.959C88.7512 242.944 89.4277 242.054 90.4068 241.805L370.408 168.622C375.107 164.136 364.391 165.454 364.391 165.454C363.946 165.276 86.4192 238.832 86.4192 238.832C86.0098 238.939 85.5647 238.939 85.1553 238.796L36.8596 223.131C36.0052 222.846 35.0617 223.113 34.4742 223.807C33.4952 224.964 32.1956 226.602 32.7119 226.602C33.4239 226.602 74.3675 240.434 82.8055 243.3C83.7134 243.603 84.3186 244.457 84.3186 245.418V476.91C84.3186 477.942 85.0307 478.85 86.0276 479.082C87.4161 479.402 88.7512 478.334 88.7512 476.892Z" fill="white"/>
<path d="M156.843 304.253C157.875 304.253 158.712 301.312 158.712 297.684C158.712 294.056 157.875 291.115 156.843 291.115C155.81 291.115 154.974 294.056 154.974 297.684C154.974 301.312 155.81 304.253 156.843 304.253Z" fill="white"/>
<path d="M177.903 432.762C173.489 432.762 169.572 430.128 167.899 426.033C166.813 423.363 166.831 420.426 167.952 417.773C169.074 415.121 171.157 413.056 173.827 411.97L205.015 399.295C206.315 398.761 207.685 398.494 209.074 398.494C213.489 398.494 217.405 401.129 219.078 405.223C221.321 410.742 218.651 417.043 213.151 419.286L181.962 431.961C180.663 432.495 179.292 432.762 177.903 432.762Z" fill="#CCDDED"/>
<path d="M209.089 399.386C213.006 399.386 216.709 401.718 218.257 405.563C220.322 410.636 217.883 416.404 212.81 418.469L181.622 431.144C180.393 431.642 179.129 431.873 177.901 431.873C173.985 431.873 170.282 429.541 168.733 425.696C166.668 420.623 169.107 414.855 174.181 412.79L205.369 400.115C206.579 399.617 207.843 399.386 209.089 399.386ZM209.089 397.605C207.576 397.605 206.099 397.89 204.692 398.46L173.504 411.135C170.62 412.31 168.359 414.535 167.149 417.419C165.938 420.302 165.921 423.471 167.096 426.355C168.894 430.788 173.148 433.636 177.919 433.636C179.432 433.636 180.91 433.351 182.316 432.781L213.504 420.107C219.468 417.686 222.352 410.85 219.931 404.886C218.115 400.472 213.86 397.605 209.089 397.605Z" fill="#FFD300"/>
<path d="M197.43 424.767C196.201 425.266 193.531 421.563 191.466 416.507C189.401 411.434 188.743 406.93 189.971 406.432L174.127 412.876C169.09 414.923 166.669 420.655 168.698 425.693C170.727 430.731 176.459 433.187 181.515 431.158L197.43 424.767Z" fill="#B50F0F"/>
<path d="M172.455 420.978C172.027 419.928 172.526 418.735 173.576 418.308L207.684 404.565C208.734 404.138 209.927 404.636 210.354 405.686C210.781 406.737 210.283 407.929 209.233 408.357L175.125 422.1C174.075 422.527 172.882 422.028 172.455 420.978Z" fill="white"/>
<path opacity="0.3" d="M86.6494 280.382V241.059L372.471 165.58V175.798C372.489 175.798 153.103 207.254 86.6494 280.382Z" fill="white"/>
<path opacity="0.2" d="M34.4023 223.397L56.3873 230.447C56.3873 230.447 261.924 167.518 370.941 168.016L318.231 147.1L39.0841 220.228L34.4023 223.397Z" fill="#33485E"/>
<path d="M322.094 148.416C319.584 147.562 316.86 147.455 314.297 148.149L35.8983 221.581C33.6197 222.186 32.0176 224.251 32.0176 226.618V457.95C32.0176 460.869 33.869 463.468 36.646 464.412L81.4525 479.668C84.6034 480.736 87.9857 480.86 91.2078 480.006L367.88 407.037C370.603 406.325 372.508 403.851 372.508 401.038V169.262C372.508 167.072 371.12 165.132 369.055 164.42L322.094 148.416Z" stroke="black" stroke-width="5.34047" stroke-miterlimit="10" stroke-linejoin="round"/>
<path d="M423.209 334.888C407.276 334.888 394.37 321.982 394.37 306.049V208.016C394.37 192.102 407.276 179.178 423.209 179.178C439.123 179.178 452.047 192.084 452.047 208.016V306.049C452.047 321.982 439.123 334.888 423.209 334.888Z" stroke="#4F0000" stroke-width="3.56031" stroke-miterlimit="10"/>
<path opacity="0.4" d="M382.318 162.304L454.628 143.256C459.808 141.886 464.881 145.802 464.881 151.16V341.584L474.85 350.235L479.052 340.8V142.384C479.052 142.384 471.45 124.298 454.681 126.398L359.799 152.602L382.318 162.304Z" fill="white"/>
<path d="M345.238 156.286L372.492 165.56V382.383L463.886 358.28C472.359 356.055 478.252 348.382 478.252 339.642V146.246C478.252 133.607 466.289 124.367 454.059 127.607L345.238 156.286Z" stroke="black" stroke-width="5.34047" stroke-miterlimit="10"/>
<path opacity="0.4" d="M391.11 188.88C391.11 188.88 399.085 173.856 406.562 180.994C406.633 181.065 406.704 181.137 406.793 181.208C412.543 186.815 415.872 196.482 415.872 206.682V314.435C415.872 314.435 416.371 334.373 403.589 333.144C403.589 333.144 389.971 331.667 387.319 305.57V203.905C387.301 203.887 388.618 193.313 391.11 188.88Z" fill="#33485E"/>
<path d="M404.144 262.098V305.444C404.144 314.719 411.674 322.249 420.948 322.249C430.223 322.249 437.753 314.719 437.753 305.444V262.489C437.753 262.489 423.992 265.035 404.144 262.098Z" fill="#FF0000"/>
<path d="M408.075 247.552V201.126C408.075 195.162 412.917 190.32 418.881 190.32C424.844 190.32 429.686 195.162 429.686 201.126V226.315C429.686 238.189 419.949 247.766 408.075 247.552Z" fill="white"/>
</svg>
