<svg version="1.1" id="tail" xmlns="http://www.w3.org/2000/svg" xmlns:xlink="http://www.w3.org/1999/xlink" x="0px" y="0px"
	 viewBox="0 0 510.24 595.28" style="enable-background:new 0 0 510.24 595.28;" xml:space="preserve">

<path d="M119.73,388.83c0,0,2.45,1.78,5.97,22.3c3.51,20.52,18.07-3.19,38.37,8.76c0,0-33.53,11.71-39.88,28.2
	c0,0-3.74-0.41-3.41-0.39c0.33,0.02,7.05-15.13,3.13-16.32c-3.92-1.19-8.74,2.33-8.74,2.33S106.38,410.5,119.73,388.83z"/>
<path class="ftst0" d="M119.73,388.83c0.2-0.45-11.76,19.39-5.57,40.37c0,0,1.77-0.77,1.88-1.1
	C116.14,427.77,109.51,412.07,119.73,388.83z"/>
<path class="ftst1" d="M216.01,500.72c0,0-35.34-0.88-60.07-12.66s-34.01-34.75,0.29-50.94l12.07-54.18c0,0-59.48,19.58-60.07,70.23
	c-0.59,50.65,71.71,56.39,110.28,51.53C218.51,504.7,222.63,502.2,216.01,500.72z"/>
<path class="ftst1" d="M183.47,484.74l12.06,16.39c0.26,0.36,0.24,0.85-0.07,1.18l-14.5,15.64c-0.6,0.64-0.06,1.68,0.81,1.55
	c8.28-1.23,34.08-5.81,40.87-16.02c0.25-0.37,0.17-0.87-0.16-1.18c-2.5-2.34-13.69-11.77-37.99-19.01
	C183.63,483.05,182.94,484.03,183.47,484.74z"/>
<path class="ftst1" d="M208.23,489.98l12.25,13.38c0.27,0.29,0.25,0.7-0.05,0.98l-14.32,13.13c-0.59,0.54-0.04,1.39,0.83,1.27
	c8.27-1.13,34.01-5.28,40.68-13.81c0.24-0.31,0.16-0.72-0.17-0.97c-2.53-1.9-13.82-9.54-38.21-15.19
	C208.38,488.58,207.7,489.4,208.23,489.98z"/>
<path d="M133.4,382.3c0,0,2.5,2.17,4.41,24.82c1.91,22.65,19.96-1.79,40.93,13.11c0,0-37.57,9.62-46.01,26.97
	c0,0-4.03-0.79-3.67-0.74s9.08-15.8,4.93-17.46s-9.73,1.72-9.73,1.72S116.86,404.63,133.4,382.3z"/>
<path class="ftst0" d="M133.4,382.3c0,0-15.47,17.11-9.13,48.41c0,0,3.02-2.05,8.43-2.5c0,0-1.88-2.21-5.96-1.1
	C126.74,427.1,122.18,404.86,133.4,382.3z"/>
<path d="M153.36,413.52c0,0-14.25,6.4-14.02-12.48c0,0,6.74-6.74,24.18-14.36l4.09,14.36C167.6,401.04,160.53,410.65,153.36,413.52z
	"/>
<path d="M112.16,436.93c0.07-0.34,2.21-9.28,6.18-10.49c3.98-1.21,3.75,10.16,3.75,10.16s3.64-3.53,9.39-4.75
	c0,0,1.21,4.31,0.22,12.04c0,0,8.06-0.77,7.73-0.55c-0.33,0.22-4.53,14.02-4.53,14.02s-9.61-6.63-24.96-1.88
	C109.96,455.49,109.07,447.09,112.16,436.93z"/>
<path d="M113.82,450.07L87.1,429.76l32.02,8.83C119.12,438.59,123.32,446.65,113.82,450.07z"/>
<path d="M110.4,458.91c0,0,4.64-2.65,14.58-2.1c0,0-9.06,11.26,6.52,16.56c-0.55,0.33-6.63,0.99-11.6,7.4
	C119.9,480.77,112.61,473.37,110.4,458.91z"/>
<path d="M117.13,462.55c0,0-31.14,8.28-30.48,8.28s31.8,3.53,31.8,3.53S124.42,467.41,117.13,462.55z"/>
<path d="M122.1,482.43c-0.14-0.32,2.76-6.07,13.03-8.83c0,0-11.26,8.83-5.85,15.79C129.28,489.39,123.65,485.85,122.1,482.43z"/>
<path d="M142.31,480.77c0,0-8.39,2.65-9.5,10.93c0,0,18.55,14.47,59.85,14.25l3.75,0.11l-9.39,9.94c0,0,16.34-3.2,31.14-9.39
	l-9.39,8.72c0,0,18.66-0.44,35.12-10.82c0,0-45.61,3.09-49.47-2.76c0,0-27.61-0.22-44.83-8.72
	C132.37,484.53,142.31,480.77,142.31,480.77z"/>
<path d="M184.94,485.74c0,0,8.61,12.7,9.28,12.59c0.66-0.11,17.01,1.44,17.01,1.44S198.41,488.61,184.94,485.74z"/>
<path d="M209.12,490.49c-0.34-0.08,9.39,9.61,9.39,9.61l19.55,1.66C238.05,501.76,224.58,493.91,209.12,490.49z"/>
<path d="M124.42,481.66c0,0-18.55,16.79-18.22,16.79c0.33,0,23.74-10.16,23.74-10.16S131.71,481.33,124.42,481.66z"/>
<path d="M127.54,514.96c0.31-0.24,9.25-22.58,9.25-22.58s4.6-0.77,7.68,3.66L127.54,514.96z"/>
<path d="M153.57,521.17c0.19-0.28,1.54-20.74,1.54-20.74s3.52-1.84,7.19,0.94L153.57,521.17z"/>
<path d="M174.35,520.15c0.1-0.24-2.11-16.02-2.11-16.02s2.39-1.95,5.62-0.42L174.35,520.15z"/>
<path class="ftst0" d="M91.63,431.85l22.75,12.26c2.02-1.32,1.99-3.34,2.1-4.97L91.63,431.85z"/>
<path class="ftst0" d="M93.5,470.17l19.99-5.08c0,0,3.64,0.55,4.42,4.09L93.5,470.17z"/>
<path class="ftst0" d="M110.84,495.35c0.66-0.22,13.25-11.6,13.25-11.6s2.76-1.33,4.31,2.32L110.84,495.35z"/>
<path class="ftst0" d="M131.27,509.04l7.07-16.67c0,0,1.66-1.1,3.87,0.55L131.27,509.04z"/>
<path class="ftst0" d="M134.58,475.47c-0.01-0.35-5.85,4.53-3.75,7.84s8.94-2.43,8.94-2.43S134.69,479.23,134.58,475.47z"/>
<path class="ftst0" d="M141.76,482.65c0,0,1.77,4.31,8.61,5.74C150.37,488.39,140.66,492.92,141.76,482.65z"/>
<path class="ftst0" d="M153.58,489.83c0,0,3.75,4.42,12.92,4.53C166.5,494.36,156.23,498.22,153.58,489.83z"/>
<path class="ftst0" d="M132.82,471.61l-3.09-15.35c0,0-6.4,3.64-4.86,8.61S132.82,471.61,132.82,471.61z"/>
<path class="ftst0" d="M138.67,400.71c-0.25,0.21,0.22,5.74,2.87,10.16c0.77-9.67,4.9-15.26,11.04-19.77
	C152.58,391.1,144.63,395.63,138.67,400.71z"/>
<path class="ftst0" d="M169.81,495.13c5.41,2.65,18.66,5.41,23.74,4.31c0,0-2.21,3.53-4.86,2.1c-2.65-1.44-5.19-2.87-5.19-2.87
	s-3.75,2.54-5.41,1.33c-1.66-1.21-2.65-2.65-2.65-2.65s-1.55,2.76-3.98,1.66C169.04,497.89,169.81,495.13,169.81,495.13z"/>
<path class="ftst0" d="M198.3,499.99c0,0-0.55,3.2,3.53,3.42c4.09,0.22,33.24-1.1,32.91-1.1C234.41,502.31,198.3,499.99,198.3,499.99z
	"/>
<path class="ftst0" d="M184.61,485.08c0,0,15.46,4.2,26.5,13.36c0,0,3.09,1.55,4.64,0.22C215.75,498.66,202.16,488.5,184.61,485.08z"
	/>
<path class="ftst0" d="M210.12,490.05c0,0,19.44,5.19,29.48,11.71c0.44,0.11,6.18,1.99,6.18,1.99S229.33,493.25,210.12,490.05z"/>
<path class="ftst1" d="M114.93,454.93c0.33-0.11,10.6-0.66,15.46-0.22c0,0-1.33-8.61-6.18-11.04
	C119.34,441.24,114.93,454.93,114.93,454.93z"/>
<path class="ftst0" d="M128.18,454.49c0,0-9.94,1.21-9.61-1.1c0.33-2.32,1.88-7.51,4.53-7.4C125.75,446.1,128.18,454.49,128.18,454.49
	"/>
<path class="ftst2" d="M93.5,470.17c0,0,19.21-4.64,19.99-5.08c0.77-0.44,3.64,1.55,3.64,1.55L93.5,470.17z"/>
<polygon class="ftst2" points="90.52,431.63 116.58,440.14 116.58,442.34 "/>
<path class="ftst2" d="M131.05,385.36c0,0-10.71,14.8-7.84,36.55c0,0,2.21,1.33,2.21,0.88C125.42,422.36,121.88,409.77,131.05,385.36z
	"/>
<path class="ftst2" d="M117.47,429.09c0-0.44-1.1-6.63-0.66-7.18s4.75-6.96,4.75-6.96l-2.76,7.29L117.47,429.09z"/>
<path class="ftst2" d="M114.7,426.99c0,0-3.42,4.97-3.87,9.06c0,0,2.76,1.21,2.76,0.88S114.7,426.99,114.7,426.99z"/>
<path class="ftst2" d="M108.63,447.09c0,0-1.99,5.63-0.22,9.94l4.2-1.21C112.61,455.82,108.85,454.64,108.63,447.09z"/>
<path class="ftst2" d="M115.37,457.25c0.32-0.14-6.96,1.99-6.96,1.99s0.33,3.42,0.77,5.41l1.99-0.55
	C111.17,464.1,109.51,459.9,115.37,457.25z"/>
<path class="ftst2" d="M113.27,493.91c0.33-0.44,11.71-9.94,12.04-10.05c0.33-0.11,1.77,0.77,1.77,0.77L113.27,493.91z"/>
<path class="ftst2" d="M133.26,506.06c0.11-0.55,6.52-14.02,6.52-14.02l1.77,0.44L133.26,506.06z"/>
<polygon class="ftst2" points="196.42,488.95 207.32,496.31 212.03,495.87 "/>
<path class="ftst2" d="M219.24,492.18c0.74-0.15,13.84,4.12,21.64,8.25l-5.3-0.44L219.24,492.18z"/>
<polygon class="ftst2" points="156.37,509.85 157.55,499.1 158.88,499.69 "/>
<polygon class="ftst2" points="174.04,502.93 174.63,511.33 175.07,502.79 "/>
</svg>
