<svg version="1.1" id="accessory" xmlns="http://www.w3.org/2000/svg" xmlns:xlink="http://www.w3.org/1999/xlink" x="0px" y="0px"
	 viewBox="0 0 510.24 595.28" style="enable-background:new 0 0 510.24 595.28;" xml:space="preserve">

<path d="M250.9,472.6c0,0,54.04,4.86,77.45-26.94c0,0-7.21-8.54-27.83-4.56C279.91,445.07,260.32,453.61,250.9,472.6z"/>
<path class="fst0" d="M332.32,374.69c0.29,0.59,12.07,21.64,15.31,44.47s-15.75,35.48-15.75,35.48s-7.66-14.28-27.39-8.83
	c0,0-1.47-38.72,11.63-54.18c13.1-15.46,15.9-16.2,15.9-16.2"/>
<path class="fst0" d="M253.11,477.02c0,0,4.42-20.17,32.25-28.42l-127.07-42.85c0,0-6.33,15.9-6.92,41.82
	C151.37,447.57,170.66,477.02,253.11,477.02z"/>
<path d="M275.34,446.69c0,0-19.73,10.31-24.59,27.39c0,0-70.23,1.62-98.21-27.53c0,0,35.93,25.18,94.82,22.09
	c0,0,3.83-7.51,6.48-11.04c0,0-66.4-4.86-87.31-42.55c0,0,32.1,26.21,107.34,22.53L275.34,446.69z"/>
<path class="fst0" d="M156.37,408.26c-0.06,0.56,25.3,41.4,114.24,43.13c15.45,0.3,34.7-3.67,47.58-12.21
	c9.82-6.51,15.77-16.49,22.23-31.51c0,0-1.03-17.96-5.89-25.91l-170.5,1.91C164.03,383.67,157.85,395.01,156.37,408.26z"/>
<path d="M157.77,399.83c0,0,22.54,37.53,127.38,32.56c10.38-0.49,20.56-3.42,29.41-8.87c18.55-11.41,24-28.48,22.55-38.27
	c0,0-8.83-31.8-17.34-36.99c0,0-38.54,34.34-71.67,35.78c-33.13,1.44-77.19-14.13-77.19-14.13S163.29,383.37,157.77,399.83z"/>
<path class="fst1" d="M196.13,340.82c0.36-0.27,39.89,24.19,84.7,19.15c3.37-0.38,6.67-1.35,9.6-3.03
	c14.46-8.3,9.07-25.03,9.21-25.69c0,0,24,13.25,32.54,40.34c8.54,27.09-19.58,53.74-38.43,56.54c-21.5,3.09-93.06,1.33-128.1-47.41
	C165.65,380.72,177.58,353.63,196.13,340.82z"/>
<path class="fst2" d="M188.62,348.48c0.32-0.3,11.34,11.63,46.67,17.82s52.71,12.66,55.21,36.07l1.91,23.12
	c0,0-49.47,7.21-79.66-21.2s-44.02-24.88-44.02-24.88S176.4,360.11,188.62,348.48z"/>
<path class="fst2" d="M295.81,424.16c0.15-0.44-7.04-32.6-2.5-43.44c6.04-14.91,21.83-24.18,14.43-49.18c0,0,31.95,20.47,18.11,63.02
	C316.13,419.3,295.81,424.16,295.81,424.16z"/>
<path class="fst0" d="M196.13,357.46c0,0,16.2,9.87,51.24,15.31c35.04,5.45,41.23,14.87,42.26,50.65c0,0-46.67,3.24-67.88-18.26
	c-21.2-21.5-41.23-28.71-41.23-28.71S186.26,361.73,196.13,357.46z"/>
<path class="fst0" d="M298.75,421.36c0.15-0.44-5.3-30.04-1.18-40.34c4.12-10.31,18.4-25.62,16.93-38.43c0,0,16.34,20.32,12.52,45.64
	C323.2,413.56,298.75,421.36,298.75,421.36z"/>
<path class="fst3" d="M197.16,361.44c0,0,25.33,11.48,51.39,14.87s30.77,9.87,35.63,23.41s5.45,23.71,5.45,23.71
	s-49.18,5.15-67.14-26.8c0,0,13.99,6.33,25.47,5.6C247.96,402.22,210.56,395.89,197.16,361.44z"/>
<path class="fst3" d="M316.42,348.18c0,0-1.33,9.72-9.13,21.5s-12.22,16.2-7.95,51.83c0,0,29.15-8.54,26.5-49.03
	c0,0-2.8,9.57-9.42,16.2C316.42,388.68,330.12,371.74,316.42,348.18z"/>
<path class="fst4" d="M301.85,416.36c0,0-5.32-26.25,3.68-38.13c10.31-13.84,11.63-21.35,11.63-21.35s6.04,17.52-5.3,31.36
	c-8.39,9.42-7.8,20.17-7.8,20.17s1.33-9.72,8.1-13.55c6.86-3.88,10.9-10.45,11.48-12.37C323.64,382.49,326.58,398.25,301.85,416.36z
	"/>
<path class="fst4" d="M209.09,368.95c0,0,12.22,7.07,38.72,10.45s34.16,17.08,38.43,39.17c0,0-30.04,8.1-54.77-14.43
	c0,0,14.87,6.63,23.71,3.39c8.83-3.24,20.02,1.03,20.02,1.03s-5.74-10.31-21.64-10.9S220.72,389.71,209.09,368.95z"/>
<path class="fst5" d="M193.48,350.39c0,0,13.84,10.6,36.96,14.28c23.12,3.68,56.83,8.98,60.66,32.25c0,0-2.8-16.93,5.45-26.65
	c8.25-9.72,12.37-18.85,12.66-28.27l-6.48-5.3c0,0,1.33,21.06-16.93,27.39s-65.67-5.45-87.02-20.47
	C198.78,343.62,195.39,347.3,193.48,350.39z"/>
<path class="fst1" d="M289.07,393.53c-0.11-0.44-5.52-30.48-5.52-30.48l2.87-1.55l4.75,24.63l0.77,11.15l-1.1,2.65L289.07,393.53z"/>
<path class="fst1" d="M291.94,359.63c0.17-0.42,4.53,13.03,4.53,13.03l1.44-2.43l-4.42-12.15
	C293.49,358.09,291.72,360.18,291.94,359.63z"/>
<path class="fst1" d="M297.36,353.78c0.33,0,5.3,9.17,5.3,9.17l1.88-3.09l-5.96-8.5L297.36,353.78z"/>
<path class="fst1" d="M300.23,346.49c0,0,6.74,8.39,6.85,8.06c0.11-0.33,1.99-6.07,1.99-6.07l-7.84-6.74L300.23,346.49z"/>
<path class="fst1" d="M301.77,338.1c0.55-0.11,7.4,5.19,7.4,5.19l0.11,2.1l-7.73-5.08L301.77,338.1z"/>
<path class="fst1" d="M275.71,364.49c-0.11,0.33-0.33,12.59-0.33,12.59s-3.2-0.88-3.09-1.33c0.11-0.44,0.77-11.93,0.77-11.93
	L275.71,364.49z"/>
<polygon class="fst1" points="262.02,364.6 260.36,371.23 257.49,370.45 259.37,363.17 "/>
<polygon class="fst1" points="245.9,361.62 243.91,367.25 238.16,366.15 240.82,359.85 "/>
<polygon class="fst1" points="218.73,362.06 224.36,354.33 219.61,352.57 213.1,360.63 "/>
<path class="fst1" d="M198.41,354.22c0,0,5.74-7.95,6.07-8.06c0.33-0.11,5.52,2.87,5.52,2.87l-5.85,8.28L198.41,354.22z"/>
<path class="fst3" d="M203.6,344.39c0,0,33.46,21.2,79.07,16.67c0,0,22.2-2.76,19.1-26.39c0,0,8.5,24.96-16.01,30.04
	C251.31,370.12,214.86,354.44,203.6,344.39z"/>
<path class="fst4" d="M243.58,360.63c0,0,27.28,4.86,42.85,0.88s15.79-16.56,15.79-16.56s3.64,12.04-14.69,18.11
	C261.58,367.03,243.58,360.63,243.58,360.63z"/>
<polygon class="fst3" points="277.48,366.81 282.23,366.59 285.1,382.6 277.26,375.76 "/>
<polygon class="fst3" points="270.41,366.81 269.64,372.77 262.79,369.9 263.78,366.7 "/>
<path class="fst3" d="M288.63,366.04l2.65,11.04c0,0,2.98-6.07,3.09-6.4c0.11-0.33-1.88-6.29-1.88-6.29L288.63,366.04z"/>
<path class="fst3" d="M296.58,361.95l2.65-2.65l1.44,3.09c0,0-2.54,3.98-2.54,3.53S296.58,361.95,296.58,361.95z"/>
<polygon class="fst3" points="303.65,351.24 302.55,354.11 304.09,357.2 305.31,354 "/>
<polygon class="fst3" points="256.83,365.71 255.94,368.8 246.34,366.48 247.33,364.05 "/>
<path class="fst3" d="M221.93,361.51c0.33,0,13.25,2.76,13.25,2.76l0.88-2.54l-12.37-4.42L221.93,361.51z"/>
<path class="fst3" d="M206.91,355.99c0.55-0.22,4.75,2.21,4.75,2.21l3.64-4.31c0,0-4.97-2.98-4.97-2.65
	C210.34,351.57,206.91,355.99,206.91,355.99z"/>
<path class="fst3" d="M194.32,350.14c0.33,0,2.98,1.88,2.98,1.88l4.2-4.97l-3.42-1.88L194.32,350.14z"/>
<polygon class="fst3" points="304.2,343.29 304.31,345.61 307.18,348.59 307.74,345.17 "/>
<path d="M276.15,360.52c0,0-45.17,2.54-79.84-21.64c0,0-28.16,21.24-38.54,60.96l14.91-0.88c0,0-3.53-21.42,23.96-55.21
	C196.64,343.73,231.87,365.49,276.15,360.52z"/>
<path d="M197.31,342.85c0,0-8.61,11.15,14.47,15.9s55.33,11.26,64.16,18.99c0,0-28.27-11.6-54.44-14.36
	c-26.17-2.76-30.81-8.06-29.93-15.24C192.45,340.97,197.31,342.85,197.31,342.85z"/>
<path d="M286.64,386.03c0,0,9.17,24.63,5.96,43.07c0,0-42.4,4.97-62.06-11.15c-19.66-16.12-27.94-30.59-53.34-37.55
	c0,0,21.09,8.39,27.5,25.29c6.4,16.9,21.53,22.09,21.53,22.09s42.4,6.85,70.67,2.1l-5.96-38.98
	C290.95,390.88,290.18,388.01,286.64,386.03z"/>
<path d="M291.39,395.3c0,0-3.2-12.26,4.31-22.64c7.51-10.38,13.91-20.1,14.02-28.6c0,0-3.75,12.04-15.57,27.06
	c0,0-7.29,7.07-5.85,17.78L291.39,395.3z"/>
<path d="M307.74,331.55c0,0,24.63,18.59,22.86,53.82c0,0,1.1,29.15-33.79,42.4l-2.32,1.33l2.43,0.77c0,0,25.51-6.63,34.67-28.6
	S331.7,350.06,307.74,331.55z"/>
<path class="fst6" d="M214.53,373.51c0,0,11.85,20.02,36.37,20.91c0,0-12.52-3.09-9.42-8.69c6.18-4.64,30.04,4.42,31.8,11.48
	c1.47,5.74-7.07,0.52-7.07,0.52s13.91,9.72,13.91,15.68c0,0-7.07-6.63-18.33-5.08c0,0,7.51,3.09,4.2,5.08
	c-3.31,1.99-23.19-4.42-23.19-4.42s16.79,12.59,40.64,7.95c0,0-3.83-22.09-17.67-29.74C242.51,374.98,233.67,387.79,214.53,373.51z"
	/>
<path class="fst7" d="M245.6,372.48c0,0,28.56,3.83,35.63,14.87s10.31,28.12,10.31,28.12s-1.91-22.67-8.83-30.92
	C273.28,373.51,245.6,372.48,245.6,372.48z"/>
<path class="fst7" d="M295.07,410.03c0-0.59-4.71-19.14-2.65-27.68s14.87-25.91,14.87-25.91s-11.04,19.14-12.81,27.09
	C292.72,391.47,295.07,410.03,295.07,410.03z"/>
<path class="fst7" d="M279.02,367.33c0,0.74-0.59,9.72-0.15,9.57c0.44-0.15,2.94,2.06,2.94,2.06l-0.88-12.22L279.02,367.33z"/>
<path class="fst7" d="M265.18,367.03c0,0-0.59,3.68,0,3.68s2.5,1.03,2.5,1.03l0.59-5.01L265.18,367.03z"/>
<polygon class="fst7" points="289.92,365.85 291.98,373.07 293.45,370.86 291.83,364.53 "/>
<path class="fst7" d="M241.04,362.03c0,0,24.29,7.07,45.35,3.09s16.49-27.24,16.49-27.24S312.59,376.16,241.04,362.03z"/>
<path class="fst6" d="M302.88,413.71c0,0-4.71-21.06,2.21-28.56c6.92-7.51,11.63-16.93,11.63-25.62c0,0,3.83,15.9-7.07,29.74
	c0,0,1.77-4.71,0.59-5.89s-8.69,8.54-7.07,18.4c1.62,9.87,1.91-2.5,10.16-6.63c0,0-6.33,8.54-4.12,9.57s11.48-13.25,12.52-16.79
	C321.72,387.94,320.84,401.49,302.88,413.71z"/>
<path class="fst8" d="M214.53,373.51c0,0,10.9,18.85,36.37,20.91c0,0-18.26-5.45-19.88-9.57c-1.62-4.12,18.99-3.09,18.99-3.09
	S222.04,381.02,214.53,373.51z"/>
<path class="fst8" d="M266.21,397.73c0,0,11.48,6.11,4.86-3.75c0,0,6.33,6.48,4.71,9.13S266.21,397.73,266.21,397.73z"/>
<path class="fst8" d="M242.8,408.99c0,0,23.56,7.51,24.29,3.83c0.74-3.68-5.3-4.49-5.3-4.49s10.75,3.31,7.36,6.55
	S242.8,408.99,242.8,408.99z"/>
<path class="fst8" d="M317.31,359.08c0,0,2.94,16.79-6.04,27.68c0,0,7.95-11.48-0.15-10.75
	C311.12,376.01,316.86,369.98,317.31,359.08z"/>
<path class="fst8" d="M321.72,387.94c0,0-5.89,17.82-14.13,18.85c-4.71-0.15,5.74-11.63,5.74-11.63s-5.89,8.54-3.24,8.25
	C315.24,401.78,321.72,387.94,321.72,387.94z"/>
<path d="M274.61,431.08c0,0-2.8,24,21.79,21.94c20.47-2.36,17.67-27.09,13.25-29.45C309.65,423.57,295.96,430.49,274.61,431.08z"/>
<path class="fst9" d="M293.5,450.31c-5.34,0-9.42-1.52-12.1-4.53c-3.32-3.71-3.97-8.95-4.04-11.98c15.76-0.82,27.03-4.88,31.48-6.76
	c0.95,2.24,1.89,7.43,0.2,12.83c-1.9,6.08-6.26,9.55-12.96,10.32C295.25,450.27,294.35,450.31,293.5,450.31L293.5,450.31z"/>
<path class="fst3" d="M281.53,435.2c0,0,0.74,15.61,16.49,12.52c14.44-2.83,8.69-18.11,8.69-18.11s-6.18,5.15-6.18,10.31
	c0,0-0.44-5.6-5.89-7.36c0,0-2.8,2.8-2.65,7.95C291.98,440.5,288.45,434.32,281.53,435.2z"/>
<path class="fst6" d="M295.22,433.88c0,0,4.71,3.39,4.56,7.36c-0.15,3.98-4.42,7.51-7.36,5.01c-2.94-2.5,0-7.07,0-7.07
	s0,5.15,2.36,3.09C297.13,440.21,295.22,433.88,295.22,433.88z"/>
<path class="fst6" d="M290.21,446.1c0,0-6.33-3.68-6.33-8.83C283.88,437.26,290.8,436.97,290.21,446.1z"/>
<path class="fst6" d="M300.52,445.66c-0.32,0.34,6.18-0.88,5.6-13.69c0,0-3.98,3.68-3.83,7.51
	C302.29,439.47,305.38,440.5,300.52,445.66z"/>
<path class="fst8" d="M295.37,445.36c0,0,3.98-2.8,0.59-6.63l1.33-2.8C297.28,435.94,301.99,441.98,295.37,445.36z"/>
<path class="fst8" d="M286.39,438.74c-0.42-0.21,0.29,3.53,0.29,3.53l2.21,1.47C288.89,443.74,289.63,440.36,286.39,438.74z"/>
<path class="fst8" d="M303.91,440.95l-1.18-3.09l2.06-3.98C304.79,433.88,305.09,438.88,303.91,440.95z"/>
<path class="fst9" d="M256.5,434.61c0,0-0.29,13.99,5.3,12.66c5.6-1.33,5.3-12.37,5.3-12.37L256.5,434.61z"/>
<path class="fst9" d="M313.2,423.61c0,0,4.1,11.28,8,7.33c3.9-3.95,0.25-12.59,0.25-12.59L313.2,423.61z"/>
<path class="fst9" d="M324.17,415.61c0,0,4.55,7.79,6.89,4.36c2.34-3.44-1.51-9.34-1.51-9.34L324.17,415.61z"/>
<path class="fst9" d="M247.37,435.06c0,0,1.43,10.83-5.74,9.87c-5.45-0.74-3.68-10.9-3.68-10.9L247.37,435.06z"/>
<path class="fst9" d="M227.7,432.38c0,0,0.52,10.92-6.55,9.35c-5.37-1.19-2.76-11.17-2.76-11.17L227.7,432.38z"/>
<path class="fst9" d="M205.48,428.11c0,0-0.58,9.24-6.38,7.26c-4.41-1.5-1.28-9.66-1.28-9.66L205.48,428.11z"/>
<path class="fst9" d="M189.74,422.63c0,0-1.63,9.11-7.17,6.48c-4.21-2-0.17-9.74-0.17-9.74L189.74,422.63z"/>
<g class="fst10">
	<ellipse class="fst4" cx="260.47" cy="439.69" rx="2.36" ry="4.2"/>
	<ellipse class="fst4" cx="241.18" cy="438.3" rx="2.06" ry="3.98"/>
	<ellipse class="fst4" cx="220.86" cy="434.98" rx="1.91" ry="3.61"/>
	<ellipse class="fst4" cx="200.18" cy="430.57" rx="1.69" ry="3.46"/>
	<ellipse class="fst4" cx="184.13" cy="423.94" rx="1.69" ry="2.72"/>
</g>
<ellipse transform="matrix(0.9498 -0.3129 0.3129 0.9498 -117.1778 120.7594)" class="fst11" cx="317.6" cy="425.41" rx="2.36" ry="3.75"/>
<ellipse transform="matrix(0.9498 -0.3129 0.3129 0.9498 -113.7678 123.4832)" class="fst11" cx="327.79" cy="416.15" rx="1.96" ry="3.13"/>
<path d="M152.25,445.66c0,0,1.18-20.91,5.45-32.39l15.61,12.66C173.31,425.93,156.37,430.05,152.25,445.66z"/>
<path d="M153.28,447.13c0,0,7.8-15.17,22.82-19.58l7.21,4.56C183.32,432.11,170.21,448.45,153.28,447.13z"/>
<path d="M157.99,449.93c0,0,14.58,0.29,28.56-14.28l6.04,3.09c0,0-15.75,14.28-31.36,13.69
	C161.23,452.43,158.73,450.81,157.99,449.93z"/>
<path d="M174.48,457.88c0,0,10.75,2.36,18.99-2.94c8.25-5.3,12.52-10.9,12.52-10.9l6.92,2.21c0,0-10.01,15.75-30.04,15.31
	C182.88,461.56,176.25,461.26,174.48,457.88z"/>
<path d="M199.66,466.27c-0.41-0.23,17.23,1.47,29.01-15.17l7.36,1.33c0,0-8.54,13.84-23.56,15.9
	C212.47,468.33,204.67,469.07,199.66,466.27z"/>
<path d="M309.06,442.27c-0.61,0.12,30.18-11.63,32.25-47.56c0,0,7.51,20.02-17.52,44.32c0,0,7.36,0.74,14.43,6.33l-3.68,3.83
	C334.53,449.19,323.34,439.47,309.06,442.27z"/>
<path d="M334.53,449.19c0,0,16.79-15.31,9.57-39.02c0,0,3.39,19.14-11.63,34.75L334.53,449.19z"/>
<path d="M329.97,430.34c0,0,8.83,5.74,13.69,1.18l0.59-3.24c0,0-6.77,3.24-13.1-0.74L329.97,430.34z"/>
<path d="M335.56,421.95c0,0,8.54,4.27,9.13,1.91s0.44-4.86,0.44-4.86l-7.07-2.06L335.56,421.95z"/>
<path class="fst3" d="M230.58,467.01c0,0,11.19,1.47,14.87-1.03c3.68-2.5,5.74-7.36,5.74-7.36l-6.92,2.36l-6.04-4.12
	C238.24,456.85,236.32,462.44,230.58,467.01z"/>
<path class="fst3" d="M196.28,463.18c0,0,8.83,1.62,13.69,0.15c4.86-1.47,13.99-9.42,13.99-9.42l-8.1,0.74l-2.8-3.98
	C213.06,450.66,208.94,459.06,196.28,463.18z"/>
<path class="fst3" d="M172.86,455.08c0,0,9.28,3.24,17.08,0s11.63-8.83,11.63-8.83h-5.89l-2.06-4.12
	C193.63,442.12,186.12,450.81,172.86,455.08z"/>
<path class="fst3" d="M251.93,474.81c-0.23,0.48,3.09-14.72,19.88-24.29l4.86-1.03C276.67,449.49,260.32,457.29,251.93,474.81z"/>
<path class="fst3" d="M326.73,438.15c0,0,7.36,3.83,11.19-2.21l-6.33-2.5l-0.15,2.5L326.73,438.15z"/>
<path class="fst3" d="M334.68,427.99c0,0,5.6,1.03,7.8-2.21l-5.6-1.91l0.59,1.77L334.68,427.99z"/>
<path class="fst3" d="M209.97,440.8c0,0,29.45,9.28,65.08,7.66c0,0-2.36-5.15-3.39-12.22c0,0,0.29,9.57-8.39,11.19
	c-8.69,1.62-11.93-8.69-11.93-8.69s-1.47,7.07-9.42,7.51c-7.95,0.44-9.87-7.66-9.87-7.66s-5.46,3.34-10.9,3.14
	S209.97,440.8,209.97,440.8z"/>
<path class="fst6" d="M240.01,465.68c0,0,5.01,0.15,8.98-5.3C248.99,460.38,242.95,461.41,240.01,465.68z"/>
<path class="fst6" d="M204.52,462.59c-0.41,0.16,8.98-0.44,17.37-7.66l-7.07,1.47l-1.33-3.53l-0.74,5.6
	C212.77,458.47,210.41,460.23,204.52,462.59z"/>
<polygon class="fst6" points="259.29,440.95 258.7,438.3 260.91,436.38 "/>
<polygon class="fst6" points="240.59,440.06 238.97,437.41 240.45,434.61 "/>
<path class="fst6" d="M328.79,438.15c0,0,3.68,1.33,7.66-1.33l-4.42-1.47l1.33,1.91L328.79,438.15z"/>
<polygon class="fst6" points="318.04,427.4 315.98,426.07 316.57,423.28 "/>
<path class="fst12" d="M173.16,390.3c0,0-1.77-20.47,18.11-40.64c0,0-1.77,5.01,2.36,8.39C193.63,358.05,178.02,360.99,173.16,390.3z
	"/>
<path class="fst13" d="M153.72,438c0,0,1.62-12.81,4.42-20.32c0,0,4.27,5.45,7.07,6.77C165.21,424.45,157.26,427.1,153.72,438z"/>
</svg>
