<svg version="1.1" xmlns="http://www.w3.org/2000/svg" xmlns:xlink="http://www.w3.org/1999/xlink" x="0px" y="0px"
	 viewBox="0 0 510.24 595.28" style="enable-background:new 0 0 510.24 595.28;" xml:space="preserve">
<style type="text/css">
	.st0{fill:#F18A0E;}
	.st1{fill:#F7A800;}
	.st2{fill:#B2B6B7;}
	.st3{fill:#A80000;}
	.st4{fill:#DA211E;}
	.st5{fill:#E0E0E0;}
	.st6{fill:#FFFFFF;}
	.st7{fill:#728033;}
	.st8{fill:#4C4530;}
	.st9{fill:#332E20;}
	.st10{fill:#769299;}
	.st11{fill:#AF8F51;}
	.st12{fill:#A6D8E0;}
	.st13{fill:#EFBD65;}
	.st14{fill:#F5EFDD;}
	.st15{fill:#C60B26;}
	.st16{fill:#DECBB2;}
	.st17{fill:#E79090;}
	.st18{fill:#C1A88E;}
	.st19{fill:#8E0103;}
	.st20{fill:#99B541;}
	.st21{fill:#685F3C;}
	.st22{fill:#877846;}
	.st23{fill:#720000;}
	.st24{fill:#506468;}
	.st25{fill:#64A6B5;}
	.st26{fill:#603429;}
	.st27{fill:#8C3D30;}
	.st28{fill:#E88D0A;}
	.st29{fill:#963600;}
	.st30{fill:#FFD664;}
	.st31{fill:#FF621D;}
	.st32{fill:#BA4D38;}
	.st33{fill:#2B1915;}
	.st34{fill:#818A8C;}
	.st35{fill:#3A3426;}
	.st36{fill:#606D72;}
	.st37{fill:#1D1D1B;}
	.st38{fill:#3F4147;}
	.st39{fill:#B5AD95;}
	.st40{fill:#EFE8C5;}
	.st41{fill:#1D1D1D;}
	.st42{fill:#7F7A78;}
	.st43{fill:#A5A5A5;}
	.st44{fill:#ED7601;}
	.st45{fill:#D64422;}
	.st46{fill:#FF871A;}
	.st47{fill:#FFA255;}
	.st48{fill:#4F4B48;}
	.st49{fill:#7A6661;}
	.st50{fill:#F42A2A;}
	.st51{fill:#11100F;}
</style>
<g id="left-wing_1_">
	<g>
		<path class="st0" d="M305.56,337.89c0,0,29.06,19.46,63.22,21.49c5.9,0.35,10.23,5.69,9.29,11.52l-3.36,21.02
			c-0.79,4.91-4.94,8.58-9.92,8.74c-7.68,0.24-26.25,0.17-35.67-16.69C311.89,375.14,305.56,337.89,305.56,337.89z"/>
		<path d="M362.59,402.2c-16.41,0-28.02-5.75-34.56-17.1c-17.39-9.42-23.69-45.42-23.95-46.96l-0.58-3.44l2.9,1.94
			c0.29,0.19,29.14,19.25,62.48,21.24c3.25,0.19,6.28,1.76,8.31,4.29c2.02,2.52,2.89,5.79,2.38,8.97l-3.36,21.02
			c-0.9,5.62-5.67,9.83-11.35,10C364.08,402.19,363.33,402.2,362.59,402.2z M307.71,340.98c2.01,9.23,8.69,34.79,22.09,41.66
			l0.4,0.21l0.22,0.4c9.33,16.69,28.14,16.12,34.32,15.92c4.24-0.13,7.81-3.27,8.48-7.48l3.36-21.02c0.38-2.39-0.24-4.74-1.75-6.62
			c-1.5-1.87-3.74-3.03-6.15-3.17C340.82,359.22,316.06,345.93,307.71,340.98z"/>
	</g>
	<path class="st1" d="M325.07,351.88c0.06,0.17,10.27,4.42,18.06,5.96c0,0-0.44,2.48,0.39,3.75l5.47,8.5c0,0-6.46-3.53-10.6-8.34
		c0,0-1.93,8.34,4.36,14.3c6.29,5.96,9.83,6.63,9.83,6.63s-0.72,7.23,1.88,13.47c0,0-8.69-0.63-13.18-4.23
		C341.27,391.93,336.83,367.84,325.07,351.88z"/>
	<path class="st14" d="M363.13,391.97l-2.07,7.98c0,0-1.7,7.83,1.71,15.84c3.34,1.22,7.82,2.15,13.05,1.46
		c4.01-0.53,6.72-1.99,8.54-3.66c-4.84-1.86-7.47-7.36-7.26-13.23C369.46,398.47,365.2,394.55,363.13,391.97z"/>
	<path class="st14" d="M376.96,334.72c0,0-7.73,10.09-6.4,28.64l-7.43,28.61c2.07,2.57,6.33,6.5,13.97,8.38
		c0.04-1.04,0.16-2.09,0.38-3.13c2.06-9.86,13.53-22.95,11.49-32.81c-4.91-8.89-8.73-19.11-12.06-30.14
		C376.93,334.43,376.94,334.58,376.96,334.72z"/>
	<path class="st15" d="M411.08,407.72c0.13,6.06-2.36,12.53-4.9,17.52c2.68-1.82,4.2-3.34,4.2-3.34s11.67-10.38,11.26-31.95
		c0.22-7.22-17.01-7.73-17.23-0.52c0,0,0.01,1.76-0.28,4.33C406.92,395.66,410.91,399.76,411.08,407.72z"/>
	<path class="st14" d="M396.8,419.2c-2.3,4.75-7.74,8.96-12.47,11.93c9.42,1.17,17.3-2.8,21.85-5.9c2.54-4.99,5.02-11.46,4.9-17.52
		c-0.17-7.96-4.17-12.06-6.94-13.97c-0.47,4.21-1.76,10.6-5.24,15.1C399.25,411.13,399.04,414.56,396.8,419.2z"/>
	<path class="st15" d="M362.77,415.79c2.04,4.77,5.89,9.6,13.01,12.87c2.95,1.36,5.81,2.13,8.55,2.47
		c4.73-2.96,10.17-7.17,12.47-11.93c2.24-4.64,2.45-8.08,2.1-10.35c-1.5,1.94-3.4,3.52-5.82,4.42c-3.4,1.26-6.33,1.23-8.72,0.31
		c-1.83,1.68-4.53,3.13-8.54,3.66C370.59,417.94,366.11,417.01,362.77,415.79z"/>
	<path class="st15" d="M399.92,216.21c-0.08,0.2-12.13,28.76-8.24,45.05c0,0-0.03,0.04-0.06,0.11c4.16,7.48,9.76,21.68,12.21,46.42
		c0-0.02,0-0.05,0-0.07c0,0,10.62-19.51,9.87-36.81c-0.47-9.23-1.44-19.87-3.4-29.23C407.88,230.03,403.82,221.83,399.92,216.21z"/>
	<path class="st14" d="M419.73,202.14c-7.05-23.12-14.45-34.25-19.06-39.38c3.64,5.33,5.5,10.31,4.28,19.65
		c-0.4,3.09-1.2,6.49-2.07,9.86c-4.49,17.34-2.94,23.93-2.94,23.93s0,0.01,0,0.01c3.89,5.62,7.96,13.82,10.38,25.46
		c1.95,9.36,2.92,20,3.4,29.23c0-0.1,0-0.2-0.01-0.29c0,0,12.66-18.4,11.01-39.75c0,0,0.01-0.03,0.04-0.09
		C424.27,222.01,422.83,212.31,419.73,202.14z"/>
	<path class="st15" d="M384.14,295.27c0.08,0.91,0.19,1.83,0.33,2.76c0,0-10.31,14.71-7.56,36.26c3.33,11.03,7.14,21.24,12.06,30.14
		c0-0.01,0-0.02,0-0.02c0,0,9.68-10.56,6.5-27.28c-2.47-5.91-5.37-13.45-7.31-20.53C385.93,308.24,384.76,300.54,384.14,295.27z"/>
	<path class="st14" d="M384.14,295.27c0.61,5.27,1.79,12.97,4.01,21.31c1.94,7.08,4.83,14.62,7.31,20.53
		c-0.01-0.03-0.01-0.07-0.02-0.1c0,0,9.68-15.26,8.4-29.23c-2.45-24.73-8.05-38.94-12.21-46.42
		C390.87,262.7,382.55,277.87,384.14,295.27z"/>
	<path class="st15" d="M424.74,230.76c0.84-2,16.79-40.63,0.29-65.73c-19.36-27.17-50.06-18.7-50.06-18.7s-9.72,2.13-9.94,11.12
		c-0.22,8.98,8.02,7.88,8.02,7.88s3.77-0.29,5.37-4.45c1.42-3.69,0.24-5.42-1.6-5.77c-2.88-0.45-3.26,2.92-3.26,2.92
		s0.29,2.96-2.41,2.34c-2.72-0.96-1.95-7.18,3.2-9.09c4.99-2.01,16.01-2.43,24.74,9.31c0.55,0.74,1.07,1.46,1.56,2.18
		c4.62,5.13,12.01,16.26,19.06,39.38C422.83,212.31,424.27,222.01,424.74,230.76z"/>
	<path class="st16" d="M400.38,197.06c0,0-3.9,7.9-0.88,11.87c15.18,15.63,20.43,54,17.17,59.69l-2.97,1.99
		c0,0-1.39-37.33-13.77-54.4c0,0-2.2-3.24-1.64-9.2C398.84,201.03,400.38,197.06,400.38,197.06z"/>
	<path class="st16" d="M384.47,298.03c0,0,1.94,21.79,10.97,38.98c0,0,2.07,0.63,3.62-3.24c-2.21-5.74-7.84-16.01-13.8-56.43
		C385.25,277.34,380.26,293.2,384.47,298.03z"/>
	<path class="st16" d="M376.96,334.72c0,0-1.87,1.03-3.3,3.35c-1.44,2.32-3.64,7.07-4.97,23.74c-1.33,16.67-8.06,35.23-8.06,35.23
		s-1.66,4.09-0.55,11.71c0,0,9.28,6.85,21.31,1.21c0,0-4.53-3.42-2.54-14.13c1.99-10.71,10.27-25.29,10.27-25.29
		s-9.76-5.81-14.25-17.78C370.57,341.28,376.96,334.72,376.96,334.72z"/>
	<path class="st16" d="M384.33,431.13c0,0,5.97-3.9,7.51-5.67c0,0,11.23,0.4,17.96-9.06c-0.97,3.05-2.11,6.03-3.62,8.83
		C406.18,425.23,395.56,433.85,384.33,431.13z"/>
	<path d="M386.17,145.08c10.71,0,26.94,3.21,38.86,19.95c16.93,25.77-0.33,65.82-0.33,65.82c0.86,20.91-11.01,39.75-11.01,39.75
		c0.88,17.37-9.87,37.1-9.87,37.1c1.33,13.99-8.39,29.3-8.39,29.3c3.24,16.79-6.48,27.39-6.48,27.39
		c2.06,9.87-9.42,22.97-11.48,32.83c-1.74,8.31,2.37,17.03,10.57,17.03c1.54,0,3.22-0.31,5.03-0.98
		c11.48-4.27,11.34-23.85,11.34-23.85c0.1-3.48,4.16-5.16,8.31-5.16c4.46,0,9.02,1.94,8.91,5.68c0.41,21.57-11.26,31.95-11.26,31.95
		s-9.45,9.45-22.66,9.45c-3.72,0-7.75-0.75-11.94-2.68c-19.07-8.76-14.72-28.71-14.72-28.71l9.5-36.59
		c-1.33-18.55,6.4-28.64,6.4-28.64c-2.94-21.79,7.51-36.7,7.51-36.7c-1.68-18.96,7.22-36.77,7.22-36.77
		c-3.9-16.34,8.25-45.06,8.25-45.06s-1.55-6.59,2.94-23.93c0.88-3.38,1.67-6.78,2.07-9.86c1.39-10.6-1.19-15.59-5.84-21.83
		c-6.02-8.09-13.12-10.4-18.59-10.4c-2.47,0-4.6,0.47-6.15,1.09c-5.15,1.91-5.93,8.13-3.2,9.09c0.26,0.06,0.49,0.09,0.7,0.09
		c1.96,0,1.72-2.42,1.72-2.42s0.34-2.96,2.75-2.96c0.16,0,0.33,0.01,0.51,0.04c1.84,0.35,3.02,2.08,1.6,5.77
		c-1.6,4.16-5.37,4.45-5.37,4.45s-0.32,0.04-0.83,0.04c-2.09,0-7.37-0.71-7.19-7.92c0.22-8.98,9.94-11.12,9.94-11.12
		S379.5,145.08,386.17,145.08 M386.17,142.08l0,3L386.17,142.08c-6.58,0-11.22,1.15-11.91,1.33c-4.17,0.94-12,5.04-12.22,13.96
		c-0.08,3.43,0.84,6.16,2.75,8.12c2.44,2.5,5.71,2.88,7.44,2.88c0.55,0,0.95-0.04,1.14-0.06c2.12-0.19,6.09-1.74,7.87-6.36
		c1.08-2.82,1.11-5.19,0.08-7.05c-0.38-0.68-0.89-1.26-1.5-1.71c0.23-0.01,0.47-0.02,0.71-0.02c4.26,0,10.53,1.59,16.18,9.19
		c4.03,5.42,6.57,9.71,5.27,19.65c-0.42,3.19-1.29,6.76-2,9.5c-3.72,14.37-3.45,21.72-3.13,24.31c-1.96,4.82-11.39,29.27-8.3,45.06
		c-1.84,4.01-8.32,19.51-7.14,36.36c-2.27,3.67-9.79,17.51-7.55,36.73c-2.01,3.17-7.33,13.17-6.31,29.1l-9.38,36.12l-0.01,0.06
		l-0.01,0.06c-0.05,0.23-1.21,5.7,0.21,12.33c1.33,6.22,5.21,14.7,16.19,19.74c4.26,1.96,8.7,2.95,13.19,2.95
		c13.88,0,23.79-9.36,24.72-10.27c1.11-1.02,12.59-12.1,12.2-34.12c0.04-1.96-0.69-3.76-2.1-5.21c-2.11-2.18-5.78-3.48-9.81-3.48
		c-6.52,0-11.17,3.32-11.31,8.07l0,0.06l0,0.06c0.03,4.86-1.61,18.13-9.38,21.02c-1.42,0.53-2.76,0.79-3.99,0.79
		c-2.26,0-4.13-0.89-5.56-2.65c-2.12-2.61-2.92-6.74-2.07-10.77c0.73-3.49,2.88-7.64,5.16-12.03c3.56-6.87,7.24-13.95,6.55-20.55
		c2.5-3.29,8.82-13.28,6.46-27.66c2.17-3.71,9.11-16.67,8.3-29.26c2.02-3.92,10.3-21.01,9.84-36.95c2.3-3.91,11.55-20.9,10.99-39.98
		c2.25-5.51,16.45-42.7-0.18-68.01l-0.03-0.05l-0.03-0.05C414.99,145.76,398.12,142.08,386.17,142.08L386.17,142.08z"/>
	<path class="st17" d="M428.06,208.17c0,0,5.6-24.29-4.56-41.08s-29.01-21.06-41.23-20.47c0,0,10.55,0.89,20.53,5.83
		c10.3,5.1,16.92,15.61,17.22,27.1C420.57,200.11,428.06,208.17,428.06,208.17z"/>
	<path class="st17" d="M382.82,306.16c0,0,1.61,16.52,9.26,30.12c0.22,0.4-0.29,0.8-0.62,0.49c-2-1.9-5.38-5.95-8.17-13.49
		c-0.52-1.42-2.51-1.43-3.04-0.02c-0.84,2.28-1.7,5.57-1.86,9.72C378.41,332.99,376.97,319.08,382.82,306.16z"/>
	<path class="st17" d="M381.45,420.29c5.36,1.3,13.9,1.93,15.18-6.68c0,0-4.31,4.2-11.71,1.99c0,0-1.15,1.31-3.63,2.3
		C380.15,418.36,380.26,420,381.45,420.29z"/>
	<path class="st17" d="M405.9,392.74c0,0-1.21-6.96,6.29-6.96c7.51,0,7.07,5.41,7.07,5.41s-1.55-3.64-6.96-3.64
		S405.9,392.74,405.9,392.74z"/>
	<path class="st18" d="M388.57,297.1c0,0,3.75,24.29,8.5,32.13c0,0,2.07,4.35,5.41-8.94c0,0-3.75,5.96-6.29,0.22
		C393.65,314.77,388.57,297.1,388.57,297.1z"/>
	<path class="st18" d="M408.78,224c0,0,6.16,10.29,8.53,35.61c0.09,0.94,1.37,1.14,1.72,0.27c1.42-3.5,3.47-9.12,4.1-13.68
		c0,0-2.98,8.39-6.52-5.85C413.74,230.52,408.78,224,408.78,224z"/>
	<path class="st18" d="M361.51,394.17c0,0-0.99,6.96-0.77,10.38c0,0,1.66,6.07,8.17,6.52s9.06-3.53,9.06-3.53s0.33-9.72,0.99-12.92
		C379.62,391.41,364.38,390.42,361.51,394.17z"/>
	<path class="st18" d="M391.84,425.46c0,0,10.71,0.37,17.96-9.06c0,0-2.25,8.47-9.86,10.79
		C392.32,429.51,391.84,425.46,391.84,425.46z"/>
	<path class="st19" d="M376.96,334.72c0,0,6.09,19.8,11.83,29.08c0,0,4.97-3.42,6.85-14.02c0,0-2.65,7.95-5.74,8.72
		C386.8,359.28,376.96,334.72,376.96,334.72z"/>
	<path class="st19" d="M391.68,261.25c0,0,9.41,13.77,12.15,46.45c0,0,6.16-13.25,7.7-19.88c0,0-5.63,17.34-7.84,2.32
		C400.93,271.49,391.68,261.25,391.68,261.25z"/>
	<path class="st17" d="M411.2,272.04c0,0,0.34,5.36-1.37,13.01c-0.31,1.39-2.37,1.07-2.23-0.35c0.46-4.67,0.68-10.17,0.18-15.86
		c-1.06-12.22-5.39-25.5-7.06-30.28c-0.28-0.81-1.36-0.95-1.84-0.23c-1.49,2.25-4,6.73-5.12,12.74c0,0-0.11-14.25,6.85-28.93
		C400.6,222.12,409.33,240.57,411.2,272.04z"/>
	<path class="st19" d="M400.67,162.75c0,0,18.65,21.05,24.03,68.09c0,0,6.27-17.34,7.15-27.39c0,0-1.88,11.37-5.3,10.49
		C423.13,213.07,420.04,181.49,400.67,162.75z"/>
	<path class="st17" d="M368.8,155.83c0,0-2.06,5.37,1.91,6.99s7.8-2.72,6.4-5.45c-0.74-1.8-3.09-0.77-2.58,1.69
		c0,0-0.15,2.65-3.09,2.5C369.79,161.31,368.43,160.25,368.8,155.83z"/>
	<path class="st6" d="M405.79,152.22c0,0,11.71,6.52,14.13,14.69s4.86,9.06,5.41,12.15s0.88,11.37,2.98,17.01
		C428.32,196.06,428.98,161.39,405.79,152.22z"/>
	<path class="st6" d="M409.55,183.58c0,0,6.96,16.12,10.38,31.03s3.31,19.77,3.31,19.77s-6.4-12.81-4.75-20.98
		c0-0.44,0.44-7.18-2.98-9.06C412.09,202.47,406.79,192.53,409.55,183.58z"/>
	<path class="st6" d="M391.99,267.73c0,0,4.75,5.85,8.83,32.02c0,0-3.2-3.64-3.98-9.94c-0.77-6.29-2.32-16.23-3.98-15.13
		c-1.66,1.1-4.97,4.53-4.97,4.53S389.01,272.59,391.99,267.73z"/>
	<path class="st6" d="M400.16,410.18c0,0,0.33,3.53,2.76,1.1s5.74-9.17,2.65-13.8C405.57,397.49,405.35,407.31,400.16,410.18z"/>
	<g>
		<g>
			<path class="st0" d="M340.68,366.68c0.18-0.22,8.61,26.06,33.2,5.23"/>
			<path d="M340.68,366.68c1.29,1.33,2.4,2.66,3.66,3.8c0.84,1.4,1.84,2.68,2.96,3.82c6.19,6.62,15.03,4.28,21.63-0.48
				c1.63-0.57,3.25-1.26,4.96-1.92c-0.93,1.57-2.05,3-3.26,4.39c-5.86,4.16-14.01,7.15-20.93,3.47c-3.37-1.71-5.94-4.57-7.93-7.69
				C341.17,370.3,340.81,368.48,340.68,366.68L340.68,366.68z"/>
		</g>
		<g>
			<path class="st0" d="M358.49,392.37c0,0,0.15,7.59,8.88,12.19c2.66,1.4,5.63,2.2,8.63,2.14c11.02-0.21,10.39-10.95,10.39-10.95
				l-2.06-4.71C384.33,391.04,371.16,398.7,358.49,392.37z"/>
			<path d="M375.71,408.21c-3.03,0-6.14-0.8-9.03-2.32c-9.4-4.95-9.68-13.14-9.68-13.49l-0.05-2.48l2.22,1.11
				c11.76,5.88,24.29-1.21,24.42-1.28l1.45-0.84l2.84,6.49l0.02,0.27c0.01,0.22,0.28,5.37-3.12,9.04c-2.08,2.25-5.02,3.42-8.74,3.49
				C375.93,408.21,375.82,408.21,375.71,408.21z M360.52,394.87c0.78,2.34,2.73,5.82,7.56,8.37c2.54,1.34,5.29,2.02,7.9,1.97
				c2.86-0.06,5.08-0.9,6.58-2.52c2.17-2.33,2.34-5.68,2.34-6.61l-1.3-2.98C380,394.81,370.45,398.46,360.52,394.87z"/>
		</g>
		<g>
			<path class="st0" d="M359.97,385.37c0,0,1.77,9.5,16.79,14.87c14.8,5.29,14.08-7.45,14.08-7.45s8.15-4.77,4.4-14.71
				C396.54,378.87,372.43,383.44,359.97,385.37z"/>
			<path d="M383.1,403.03c-2.01,0-4.29-0.46-6.86-1.38c-15.65-5.6-17.68-15.59-17.75-16.01l-0.28-1.52l1.53-0.24
				c11.5-1.79,29.01-5.14,33.63-6.51l-1.05-2.79l4.59,2.74l-0.09,0.7c3.06,8.81-2.42,13.97-4.48,15.54
				c-0.08,1.71-0.6,5.51-3.62,7.77C387.2,402.47,385.32,403.03,383.1,403.03z M361.94,386.58c1.15,2.71,4.75,8.47,15.32,12.25
				c4.38,1.57,7.63,1.61,9.64,0.12c2.61-1.94,2.44-6.04,2.44-6.08l-0.04-0.91l0.79-0.46c0.26-0.16,6.16-3.78,4.26-11.28
				c-1.92,0.6-5.43,1.4-11.96,2.69C375.93,384.18,367.97,385.61,361.94,386.58z"/>
		</g>
		<g>
			<path class="st0" d="M362.1,380.74c0,0,23.85-8.39,31.21-19.88c0,0,11.04,8.83,1.33,18.99
				C387.06,383.77,376.84,384.76,362.1,380.74z"/>
			<path d="M379.14,384.82c-5.23,0-11.02-0.88-17.44-2.63l-4.63-1.27l4.53-1.6c0.23-0.08,23.45-8.36,30.45-19.27l0.9-1.4l1.3,1.04
				c0.22,0.18,5.45,4.43,5.86,10.66c0.25,3.69-1.23,7.24-4.39,10.54l-0.17,0.18l-0.22,0.11
				C390.64,383.61,385.28,384.82,379.14,384.82z M367.07,380.41c10.9,2.34,19.66,1.76,26.65-1.78c2.43-2.61,3.57-5.32,3.4-8.07
				c-0.21-3.29-2.25-5.99-3.59-7.42C387.32,371.23,374.05,377.51,367.07,380.41z"/>
		</g>
		<g>
			<path class="st0" d="M343.18,361.52c0.36-0.12,14.42-10.06,25.29-7.3c3.48,0.88,6.34,3.38,7.9,6.62
				c4.94,10.26,10.13,12.45,22.54,18.28c0,0-26.13,12.59-36.88-10.82"/>
			<path d="M343.18,361.52c4.43-3.55,9.23-7.15,14.91-8.44c4.27-1.05,9.3-1.36,13.42,0.69c1.42,0.72,2.69,1.69,3.76,2.84
				c2.09,2.14,2.95,4.98,4.55,7.4c4.29,7.25,12.45,10.24,19.73,13.75c0,0,2.93,1.38,2.93,1.38s-2.91,1.33-2.91,1.33
				c-8.57,3.71-18.85,5.23-27.51,0.93c-5.12-2.47-8.36-8-10.03-13.1c5.57,9.23,15.64,14.23,26.31,12.34c3.4-0.51,6.86-1.5,9.92-2.87
				l0.01,2.71c-7.7-3.64-16.45-7.12-20.99-14.86c-1.53-2.24-2.34-5-4.21-6.95c-3.38-3.83-9.15-3.95-14.28-2.67
				C353.53,357.42,348.17,359.04,343.18,361.52L343.18,361.52z"/>
		</g>
		<path class="st1" d="M342.41,361.65c0,0,25.36-13.09,31.77,1.2c2.58,6.18,7.73,12.29,17.15,15.02c0,0-20.32,4.93-30.63-13.4
			c0,0,0.81,11.26-6.63,10.45C349.67,374.44,329.71,358.72,342.41,361.65z"/>
		<path class="st1" d="M368.8,386.72c-0.17-0.04,3.2,3.26,12.26,4.14c10.16,0.28,10.93-7.4,10.93-7.4S381.89,384.07,368.8,386.72z"
			/>
		<path class="st1" d="M389.23,369.16c0,0,2.82-1.77,4.25-3.81c0,0,3.48,3.59,1.71,8.5L389.23,369.16z"/>
		<path class="st1" d="M369.18,392.7c0,0,13.38,6.03,18.78,1.81c0,0-0.63,5.57-7.07,4.41C372,397.32,369.18,392.7,369.18,392.7z"/>
		<path class="st1" d="M362.28,396.38c0.22,2.82,9.5,10.6,18.33,7.12c0,0-7.12-0.06-13.53-5.63
			C367.09,397.87,364.93,397.26,362.28,396.38z"/>
		<path d="M382.21,394.91c-10.92,0-21.64-7.79-22.19-8.19l1.78-2.42c0.15,0.11,15.54,11.28,26.9,6.34c5-3.13,4.53-8.07,4.51-8.28
			l2.98-0.34c0.03,0.29,0.75,7.07-6,11.23l-0.18,0.09C387.49,394.45,384.84,394.91,382.21,394.91z"/>
	</g>
</g>
<g id="tail">
</g>
<g id="accessory">
</g>
<g id="right-wing">
</g>
<g id="eyes">
</g>
<g id="beak">
</g>
<g id="on-head">
</g>
<g id="eyebrows">
</g>
</svg>
