<svg version="1.1" xmlns="http://www.w3.org/2000/svg" xmlns:xlink="http://www.w3.org/1999/xlink" x="0px" y="0px"
	 viewBox="0 0 510.24 595.28" style="enable-background:new 0 0 510.24 595.28;" xml:space="preserve">
<style type="text/css">
	.lambst0{fill:#728033;stroke:#000000;stroke-width:3.3777;stroke-miterlimit:10;}
	.lambst1{fill:#728033;}
	.lambst2{fill:#4C4530;}
	.lambst3{fill:#332E20;}
	.lambst4{fill:#769299;}
	.lambst5{fill:#AF8F51;}
	.lambst6{fill:#A6D8E0;}
	.lambst7{fill:none;stroke:#000000;stroke-width:3;stroke-miterlimit:10;}
	.lambst8{fill:#EFBD65;}
	.lambst9{fill:#B2B6B7;}
	.lambst10{fill:#A80000;}
	.lambst11{fill:#DA211E;}
	.lambst12{fill:#E0E0E0;}
	.lambst13{fill:#FFFFFF;}
	.lambst14{fill:#F18A0E;stroke:#000000;stroke-width:3.0752;stroke-miterlimit:10;}
	.lambst15{fill:none;}
	.lambst16{fill:#F06BAC;}
	.lambst17{fill:#FF92CB;}
	.lambst18{fill:#FFB255;}
	.lambst19{fill:#0028FF;}
	.lambst20{fill:#8628FF;}
	.lambst21{fill:#D34690;}
	.lambst22{fill:#912D66;}
	.lambst23{fill:#F9D2E8;}
	.lambst24{fill:#FF43A6;}
	.lambst25{fill:#007BFF;}
	.lambst26{fill:none;stroke:#000000;stroke-width:2.2205;stroke-miterlimit:10;}
	.lambst27{opacity:0.54;fill:#3C459E;}
	.lambst28{opacity:0.31;fill:#FFDC00;}
	.lambst29{opacity:0.25;fill:#FFFFFF;}
	.lambst30{opacity:0.16;fill:#FFDC00;}
	.lambst31{opacity:0.58;fill:#3E4056;}
	.lambst32{fill:#F18A0E;stroke:#000000;stroke-width:3.2054;stroke-miterlimit:10;}
	.lambst33{fill:#F7A800;}
	.lambst34{fill:none;stroke:#000000;stroke-width:3.2054;stroke-miterlimit:10;}
	.lambst35{opacity:0.63;fill:#3E4056;}
	.lambst36{fill:#685F3C;}
	.lambst37{fill:#99B541;}
	.lambst38{fill:#877846;}
	.lambst39{fill:#F7A800;stroke:#000000;stroke-width:3;stroke-miterlimit:10;}
	.lambst40{fill:#F18A0E;}
	.lambst41{fill:#1D1D1D;}
	.lambst42{fill:#FFD346;}
	.lambst43{fill:#BCD362;}
	.lambst44{fill:none;stroke:#000000;stroke-width:3.3338;stroke-miterlimit:10;}
	.lambst45{opacity:0.53;fill:none;stroke:#3A3426;stroke-miterlimit:10;}
	.lambst46{opacity:0.53;fill:none;stroke:#3A3426;stroke-width:0.5;stroke-miterlimit:10;}
	.lambst47{fill:#9E7841;}
	.lambst48{fill:#E2B564;}
	.lambst49{fill:#47862B;}
	.lambst50{fill:#5BC125;}
	.lambst51{fill:#C5CCD3;}
	.lambst52{fill:#335122;}
	.lambst53{fill:#838B91;}
	.lambst54{fill:#F18A0E;stroke:#000000;stroke-width:3;stroke-miterlimit:10;}
	.lambst55{fill:#728033;stroke:#000000;stroke-width:3;stroke-miterlimit:10;}
	.lambst56{fill:#4B632C;}
	.lambst57{fill:#FFFFFF;stroke:#000000;stroke-width:3;stroke-miterlimit:10;}
	.lambst58{fill:#606D72;}
	.lambst59{fill:#FFFFFF;stroke:#1D1D1B;stroke-width:4;stroke-miterlimit:10;}
	.lambst60{fill:#3F4147;}
	.lambst61{fill:#ED7601;}
	.lambst62{fill:#D64422;}
	.lambst63{fill:#FF871A;}
	.lambst64{fill:#FFA255;}
	.lambst65{fill:#FFDB8A;}
	.lambst66{fill:#C7D0D1;}
	.lambst67{fill:#98B1B7;}
	.lambst68{fill:#E4F8F9;}
	.lambst69{fill:#A5766A;}
	.lambst70{fill:#D8AEA0;}
	.lambst71{fill:#5F682A;}
	.lambst72{fill:#45491D;}
	.lambst73{fill:#E2D8CF;}
	.lambst74{fill:#DCC4A8;}
	.lambst75{fill:#C99D75;}
	.lambst76{fill:#AD9884;}
	.lambst77{fill:#846E5D;}
	.lambst78{fill:#5D3D32;}
	.lambst79{fill:#DADCE8;}
	.lambst80{fill:#C1A595;}
	.lambst81{fill:#AD867D;}
	.lambst82{fill:#C6BEB1;}
	.lambst83{fill:#3F3C36;}
	.lambst84{fill:#EFEEEA;}
	.lambst85{fill:#E2DBD1;}
	.lambst86{fill:#63615C;}
	.lambst87{fill:#EFEAE4;}
	.lambst88{fill:#616163;}
	.lambst89{fill:#EAEAEA;}
	.lambst90{fill:#5F5F66;}
	.lambst91{opacity:0.7;fill:#FFFFFF;}
	.lambst92{fill:#7F685C;}
	.lambst93{fill:#DDB6B6;}
	.lambst94{fill:#FFDEDE;}
	.lambst95{fill:#996666;}
	.lambst96{fill:#8E725E;}
	.lambst97{fill:#917171;}
	.lambst98{fill:#45474C;}
	.lambst99{fill:#42383E;}
	.lambst100{opacity:0.23;fill:#FF9570;}
	.lambst101{fill:#CAA684;}
	.lambst102{fill:#AF6C68;}
	.lambst103{fill:#C69391;}
	.lambst104{fill:#E2AD81;}
	.lambst105{fill:#AA8363;}
	.lambst106{fill:none;stroke:#000000;stroke-width:4.3565;stroke-miterlimit:10;}
</style>
<g id="left-wing_1_">
</g>
<g id="tail">
</g>
<g id="body">
</g>
<g id="head">
</g>
<g id="accessory">
</g>
<g id="right-wing">
</g>
<g id="eyes">
</g>
<g id="beak">
</g>
<g id="on-head">
</g>
<g id="eyebrows">
</g>
<g id="PET">
	<path class="lambst79" d="M361.69,336.86c0,0-13.84-13.1-18.85-17.82c-5.01-4.71-10.6,16.05-1.91,23.26
		c8.69,7.21,20.76,3.39,20.76,3.39S364.04,339.51,361.69,336.86z"/>
	<path class="lambst80" d="M358.59,342.16c0,0-14.72-20.47-17.37-20.91c-2.65-0.44-5.6,11.34-0.44,18.7c5.15,7.36,18.7,5.89,18.7,5.89
		L358.59,342.16z"/>
	<path class="lambst81" d="M338.42,325.52c0,0,11.26,2.65,18.26,17.01l-0.74,1.33c0,0-12.96-0.37-15.83-9.13
		c-2.87-8.76,13.1,4.42,13.1,4.42s-3.83-7.29-15.02-9.72C338.2,329.42,337.76,327.29,338.42,325.52z"/>
	<path class="lambst82" d="M456.66,397.96c0,0,8.49,8.98,11.48,12.66c3.44,4.23,5.09,6.56,11.58,8.27c1.12,0.3,1.48,1.72,0.61,2.49
		c-3.27,2.89-11,7.26-23.38-0.16C440.02,411.07,456.66,397.96,456.66,397.96z"/>
	<path class="lambst83" d="M379.65,490.54L377.59,501c0,0-1.1,3.05,1.84,3.85s8.17-1.45,9.79-4.14s1.99-11.47,1.99-11.47
		S380.97,487.21,379.65,490.54z"/>
	<path class="lambst83" d="M404.72,493.72l-1.63,10.68c0,0-0.98,3.13,2,3.82c2.98,0.69,8.65-0.85,10.33-4.99
		c1.2-2.93,0.79-11.31,0.79-11.31S405.91,490.28,404.72,493.72z"/>
	<path class="lambst83" d="M432.25,489.37l-1.63,10.68c0,0-0.98,3.13,2,3.82s8.65-0.85,10.33-4.99c1.2-2.93,0.79-11.31,0.79-11.31
		S433.44,485.94,432.25,489.37z"/>
	<path class="lambst83" d="M460.83,494.74l-0.15,10.8c0,0-0.54,3.24,2.5,3.51c3.04,0.28,8.45-2.03,9.55-6.36
		c0.79-3.07-0.76-11.31-0.76-11.31S461.53,491.17,460.83,494.74z"/>
	<path class="lambst82" d="M446.64,423.44c0,0-14.58,19.29,1.77,35.93c0,0-2.86,22.6-3.08,33.4c-0.07,3.29-2.6,6.09-5.88,6.31
		c-1.31,0.09-2.91-0.01-4.87-0.4c-10.45-2.06,4.56-25.62,1.18-33.57c-3.39-7.95-19.44-11.93-16.64-31.36S446.35,411.8,446.64,423.44
		z"/>
	<path class="lambst82" d="M369.78,416.81c0,0,10.01,29.18,10.01,47.91s-2.5,27.29-2.5,27.29s-1.1,5.13,4.64,5.86
		c7.36,1.02,10.67-2.81,10.97-8.18c0.29-5.37-3.09-12.92,1.62-25.84c0,0-5.01-5.66-2.65-14.95c2.28-8.98,0.44-19.31-3.83-24.68
		C383.77,418.84,369.78,416.81,369.78,416.81z"/>
	<path class="lambst84" d="M407.33,386.77c0,0,16.05,0.59,34.75-3.24c0,0,15.31,10.16,22.38,20.61c0,0-8.54,31.8,7.66,49.03
		c0,0-2.06,14.43,1.91,37.1c0,0,3.24,12.96-6.63,12.66c-11.48-0.15-11.48-7.21-8.83-46.67c0,0-16.79-19.44-13.4-33.42
		S401.74,402.23,407.33,386.77z"/>
	<path class="lambst85" d="M443.7,390.31c0,0,7.07,9.57,6.63,23.56c-0.44,13.99-7.21,25.62-34.45,26.65s-52.12-24.29-51.09-27.68
		s14.58-27.09,15.75-33.28c1.18-6.18,18.99,6.04,31.95,7.51C425.44,388.54,440.61,384.27,443.7,390.31z"/>
	<path class="lambst84" d="M404.39,427.71c7.98-3.26,14.17-7.8,19.14-13.21c0,0,8.1,10.42,2.5,25.73c-5.6,15.31-4.86,27.24-4.86,27.24
		s-5.3,10.38-2.36,24.37c0,0,2.43,9.72-10.45,8.47c-13.77-1.62,3.53-26.06-2.94-35.48C405.42,464.81,414.69,435.22,404.39,427.71z"
		/>
	<path class="lambst86" d="M379.43,504.84l1.31-6.59c0,0,1.27,0.5,3.2,0.33l-0.06,5.85C383.88,504.44,381.32,505.31,379.43,504.84z"/>
	<path class="lambst86" d="M404.75,508.03l1.16-7.56c0,0,0.88,0.77,4.53,0.72l0.33,6.07C410.77,507.25,408.34,508.96,404.75,508.03z"/>
	<path class="lambst86" d="M433.24,498.8l-0.94,4.86c0,0,1.66,0.99,5.85-0.5l-0.22-3.37C437.94,499.8,435.62,499.8,433.24,498.8z"/>
	<path class="lambst86" d="M463.18,509.05l0.05-5.67c0,0,1.21,0.61,4.91,0.39l0.66,3.64C468.8,507.42,466.49,509.25,463.18,509.05z"/>
	<path class="lambst87" d="M426.62,387.22c0,0-14.58,0.44-18.99-6.77s-14.28-37.55-14.28-37.55l-39.02,36.52c0,0,17.23,2.94,18.55,11.48
		c1.33,8.54-3.98,34.6,15.17,39.46c0,0,10.01-9.28,13.25-30.48C401.29,399.88,410.72,390.16,426.62,387.22z"/>
	<path class="lambst85" d="M391.72,336.42c0,0,9.57,29.6-3.39,46.67c0,0-12.81,0.15-24.29,2.94s-20.47,2.5-20.76-8.54
		c-0.29-11.04,11.34-25.77,9.87-35.48c0,0,6.77-9.87,17.23-12.52C380.83,326.85,391.72,336.42,391.72,336.42z"/>
	<path class="lambst85" d="M386.86,336.57c0,0,18.26-20.76,28.71-21.64c6.04-0.44,5.3,18.26-3.68,24.15c-8.98,5.89-18.26,5.6-24.88,3.39
		S386.86,336.57,386.86,336.57z"/>
	<path class="lambst80" d="M389.96,338.48c0,0,20.91-22.97,26.8-21.2c2.06,3.53,1.33,16.64-7.66,21.94
		C405.12,341.28,392.61,345.84,389.96,338.48z"/>
	<path class="lambst84" d="M345.34,371.02c0,0,1.47,3.83,10.75,0.74c9.28-3.09,14.13-10.45,13.55-12.07s0-14.72,14.13-16.64
		c0,0-2.36-10.01-14.28-8.98c-11.93,1.03-14.58,8.69-14.58,8.69s0.15,5.3-1.91,10.16C350.94,357.77,346.82,366.16,345.34,371.02z"/>
	<path class="lambst84" d="M352.41,378.23c0,0,0.07,4.64,6.63,4.05c5.01-0.59,17.08-6.7,26.36-3.61c0,0,6.18-5.45,6.92-18.7
		c0,0-5.6,6.77-16.49,5.01c0,0-1.91,3.68,1.77,5.45c0,0-4.42,0.15-7.07-1.91C370.52,368.52,365.96,375.58,352.41,378.23z"/>
	<path class="lambst84" d="M393.93,426.97c0,0,5.15-2.65,10.16-25.77c0,0,15.02-15.17,36.81-11.04c0.88,0.29,10.45,17.82,4.71,30.63
		s-13.69,8.25-13.69,8.25s-1.33-12.07-8.25-18.26C423.67,410.77,410.57,434.77,393.93,426.97z"/>
	<path class="lambst84" d="M387.75,426.68c0,0-15.31-4.12-11.78-33.57c0,0,7.66-3.09,17.08-2.5c0,0,4.71-9.13,4.56-16.49
		c0,0,3.98,13.1,10.31,15.46c0,0-8.1,4.86-10.6,7.95C397.32,397.52,397.47,417.1,387.75,426.68z"/>
	<path class="lambst87" d="M378.77,492.93c0,0,6.77-24.88-2.5-60.52c0,0,4.12,5.6,13.69,6.18c0,0,0.15,5.89-1.62,12.52
		c-1.77,6.63,2.65,13.25,2.65,13.25s-2.8,7.21-1.62,13.4s4.56,15.46-3.83,17.82C378.77,497.2,378.77,492.93,378.77,492.93z"/>
	<path class="lambst82" d="M371.4,364.25c0,0,1.62-1.77,1.47-5.3s0.88-8.83,7.51-10.6s10.45,1.18,12.52,4.27c0,0,0.74,6.18-6.33,9.87
		C379.5,366.16,375.97,362.04,371.4,364.25z"/>
	<path class="lambst88" d="M374.16,361.26c0,0-0.99-9.72,5.08-11.6c6.07-1.88,10.71,1.21,11.93,3.09c0,0,0.55,6.4-6.18,9.17
		C378.25,364.69,374.16,361.26,374.16,361.26z"/>
	
		<ellipse transform="matrix(0.8944 -0.4473 0.4473 0.8944 -118.9196 208.529)" class="lambst89" cx="382.08" cy="356.07" rx="7.29" ry="5.37"/>
	<path class="lambst90" d="M384.85,352.5c-2.71-0.16-5.39,1.09-6.98,3.29c-0.67,0.93-1.07,1.95-0.66,2.86c0.52,1.15,2.05,1.24,3.5,1.02
		c2.13-0.33,4.15-1.29,5.62-2.87c0.83-0.9,1.46-1.98,1.04-3.01C387.02,352.9,385.99,352.57,384.85,352.5z"/>
	<path d="M379.55,358.92c-0.85,0-1.37-0.21-1.56-0.62c-0.23-0.5-0.03-1.17,0.57-2.01c1.33-1.85,3.5-2.95,5.81-2.95
		c0.14,0,0.28,0,0.43,0.01c0.69,0.04,1.56,0.21,1.79,0.76c0.28,0.68-0.32,1.52-0.87,2.12c-1.27,1.37-3.09,2.29-5.13,2.61
		C380.21,358.89,379.86,358.92,379.55,358.92L379.55,358.92z"/>
	<circle class="lambst91" cx="378.95" cy="355.3" r="1.73"/>
	<path class="lambst13" d="M354.2,349.07c0.2-2.33,0.75-6.75,2.18-8.45l2.06,7.51c0,0,0.59-7.8,4.86-11.56c0,0-0.44,6.33,0.52,10.31
		c0,0,1.4-5.89,6.92-10.09c0,0-1.62,6.33-1.84,9.5c0,0,3.02-4.71,7.73-6.26c0,0-2.94,5.01-3.46,8.1c0,0-4.2,3.68-4.34,9.87
		l-1.47-1.62l-2.8,1.47l-1.99-2.13l-2.8,1.84l-1.69-1.99l-2.87,1.77l-1.18-2.8l-2.8,2.43l2.2-4.9
		C353.86,351.11,354.11,350.1,354.2,349.07z"/>
	<path class="lambst13" d="M405.27,404.96c0,0,6.33,3.17,3.31,9.72c0,0,5.52-3.68,2.13-9.06l-0.96,1.33
		C409.76,406.95,407.99,405.03,405.27,404.96z"/>
	<path class="lambst13" d="M411.82,398.7c0,0,6.33,3.17,3.31,9.72c0,0,5.52-3.68,2.13-9.06l-0.96,1.33
		C416.31,400.69,414.55,398.77,411.82,398.7z"/>
	<path class="lambst13" d="M454.45,401.28c0,0,6.33,3.17,3.31,9.72c0,0,5.52-3.68,2.13-9.06l-0.96,1.33
		C458.94,403.26,457.17,401.35,454.45,401.28z"/>
	<path class="lambst13" d="M452.31,412.69c0,0,6.33,3.17,3.31,9.72c0,0,5.52-3.68,2.13-9.06l-0.96,1.33
		C456.8,414.68,455.04,412.76,452.31,412.69z"/>
	<path class="lambst13" d="M407.85,419.31c0,0,6.33,3.17,3.31,9.72c0,0,5.52-3.68,2.13-9.06l-0.96,1.33
		C412.34,421.3,410.57,419.39,407.85,419.31z"/>
	<path class="lambst13" d="M398.57,415.12c0,0,6.33,3.17,3.31,9.72c0,0,5.52-3.68,2.13-9.06l-0.96,1.33
		C403.06,417.1,401.29,415.19,398.57,415.12z"/>
	<path class="lambst13" d="M429.49,415.56c0,0,6.33,3.17,3.31,9.72c0,0,5.52-3.68,2.13-9.06l-0.96,1.33
		C433.98,417.55,432.21,415.63,429.49,415.56z"/>
	<path class="lambst13" d="M437.29,417.18c0,0,6.33,3.17,3.31,9.72c0,0,5.52-3.68,2.13-9.06l-0.96,1.33
		C441.78,419.17,440.02,417.25,437.29,417.18z"/>
	<path class="lambst13" d="M439.65,403.85c0,0,6.33,3.17,3.31,9.72c0,0,5.52-3.68,2.13-9.06l-0.96,1.33
		C444.14,405.84,442.37,403.93,439.65,403.85z"/>
	<path class="lambst13" d="M432.95,405.99c0,0,6.33,3.17,3.31,9.72c0,0,5.52-3.68,2.13-9.06l-0.96,1.33
		C437.44,407.98,435.67,406.06,432.95,405.99z"/>
	<path class="lambst13" d="M423.31,403.71c0,0,6.33,3.17,3.31,9.72c0,0,5.52-3.68,2.13-9.06l-0.96,1.33
		C427.8,405.69,426.03,403.78,423.31,403.71z"/>
	<path class="lambst13" d="M426.99,394.21c0,0,6.33,3.17,3.31,9.72c0,0,5.52-3.68,2.13-9.06l-0.96,1.33
		C431.48,396.2,429.71,394.28,426.99,394.21z"/>
	<path class="lambst13" d="M436.63,394.99c0,0,4.48,2.24,2.34,6.88c0,0,3.91-2.6,1.51-6.41l-0.68,0.94
		C439.81,396.4,438.56,395.04,436.63,394.99z"/>
	<path class="lambst13" d="M414.55,410.38c0,0,4.48,2.24,2.34,6.88c0,0,3.91-2.6,1.51-6.41l-0.68,0.94
		C417.72,411.78,416.47,410.43,414.55,410.38z"/>
	<path class="lambst13" d="M447.97,393.37c0,0,4.48,2.24,2.34,6.88c0,0,3.91-2.6,1.51-6.41l-0.68,0.94
		C451.15,394.78,449.9,393.42,447.97,393.37z"/>
	<path class="lambst13" d="M419.99,394.33c0,0,4.48,2.24,2.34,6.88c0,0,3.91-2.6,1.51-6.41l-0.68,0.94
		C423.17,395.73,421.92,394.38,419.99,394.33z"/>
	<path class="lambst13" d="M411.09,434.48c0,0,1.18,13.03-2.94,28.05c0,0,1.77,4.27,1.18,8.02s-4.27,15.17-5.15,23.12
		c0,0,1.91-1.69,1.91-1.47c0,0.22,1.03,4.42,1.03,4.42l2.13-3.61l1.25,3.75l1.1-3.46l2.87,3.09l-0.15-3.53l2.13,1.33
		c0,0-2.36-19.07-0.74-23.85s2.58-6.63,2.58-6.63s-2.43-2.43-0.15-8.39c2.28-5.96,7.21-22.01,5.08-30.7l-1.69,6.18l-2.36-3.98
		l-1.33,5.74l-2.65-2.8l-0.81,5.37l-2.43-3.31L411.09,434.48z"/>
	<path class="lambst13" d="M375.89,395.31l-0.52,6.26l2.28-0.37l-1.55,7.95l2.5-1.03l-0.07,6.85l2.21-0.66l0.96,5.74l2.13-0.88
		c0,0,0.07,5.37,4.64,5.3c4.56-0.07,6.85-22.6,6.85-22.6s-6.99-0.59-9.13-9.13C386.2,392.74,380.46,393.25,375.89,395.31z"/>
	<path class="lambst13" d="M404.09,401.2c0,0,15.02-15.83,37.18-11.04c0,0,4.2,5.52,5.23,13.4c0,0-2.87-9.42-9.64-11.19
		S412.93,394.28,404.09,401.2z"/>
	<path class="lambst13" d="M417.56,388.32c0,0-7.73-0.37-11.19-5.52c-3.46-5.15-9.13-23.85-9.13-23.85s5.3,26.28,7.8,27.9
		c2.5,1.62,8.61,3.53,8.61,3.53L417.56,388.32z"/>
	<path class="lambst87" d="M425.96,452.88c0,0,7.95,0.74,12.81-9.79c0,0-0.74,8.39,7.21,16.79c0,0-1.4,2.28-1.1,11.41
		c0.29,9.13-3.75,25.03-3.75,25.03l-1.4-2.43l-2.36,2.5l-1.18-3.02l-2.8,1.99l-0.96-3.02c0.07-8.1,6.7-19.95,4.86-27.31
		C435.97,461.06,432.21,459.29,425.96,452.88z"/>
	<path class="lambst80" d="M361.47,369.47c0,0-1.99,6.99-12.37,8.32c0,0-5.6-1.1-3.39-8.76c0,0,0.66,3.31,4.42,3.39
		C353.88,372.49,361.47,369.47,361.47,369.47z"/>
	<path class="lambst80" d="M364.26,380.81c0,0-6.48,4.86-11.41,2.5c-3.53-1.77-1.99-6.92-1.99-6.92l-2.65-0.22c0,0,0.88,6.18-0.52,6.7
		c-1.4,0.52-3.24-3.75-3.24-3.75s1.55,4.86,3.24,5.08c1.69,0.22,1.84-2.13,1.84-2.13S353.29,389.94,364.26,380.81z"/>
	<path class="lambst92" d="M350.64,377.64c0,0,1.55-3.46,4.49-4.12c2.94-0.66,3.24,0.15,3.24,0.15S356.31,376.69,350.64,377.64z"/>
	<path class="lambst92" d="M345.27,373.6c0,0,2.94,0.88,3.17,4.12C348.43,377.72,345.64,376.76,345.27,373.6z"/>
	<path class="lambst93" d="M346.01,371.61c0,0,1.4,2.36,5.45,1.62c4.05-0.74,8.02-2.36,8.02-2.36l-1.03,2.06c0,0-3.9-1.4-7.88,3.61
		C350.57,376.54,346.74,375.07,346.01,371.61z"/>
	<path class="lambst94" d="M349.76,373.45c0,0,2.72,1.03,5.96-1.25C355.72,372.2,352.04,372.49,349.76,373.45z"/>
	<path class="lambst92" d="M348.58,383.9c0,0,0.85-0.11,1.03-2.43c0,0,0.11,2.28,3.2,3.35C353.11,384.9,349.21,385.26,348.58,383.9z"/>
	<path class="lambst13" d="M354.62,378.9c0,0,1.84,3.98,10.16,0.59c8.32-3.39,14.94-2.87,14.94-2.87l-5.23-1.4l3.83-1.47
		c0,0-4.86,0.52-8.91-1.91C369.42,371.83,362.5,377.94,354.62,378.9z"/>
	<path class="lambst13" d="M377.44,366.6c0,0,7.88,1.18,12.88-3.31c0,0-0.44,4.64-6.48,5.82C378.91,369.99,377.44,366.6,377.44,366.6z"
		/>
	<path class="lambst81" d="M391.21,338.92c0,0,10.45-14.28,26.21-17.45c0,0,0,1.84-0.15,3.53c0,0-9.94-0.29-18.63,8.47
		c0,0,12.44-4.93,13.1-2.21C412.41,333.99,395.48,344.22,391.21,338.92z"/>
	<g>
		<path d="M415.78,314.91c5.81,0,4.99,18.33-3.89,24.15c-5.39,3.54-10.89,4.84-15.86,4.84c-0.81,0-1.61-0.03-2.39-0.1
			c1.67,5.07,10.02,30.16,13.98,36.64c2.2,3.6,6.94,5.29,11.13,6.09c6.24-0.36,14.48-1.19,23.32-3c0,0,15.31,10.16,22.38,20.61
			c0,0-0.17,0.65-0.42,1.79c1.62,1.79,3.14,3.51,4.1,4.69c3.44,4.23,5.09,6.56,11.58,8.27c1.12,0.3,1.48,1.72,0.61,2.49
			c-1.93,1.71-5.42,3.93-10.52,3.93c-2.23,0-4.76-0.43-7.6-1.51c0.11,9.77,2.23,21.2,9.9,29.36c0,0-2.06,14.43,1.91,37.1
			c0,0,1.69,6.75-1.08,10.39c-0.02,0.78-0.08,1.48-0.22,2.02c-0.69,2.69-3.04,4.6-5.46,5.59c-0.57,0.25-1.29,0.49-2.12,0.63
			c-0.26,0.05-0.52,0.09-0.77,0.11c-0.01,0-0.02,0-0.03,0c-0.24,0.02-0.46,0.03-0.68,0.03c-0.17,0-0.33-0.01-0.49-0.02
			c-3.04-0.28-2.5-3.51-2.5-3.51l0.06-4.46c-4.64-3.96-4.14-15.36-2.17-44.8c0,0-11.69-13.55-13.59-26.16
			c-0.87,1.05-1.87,2.04-3.02,2.95c-2.18,7.11-2.59,17.11,6.44,26.3c0,0-2.86,22.6-3.08,33.4c-0.04,1.75-0.77,3.35-1.94,4.51
			c-0.11,0.62-0.25,1.18-0.43,1.61c-1.43,3.5-5.72,5.15-8.81,5.15c-0.56,0-1.07-0.05-1.52-0.16c-2.98-0.69-2-3.82-2-3.82l0.62-4.1
			c-2.57-6.87,7.31-24.24,4.5-30.85c-2.02-4.73-8.51-8.06-12.86-14.07c-2.13,9.76-1.72,16.42-1.72,16.42s-5.3,10.38-2.36,24.37
			c0,0,1.21,4.88-2.67,7.28c-0.12,1.63-0.34,3.17-0.73,4.12c-1.43,3.5-5.72,5.15-8.81,5.15c-0.55,0-1.07-0.05-1.52-0.16
			c-2.98-0.69-2-3.82-2-3.82l0.96-6.29c-4.74-6.52,6.86-25.3,1.36-33.29c0,0,4.22-13.49,3.8-24.56c-5.88-0.66-11.54-2.39-16.75-4.7
			c0.65,4.28,0.52,8.97-0.59,13.35c-2.36,9.29,2.65,14.95,2.65,14.95c-4.71,12.92-1.33,20.47-1.62,25.84
			c-0.13,2.4-0.87,4.49-2.31,5.98c-0.3,2.02-0.74,3.99-1.37,5.04c-0.94,1.56-3.11,2.98-5.34,3.73v0c0,0-0.07,0.02-0.18,0.06
			c-1.01,0.33-2.03,0.51-2.94,0.51c-0.48,0-0.93-0.05-1.33-0.16c-2.94-0.8-1.84-3.85-1.84-3.85l0.91-4.63
			c-1.75-1.76-1.21-4.36-1.21-4.36s2.5-8.56,2.5-27.29c0-14.1-5.68-34.13-8.48-43.16c-4.41-4.13-6.87-7.61-6.54-8.72
			c0.54-1.78,4.52-9.13,8.35-16.62c0-2.12-0.04-3.94-0.25-5.32c-0.37-2.37-1.96-4.3-4.06-5.87c-1.59,0.29-3.19,0.62-4.77,1.01
			c-3.71,0.9-7.16,1.49-10.14,1.49c-6.24,0-10.42-2.55-10.62-10.02c-0.25-9.39,8.12-21.44,9.73-30.82
			c-3.81-0.17-8.27-1.21-12.08-4.37c-7.82-6.49-4.07-23.95,0.41-23.95c0.5,0,1.01,0.22,1.51,0.69c3.86,3.64,12.98,12.26,16.94,16.01
			c2.81-2.28,6.4-4.5,10.59-5.56c1.27-0.32,2.55-0.46,3.81-0.46c5.91,0,11.52,3.1,14.74,5.28c5.06-5.39,18.32-18.69,26.65-19.39
			C415.65,314.92,415.72,314.91,415.78,314.91 M415.78,312.91L415.78,312.91c-0.12,0-0.23,0-0.35,0.01
			c-8.19,0.69-19.88,11.57-26.81,18.8c-3.74-2.32-8.92-4.7-14.43-4.7c-1.48,0-2.93,0.18-4.31,0.53c-3.4,0.86-6.75,2.5-9.97,4.87
			c-4.39-4.15-12.2-11.55-15.7-14.84c-1.08-1.02-2.16-1.23-2.88-1.23c-2.27,0-4.24,1.99-5.55,5.61c-2.15,5.96-2.38,16.7,3.86,21.88
			c3.03,2.52,6.7,4.07,10.92,4.63c-0.86,3.24-2.38,6.81-3.98,10.54c-2.68,6.26-5.46,12.74-5.3,18.54
			c0.15,5.46,2.45,11.97,12.62,11.97c2.88,0,6.35-0.5,10.61-1.54c1.18-0.29,2.45-0.56,3.77-0.82c1.52,1.28,2.39,2.64,2.61,4.04
			c0.19,1.19,0.22,2.86,0.23,4.53c-1.02,1.99-2.04,3.96-3.01,5.81c-3.08,5.92-4.84,9.33-5.26,10.71c-0.63,2.08,1.62,5.58,6.69,10.39
			c2.6,8.44,8.24,28.32,8.24,42.07c0,18.13-2.4,26.65-2.42,26.73l-0.02,0.07l-0.02,0.07c-0.25,1.17-0.25,3.43,1.02,5.3l-0.71,3.6
			c-0.18,0.59-0.59,2.36,0.25,3.99c0.41,0.78,1.26,1.82,3,2.29c0.57,0.15,1.19,0.23,1.86,0.23c1.09,0,2.32-0.21,3.55-0.61
			c0.11-0.03,0.2-0.06,0.2-0.06l1.36-0.46l0-0.08c1.91-0.86,3.97-2.25,5.05-4.05c0.64-1.06,1.15-2.76,1.55-5.18
			c1.44-1.73,2.27-4.06,2.42-6.76c0.09-1.68-0.12-3.43-0.37-5.46c-0.6-4.88-1.35-10.96,1.87-19.81l0.41-1.12l-0.79-0.89
			c-0.17-0.19-4.26-5.06-2.21-13.14c0.86-3.4,1.19-7.05,0.98-10.71c4.19,1.61,8.36,2.73,12.45,3.33c-0.04,10.25-3.7,22.08-3.74,22.2
			l-0.29,0.93l0.55,0.8c2.35,3.41,0.63,10.3-0.89,16.37c-1.58,6.31-3.07,12.3-0.92,16.22l-0.83,5.44c-0.15,0.6-0.5,2.41,0.43,4.02
			c0.44,0.77,1.33,1.77,3.08,2.17c0.6,0.14,1.27,0.21,1.98,0.21c4,0,8.95-2.2,10.66-6.39c0.36-0.89,0.62-2.13,0.79-3.78
			c3.88-3.12,2.84-8.21,2.7-8.81c-2.74-13.06,2.14-22.93,2.19-23.03l0.24-0.48l-0.03-0.54c0-0.05-0.26-4.71,0.9-11.8
			c1.4,1.47,2.86,2.77,4.21,3.98c2.53,2.27,4.72,4.23,5.64,6.37c1.14,2.67-0.68,8.76-2.28,14.13c-1.85,6.2-3.6,12.07-2.43,16.1
			l-0.54,3.51c-0.15,0.6-0.5,2.41,0.43,4.02c0.44,0.77,1.33,1.77,3.08,2.17c0.6,0.14,1.27,0.21,1.98,0.21c4,0,8.95-2.2,10.66-6.39
			c0.16-0.39,0.3-0.86,0.42-1.41c1.31-1.51,2.05-3.41,2.09-5.42c0.22-10.57,3.04-32.97,3.07-33.19l0.12-0.96l-0.68-0.69
			c-6.64-6.76-8.7-14.74-6.12-23.75c0.03-0.03,0.06-0.05,0.1-0.08c2.86,10.35,10.58,20.22,12.71,22.81
			c-1.94,28.9-2.38,40.05,2.2,44.97l-0.05,3.48c-0.07,0.61-0.16,2.45,0.97,3.92c0.54,0.7,1.56,1.57,3.35,1.73
			c0.21,0.02,0.44,0.03,0.67,0.03c0.27,0,0.55-0.01,0.84-0.04l0.05,0c0.33-0.03,0.65-0.08,0.97-0.14c0.87-0.15,1.75-0.42,2.53-0.76
			c3.44-1.42,5.84-3.95,6.61-6.94c0.13-0.51,0.22-1.13,0.26-1.86c2.66-4.19,1.31-10.43,1.07-11.46
			c-3.85-22.01-1.91-36.27-1.89-36.41l0.13-0.95l-0.66-0.7c-5.6-5.96-8.71-14.43-9.27-25.22c1.88,0.49,3.73,0.74,5.51,0.74
			c5.64,0,9.55-2.41,11.84-4.44c0.95-0.84,1.36-2.13,1.07-3.37c-0.3-1.25-1.25-2.22-2.49-2.55c-5.57-1.47-6.99-3.22-10.1-7.06
			l-0.44-0.54c-0.76-0.94-1.93-2.28-3.47-4c0.11-0.45,0.17-0.7,0.17-0.71l0.23-0.88l-0.51-0.75c-7.21-10.66-22.29-20.74-22.93-21.16
			l-0.69-0.46l-0.81,0.17c-7.24,1.48-14.91,2.47-22.79,2.94c-3.39-0.67-7.71-2.1-9.56-5.12c-2.79-4.56-8.49-20.3-12.89-33.49
			c5.87-0.08,11.44-1.81,16.55-5.16c7.56-4.96,9.72-17.04,7.88-23.18C419.62,313.37,416.9,312.91,415.78,312.91L415.78,312.91z"/>
	</g>
	<path d="M363.67,386.04c0,0,10.82-2.5,24.52-3.31c0,0,6.55-9.72,6.7-20.54c0,0,1.25,13.99-6.04,22.82c0,0-14.58,0-24.37,3.02
		C364.48,388.03,362.13,387.51,363.67,386.04z"/>
	<path d="M372.36,389.2c0,0,1.03,2.13,0.74,14.13c-0.29,12,1.18,15.83,1.18,15.83s-2.94-4.34-3.09-23.19c0,0,0-5.01-0.59-6.55
		C370.01,387.88,372.36,389.2,372.36,389.2z"/>
	<path d="M427.87,431.98c0,0-0.44,4.64-2.43,9.79s-2.94,10.9-3.98,18.11l1.99-0.15c0,0,0.34-5.58,1.55-10.67
		C426.99,440.66,427.99,436.09,427.87,431.98z"/>
	<path d="M432.8,437.79c0,0,16.2-3.75,17.23-20.98C450.03,416.81,452.39,436.25,432.8,437.79z"/>
	<path d="M383.7,430.95c0,0,7.8,4.71,15.98,7.29l-5.01,0.29C394.67,438.53,389.07,435.95,383.7,430.95z"/>
	<path d="M404.83,508.91c0-0.22,1.55-6.92,1.55-6.92l0.37,7.44L404.83,508.91z"/>
	<polygon points="379.58,505.52 381.27,499.19 381.49,505.67 	"/>
	<polygon points="432.14,504.71 433.83,499.56 434.35,504.93 	"/>
	<path d="M463.13,509.64c-0.22,0.01,1.03-5.74,1.03-5.74l0.81,6.04C464.97,509.94,464.31,509.57,463.13,509.64z"/>
</g>
</svg>
