<svg version="1.1" xmlns="http://www.w3.org/2000/svg" xmlns:xlink="http://www.w3.org/1999/xlink" x="0px" y="0px"
	 viewBox="0 0 510.24 595.28" style="enable-background:new 0 0 510.24 595.28;" xml:space="preserve">
<g id="NEW_x5F_NESTS">
	<path class="st62" d="M331.1,340.39c0,0-18.99-5.89-31.8,7.8c-12.81,13.69-12.81,49.47-12.81,49.47l9.28,0.15
		c0,0-4.56-27.24,7.21-42.4c11.78-15.17,30.77-7.36,30.77-7.36L331.1,340.39z"/>
	<path class="st62" d="M404.28,376.32c0,0,13.4,1.91,13.69,13.69c0.29,11.78-17.67,31.66-17.67,31.21c0-0.44-0.88-10.16-0.88-10.16
		s11.93-12.37,11.93-20.47c0-8.1-7.95-8.1-7.95-8.1L404.28,376.32z"/>
	<path class="st62" d="M399.42,431.98c0,0,2.36,16.2,17.08,17.08c14.72,0.88,47.12,0.15,44.91,16.2
		c-2.21,16.05-58.6,23.85-58.6,23.85v-6.04c0,0,49.91-6.92,50.36-19.88c0.44-12.96-39.9-1.33-51.09-12.66s-8.83-19.58-8.83-19.58
		L399.42,431.98z"/>
	<path class="st64" d="M312.84,352.76l27.98-23.56c13.77-1.8,28.3-0.73,43.73,3.68l26.21,28.12L362.9,374.7L312.84,352.76z"/>
	<path class="st65" d="M362.31,284.44l14.28-121.91c0.59-1.47,3.75-1.77,4.27,0.29l-9.57,121.77L362.31,284.44z"/>
	<path class="st65" d="M306.43,169.78c0,0,19.88,5.74,39.31,7.73c19.44,1.99,98.61,3.53,102.26,6.74c3.64,3.2-9.5,8.83-9.5,8.83
		s5.96-5.19,3.87-6.07c-2.1-0.88-66.81-4.53-67.14-4.31c-0.33,0.22-32.58-1.77-32.58-1.77s-24.74-2.54-39.75-9.28L306.43,169.78z"/>
	<path class="st65" d="M371.59,218.26c0,0-68.69-4.64-72.22-5.52c-3.53-0.88-9.5-15.24-8.5-16.01s83.82,4.86,83.82,4.86
		s74.87,5.63,76.86,8.28c1.99,2.65-2.32,13.8-3.09,14.02s-74.32-1.99-74.32-1.99v1.77l80.06,2.65c0,0,2.98,0.44,4.97-3.42
		c1.99-3.87,6.29-16.23,4.64-17.89c-1.66-1.66-88.79-10.27-88.79-10.27s-78.7-5.83-93.28-4.15c-1.17,0.14-1.93,1.29-1.59,2.42
		c1.3,4.29,4.9,14.81,10.61,21.03c0.59,0.64,1.4,1.04,2.27,1.09l79.01,4.35L371.59,218.26z"/>
	<path class="st65" d="M342.21,233.5c0,0,18.44,7.18,27.5,6.52s32.91,3.64,38.21,6.63c0,0,0.66,1.77-2.87,3.2
		c0,0-13.25-6.18-35.12-6.96c-21.87-0.77-29.71-6.74-29.71-6.74S340.23,234.27,342.21,233.5z"/>
	<path class="st66" d="M305.18,275.02c0,0-4.86,11.78-3.09,17.08c1.77,5.3,2.06,9.57-1.03,17.37c-3.09,7.8,0,18.11,0,18.11
		l-4.27-1.91c0,0-1.77-8.1,1.62-17.37s0-16.34,0-16.34s-0.29-8.25,3.39-17.08L305.18,275.02z"/>
	<path class="st67" d="M302.39,263.83l-7.51-11.93c0,0,2.06-11.19,9.13-20.47c0,0,8.1-2.65,24.15-2.8l-2.36,14.43l-9.87-1.91
		c0,0-13.99,4.12-4.56,19.58L302.39,263.83z"/>
	<path class="st68" d="M307.82,271.19l11.44,8.23c0,0,11.3-1.36,20.99-7.84c0,0,3.15-7.92,4.29-23.93l-14.55,1.46l1.3,9.96
		c0,0-4.98,13.71-19.83,3.34L307.82,271.19z"/>
	<polygon class="st68" points="293.26,264.42 299,260.74 314.75,260.44 308.28,273.84 301.35,278.7 	"/>
	<path class="st69" d="M257.77,283.12l34.45-21.5c0,0,10.9,4.71,14.13,17.52l-32.69,24.59L257.77,283.12z"/>
	<path class="st69" d="M247.32,289.45c0,0-1.07-10.14,13.99-6.63c17.67,4.12,23.56,16.05,13.25,23.85
		C264.25,314.48,247.32,289.45,247.32,289.45z"/>
	<path class="st69" d="M235.24,338.92l11.48-44.61c0,0,13.1,0.59,21.64,8.1l-18.26,39.75L235.24,338.92z"/>
	<path class="st69" d="M245.11,299.9c0,0-5.6-5.01-0.88-11.04c4.71-6.04,32.54,4.42,33.28,15.61s-13.84,8.39-13.84,8.39v0
		c3.07-6.81-0.59-14.81-7.78-16.84c-0.95-0.27-1.96-0.52-3.04-0.75C249.46,294.54,246.07,296.57,245.11,299.9L245.11,299.9z"/>
	<path class="st70" d="M180.91,223.04c0,0,37.25-38.87,31.51-53.15l-3.24-0.59l5.6-3.24l-1.62,3.39c0,0,9.42,11.19-31.66,54.63
		L180.91,223.04z"/>
	<path class="st65" d="M150.14,278.55c0,0,0.88-20.76,35.19-57.57l-2.8-1.47c0,0-34.16,35.93-35.04,58.01L150.14,278.55z"/>
	<path class="st71" d="M54.3,323.96c0,0-0.6,3.03,5.88,7.15l31.07,14.87l71.71-1.77l16.05-34.6l-27.98-46.23c0,0-2.36-5.74-9.42-5.6
		L54.3,323.96z"/>
	<path class="st72" d="M77.48,339.07c0,0,14.13-0.74,23.19-8.39l30.48,2.58l-42.4,11.34L77.48,339.07z"/>
	<path class="st73" d="M105.97,172.98c0,0-8.25,45.64,7.07,85.25l-2.94,0.74c0,0-13.1-19.73-5.45-86.43l-1.47-2.36l5.3,0.88
		L105.97,172.98z"/>
	<path class="st74" d="M153.49,327.03l2.14-33.92c0.09-1.43,1.96-1.92,2.74-0.72l15.03,23.26l-14.43,14.13L153.49,327.03z"/>
	<path class="st75" d="M148.52,260.44c0,0.33-5.96,45.28,13.25,56.76l-26.28,14.47l2.76-69.02l4.53-4.92
		C142.78,257.73,146.64,257.9,148.52,260.44z"/>
	<path class="st76" d="M136.89,333.01l-80.39-5.93c-1.47-0.11-2.46-1.51-2.21-3.12l10.28-65.46c0.22-1.41,1.53-2.53,2.91-2.5
		l75.3,1.72c1.54,0.04,2.7,1.28,2.59,2.77l-5.25,69.61C139.99,331.82,138.54,333.13,136.89,333.01z"/>
	<path class="st77" d="M63.75,298.19l4.07-32.01c0.49-3.87,3.67-6.71,7.36-6.6l53.3,1.67c4.17,0.13,7.36,3.96,6.97,8.34l-3,33.19
		c-0.37,4.05-3.69,7.08-7.54,6.88l-54.36-2.85C66.32,306.59,63.19,302.61,63.75,298.19z"/>
	<path class="st78" d="M55.1,320.15l-0.81,4.49c0,0,0.52,3.61,6.18,6.55l30.85,1.99c0,0,12.37,2.58,6.48,12.88l61.62-23.34
		c0,0-12.59-4.27-13.77-15.09c-1.18-10.82,3.02-47.48,3.02-47.48s-2.87-2.94-9.72-2.28c0,0,3.46,0.88,3.31,5.74
		c-0.11,3.67-3.03,36.96-4.46,53.06c-0.43,4.81-4.61,8.4-9.42,8.09L55.1,320.15z"/>
	<path class="st79" d="M67.19,297.39L71,269.23c0.46-3.4,3.42-5.91,6.85-5.8l49.53,1.51c3.87,0.12,6.84,3.49,6.47,7.34l-2.82,29.2
		c-0.34,3.57-3.43,6.23-7.01,6.05l-50.52-2.55C69.58,304.78,66.67,301.28,67.19,297.39z"/>
	<path d="M73.02,318.79l-1.54-0.09c-1.56-0.1-2.75-1.45-2.66-3l0.09-1.54c0.1-1.56,1.45-2.75,3-2.66l1.54,0.09
		c1.56,0.1,2.75,1.45,2.66,3l-0.09,1.54C75.93,317.69,74.58,318.89,73.02,318.79z"/>
	<path d="M91.7,318.67L91.7,318.67c-1.56-0.1-2.75-1.45-2.66-3v0c0.1-1.56,1.45-2.75,3-2.66h0c1.56,0.1,2.75,1.45,2.66,3l0,0
		C94.61,317.57,93.25,318.76,91.7,318.67z"/>
	<path d="M101.64,319.25L101.64,319.25c-1.56-0.1-2.75-1.45-2.66-3v0c0.1-1.56,1.45-2.75,3-2.66l0,0c1.56,0.1,2.75,1.45,2.66,3l0,0
		C104.55,318.16,103.2,319.35,101.64,319.25z"/>
	<path d="M111.36,319.99L111.36,319.99c-1.56-0.1-2.75-1.45-2.66-3l0,0c0.1-1.56,1.45-2.75,3-2.66h0c1.56,0.1,2.75,1.45,2.66,3l0,0
		C114.27,318.89,112.92,320.09,111.36,319.99z"/>
	<path class="st80" d="M72.51,317.46l-1.54-0.09c-1.56-0.1-2.75-1.45-2.66-3l0.09-1.54c0.1-1.56,1.45-2.75,3-2.66l1.54,0.09
		c1.56,0.1,2.75,1.45,2.66,3l-0.09,1.54C75.41,316.37,74.06,317.56,72.51,317.46z"/>
	<path class="st81" d="M91.33,317.71L91.33,317.71c-1.56-0.1-2.75-1.45-2.66-3l0,0c0.1-1.56,1.45-2.75,3-2.66h0
		c1.56,0.1,2.75,1.45,2.66,3l0,0C94.24,316.61,92.89,317.81,91.33,317.71z"/>
	<path class="st82" d="M101.5,318.15L101.5,318.15c-1.56-0.1-2.75-1.45-2.66-3l0,0c0.1-1.56,1.45-2.75,3-2.66l0,0
		c1.56,0.1,2.75,1.45,2.66,3v0C104.41,317.05,103.05,318.25,101.5,318.15z"/>
	<path class="st83" d="M111.07,318.96L111.07,318.96c-1.56-0.1-2.75-1.45-2.66-3l0,0c0.1-1.56,1.45-2.75,3-2.66h0
		c1.56,0.1,2.75,1.45,2.66,3v0C113.98,317.86,112.62,319.06,111.07,318.96z"/>
	<path class="st84" d="M196.67,329.2l65.23,5.74l19.73,19.58c0,0-2.65,29.3,34.01,41.23l-98.21,15.9L196.67,329.2z"/>
	<path class="st85" d="M206.83,351.29c0,0,39.31-6.18,52.27,6.48c12.96,12.66,18.55,41.82,18.55,41.82l-60.22,12.07L206.83,351.29z"
		/>
	<path class="st86" d="M228.03,349.96c0,0-5.3,13.1,7.8,24c13.1,10.9,8.54,21.79,1.62,27.68c-6.92,5.89,28.12-1.33,28.12-1.33
		l-17.23-48.3C248.35,352.02,237.01,349.23,228.03,349.96z"/>
	<path class="st87" d="M255.42,395.76c0,0,3.68-10.31-8.69-19.88c-12.37-9.57,1.62-23.85,1.62-23.85s20.47,2.8,27.68,43.14
		L255.42,395.76z"/>
	<path class="st88" d="M303.42,431.68l9.42-78.92c0,0,42.4-8.54,97.91,8.25l-10.45,96.15L303.42,431.68z"/>
	<path class="st89" d="M340.82,329.2l-24.15-9.72c7.21-6.92,86.72-1.18,94.38,7.07l-26.5,6.33
		C384.55,332.88,363.78,325.82,340.82,329.2z"/>
	<path class="st88" d="M316.67,319.49l8.62-22.13c2.19-5.61,6.97-9.78,12.81-11.24c9.71-2.43,19.32-5.34,29.37-4.32
		c9.35,0.95,19.11,5.66,28.77,9.71c5.79,2.43,9.95,7.64,11.05,13.82l3.77,21.23c0,0-5.78-4.1-23.26-6.33c0,0-17.01-2.25-47.78-3.57
		C340.01,316.65,322.12,315.95,316.67,319.49z"/>
	<circle class="st90" cx="330.29" cy="368.33" r="5.63"/>
	<circle class="st90" cx="361.43" cy="371.2" r="5.63"/>
	<circle class="st90" cx="390.58" cy="376.17" r="5.63"/>
	<path class="st91" d="M88.66,426.31c0,0,1.26,2.72,2.59,4.05l28.71,11.19L227,401.94l0.59-29.6l-0.23-2.46l-11.4-20.65
		L88.66,426.31z"/>
	<path class="st62" d="M67.49,387.05c0,0-27.54,17.02-15.76,39.89c11.78,22.87,42.28,25.57,42.84,63.85
		c0.27-1.01,16.52-4.03,15.86-3.86c-0.65,0.16,2.49-22.74-16.75-40.03s-39.64-28.71-19.87-39.48L67.49,387.05z"/>
	<path class="st92" d="M72.55,365.57l-7.66,19.14c1.64,9.46,4.75,18.33,9.28,26.65l17.52,8.69L72.55,365.57z"/>
	<path class="st93" d="M226.39,372.54L91.17,427.43c-1,0.41-2.15-0.1-2.51-1.12L63.8,356.88c-0.34-0.96,0.13-2.02,1.08-2.41
		l125.42-50.91c0.91-0.37,1.94,0.01,2.4,0.87l34.66,65.44C227.89,370.88,227.44,372.11,226.39,372.54z"/>
	<path class="st94" d="M72.36,364.28l-0.46,1.57c-0.14,0.48-0.08,0.98,0.18,1.41l9.6,16.34c0.61,1.04,2.13,1.44,3.4,0.89
		l60.73-26.03c1.01-0.43,1.58-1.35,1.41-2.27l-1.15-6.13c-0.06-0.31-0.2-0.6-0.41-0.86l-8.37-9.96c-0.7-0.83-2.02-1.1-3.15-0.65
		l-60.35,24.2C73.07,363.1,72.54,363.65,72.36,364.28z"/>
	<path class="st93" d="M144.05,354.28l-59.37,23.84c-1.48,0.59-3.15-0.14-3.74-1.64l-5.7-14.53c-0.57-1.45,0.15-3.09,1.6-3.66
		l58.45-22.82c1.37-0.54,3,0.14,3.64,1.51l6.43,13.72C146.03,352.12,145.44,353.72,144.05,354.28z"/>
	<path class="st80" d="M93.94,362.64c1.17,2.84-0.18,6.07-3.01,7.21c-2.85,1.14-6.09-0.28-7.24-3.15c-1.14-2.85,0.24-6.05,3.06-7.16
		C89.57,358.42,92.78,359.81,93.94,362.64z"/>
	<path class="st95" d="M115.32,354.17c1.22,2.79-0.04,5.96-2.82,7.07c-2.79,1.11-6.02-0.28-7.22-3.09c-1.19-2.8,0.1-5.94,2.87-7.02
		C110.91,350.04,114.11,351.4,115.32,354.17z"/>
	<path class="st80" d="M136.26,345.89c1.26,2.74,0.09,5.84-2.63,6.93c-2.73,1.09-5.96-0.28-7.2-3.04c-1.23-2.75-0.03-5.82,2.68-6.89
		C131.81,341.83,135,343.17,136.26,345.89z"/>
	<path class="st155" d="M398.53,358.95c0,0,3.24,18.26-4.42,36.22c0,0-0.29,27.68-1.77,38.58l-34.67-42.21
		c-1.17-1.43-2.92-2.26-4.76-2.28l-15.05-0.12c0,0,8.25-26.8,3.68-36.81C341.55,352.32,360.1,350.55,398.53,358.95z"/>
	<path class="st94" d="M84.03,408.57l6.18,17.08l135.46-54.63l-22.82-44.02C200.69,371.79,163.02,399.89,84.03,408.57z"/>
	<g>
		<path class="st157" d="M50.99,539.02c-4.95,6.54-2.3,16.1,5.38,18.97c5,1.87,11.93,3.26,21.48,3.26c29.15,0,342.48,0,342.48,0
			s10.64,0.79,21.05-2.64c8.1-2.67,11.07-12.6,5.83-19.33l-61.62-79.04H110.53L50.99,539.02z"/>
		<path class="st158" d="M434.91,547.59l-0.42,0.28c-3.67,2.4-7.96,3.67-12.34,3.67H74.36c-4.54,0-8.97-1.37-12.72-3.92h0
			c-2.49-1.7-3.74-4.72-3.17-7.68l9.52-49.5h360.74l9.49,49.39C438.79,542.84,437.49,545.91,434.91,547.59z"/>
		<path class="st159" d="M72.61,543.29l4-41.52h343.48l1.77,41.49c0.16,3.64-2.85,6.67-6.61,6.67l-336.26,0.14
			C75.22,550.06,72.26,546.92,72.61,543.29z"/>
		<path class="st158" d="M420.09,501.77H76.61c-7.38,0-11.59-8.42-7.17-14.33l69.33-92.52c1.69-2.26,4.35-3.59,7.17-3.59h204.83
			c2.82,0,5.48,1.33,7.17,3.59l69.33,92.52C431.68,493.35,427.47,501.77,420.09,501.77z"/>
		<polygon class="st160" points="109.14,480.01 106.34,484.74 390.14,484.74 387.56,480.01 		"/>
		<path class="st161" d="M335.37,403.01H161.44v0c0-3.58,2.9-6.48,6.48-6.48h160.97C332.47,396.53,335.37,399.43,335.37,403.01
			L335.37,403.01z"/>
		<path class="st162" d="M385.12,482.33H111.58c-1.18,0-1.9-1.31-1.25-2.31l50.64-77.7c0.28-0.42,0.75-0.68,1.25-0.68h172.27
			c0.5,0,0.97,0.25,1.25,0.68l50.64,77.7C387.02,481.02,386.3,482.33,385.12,482.33z"/>
		<path class="st163" d="M144.99,431.61l-28.71,45.06h263.71l-22.86-36.88c0,0-20.32,12.7-80.83,15.68
			C181.43,460.87,144.99,431.61,144.99,431.61z"/>
		<path class="st164" d="M265.24,451.82h-34.12v0c0-3.58,2.9-6.48,6.48-6.48h21.17C262.34,445.34,265.24,448.24,265.24,451.82
			L265.24,451.82z"/>
		<polygon class="st160" points="270.58,497.24 225.82,497.24 231.12,451.71 265.28,451.71 		"/>
		<polygon class="st165" points="231.12,451.71 228.55,490.21 267.27,490.21 265.28,451.71 		"/>
		<path class="st166" d="M156.47,412.84c0,0,24.74,25.51,137.26,30.15c23.41,0.33,51.24-0.33,54.55-16.67l-5.85-9.94
			c0,0,2.65,19.1-45.39,14.47c-48.04-4.64-81.17-27.61-81.17-27.61h-53.01L156.47,412.84z"/>
		<ellipse class="st167" cx="139.54" cy="469.08" rx="11.93" ry="7.21"/>
		<ellipse class="st167" cx="172.3" cy="412.33" rx="9.94" ry="5.24"/>
		<ellipse class="st167" cx="158.44" cy="437.9" rx="10.25" ry="6.22"/>
		<ellipse class="st168" cx="140.62" cy="468.1" rx="10.88" ry="6.35"/>
		<ellipse class="st168" cx="172.93" cy="412.12" rx="9.06" ry="4.69"/>
		<ellipse class="st168" cx="159.23" cy="437.32" rx="9.28" ry="5.55"/>
		<ellipse class="st167" cx="356.74" cy="468.9" rx="11.94" ry="7.18"/>
		<ellipse class="st167" cx="323.99" cy="412.49" rx="9.28" ry="4.81"/>
		<ellipse class="st167" cx="337.47" cy="437.74" rx="10.5" ry="5.97"/>
		<ellipse class="st168" cx="355.3" cy="468.1" rx="10.88" ry="6.35"/>
		<ellipse class="st168" cx="323" cy="412.12" rx="9.06" ry="4.69"/>
		<ellipse class="st168" cx="336.69" cy="437.32" rx="9.28" ry="5.55"/>
		<ellipse class="st169" cx="138.88" cy="467.53" rx="7.29" ry="4.2"/>
		<ellipse class="st169" cx="353.7" cy="467.53" rx="7.29" ry="4.2"/>
		<ellipse class="st169" cx="157.84" cy="436.45" rx="6.58" ry="3.79"/>
		<ellipse class="st169" cx="335.27" cy="436.45" rx="6.58" ry="3.79"/>
		<ellipse class="st169" cx="170.95" cy="411.56" rx="5.7" ry="3.19"/>
		<ellipse class="st169" cx="320.98" cy="411.56" rx="5.7" ry="3.19"/>
		<ellipse class="st18" cx="138.24" cy="466.75" rx="2.38" ry="1.35"/>
		<ellipse class="st18" cx="352.77" cy="466.75" rx="2.38" ry="1.35"/>
		<ellipse class="st18" cx="156.73" cy="436" rx="1.75" ry="0.98"/>
		<ellipse class="st18" cx="333.75" cy="436" rx="1.75" ry="0.98"/>
		<ellipse class="st18" cx="170.13" cy="410.97" rx="1.75" ry="0.98"/>
		<ellipse class="st18" cx="320.2" cy="410.97" rx="1.75" ry="0.98"/>
		<polygon class="st18" points="161.88,403.01 110.86,481.08 227.48,481.08 228.03,478.21 114.07,477.88 		"/>
		<polygon class="st18" points="334.7,403.01 385.72,481.08 269.11,481.08 268.56,478.21 382.52,477.88 		"/>
		<path class="st170" d="M231.01,487.04c0.22-0.33,1.1-19.66,1.1-19.66s13.8-3.2,19.44-13.91h11.48v16.45
			c0,0-13.03,4.09-21.87,17.12H231.01z"/>
		<path class="st162" d="M249.78,485.28h-3.02c-1.56,0-2.83-1.28-2.83-2.83v-13.47c0-1.56,1.28-2.83,2.83-2.83h3.02
			c1.56,0,2.83,1.28,2.83,2.83v13.47C252.62,484,251.34,485.28,249.78,485.28z"/>
		<path class="st170" d="M245.37,482.3V471.8c0-1.95,1.58-3.53,3.53-3.53h1.88C250.78,468.27,245.37,471.25,245.37,482.3z"/>
		<polygon class="st171" points="101.4,551.39 76.61,551.39 95.78,501.77 120.58,501.77 		"/>
		<polygon class="st171" points="150.29,551.39 125.49,551.39 144.66,501.77 169.46,501.77 		"/>
		<polygon class="st171" points="199.17,551.39 174.37,551.39 193.55,501.77 218.34,501.77 		"/>
		<polygon class="st171" points="248.05,551.39 223.26,551.39 242.43,501.77 267.23,501.77 		"/>
		<polygon class="st171" points="296.94,551.39 272.14,551.39 291.31,501.77 316.11,501.77 		"/>
		<polygon class="st171" points="345.82,551.39 321.02,551.39 340.2,501.77 364.99,501.77 		"/>
		<polygon class="st171" points="394.7,551.39 369.91,551.39 389.08,501.77 413.88,501.77 		"/>
		<path class="st171" d="M59.44,534.75l13.99-33.13c0,0-5.45-1.62-6.04-9.13L59.44,534.75z"/>
		<path class="st171" d="M420.32,551.53l12.81-37.84l5.08,26.13C438.21,539.82,439.91,551.53,420.32,551.53z"/>
		<path class="st172" d="M420.09,501.77H76.61c-7.38,0-11.59-8.42-7.17-14.33l69.33-92.52c1.69-2.26,4.35-3.59,7.17-3.59h204.83
			c2.82,0,5.48,1.33,7.17,3.59l69.33,92.52C431.68,493.35,427.47,501.77,420.09,501.77z M416.52,497.35c2.32,0,4.37-1.22,5.48-3.26
			c1.11-2.05,0.98-4.36-0.34-6.2l-66.04-91.25c-1.12-1.54-2.93-2.46-4.85-2.46H145.93c-1.92,0-3.73,0.92-4.85,2.46l-66.04,91.25
			c-1.33,1.83-1.46,4.15-0.34,6.2c1.11,2.05,3.16,3.27,5.48,3.27H416.52z"/>
		<g class="st173">
			<path class="st174" d="M131.02,541.92c-2.4-0.72-4.1,1.2-4.42,3.38c-0.01,0.09-0.06,0.22-0.08,0.31c-0.07,0.03-0.17,0.1-0.18,0.1
				c-0.58,0.04-1.15,0.23-1.78,0.26c-3.86,0.19-7.84,0.39-11.63-0.47c-2-0.46-3.77-1.35-5.87-0.9c-1.99,0.43-3.84,1.35-5.86,1.72
				c-2.86,0.52-5.93-0.07-7.32-2.83c-1.2-2.39-3.24-3-5.74-2.3c-2.01,0.56-3.76,1.44-5,3.14c-1.94,0.18-3.89,0.8-4.82,2.38
				c-0.56,0.96-0.59,1.97-0.33,2.98c-1.32-0.76-2.96-0.9-4.39-0.37c-1.03,0.38-2.02,1.08-2.64,2c1.64,0.23,13.71,0.37,13.5,0
				c-0.18-0.31-0.36-0.62-0.54-0.93c-0.19-0.33-0.38-0.66-0.57-0.99c0.11-0.03,0.2-0.06,0.27-0.07c0.84-0.11,1.69-0.07,2.52,0
				c1.75,0.16,2.65-1.57,2.37-3.04c0.21-0.07,0.41-0.13,0.6-0.19c0.13-0.04,0.26-0.07,0.38-0.11c0.16,0.28,0.34,0.56,0.38,0.64
				c1.12,1.92,2.94,3.24,4.97,4.05c1.93,0.76,4.05,0.92,6.1,0.68c1.29-0.15,2.55-0.41,3.79-0.78c1.08-0.32,2.32-1.03,3.43-1.13
				c0.89-0.08,1.89,0.47,2.75,0.7c1.24,0.32,2.51,0.52,3.79,0.68c2.27,0.28,4.57,0.31,6.85,0.25c2.08-0.06,4.42,0.06,6.4-0.67
				c1.08-0.4,2.04-1,2.71-1.97c0.29-0.42,0.52-0.88,0.66-1.37c0.03-0.15,0.05-0.31,0.07-0.46
				C133.13,545.74,133.42,542.64,131.02,541.92z M75.24,553.99c0,0.01,0,0.03,0,0.04C75.21,554.21,75.15,554.07,75.24,553.99z
				 M82.23,549.67C82.21,549.7,82.21,549.69,82.23,549.67L82.23,549.67z"/>
			<path class="st174" d="M115.42,534.94c0.56,0.3,1.31,0.49,1.93,0.25c0.16-0.06,0.33-0.1,0.5-0.13c0.08,0,0.17,0,0.25,0.01
				c0.22,0.05,0.44,0.11,0.65,0.18c0.61,0.3,1.18,0.69,1.73,1.1c0.21,0.2,0.44,0.35,0.71,0.44c0.3,0.16,0.62,0.23,0.96,0.22
				c0.61,0,1.35-0.27,1.77-0.73c0.44-0.48,0.76-1.1,0.73-1.77c-0.03-0.61-0.22-1.37-0.73-1.77c-0.57-0.44-1.13-0.89-1.72-1.28
				c-0.62-0.41-1.27-0.71-1.96-0.98c-0.66-0.26-1.39-0.37-2.09-0.41c-0.25-0.01-0.5,0-0.75,0.03c-0.48,0.06-0.94,0.11-1.38,0.28
				c-0.63,0.24-1.14,0.55-1.49,1.15c-0.31,0.54-0.45,1.33-0.25,1.93C114.46,534.05,114.84,534.63,115.42,534.94z"/>
			<path class="st174" d="M142.43,535.68c-0.22-0.38-0.52-0.67-0.9-0.9c-0.2-0.08-0.4-0.17-0.6-0.25c-0.3-0.08-0.59-0.09-0.89-0.06
				c-0.12,0.01-0.25,0-0.37,0c-0.05-0.01-0.09-0.02-0.14-0.04c-0.07-0.04-0.14-0.07-0.2-0.12c-0.02-0.01-0.05-0.03-0.07-0.04
				c-0.02-0.01-0.04-0.02-0.06-0.03c0.01,0.01,0.01,0.01,0.02,0.02c-0.11-0.06-0.22-0.12-0.35-0.16c-0.3-0.16-0.62-0.23-0.96-0.22
				c-0.34-0.01-0.67,0.06-0.96,0.22c-0.31,0.1-0.58,0.27-0.8,0.52c-0.13,0.17-0.26,0.34-0.39,0.51c-0.23,0.39-0.34,0.81-0.34,1.26
				c0.03,0.22,0.06,0.44,0.09,0.66c0.12,0.42,0.33,0.79,0.64,1.1c0.33,0.26,0.65,0.54,1.04,0.72c0.38,0.18,0.78,0.36,1.19,0.46
				c0.21,0.05,0.42,0.07,0.63,0.1c0.21,0.03,0.42,0.06,0.63,0.07c0.11,0,0.23,0,0.34-0.01c0.32-0.03,0.65-0.07,0.96-0.13
				c0.33-0.08,0.61-0.23,0.85-0.45c0.27-0.18,0.49-0.41,0.64-0.7c0.18-0.29,0.28-0.6,0.3-0.93c0.07-0.33,0.06-0.66-0.04-1
				C142.6,536.08,142.51,535.88,142.43,535.68z M139.68,534.61C139.68,534.61,139.68,534.61,139.68,534.61
				c0.01,0.01,0.02,0.02,0.03,0.02C139.7,534.62,139.69,534.62,139.68,534.61z"/>
			<path class="st174" d="M200.52,545.98c-2.18-1.32-4.62-2-7.1-2.48c-2.15-0.41-4.1-0.68-6.02,0c-0.27-0.18-0.58-0.35-0.94-0.47
				c-1.23-0.43-2.69-0.36-3.98-0.33c-1.62,0.04-3.24,0.23-4.84,0.5c-1.33,0.22-1.84,1.3-1.75,2.4c-0.93,0.3-1.86,0.6-2.78,0.9
				c-1.77,0.57-2.24,2.55-1.29,3.88c-0.18-0.09-0.39-0.2-0.63-0.34c-1.33-0.73-2.72-1.14-4.25-1.07c-1.54,0.08-2.98,0.61-4.5,0.77
				c-0.14,0.02-1.74,0.06-1.77-0.24c-0.13-1.34-1.06-2.5-2.5-2.5c-1.25,0-2.63,1.15-2.5,2.5c0.07,0.74,0.25,1.4,0.53,1.98
				l34.46,0.08c1.31-0.78,1.47-2.27,0.86-3.35c0.05,0.01,0.1,0.02,0.15,0.03c2.21,0.41,4.39,0.88,6.33,2.05
				C200.76,551.96,203.28,547.64,200.52,545.98z"/>
			<path class="st174" d="M270.31,544.72c-1.15-0.03-2.33,0.27-3.42,0.77c-0.29-0.12-0.59-0.21-0.9-0.28
				c-0.07-0.13-0.14-0.27-0.22-0.39c-1.4-2.02-3.89-2.49-6.19-2.26c-1.27,0.13-2.53,0.35-3.79,0.53c-0.28,0.04-0.57,0.09-0.85,0.13
				c0.14-0.26,0.27-0.47,0.33-0.54c0.58-0.66,1.31-1.22,2.12-1.57c1.98-0.84,3.77-0.31,5.62,0.51c2.87,1.27,5.78-0.84,4.88-4.03
				c-0.58-2.05-2.21-3.78-4.02-4.81c-3.62-2.05-7.46-1.57-11.13-0.3c-0.31-1.18-1.12-2.18-2.63-2.68c-2.91-0.96-6.22,0.69-8.92,1.61
				c-0.56,0.19-0.73,0.28-1.22,0.06c-0.74-0.33-1.31-0.73-2.14-0.8c-1.71-0.16-3.14,0.79-4.29,1.97c-2.26,2.33-4.23,5-6,7.73
				c-1.75,2.71,2.57,5.22,4.32,2.52c1.21-1.87,2.53-3.67,3.99-5.35c0.1-0.11,1.22-1.2,1.68-1.7c0.14,0.09,0.27,0.18,0.41,0.26
				c0.55,0.28,1.11,0.44,1.72,0.51c2.26,0.26,4.36-1.06,6.49-1.63c0.5-0.13,1.01-0.27,1.52-0.35c-0.11,0.23-0.22,0.49-0.33,0.66
				c-1.43,2.28,1.31,4.42,3.42,3.42c1.09-0.52,2.25-1.07,3.43-1.52c-1.4,0.82-2.61,1.98-3.52,3.32c-0.98,1.43-1.92,3.46-1.39,5.22
				c1.05,3.5,4.98,2.81,8.18,2.21c-1.1,0.6-1.91,1.73-1.92,3.17c0,0.13,0,0.25,0.02,0.38l18.18-0.03c0.17-0.31,0.32-0.64,0.44-0.98
				C275.19,547.67,273.34,544.79,270.31,544.72z M263.01,538.76C263.07,538.91,262.99,538.9,263.01,538.76L263.01,538.76z"/>
			<path class="st174" d="M344.45,542.4c-1.68,0.2-3.34,0.63-4.98,1.16c0.2-0.68,0.16-1.44-0.16-2.03
				c-1.37-2.49-3.73-4.19-6.43-5.02c-1.29-0.4-2.68-0.58-4.03-0.58c-1.26,0-3.47-0.03-4.33,1.04c-1.27,1.58-0.58,4.33,1.77,4.27
				c0.3-0.01,0.58-0.06,0.84-0.15c1.05-0.2,2.17-0.23,3.25-0.05c-0.55,0.3-1.06,0.66-1.52,1.15c-1.62,1.73-2.07,4.12-1.16,6.16
				c-0.38,0.18-0.76,0.4-1.15,0.61c-0.86,0.45-1.83,0.92-2.82,0.85c-0.96-0.06-1.85-0.53-2.71-0.92c-2.29-1.06-4.58-1.82-7.14-1.82
				c-1.26,0-2.48,0.28-3.72,0.46c-0.4,0.06-0.77,0.08-1.17,0.06c-0.08,0-0.14-0.01-0.18-0.02c-0.4-1.86-2.7-3.06-4.22-1.45
				c-1.18,1.25-2.45,2.34-3.88,3.28c-0.81,0.53-1.15,2.05-1.15,2.05l45.3,0.03c0,0,4.36-0.65,5.78-2.18
				c1.46-1.57,1.58-4.05-0.06-5.56C348.99,542.3,346.48,542.16,344.45,542.4z M308.76,547.57
				C308.6,547.52,308.68,547.45,308.76,547.57L308.76,547.57z M327.65,552.3c-0.02-0.01-0.04-0.02-0.06-0.03
				C327.5,552.07,327.53,552.09,327.65,552.3z M347.34,547.58C347.36,547.62,347.36,547.63,347.34,547.58L347.34,547.58z"/>
			<path class="st174" d="M384.04,526.09c-0.89,0.06-1.78,0.16-2.67,0.3c-3.42,0.52-7,2.62-7.8,6.23c-0.16,0.71-0.01,1.47,0.37,2.07
				c-0.04,0.09-0.08,0.17-0.12,0.26c-0.55,1.29-0.82,2.72-0.08,4.01c0.78,1.35,2.45,1.77,3.89,1.44c0.13-0.03,0.25-0.08,0.38-0.13
				c0.64,0.39,1.42,0.55,2.24,0.36c0.73-0.17,1.58-0.62,2.2-1.05c0.82-0.57,1.48-1.24,1.98-2.11c0.76-1.35,1.4-2.79,2.02-4.2
				c0.37-0.84,0.72-1.68,1.06-2.53c0.48-1.2,0.74-2.42-0.12-3.54C386.53,526.09,385.31,526,384.04,526.09z M382.62,531.22
				c0.03,0,0.07,0,0.1-0.01c-0.04,0.01-0.09,0.01-0.13,0.01C382.6,531.22,382.61,531.22,382.62,531.22z M381.25,531.51
				c0.19-0.05,0.39-0.1,0.58-0.14c-0.2,0.45-0.41,0.91-0.62,1.36c-0.19-0.37-0.44-0.69-0.76-0.96c0.04-0.02,0.09-0.03,0.13-0.05
				C380.8,531.63,381.02,531.57,381.25,531.51z"/>
			<path class="st174" d="M297.59,517.05c-2.57-1.05-5.56-1.14-8.23-0.43c-2.74,0.72-7.96,3.22-6.09,6.83
				c0.33,0.65,0.84,1.11,1.43,1.43c1.24,2.1,3.85,2.24,5.82,1.13c0.37-0.21,0.71-0.47,1.02-0.75c0.16,0.05,0.33,0.1,0.49,0.14
				c1.83,0.41,3.87,0.16,5.42-0.95c0.84-0.6,1.34-1.43,1.19-2.49c-0.03-0.19-0.08-0.38-0.15-0.57c0.42-0.34,0.74-0.79,0.84-1.27
				C299.67,518.67,298.89,517.58,297.59,517.05z M287.59,522.98C287.59,522.98,287.59,522.97,287.59,522.98
				C287.59,522.97,287.59,522.98,287.59,522.98C287.59,522.98,287.59,522.98,287.59,522.98z M287.85,522.76
				C287.75,522.91,287.57,522.96,287.85,522.76L287.85,522.76z"/>
			<path class="st174" d="M160.87,525.94c0.14,0.17,0.28,0.32,0.46,0.46c0.32,0.26,0.64,0.53,1.01,0.7c0.78,0.36,1.63,0.62,2.5,0.54
				c0.87-0.08,1.71-0.27,2.45-0.77c0.54-0.37,0.97-0.85,1.15-1.49c0.1-0.33,0.12-0.66,0.04-1c-0.02-0.33-0.11-0.64-0.3-0.93
				c-0.34-0.53-0.86-1-1.49-1.15c-0.63-0.14-1.37-0.12-1.93,0.25c-0.04,0.03-0.08,0.04-0.12,0.07c0,0-0.01,0-0.02,0
				c-0.02-0.06-0.04-0.12-0.06-0.18c-0.08-0.33-0.23-0.61-0.45-0.85c-0.18-0.27-0.41-0.49-0.7-0.64c-0.54-0.31-1.33-0.45-1.93-0.25
				c-0.6,0.2-1.19,0.57-1.49,1.15c-0.08,0.2-0.17,0.4-0.25,0.6c-0.12,0.44-0.12,0.89,0,1.33
				C159.91,524.6,160.35,525.29,160.87,525.94z"/>
			<path class="st174" d="M84.44,527.36c0.11,0.28,0.22,0.57,0.36,0.84c0.2,0.37,0.47,0.72,0.77,1.01c0.75,0.75,1.78,1.21,2.84,1.22
				c0.06,0,0.12-0.01,0.18-0.01c0.25-0.03,0.52-0.05,0.76-0.11c0.3-0.07,0.59-0.21,0.86-0.35c0.22-0.1,0.42-0.27,0.61-0.43
				c0.17-0.06,0.46-0.18,0.61-0.26c0.04-0.02,0.07-0.04,0.1-0.06c0.44-0.28,0.7-0.56,1-0.99c0.15-0.22,0.26-0.49,0.34-0.74
				c0.08-0.27,0.12-0.58,0.12-0.85c0.01-0.28-0.04-0.56-0.12-0.83c-0.05-0.2-0.18-0.48-0.28-0.67c-0.02-0.04-0.04-0.07-0.06-0.11
				c-0.15-0.23-0.32-0.47-0.53-0.65c-0.16-0.14-0.37-0.31-0.55-0.42c-0.04-0.03-0.08-0.05-0.13-0.07c-0.29-0.18-0.6-0.28-0.93-0.3
				c-0.33-0.07-0.66-0.06-1,0.04c-0.41,0.11-0.85,0.38-1.17,0.72c-0.08-0.06-0.15-0.12-0.23-0.17c-0.29-0.18-0.6-0.28-0.93-0.3
				c-0.33-0.07-0.67-0.06-1,0.04c-0.6,0.2-1.19,0.57-1.49,1.15c-0.08,0.2-0.17,0.4-0.25,0.6c-0.12,0.44-0.12,0.89,0,1.33
				C84.37,527.13,84.4,527.24,84.44,527.36z"/>
			<path class="st174" d="M72.05,525.66c-0.23,0.39-0.34,0.81-0.34,1.26c-0.02,0.17-0.02,0.34,0,0.5c0.05,0.37,0.07,0.76,0.21,1.11
				c0.13,0.33,0.26,0.7,0.47,1c0.2,0.3,0.43,0.62,0.7,0.86c0.03,0.03,0.06,0.05,0.1,0.08c0.19,0.15,0.38,0.32,0.59,0.45
				c0.04,0.02,0.08,0.04,0.11,0.06c0.18,0.08,0.44,0.21,0.63,0.26c0.03,0.01,0.05,0.01,0.08,0.02c0.24,0.05,0.49,0.09,0.73,0.1
				c0.02,0,0.03,0,0.05,0c0.01,0,0.02,0,0.02,0c0.22-0.03,0.44-0.06,0.66-0.09c0.03-0.01,0.06-0.01,0.1-0.02
				c0.17-0.06,0.46-0.18,0.62-0.26c0.02-0.01,0.04-0.02,0.07-0.03c0.01-0.01,0.03-0.02,0.04-0.03c0.03-0.02,0.07-0.05,0.1-0.07
				c0.08-0.03,0.17-0.07,0.25-0.11c0.09-0.05,0.33-0.25,0.27-0.21c-0.07,0.05,0.19-0.14,0.27-0.21c0.19-0.18,0.35-0.39,0.47-0.61
				c0.05-0.09,0.14-0.33,0.14-0.32c0,0.01,0.1-0.22,0.14-0.32c0.04-0.13,0.05-0.3,0.06-0.41c0.02-0.13,0.05-0.26,0.05-0.4
				c0-0.11-0.05-0.37-0.05-0.37c-0.01-0.07-0.02-0.25-0.05-0.37c-0.01-0.03-0.02-0.06-0.03-0.09c-0.07-0.19-0.17-0.44-0.26-0.62
				c-0.01-0.02-0.02-0.03-0.03-0.05c-0.02-0.03-0.04-0.06-0.05-0.08c-0.14-0.19-0.29-0.39-0.45-0.58c-0.03-0.03-0.06-0.06-0.09-0.09
				c-0.15-0.2-0.31-0.39-0.49-0.57c-0.48-0.47-1.12-0.73-1.78-0.73c-0.06-0.03-0.11-0.06-0.17-0.08c-0.3-0.16-0.62-0.23-0.96-0.22
				c-0.22,0.03-0.44,0.06-0.66,0.09c-0.42,0.12-0.79,0.33-1.1,0.64C72.31,525.33,72.18,525.5,72.05,525.66z"/>
			<path class="st174" d="M70.83,520.41c0.33-0.02,0.64-0.11,0.93-0.3c0.17-0.13,0.34-0.26,0.51-0.39c0.31-0.31,0.52-0.68,0.64-1.1
				c0.03-0.2,0.05-0.4,0.08-0.6c0.01-0.05,0.04-0.09,0.05-0.13c0.1-0.33,0.12-0.66,0.04-1c-0.02-0.33-0.11-0.64-0.3-0.93
				c-0.13-0.17-0.26-0.34-0.39-0.51c-0.31-0.31-0.68-0.52-1.1-0.64c-0.22-0.03-0.44-0.06-0.66-0.09c-0.45,0-0.87,0.12-1.26,0.34
				c-0.19,0.13-0.37,0.27-0.54,0.42c-0.01,0.01-0.03,0.03-0.04,0.04c-0.08,0.09-0.17,0.22-0.23,0.29c-0.06,0.08-0.16,0.19-0.22,0.29
				c-0.01,0.02-0.02,0.03-0.03,0.05c-0.1,0.21-0.19,0.42-0.27,0.64c-0.01,0.03-0.02,0.07-0.03,0.1c-0.04,0.23-0.07,0.47-0.1,0.71
				c0,0.02,0,0.04,0,0.06c0,0.02,0,0.04,0,0.06c0.01,0.12,0.03,0.25,0.05,0.35c0.01,0.1,0.03,0.24,0.05,0.36
				c0.01,0.04,0.02,0.07,0.03,0.1c0,0.01,0.17,0.45,0.27,0.64c0.01,0.02,0.02,0.03,0.03,0.05c0.16,0.29,0.37,0.53,0.64,0.7
				c0.24,0.22,0.52,0.37,0.85,0.45C70.17,520.47,70.5,520.48,70.83,520.41z"/>
			<path class="st174" d="M401.21,544.2c-0.89-0.12-1.79-0.3-2.67-0.01c-0.89,0.29-1.53,0.87-2.11,1.58
				c-0.01,0.02-0.03,0.04-0.04,0.05c-0.58,0.33-1.13,0.7-1.63,1.07c-1.11-0.41-2.54-0.12-3.11,1.02c-0.7,1.4,0.34,3.57,0.34,3.57
				s10.76,0.44,11.19,0.05c0.22-0.2,0.43-0.42,0.61-0.66c0.23-0.27,0.43-0.57,0.59-0.88c0.07,0.03,0.15,0.05,0.22,0.08
				c0.01,0,0.01,0,0.02,0.01c0.27,0.13,0.53,0.26,0.78,0.41c0.08,0.05,0.82,0.56,0.41,0.24c1.03,0.8,2.55,1.08,3.54,0
				c0.82-0.9,1.1-2.68,0-3.54C406.93,545.31,404.18,544.61,401.21,544.2z"/>
			<path class="st174" d="M428.78,537.42c-1.31-0.3-2.71,0.39-3.08,1.75c-0.6,2.23-1.33,4.08-2.25,6.02
				c-0.16,0.33-0.34,0.66-0.41,1.03c-0.07,0.35-0.06,0.65-0.04,0.95c-0.86-0.29-1.8-0.04-2.54,0.59c-0.32,0.27-0.58,0.62-0.79,1
				c-0.01,0.01-0.01,0.02-0.02,0.02c-0.22,0.27-0.45,0.53-0.69,0.78c-0.41,0.45-0.84,0.88-1.28,1.29c-0.32,0.3-0.86,0.79-0.86,0.79
				l10.29-0.97c0,0,0.9-1.91,0.9-2.93c0-0.09-0.02-0.26-0.04-0.45c0.18-0.37,0.35-0.74,0.52-1.11c0.82-1.84,1.51-3.73,2.03-5.68
				C430.86,539.23,430.1,537.72,428.78,537.42z"/>
		</g>
		<path class="st175" d="M59.44,535.91c0,0-7.34,16.64,17.17,16.64h343.72c0,0,11.04,0.59,15.9-5.3c0,0,3.83-1.77,0.74-13.1
			c0,0,4.71,15.61-16.49,15.61s-345.42,0-345.42,0S58.7,551.22,59.44,535.91z"/>
		<path class="st38" d="M67.39,492.49c0,0-0.74,12.22,9.28,12.22s341.74,0,341.74,0s10.31-0.59,10.45-11.34
			c0,0-0.29,8.39-11.93,8.39H78.12c-1.57,0-3.12-0.36-4.5-1.12C71.38,499.43,68.44,497.01,67.39,492.49z"/>
		<polygon class="st18" points="229.35,489.36 266.24,489.36 265.47,474.23 264.47,487.49 231.01,487.49 230.79,472.69 		"/>
		<polygon class="st18" points="246.14,474.23 246.03,469.37 249.67,469.15 		"/>
		<path class="st176" d="M120.03,425.76c0,0,6.07-7.95,10.82-7.95c4.75,0,10.82-0.99,10.93-4.42s-2.43-7.29,0.11-9.17
			c2.54-1.88,3.98,0.22,6.85-2.32c2.87-2.54,5.85-7.84,5.85-7.84h-8.28c0,0-4.42-0.33-7.62,6.07L120.03,425.76z"/>
		<path class="st176" d="M132.29,444.97c0,0-4.64,1.33-4.53,0c0.11-1.33,1.1-7.18,0.33-8.83c-0.77-1.66-1.88-3.09,1.21-3.87
			c3.09-0.77,5.19,1.55,6.18,1.44s7.62-6.07,7.73-5.41C143.33,428.96,132.29,444.97,132.29,444.97z"/>
		<path class="st176" d="M89,468.71c0,0,7.4-1.77,8.06,0.44c0.66,2.21-2.65,6.4-2.65,6.4l6.85,2.54c0,0,0.99,5.41-2.32,5.19
			s-0.77-4.97-5.74-5.19c-4.97-0.22-3.31-3.64-5.3-3.75c-1.99-0.11-4.31,1.77-4.31,1.77L89,468.71z"/>
		<path class="st176" d="M365.29,410.07c0,0,6.4,6.52,5.3,13.58c-1.1,7.07-4.86,11.48-1.55,15.79c3.31,4.31,8.17,10.82,11.37,10.49
			s5.74-2.21,7.84,0c2.1,2.21,8.94,12.37,17.01,15.57L365.29,410.07z"/>
		<path class="st176" d="M341.55,394.06c0,0,1.55,3.75,5.63,5.41c4.09,1.66,4.2-5.3,4.2-5.3L341.55,394.06z"/>
		<path class="st177" d="M110.83,492.64c0,0,15.61-5.3,30.04-3.53L110.83,492.64z"/>
		<path class="st177" d="M112.59,441.22c0,0,12.55-4.26,24.15-2.84L112.59,441.22z"/>
		<path class="st177" d="M346.41,497.22c0,0,38.1-14.66,73.33-9.77L346.41,497.22z"/>
		<g>
			<path d="M427.26,487.44c0.85,1.13,1.58,3.47,1.69,4.69l0.03,0.2l9.28,48.23l0.02,0.12l1.99-0.36l-1.99,0.36
				c0.06,0.35,0.09,0.69,0.09,1.03c0,0.49-0.06,0.97-0.19,1.43l-0.05,0.31c-0.15,1.41-0.51,2.07-0.71,2.36
				c-0.08,0.11-0.14,0.17-0.17,0.2c-0.21,0.12-0.4,0.28-0.55,0.47c-0.81,0.99-1.88,1.79-3.1,2.43c-1.83,0.96-4.01,1.53-5.96,1.84
				c-1.95,0.31-3.67,0.37-4.6,0.37c-0.25,0-0.44,0-0.57-0.01l-0.14,0h-0.03l0,0l-0.11,0H74.85c-0.01,0-0.02,0-0.03,0
				c-6.32,0-10.24-1.16-12.56-2.62c-1.17-0.73-1.95-1.53-2.51-2.36c-0.56-0.83-0.89-1.7-1.08-2.6l-0.04-0.15
				c-0.15-0.52-0.23-1.06-0.23-1.6c0-0.34,0.03-0.68,0.1-1.02l0-0.01l0.02-0.08l0.02-0.17c0.09-0.88,0.26-1.66,0.43-2.25l0.04-0.17
				l0.51-2.63c0.02-0.1,0.03-0.19,0.03-0.29l8.26-42.81l0.03-0.2c0.24-2.22,1.98-4.87,3.45-6.78c0,0,66.35-88.74,66.99-89.6
				l-72.3,90.39c-1.28,1.71-1.98,3.63-2.16,5.52l-8.31,43.09c-0.02,0.1-0.03,0.19-0.03,0.28l-0.42,2.17
				c-0.21,0.74-0.42,1.69-0.54,2.78l0,0.01l0-0.01c-0.11,0.6-0.17,1.19-0.17,1.78c0,0.9,0.13,1.79,0.37,2.64
				c0.28,1.31,0.8,2.67,1.67,3.96c1.32,1.97,3.43,3.7,6.43,4.89c3.01,1.19,6.91,1.87,12.02,1.87h347.26c0.1,0,0.43,0.02,0.92,0.02
				c1.45,0,4.37-0.1,7.57-0.88c1.6-0.39,3.27-0.95,4.86-1.79c1.5-0.78,2.94-1.82,4.14-3.19c0.32-0.23,0.72-0.6,1.11-1.14
				c0.64-0.89,1.21-2.24,1.42-4.14c0.18-0.75,0.28-1.52,0.28-2.3c0-0.55-0.05-1.11-0.14-1.66l0-0.02l-0.02-0.15l-9.28-48.22
				c-0.19-1.89-0.88-3.81-2.16-5.51l-72.87-91.22L427.26,487.44z"/>
		</g>
	</g>
	<path class="st18" d="M76.08,504.42h344.83c0,0-77.45,3.24-174.04,3.24S76.08,504.42,76.08,504.42z"/>
	<polygon class="st48" points="426.21,501.18 433.58,541.23 431.07,543.44 424.01,502.95 	"/>
	<polygon class="st48" points="70.19,502.06 62.83,542.11 65.33,544.32 72.4,503.83 	"/>
	<path class="st178" d="M110.31,439.12l-36,49.03c0,0-2.43,9.06,5.96,9.06h337.03c0,0,9.72-2.21,3.31-10.82
		s-35.78-49.03-35.78-49.03l32.47,49.47c0,0,3.53,6.4-2.43,6.4H82.93c0,0-5.96,0.22-3.98-4.2L110.31,439.12z"/>
	<path class="st179" d="M75.64,365.57c0,0,1.55,10.23,1.33,12.81c-0.22,2.58-0.07,4.79,0.52,6.11s1.84,8.76,1.4,11.26l1.91,5.74
		c0,0-1.18-10.16-0.66-11.04c0.52-0.88,2.36,0.29,2.43,1.84c0.07,1.55-0.81,6.33,0.44,8.02s4.05,4.49,4.34,5.52
		c0.29,1.03,0.66,9.06,0.07,11.71l2.21,6.4c0,0,1.77-4.05,1.4-7.58c-0.37-3.53-2.28-10.67-2.65-13.18
		c-0.37-2.5-0.29-7.88-0.96-10.38c-0.66-2.5-1.4-4.86,0-7.14c1.4-2.28,3.17-4.56,4.05-2.36c0.88,2.21,0.81,3.53,1.03,6.99
		c0.22,3.46-0.96,4.79,0.81,7.36c1.77,2.58,1.84,2.13,2.58,5.45s-0.88,4.93,1.03,3.68c1.91-1.25,1.99-3.24,1.03-5.23
		s-1.77-1.47-2.28-4.27c-0.52-2.8-0.29-3.98-0.22-5.52c0.07-1.55,0.07-1.91,0.22-3.68s-0.29-2.06-0.15-3.75
		c0.15-1.69,0.29-2.43,1.62-2.13c1.33,0.29,2.72,2.06,3.31,3.17c0.59,1.1,1.69,2.87,2.72,2.28s1.84,0.15,2.72-0.74
		c0.88-0.88,1.4-2.43,1.03-3.83s-0.74-3.9-0.74-3.9l1.84-2.21l2.21-0.22l1.84-1.77c0,0,0.22-2.06,1.62-1.84s8.61-4.05,9.94-2.5
		c1.33,1.55,1.62,4.56,1.62,4.56l-1.03,4.05c0,0,0.22,1.1,0.88,2.87c0.66,1.77,1.1,2.36,1.03,4.05c-0.07,1.69-1.18-0.44-0.07,4.71
		s0.37,5.08,0.59,6.63c0.22,1.55,1.1,3.02,2.21,2.43s2.87-2.94,1.55-5.74c-1.33-2.8-2.5-5.96-2.87-9.79
		c-0.37-3.83-0.37-5.37-0.29-7.44c0.07-2.06,0.22-6.7,0.22-6.7s0.52-2.94,1.62-2.94s2.13,1.25,2.13,1.25l1.77-0.88
		c0,0,0.88-1.33,0.29-2.43c-0.59-1.1,0.07-3.02,0.07-3.02l1.69-3.24l-49.77,20.02c0,0-3.83,1.33-5.15-2.43L75.64,365.57z"/>
	<path class="st180" d="M66.8,355.56l122.88-49.85c0.7-0.29,1.51,0.01,1.86,0.68l7.92,15.01l-9.32-10.82
		c-0.41-0.48-1.09-0.65-1.68-0.4C179.18,313.99,107.29,343.3,66.8,355.56z"/>
	<path class="st181" d="M82.85,375.58l-0.19-0.52l-5.32-14.11c-0.21-0.54,0.07-1.15,0.61-1.36l57.45-22.38
		c0.51-0.2,1.1,0.03,1.34,0.53l6.79,13.99l-7.63-11.79c-0.27-0.42-0.81-0.6-1.28-0.41l-53.6,21.01c-0.47,0.18-0.75,0.68-0.66,1.18
		L82.85,375.58z"/>
	<circle class="st182" cx="88.15" cy="363.8" r="3.39"/>
	<circle class="st182" cx="130.7" cy="347.17" r="3.39"/>
	<circle class="st183" cx="110.31" cy="355.78" r="4.64"/>
	<path class="st184" d="M123.78,267.51c0,0,7.66-1.03,7.07,5.3c-0.59,6.33-2.36,26.36-2.36,26.36s-0.44,6.04-6.63,5.74
		c-6.18-0.29-48-2.8-48-2.8s-3.83-0.29-3.53-5.89s3.53-24.59,3.53-24.59s0.29-5.6,6.77-5.45L123.78,267.51z"/>
	<path class="st185" d="M76.85,301.41c0,0-6.29,0.66-5.63-5.96l3.64-22.64c0,0-0.22-5.85,6.96-5.52l42.85,1.21
		c0,0,5.52,0.11,5.19,4.86C129.86,273.36,92.42,272.04,76.85,301.41z"/>
	<path class="st186" d="M72.66,292.25l3.42-20.36c0.38-2.25,2.37-3.88,4.65-3.8l35.76,0.97C116.5,269.06,77.07,268.17,72.66,292.25z
		"/>
	<path class="st187" d="M97.61,303.73l27.83,1.66l3.87-4.2l1.21-18.77C130.52,282.42,104.9,285.62,97.61,303.73z"/>
	<path class="st188" d="M101.04,303.84l20.34,0.85c3.34,0.14,6.21-2.34,6.56-5.67l1.37-13.19
		C129.31,285.84,112.19,287.17,101.04,303.84z"/>
	<g>
		<polygon class="st186" points="80.28,271.37 83.37,271.37 82.82,276.79 79.72,276.57 		"/>
		<g>
			<path class="st186" d="M84.81,273.18l1.49,0.05l-0.01,0.3l-1.13-0.04l-0.03,0.92l1.05,0.04l-0.01,0.3l-1.05-0.04l-0.04,1.25
				l-0.36-0.01L84.81,273.18L84.81,273.18z"/>
			<path class="st186" d="M86.81,273.25l0.36,0.01l-0.08,2.46l1.18,0.04l-0.01,0.3l-1.54-0.05L86.81,273.25L86.81,273.25z"/>
			<path class="st186" d="M90.13,274.83l-1.07-0.04l-0.03,1l1.2,0.04l-0.01,0.3l-1.55-0.05l0.09-2.76l1.49,0.05l-0.01,0.3
				l-1.14-0.04l-0.03,0.87l1.07,0.04L90.13,274.83L90.13,274.83z"/>
			<path class="st186" d="M90.76,273.38l1.49,0.05l-0.01,0.3l-1.13-0.04l-0.03,0.92l1.05,0.04l-0.01,0.3l-1.05-0.04l-0.04,1.25
				l-0.36-0.01L90.76,273.38L90.76,273.38z"/>
			<path class="st186" d="M93.8,273.58l-0.41,0.51l0.62-0.06L94,274.3l-0.62-0.09l0.38,0.51l-0.26,0.14l-0.23-0.58l-0.01,0
				l-0.29,0.57l-0.23-0.16l0.41-0.5l-0.61,0.06l0.01-0.28l0.6,0.1l-0.37-0.52l0.25-0.14l0.24,0.58l0.01,0l0.27-0.57L93.8,273.58
				L93.8,273.58z"/>
			<path class="st186" d="M94.94,276.64l0.01-0.41l-0.62-0.2l0.11-0.27l0.58,0.2l0.5-0.39l-1.1-1.24l0.66-1.05l0.25,0.01l-0.01,0.4
				l0.53,0.16l-0.11,0.27l-0.51-0.16l-0.45,0.34l1.1,1.26l-0.69,1.1L94.94,276.64L94.94,276.64z"/>
			<path class="st186" d="M97.34,273.52l-0.11,3.34l-0.28-0.01l0.11-3.34L97.34,273.52L97.34,273.52z"/>
			<path class="st186" d="M97.71,276.38l0.13-0.8l-0.34-0.01l0.01-0.24l0.37,0.01l0.1-0.59l-0.35-0.01l0.01-0.24l0.39,0.01
				l0.13-0.78l0.24,0.01l-0.13,0.78l0.43,0.01l0.13-0.78l0.24,0.01l-0.13,0.78l0.34,0.01l-0.01,0.24l-0.37-0.01l-0.09,0.59
				l0.35,0.01l-0.01,0.24l-0.39-0.01l-0.13,0.8l-0.25-0.01l0.13-0.8l-0.43-0.01l-0.13,0.8L97.71,276.38L97.71,276.38z M98.56,275.37
				l0.1-0.59l-0.43-0.01l-0.1,0.59L98.56,275.37L98.56,275.37z"/>
			<path class="st186" d="M101.51,276.77l-0.74,0.14l-1.2-1.32l1.55-1.52l1.15,1.23l-0.76,0.95l-0.29-0.37l-0.61,0.34l-0.43-0.53
				l1-0.94l0.44,0.1l-0.06,1.2l0.47-0.74l-0.96-1.05l-1.28,1.32l1.02,1.14l0.62-0.12L101.51,276.77L101.51,276.77z M101.34,274.99
				l-0.2-0.04l-0.68,0.72l0.26,0.32L101.34,274.99L101.34,274.99z"/>
			<path class="st186" d="M104.64,276.53l-0.73,0.11l-1.32-1.44l1.49-1.4l0.65,0.15l-0.1,0.29l-0.55-0.13l-1.12,1.1l1.02,1.15
				l0.59-0.1L104.64,276.53L104.64,276.53z"/>
			<path class="st186" d="M105.18,273.87l0.36,0.01l-0.08,2.46l1.18,0.04l-0.01,0.3l-1.54-0.05L105.18,273.87L105.18,273.87z"/>
			<path class="st186" d="M107.12,273.93l0.36,0.01l-0.08,2.46l1.18,0.04l-0.01,0.3l-1.54-0.05L107.12,273.93L107.12,273.93z"/>
			<path class="st186" d="M109.05,274l0.36,0.01l-0.08,2.46l1.18,0.04l-0.01,0.3l-1.54-0.05L109.05,274L109.05,274z"/>
			<path class="st186" d="M110.99,274.06l1.49,0.05l-0.01,0.3l-1.13-0.04l-0.03,0.92l1.05,0.04l-0.01,0.3l-1.05-0.04l-0.04,1.25
				l-0.36-0.01L110.99,274.06L110.99,274.06z"/>
		</g>
	</g>
	<g>
		<polygon class="st18" points="79.94,270.93 83.04,270.93 82.48,276.34 79.39,276.12 		"/>
		<g>
			<path class="st18" d="M84.48,272.74l1.49,0.05l-0.01,0.3l-1.13-0.04l-0.03,0.92l1.05,0.04l-0.01,0.3l-1.05-0.04l-0.04,1.25
				l-0.36-0.01L84.48,272.74L84.48,272.74z"/>
			<path class="st18" d="M86.48,272.81l0.36,0.01l-0.08,2.46l1.18,0.04l-0.01,0.3l-1.54-0.05L86.48,272.81L86.48,272.81z"/>
			<path class="st18" d="M89.8,274.39l-1.07-0.04l-0.03,1l1.2,0.04l-0.01,0.3l-1.55-0.05l0.09-2.76l1.49,0.05l-0.01,0.3l-1.14-0.04
				l-0.03,0.87l1.07,0.04L89.8,274.39L89.8,274.39z"/>
			<path class="st18" d="M90.43,272.94l1.49,0.05l-0.01,0.3l-1.13-0.04l-0.03,0.92l1.05,0.04l-0.01,0.3l-1.05-0.04l-0.04,1.25
				l-0.36-0.01L90.43,272.94L90.43,272.94z"/>
			<path class="st18" d="M93.47,273.14l-0.41,0.51l0.62-0.06l-0.01,0.28l-0.62-0.09l0.38,0.51l-0.26,0.14l-0.23-0.58l-0.01,0
				l-0.29,0.57l-0.23-0.16l0.41-0.5l-0.61,0.06l0.01-0.28l0.6,0.1l-0.37-0.52l0.25-0.14l0.24,0.58l0.01,0l0.27-0.57L93.47,273.14
				L93.47,273.14z"/>
			<path class="st18" d="M94.61,276.2l0.01-0.41l-0.62-0.2l0.11-0.27l0.58,0.2l0.5-0.39l-1.1-1.24l0.66-1.05l0.25,0.01l-0.01,0.4
				l0.53,0.16l-0.11,0.27l-0.51-0.16l-0.45,0.34l1.1,1.26l-0.69,1.1L94.61,276.2L94.61,276.2z"/>
			<path class="st18" d="M97.01,273.08l-0.11,3.34l-0.28-0.01l0.11-3.34L97.01,273.08L97.01,273.08z"/>
			<path class="st18" d="M97.38,275.94l0.13-0.8l-0.34-0.01l0.01-0.24l0.37,0.01l0.1-0.59l-0.35-0.01l0.01-0.24l0.39,0.01l0.13-0.78
				l0.24,0.01l-0.13,0.78l0.43,0.01l0.13-0.78l0.24,0.01l-0.13,0.78l0.34,0.01l-0.01,0.24l-0.37-0.01l-0.09,0.59l0.35,0.01
				l-0.01,0.24l-0.39-0.01l-0.13,0.8l-0.25-0.01l0.13-0.8l-0.43-0.01l-0.13,0.8L97.38,275.94L97.38,275.94z M98.23,274.92l0.1-0.59
				l-0.43-0.01l-0.1,0.59L98.23,274.92L98.23,274.92z"/>
			<path class="st18" d="M101.18,276.33l-0.74,0.14l-1.2-1.32l1.55-1.52l1.15,1.23l-0.76,0.95l-0.29-0.37l-0.61,0.34l-0.43-0.53
				l1-0.94l0.44,0.1l-0.06,1.2l0.47-0.74l-0.96-1.05l-1.28,1.32l1.02,1.14l0.62-0.12L101.18,276.33L101.18,276.33z M101.01,274.55
				l-0.2-0.04l-0.68,0.72l0.26,0.32L101.01,274.55L101.01,274.55z"/>
			<path class="st18" d="M104.31,276.08l-0.73,0.11l-1.32-1.44l1.49-1.4l0.65,0.15l-0.1,0.29l-0.55-0.13l-1.12,1.1l1.02,1.15
				l0.59-0.1L104.31,276.08L104.31,276.08z"/>
			<path class="st18" d="M104.85,273.43l0.36,0.01l-0.08,2.46l1.18,0.04l-0.01,0.3l-1.54-0.05L104.85,273.43L104.85,273.43z"/>
			<path class="st18" d="M106.78,273.49l0.36,0.01l-0.08,2.46l1.18,0.04l-0.01,0.3l-1.54-0.05L106.78,273.49L106.78,273.49z"/>
			<path class="st18" d="M108.72,273.56l0.36,0.01l-0.08,2.46l1.18,0.04l-0.01,0.3l-1.54-0.05L108.72,273.56L108.72,273.56z"/>
			<path class="st18" d="M110.66,273.62l1.49,0.05l-0.01,0.3l-1.13-0.04l-0.03,0.92l1.05,0.04l-0.01,0.3l-1.05-0.04l-0.04,1.25
				l-0.36-0.01L110.66,273.62L110.66,273.62z"/>
		</g>
	</g>
	<path class="st181" d="M56.35,319.34l9.85-60.26c0.18-1.07,1.12-1.85,2.21-1.83l70.62,1.65c0,0-0.37,1.69-4.93,1.69
		c-4.1,0-53.19-1.26-63.98-1.57c-1.1-0.03-2.04,0.76-2.21,1.84l-8.31,52.96C59.59,313.82,59.29,316.69,56.35,319.34z"/>
	<circle class="st189" cx="71.11" cy="312.82" r="1.51"/>
	<circle class="st189" cx="90.91" cy="314.15" r="1.51"/>
	<circle class="st189" cx="110.86" cy="315.47" r="1.51"/>
	<circle class="st189" cx="101.37" cy="314.66" r="1.51"/>
	<path class="st190" d="M55.65,327.36c0,0,3.53,3.75,7.07,5.3l24.18,11.37l32.25-12.7L55.65,327.36z"/>
	<path class="st191" d="M207.42,330.09l33.28,2.94c0,0-5.15,9.57,2.65,16.49c0,0,16.05-2.36,26.21,15.46
		c10.16,17.82,12.22,26.06,12.22,26.06l-55.51,0.15l-0.37-17.3c0,0,4.71-0.59,1.33-6.77C223.83,360.93,207.42,330.09,207.42,330.09z
		"/>
	<circle class="st192" cx="329.7" cy="367.56" r="3.9"/>
	<circle class="st192" cx="361.06" cy="370.5" r="3.9"/>
	<circle class="st192" cx="390.21" cy="375.36" r="3.9"/>
	<path class="st193" d="M283.1,191.83c0,0,38.87,0.29,93.2,4.42c46.6,3.54,76.52,8.37,84.09,9.68c1.08,0.19,1.82,1.2,1.66,2.28
		c-0.55,3.78-2.25,12.11-6.83,16.02c0,0,6.06-11.38,3.1-15.43c-0.43-0.59-1.11-0.92-1.83-1.04c-3.57-0.59-18.98-3.05-39.41-4.87
		c-47.85-4.12-101.06-7.46-125.3-8.54c-6.54-0.29-8.01,1.63-8.39,1.91C283.39,196.25,280.59,191.83,283.1,191.83z"/>
	<path class="st193" d="M306.6,170.11c0,0,20.52,9.13,68.08,9.72v1.69C374.68,181.52,325.87,180.99,306.6,170.11z"/>
	<polygon class="st193" points="377.48,201.99 373.94,201.55 366.14,280.91 370.12,281.64 	"/>
	<path class="st193" d="M380.86,162.82l-2.48,32.19l-3.37-0.28l3.06-30.88c0,0,0.15-2.06-1.47-1.33
		C376.59,162.53,379.1,160.47,380.86,162.82z"/>
	<path class="st193" d="M442.82,190.76c0,0,4.36-3.92,1.99-4.91s-65.65-3.87-65.65-3.87l0.22-1.88c0,0,60.18,2.71,67.86,4.58
		C447.23,184.69,450.71,186.9,442.82,190.76z"/>
	<path class="st194" d="M339.78,315.22c0,0,1.62-23.85,14.43-26.8c0,0,3.09-6.48,15.31-5.01c4.8,0.58,16.79,5.15,20.32,10.45
		c4.27,7.36,2.8,19.44,2.36,25.77C372.18,316.84,339.78,315.22,339.78,315.22z"/>
	<path class="st195" d="M312.84,352.76l27.98-23.56c0,0,17.96-4.27,43.73,3.68c0,0-27.39-1.47-42.85,5.01
		c-15.46,6.48-14.87,13.1-14.87,13.1l10.9-0.59c0,0,5.6,4.86,1.91,19.58c-3.68,14.72-5.3,21.06-5.3,21.06l-26.36-0.15L312.84,352.76
		z"/>
	<path class="st195" d="M316.67,319.49l9.42-24.44c0,0,3.55-6.98,12.01-8.94s18.62-4.9,25.69-4.76c0,0-17.96,3.68-20.61,9.13
		c-2.65,5.45-7.07,24.44-7.07,24.44S322.12,315.36,316.67,319.49z"/>
	<path class="st196" d="M347.59,349.23c0,0,25.91-0.88,49.03,6.63c-0.74,0.15-16.34-21.5-16.34-21.5s-15.9-1.03-28.27,2.8
		C352.01,337.15,347.29,343.63,347.59,349.23z"/>
	<path class="st197" d="M360.99,290.04c0,0,1.33-4.86,8.69-4.42c7.36,0.44,14.13,7.07,14.13,7.07s5.6,4.27,3.39,25.18l-25.77-2.94
		C361.43,314.92,365.4,298.72,360.99,290.04z"/>
	<path class="st198" d="M410.75,361.01l-9.72,86.58l6.63-85.55c0,0-44.91-14.58-95.12-7.8l0.29-1.47l1.91-1.47
		c0,0,49.47-8.83,93.35,6.77L410.75,361.01z"/>
	<path class="st199" d="M411.05,326.55c0,0-7.36-3.39-20.91-5.3c-13.55-1.91-59.49-8.54-73.47-1.77l24.15,9.72l3-0.35
		c0,0-11.83-4.21-11.25-5.54c0.59-1.33,3.39-2.06,5.15-1.03s3.53,0,6.77-0.59s7.66,0.29,8.25,2.36c0.59,2.06,4.86,1.18,7.95,2.06
		c3.09,0.88,1.9,2.52,1.9,2.52l2.93,0.28c0,0-1.29-6.92,1.95-7.51s7.66,0.15,7.95,1.77c0.29,1.62,1.91,4.12,3.09,2.94
		s3.39-4.56,6.04-3.83c2.65,0.74,11.93-1.62,8.54,3.09c-3.39,4.71-9.57,3.68-8.39,4.86c1.18,1.18,10.01-4.86,12.22-4.42
		c2.21,0.44,6.04,2.76,6.04,2.76L411.05,326.55z"/>
	<path class="st199" d="M362.92,328.52c0,0-1.77,6.92-2.5,8.1c-0.74,1.18-3.53,1.33-5.01,3.68c-1.47,2.36-1.03,2.5-2.36,4.27
		s0.15,3.83,0.88,2.5c0.74-1.33,1.18-6.48,3.39-7.36s5.89-2.06,6.18-3.24c0.29-1.18,1.84-7.73,1.84-7.73L362.92,328.52z"/>
	<path class="st199" d="M343.82,328.85c0,0-2.1,0.22-3,0.35c-2.05,2.57,4.82-0.9-6.48,11.48c-1.33,1.62-6.77,4.42-7.66,5.89
		c-0.88,1.47,0,3.68-1.91,4.71c-1.91,1.03-2.5,9.72-2.5,9.72s-1.03,8.54-1.62,11.34s-1.33,6.63-2.94,8.83s-2.21,10.16-2.21,10.16
		h4.12c0,0,0.88-12.96,1.77-13.84c0.88-0.88,3.09-0.44,3.24,0.88c0.15,1.33-1.62,3.39-1.18,5.15s1.62,3.24,1.62,4.42
		s-0.59,3.98,0.59,2.94s-0.74-7.21-0.29-8.39c0.44-1.18,1.62-5.01,1.18-6.18c-0.13-0.36-0.24-1.57-0.31-3.18
		c-2.06-1.49-3.5-6.07-0.41-9.05c0.06-1.23,0.59-2.14,0.72-2.93c0.59-3.68,1.91-7.95,3.53-7.66c1.62,0.29,2.06,2.36,3.39,2.65
		c1.33,0.29,1.47-2.65,2.65-2.8s3.53,1.47,3.39,3.68s-1.77,6.92-1.62,9.72s2.36,2.65,2.21,1.62s0.29-8.69,0.44-9.72
		s1.36-8.04,1.36-8.04s-6.7-0.26-9.5-0.11s0.48-3.63,3.28-4.51C338.46,345.1,344.99,331.8,343.82,328.85z"/>
	<path class="st199" d="M377.39,353.26c0,0,2.74,9.52,3.04,10.4c0.29,0.88-0.15,5.89-0.74,7.95c-0.59,2.06-2.65,9.28-2.06,11.93
		s2.8,11.93,2.8,8.25c0-3.68,0.59-7.07,0.15-9.13c-0.44-2.06,0.74-1.18,2.94,1.18c2.21,2.36,3.24,7.8,3.24,7.8s0.29,1.18-1.18,6.77
		c-1.47,5.6-2.06,7.95-1.47,10.9s0.29,7.07,2.36,8.98c2.06,1.91,2.94,0.74,2.94,0.74l-0.29-6.18c0,0-1.62-6.63-1.62-8.25
		s0.59-7.95,0.59-7.95s0.59-6.63,0.29-7.95c-0.29-1.33-1.33-7.21,0.88-5.6s0.88,3.83,2.5,4.42c1.62,0.59,3.24-0.59,3.09-1.91
		c-0.15-1.33-1.18-3.09-1.18-3.09s2.3-1.62,2.6-4.12c-0.77,2.37-6.51,5.93-10.6,0.77c-2.8-5.45,2.43-8.72,2.43-8.72
		s-1.05-4.12-0.31-6.77c0.74-2.65,3.52-7.8,3.52-7.8L377.39,353.26z"/>
	<path class="st199" d="M344.64,284.74c0,0-5.89,8.1-3.98,9.42c1.91,1.33,1.62-3.39,3.98-5.15c2.36-1.77,4.42-1.91,6.77-2.65
		c2.36-0.74,6.48-3.68,8.83-2.94c2.36,0.74,10.55,0.11,11.28-1.21c-6.57-1.33-3.92-8.06-3.92-8.06l1.33-11.48
		c0,0,0.44-11.63-0.59-9.87c-1.03,1.77-1.33,8.39-1.03,9.42c0.29,1.03-1.03,12.37-1.62,13.69s-3.11,5.74-3.11,5.74
		C357.21,281.84,351.34,282.71,344.64,284.74z"/>
	<path class="st75" d="M312.84,352.76l-4.86,38.13l21.87-0.15l5.96-40.64c0,0,12.88-21.87,48.74-17.23l26.5-6.33
		c0,0-12.74-9.13-80.1-9.57c0,0,5.96-23.63,8.17-27.17c2.21-3.53,24.66-8.47,24.66-8.47s-15.89,0.61-25.69,4.76
		s-11.34,7.02-11.34,7.02l-10.09,26.36l22.68,10.31L312.84,352.76z"/>
	<path class="st191" d="M206.61,328.91l22.09,40.42l3.98-18.77c0,0-4.2-10.82-0.66-19.21L206.61,328.91z"/>
	<path class="st88" d="M243.05,331.01l8.28-31.14c0,0,4.09-2.87,8.72,2.32c4.64,5.19,2.43,11.04,2.43,11.04l-8.5,18.99
		L243.05,331.01z"/>
	<path class="st88" d="M268.78,281.98l26.72-17.23c0,0,6.52,3.42,8.72,11.93l-22.86,16.23C281.37,292.91,278.5,286.39,268.78,281.98
		z"/>
	<path class="st200" d="M296.16,251.39l5.19,8.5l7.51,0.11l-2.65-5.96l-0.22-7.4c0,0,4.42-5.34,9.94-5.48
		c0.44-0.15,9.61,1.18,9.61,1.18l1.55-10.49c0,0-16.9,0.11-21.53,1.88C305.55,233.72,299.48,238.25,296.16,251.39z"/>
	<path class="st201" d="M318.14,267.18c0,0,3.42,1.88,7.73-0.33s6.52-7.07,6.52-7.07l4.64,2.21c0,0-3.64,5.96-9.28,7.73
		c-5.63,1.77-10.6,0.11-10.6,0.11L318.14,267.18z"/>
	<polygon class="st201" points="298.26,263.31 302.68,267.4 312.62,261.99 301.58,262.1 	"/>
	<path class="st201" d="M266.13,281.76c0,0,4.86,0.66,10.6,5.52l22.97-16.79l-6.96-5.96L266.13,281.76z"/>
	<path class="st201" d="M252.43,284.41c0,0,2.1-2.1,9.72-0.33c7.62,1.77,15.57,6.85,15.9,14.36
		C278.05,298.43,271.76,288.38,252.43,284.41z"/>
	<path class="st201" d="M248.35,288.49c0,0,9.61-0.99,20.76,6.74c11.15,7.73,3.75,14.8,3.75,14.8l-4.86,1.33
		c0,0,3.64-6.96-2.32-12.7c-5.96-5.74-18.77-6.52-18.77-6.52L248.35,288.49z"/>
	<path class="st201" d="M247.24,325.93c0.11-0.44,6.4-23.63,6.4-23.63s6.52-0.55,7.51,8.28l-6.96,16.23L247.24,325.93z"/>
	<polygon class="st201" points="296.05,191.87 377.33,196.17 462.25,206 461.04,207.77 376.23,197.94 294.4,193.3 	"/>
	<path class="st201" d="M375.89,205.78c-0.11,0.33-5.96,73.77-5.96,73.77l-2.1-2.65l3.98-48.04l1.77-8.72L375.89,205.78z"/>
	<path class="st202" d="M66.03,403.23c0,0-13.03,8.06-5.08,18.88s31.69,30.15,31.69,30.15l-3.2,3.98c0,0-23.74-18-32.36-31.58
		c0,0-5.85-7.62-0.66-16.79c3.42-5.52,7.51-8.72,7.51-8.72L66.03,403.23z"/>
	<path class="st72" d="M66.58,412.84c0,0,2.43-13.25-8.5-16.01l7.62-8.5c0,0,3.53,15.13,7.07,19.88
		C72.77,408.2,67.58,410.41,66.58,412.84z"/>
	<path class="st203" d="M71.22,403.01c0,0,4.2,1.33,3.98-3.87c-0.22-5.19-7.07-20.32-7.07-20.32l1.33-2.87l14.25,39.42l-8.94-4.53
		L71.22,403.01z"/>
	<path class="st181" d="M204.42,352.85l-25.54,11.48c-1.5,0.67-3.28,0.01-3.95-1.48l-15.62-34.63c-0.62-1.38,0.06-3.01,1.51-3.63
		l24.73-10.57c1.42-0.61,3.11-0.01,3.77,1.33l16.47,33.67C206.5,350.47,205.88,352.19,204.42,352.85z"/>
	<path class="st203" d="M202.46,351.8l-23.73,10.66c-1.39,0.63-3.05,0.01-3.67-1.37l-14.51-32.16c-0.58-1.28,0.06-2.8,1.41-3.37
		l22.97-9.82c1.32-0.56,2.89-0.01,3.5,1.24l15.3,31.28C204.39,349.59,203.82,351.19,202.46,351.8z"/>
	<path class="st196" d="M190.19,319.78l14.43,28.86c0,0,0.74,2.06-1.62,3.83c-2.36,1.77-24.29,10.6-24.29,10.6s-0.5,2.08-3.64-1.98
		C175.07,361.09,202.41,354.53,190.19,319.78z"/>
	<g class="st204">
		<path class="st181" d="M187.4,320.9l-22.96,9.76c-0.63,0.27-1.37-0.03-1.64-0.66l0,0c-0.27-0.63,0.03-1.37,0.66-1.64l22.96-9.76
			c0.63-0.27,1.37,0.03,1.64,0.66l0,0C188.33,319.9,188.03,320.63,187.4,320.9z"/>
		<path class="st181" d="M189.31,324.88l-22.96,9.76c-0.63,0.27-1.37-0.03-1.64-0.66v0c-0.27-0.63,0.03-1.37,0.66-1.64l22.96-9.76
			c0.63-0.27,1.37,0.03,1.64,0.66l0,0C190.24,323.87,189.94,324.61,189.31,324.88z"/>
		<path class="st181" d="M191.23,329l-22.96,9.76c-0.63,0.27-1.37-0.03-1.64-0.66l0,0c-0.27-0.63,0.03-1.37,0.66-1.64l22.96-9.76
			c0.63-0.27,1.37,0.03,1.64,0.66l0,0C192.16,327.99,191.86,328.73,191.23,329z"/>
		<path class="st181" d="M193.29,332.98l-22.96,9.76c-0.63,0.27-1.37-0.03-1.64-0.66l0,0c-0.27-0.63,0.03-1.37,0.66-1.64l22.96-9.76
			c0.63-0.27,1.37,0.03,1.64,0.66l0,0C194.22,331.97,193.92,332.71,193.29,332.98z"/>
		<path class="st181" d="M195.05,337.1l-22.96,9.76c-0.63,0.27-1.37-0.03-1.64-0.66h0c-0.27-0.63,0.03-1.37,0.66-1.64l22.96-9.76
			c0.63-0.27,1.37,0.03,1.64,0.66l0,0C195.98,336.09,195.69,336.83,195.05,337.1z"/>
		<path class="st181" d="M196.67,341.08l-22.96,9.76c-0.63,0.27-1.37-0.03-1.64-0.66v0c-0.27-0.63,0.03-1.37,0.66-1.64l22.96-9.76
			c0.63-0.27,1.37,0.03,1.64,0.66h0C197.6,340.07,197.31,340.81,196.67,341.08z"/>
		<path class="st181" d="M198.59,344.9l-22.96,9.76c-0.63,0.27-1.37-0.03-1.64-0.66l0,0c-0.27-0.63,0.03-1.37,0.66-1.64l22.96-9.76
			c0.63-0.27,1.37,0.03,1.64,0.66l0,0C199.52,343.9,199.22,344.63,198.59,344.9z"/>
		<path class="st181" d="M200.35,349.03l-22.96,9.76c-0.63,0.27-1.37-0.03-1.64-0.66h0c-0.27-0.63,0.03-1.37,0.66-1.64l22.96-9.76
			c0.63-0.27,1.37,0.03,1.64,0.66l0,0C201.29,348.02,200.99,348.76,200.35,349.03z"/>
	</g>
	<path class="st198" d="M66.8,387.8l2.21-3.83c0,0,3.68,7.36,4.12,10.75s-3.39,3.83-3.39,3.83L66.8,387.8z"/>
	<g class="st173">
		<path class="st18" d="M51.2,413.57c0,0,2.5,3.39,9.42,2.06C60.62,415.63,56.5,411.51,51.2,413.57z"/>
		<g>
			<path class="st18" d="M55.09,403.62c0,0,1.61,3.89,8.64,4.29C63.73,407.91,60.73,402.91,55.09,403.62z"/>
			<path class="st18" d="M53.08,424.37c0,0,3.78,1.86,9.32-2.49C62.4,421.88,56.84,420.11,53.08,424.37z"/>
			<path class="st18" d="M59.49,433.03c0,0,4.2,0.35,7.76-5.73C67.25,427.3,61.43,427.68,59.49,433.03z"/>
			<path class="st18" d="M66.86,440.27c0,0,4.17-0.59,6.3-7.31C73.16,432.96,67.57,434.63,66.86,440.27z"/>
			<path class="st18" d="M73.05,446.45c0,0,4.17-0.59,6.3-7.31C79.35,439.15,73.76,440.81,73.05,446.45z"/>
			<path class="st18" d="M80.12,452.64c0,0,4.17-0.59,6.3-7.31C86.41,445.33,80.83,447,80.12,452.64z"/>
		</g>
	</g>
	<path class="st47" d="M431.66,477.62l1.77,2.06c0,0,22.67-6.04,23.71-14.43s-8.39-10.16-8.39-10.16s9.28,3.68,6.04,10.16
		C450.66,473.5,431.66,477.62,431.66,477.62z"/>
	<path class="st47" d="M404.72,444.93c0,0,4.27,6.04,18.11,5.74l-4.86,1.47C417.97,452.15,408.1,452.44,404.72,444.93z"/>
	<path class="st47" d="M413.4,399.44c0,0,6.92-9.28,0.74-16.2C414.14,383.24,417.09,390.45,413.4,399.44z"/>
	<path class="st47" d="M296.05,365.57c0,0-1.91-12.37,6.48-19.29c8.39-6.92,20.32-5.45,20.32-5.45S297.53,340.25,296.05,365.57z"/>
	<polygon class="st18" points="274.41,282.09 279.49,286.28 301.13,271.49 298.04,268.17 	"/>
	<polygon class="st18" points="263.59,286.5 273.53,291.14 269.55,286.5 	"/>
	<path class="st18" d="M255.42,290.7l11.48,3.09l6.85,11.71C273.75,305.5,262.48,294.01,255.42,290.7z"/>
	<polygon class="st18" points="255.42,305.5 250.12,323.61 253.21,323.61 258.95,307.93 	"/>
	<path class="st18" d="M317.26,268.98c0,0,9.06,5.45,19.77-6.99l0.11,3.46C337.13,265.45,328.89,275.61,317.26,268.98z"/>
	<path class="st18" d="M305.55,233.72c0,0,8.61-2.58,20.54-1.99l-0.59,2.36c0,0-16.05,0.88-19.14,1.62L305.55,233.72z"/>
	<path d="M194.13,305.61l33.79,62.72c0,0,1.33,1.55,0.44,5.52l-1.55,14.91l-55.77,2.43l178.9,0.11l-116.83-3.2l0.55-14.36
		c0,0,0.44-4.2-1.77-7.51L194.13,305.61z"/>
	<path d="M48.91,424.39c0,0,3.39,9.79,16.34,20.1c12.96,10.31,19.58,18.55,19.58,18.55l-2.58,3.17c0,0-8.25-10.01-14.65-15.39
		c-6.4-5.37-14.94-11.12-20.25-23.04c-5.3-11.93,2.94-24.44,2.94-24.44S45.23,412.98,48.91,424.39z"/>
	<path d="M72.18,409.82l1.47,2.21l10.67,5.37l3.46,9.2c0,0,0.15,1.99,4.86,3.46c4.71,1.47,14.43,5.3,14.43,5.3l-2.36,3.46
		l-16.34-6.92c0,0-3.53-0.88-4.64-4.56c-1.1-3.68-2.65-7.88-2.65-7.88l-8.17-4.56l-2.5-3.53L72.18,409.82z"/>
	<polygon points="401.07,450.05 410.75,361.01 384.55,332.88 410.24,326.37 407.28,305.33 413.33,327.36 389.92,334.21 
		414.21,361.26 404.5,455.13 	"/>
	<polygon points="313.39,352.76 308.53,390.31 306.55,390.42 310.96,351.88 339.34,329.79 	"/>
	<polygon points="263.66,312.86 254.31,333.33 262.26,333.99 282.36,354.31 263.74,333.18 257.77,331.93 266.09,313.82 	"/>
	<path d="M429.38,485.06c0,0,28.64-6.63,32.54-17.37c3.9-10.75-7.29-14.8-7.29-14.8s-8.83-4.56-29.3-4.71
		c-20.76,1.1-20.83-8.76-20.83-8.76l0.66-4.64c0,0,1.1,9.28,20.02,10.31c18.92,1.03,34.01,1.69,39.61,12.59
		c5.6,10.9-4.05,17.82-4.05,17.82s-11.78,10.38-31.66,12.96L429.38,485.06z"/>
	<path d="M404.2,452.88c0,0,3.17,4.34,19.36,4.64c16.2,0.29,25.47-0.81,28.27,4.05c2.8,4.86-10.53,12.81-28.64,16.12l-2.13-2.8
		c0,0,24.59-3.39,27.83-11.78c0,0-0.52-2.8-7.66-2.21c-7.14,0.59-26.06,1.18-34.9-3.53l-3.31-4.42L404.2,452.88z"/>
</g>
<g id="tail">
</g>
<g id="body">
</g>
<g id="head">
</g>
<g id="accessory">
</g>
<g id="right-wing">
</g>
<g id="eyes">
</g>
<g id="beak">
</g>
<g id="on-head">
</g>
<g id="eyebrows">
</g>
<g id="BIRD_x5F_1">
</g>
</svg>
