<svg version="1.1" xmlns="http://www.w3.org/2000/svg" xmlns:xlink="http://www.w3.org/1999/xlink" x="0px" y="0px"
	 viewBox="0 0 510.24 595.28" style="enable-background:new 0 0 510.24 595.28;" xml:space="preserve">

<g id="NEW_x5F_NESTS">
	<g class="st3">
		<path class="st4" d="M135.54,380.41c-0.02-2.69,0.09-16.46,3.73-33c6.14-27.84,19.13-49.51,38.61-64.41
			c18.92-14.47,43.04-22.12,69.74-22.12c26.73,0,50.85,7.66,69.76,22.15c19.47,14.92,32.41,36.61,38.47,64.47
			c3.58,16.44,3.66,30.23,3.64,32.94v121.83l-223.95,1.31V380.41z"/>
		<path class="st4" d="M150.24,382.39c-0.02-2.57,0.07-15.71,3.53-31.66c5.63-25.96,17.25-45.94,34.56-59.4
			c16.1-12.52,36.6-19.14,59.29-19.14c22.71,0,43.21,6.63,59.3,19.16c17.29,13.47,28.87,33.47,34.43,59.44
			c3.4,15.87,3.47,29.04,3.45,31.62V495.1l-194.55,1.16V382.39z"/>
		<path class="st4" d="M164.94,382.36c-0.01-1.63,0-14.41,3.33-29.77c5.12-23.61,15.38-41.54,30.5-53.3
			c13.28-10.32,30.16-15.78,48.84-15.78c18.69,0,35.58,5.46,48.84,15.8c15.11,11.77,25.33,29.71,30.38,53.33
			c3.27,15.29,3.27,28.08,3.25,29.74v101.5l-165.15,0.98V382.36z"/>
		<path class="st4" d="M179.64,382.32c-0.01-1.16-0.04-13.25,3.13-27.87c4.61-21.25,13.51-37.14,26.45-47.2
			c10.45-8.13,23.73-12.43,38.39-12.43c14.67,0,27.94,4.3,38.38,12.43c12.93,10.07,21.79,25.96,26.34,47.22
			c3.12,14.58,3.07,26.65,3.05,27.86v90.32l-135.75,0.81V382.32z"/>
		<path class="st4" d="M194.34,462.06v-79.78c0,0-1.03-76.14,53.28-76.14s53.07,76.14,53.07,76.14v79.15L194.34,462.06z"/>
	</g>
	<path class="st30" d="M116.1,379.71c0.56-0.19,33.15-5.29,43.09-6.84c1.87-0.29,3.78-0.11,5.57,0.52l14.46,5.15
		c3.24,1.16,5.79,3.72,6.92,6.97l14.99,43.01L115,446.41L116.1,379.71z"/>
	<path class="st31" d="M119.85,394.06l57.08-11.33c2.34-0.47,4.67,0.88,5.43,3.15l14.35,42.64L115,446.41L119.85,394.06z"/>
	<path class="st32" d="M189.43,400.91l-5.3-16.9c0,0-1.66-2.98-6.4-4.64l-14.58-5.3l12.59,5.85c0,0,2.65,1.88-0.88,2.76l-40.97,8.28
		v4.86c0,0,41.52-10.16,41.85-10.38s4.42-1.33,5.96-0.22c1.55,1.1,5.85,16.01,5.85,16.01L189.43,400.91z"/>
	<path class="st33" d="M151.22,374.07c0,0-12.15,3.75-13.25,15.9l-4.09,0.99v3.64c0,0-3.64,16.9,56.65,2.43l2.21,7.07l-60.63,9.72
		v-36.88L151.22,374.07z"/>
	<path class="st33" d="M45.87,478.43c0,0-15.46,1.99-14.13,9.5c1.33,7.51,17.01,8.61,17.01,8.61h21.2c0,0,4.42,16.34,24.52,32.69
		c0,0-17.67,4.42-13.91,18.11c3.75,13.69,33.35,13.69,33.35,13.69s28.27,0.66,35.78-9.5c0,0,3.31,13.47,110.87,13.47
		s156.59-37.1,156.59-37.1s27.61-17.01,21.2-48.59c0,0,20.98-11.26,12.37-16.79s-384.96,0.66-384.96,0.66L45.87,478.43z"/>
	<path class="st34" d="M219.3,557.45c-4.35,5.23-20.58,20.38-62.33,20.28c-0.45,0-0.89-0.16-1.24-0.43l0,0
		c-1.47-1.16-0.67-3.52,1.2-3.56c13.07-0.23,45.03-2.55,59.2-19c0.66-0.76,1.79-0.89,2.62-0.32l0.16,0.11
		C219.87,555.2,220.05,556.55,219.3,557.45z"/>
	<path class="st34" d="M127.43,573.42c-0.28-0.32-0.66-0.52-1.08-0.57c-4.42-0.51-30.97-3.92-57.78-14.83
		c-25.98-10.58-13.19-49.48-9.89-58.32c0.36-0.96-0.21-2.01-1.21-2.24l-1.37-0.32c-0.81-0.19-1.64,0.23-1.96,1
		c-2.72,6.57-13.66,36.08,0.21,54.96c13.22,18,57.96,22.25,71.68,23.14C127.55,576.33,128.43,574.56,127.43,573.42L127.43,573.42z"
		/>
	<path class="st35" d="M38.14,144.05c0,0,8.39,18.55,46.38,23.63c37.99,5.08,68.02-5.08,82.82-25.18c0,0-26.28,23.63-60.74,12.15
		l-17.67-1.33C88.93,153.33,64.2,164.59,38.14,144.05z"/>
	<path class="st35" d="M152.76,100.1c0,29.4-23.83,53.23-53.23,53.23S46.31,129.5,46.31,100.1s23.83-53.23,53.23-53.23
		S152.76,70.7,152.76,100.1z M99.54,32.3c-37.45,0-67.8,30.36-67.8,67.8s30.36,67.8,67.8,67.8s67.8-30.36,67.8-67.8
		S136.98,32.3,99.54,32.3z"/>
	<path class="st35" d="M29.74,133.23c0,0-9.28-17.45,3.98-45.72c6.4-22.75-1.99-23.41,9.72-42.4C43.44,45.1,2.36,91.49,29.74,133.23
		z"/>
	<path class="st35" d="M136.2,31.41c0,0,45.06,9.94,39.53,77.52c0,0,1.33-22.75-22.09-34.01l-5.08-8.83
		C148.57,66.09,160.05,49.3,136.2,31.41z"/>
	<path class="st35" d="M55.81,27.66c0,0,31.14-15.68,69.35-6.4c0,0-34.45-1.99-25.84,14.36l-11.26,3.31
		C88.05,38.92,90.7,18.16,55.81,27.66z"/>
	<path class="st36" d="M50.95,127.71l-6.63-4.2l1.55-6.4l-3.31-4.86l0.88-7.07l-2.21-7.95c0,0-1.1-7.07-0.44-8.61
		c0.66-1.55,3.09-5.74,3.09-5.74l3.09-7.95l3.75-5.96l3.98-3.31l2.65-5.3l4.86-5.08l9.28-7.73l29.37-8.83l15.9,3.09l11.93,8.39
		l25.18,20.54l8.83,13.69l-4.2,10.16l1.1,7.51l-4.64,6.63c0,0,0.22,3.75,0,5.74c-0.22,1.99-3.98,9.94-3.98,9.94l-7.07,10.38
		l5.74,1.99l3.53-9.5l3.75-6.4l3.09-6.63l1.99-9.06c0,0,2.21-11.93,2.65-13.03c0.44-1.1-0.66-14.13-0.66-14.13l-7.51-14.8
		c0,0,11.04,13.91,11.93,14.58c0.88,0.66-3.98-10.82-3.98-10.82s-8.17-12.59-9.28-13.91s-3.53,7.29-4.42,6.85
		c-0.88-0.44-5.74-5.08-6.4-5.74c-0.66-0.66-12.37-6.4-12.37-6.4l-11.71-7.51l-15.02-3.98c0,0-11.71,0-11.93-0.66
		C93.13,34.95,96,27.66,96,27.66L85.4,38.92l-13.91,5.96l-9.72,4.64l-10.38,10.6l-5.08,7.51c0,0-5.96,6.4-6.18,7.73
		c-0.22,1.33-2.43,7.51-2.43,7.51l-4.2-1.99l1.33,7.73l0.88,8.39c0,0-1.33,5.3-0.44,6.85c0.88,1.55,4.86,11.93,4.86,11.93l0.66,8.17
		l5.3,8.61h8.83L50.95,127.71z"/>
	<polygon class="st36" points="23.12,104.74 24.66,85.52 32.62,67.63 33.28,83.76 	"/>
	<path class="st36" d="M46.53,48.64l9.72-11.93l14.13-2.43C70.38,34.28,51.61,43.56,46.53,48.64z"/>
	<path class="st36" d="M161.6,140.52c0,0,12.59-14.58,10.82-31.8l4.86,17.89L161.6,140.52z"/>
	<path class="st36" d="M15.83,76.03c0,0,3.53-35.78,45.94-56.76C61.77,19.26,16.49,30.75,15.83,76.03z"/>
	<path class="st36" d="M128.47,16.39c0,0,68.02,12.15,53.23,93.2C181.7,109.6,213.5,26.11,128.47,16.39z"/>
	<path class="st36" d="M31.07,150.9c-0.26-0.75,11.26,21.64,53.01,28.05C84.08,178.95,43,185.13,31.07,150.9z"/>
	<path class="st18" d="M114.78,40.61c0,0,30.92,8.25,39.75,19.14c0,0,8.98,12.96,9.5,18.26s3.17,16.2,2.28,19.44
		c-0.88,3.24-8.25,32.1-22.38,42.11c0,0,19.44-23.26,17.37-42.7c0,0,2.8-9.72-2.58-21.06S145.99,51.8,114.78,40.61z"/>
	<path class="st37" d="M70.04,126.62c18.88,7.59,38.99,7.59,57.87,0c7.95-3.13,17.09,0.81,20.8,10.8c0,0,0,0,0,0
		c3.71,9.93-1.07,25.25-12.36,27.96c-24.01,5.76-49.97,5.51-74.75,0c-11.33-2.52-16.07-18.03-12.36-27.96c0,0,0,0,0,0
		C52.95,127.43,62.09,123.49,70.04,126.62z"/>
	<path class="st38" d="M72.15,164.37c0,0,29.37,4.42,52.79,0C124.93,164.37,98.87,162.6,72.15,164.37z"/>
	<rect x="91.36" y="127.71" class="st39" width="14.87" height="205.47"/>
	<path class="st40" d="M94.68,333.55V166.8c0,0,0.77-7.84-3.87-7.84v-9.94h15.68v10.82c0,0-6.74,0-6.74,7.18v166.75L94.68,333.55z"
		/>
	<path class="st41" d="M104.06,332.99V161.72c0,0-3.09,0.11-3.09,7.84V332L104.06,332.99z"/>
	<path class="st41" d="M93.57,331.56V162.49c0,0,1.1,1.21,1.1,4.31v165.09L93.57,331.56z"/>
	<polygon class="st42" points="102.96,172.21 101.63,173.53 101.63,325.49 103.4,325.49 	"/>
	<circle class="st43" cx="99.09" cy="100.98" r="27.61"/>
	<path class="st44" d="M127.91,161.52c-20.02-4.07-40.2-3.86-57.87,0c-8.35,1.82-17.09-0.81-20.8-10.8c0,0,0,0,0,0
		c-3.71-9.93,1.22-24.7,12.36-27.96c24.4-7.14,50.38-7.43,74.75,0c11.1,3.38,16.07,18.03,12.36,27.96c0,0,0,0,0,0
		C145,160.71,135.86,164.65,127.91,161.52z"/>
	<g>
		<path class="st45" d="M59.7,123.4c-1.59,0.68-3.03,1.6-4.32,2.7c-5.22,11.25-4.89,22.5,1.01,33.75c1.18,0.69,2.45,1.19,3.75,1.55
			C53.76,148.73,53.6,136.06,59.7,123.4z"/>
		<path class="st45" d="M67.7,121.11c-1.12,0.27-2.23,0.56-3.34,0.85c-5.86,13.35-5.84,26.71,0.04,40.07
			c0.98,0.03,1.96-0.01,2.95-0.11C62.11,148.32,62.24,134.71,67.7,121.11z"/>
		<path class="st45" d="M75.25,119.49c-1.07,0.2-2.14,0.42-3.2,0.64c-4.8,13.71-5.08,27.41-0.84,41.12c0.99-0.2,1.98-0.4,2.98-0.58
			C70.63,146.94,70.99,133.22,75.25,119.49z"/>
		<path class="st45" d="M82.56,118.38c-1.04,0.13-2.07,0.26-3.11,0.42c-3.53,13.73-3.92,27.47-1.16,41.2
			c1.04-0.15,2.09-0.3,3.15-0.43C79.21,145.84,79.59,132.11,82.56,118.38z"/>
		<path class="st45" d="M89.74,117.65c-1.02,0.07-2.04,0.17-3.07,0.27c-2.23,13.73-2.55,27.47-0.96,41.2
			c1.08-0.1,2.17-0.18,3.26-0.25C87.81,145.13,88.07,131.39,89.74,117.65z"/>
		<path class="st45" d="M96.87,117.34c-1.02,0.02-2.03,0.03-3.04,0.07c-0.93,13.74-1.08,27.48-0.45,41.23
			c1.1-0.04,2.2-0.06,3.31-0.07C96.43,144.83,96.5,131.08,96.87,117.34z"/>
		<path class="st45" d="M101.06,158.58c1.1,0.02,2.2,0.06,3.3,0.1c0.64-13.76,0.49-27.53-0.45-41.29c-1.01-0.04-2.03-0.05-3.04-0.06
			C101.25,131.08,101.32,144.83,101.06,158.58z"/>
		<path class="st45" d="M112.02,159.2c1.61-13.78,1.29-27.56-0.96-41.33c-1.02-0.09-2.04-0.19-3.06-0.26
			c1.68,13.77,1.93,27.55,0.76,41.32C109.85,159,110.93,159.1,112.02,159.2z"/>
		<path class="st45" d="M119.44,160.09c2.77-13.79,2.39-27.57-1.16-41.36c-1.03-0.16-2.07-0.29-3.11-0.42
			c2.99,13.78,3.36,27.56,1.12,41.35C117.35,159.79,118.4,159.93,119.44,160.09z"/>
		<path class="st45" d="M126.53,161.29c4.26-13.74,3.97-27.48-0.85-41.21c-1.07-0.23-2.13-0.45-3.2-0.65
			c4.29,13.77,4.64,27.54,1.07,41.31C124.54,160.91,125.53,161.1,126.53,161.29z"/>
		<path class="st45" d="M133.11,162.55c6.11-13.53,6.21-27.05,0.28-40.58c-1.12-0.31-2.24-0.61-3.36-0.89
			c5.52,13.72,5.6,27.45,0.23,41.17C131.21,162.45,132.16,162.55,133.11,162.55z"/>
		<path class="st45" d="M141.15,160.25c6.05-11.29,6.5-22.59,1.34-33.88c-1.31-1.17-2.78-2.16-4.4-2.89
			c6.14,12.83,5.88,25.66-0.77,38.49C138.65,161.58,139.94,161.02,141.15,160.25z"/>
	</g>
	<path class="st46" d="M127.95,161.52c-20.02-4.07-40.2-3.86-57.87,0c-8.35,1.82-17.09-0.81-20.8-10.8c0,0,0,0,0,0
		c-3.71-9.93,1.22-24.7,12.36-27.96c24.4-7.14,50.37-7.43,74.75,0c11.1,3.38,16.07,18.03,12.36,27.96c0,0,0,0,0,0
		C145.04,160.71,135.9,164.65,127.95,161.52z"/>
	<path class="st47" d="M122.49,133.08c-15.39-3.32-32.32-3.32-47.71,0c-6.48,1.34-14.03,1.56-17.42-0.18c0,0,0,0,0,0
		c-3.4-1.69,0.03-6.06,9.54-7.95c20.18-3.97,42.63-4,63.46,0c9.56,1.85,12.94,6.26,9.54,7.95l0,0
		C136.52,134.64,128.98,134.42,122.49,133.08z"/>
	<path class="st47" d="M122.94,156.4c-15.39-3.32-32.32-3.32-47.71,0c-6.48,1.34-14.03,1.56-17.42-0.18c0,0,0,0,0,0
		c-3.4-1.69,0.03-6.06,9.54-7.95c20.18-3.97,42.63-4,63.46,0c9.56,1.85,12.94,6.26,9.54,7.95l0,0
		C136.97,157.96,129.43,157.74,122.94,156.4z"/>
	<path class="st48" d="M126.26,127.12c0,0-29.37-4.42-52.79,0C73.47,127.12,99.54,128.88,126.26,127.12z"/>
	<circle class="st49" cx="102.63" cy="96.79" r="17.01"/>
	<circle class="st50" cx="86.12" cy="102.8" r="10.55"/>
	<path class="st51" d="M121.18,116c0,0,7.51-8.72,3.2-23.08c-4.31-14.36-19.44-17.67-19.44-17.67S85.4,70.72,74.91,90.27
		c0,0-6.07,10.27,0.88,23.63c0,0-5.96-25.51,13.91-33.24s29.26,7.95,29.26,7.95S128.03,103.19,121.18,116z"/>
	<circle class="st52" cx="99.37" cy="104.57" r="10.1"/>
	<circle class="st18" cx="117.06" cy="104" r="5.67"/>
	<circle class="st18" cx="90.55" cy="91.78" r="11.26"/>
	<path class="st30" d="M108.37,308.58c0-2.15-19.22-2.15-19.22,0l-9.61,16.65l9.61,16.65h19.22l9.61-16.65L108.37,308.58z"/>
	<path class="st30" d="M131.89,471.14H65.63V335.9c0-8.74,7.09-15.83,15.83-15.83h2.06h14.13h18.4h0c8.74,0,15.83,7.09,15.83,15.83
		V471.14z"/>
	<path class="st53" d="M67.07,470.85V342.45c0,0-0.44-12.52,4.12-12.52c4.18,0,1.68,32.38,12.42,47.41
		c3.25,4.55,7.71,7.51,13.93,7.51c0,0-7.8,2.5-7.8,10.31v75.09L67.07,470.85z"/>
	<path class="st31" d="M71.19,327.44c0,0,3.09-5.89,10.45-5.89s36.37,0,36.37,0s12.22,1.18,12.22,15.9c0,9.13,0,74.36,0,74.36
		l-17.52,7.8v-28.56c0,0,1.47-9.72-7.8-12.37c-10.9-2.36-13.55-7.36-16.93-38.28C87.98,317.57,71.19,327.44,71.19,327.44z"/>
	<path class="st36" d="M83.19,23.46c0.44-0.66,16.12-3.31,16.12-3.31s0.88,3.75,0.22,3.75s-7.51,2.43-8.17,1.99
		C90.7,25.45,83.19,23.46,83.19,23.46z"/>
	<path class="st54" d="M73.79,325.2c0,0-4,0.03-4,20.06v125.6h6.92v-89.08c0,0,1.33-9.87-3.68-18.7l0-28.86
		C73.1,330.71,72.62,326.23,73.79,325.2z"/>
	<path class="st18" d="M45.28,126.31c0,0-8.54-20.32-7.66-26.8c0.88-6.48,3.09-20.54,5.89-26.21c2.8-5.67,20.61-26.5,34.45-30.63
		s10.31-1.77,10.31-1.77S61.18,47.09,46.46,73.6C46.46,73.6,35.85,98.63,45.28,126.31z"/>
	<polygon class="st18" points="342.04,87.95 337.4,97.45 331,100.1 323.71,105.18 332.98,102.31 342.92,104.74 340.71,98.77 	"/>
	<path class="st32" d="M117.13,417.25V334.8c0,0-0.88-11.34-17.96-11.34h17.08c0,0,10.16-0.44,11.78,9.42c0,0-2.06-5.01-5.15-3.39
		s-2.8,5.15-2.8,5.15v81.13L117.13,417.25z"/>
	<path class="st55" d="M65.74,469.96c0,0,8.37,1.62,19.49,1.03l2.61-31.21V338.63c0,0-0.27-10.9-13.04-10.9
		c-9.06,0-9.16,8.17-9.16,8.17L65.74,469.96z"/>
	<path class="st18" d="M69.83,350.44c0,0-1.98-21.67,10.47-23.53c0,0-9.07,1.37-6.51-2.42C73.79,324.49,66.66,329.21,69.83,350.44z"
		/>
	<path class="st18" d="M127.19,348.55c0,0,2.06-19.78-10.39-21.64c0,0,9.07,2.07,6.51-1.72
		C123.31,325.2,130.36,327.33,127.19,348.55z"/>
	<path class="st32" d="M91.36,318.64l2.98-9.94c0,0,6.96-0.66,11.93,0.33l5.08,9.5L91.36,318.64z"/>
	<polygon class="st18" points="100.75,308.48 102.19,317.09 106.38,317.09 103.62,308.48 	"/>
	<polygon class="st18" points="87.39,316.32 90.81,308.92 92.03,308.92 88.27,316.54 	"/>
	<path class="st35" d="M474.65,144.05c0,0-8.39,18.55-46.38,23.63c-37.99,5.08-68.02-5.08-82.82-25.18c0,0,26.28,23.63,60.74,12.15
		l17.67-1.33C423.85,153.33,448.59,164.59,474.65,144.05z"/>
	<path class="st35" d="M413.25,46.87c29.4,0,53.23,23.83,53.23,53.23s-23.83,53.23-53.23,53.23s-53.23-23.83-53.23-53.23
		S383.85,46.87,413.25,46.87z M345.44,100.1c0,37.45,30.36,67.8,67.8,67.8s67.8-30.36,67.8-67.8s-30.36-67.8-67.8-67.8
		S345.44,62.65,345.44,100.1z"/>
	<path class="st35" d="M483.04,133.23c0,0,9.28-17.45-3.98-45.72c-6.4-22.75,1.99-23.41-9.72-42.4
		C469.35,45.1,510.43,91.49,483.04,133.23z"/>
	<path class="st35" d="M376.59,31.41c0,0-45.06,9.94-39.53,77.52c0,0-1.33-22.75,22.09-34.01l5.08-8.83
		C364.22,66.09,352.73,49.3,376.59,31.41z"/>
	<path class="st35" d="M456.98,27.66c0,0-31.14-15.68-69.35-6.4c0,0,34.45-1.99,25.84,14.36l11.26,3.31
		C424.73,38.92,422.08,18.16,456.98,27.66z"/>
	<path class="st36" d="M461.84,127.71l6.63-4.2l-1.55-6.4l3.31-4.86l-0.88-7.07l2.21-7.95c0,0,1.1-7.07,0.44-8.61
		s-3.09-5.74-3.09-5.74l-3.09-7.95l-3.75-5.96l-3.98-3.31l-2.65-5.3l-4.86-5.08l-9.28-7.73l-29.37-8.83l-15.9,3.09l-11.93,8.39
		l-25.18,20.54l-8.83,13.69l4.2,10.16l-1.1,7.51l4.64,6.63c0,0-0.22,3.75,0,5.74s3.98,9.94,3.98,9.94l7.07,10.38l-5.74,1.99
		l-3.53-9.5l-3.75-6.4l-3.09-6.63l-1.99-9.06c0,0-2.21-11.93-2.65-13.03c-0.44-1.1,0.66-14.13,0.66-14.13l7.51-14.8
		c0,0-11.04,13.91-11.93,14.58c-0.88,0.66,3.98-10.82,3.98-10.82s8.17-12.59,9.28-13.91c1.1-1.33,3.53,7.29,4.42,6.85
		c0.88-0.44,5.74-5.08,6.4-5.74c0.66-0.66,12.37-6.4,12.37-6.4l11.71-7.51l15.02-3.98c0,0,11.71,0,11.93-0.66
		c0.22-0.66-2.65-7.95-2.65-7.95l10.6,11.26l13.91,5.96l9.72,4.64l10.38,10.6l5.08,7.51c0,0,5.96,6.4,6.18,7.73
		c0.22,1.33,2.43,7.51,2.43,7.51l4.2-1.99l-1.33,7.73l-0.88,8.39c0,0,1.33,5.3,0.44,6.85c-0.88,1.55-4.86,11.93-4.86,11.93
		l-0.66,8.17l-5.3,8.61h-8.83L461.84,127.71z"/>
	<polygon class="st36" points="489.67,104.74 488.12,85.52 480.17,67.63 479.51,83.76 	"/>
	<path class="st36" d="M466.25,48.64l-9.72-11.93l-14.13-2.43C442.4,34.28,461.17,43.56,466.25,48.64z"/>
	<path class="st36" d="M351.19,140.52c0,0-12.59-14.58-10.82-31.8l-4.86,17.89L351.19,140.52z"/>
	<path class="st36" d="M496.95,76.03c0,0-3.53-35.78-45.94-56.76C451.02,19.26,496.29,30.75,496.95,76.03z"/>
	<path class="st36" d="M384.32,16.39c0,0-68.02,12.15-53.23,93.2C331.09,109.6,299.29,26.11,384.32,16.39z"/>
	<path class="st36" d="M481.71,150.9c0.26-0.75-11.26,21.64-53.01,28.05C428.71,178.95,469.79,185.13,481.71,150.9z"/>
	<path class="st18" d="M398.01,40.61c0,0-30.92,8.25-39.75,19.14c0,0-8.98,12.96-9.5,18.26c-0.52,5.3-3.17,16.2-2.28,19.44
		c0.88,3.24,8.25,32.1,22.38,42.11c0,0-19.44-23.26-17.37-42.7c0,0-2.8-9.72,2.58-21.06S366.79,51.8,398.01,40.61z"/>
	<path class="st37" d="M442.74,126.62c-18.88,7.59-38.99,7.59-57.87,0c-7.95-3.13-17.09,0.81-20.8,10.8c0,0,0,0,0,0
		c-3.71,9.93,1.07,25.25,12.36,27.96c24.01,5.76,49.97,5.51,74.75,0c11.33-2.52,16.07-18.03,12.36-27.96c0,0,0,0,0,0
		C459.83,127.43,450.69,123.49,442.74,126.62z"/>
	<path class="st38" d="M440.63,164.37c0,0-29.37,4.42-52.79,0C387.85,164.37,413.91,162.6,440.63,164.37z"/>
	
		<rect x="406.55" y="127.71" transform="matrix(-1 -4.489044e-11 4.489044e-11 -1 827.969 460.8848)" class="st39" width="14.87" height="205.47"/>
	<path class="st40" d="M418.11,333.55V166.8c0,0-0.77-7.84,3.87-7.84v-9.94h-15.68v10.82c0,0,6.74,0,6.74,7.18v166.75L418.11,333.55
		z"/>
	<path class="st41" d="M408.72,332.99V161.72c0,0,3.09,0.11,3.09,7.84V332L408.72,332.99z"/>
	<path class="st41" d="M419.21,331.56V162.49c0,0-1.1,1.21-1.1,4.31v165.09L419.21,331.56z"/>
	<polygon class="st42" points="409.82,172.21 411.15,173.53 411.15,325.49 409.38,325.49 	"/>
	<circle class="st43" cx="413.69" cy="100.98" r="27.61"/>
	<path class="st44" d="M384.87,161.52c20.02-4.07,40.2-3.86,57.87,0c8.35,1.82,17.09-0.81,20.8-10.8c0,0,0,0,0,0
		c3.71-9.93-1.22-24.7-12.36-27.96c-24.4-7.14-50.38-7.43-74.75,0c-11.1,3.38-16.07,18.03-12.36,27.96c0,0,0,0,0,0
		C367.78,160.71,376.92,164.65,384.87,161.52z"/>
	<g>
		<path class="st45" d="M453.09,123.4c1.59,0.68,3.03,1.6,4.32,2.7c5.22,11.25,4.89,22.5-1.01,33.75c-1.18,0.69-2.45,1.19-3.75,1.55
			C459.03,148.73,459.18,136.06,453.09,123.4z"/>
		<path class="st45" d="M445.09,121.11c1.12,0.27,2.23,0.56,3.34,0.85c5.86,13.35,5.84,26.71-0.04,40.07
			c-0.98,0.03-1.96-0.01-2.95-0.11C450.67,148.32,450.55,134.71,445.09,121.11z"/>
		<path class="st45" d="M437.53,119.49c1.07,0.2,2.14,0.42,3.2,0.64c4.8,13.71,5.08,27.41,0.84,41.12c-0.99-0.2-1.98-0.4-2.98-0.58
			C442.15,146.94,441.8,133.22,437.53,119.49z"/>
		<path class="st45" d="M430.23,118.38c1.04,0.13,2.07,0.26,3.11,0.42c3.53,13.73,3.92,27.47,1.16,41.2
			c-1.04-0.15-2.09-0.3-3.15-0.43C433.57,145.84,433.2,132.11,430.23,118.38z"/>
		<path class="st45" d="M423.04,117.65c1.02,0.07,2.04,0.17,3.07,0.27c2.23,13.73,2.55,27.47,0.96,41.2
			c-1.08-0.1-2.17-0.18-3.26-0.25C424.97,145.13,424.72,131.39,423.04,117.65z"/>
		<path class="st45" d="M415.92,117.34c1.02,0.02,2.03,0.03,3.04,0.07c0.93,13.74,1.08,27.48,0.45,41.23
			c-1.1-0.04-2.2-0.06-3.31-0.07C416.35,144.83,416.29,131.08,415.92,117.34z"/>
		<path class="st45" d="M411.72,158.58c-1.1,0.02-2.2,0.06-3.3,0.1c-0.64-13.76-0.49-27.53,0.45-41.29
			c1.01-0.04,2.03-0.05,3.04-0.06C411.53,131.08,411.47,144.83,411.72,158.58z"/>
		<path class="st45" d="M400.76,159.2c-1.61-13.78-1.29-27.56,0.96-41.33c1.02-0.09,2.04-0.19,3.06-0.26
			c-1.68,13.77-1.93,27.55-0.76,41.32C402.94,159,401.85,159.1,400.76,159.2z"/>
		<path class="st45" d="M393.34,160.09c-2.77-13.79-2.39-27.57,1.16-41.36c1.03-0.16,2.07-0.29,3.11-0.42
			c-2.99,13.78-3.36,27.56-1.12,41.35C395.44,159.79,394.39,159.93,393.34,160.09z"/>
		<path class="st45" d="M386.26,161.29c-4.26-13.74-3.97-27.48,0.85-41.21c1.07-0.23,2.13-0.45,3.2-0.65
			c-4.29,13.77-4.64,27.54-1.07,41.31C388.25,160.91,387.25,161.1,386.26,161.29z"/>
		<path class="st45" d="M379.67,162.55c-6.11-13.53-6.21-27.05-0.28-40.58c1.12-0.31,2.24-0.61,3.36-0.89
			c-5.52,13.72-5.6,27.45-0.23,41.17C381.57,162.45,380.62,162.55,379.67,162.55z"/>
		<path class="st45" d="M371.64,160.25c-6.05-11.29-6.5-22.59-1.34-33.88c1.31-1.17,2.78-2.16,4.4-2.89
			c-6.14,12.83-5.88,25.66,0.77,38.49C374.14,161.58,372.85,161.02,371.64,160.25z"/>
	</g>
	<path class="st46" d="M384.84,161.52c20.02-4.07,40.2-3.86,57.87,0c8.35,1.82,17.09-0.81,20.8-10.8c0,0,0,0,0,0
		c3.71-9.93-1.22-24.7-12.36-27.96c-24.4-7.14-50.38-7.43-74.75,0c-11.1,3.38-16.07,18.03-12.36,27.96c0,0,0,0,0,0
		C367.74,160.71,376.89,164.65,384.84,161.52z"/>
	<path class="st47" d="M390.29,133.08c15.39-3.32,32.32-3.32,47.71,0c6.48,1.34,14.03,1.56,17.42-0.18c0,0,0,0,0,0
		c3.4-1.69-0.03-6.06-9.54-7.95c-20.18-3.97-42.63-4-63.46,0c-9.56,1.85-12.94,6.26-9.54,7.95l0,0
		C376.26,134.64,383.81,134.42,390.29,133.08z"/>
	<path class="st47" d="M389.84,156.4c15.39-3.32,32.32-3.32,47.71,0c6.48,1.34,14.03,1.56,17.42-0.18c0,0,0,0,0,0
		c3.4-1.69-0.03-6.06-9.54-7.95c-20.18-3.97-42.63-4-63.46,0c-9.56,1.85-12.94,6.26-9.54,7.95l0,0
		C375.81,157.96,383.36,157.74,389.84,156.4z"/>
	<path class="st48" d="M386.52,127.12c0,0,29.37-4.42,52.79,0C439.31,127.12,413.25,128.88,386.52,127.12z"/>
	<circle class="st49" cx="410.16" cy="96.79" r="17.01"/>
	<circle class="st50" cx="426.67" cy="102.8" r="10.55"/>
	<path class="st51" d="M391.6,116c0,0-7.51-8.72-3.2-23.08s19.44-17.67,19.44-17.67s19.55-4.53,30.04,15.02
		c0,0,6.07,10.27-0.88,23.63c0,0,5.96-25.51-13.91-33.24c-19.88-7.73-29.26,7.95-29.26,7.95S384.76,103.19,391.6,116z"/>
	<circle class="st52" cx="413.41" cy="104.57" r="10.1"/>
	<circle class="st18" cx="395.73" cy="104" r="5.67"/>
	<circle class="st18" cx="422.23" cy="91.78" r="11.26"/>
	<path class="st30" d="M404.41,308.58c0-2.15,19.22-2.15,19.22,0l9.61,16.65l-9.61,16.65h-19.22l-9.61-16.65L404.41,308.58z"/>
	<path class="st30" d="M380.89,471.14h66.26V335.9c0-8.74-7.09-15.83-15.83-15.83h-2.06h-14.13h-18.4h0
		c-8.74,0-15.83,7.09-15.83,15.83V471.14z"/>
	<path class="st53" d="M445.71,470.85V342.45c0,0,0.44-12.52-4.12-12.52c-4.18,0-1.68,32.38-12.42,47.41
		c-3.25,4.55-7.71,7.51-13.93,7.51c0,0,7.8,2.5,7.8,10.31v75.09L445.71,470.85z"/>
	<path class="st31" d="M441.59,327.44c0,0-3.09-5.89-10.45-5.89s-36.37,0-36.37,0s-12.22,1.18-12.22,15.9c0,9.13,0,74.36,0,74.36
		l17.52,7.8v-28.56c0,0-1.47-9.72,7.8-12.37c10.9-2.36,13.55-7.36,16.93-38.28C424.81,317.57,441.59,327.44,441.59,327.44z"/>
	<path class="st36" d="M429.59,23.46c-0.44-0.66-16.12-3.31-16.12-3.31s-0.88,3.75-0.22,3.75c0.66,0,7.51,2.43,8.17,1.99
		S429.59,23.46,429.59,23.46z"/>
	<path class="st54" d="M438.99,325.2c0,0,4,0.03,4,20.06v125.6h-6.92v-89.08c0,0-1.33-9.87,3.68-18.7l0-28.86
		C439.69,330.71,440.17,326.23,438.99,325.2z"/>
	<path class="st18" d="M467.51,126.31c0,0,8.54-20.32,7.66-26.8c-0.88-6.48-3.09-20.54-5.89-26.21c-2.8-5.67-20.61-26.5-34.45-30.63
		s-10.31-1.77-10.31-1.77s27.09,6.18,41.82,32.69C466.33,73.6,476.93,98.63,467.51,126.31z"/>
	<path class="st32" d="M395.65,417.25V334.8c0,0,0.88-11.34,17.96-11.34h-17.08c0,0-10.16-0.44-11.78,9.42c0,0,2.06-5.01,5.15-3.39
		c3.09,1.62,2.8,5.15,2.8,5.15v81.13L395.65,417.25z"/>
	<path class="st18" d="M442.95,350.44c0,0,1.98-21.67-10.47-23.53c0,0,9.07,1.37,6.51-2.42
		C438.99,324.49,446.13,329.21,442.95,350.44z"/>
	<path class="st18" d="M385.6,348.55c0,0-2.06-19.78,10.39-21.64c0,0-9.07,2.07-6.51-1.72C389.48,325.2,382.43,327.33,385.6,348.55z
		"/>
	<path class="st32" d="M421.42,318.64l-2.98-9.94c0,0-6.96-0.66-11.93,0.33l-5.08,9.5L421.42,318.64z"/>
	<polygon class="st18" points="412.03,308.48 410.6,317.09 406.4,317.09 409.16,308.48 	"/>
	<polygon class="st18" points="425.4,316.32 421.97,308.92 420.76,308.92 424.51,316.54 	"/>
	<path class="st56" d="M309.43,306.53c0,0,0.13,0,0.29,0s0.29,0,0.29,0s-0.13,0-0.29,0S309.43,306.53,309.43,306.53z"/>
	<path class="st30" d="M450.82,443.46l3.74-79.69c0.07-1.53-0.94-2.89-2.42-3.26l-91.18-23.01c-1.49-0.38-3.04,0.36-3.69,1.75
		l-29.62,62.92c-0.72,1.53-0.13,3.35,1.34,4.17l83.58,46.55c0.67,0.37,1.45,0.49,2.2,0.34l33.49-6.78
		C449.69,446.17,450.75,444.93,450.82,443.46z"/>
	<path d="M142.38,544.32c36.59,13.25,83.85,13.77,115.44,13.77s96.59-4.93,130.38-25.47c33.79-20.54,33.2-41.15,33.42-41.23
		c0.22-0.07-1.18-34.97-1.18-34.97l-1.03,34.16c-3.63,20.32-31.44,36.37-31.44,36.37s-47.71,25.77-129.64,25.77
		s-115.21-12.88-115.21-12.88L142.38,544.32z"/>
	<path class="st57" d="M440.72,364.49l-27.92,78.35c-0.45,1.26-1.86,1.9-3.1,1.4l-81.32-32.61c-1.26-0.5-1.83-1.96-1.26-3.19
		l31.45-67.49c0.49-1.05,1.66-1.59,2.77-1.28l77.8,21.75C440.45,361.8,441.18,363.21,440.72,364.49z"/>
	<path class="st32" d="M333.22,400.91l26.42-56.56c0.65-1.4,2.22-2.12,3.71-1.71l74.46,20.72l-5.18,14.18
		c0,0-61.16-24.45-85.7,25.46L333.22,400.91z"/>
	<path class="st58" d="M349.8,389.78c0.41-4.68,2.35-19.44,11.36-41.68c0.38-0.95,1.42-1.46,2.41-1.19l60.66,16.6
		c1.16,0.32,1.79,1.57,1.35,2.69l-16.87,42.62c-0.39,1-1.5,1.51-2.51,1.18l-55.01-18.13C350.29,391.57,349.72,390.71,349.8,389.78z"
		/>
	<path class="st59" d="M368.37,354.67l51.23,14.14c1.78,0.49,2.76,2.4,2.13,4.13l-12.68,34.76c-0.59,1.6-2.34,2.45-3.96,1.92
		l-52.12-17.18c-1.76-0.58-2.65-2.54-1.92-4.25l13.57-31.73C365.24,355.02,366.85,354.25,368.37,354.67z"/>
	<path class="st60" d="M110.8,447.07H91.81v-51.24c0-5.24,4.25-9.5,9.5-9.5h0c5.25,0,9.5,4.25,9.5,9.5V447.07z"/>
	<circle class="st61" cx="101.3" cy="372.2" r="4.2"/>
	<path class="st63" d="M72.37,484.12c0,13.32-37.55,13.32-37.55,0V382.14c0-21.89,37.55-21.89,37.55,0V484.12z"/>
	<path class="st32" d="M70.01,487.19c0,0-3.09,3.75-9.87,4.93l-0.74-105.06c0,0-0.29-17.52-7.51-19.58
		c10.16,0,17.96,4.27,17.96,19.29L70.01,487.19z"/>
	<path class="st205" d="M458.65,447.79c0,12.47-14.13,26.61-14.13,26.61s-13.55-4.47-15.87-5.28c-8.83-3.07-15.16-11.46-15.16-21.33
		c0-12.47,10.11-22.58,22.58-22.58c2.11,0,4.16,0.29,6.1,0.83c4.67,1.31,16.15,5.35,16.15,5.35S458.65,442.51,458.65,447.79z"/>
	<path class="st25" d="M398,446.78c7.33,30.49-59.4,57.49-149.74,57.49s-157.08-27-149.74-57.49
		c6.68-27.77,73.49-48.52,149.74-48.52S391.32,419.01,398,446.78z"/>
	<path class="st206" d="M98.51,450.88c6.68-28.85,73.49-50.41,149.74-50.41c76.25,0,143.06,21.56,149.74,50.41
		c0.2,0.86,0.33,1.72,0.42,2.57c0.24-2.2,0.12-4.42-0.42-6.67c-6.68-27.77-73.49-48.52-149.74-48.52
		c-76.25,0-143.06,20.76-149.74,48.52c-0.54,2.25-0.67,4.47-0.42,6.67C98.18,452.6,98.31,451.74,98.51,450.88z"/>
	<path class="st207" d="M420.12,485.67c0,37-68.18,67.63-171.87,67.63S77.23,523.31,77.23,485.87l-0.84-21.35
		c0-8.07,2.87-15.88,8.16-21.97c15.11-17.41,56.38-46.35,163.71-46.35c104.66,0,146.85,26.36,163.11,43.13
		c6.2,6.4,9.49,15.08,9.28,23.99L420.12,485.67z"/>
	<path class="st208" d="M406.51,449.97c4.95,30.66-65.61,56.96-157.89,56.96s-162.84-26.3-157.89-56.96
		c4.66-28.85,75.24-51.01,157.89-51.01S401.85,421.12,406.51,449.97z"/>
	<path class="st18" d="M355.12,446.6c3.35,21.39-44.41,39.75-106.87,39.75s-110.22-18.35-106.87-39.75
		c3.15-20.13,50.93-35.6,106.87-35.6S351.97,426.47,355.12,446.6z"/>
	<path class="st209" d="M343.66,445.93c2.99,18.56-39.64,34.49-95.4,34.49s-98.39-15.92-95.4-34.49
		c2.81-17.47,45.46-30.89,95.4-30.89S340.84,428.46,343.66,445.93z"/>
	<path class="st210" d="M77.97,457.74c1.77,5.89-6.95,65.83,179.19,65.67c144.59,0,161.82-63.02,161.82-63.02l-1.03,27.39
		c0,0,0.44,26.94-53.3,46.38c-49.77,18.26-150.92,22.67-212.61,6.33c-75.98-20.61-72.88-52.12-72.88-52.12L77.97,457.74z"/>
	<path class="st211" d="M400.71,430.21c0,0,16.64,9.87,19.44,26.94L420,487.49c0,0,0.29,13.55-14.72,26.65
		c0,0-23.71,26.8-97.33,35.34S175,547.41,175,547.41s-64.64-7.8-93.2-45.5c0,0-5.45-7.66-5.15-26.21c0,0-0.88-13.55,0.88-19.88
		c0,0-12.81,37.84,36.52,63.31c77.89,41.96,216.88,18.99,216.88,18.99s83.54-14.8,84.81-57.72
		C416.32,439.63,400.71,430.21,400.71,430.21z"/>
	<path class="st57" d="M142.6,540.49c0,20.61-58.09,20.61-58.09,0V477.1c0-33.87,58.09-33.87,58.09,0V540.49z"/>
	<path class="st212" d="M452.98,464.37c0,0,8.98,40.79-16.79,55.36c-25.77,14.58-81.72,13.1-81.72,13.1s-8.25-0.59-8.25-9.42
		s9.57-9.87,9.57-9.87s59.78,1.47,71.85-11.34c12.07-12.81,5.74-39.75,5.74-39.75S447.83,461.42,452.98,464.37z"/>
	<circle class="st213" cx="221.08" cy="535.93" r="15.02"/>
	<circle class="st214" cx="218.51" cy="537.18" r="12.29"/>
	<path class="st215" d="M93.13,431.83c-0.29-0.44,0-29.15,0-29.15s-1.18-10.6,6.18-11.78c3.68-0.59,5.78,0.74,6.96,2.21
		c0.98,1.23,1.44,2.8,1.44,4.38v24.48L93.13,431.83z"/>
	<circle class="st18" cx="101.23" cy="371.02" r="1.91"/>
	<ellipse class="st216" cx="248.17" cy="447.29" rx="87.46" ry="26.5"/>
	<path class="st217" d="M48.96,493.08V391.19c0,0-0.44-14.87-2.5-17.23c-1.85-2.12-7.51-2.21-8.39,7.21s0,107.78,0,107.78
		S43.07,492.79,48.96,493.08z"/>
	<path class="st54" d="M55.58,494.11c0,0-12.07-1.03-12.07-9.87V382.3c0,0-1.07-11.04,8.39-14.82c0,0-11.93,0.52-11.93,14.15v102.31
		c0,0-0.15,5.45-4.86,2.36C35.12,486.31,37.62,495.58,55.58,494.11z"/>
	<ellipse class="st18" cx="66.41" cy="414.88" rx="3.2" ry="37.05"/>
	<path class="st60" d="M58.24,493.34L58.24,493.34V392.48c0-2.35,1.8-4.31,4.14-4.51h0c2.64-0.23,4.91,1.86,4.91,4.51v97.88
		C67.29,490.36,63.2,492.9,58.24,493.34z"/>
	<path class="st218" d="M65.52,395.24c0-2.65-2.1-4.74-4.55-4.51l0,0c-0.8,0.07-1.53,0.39-2.13,0.87c-0.1,0.39-0.17,0.79-0.17,1.21
		V493.3c0,0,4.61-1.11,6.13-1.79L65.52,395.24z"/>
	<g>
		<path class="st36" d="M359.93,123.73c-15.01-20.1-13.22-33.57-10.75-47.26l-23.3,22.97c0,0-10.45-21.48-13.43-25.45
			c-2.98-3.97-28.63-10.18-28.63-10.18s-16.02,17.23-30.67,17.12c-14.34-0.11-31.93-15.08-33.23-14.42
			c-1.3,0.65-11.79,17.18-11.79,17.18l-12.87-11.97l-6.38,34.26l-14.24-27.32c3.04,7.8,3.53,14.71,3.08,20.09l-12.83-15.42
			c0,0,4.96,20.29-9.3,33.59l11.38-6.66l26.38,10.75c0,0,5.51-21.26,7.22-24.35c1.72-3.11,5.8-2.24,6.44-2.27
			c0.64-0.03,16.68-13.07,16.68-13.07l29.34,11.94c0,0,14.65-5.97,42.07-6.62c21.82-0.68,19.58,31.12,19.58,31.12
			s14.5-11.54,25.31-6.63C350.9,116.1,361.11,123.93,359.93,123.73z"/>
		<path class="st18" d="M167.58,97.75c0,0,8.02,4.96,8.77,5.31c0.75,0.35,10.37,8.63,10.37,8.63l4.85,3.34l-13.28-5.14l-4.1-4.13
			l-9.02-2.34L167.58,97.75z"/>
		<path class="st18" d="M192.12,105.73c1.23-0.52,5.53-18.34,5.53-18.34l4.86,2.64l4.39-3.04l13.65-14.06l4.7,4.15l25.69,9.03
			l-28.93-9.2l-18.1,14.55l-4.66-0.91L192.12,105.73z"/>
		<path class="st18" d="M254.91,86.39l15.5-4.1l14.89-10.97l8.59,6.67l18.07,5.26l7.56,13.8l0,11.84c0,0-7.04-21.82-9.06-22.89
			c-2.02-1.06-26.87-6.15-26.87-6.15l-14.22,5.17L254.91,86.39z"/>
	</g>
	<path class="st53" d="M142.6,541.37c0,0-23.63,0.66-23.63-10.16s0-58.53,0-58.53s0.22-16.12-9.28-16.79s-18.99,7.29-18.99,19.88
		s0,64.71,0,64.71s-1.1,6.18-5.3,0.44c0,0-3.98,10.16,21.2,14.36C106.6,555.29,138.41,559.26,142.6,541.37z"/>
	<path class="st54" d="M94.9,470.26v73.55c0,0-0.66,6.63-7.51,3.75c0,0,8.39,11.04,34.67,8.17c0,0-11.71,0.22-15.46-8.83v-73.77
		c0,0,0.22-9.28-5.3-9.06C95.78,464.3,94.9,470.26,94.9,470.26z"/>
	<path class="st54" d="M58.6,493.6c0,0,1.18-1.1,1.18-7.36c0-4.12,3.75-4.27,3.75-4.27s3.09,0.37,3.17,3.31
		c0.07,2.94,1.03,5.3,1.03,5.3S63.83,493.3,58.6,493.6z"/>
	<path class="st219" d="M84.52,497.42c0,11.78,57.97,11.78,57.97,0v9.06c0,11.48-58.09,11.48-58.09,0L84.52,497.42z"/>
	<path class="st54" d="M91.95,503.68v8.54c0,0,10.16,3.39,20.61,2.65v-8.69C112.57,506.18,101.82,507.36,91.95,503.68z"/>
	<path class="st220" d="M140.03,537.91v-59c0-5.22-1.4-10.38-4.29-14.73c-2.49-3.75-6.38-7.47-12.42-9.39
		c-14.87-4.71-24.29,1.91-24.29,1.91s13.4-6.92,24.32,4.52c2.48,2.57,3.81,6.05,3.81,9.62v65.22
		C127.14,536.07,133.4,539.83,140.03,537.91z"/>
	<path class="st221" d="M138.48,532.25v-48.59c0,0,1.91-22.09-16.34-28.27c0,0,13.69,3.83,13.69,29.01s0,51.68,0,51.68l2.36,0.15
		L138.48,532.25z"/>
	<path class="st54" d="M219.13,540.71c0,0,1.33,1.66,1.49,3.42c0.17,1.77-0.22,4.91-0.22,4.91s-2.37,0.72-4.47,0.17
		c-2.1-0.55,0.88-9,0.88-9S217.81,539.55,219.13,540.71z"/>
	<path class="st212" d="M61.77,483.31c1.32-1,3.2-0.72,4.19,0.61c3.78,5.11,12.18,17.21,12.69,24.55
		c0.65,9.5-22.95,25.4-22.08,32.47c0.87,7.07,50.01,28.05,54.13,26.06s1.08-22.97,17.75-24.96s40.05,25.62,59.76,26.72
		c17.57,1.33,26.77-26.94,26.77-26.94c0.36-0.94,1.07-1.45,1.84-1.6c1.86-0.37,3.31,1.65,2.57,3.39
		c-7.32,17.27-13.77,27.84-30.32,29.35c-16.89,1.55-46.77-27.17-59.54-25.84s-9.31,23.19-15.16,26.5
		c-5.85,3.31-59.54-22.09-63.65-30.92s21-26.94,22.52-33.35c1.17-4.93-7.8-16.53-11.99-21.61
		C60.12,486.38,60.37,484.37,61.77,483.31L61.77,483.31z"/>
	<path class="st222" d="M124.57,543.14c2.21-1.18,3.46,1.25,1.03,1.99c0,0-8.02,3.24-8.76,18.85c-0.74,14.28-12.81,8.1-12.81,8.1
		s-35.63-12.96-50.58-26.13c0,0-4.56-3.53-2.58-7.95c0,0,0.22-3.17,7.29-11.04c7.07-7.88,14.17-14.36,15.07-17.6
		c0,0,2.16,1.47-0.64,6.4c-2.62,4.62-15.08,11.38-18.87,21.55c-0.62,1.67-0.53,3.5,0.31,5.08c1.11,2.07,3.5,4.92,8.7,7.68
		c9.72,5.15,32.61,16.42,44.25,19.44c0,0,3.99,1.8,5.15-3.75C114.78,546.16,122.36,544.32,124.57,543.14z"/>
	<path class="st222" d="M61.77,483.31c0,0,6.72,7.65,10.2,15.85c0.43,1.02-1.02,1.75-1.58,0.8c-2.1-3.52-5.14-7.95-9.15-12.22
		C61.24,487.74,60.01,485.02,61.77,483.31z"/>
	<path class="st223" d="M211.68,527.18c0,0,1.88,13.14,16.95,16.51c0,0-5.58,9.17-16.56,3.87
		C201.79,539.88,207.37,529.28,211.68,527.18z"/>
	<path class="st222" d="M199.22,570.53c0,0-4.27,1.4-4.05,0c0.22-1.4,5.6-0.66,11.56-8.32s12-21.64,12-21.64s1.02,0.86,0.66,3.04
		c0,0-4.56,10.65-7.95,15.88C211.44,559.49,207.17,566.48,199.22,570.53z"/>
	<path class="st224" d="M361.25,514.53c0,0-2.8-3.44-11.34-0.57c-8.54,2.87-7.07,15.78-4.86,20.94l20.47-5.45L361.25,514.53z"/>
	<path class="st222" d="M131.56,547.19c0,0-2.06-0.52-0.81-1.99c1.25-1.47,9.28,0.74,22.38,9.57s24,15.09,30.7,16.2
		c0,0,2.94,0.81,2.5,2.06c0,0-4.71-0.52-12.59-3.98s-22.38-12.68-28.12-15.98C135.98,547.56,131.56,547.19,131.56,547.19z"/>
	<path class="st225" d="M129.72,542.99c0,0,6.63-0.96,18.85,6.85c12.22,7.8,20.32,12.81,20.32,12.81l-3.9-0.96l-21.94-13.62
		C143.05,548.07,137.38,544.76,129.72,542.99z"/>
	<path class="st225" d="M70.6,492.05c0,0,7.14,10.82,7.14,16.42c0,5.6-6.26,11.71-6.26,11.71s5.37-7.44,4.56-12.74
		C75.24,502.14,70.6,492.05,70.6,492.05z"/>
	<path class="st225" d="M76.93,557.13l2.06-0.29c0,0,12.22,6.33,27.09,10.82c0,0-2.21,0.74-5.45-0.22
		C97.4,566.48,76.93,557.13,76.93,557.13z"/>
	<path class="st225" d="M197.23,567.29c0,0,2.06,0.59,5.82-2.06c3.75-2.65,11.12-14.06,13.77-22.16c0,0-0.88-0.44-2.06,0.74
		C214.75,543.8,208.93,561.03,197.23,567.29z"/>
	<path class="st226" d="M51.83,494.33c0,0-5.96-0.33-5.96-19.1V376.2c0-4.83-6.45-6.67-8.86-2.48c-1.28,2.23-2.18,5.18-2.18,9.08
		v100.6C34.82,483.4,32.39,492.79,51.83,494.33z"/>
	<path class="st227" d="M133.77,391.41l40.77-8.47c0.56-0.12,0.65-0.88,0.13-1.12l-15.51-7.3l-25.29,4.31L133.77,391.41z"/>
	<path class="st228" d="M225.09,526.25l4.6-1.73c0,0,6.88,4.27,5.56,13.55c-1.84,11.19-13.07,13.58-17.26,11.93
		c0,0,12.85-0.55,13.4-13.14C230.54,528.82,225.09,526.25,225.09,526.25z"/>
	<path class="st228" d="M215.67,524.7l-0.29-1.95c0,0-4.97,1.84-7.29,6.96C208.09,529.71,211.11,525.84,215.67,524.7z"/>
	<path class="st222" d="M355.81,513.55c0,0-8.98,1.18-9.28,9.06c-0.15,9.2,6.99,10.16,6.99,10.16s41.37-0.29,54.92-3.98
		c13.55-3.68,24.44-4.34,35.56-15.09c11.12-10.75,10.97-31.36,10.45-38.43c0,0-6.92,0.85-9.94-0.87c-3.02-1.71-9.94-5.39-9.94-5.39
		l0.96,10.9c0,0,10.6-3.17,12.88,7.95c2.28,11.12-7.88,23.12-7.88,23.12s-15.55,17.77-59.22,14.57c-1.57-0.12-3.14-0.41-4.63-0.96
		c-9.22-3.42-6.68-11.26-6.68-11.26L355.81,513.55z"/>
	<path class="st229" d="M436.86,481.74c0,0-0.15,17.45-11.19,24.07c-8.47,4.64-23.85,8.02-52.56,8.76c0,0-0.31,0.72,0.42,1.92
		c0.92,1.51,2.65,2.34,4.41,2.25c8.84-0.44,42.89-2.54,52.66-9.18c12.37-9.2,12-27.31,12-27.31S439.36,480.42,436.86,481.74z"/>
	<polygon class="st225" points="436.86,481.74 448.42,482.99 436.86,483.36 	"/>
	<polygon class="st225" points="436.59,485.69 447.98,488.03 436.44,487.31 	"/>
	<polygon class="st225" points="435.83,489.7 447.01,492.86 435.56,491.29 	"/>
	<polygon class="st225" points="434.75,493.54 445.48,498.01 434.29,495.09 	"/>
	<polygon class="st225" points="433.11,497.52 443.19,503.33 432.46,499 	"/>
	<polygon class="st225" points="430.67,501.32 439.79,508.53 429.81,502.69 	"/>
	<polygon class="st225" points="427.59,504.47 434.26,513.99 426.37,505.53 	"/>
	<polygon class="st225" points="423.42,506.96 427.29,517.92 421.96,507.66 	"/>
	<polygon class="st225" points="419.16,508.6 422.15,519.83 417.65,509.18 	"/>
	<polygon class="st225" points="414.83,509.98 416.92,521.42 413.27,510.45 	"/>
	<polygon class="st225" points="410.56,510.87 412.65,522.3 409,511.33 	"/>
	<polygon class="st225" points="406.4,511.79 407.97,523.31 404.83,512.18 	"/>
	<polygon class="st225" points="402.18,512.44 403.51,523.99 400.6,512.8 	"/>
	<polygon class="st225" points="397.84,513.03 399.16,524.58 396.26,513.39 	"/>
	<polygon class="st225" points="393.54,513.53 393.9,525.15 391.94,513.75 	"/>
	<polygon class="st225" points="388.88,513.9 389.72,525.5 387.29,514.19 	"/>
	<polygon class="st225" points="384.39,514.37 384.7,525.67 382.9,514.65 	"/>
	<path class="st225" d="M376.12,514.72c0,0,30.26-0.96,44.02-6.63c13.77-5.67,15.24-14.8,16.56-27.02c0,0,2.36,10.9-5.82,21.57
		S387.32,514.8,376.12,514.72z"/>
	<polygon class="st225" points="380.47,514.71 380.47,521.94 379.09,514.6 	"/>
	<polygon class="st225" points="376.38,514.65 376,520.72 374.95,514.65 	"/>
	<path class="st228" d="M434.14,425.72l10.38,4.42c0,0-10.01,2.06-14.43,11.41s-2.21,17.45-2.21,17.45l-6.92-5.23
		c0,0-1.4-6.85-6.26-11.85C414.7,441.91,418.82,427.71,434.14,425.72z"/>
	<path class="st230" d="M428.98,427.19l9.42,5.6c0,0-8.91,3.61-10.9,16.12l-12.07-8.47C415.44,440.44,417.5,430.95,428.98,427.19z"
		/>
	<circle class="st231" cx="450.43" cy="452.53" r="22.58"/>
	<path class="st232" d="M438.78,471.07c0,0-12.15-7.95-9.28-23.93c4.49-16.71,20.39-16.42,20.39-16.42s9.2-0.59,15.31,5.52
		c0,0-13.69-8.98-25.03-0.74c-11.34,8.25-8.83,21.72-8.83,21.72S432.81,465.4,438.78,471.07z"/>
	<circle class="st233" cx="451.6" cy="452.83" r="12.42"/>
	<path class="st55" d="M132.44,412.69c0,0-37.46,12.84-51.17,34.94c-2.4,3.88-3.77,8.31-4.17,12.86l-0.91,10.36l-3.24-0.29
		c0,0-0.44-53.89,0-53.89c0.44,0,3.09,19.44,8.54,18.7C86.95,434.63,95.19,423.44,132.44,412.69z"/>
	<path class="st234" d="M368.22,395.29l35.91,12.01c1.37,0.46,2.86-0.26,3.36-1.62l11.79-32.08c0.54-1.47-0.29-3.09-1.8-3.51
		l-15.79-4.34c-1.27-0.35-2.6,0.28-3.15,1.48c-2.32,5.05-10.01,17.81-30.16,22.92C365.81,390.82,365.7,394.45,368.22,395.29z"/>
	<path class="st235" d="M394.7,367.74c-3.76,6.06-14.41,19.45-35.05,19.08c-1.73-0.03-2.91-1.78-2.27-3.39l9.55-23.93
		c0.46-1.16,1.71-1.79,2.91-1.48l23.37,6.02C394.83,364.46,395.58,366.32,394.7,367.74z"/>
	<g>
		<path class="st234" d="M369.38,359.05l0.53,0.17l-0.56,0.74l0.5,0.16l0.56-0.74l0.53,0.17l-0.56,0.74l0.58,0.18l-0.34,0.43
			l-0.57-0.18l-0.32,0.44l0.59,0.19l-0.33,0.44l-0.59-0.18l-0.56,0.74l-0.53-0.17l0.56-0.74l-0.5-0.16l-0.56,0.74l-0.53-0.17
			l0.56-0.74l-0.58-0.18l0.34-0.43l0.58,0.18l0.33-0.44l-0.6-0.19l0.34-0.43l0.59,0.19L369.38,359.05z M369.01,360.4l-0.33,0.44
			l0.52,0.16l0.33-0.44L369.01,360.4z"/>
		<path class="st234" d="M371.23,363.07l0.79-2.5l-0.9-0.28l0.2-0.64l2.6,0.82l-0.2,0.64l-0.9-0.28l-0.79,2.5L371.23,363.07z"/>
		<path class="st234" d="M373.29,363.71l0.99-3.14l0.79,0.25l-0.38,1.2l1.49-0.85l0.97,0.3l-1.68,0.92l0.73,2.23l-0.96-0.3
			l-0.49-1.53l-0.36,0.19l-0.31,0.99L373.29,363.71z"/>
		<path class="st234" d="M377.11,364.91l0.79-2.5l-0.9-0.28l0.2-0.64l2.6,0.82l-0.2,0.64l-0.9-0.28l-0.79,2.5L377.11,364.91z"/>
		<path class="st234" d="M379.16,365.56l0.99-3.14l1.5,0.47c0.4,0.12,0.67,0.29,0.81,0.49s0.17,0.45,0.07,0.75
			c-0.06,0.18-0.14,0.31-0.26,0.42s-0.28,0.17-0.47,0.2c0.12,0.1,0.2,0.2,0.22,0.31c0.03,0.11,0.01,0.28-0.05,0.51
			c-0.02,0.07-0.04,0.15-0.07,0.26c-0.07,0.26-0.07,0.42-0.01,0.48l-0.03,0.11l-0.84-0.26c-0.01-0.12,0.02-0.28,0.07-0.48
			c0.06-0.2,0.09-0.32,0.1-0.37c0.03-0.13,0.01-0.23-0.04-0.31s-0.15-0.14-0.29-0.18l-0.54-0.17l-0.37,1.17L379.16,365.56z
			 M380.52,364.01l0.6,0.19c0.16,0.05,0.29,0.06,0.39,0.02c0.09-0.04,0.16-0.12,0.2-0.25c0.04-0.12,0.03-0.21-0.03-0.29
			c-0.06-0.08-0.16-0.14-0.31-0.19l-0.62-0.19L380.52,364.01z"/>
		<path class="st234" d="M382.36,366.56l0.99-3.14l0.87,0.27l0.27,1.22c0.04,0.2,0.08,0.39,0.12,0.59s0.07,0.38,0.09,0.57
			c0.06-0.24,0.12-0.47,0.18-0.68c0.06-0.21,0.11-0.39,0.16-0.55l0.25-0.8l0.78,0.24l-0.99,3.14l-0.87-0.27l-0.28-1.25
			c-0.03-0.15-0.07-0.31-0.1-0.5c-0.04-0.18-0.07-0.38-0.11-0.59c-0.05,0.21-0.1,0.4-0.15,0.58s-0.09,0.34-0.14,0.47l-0.3,0.95
			L382.36,366.56z"/>
		<path class="st234" d="M385.71,367.61l0.99-3.14l0.81,0.25l-0.35,1.11l1.1,0.35l0.35-1.11l0.81,0.25l-0.99,3.14l-0.81-0.25
			l0.42-1.32l-1.1-0.35l-0.42,1.32L385.71,367.61z"/>
		<path class="st234" d="M389.04,368.66l0.99-3.14l1.52,0.48c0.37,0.11,0.61,0.27,0.75,0.45c0.13,0.19,0.16,0.42,0.07,0.69
			c-0.05,0.17-0.14,0.3-0.25,0.38s-0.26,0.13-0.43,0.14c0.17,0.1,0.28,0.23,0.34,0.38c0.06,0.15,0.06,0.32,0,0.5
			c-0.06,0.18-0.15,0.32-0.27,0.44c-0.12,0.12-0.27,0.19-0.44,0.22c-0.11,0.02-0.25,0.02-0.39,0c-0.15-0.02-0.36-0.08-0.65-0.17
			L389.04,368.66z M390.41,366.99l0.65,0.2c0.14,0.04,0.25,0.05,0.33,0.02c0.08-0.03,0.14-0.1,0.17-0.2
			c0.03-0.1,0.02-0.18-0.03-0.25s-0.13-0.12-0.25-0.16l-0.68-0.21L390.41,366.99z M390.01,368.28l0.61,0.19
			c0.19,0.06,0.33,0.08,0.43,0.05c0.09-0.03,0.16-0.11,0.2-0.23c0.04-0.11,0.03-0.21-0.03-0.29s-0.16-0.14-0.3-0.19l-0.69-0.22
			L390.01,368.28z"/>
		<path class="st234" d="M391.88,369.56l1.52-1.29l-0.48-1.83l0.92,0.29l0.22,0.99l0.74-0.69l0.92,0.29l-1.45,1.22l0.52,1.93
			l-0.93-0.29l-0.24-1.08l-0.82,0.74L391.88,369.56z"/>
		<path class="st234" d="M395.7,370.75l0.79-2.5l-0.9-0.28l0.2-0.64l2.6,0.82l-0.2,0.64l-0.9-0.28l-0.79,2.5L395.7,370.75z"/>
		<path class="st234" d="M400.88,371.18c-0.17,0.36-0.41,0.6-0.72,0.74s-0.65,0.14-1.04,0.02c-0.46-0.14-0.78-0.41-0.97-0.8
			s-0.2-0.83-0.05-1.32c0.16-0.51,0.43-0.87,0.81-1.08c0.38-0.21,0.81-0.24,1.29-0.09c0.38,0.12,0.66,0.32,0.84,0.59
			s0.23,0.59,0.15,0.95l-0.75-0.24c0.01-0.16-0.02-0.3-0.1-0.41c-0.08-0.11-0.2-0.19-0.37-0.24c-0.22-0.07-0.43-0.04-0.62,0.1
			s-0.33,0.36-0.43,0.67c-0.1,0.31-0.11,0.56-0.04,0.77c0.07,0.21,0.22,0.35,0.44,0.42c0.18,0.06,0.34,0.06,0.48,0
			c0.14-0.05,0.24-0.16,0.32-0.32L400.88,371.18z"/>
		<path class="st234" d="M401,372.42l0.99-3.14l0.87,0.27l0.27,1.22c0.04,0.2,0.08,0.39,0.12,0.59s0.07,0.38,0.09,0.57
			c0.06-0.24,0.12-0.47,0.18-0.68c0.06-0.21,0.11-0.39,0.16-0.55l0.25-0.8l0.78,0.24l-0.99,3.14l-0.87-0.27l-0.28-1.25
			c-0.03-0.15-0.07-0.31-0.1-0.5c-0.04-0.18-0.07-0.38-0.11-0.59c-0.05,0.21-0.1,0.4-0.15,0.58c-0.05,0.18-0.09,0.34-0.14,0.47
			l-0.3,0.95L401,372.42z"/>
		<path class="st234" d="M404.34,373.47l0.99-3.14l1.34,0.42c0.46,0.15,0.78,0.39,0.94,0.74c0.16,0.35,0.16,0.78,0.01,1.28
			c-0.16,0.52-0.42,0.88-0.75,1.06c-0.34,0.18-0.77,0.19-1.28,0.03L404.34,373.47z M405.36,373.07l0.44,0.14
			c0.25,0.08,0.45,0.06,0.62-0.05c0.16-0.11,0.29-0.32,0.39-0.63c0.1-0.31,0.11-0.56,0.04-0.74c-0.07-0.18-0.23-0.31-0.48-0.39
			l-0.44-0.14L405.36,373.07z"/>
		<path class="st234" d="M407.78,373.21l0.75,0.23l-0.07,0.21c-0.05,0.16-0.06,0.28-0.03,0.37s0.1,0.15,0.22,0.18
			c0.12,0.04,0.21,0.02,0.29-0.04c0.07-0.07,0.14-0.22,0.22-0.46l0.62-1.98l0.79,0.25l-0.61,1.95c-0.14,0.45-0.33,0.75-0.56,0.89
			c-0.23,0.14-0.55,0.15-0.94,0.03c-0.36-0.11-0.6-0.29-0.72-0.54s-0.11-0.57,0.01-0.96c0-0.01,0.01-0.04,0.02-0.06
			C407.77,373.24,407.78,373.22,407.78,373.21z"/>
		<path class="st234" d="M367.73,364.29l0.53,0.17l-0.56,0.74l0.5,0.16l0.56-0.74l0.53,0.17l-0.56,0.74l0.58,0.18l-0.34,0.43
			l-0.57-0.18l-0.32,0.44l0.59,0.19l-0.33,0.44l-0.59-0.18l-0.56,0.74l-0.53-0.17l0.56-0.74l-0.5-0.16l-0.56,0.74l-0.53-0.17
			l0.56-0.74l-0.58-0.18l0.34-0.43l0.58,0.18l0.33-0.44l-0.6-0.19l0.34-0.43l0.59,0.19L367.73,364.29z M367.36,365.64l-0.33,0.44
			l0.52,0.16l0.33-0.44L367.36,365.64z"/>
		<path class="st234" d="M369.68,368.33l-0.09-3.48l0.85,0.27l-0.07,1.75c0,0.03,0,0.08-0.01,0.14c-0.01,0.21-0.02,0.39-0.03,0.52
			c0.04-0.06,0.08-0.13,0.13-0.21c0.05-0.08,0.12-0.18,0.2-0.31l0.99-1.52l0.85,0.27l-2.07,2.8L369.68,368.33z"/>
		<path class="st234" d="M371.94,367.7l0.75,0.23l-0.07,0.21c-0.05,0.16-0.06,0.28-0.03,0.37c0.03,0.09,0.1,0.15,0.22,0.18
			c0.12,0.04,0.21,0.02,0.29-0.04c0.07-0.07,0.14-0.22,0.22-0.46l0.62-1.98l0.79,0.25l-0.61,1.95c-0.14,0.45-0.33,0.75-0.56,0.89
			s-0.55,0.15-0.94,0.03c-0.36-0.11-0.6-0.29-0.72-0.54s-0.11-0.57,0.01-0.96c0-0.01,0.01-0.04,0.02-0.06
			C371.93,367.74,371.94,367.72,371.94,367.7z"/>
		<path class="st234" d="M374.33,369.8l0.99-3.14l0.79,0.25l-0.38,1.2l1.49-0.85l0.97,0.3l-1.68,0.92l0.73,2.23l-0.96-0.3
			l-0.49-1.53l-0.36,0.19l-0.31,0.99L374.33,369.8z"/>
		<path class="st234" d="M378.06,370.97l0.37-1.18l-0.47-2.3l0.9,0.28l0.18,1.45l0.97-1.09l0.91,0.29l-1.71,1.61l-0.37,1.18
			L378.06,370.97z"/>
		<path class="st234" d="M380.2,371.64l0.99-3.14l1.52,0.48c0.37,0.11,0.61,0.27,0.75,0.45c0.13,0.19,0.16,0.42,0.07,0.69
			c-0.05,0.17-0.14,0.3-0.25,0.38s-0.26,0.13-0.43,0.14c0.17,0.1,0.28,0.23,0.34,0.38c0.06,0.15,0.06,0.32,0,0.5
			c-0.06,0.18-0.15,0.32-0.27,0.44c-0.12,0.12-0.27,0.19-0.44,0.22c-0.12,0.02-0.25,0.02-0.39,0c-0.15-0.02-0.36-0.08-0.65-0.17
			L380.2,371.64z M381.57,369.97l0.65,0.2c0.14,0.04,0.25,0.05,0.33,0.02c0.08-0.03,0.14-0.1,0.17-0.2c0.03-0.1,0.02-0.18-0.03-0.25
			c-0.05-0.07-0.13-0.12-0.25-0.16l-0.68-0.21L381.57,369.97z M381.17,371.26l0.61,0.19c0.19,0.06,0.33,0.08,0.43,0.05
			c0.09-0.03,0.16-0.11,0.2-0.23c0.04-0.11,0.03-0.21-0.03-0.29c-0.06-0.08-0.16-0.14-0.3-0.19l-0.69-0.22L381.17,371.26z"/>
		<path class="st234" d="M383.38,372.64l0.99-3.14l1.52,0.48c0.37,0.11,0.61,0.27,0.75,0.45c0.13,0.19,0.16,0.42,0.07,0.69
			c-0.05,0.17-0.14,0.3-0.25,0.38s-0.26,0.13-0.43,0.14c0.17,0.1,0.28,0.23,0.34,0.38c0.06,0.15,0.06,0.32,0,0.5
			c-0.06,0.18-0.15,0.32-0.27,0.44s-0.27,0.19-0.44,0.22c-0.12,0.02-0.25,0.02-0.39,0c-0.15-0.02-0.36-0.08-0.65-0.17L383.38,372.64
			z M384.75,370.97l0.65,0.2c0.14,0.04,0.25,0.05,0.33,0.02c0.08-0.03,0.14-0.1,0.17-0.2c0.03-0.1,0.02-0.18-0.03-0.25
			s-0.13-0.12-0.25-0.16l-0.68-0.21L384.75,370.97z M384.35,372.26l0.61,0.19c0.19,0.06,0.33,0.08,0.43,0.05
			c0.09-0.03,0.16-0.11,0.2-0.23c0.04-0.11,0.03-0.21-0.03-0.29c-0.06-0.08-0.16-0.14-0.3-0.19l-0.69-0.22L384.35,372.26z"/>
		<path class="st234" d="M390.98,373.82c-0.17,0.36-0.41,0.6-0.72,0.74c-0.31,0.13-0.65,0.14-1.04,0.02
			c-0.46-0.14-0.78-0.41-0.97-0.8s-0.2-0.83-0.05-1.32c0.16-0.51,0.43-0.87,0.81-1.08c0.38-0.21,0.81-0.24,1.29-0.09
			c0.38,0.12,0.66,0.32,0.84,0.59s0.23,0.59,0.15,0.95l-0.75-0.24c0.01-0.16-0.02-0.3-0.1-0.41c-0.08-0.11-0.2-0.19-0.37-0.24
			c-0.22-0.07-0.43-0.04-0.62,0.1s-0.33,0.36-0.43,0.67c-0.1,0.31-0.11,0.56-0.04,0.77c0.07,0.21,0.22,0.35,0.44,0.42
			c0.18,0.06,0.34,0.06,0.48,0c0.14-0.05,0.24-0.16,0.32-0.32L390.98,373.82z"/>
		<path class="st234" d="M391.82,375.29l-0.09-3.48l0.85,0.27l-0.07,1.75c0,0.03,0,0.08-0.01,0.14c-0.01,0.21-0.02,0.39-0.03,0.52
			c0.04-0.06,0.08-0.13,0.13-0.21s0.12-0.18,0.2-0.31l0.99-1.52l0.85,0.27l-2.07,2.8L391.82,375.29z"/>
		<path class="st234" d="M394.55,376.15l0.79-2.5l-0.9-0.28l0.2-0.64l2.6,0.82l-0.2,0.64l-0.9-0.28l-0.79,2.5L394.55,376.15z"/>
		<path class="st234" d="M396.6,376.79l0.99-3.14l0.81,0.25l-0.35,1.11l1.1,0.35l0.35-1.11l0.81,0.25l-0.99,3.14l-0.81-0.25
			l0.42-1.32l-1.1-0.35l-0.42,1.32L396.6,376.79z"/>
		<path class="st234" d="M399.93,377.84l0.99-3.14l0.87,0.27l0.27,1.22c0.04,0.2,0.08,0.39,0.12,0.59s0.07,0.38,0.09,0.57
			c0.06-0.24,0.12-0.47,0.18-0.68c0.06-0.21,0.11-0.39,0.16-0.55l0.25-0.8l0.78,0.24l-0.99,3.14l-0.87-0.27l-0.28-1.25
			c-0.03-0.15-0.07-0.31-0.1-0.5c-0.04-0.18-0.07-0.38-0.11-0.59c-0.05,0.21-0.1,0.4-0.15,0.58c-0.05,0.18-0.09,0.34-0.14,0.47
			l-0.3,0.95L399.93,377.84z"/>
		<path class="st234" d="M403.28,378.89l0.99-3.14l1.11,0.35l-0.07,1.66c-0.01,0.15-0.01,0.29-0.02,0.42
			c-0.01,0.14-0.02,0.27-0.04,0.4c0.07-0.12,0.14-0.24,0.22-0.37s0.16-0.27,0.26-0.41l0.84-1.32l1.1,0.35l-0.99,3.14l-0.73-0.23
			l0.44-1.39c0.03-0.1,0.08-0.23,0.14-0.41s0.13-0.38,0.21-0.61l-1.36,2.23l-0.8-0.25l0.17-2.6c-0.08,0.28-0.15,0.53-0.21,0.76
			c-0.06,0.22-0.12,0.4-0.16,0.52l-0.36,1.14L403.28,378.89z"/>
		<path class="st234" d="M366.3,372.41c-0.12,0.09-0.23,0.15-0.35,0.17s-0.25,0.01-0.38-0.03c-0.23-0.07-0.39-0.19-0.47-0.35
			c-0.08-0.16-0.08-0.36-0.01-0.61c0.11-0.34,0.3-0.6,0.57-0.77s0.56-0.21,0.85-0.11c0.11,0.03,0.2,0.09,0.27,0.15
			c0.07,0.07,0.11,0.16,0.14,0.26l0.17-0.16l0.44,0.14l-0.73,1.2c0,0,0,0.01-0.01,0.01c-0.01,0.02-0.02,0.04-0.02,0.06
			c-0.01,0.04-0.01,0.08,0,0.11s0.05,0.05,0.09,0.06c0.19,0.06,0.4,0.01,0.61-0.14c0.21-0.16,0.36-0.37,0.45-0.65
			c0.11-0.34,0.07-0.66-0.12-0.95s-0.49-0.51-0.9-0.63c-0.21-0.07-0.41-0.1-0.61-0.11c-0.2,0-0.38,0.02-0.56,0.08
			c-0.27,0.09-0.5,0.23-0.69,0.42c-0.19,0.2-0.33,0.43-0.42,0.7c-0.13,0.43-0.1,0.82,0.11,1.16c0.21,0.35,0.55,0.59,1.04,0.75
			c0.23,0.07,0.47,0.11,0.71,0.11c0.24,0,0.47-0.04,0.69-0.11l0.12,0.35c-0.27,0.1-0.55,0.15-0.82,0.15
			c-0.27,0.01-0.54-0.03-0.81-0.12c-0.27-0.09-0.51-0.2-0.72-0.34s-0.38-0.31-0.52-0.5c-0.17-0.24-0.27-0.5-0.31-0.76
			s-0.01-0.54,0.08-0.82c0.08-0.24,0.18-0.46,0.33-0.65c0.14-0.19,0.32-0.35,0.52-0.49c0.29-0.19,0.61-0.31,0.95-0.35
			c0.34-0.04,0.7,0,1.06,0.11c0.24,0.08,0.46,0.18,0.65,0.31c0.19,0.13,0.35,0.28,0.47,0.46c0.15,0.21,0.24,0.43,0.27,0.65
			s0.01,0.46-0.06,0.7c-0.07,0.24-0.19,0.44-0.35,0.61c-0.16,0.17-0.34,0.3-0.57,0.38c-0.12,0.05-0.25,0.08-0.39,0.08
			s-0.27-0.01-0.39-0.05c-0.15-0.05-0.26-0.11-0.32-0.19C366.29,372.63,366.27,372.53,366.3,372.41z M366.67,371.51
			c0.02-0.11,0.01-0.21-0.03-0.28s-0.11-0.13-0.21-0.16c-0.15-0.05-0.3,0-0.47,0.14c-0.17,0.14-0.29,0.32-0.36,0.56
			c-0.04,0.12-0.04,0.22-0.01,0.3c0.03,0.08,0.09,0.13,0.18,0.16c0.12,0.04,0.24,0.03,0.35-0.03c0.12-0.06,0.22-0.15,0.29-0.28
			L366.67,371.51z"/>
		<path class="st234" d="M368.32,373.66l0.99-3.14l2.38,0.75l-0.2,0.64l-1.58-0.5l-0.17,0.55l1.44,0.45l-0.2,0.63l-1.44-0.45
			l-0.21,0.67l1.63,0.51l-0.2,0.64L368.32,373.66z"/>
		<path class="st234" d="M371.69,373.11l0.24-0.75l0.79,0.25l-0.24,0.75L371.69,373.11z M371.23,374.58l0.24-0.75l0.79,0.25
			l-0.24,0.75L371.23,374.58z"/>
		<path class="st234" d="M372.63,375.02l0.99-3.14l2.25,0.71l-0.2,0.65l-1.45-0.46l-0.2,0.65l1.26,0.4l-0.2,0.65l-1.26-0.4
			l-0.37,1.19L372.63,375.02z"/>
		<path class="st234" d="M378.42,375.63c-0.17,0.36-0.41,0.61-0.72,0.74s-0.65,0.14-1.04,0.02c-0.46-0.14-0.78-0.41-0.97-0.8
			s-0.2-0.83-0.05-1.32c0.16-0.51,0.43-0.87,0.81-1.08c0.38-0.21,0.81-0.24,1.29-0.09c0.38,0.12,0.66,0.32,0.84,0.59
			s0.23,0.59,0.15,0.95l-0.75-0.24c0.01-0.16-0.02-0.3-0.1-0.41c-0.08-0.11-0.2-0.19-0.37-0.24c-0.22-0.07-0.43-0.04-0.62,0.1
			s-0.33,0.36-0.43,0.67c-0.1,0.31-0.11,0.56-0.04,0.77c0.07,0.21,0.22,0.35,0.44,0.42c0.18,0.06,0.34,0.06,0.48,0
			c0.14-0.05,0.24-0.16,0.32-0.32L378.42,375.63z"/>
		<path class="st234" d="M380.78,374.13l0.75,0.24l-0.35,1.11c0.11-0.1,0.24-0.15,0.38-0.18c0.14-0.02,0.28-0.01,0.43,0.04
			c0.28,0.09,0.48,0.28,0.59,0.56c0.11,0.29,0.11,0.61-0.01,0.98c-0.11,0.36-0.3,0.63-0.55,0.79s-0.52,0.2-0.81,0.11
			c-0.15-0.05-0.27-0.12-0.36-0.21s-0.16-0.22-0.21-0.37l-0.1,0.3l-0.76-0.24L380.78,374.13z M381.8,376.6
			c0.06-0.19,0.07-0.35,0.02-0.48c-0.04-0.13-0.13-0.22-0.27-0.26c-0.14-0.05-0.27-0.03-0.39,0.06c-0.11,0.08-0.2,0.22-0.26,0.41
			c-0.07,0.21-0.08,0.38-0.04,0.51c0.04,0.13,0.13,0.22,0.28,0.27c0.14,0.05,0.27,0.03,0.39-0.06S381.74,376.81,381.8,376.6z"/>
		<path class="st234" d="M383.94,378.57l0.99-3.14l0.87,0.27l0.27,1.22c0.04,0.2,0.08,0.39,0.12,0.59s0.07,0.38,0.09,0.57
			c0.06-0.24,0.12-0.47,0.18-0.68c0.06-0.21,0.11-0.39,0.16-0.55l0.25-0.8l0.78,0.24l-0.99,3.14l-0.87-0.27l-0.28-1.25
			c-0.03-0.15-0.07-0.31-0.1-0.5c-0.04-0.18-0.07-0.38-0.11-0.59c-0.05,0.21-0.1,0.4-0.15,0.58c-0.05,0.18-0.09,0.34-0.14,0.47
			l-0.3,0.95L383.94,378.57z"/>
		<path class="st234" d="M387.28,379.62l0.99-3.14l0.79,0.25l-0.38,1.2l1.49-0.85l0.97,0.3l-1.68,0.92l0.73,2.23l-0.96-0.3
			l-0.49-1.53l-0.36,0.19l-0.31,0.99L387.28,379.62z"/>
		<path class="st234" d="M391.1,380.82l0.79-2.5l-0.9-0.28l0.2-0.64l2.6,0.82l-0.2,0.64l-0.9-0.28l-0.79,2.5L391.1,380.82z"/>
		<path class="st234" d="M393.89,381.69l0.37-1.18l-0.47-2.3l0.9,0.28l0.18,1.45l0.97-1.09l0.91,0.29l-1.71,1.61l-0.37,1.18
			L393.89,381.69z"/>
	</g>
	<g>
		<path class="st236" d="M369.39,358.26l0.53,0.17l-0.56,0.74l0.5,0.16l0.56-0.74l0.53,0.17l-0.56,0.74l0.58,0.18l-0.34,0.43
			l-0.57-0.18l-0.32,0.44l0.59,0.19l-0.33,0.44l-0.59-0.18l-0.56,0.74l-0.53-0.17l0.56-0.74l-0.5-0.16l-0.56,0.74l-0.53-0.17
			l0.56-0.74l-0.58-0.18l0.34-0.43l0.58,0.18l0.33-0.44l-0.6-0.19l0.34-0.43l0.59,0.19L369.39,358.26z M369.02,359.6l-0.33,0.44
			l0.52,0.16l0.33-0.44L369.02,359.6z"/>
		<path class="st236" d="M371.25,362.27l0.79-2.5l-0.9-0.28l0.2-0.64l2.6,0.82l-0.2,0.64l-0.9-0.28l-0.79,2.5L371.25,362.27z"/>
		<path class="st236" d="M373.3,362.92l0.99-3.14l0.79,0.25l-0.38,1.2l1.49-0.85l0.97,0.3l-1.68,0.92l0.73,2.23l-0.96-0.3
			l-0.49-1.53l-0.36,0.19l-0.31,0.99L373.3,362.92z"/>
		<path class="st236" d="M377.12,364.12l0.79-2.5l-0.9-0.28l0.2-0.64l2.6,0.82l-0.2,0.64l-0.9-0.28l-0.79,2.5L377.12,364.12z"/>
		<path class="st236" d="M379.17,364.76l0.99-3.14l1.5,0.47c0.4,0.12,0.67,0.29,0.81,0.49s0.17,0.45,0.07,0.75
			c-0.06,0.18-0.14,0.31-0.26,0.42s-0.28,0.17-0.47,0.2c0.12,0.1,0.2,0.2,0.22,0.31c0.03,0.11,0.01,0.28-0.05,0.51
			c-0.02,0.07-0.04,0.15-0.07,0.26c-0.07,0.26-0.07,0.42-0.01,0.48l-0.03,0.11l-0.84-0.26c-0.01-0.12,0.02-0.28,0.07-0.48
			c0.06-0.2,0.09-0.32,0.1-0.37c0.03-0.13,0.01-0.23-0.04-0.31s-0.15-0.14-0.29-0.18l-0.54-0.17l-0.37,1.17L379.17,364.76z
			 M380.53,363.22l0.6,0.19c0.16,0.05,0.29,0.06,0.39,0.02c0.09-0.04,0.16-0.12,0.2-0.25c0.04-0.12,0.03-0.21-0.03-0.29
			c-0.06-0.08-0.16-0.14-0.31-0.19l-0.62-0.19L380.53,363.22z"/>
		<path class="st236" d="M382.37,365.77l0.99-3.14l0.87,0.27l0.27,1.22c0.04,0.2,0.08,0.39,0.12,0.59s0.07,0.38,0.09,0.57
			c0.06-0.24,0.12-0.47,0.18-0.68c0.06-0.21,0.11-0.39,0.16-0.55l0.25-0.8l0.78,0.24l-0.99,3.14l-0.87-0.27l-0.28-1.25
			c-0.03-0.15-0.07-0.31-0.1-0.5c-0.04-0.18-0.07-0.38-0.11-0.59c-0.05,0.21-0.1,0.4-0.15,0.58s-0.09,0.34-0.14,0.47l-0.3,0.95
			L382.37,365.77z"/>
		<path class="st236" d="M385.72,366.82l0.99-3.14l0.81,0.25l-0.35,1.11l1.1,0.35l0.35-1.11l0.81,0.25l-0.99,3.14l-0.81-0.25
			l0.42-1.32l-1.1-0.35l-0.42,1.32L385.72,366.82z"/>
		<path class="st236" d="M389.05,367.87l0.99-3.14l1.52,0.48c0.37,0.11,0.61,0.27,0.75,0.45c0.13,0.19,0.16,0.42,0.07,0.69
			c-0.05,0.17-0.14,0.3-0.25,0.38s-0.26,0.13-0.43,0.14c0.17,0.1,0.28,0.23,0.34,0.38c0.06,0.15,0.06,0.32,0,0.5
			c-0.06,0.18-0.15,0.32-0.27,0.44c-0.12,0.12-0.27,0.19-0.44,0.22c-0.11,0.02-0.25,0.02-0.39,0c-0.15-0.02-0.36-0.08-0.65-0.17
			L389.05,367.87z M390.42,366.2l0.65,0.2c0.14,0.04,0.25,0.05,0.33,0.02c0.08-0.03,0.14-0.1,0.17-0.2c0.03-0.1,0.02-0.18-0.03-0.25
			s-0.13-0.12-0.25-0.16l-0.68-0.21L390.42,366.2z M390.02,367.49l0.61,0.19c0.19,0.06,0.33,0.08,0.43,0.05
			c0.09-0.03,0.16-0.11,0.2-0.23c0.04-0.11,0.03-0.21-0.03-0.29s-0.16-0.14-0.3-0.19l-0.69-0.22L390.02,367.49z"/>
		<path class="st236" d="M391.9,368.76l1.52-1.29l-0.48-1.83l0.92,0.29l0.22,0.99l0.74-0.69l0.92,0.29l-1.45,1.22l0.52,1.93
			l-0.93-0.29l-0.24-1.08l-0.82,0.74L391.9,368.76z"/>
		<path class="st236" d="M395.71,369.96l0.79-2.5l-0.9-0.28l0.2-0.64l2.6,0.82l-0.2,0.64l-0.9-0.28l-0.79,2.5L395.71,369.96z"/>
		<path class="st236" d="M400.9,370.38c-0.17,0.36-0.41,0.6-0.72,0.74c-0.31,0.13-0.65,0.14-1.04,0.02
			c-0.46-0.14-0.78-0.41-0.97-0.8s-0.2-0.83-0.05-1.32c0.16-0.51,0.43-0.87,0.81-1.08c0.38-0.21,0.81-0.24,1.29-0.09
			c0.38,0.12,0.66,0.32,0.84,0.59c0.18,0.28,0.23,0.59,0.15,0.95l-0.75-0.24c0.01-0.16-0.02-0.3-0.1-0.41
			c-0.08-0.11-0.2-0.19-0.37-0.24c-0.22-0.07-0.43-0.04-0.62,0.1s-0.33,0.36-0.43,0.67c-0.1,0.31-0.11,0.56-0.04,0.77
			c0.07,0.21,0.22,0.35,0.44,0.42c0.18,0.06,0.34,0.06,0.48,0c0.14-0.05,0.24-0.16,0.32-0.32L400.9,370.38z"/>
		<path class="st236" d="M401.01,371.63l0.99-3.14l0.87,0.27l0.27,1.22c0.04,0.2,0.08,0.39,0.12,0.59s0.07,0.38,0.09,0.57
			c0.06-0.24,0.12-0.47,0.18-0.68c0.06-0.21,0.11-0.39,0.16-0.55l0.25-0.8l0.78,0.24l-0.99,3.14l-0.87-0.27l-0.28-1.25
			c-0.03-0.15-0.07-0.31-0.1-0.5c-0.04-0.18-0.07-0.38-0.11-0.59c-0.05,0.21-0.1,0.4-0.15,0.58s-0.09,0.34-0.14,0.47l-0.3,0.95
			L401.01,371.63z"/>
		<path class="st236" d="M404.36,372.68l0.99-3.14l1.34,0.42c0.46,0.15,0.78,0.39,0.94,0.74c0.16,0.35,0.16,0.78,0.01,1.28
			c-0.16,0.52-0.42,0.88-0.75,1.06c-0.34,0.18-0.77,0.19-1.28,0.03L404.36,372.68z M405.37,372.27l0.44,0.14
			c0.25,0.08,0.45,0.06,0.62-0.05c0.16-0.11,0.29-0.32,0.39-0.63c0.1-0.31,0.11-0.56,0.04-0.74c-0.07-0.18-0.23-0.31-0.48-0.39
			l-0.44-0.14L405.37,372.27z"/>
		<path class="st236" d="M407.79,372.42l0.75,0.23l-0.07,0.21c-0.05,0.16-0.06,0.28-0.03,0.37c0.03,0.09,0.1,0.15,0.22,0.18
			c0.12,0.04,0.21,0.02,0.29-0.04s0.14-0.22,0.22-0.46l0.62-1.98l0.79,0.25l-0.61,1.95c-0.14,0.45-0.33,0.75-0.56,0.89
			c-0.23,0.14-0.55,0.15-0.94,0.03c-0.36-0.11-0.6-0.29-0.72-0.54s-0.11-0.57,0.01-0.96c0-0.01,0.01-0.04,0.02-0.06
			C407.78,372.45,407.79,372.43,407.79,372.42z"/>
		<path class="st236" d="M367.75,363.5l0.53,0.17l-0.56,0.74l0.5,0.16l0.56-0.74l0.53,0.17l-0.56,0.74l0.58,0.18l-0.34,0.43
			l-0.57-0.18l-0.32,0.44l0.59,0.19l-0.33,0.44l-0.59-0.18l-0.56,0.74l-0.53-0.17l0.56-0.74l-0.5-0.16l-0.56,0.74l-0.53-0.17
			l0.56-0.74l-0.58-0.18l0.34-0.43l0.58,0.18l0.33-0.44l-0.6-0.19l0.34-0.43l0.59,0.19L367.75,363.5z M367.38,364.84l-0.33,0.44
			l0.52,0.16l0.33-0.44L367.38,364.84z"/>
		<path class="st236" d="M369.69,367.54l-0.09-3.48l0.85,0.27l-0.07,1.75c0,0.03,0,0.08-0.01,0.14c-0.01,0.21-0.02,0.39-0.03,0.52
			c0.04-0.06,0.08-0.13,0.13-0.21c0.05-0.08,0.12-0.18,0.2-0.31l0.99-1.52l0.85,0.27l-2.07,2.8L369.69,367.54z"/>
		<path class="st236" d="M371.95,366.91l0.75,0.23l-0.07,0.21c-0.05,0.16-0.06,0.28-0.03,0.37s0.1,0.15,0.22,0.18
			c0.12,0.04,0.21,0.02,0.29-0.04c0.07-0.07,0.14-0.22,0.22-0.46l0.62-1.98l0.79,0.25l-0.61,1.95c-0.14,0.45-0.33,0.75-0.56,0.89
			s-0.55,0.15-0.94,0.03c-0.36-0.11-0.6-0.29-0.72-0.54c-0.11-0.25-0.11-0.57,0.01-0.96c0-0.01,0.01-0.04,0.02-0.06
			C371.94,366.95,371.95,366.92,371.95,366.91z"/>
		<path class="st236" d="M374.34,369l0.99-3.14l0.79,0.25l-0.38,1.2l1.49-0.85l0.97,0.3l-1.68,0.92l0.73,2.23l-0.96-0.3l-0.49-1.53
			l-0.36,0.19l-0.31,0.99L374.34,369z"/>
		<path class="st236" d="M378.07,370.17l0.37-1.18l-0.47-2.3l0.9,0.28l0.18,1.45l0.97-1.09l0.91,0.29l-1.71,1.61l-0.37,1.18
			L378.07,370.17z"/>
		<path class="st236" d="M380.21,370.85l0.99-3.14l1.52,0.48c0.37,0.11,0.61,0.27,0.75,0.45c0.13,0.19,0.16,0.42,0.07,0.69
			c-0.05,0.17-0.14,0.3-0.25,0.38s-0.26,0.13-0.43,0.14c0.17,0.1,0.28,0.23,0.34,0.38c0.06,0.15,0.06,0.32,0,0.5
			c-0.06,0.18-0.15,0.32-0.27,0.44c-0.12,0.12-0.27,0.19-0.44,0.22c-0.12,0.02-0.25,0.02-0.39,0c-0.15-0.02-0.36-0.08-0.65-0.17
			L380.21,370.85z M381.58,369.18l0.65,0.2c0.14,0.04,0.25,0.05,0.33,0.02c0.08-0.03,0.14-0.1,0.17-0.2
			c0.03-0.1,0.02-0.18-0.03-0.25c-0.05-0.07-0.13-0.12-0.25-0.16l-0.68-0.21L381.58,369.18z M381.18,370.46l0.61,0.19
			c0.19,0.06,0.33,0.08,0.43,0.05s0.16-0.11,0.2-0.23c0.04-0.11,0.03-0.21-0.03-0.29c-0.06-0.08-0.16-0.14-0.3-0.19l-0.69-0.22
			L381.18,370.46z"/>
		<path class="st236" d="M383.39,371.85l0.99-3.14l1.52,0.48c0.37,0.11,0.61,0.27,0.75,0.45c0.13,0.19,0.16,0.42,0.07,0.69
			c-0.05,0.17-0.14,0.3-0.25,0.38s-0.26,0.13-0.43,0.14c0.17,0.1,0.28,0.23,0.34,0.38c0.06,0.15,0.06,0.32,0,0.5
			c-0.06,0.18-0.15,0.32-0.27,0.44s-0.27,0.19-0.44,0.22c-0.12,0.02-0.25,0.02-0.39,0c-0.15-0.02-0.36-0.08-0.65-0.17L383.39,371.85
			z M384.76,370.18l0.65,0.2c0.14,0.04,0.25,0.05,0.33,0.02c0.08-0.03,0.14-0.1,0.17-0.2c0.03-0.1,0.02-0.18-0.03-0.25
			c-0.05-0.07-0.13-0.12-0.25-0.16l-0.68-0.21L384.76,370.18z M384.36,371.46l0.61,0.19c0.19,0.06,0.33,0.08,0.43,0.05
			c0.09-0.03,0.16-0.11,0.2-0.23c0.04-0.11,0.03-0.21-0.03-0.29c-0.06-0.08-0.16-0.14-0.3-0.19l-0.69-0.22L384.36,371.46z"/>
		<path class="st236" d="M390.99,373.03c-0.17,0.36-0.41,0.61-0.72,0.74s-0.65,0.14-1.04,0.02c-0.46-0.14-0.78-0.41-0.97-0.8
			s-0.2-0.83-0.05-1.32c0.16-0.51,0.43-0.87,0.81-1.08c0.38-0.21,0.81-0.24,1.29-0.09c0.38,0.12,0.66,0.32,0.84,0.59
			s0.23,0.59,0.15,0.95l-0.75-0.24c0.01-0.16-0.02-0.3-0.1-0.41c-0.08-0.11-0.2-0.19-0.37-0.24c-0.22-0.07-0.43-0.04-0.62,0.1
			c-0.19,0.14-0.33,0.36-0.43,0.67c-0.1,0.31-0.11,0.56-0.04,0.77c0.07,0.21,0.22,0.35,0.44,0.42c0.18,0.06,0.34,0.06,0.48,0
			c0.14-0.05,0.24-0.16,0.32-0.32L390.99,373.03z"/>
		<path class="st236" d="M391.83,374.5l-0.09-3.48l0.85,0.27l-0.07,1.75c0,0.03,0,0.08-0.01,0.14c-0.01,0.21-0.02,0.39-0.03,0.52
			c0.04-0.06,0.08-0.13,0.13-0.21s0.12-0.18,0.2-0.31l0.99-1.52l0.85,0.27l-2.07,2.8L391.83,374.5z"/>
		<path class="st236" d="M394.56,375.35l0.79-2.5l-0.9-0.28l0.2-0.64l2.6,0.82l-0.2,0.64l-0.9-0.28l-0.79,2.5L394.56,375.35z"/>
		<path class="st236" d="M396.62,376l0.99-3.14l0.81,0.25l-0.35,1.11l1.1,0.35l0.35-1.11l0.81,0.25l-0.99,3.14l-0.81-0.25l0.42-1.32
			l-1.1-0.35l-0.42,1.32L396.62,376z"/>
		<path class="st236" d="M399.95,377.05l0.99-3.14l0.87,0.27l0.27,1.22c0.04,0.2,0.08,0.39,0.12,0.59s0.07,0.38,0.09,0.57
			c0.06-0.24,0.12-0.47,0.18-0.68c0.06-0.21,0.11-0.39,0.16-0.55l0.25-0.8l0.78,0.24l-0.99,3.14l-0.87-0.27l-0.28-1.25
			c-0.03-0.15-0.07-0.31-0.1-0.5c-0.04-0.18-0.07-0.38-0.11-0.59c-0.05,0.21-0.1,0.4-0.15,0.58s-0.09,0.34-0.14,0.47l-0.3,0.95
			L399.95,377.05z"/>
		<path class="st236" d="M403.29,378.1l0.99-3.14l1.11,0.35l-0.07,1.66c-0.01,0.15-0.01,0.29-0.02,0.42s-0.02,0.27-0.04,0.4
			c0.07-0.12,0.14-0.24,0.22-0.37s0.16-0.27,0.26-0.41l0.84-1.32l1.1,0.35l-0.99,3.14l-0.73-0.23l0.44-1.39
			c0.03-0.1,0.08-0.23,0.14-0.41s0.13-0.38,0.21-0.61l-1.36,2.23l-0.8-0.25l0.17-2.6c-0.08,0.28-0.15,0.53-0.21,0.76
			s-0.12,0.4-0.16,0.52l-0.36,1.14L403.29,378.1z"/>
		<path class="st236" d="M366.31,371.62c-0.12,0.09-0.23,0.15-0.35,0.17s-0.25,0.01-0.38-0.03c-0.23-0.07-0.39-0.19-0.47-0.35
			c-0.08-0.16-0.08-0.36-0.01-0.61c0.11-0.34,0.3-0.6,0.57-0.77c0.27-0.17,0.56-0.21,0.85-0.11c0.11,0.03,0.2,0.09,0.27,0.15
			c0.07,0.07,0.11,0.16,0.14,0.26l0.17-0.16l0.44,0.14l-0.73,1.2c0,0,0,0.01-0.01,0.01c-0.01,0.02-0.02,0.04-0.02,0.06
			c-0.01,0.04-0.01,0.08,0,0.11s0.05,0.05,0.09,0.06c0.19,0.06,0.4,0.01,0.61-0.14s0.36-0.37,0.45-0.65
			c0.11-0.34,0.07-0.66-0.12-0.95s-0.49-0.51-0.9-0.63c-0.21-0.07-0.41-0.1-0.61-0.11s-0.38,0.02-0.56,0.08
			c-0.27,0.09-0.5,0.23-0.69,0.42s-0.33,0.43-0.42,0.7c-0.13,0.43-0.1,0.82,0.11,1.16c0.21,0.35,0.55,0.59,1.04,0.75
			c0.23,0.07,0.47,0.11,0.71,0.11c0.24,0,0.47-0.04,0.69-0.11l0.12,0.35c-0.27,0.1-0.55,0.15-0.82,0.15
			c-0.27,0.01-0.54-0.03-0.81-0.12c-0.27-0.09-0.51-0.2-0.72-0.34c-0.21-0.14-0.38-0.31-0.52-0.5c-0.17-0.24-0.27-0.5-0.31-0.76
			c-0.04-0.26-0.01-0.53,0.08-0.82c0.08-0.24,0.18-0.46,0.33-0.65c0.14-0.19,0.32-0.35,0.52-0.49c0.29-0.19,0.61-0.31,0.95-0.35
			c0.34-0.04,0.7,0,1.06,0.11c0.24,0.08,0.46,0.18,0.65,0.31s0.35,0.28,0.47,0.46c0.15,0.21,0.24,0.43,0.27,0.65s0.01,0.46-0.06,0.7
			c-0.07,0.24-0.19,0.44-0.35,0.61c-0.16,0.17-0.34,0.3-0.57,0.38c-0.12,0.05-0.25,0.08-0.39,0.08s-0.27-0.01-0.39-0.05
			c-0.15-0.05-0.26-0.11-0.32-0.19C366.3,371.83,366.28,371.74,366.31,371.62z M366.68,370.72c0.02-0.11,0.01-0.21-0.03-0.28
			s-0.11-0.13-0.21-0.16c-0.15-0.05-0.3,0-0.47,0.14c-0.17,0.14-0.29,0.32-0.36,0.56c-0.04,0.12-0.04,0.22-0.01,0.3
			c0.03,0.08,0.09,0.13,0.18,0.16c0.12,0.04,0.24,0.03,0.35-0.03c0.12-0.06,0.22-0.15,0.29-0.28L366.68,370.72z"/>
		<path class="st236" d="M368.33,372.87l0.99-3.14l2.38,0.75l-0.2,0.64l-1.58-0.5l-0.17,0.55l1.44,0.45l-0.2,0.63l-1.44-0.45
			l-0.21,0.67l1.63,0.51l-0.2,0.64L368.33,372.87z"/>
		<path class="st236" d="M371.7,372.32l0.24-0.75l0.79,0.25l-0.24,0.75L371.7,372.32z M371.24,373.78l0.24-0.75l0.79,0.25
			l-0.24,0.75L371.24,373.78z"/>
		<path class="st236" d="M372.64,374.22l0.99-3.14l2.25,0.71l-0.2,0.65l-1.45-0.46l-0.2,0.65l1.26,0.4l-0.2,0.65l-1.26-0.4
			l-0.37,1.19L372.64,374.22z"/>
		<path class="st236" d="M378.43,374.83c-0.17,0.36-0.41,0.6-0.72,0.74c-0.31,0.13-0.65,0.14-1.04,0.02
			c-0.46-0.14-0.78-0.41-0.97-0.8s-0.2-0.83-0.05-1.32c0.16-0.51,0.43-0.87,0.81-1.08c0.38-0.21,0.81-0.24,1.29-0.09
			c0.38,0.12,0.66,0.32,0.84,0.59s0.23,0.59,0.15,0.95L378,373.6c0.01-0.16-0.02-0.3-0.1-0.41c-0.08-0.11-0.2-0.19-0.37-0.24
			c-0.22-0.07-0.43-0.04-0.62,0.1s-0.33,0.36-0.43,0.67c-0.1,0.31-0.11,0.56-0.04,0.77c0.07,0.21,0.22,0.35,0.44,0.42
			c0.18,0.06,0.34,0.06,0.48,0c0.14-0.05,0.24-0.16,0.32-0.32L378.43,374.83z"/>
		<path class="st236" d="M380.79,373.33l0.75,0.24l-0.35,1.11c0.11-0.1,0.24-0.15,0.38-0.18c0.14-0.02,0.28-0.01,0.43,0.04
			c0.28,0.09,0.48,0.28,0.59,0.56c0.11,0.29,0.11,0.61-0.01,0.98c-0.11,0.36-0.3,0.63-0.55,0.79c-0.25,0.17-0.52,0.2-0.81,0.11
			c-0.15-0.05-0.27-0.12-0.36-0.21s-0.16-0.22-0.21-0.37l-0.1,0.3l-0.76-0.24L380.79,373.33z M381.81,375.8
			c0.06-0.19,0.07-0.35,0.02-0.48c-0.04-0.13-0.13-0.22-0.27-0.26c-0.14-0.05-0.27-0.03-0.39,0.06c-0.11,0.08-0.2,0.22-0.26,0.41
			c-0.07,0.21-0.08,0.38-0.04,0.51c0.04,0.13,0.13,0.22,0.28,0.27c0.14,0.05,0.27,0.03,0.39-0.06S381.75,376.01,381.81,375.8z"/>
		<path class="st236" d="M383.95,377.78l0.99-3.14l0.87,0.27l0.27,1.22c0.04,0.2,0.08,0.39,0.12,0.59s0.07,0.38,0.09,0.57
			c0.06-0.24,0.12-0.47,0.18-0.68c0.06-0.21,0.11-0.39,0.16-0.55l0.25-0.8l0.78,0.24l-0.99,3.14l-0.87-0.27l-0.28-1.25
			c-0.03-0.15-0.07-0.31-0.1-0.5c-0.04-0.18-0.07-0.38-0.11-0.59c-0.05,0.21-0.1,0.4-0.15,0.58s-0.09,0.34-0.14,0.47l-0.3,0.95
			L383.95,377.78z"/>
		<path class="st236" d="M387.29,378.83l0.99-3.14l0.79,0.25l-0.38,1.2l1.49-0.85l0.97,0.3l-1.68,0.92l0.73,2.23l-0.96-0.3
			l-0.49-1.53l-0.36,0.19l-0.31,0.99L387.29,378.83z"/>
		<path class="st236" d="M391.11,380.02l0.79-2.5l-0.9-0.28l0.2-0.64l2.6,0.82l-0.2,0.64l-0.9-0.28l-0.79,2.5L391.11,380.02z"/>
		<path class="st236" d="M393.9,380.9l0.37-1.18l-0.47-2.3l0.9,0.28l0.18,1.45l0.97-1.09l0.91,0.29l-1.71,1.61l-0.37,1.18
			L393.9,380.9z"/>
	</g>
	<path class="st237" d="M326.58,402.68c0,0,63.83,8.83,87.9,40.2c0,0,10.38-22.75,36.88-13.69l3.19-65.4l-13.57-0.41l-16.24,44.54
		c-2.76,7.57-11.27,15.11-18.87,12.44C390.19,414.84,362.07,403.39,326.58,402.68z"/>
	<path class="st226" d="M418.46,433.6l24.81-69.5l9.79,0.22c0,0-15.39,12.96-11.85,61.1C441.2,425.42,428.17,422.41,418.46,433.6z"
		/>
	<path class="st33" d="M448.28,462.45c0,0-7.09-2.32-6.44-9.73c0.36-4.11,2.89-7.81,6.77-9.21c5.74-2.07,10.76,1.86,11.71,3.44
		C460.31,446.95,447.47,450.01,448.28,462.45z"/>
	<path d="M113.34,421.01c0,0,39.2-24.85,136.38-24.85s140.69,26.61,140.69,26.61s-37.33-30.59-141.35-30.59
		S113.34,421.01,113.34,421.01z"/>
	<path d="M64.79,492.64c0,0-17.23,5.74-27.9-3.68c0,0-2.28-2.5-2.28-7.88l0.07-100.05c0,0,1.33-15.39,18.48-15.39
		c0,0,6.63-0.37,12.15,3.61v-34.31c0,0,0.96-8.02,6.77-12.37c5.01-3.68,10.16-2.8,10.16-2.8l6.55-11.71l1.69-1.18V203.61v-31.44
		l-3.02,133.47l-2.5,1.1l-4.86,9.13c0,0-15.68,0.96-18.48,18.18c-0.52,12.59-0.37,29.37-0.37,29.37s-11.71-3.68-20.17,1.99
		c0,0-10.01,4.93-10.01,16.05v105.2c0,0,0.52,10.67,25.33,9.64l6.85-0.74c0,0,7.44,6.92,9.72,12.37
		C73.37,508.59,73.38,504.4,64.79,492.64z"/>
	<path d="M87.54,438.9c0,0-11.26,11.78-10.9,23.71l0.44,21.57c0,0-0.37,9.06,6.92,20.54v6.26c0,0-9.79-9.64-11.26-26.65V460.1
		C72.74,460.1,72.59,448.98,87.54,438.9z"/>
	<path d="M84.04,540.82V476.7c0,0-0.85-22.93,28.79-25.18c-11.65-1.8-33.13,5.26-33.13,27.65l0,60.47c0,0-1.18,10.53,13.55,12.88
		C93.24,552.53,84.04,548.26,84.04,540.82z"/>
	<path d="M420.89,471.58h13.4l0.29,4.12c0,0-11.85,0.15-12,0s0.29,15.17-2.06,20.91l-0.29-8.25
		C420.22,488.37,421.55,474.45,420.89,471.58z"/>
	<path d="M420.52,474.16v-15.9c0,0-1.33-14.28-17.96-26.87c0,0,15.68,7.66,20.39,23.71v11.26l4.86,2.21l6.55,2.58v4.56L420.81,476
		L420.52,474.16z"/>
	<path d="M422.28,221.28l0.22,85.84l1.33,1.03l6.77,11.78c0,0,11.7-1.06,15.83,10.99c0.77,2.26,1.1,4.64,1.11,7.02
		c0.03,6.85,0.14,21.3,0.14,21.3l4.71,1.25c0,0,2.36,0.4,2.36,3.42c0,7.07-2.87,64.9-2.87,64.9s8.02,2.43,12.07,5.23
		s10.53,9.94,8.61,23.63c-1.91,13.69-17.82,17.01-18.11,17.23c-0.29,0.22-11.26,2.28-20.17-6.4l-0.29,2.94c0,0,0.59,12-0.29,16.79
		l1.84-14.06c0,0,7.36,6.33,21.13,4.12c13.77-2.21,17.89-14.36,17.89-14.36s7.44-19.29-5.3-30.33c-5.23-5.08-12.88-7.44-12.88-7.44
		l2.58-61.99c0,0,0.07-6.18-4.93-7.66l-1.91-0.66l-0.81-20.76c0,0,0.37-20.1-18.77-19.44l-4.71-8.98l-1.99-1.99L422.28,221.28z"/>
</g>
<g id="tail">
</g>
<g id="body">
</g>
<g id="head">
</g>
<g id="accessory">
</g>
<g id="right-wing">
</g>
<g id="eyes">
</g>
<g id="beak">
</g>
<g id="on-head">
</g>
<g id="eyebrows">
</g>
<g id="BIRD_x5F_1">
</g>
</svg>
