<!-- Generator: Adobe Illustrator 26.3.1, SVG Export Plug-In . SVG Version: 6.00 Build 0)  -->
<svg version="1.1" xmlns="http://www.w3.org/2000/svg" xmlns:xlink="http://www.w3.org/1999/xlink" x="0px" y="0px"
	 viewBox="0 0 510.24 595.28" style="enable-background:new 0 0 510.24 595.28;" xml:space="preserve">
<g id="nest2">
</g>
<g id="left-wing_1_">
	<g>
		<path class="st25" d="M346.33,428.87c0,0,14.08-4.83,11.47-17.86c-2.75-13.67-27.41-13.81-36.01-7.96
			c-8.65,5.88-10.52,19.63,2.28,24.25C336.73,431.88,346.33,428.87,346.33,428.87z"/>
		<path class="st26" d="M351.44,378.56c0,0-35.37-11.89-57.95-12.27c-0.7-0.41-8.84-3.57-7.59-8.53c1.24-4.96,33.83-4.29,33.83-4.29
			s42.35,2.99,50.43,17.14c8.03,14.06-9.67,36.85-50.6,46.93c-33.76,6.93-27.09-21.18-7.97-25.93
			C326.15,387.98,351.44,378.56,351.44,378.56z"/>
		<path class="st26" d="M315.47,390.71c0,0-20.23,3.61-22.08,15.08c-1.85,11.49,13.74,26.77,24.03,33.24
			c10.21,6.42,37.22,9.08,39.51-8.65c2.29-17.71-19.15-11.6-19.15-11.6S338.1,388.69,315.47,390.71z"/>
		<path class="st26" d="M351.71,407.42c0,0-12.54,4.6-21,5.89c-6.43,0.9,6.82,5.57,6.82,5.57s9.47-5.64,16.84-2.09
			C354.37,416.79,356.38,412.02,351.71,407.42z"/>
		<g>
			<path class="st27" d="M337.78,418.78c7.08-2.43,18.5-2.83,20.28,6.51c1.35,6.27-1.03,13.08-6.62,16.46
				c-8.78,5.24-19.82,4.2-29.16,1.18c-7.45-2.64-13.53-8.23-19.05-13.72c-14.55-15.31-17.75-30.34,5.38-38.26
				c14.31-3.95,28.39-8.62,42.31-13.81c0,0,0.05,2.83,0.05,2.83c-9.33-3.1-18.9-5.62-28.46-7.96c-8.31-2.32-16.75-4.29-25.32-5.36
				c0,0-3.7-0.38-3.7-0.38c19.99-0.44,39.55,4.71,58.43,10.85c0,0,4.07,1.34,4.07,1.34c-12.15,4.5-24.36,8.86-36.77,12.57
				c-7.02,2.01-14.85,3.65-20.42,8.52c-12.15,10.49,6.26,28.32,14.97,35.08c5.7,4.79,12.94,7.18,20.33,7.66
				c6.85,0.44,15.29-0.6,19.34-6.62c1.77-2.89,2.64-6.61,2.28-9.98C354.69,417.36,344.23,417.55,337.78,418.78L337.78,418.78z"/>
		</g>
		<g>
			<path class="st27" d="M285.9,357.75c1.38-3.84,14.94-4.94,18.84-5.5c2.84-0.43,7.07-0.2,9.98-0.32
				c3.28-0.08,6.81,0.09,10.07,0.51c13.28,1.71,38.96,5.25,46.59,17.3c3.89,6.41,1.35,14.57-2.67,20.18
				c-10.04,13.77-25.89,21.7-41.23,28.1c-4.28,1.29-8.94,1.32-13.36,1.16c3.73-0.93,7.35-2.04,10.86-3.55
				c14.17-5.17,32.13-14.59,41.26-27.41c3.43-4.88,5.78-11.55,2.55-16.97c-7.26-11.14-34.03-14.66-46.78-16.09
				c-5.66-0.58-11.46,0-17.14-0.08C301.08,355.17,287.58,354.49,285.9,357.75L285.9,357.75z"/>
		</g>
		<path class="st28" d="M354.92,421.87c0,0,4.33-3.49,2.88-10.86c-1.46-7.38-7.24-7.07-7.24-7.07"/>
		<path class="st27" d="M361.25,375.65c0,0-2.93,3.62-14.13,0.07l3.25,4.84C350.37,380.57,358.41,378.82,361.25,375.65z"/>
		<path class="st27" d="M307.89,375.07c0,0,5.7-0.38,6.32-6.16l3.59,0.82C317.79,369.73,316.06,377.39,307.89,375.07z"/>
		<path class="st27" d="M314.6,352.86c0,0-9.76-10.5-20.51-6.11c0,0,8.3-1.22,14.84,6.74L314.6,352.86z"/>
		<path class="st27" d="M336.19,425.57c0,0-3.12-12.46-20.39-6.52C315.81,419.05,330.9,419.96,336.19,425.57z"/>
		<path class="st27" d="M331.28,419.85c0,0,11.91,1.38,12.21-10.14l4.76-3.37C348.25,406.35,346.25,426.64,331.28,419.85z"/>
		<path class="st25" d="M312.72,419.46c0,0,22.42-3.19,47.5-24.15c14.88-14.56,9.23-23.03,9.23-23.03s-2.13-10.07-33.8-15.26
			c0,0,27.29,7.24,31.09,18.4C370.53,386.54,336.82,412.05,312.72,419.46z"/>
		<path class="st25" d="M343.48,418.26c0,0,12.2-1.7,12.45,8.86c0.24,10.56-10.28,19.8-33.52,12.54c0,0-15.13-6.89-23.75-20.47
			c0,0,16.69,17.05,36.84,17.92C355.35,437.98,354.03,419.16,343.48,418.26z"/>
	</g>
</g>
<g id="tail">
</g>
<g id="body">
	<g>
		<path class="st26" d="M271.96,323.04c0,0,44.99,0.34,63.6,60.2c18.61,59.86-26.94,87.8-68.6,87.8c-24.15,0-65.05,4.13-90.33-13.67
			c-18.72-13.17-24.28-42.32-15.67-64C185.75,331.01,221.57,323.04,271.96,323.04z"/>
	</g>
	<path class="st25" d="M175.96,366.37c10.33-17.33,32.33-19.33,47.67-13l-25.33-13.67C198.29,339.71,182.29,350.04,175.96,366.37z"
		/>
	<path class="st25" d="M160.96,393.37c0,0-15,40.33,14.67,62.67c0,0,14,15.67,63,15.67l34.33-1c0,0,42-1,60-32.67
		c0,0-14.67,20-93.67,20S159.96,409.71,160.96,393.37z"/>
	<path class="st25" d="M281.38,455.52c0,0-72.29,7.07-91.14-23.41c-11.6-20.61,3.06-45.9,11.19-56.25
		c22.2-22.49,45.06,0.29,77.89-16.64c0,0-37.25,4.56-65.08-9.72c-0.59,0.29-17.08-8.54-17.08-8.54s-18.11,13.1-28.86,36.07
		c-10.75,22.97-13.69,36.81-7.66,58.75c6.04,21.94,30.04,29.6,40.2,31.66c10.16,2.06,39.02,6.48,74.94,3.24
		C275.78,470.69,283.88,465.24,281.38,455.52z"/>
	<path class="st25" d="M219.54,412.97c-3.39,32.39-29.6,43.44-29.6,43.44s-18.7-51.53-15.02-65.82
		C207.17,390.44,219.98,400.6,219.54,412.97z"/>
	<path class="st25" d="M330.41,372.77c0,0-0.44-17.96-27.53-37.25L290.8,347.3C290.8,347.3,316.13,345.53,330.41,372.77z"/>
	<g>
		<g>
			<g>
				<path class="st44" d="M271.96,323.04c2.1,0.61,3.77,1.28,5.54,1.87c1.77,0.61,3.62,1.2,5.99,1.92c0.65,0.19,1.6,0.51,2.78,0.92
					c0.59,0.2,1.23,0.46,1.91,0.72l0.62,0.24l1.19,0.51c0.8,0.33,1.59,0.69,2.38,1.08c0.8,0.37,1.58,0.77,2.37,1.19
					c0.79,0.41,1.58,0.84,2.35,1.31c3.12,1.82,6.18,3.95,9.11,6.37c5.84,4.88,11.15,10.93,15.59,17.85
					c4.42,6.93,8.1,14.64,10.87,22.81c2.79,8.15,4.89,16.69,5.37,25.37c0.28,4.33,0.06,8.67-0.48,12.95
					c-0.6,4.27-1.72,8.43-3.24,12.41c-3.04,7.98-8.22,14.9-14.32,20.42c-6.2,5.44-13.29,9.55-20.53,12.37
					c-3.61,1.46-7.27,2.56-10.88,3.44c-3.61,0.92-7.21,1.49-10.7,1.94c-3.5,0.41-6.92,0.62-10.22,0.65
					c-3.35,0.03-6.62,0.07-9.71,0.14c-12.39,0.33-22.52,0.4-29.55,0.07c-3.52-0.16-6.26-0.35-8.12-0.51
					c-1.86-0.15-2.84-0.27-2.84-0.27s-0.99-0.08-2.83-0.32c-1.85-0.21-4.57-0.59-8-1.22c-3.43-0.64-7.6-1.56-12.24-3.08
					c-4.64-1.51-9.76-3.65-14.84-6.87c-0.62-0.42-1.26-0.84-1.9-1.26c-0.59-0.47-1.2-0.94-1.8-1.42c-0.59-0.5-1.25-0.92-1.8-1.49
					c-0.56-0.55-1.13-1.11-1.71-1.68l-0.87-0.85l-0.78-0.95c-0.52-0.63-1.05-1.27-1.59-1.91c-0.53-0.64-0.96-1.38-1.45-2.07
					c-0.46-0.72-1-1.39-1.41-2.16c-0.81-1.53-1.77-3.02-2.43-4.69c-0.36-0.82-0.73-1.64-1.1-2.47c-0.3-0.86-0.61-1.72-0.91-2.59
					l-0.46-1.31c-0.13-0.44-0.24-0.9-0.37-1.35c-0.24-0.9-0.48-1.81-0.73-2.72c-0.21-0.92-0.36-1.86-0.55-2.8
					c-0.18-0.94-0.37-1.88-0.45-2.84c-0.11-0.96-0.22-1.92-0.33-2.89c-0.09-0.97-0.09-1.95-0.15-2.94
					c-0.15-1.97,0.02-3.96,0.05-5.96c0.07-1,0.2-2,0.3-3l0.16-1.51l0.27-1.5c0.19-1,0.34-2.01,0.56-3.01
					c0.26-0.99,0.52-1.98,0.78-2.97c0.22-1.01,0.61-1.96,0.94-2.94c0.35-0.97,0.64-1.95,1.08-2.93c0.83-1.96,1.6-3.96,2.49-5.91
					c0.9-1.95,1.73-3.94,2.71-5.87c0.48-0.97,0.95-1.94,1.43-2.92c0.48-0.97,1.01-1.92,1.52-2.88c2.01-3.85,4.3-7.57,6.69-11.23
					c2.45-3.61,5.09-7.1,7.95-10.39c2.9-3.25,5.99-6.32,9.31-9.1c3.33-2.76,6.88-5.21,10.58-7.35c7.39-4.32,15.46-7.11,23.47-9
					c4.02-0.91,8.04-1.6,12.02-2.13c1.99-0.22,3.96-0.49,5.93-0.65c0.98-0.09,1.96-0.17,2.93-0.26c0.82-0.06,1.63-0.11,2.43-0.17
					c3.33-0.22,6.08-0.33,7.45-0.38C264.84,324.7,267.71,324.13,271.96,323.04c-4.26-1.03-7.18-1.61-12.3-1.46
					c-1.39,0.03-4.17,0.14-7.55,0.36c-0.82,0.06-1.64,0.11-2.47,0.17c-0.99,0.09-1.98,0.17-2.98,0.26c-2,0.16-4.02,0.43-6.05,0.66
					c-4.06,0.54-8.19,1.25-12.34,2.19c-8.26,1.95-16.66,4.85-24.38,9.36c-3.86,2.23-7.58,4.79-11.05,7.68
					c-3.45,2.9-6.68,6.09-9.68,9.46c-2.96,3.41-5.69,7.01-8.21,10.73c-2.46,3.75-4.81,7.58-6.86,11.51
					c-0.52,0.98-1.06,1.95-1.55,2.94c-0.49,0.99-0.97,1.99-1.46,2.97c-1,1.97-1.85,3.99-2.76,5.98c-0.91,1.99-1.69,4.02-2.53,6.01
					c-0.44,0.98-0.76,2.05-1.14,3.08c-0.35,1.04-0.76,2.06-1,3.13c-0.28,1.06-0.55,2.11-0.82,3.16c-0.22,1.06-0.39,2.13-0.59,3.18
					l-0.28,1.58l-0.17,1.59c-0.1,1.06-0.23,2.12-0.31,3.17c-0.04,2.11-0.21,4.21-0.05,6.29c0.05,1.04,0.06,2.07,0.16,3.1
					c0.12,1.02,0.23,2.04,0.35,3.05c0.09,1.02,0.29,2.01,0.48,3c0.2,0.99,0.36,1.98,0.58,2.95c0.26,0.96,0.52,1.92,0.77,2.88
					c0.13,0.48,0.25,0.95,0.39,1.42l0.49,1.39c0.33,0.92,0.65,1.84,0.97,2.74c0.39,0.88,0.78,1.76,1.17,2.63
					c0.71,1.77,1.73,3.37,2.6,5c3.75,6.42,9,11.42,14.37,14.88c5.39,3.42,10.77,5.66,15.6,7.23c4.83,1.58,9.13,2.53,12.66,3.18
					c3.54,0.64,6.32,1.03,8.21,1.25c1.89,0.24,2.9,0.32,2.9,0.32s1,0.12,2.9,0.27c1.9,0.16,4.69,0.36,8.26,0.52
					c7.14,0.34,17.4,0.27,29.77-0.06c3.1-0.07,6.3-0.11,9.66-0.14c3.42-0.03,6.96-0.24,10.58-0.67c3.62-0.47,7.35-1.05,11.09-2.01
					c3.75-0.92,7.56-2.06,11.32-3.58c7.55-2.93,14.98-7.23,21.53-12.98c6.45-5.83,11.97-13.2,15.2-21.69
					c1.63-4.22,2.81-8.65,3.44-13.16c0.57-4.51,0.79-9.08,0.5-13.61c-0.51-9.07-2.69-17.91-5.55-26.27
					c-2.84-8.38-6.63-16.33-11.22-23.52c-4.61-7.18-10.15-13.49-16.27-18.61c-3.08-2.53-6.28-4.77-9.56-6.68
					c-0.81-0.49-1.64-0.95-2.47-1.38c-0.82-0.45-1.65-0.87-2.49-1.26c-0.83-0.41-1.66-0.79-2.5-1.14c-0.42-0.18-0.83-0.36-1.25-0.53
					l-0.65-0.25c-0.72-0.27-1.39-0.55-2.02-0.76c-1.25-0.43-2.26-0.76-2.94-0.95c-2.51-0.74-4.55-1.06-6.51-1.14
					C275.99,322.46,274.12,322.59,271.96,323.04z"/>
			</g>
		</g>
	</g>
</g>
<g id="head">
	<path class="st43" d="M336.29,256.19c0,52.92-64.45,99.85-96.33,99.85s-96.33-46.93-96.33-99.85s43.13-95.82,96.33-95.82
		S336.29,203.27,336.29,256.19z"/>
	<path class="st19" d="M217.63,350.37c0,0-49-32.67-60-66c-9.67-30.33-9.67-54.67,11.33-92.33c0,0-32,32.67-22.33,80
		C156.29,319.37,208.29,347.71,217.63,350.37z"/>
	<g>
		<g>
			<g>
				<path class="st44" d="M229,354.55c-0.96-0.54-1.84-1.03-2.69-1.47c-0.84-0.46-1.65-0.93-2.49-1.34c-0.85-0.4-1.7-0.86-2.64-1.29
					c-0.95-0.42-1.97-0.87-3.12-1.38c-0.62-0.28-1.57-0.64-2.71-1.19c-0.57-0.27-1.2-0.56-1.87-0.88l-0.61-0.28l-1.17-0.59
					c-0.78-0.4-1.57-0.8-2.36-1.2c-1.55-0.88-3.16-1.7-4.72-2.66c-3.18-1.83-6.31-3.94-9.49-6.13
					c-12.56-8.93-25.03-20.67-34.71-35.01c-2.38-3.6-4.6-7.34-6.57-11.23c-1.91-3.91-3.64-7.93-4.99-12.07
					c-1.31-4.16-2.35-8.4-2.95-12.7c-0.55-4.31-0.73-8.61-0.53-12.95c0.72-17.33,6.38-33.9,15-46.96
					c4.23-6.59,9.16-12.32,14.3-17.18c5.14-4.87,10.49-8.87,15.69-12.05c5.21-3.19,10.26-5.57,14.82-7.37
					c2.27-0.95,4.46-1.61,6.46-2.3c2.04-0.57,3.89-1.15,5.59-1.54c1.71-0.37,3.21-0.79,4.55-1c1.33-0.24,2.46-0.44,3.38-0.6
					c1.84-0.27,2.82-0.37,2.82-0.37s0.24-0.03,0.72-0.09c0.48-0.05,1.18-0.18,2.1-0.24c0.93-0.07,2.07-0.16,3.42-0.26
					c1.35-0.12,2.91-0.1,4.65-0.16c1.75-0.06,3.69,0.06,5.8,0.09c1.05,0.08,2.15,0.16,3.3,0.24c0.57,0.04,1.15,0.09,1.74,0.14
					c0.59,0.07,1.19,0.15,1.8,0.23c4.87,0.58,10.36,1.61,16.2,3.4c11.67,3.49,24.78,10.21,36.35,20.79
					c11.56,10.53,21.31,25.07,26.39,41.66c1.25,4.15,2.25,8.39,2.95,12.7c0.63,4.32,1.12,8.68,1.14,13.05l0.04,1.64
					c0,0.54-0.04,1.08-0.06,1.63l-0.14,3.25c0,1.09-0.22,2.15-0.34,3.23l-0.41,3.22l-0.67,3.17c-0.25,1.05-0.39,2.13-0.73,3.15
					l-0.91,3.1l-0.45,1.55l-0.56,1.51c-2.89,8.09-6.97,15.62-11.66,22.44c-2.33,3.42-4.85,6.65-7.44,9.71l-0.96,1.16l-1,1.11
					c-0.67,0.74-1.33,1.47-2,2.2c-0.65,0.74-1.32,1.45-2.02,2.14c-0.57,0.58-1.15,1.16-1.71,1.73c-1.15,1.2-2.26,2.23-3.19,3.09
					c-0.93,0.87-1.67,1.57-2.17,2.03c-1.88,1.68-3.3,3.06-4.54,4.5c-1.29,1.38-2.43,2.8-3.78,4.54c1.99-0.9,3.66-1.7,5.33-2.67
					c1.62-1.03,3.27-2.21,5.21-3.91c0.51-0.47,1.28-1.19,2.23-2.07c0.96-0.88,2.09-1.93,3.28-3.16c0.58-0.59,1.17-1.18,1.75-1.77
					c0.71-0.7,1.4-1.43,2.07-2.19c0.68-0.75,1.36-1.5,2.05-2.25l1.03-1.14l0.98-1.19c2.66-3.15,5.24-6.46,7.64-9.98
					c4.82-7.02,9.05-14.79,12.05-23.22l0.58-1.57l0.48-1.61l0.95-3.24c0.36-1.07,0.51-2.2,0.77-3.3l0.7-3.32l0.44-3.38
					c0.12-1.13,0.35-2.25,0.35-3.39l0.15-3.42c0.02-0.57,0.06-1.14,0.06-1.71l-0.04-1.7c-0.02-4.53-0.53-9.05-1.18-13.52
					c-0.73-4.46-1.76-8.86-3.05-13.16c-5.27-17.19-15.37-32.23-27.33-43.13c-11.98-10.96-25.55-17.9-37.64-21.52
					c-6.04-1.86-11.73-2.92-16.77-3.52c-0.63-0.08-1.25-0.16-1.86-0.23c-0.61-0.05-1.21-0.1-1.8-0.14
					c-1.18-0.09-2.32-0.17-3.41-0.25c-2.19-0.03-4.19-0.16-6-0.1c-1.81,0.06-3.42,0.04-4.81,0.17c-1.4,0.11-2.58,0.2-3.54,0.27
					c-0.96,0.06-1.69,0.2-2.18,0.25c-0.49,0.06-0.74,0.09-0.74,0.09s-1.01,0.11-2.92,0.39c-0.95,0.17-2.12,0.38-3.49,0.62
					c-1.38,0.22-2.94,0.65-4.71,1.03c-1.76,0.4-3.68,1-5.79,1.59c-2.07,0.71-4.34,1.4-6.69,2.38c-4.73,1.85-9.96,4.32-15.35,7.62
					c-5.39,3.3-10.93,7.43-16.25,12.47c-5.32,5.03-10.42,10.96-14.81,17.78c-8.92,13.51-14.79,30.69-15.54,48.63
					c-0.21,4.46-0.03,9.04,0.55,13.55c0.63,4.51,1.71,8.94,3.08,13.28c1.41,4.32,3.2,8.49,5.18,12.54
					c2.04,4.02,4.33,7.88,6.78,11.59c9.97,14.76,22.7,26.74,35.55,35.88c3.25,2.24,6.46,4.4,9.73,6.28c1.6,0.99,3.26,1.83,4.85,2.73
					c0.82,0.42,1.62,0.83,2.43,1.24l1.2,0.61l0.62,0.29c0.69,0.32,1.34,0.62,1.93,0.9c1.17,0.57,2.16,0.94,2.81,1.22
					C221.58,354.08,224.62,354.5,229,354.55z"/>
			</g>
		</g>
	</g>
</g>
<g id="accessory">
</g>
<g id="right-wing">
	<path class="st25" d="M155.2,437.71c0,0-16.93-3.56-15.31-16.71c1.69-13.77,30.18-15.75,40.64-10.67
		c10.45,5.08,14.06,18.33,0.07,23.93S155.2,437.71,155.2,437.71z"/>
	<path class="st26" d="M143.71,388.38c0,0,39.31-13.99,64.64-15.75c0.74-0.44,9.42-3.98,7.51-8.69c-1.91-4.71-38.43-2.21-38.43-2.21
		s-48.59,5.45-56.54,20.02s15.46,35.93,63.75,42.55c38.58,3.98,28.12-22.67,6.18-25.91C173.9,395.89,143.71,388.38,143.71,388.38z"
		/>
	<path class="st26" d="M186.34,397.8c0,0,23.12,2.06,26.43,13.03c3.31,10.97-12.44,27.09-23.34,34.31s-41.74,12.37-46.38-5.01
		c-4.64-17.37,20.91-13.1,20.91-13.1S160.28,397.44,186.34,397.8z"/>
	<path class="st26" d="M146.58,416.95c0,0,15.02,3.53,24.88,4.12c7.44,0.37-7.21,6.04-7.21,6.04s-11.56-4.79-19.73-0.66
		C144.52,426.44,141.65,421.88,146.58,416.95z"/>
	<g>
		<path class="st27" d="M163.96,427.03c-6.59-0.45-19.2-0.53-20.21,7.94c-0.23,3.67,1.38,7.59,3.91,10.27
			c9.11,8.73,29.72,4.93,39.87-0.68c9.13-5.75,25.79-20.79,24-32.52c-2.7-10.64-22.19-12.1-31.28-13.96
			c-14.01-2.73-27.94-6.01-41.79-9.44c6.79-2.4,13.81-4.77,20.68-6.84c15.94-5.01,32.49-8.56,49.22-9.17c0,0-4.13,0.61-4.13,0.61
			c-15.03,2.55-29.57,7.29-44.22,11.43c-5.29,1.61-10.58,3.31-15.79,5.13c0,0-0.14-2.87-0.14-2.87c12.18,2.98,24.43,5.81,36.73,8.2
			c8.34,1.63,16.89,2.32,24.67,6.31c16.43,7.99,7.61,23.49-1.7,33.36c-5.93,6.13-12.53,12.17-20.71,15.08
			c-10.12,3.47-21.62,5.21-31.88,1.25c-6.72-2.65-10.86-9.2-9.76-16.48C143.51,424.81,156.32,425.62,163.96,427.03L163.96,427.03z"
			/>
	</g>
	<g>
		<path class="st27" d="M215.86,363.94c-2.29-3.2-19.01-1.47-23.34-1.32c-5.39,0.18-10.92,0.2-16.3,0.77
			c-13.17,1.85-49.09,7.4-54.56,20.27c-3.1,9.24,7,17.34,13.86,22.06c12.4,8.1,26.64,13,40.9,16.83c4.84,1.02,9.56,2.36,14.56,2.94
			c-4.49,0.57-9.12,0.63-13.68,0.3c-0.99-0.12-3.5-0.84-4.51-1.11c-17.07-4.98-35.64-11.39-48.42-24.31
			c-6.4-6.54-9.45-16.33-1.69-23.18c12.04-10.38,37.5-14.49,53.16-16.76c0.38-0.04,1.06-0.14,1.45-0.18
			c2.95-0.17,6.21-0.37,9.15-0.46C191.42,359.38,213.75,359.78,215.86,363.94L215.86,363.94z"/>
	</g>
	<path class="st28" d="M144.45,431.52c0,0-5.45-3.09-4.56-10.53c0.88-7.44,7.66-7.58,7.66-7.58"/>
	<path class="st27" d="M131.93,386.17c0,0,3.83,3.39,16.49-0.88l-3.24,5.01C145.18,390.3,135.61,389.12,131.93,386.17z"/>
	<path class="st27" d="M193.18,382.05c0,0-6.48,0-7.8-5.6l-3.98,1.03C181.4,377.49,184.2,384.85,193.18,382.05z"/>
	<path class="st27" d="M183.17,360.85c0,0,9.87-10.75,22.38-7.07c0,0-9.42-0.74-15.9,7.36L183.17,360.85z"/>
	<path class="st27" d="M166.53,433.58c0,0,2.21-12.52,22.53-8.1C189.06,425.49,171.98,427.62,166.53,433.58z"/>
	<path class="st27" d="M171.54,427.55c0,0-13.55,2.36-15.17-8.98l-5.89-2.94C150.48,415.62,155.05,435.5,171.54,427.55z"/>
	<path class="st25" d="M192.59,425.63c0,0-25.88-1.29-57.28-20.02c-19.14-13.4-13.4-22.23-13.4-22.23s1.4-10.16,37.69-17.23
		c0,0-30.92,8.83-34.16,20.17S164.32,420.33,192.59,425.63z"/>
	<path class="st25" d="M157.33,426.99c0,0-14.36-0.66-13.47,9.83c0.88,10.49,14.13,18.66,39.98,9.39c0,0,16.34-8.06,24.52-21.98
		c0,0-16.9,18-39.75,20.65S145.18,428.76,157.33,426.99z"/>
</g>
<g id="eyes">
	<path class="st92" d="M199.07,158.98c0,0-10.16-13.99-15.75-38.72c0,0,14.28,12.96,23.56,25.03c0,0-5.01-20.02,8.25-48.29
		c0,0,7.36,22.38,8.69,44.02c0,0,5.15-12.22,29.15-23.56c0,0-6.63,16.64-10.01,22.53c0,0,16.64-15.31,48.74-20.47
		c0,0-14.28,18.26-40.93,30.33L199.07,158.98z"/>
	<path class="st26" d="M229.55,355.55c0,0-78.04-23.26-95.12-100.42s54.77-108.96,109.25-108.96s123.09,37.99,95.12,127.8
		S264.3,370.86,229.55,355.55z"/>
	<path class="st25" d="M306.85,165.76c0,0-29.89-26.8-87.9-17.37c-58.01,9.42-81.42,44.17-85.69,70.23
		c-4.27,26.06,0.88,51.53,22.67,83.78c17.14,25.37,59.53,46.91,84.72,59.03c15.35,7.39,33.84,3.29,44.47-10.01
		c0.08-0.1,0.15-0.19,0.23-0.29l-72.88-59.04c0,0,1.77-23.85-16.79-32.39s-32.39,9.13-32.39,9.13s-18.4-27.83-7.36-61.4
		C170.95,164.87,249.28,133.66,306.85,165.76z"/>
	<ellipse class="st25" cx="240.23" cy="271.25" rx="19.38" ry="19.51"/>
	
		<ellipse transform="matrix(0.0391 -0.9992 0.9992 0.0391 13.3469 551.3753)" class="st25" cx="293.37" cy="268.75" rx="18.46" ry="17.93"/>
	<g>
		<circle class="st27" cx="241.77" cy="271.03" r="16.49"/>
		<circle class="st95" cx="239.49" cy="266.54" r="8.47"/>
		<circle class="st34" cx="238.9" cy="265.8" r="5.52"/>
		<path class="st95" d="M234.41,282.22c0,0,7.07,4.42,14.13,0.88c7.07-3.53,7.07-10.01,6.92-15.17c0,0-1.77,9.28-8.25,12.96
			C240.74,284.58,234.41,282.22,234.41,282.22z"/>
		
			<ellipse transform="matrix(0.841 -0.541 0.541 0.841 -111.6202 178.8202)" class="st49" cx="248.43" cy="279.32" rx="4.38" ry="2.57"/>
	</g>
	<g>
		<ellipse class="st27" cx="292.35" cy="268.38" rx="15.39" ry="16.2"/>
		<ellipse class="st95" cx="290.22" cy="263.97" rx="7.9" ry="8.32"/>
		<ellipse class="st34" cx="289.67" cy="263.25" rx="5.15" ry="5.42"/>
		<path class="st95" d="M285.48,279.37c0,0,6.59,4.34,13.19,0.87c6.59-3.47,6.59-9.83,6.46-14.89c0,0-1.65,9.11-7.69,12.73
			C291.39,281.69,285.48,279.37,285.48,279.37z"/>
		
			<ellipse transform="matrix(0.813 -0.5822 0.5822 0.813 -105.1757 225.5413)" class="st49" cx="298.56" cy="276.52" rx="4.15" ry="2.49"/>
	</g>
	<g>
		<g>
			<g>
				<path class="st44" d="M229.55,355.55c-3.5-2.18-5.78-3.65-10.14-5.53c-0.59-0.26-1.47-0.66-2.56-1.14
					c-0.55-0.24-1.14-0.52-1.77-0.82c-0.68-0.32-1.36-0.65-2.05-0.97c-0.91-0.45-1.82-0.91-2.74-1.36
					c-1.83-0.95-3.68-1.91-5.52-2.96c-3.69-2.08-7.43-4.3-11.12-6.79c-14.79-9.84-29.38-23.18-40.3-39.89
					c-5.49-8.31-9.93-17.46-13.29-26.99c-3.34-9.54-5.6-19.52-6.32-29.47c-0.7-9.94,0.12-19.89,2.9-29.06
					c2.82-9.14,7.29-17.52,13.04-24.42c0.72-0.86,1.42-1.73,2.14-2.58c0.76-0.81,1.52-1.61,2.28-2.41l1.13-1.2l1.19-1.12
					c0.8-0.74,1.59-1.48,2.37-2.21c0.79-0.73,1.64-1.38,2.45-2.06c0.83-0.66,1.61-1.38,2.46-1.99c0.85-0.62,1.69-1.24,2.52-1.85
					l1.25-0.91l1.29-0.84c6.79-4.53,13.69-7.98,20.22-10.65c6.54-2.67,12.7-4.57,18.21-5.99c5.52-1.36,10.37-2.29,14.38-2.89
					c4.01-0.6,7.15-0.95,9.3-1.11c1.07-0.1,1.89-0.17,2.44-0.22c0.55-0.03,0.84-0.05,0.84-0.05s1.14-0.06,3.29-0.18
					c1.07-0.08,2.4-0.08,3.97-0.11c0.78-0.01,1.62-0.02,2.52-0.04c0.9,0.02,1.85,0.04,2.86,0.06c2.02,0,4.25,0.2,6.69,0.35
					c1.22,0.09,2.48,0.26,3.8,0.39c0.66,0.07,1.33,0.15,2.01,0.22c0.68,0.1,1.37,0.21,2.07,0.31c5.61,0.83,11.93,2.13,18.66,4.24
					c6.73,2.11,13.87,5.02,20.97,9.04c7.08,4.02,14.18,9.11,20.45,15.55c1.5,1.67,3.14,3.26,4.52,5.09
					c0.72,0.89,1.44,1.79,2.16,2.69c0.66,0.95,1.32,1.9,1.99,2.85l1,1.44c0.32,0.49,0.6,1,0.91,1.5c0.6,1.01,1.2,2.02,1.81,3.04
					c0.57,1.03,1.07,2.11,1.61,3.17c0.52,1.07,1.1,2.12,1.52,3.24c3.78,8.8,6.06,18.52,6.59,28.48c0.53,9.97-0.49,20.12-2.57,30.02
					c-2.07,9.9-5.27,19.59-8.75,28.99c-3.51,9.38-7.55,18.41-12.19,26.78c-2.28,4.21-4.82,8.18-7.42,12
					c-1.36,1.86-2.65,3.76-4.1,5.5c-0.71,0.88-1.38,1.79-2.12,2.62c-0.61,0.7-1.22,1.4-1.83,2.09c-1,1.2-2.04,2.17-2.84,3.04
					c-0.41,0.43-0.78,0.81-1.11,1.15c-0.34,0.32-0.63,0.59-0.86,0.81c-0.86,0.8-1.59,1.55-2.27,2.26c-0.7,0.68-1.33,1.33-1.92,1.99
					c-0.29,0.33-0.58,0.67-0.86,1.01c-0.29,0.33-0.59,0.66-0.89,0.99c-0.59,0.68-1.2,1.4-1.86,2.21c0.95-0.39,1.82-0.77,2.66-1.15
					c0.42-0.19,0.83-0.39,1.24-0.59c0.39-0.22,0.78-0.45,1.17-0.69c0.78-0.48,1.56-1,2.38-1.59c0.79-0.63,1.61-1.35,2.51-2.18
					c0.24-0.22,0.55-0.51,0.9-0.84c0.34-0.35,0.72-0.75,1.15-1.19c0.84-0.9,1.91-1.9,2.95-3.14c0.63-0.72,1.26-1.44,1.89-2.16
					c0.77-0.86,1.45-1.8,2.19-2.7c1.49-1.8,2.81-3.74,4.21-5.65c2.67-3.91,5.26-7.98,7.59-12.27c4.73-8.54,8.82-17.71,12.38-27.2
					c0.85-2.39,1.71-4.78,2.57-7.18c0.79-2.42,1.59-4.85,2.39-7.29c0.75-2.46,1.42-4.95,2.13-7.43c0.38-1.23,0.66-2.5,0.94-3.76
					l0.85-3.79c2.13-10.12,3.18-20.55,2.64-30.85c-0.55-10.29-2.91-20.39-6.85-29.56c-0.44-1.17-1.04-2.26-1.58-3.38
					c-0.56-1.1-1.08-2.23-1.68-3.3c-0.63-1.06-1.26-2.11-1.88-3.16c-0.32-0.52-0.61-1.05-0.94-1.57l-1.04-1.5
					c-0.69-0.99-1.38-1.98-2.07-2.97c-0.75-0.94-1.5-1.87-2.25-2.8c-1.44-1.9-3.14-3.55-4.69-5.29
					c-6.52-6.69-13.86-11.95-21.16-16.09c-7.32-4.14-14.67-7.13-21.57-9.29c-6.91-2.16-13.39-3.5-19.14-4.35
					c-0.72-0.11-1.43-0.21-2.12-0.32c-0.7-0.08-1.39-0.15-2.06-0.23c-1.35-0.14-2.65-0.3-3.9-0.4c-2.5-0.15-4.79-0.35-6.87-0.36
					c-1.04-0.02-2.02-0.04-2.94-0.06c-0.92,0.01-1.78,0.03-2.58,0.04c-1.6,0.03-2.96,0.04-4.06,0.12c-2.2,0.12-3.36,0.18-3.36,0.18
					s-0.29,0.02-0.86,0.05c-0.56,0.05-1.4,0.12-2.5,0.22c-2.19,0.17-5.4,0.53-9.49,1.14c-4.09,0.61-9.04,1.56-14.68,2.95
					c-5.62,1.45-11.93,3.39-18.62,6.13c-6.69,2.74-13.78,6.27-20.77,10.94l-1.32,0.87l-1.29,0.94c-0.86,0.63-1.73,1.27-2.6,1.91
					c-0.88,0.63-1.69,1.37-2.55,2.05c-0.84,0.71-1.72,1.38-2.54,2.13c-0.82,0.76-1.64,1.52-2.46,2.29l-1.24,1.16l-1.17,1.24
					c-0.78,0.83-1.57,1.67-2.37,2.5c-0.75,0.88-1.48,1.78-2.23,2.68c-5.98,7.19-10.67,15.95-13.61,25.49
					c-2.91,9.57-3.75,19.93-3.03,30.19c0.75,10.29,3.06,20.49,6.48,30.27c3.44,9.78,8.01,19.16,13.63,27.68
					c11.19,17.13,26.11,30.75,41.18,40.78c3.76,2.54,7.58,4.8,11.34,6.92c1.88,1.06,3.77,2.04,5.63,3.01
					c0.94,0.47,1.87,0.93,2.79,1.39c0.7,0.33,1.4,0.66,2.09,0.99c0.65,0.31,1.25,0.59,1.81,0.84c1.11,0.5,2.01,0.9,2.62,1.15
					C222.63,354.75,225.43,355.26,229.55,355.55z"/>
			</g>
		</g>
	</g>
	<path class="st25" d="M294.34,290.17c0,0-4.86-4.86-4.42-4.86c0.44,0,14.72,6.04,22.38-14.72c6.48-14.72,25.03-0.44,25.03-0.44
		s-19.73,22.67-33.42,24.29C290.21,296.06,294.34,290.17,294.34,290.17z"/>
</g>
<g id="beak">
	<path class="st97" d="M206.02,282.48c1.13,3.96,3.28,7.56,6.37,10.28c5.86,5.17,15.53,12.06,23.94,10.36
		c13.1-2.65,23.85-27.24,38.87-24.15c15.02,3.09,17.23,17.37,29.01,12.22c11.78-5.15,8.1-27.98,25.03-24.88
		c21.5,4.71,5.6,35.34,5.6,35.34s-25.77,57.72-56.83,57.72s-66.11-11.34-108.96-56.39c0,0-6.97-8.75-5.13-19.62
		c1.66-9.85,10.13-17.22,20.1-17.96C198.76,265.02,204.12,275.84,206.02,282.48z"/>
	<path class="st98" d="M322.46,266.91c0,0-5.6,1.62-8.54,11.19c-2.94,9.57-12.81,17.52-20.61,12.22c0,0-3.35-3.24-8.32-7.21
		c-4.79-3.3-9.72-4.86-13.14-4.31c-6.92,4.86-0.48,40.38,11.3,38.91s21.35-20.76,21.35-20.76s10.6-5.3,14.28-17.67
		c3.68-12.37,10.45-12.96,10.45-12.96S325.4,265.73,322.46,266.91z"/>
	<path class="st98" d="M311.38,338.98c0,0-14.25,19.88-32.13,20.21c-17.89,0.33-50.36-2.98-87.79-35.01l-19.1-17.34
		c0,0-8.28-7.51-8.94-18.77c-0.66-11.26,8.39-20.21,16.23-21.98c7.84-1.77,18.99-0.66,24.63,12.04c0,0-6.85-9.5-18-9.39
		c-11.15,0.11-20.54,10.38-16.34,24.4s21.98,20.32,21.98,20.32s14.91,23.3,60.52,38.43c0,0-16.23-6.63-26.94-20.21
		c0,0,25.95,20.1,48.15,18.11c22.2-1.99,28.16-15.68,28.16-15.68s-4.31,13.25-17.56,19.77
		C284.21,353.89,295.48,351.02,311.38,338.98z"/>
	<path class="st98" d="M193,300c-0.66-0.33-1.44-3.98-8.06-4.09c-6.63-0.11-11.04-6.07-5.96-12.7c5.08-6.63,15.02-5.08,15.13,3.09
		s-0.33,8.61,2.76,13.03C199.96,303.76,193,300,193,300z"/>
	<path class="st98" d="M247.55,334.9c0,0,48.59,12.15,62.28-9.17l-4.31-1.1c0,0-22.75,6.29-39.31,5.52
		C266.21,330.15,256.72,334.45,247.55,334.9z"/>
	<path class="st31" d="M329.23,266.32c0,0-0.03,0-0.06-0.01c-7.21-1.29-10.66,2.13-13.18,6.88c-0.36,0.64-0.71,1.35-1.04,2.13
		c-1.32,2.89-2.47,6.05-3.96,8.85c-3.69,5.45-9.52,9.05-14.9,7.47c-1.48-0.6-2.86-1.56-4.26-2.7c-1.44-1.31-3.84-3.44-6.84-5.84
		c-4.4-3.03-8.9-4.57-12.26-4.38c-13.75-0.15-24.03,21.9-36.4,24.4c-8.4,1.7-18.08-5.2-23.94-10.36c-3.09-2.72-5.23-6.33-6.37-10.28
		c-1.07-3.75-3.25-8.83-7.59-12.47c-3.52-3.02-7.62-4.29-11.57-4.53c-0.91-0.07-1.86-0.1-2.86-0.07c-0.79,0.06-1.56,0.17-2.33,0.31
		c-0.7,0.1-1.38,0.23-2.04,0.38c-7.84,1.77-16.9,10.71-16.23,21.98c0.34,5.76,2.67,10.53,4.86,13.82c0.21,0.32,0.38,0.57,0.51,0.75
		c1.9,2.68,3.57,4.2,3.57,4.2l4.81,4.36c4.76,4.64,9.42,8.86,13.99,12.7l0.31,0.28c12.33,10.54,24.11,17.96,35.01,23.18
		c18.57,9.01,35.57,12.01,51.53,12.01c2.43,0,4.83-0.35,7.19-1.01c12.64-3.19,22.57-14.75,25.38-18.32
		c14.61-16.78,24.26-38.39,24.26-38.39S350.73,271.03,329.23,266.32z"/>
	<path class="st97" d="M257.97,285.9c0,0,14.65-14.94,25.03-1.69c6.77,9.57,8.69,15.98,26.06,8.32s34.9-16.79,37.4,0.15
		c2.5,16.93-21.06,33.57-62.72,40.34c-41.67,6.77-79.21-17.67-91.14-35.93s37.1,6.04,37.1,6.04S238.97,309.02,257.97,285.9z"/>
	<path class="st98" d="M345.94,289.73c0,0,7.62,16.01-21.31,31.03s-69.24,11.71-69.24,11.71s-41.96-3.09-60.85-29.82
		c-18.88-26.72-3.2-25.95-0.88-18.88c2.32,7.07-4.75,11.37,16.45,29.37c13.59,11.53,38.14,14.54,54.04,15.22
		c10.16,0.43,20.32-0.42,30.26-2.51C314.24,321.67,346.4,311.53,345.94,289.73z"/>
	<path class="st31" d="M329.23,266.32c0,0-0.03,0-0.06-0.01c-7.21-1.29-10.66,2.13-13.18,6.88c-0.36,0.64-0.71,1.35-1.04,2.13
		c-1.32,2.89-2.47,6.05-3.96,8.85c-3.69,5.45-9.52,9.05-14.9,7.47c-1.48-0.6-2.86-1.56-4.26-2.7c-1.44-1.31-3.84-3.44-6.84-5.84
		c-4.4-3.03-8.9-4.57-12.26-4.38c-13.75-0.15-24.03,21.9-36.4,24.4c-8.4,1.7-18.08-5.2-23.94-10.36c-3.09-2.72-5.23-6.33-6.37-10.28
		c-1.07-3.75-3.25-8.83-7.59-12.47"/>
	<path class="st31" d="M257.97,285.9c0,0,14.65-14.94,25.03-1.69c6.77,9.57,8.69,15.98,26.06,8.32s34.9-16.79,37.4,0.15
		c2.5,16.93-21.06,33.57-62.72,40.34c-41.67,6.77-79.21-17.67-91.14-35.93"/>
	<path d="M197.86,304.86c0.02,0.33-4.2-3.42-5.85-5.85c-1.66-2.43-3.42-4.31-7.84-5.63c-4.42-1.33-2.98-5.52,0-8.39
		c2.98-2.87,6.74-1.55,7.18,0.11c0.44,1.66-3.87,2.32,2.54,11.15C193.88,296.25,197.64,301.77,197.86,304.86z"/>
	<path d="M267.26,297.35c0,0,4.75,1.93,3.87,4.86c-1.6,3.42-5.19,0.44-3.64-1.88C267.48,300.33,269.25,299.45,267.26,297.35z"/>
	<path class="st104" d="M214.24,303.13c0,0,30.18,20.47,72.59,12.22s57.13-23.56,51.83-28.56c-5.3-5.01-18.11,12.66-39.02,12.22
		c-20.91-0.44-13.55-15.9-27.53-18.4c0,0,7.07,3.53,8.83,11.93c1.77,8.39,16.79,13.25,16.79,13.25S269.16,323.3,214.24,303.13z"/>
	<path class="st104" d="M251.78,344.21c0,0,37.25,13.69,50.21-10.6c0,0-5.89,3.68-17.08,5.01
		C284.91,338.61,273.72,348.48,251.78,344.21z"/>
	<path class="st104" d="M174.04,298.57c0,0-8.54-15.61,2.8-25.47c11.34-9.87,26.94,1.03,26.94,13.84c0,0-9.13-17.67-22.97-11.19
		C169.18,282.07,174.04,298.57,174.04,298.57z"/>
</g>
<g id="on-head">
</g>
<g id="eyebrows">
	<path d="M223.29,240.11c3.88-1.16,20.05-7.86,24.65-9.49c0.92-0.33,1.76-0.85,2.41-1.57c0.11-0.12,0.2-0.23,0.24-0.32
		c0.35-0.68,0.63-1.82-0.17-3.27c-1.22-2.24-4.8-1.47-5.34-1.34c-0.05,0.01-0.08,0.02-0.13,0.04c-0.9,0.3-12.16,4.2-23.3,11.36
		c-0.54,0.35-2.64,1.87-1.75,3.64C220.44,240.09,221.97,240.48,223.29,240.11z"/>
	<path d="M266.82,220.78c-0.14,0.31-0.03,0.75,0.18,1.22c0.58,1.28,1.71,2.24,3.04,2.71c4.83,1.72,19.11,6.82,23.35,8.33
		c1.58,0.56,3.54-1.31,2.72-2.77c-0.33-0.58-0.96-1.21-2.06-1.84c-4.39-2.51-18.41-10.06-23.19-9.93
		C268.39,218.57,267.3,219.7,266.82,220.78z"/>
</g>
<g id="nest">
</g>
<g id="Layer_12">
</g>
</svg>
