<svg version="1.1" xmlns="http://www.w3.org/2000/svg" xmlns:xlink="http://www.w3.org/1999/xlink" x="0px" y="0px"
	 viewBox="0 0 510.24 595.28" style="enable-background:new 0 0 510.24 595.28;" xml:space="preserve">
<style type="text/css">
	.st0{fill:#6A7121;stroke:#1D1D1B;stroke-width:3;stroke-miterlimit:10;}
	.st1{fill:#B3C123;}
	.st2{fill:#35352E;stroke:#000000;stroke-width:4;stroke-miterlimit:10;}
	.st3{fill:#1F2226;}
	.st4{fill:#FFFFFF;}
	.st5{fill:#6A7121;}
	.st6{fill:#FFD346;}
	.st7{fill:#1D1D1D;}
	.st8{fill:none;stroke:#000000;stroke-width:3;stroke-miterlimit:10;}
	.st9{fill:#282C3A;}
	.st10{fill:#41423A;}
	.st11{fill:#2B2E33;}
	.st12{fill:#595955;}
	.st13{fill:#41454F;}
	.st14{fill:#1B1E28;}
	.st15{fill:#727272;}
	.st16{fill:#B3C123;stroke:#1D1D1B;stroke-width:3;stroke-miterlimit:10;}
	.st17{fill:#54565B;}
	.st18{fill:#1D1D1B;}
	.st19{fill:#71818E;}
	.st20{opacity:0.41;fill:#FFFFFF;}
	.st21{fill:#7C7D82;}
	.st22{opacity:0.6;fill:#B3C123;}
	.st23{opacity:0.4;fill:#B3C123;}
	.st24{fill:#FFFFFF;stroke:#1D1D1B;stroke-width:4;stroke-miterlimit:10;}
	.st25{fill:#E9F839;}
	.st26{fill:#ED7601;}
	.st27{fill:#D64422;}
	.st28{fill:#F2892A;}
	.st29{fill:none;stroke:#1D1D1B;stroke-width:3;stroke-miterlimit:10;}
	.st30{fill:#2E3A4F;}
	.st31{opacity:0.3;fill:#FFFFFF;}
</style>
<g id="left-wing_1_">
	<path class="st0" d="M375,405.89c0,0,7.21,17.58-9.09,38.22l-12.15-23.99c0,0-5.72-4.16-3.03-13.13
		C353.41,398.03,372.04,399.17,375,405.89z"/>
	<path class="st1" d="M366.6,439.87c0,0,0.66-9.76-0.64-14.12l7.15-3.2C373.1,422.55,370.72,433.28,366.6,439.87z"/>
	<path class="st0" d="M364.26,412.79c0,0,7.21,17.58-9.09,38.22l-12.15-23.99c0,0-5.72-4.16-3.03-13.13
		C342.67,404.93,361.3,406.07,364.26,412.79z"/>
	<path class="st1" d="M355.86,446.78c0,0,0.66-9.76-0.64-14.12l7.15-3.2C362.36,429.46,359.98,440.18,355.86,446.78z"/>
	<path class="st2" d="M336.57,334.02c0.66-0.03,18.43-7.92,30.27,48.14l0,0c2.57-0.95,5.41,0.5,6.14,3.15l6.61,23.94
		c0.54,1.95-0.22,4.02-1.88,5.17c-3.97,2.73-13.44,7.34-34.98,11.07L336.57,334.02z"/>
	<path class="st3" d="M325.49,333.64c0,0,22.54-5.01,27.46,15.55c4.92,20.56,1.22,41.29,3.21,41.42c2,0.13,9.5-5.08,10.09-1.79
		c0.59,3.29-7.77,18.7-2.42,29.29l-24.26,6.19C339.58,424.3,322.31,370.48,325.49,333.64z"/>
</g>
<g id="tail">
</g>
<g id="body">
	<g>
		<path class="st1" d="M272.48,322.75c0,0,44.99,0.34,63.6,60.2c18.61,59.86-26.94,87.8-68.6,87.8c-24.15,0-65.05,4.13-90.33-13.67
			c-18.72-13.17-24.28-42.32-15.67-64C186.27,330.71,222.08,322.75,272.48,322.75z"/>
		<path class="st4" d="M272.48,322.75c2.1,0.61,3.77,1.28,5.54,1.87c1.77,0.61,3.62,1.2,5.99,1.92c0.65,0.19,1.6,0.51,2.78,0.92
			c0.59,0.2,1.23,0.46,1.91,0.72l0.62,0.24l1.19,0.51c0.8,0.33,1.59,0.69,2.38,1.08c0.8,0.37,1.59,0.77,2.37,1.19
			c0.79,0.41,1.58,0.84,2.35,1.31c3.12,1.82,6.18,3.95,9.11,6.37c5.84,4.88,11.15,10.93,15.59,17.85
			c4.42,6.93,8.1,14.64,10.87,22.81c2.79,8.15,4.89,16.69,5.37,25.37c0.28,4.33,0.06,8.67-0.48,12.95
			c-0.6,4.27-1.72,8.43-3.24,12.41c-3.04,7.98-8.22,14.9-14.32,20.42c-6.2,5.44-13.29,9.55-20.53,12.37
			c-3.61,1.46-7.27,2.56-10.88,3.44c-3.61,0.92-7.21,1.49-10.7,1.94c-3.5,0.41-6.92,0.62-10.22,0.65c-3.35,0.03-6.62,0.07-9.71,0.14
			c-12.39,0.33-22.52,0.4-29.55,0.07c-3.52-0.16-6.26-0.35-8.12-0.51c-1.86-0.15-2.84-0.27-2.84-0.27s-0.99-0.08-2.83-0.32
			c-1.85-0.21-4.56-0.59-8-1.22c-3.44-0.64-7.6-1.56-12.24-3.08c-4.64-1.51-9.76-3.65-14.84-6.87c-0.62-0.42-1.26-0.84-1.9-1.26
			c-0.59-0.47-1.2-0.94-1.8-1.42c-0.59-0.5-1.25-0.92-1.8-1.49c-0.56-0.55-1.13-1.11-1.71-1.68l-0.87-0.85l-0.78-0.95
			c-0.52-0.63-1.05-1.27-1.59-1.91c-0.53-0.64-0.96-1.38-1.45-2.07c-0.46-0.72-1-1.39-1.41-2.16c-0.81-1.53-1.77-3.02-2.43-4.69
			c-0.36-0.82-0.73-1.64-1.1-2.47c-0.3-0.86-0.61-1.72-0.91-2.59l-0.46-1.31c-0.13-0.44-0.24-0.9-0.37-1.35
			c-0.24-0.9-0.48-1.81-0.73-2.72c-0.21-0.92-0.36-1.86-0.55-2.8c-0.18-0.94-0.37-1.88-0.45-2.84c-0.11-0.96-0.22-1.92-0.33-2.89
			c-0.09-0.97-0.09-1.95-0.15-2.94c-0.15-1.97,0.02-3.96,0.05-5.96c0.07-1,0.2-2,0.3-3l0.16-1.51l0.27-1.5
			c0.19-1,0.34-2.01,0.56-3.01c0.26-0.99,0.52-1.98,0.78-2.97c0.22-1.01,0.61-1.96,0.94-2.94c0.35-0.97,0.64-1.95,1.08-2.93
			c0.83-1.96,1.6-3.96,2.49-5.91c0.9-1.95,1.73-3.94,2.71-5.87c0.48-0.97,0.95-1.94,1.43-2.92c0.48-0.97,1.01-1.92,1.52-2.88
			c2.01-3.85,4.3-7.57,6.69-11.23c2.45-3.61,5.09-7.1,7.95-10.39c2.9-3.25,5.99-6.32,9.31-9.1c3.33-2.76,6.88-5.21,10.58-7.35
			c7.39-4.32,15.46-7.11,23.47-9c4.02-0.91,8.04-1.6,12.02-2.13c1.99-0.22,3.96-0.49,5.93-0.65c0.98-0.09,1.96-0.17,2.93-0.26
			c0.82-0.06,1.63-0.11,2.43-0.17c3.33-0.22,6.08-0.33,7.45-0.38C265.36,324.4,268.22,323.83,272.48,322.75
			c-4.26-1.03-7.17-1.61-12.3-1.46c-1.39,0.03-4.17,0.14-7.55,0.36c-0.82,0.06-1.64,0.11-2.47,0.17c-0.99,0.09-1.98,0.17-2.98,0.26
			c-2,0.16-4.01,0.43-6.05,0.66c-4.06,0.54-8.19,1.25-12.34,2.19c-8.26,1.95-16.66,4.85-24.38,9.36c-3.86,2.23-7.58,4.79-11.05,7.68
			c-3.45,2.9-6.68,6.09-9.68,9.46c-2.96,3.41-5.69,7.01-8.21,10.73c-2.46,3.75-4.81,7.58-6.86,11.51c-0.52,0.98-1.06,1.95-1.55,2.94
			c-0.49,0.99-0.97,1.99-1.46,2.97c-1,1.97-1.85,3.99-2.76,5.98c-0.91,1.99-1.69,4.02-2.53,6.01c-0.44,0.98-0.76,2.05-1.14,3.08
			c-0.35,1.04-0.76,2.06-1,3.13c-0.28,1.06-0.55,2.11-0.82,3.16c-0.22,1.06-0.39,2.13-0.59,3.18l-0.28,1.59l-0.17,1.59
			c-0.1,1.06-0.23,2.12-0.31,3.17c-0.04,2.11-0.21,4.21-0.05,6.29c0.05,1.04,0.06,2.07,0.16,3.1c0.12,1.02,0.23,2.04,0.35,3.05
			c0.09,1.02,0.29,2.01,0.48,3c0.2,0.99,0.36,1.98,0.58,2.95c0.26,0.96,0.52,1.92,0.77,2.88c0.13,0.48,0.25,0.95,0.39,1.42
			l0.49,1.39c0.33,0.92,0.65,1.84,0.97,2.74c0.39,0.88,0.78,1.76,1.17,2.63c0.71,1.77,1.73,3.37,2.6,5
			c3.75,6.42,9,11.42,14.37,14.88c5.39,3.42,10.77,5.66,15.6,7.23c4.83,1.58,9.13,2.53,12.66,3.18c3.54,0.64,6.32,1.03,8.21,1.25
			c1.89,0.24,2.9,0.32,2.9,0.32s1,0.12,2.9,0.27c1.9,0.16,4.69,0.36,8.26,0.52c7.14,0.34,17.4,0.27,29.77-0.06
			c3.1-0.07,6.3-0.11,9.66-0.14c3.42-0.03,6.96-0.24,10.58-0.67c3.62-0.47,7.35-1.05,11.09-2.01c3.75-0.92,7.56-2.06,11.32-3.58
			c7.55-2.93,14.98-7.23,21.53-12.98c6.45-5.83,11.97-13.2,15.2-21.69c1.63-4.22,2.81-8.65,3.44-13.16
			c0.57-4.51,0.79-9.08,0.5-13.61c-0.51-9.07-2.69-17.91-5.55-26.27c-2.84-8.38-6.63-16.33-11.22-23.52
			c-4.61-7.18-10.15-13.49-16.27-18.61c-3.08-2.53-6.28-4.77-9.56-6.68c-0.81-0.49-1.64-0.95-2.47-1.38
			c-0.82-0.45-1.65-0.87-2.49-1.26c-0.83-0.41-1.66-0.79-2.5-1.14c-0.42-0.18-0.83-0.36-1.25-0.53l-0.65-0.25
			c-0.72-0.27-1.39-0.55-2.02-0.76c-1.25-0.43-2.26-0.76-2.94-0.95c-2.51-0.74-4.55-1.06-6.51-1.14
			C276.51,322.16,274.63,322.3,272.48,322.75z"/>
	</g>
	<path class="st5" d="M161.48,393.08c0,0-15,40.33,14.67,62.67c0,0,14,15.67,63,15.67l34.33-1c0,0,42-1,60-32.67
		c0,0-14.67,20-93.67,20S160.48,409.42,161.48,393.08z"/>
	<path class="st6" d="M176.48,366.08c10.33-17.33,32.33-19.33,47.67-13l-25.33-13.67C198.81,339.42,182.81,349.75,176.48,366.08z"/>
	<path class="st7" d="M272.48,322.75c2.1,0.61,3.77,1.28,5.54,1.87c1.77,0.61,3.62,1.2,5.99,1.92c0.65,0.19,1.6,0.51,2.78,0.92
		c0.59,0.2,1.23,0.46,1.91,0.72l0.62,0.24l1.19,0.51c0.8,0.33,1.59,0.69,2.38,1.08c0.8,0.37,1.59,0.77,2.37,1.19
		c0.79,0.41,1.58,0.84,2.35,1.31c3.12,1.82,6.18,3.95,9.11,6.37c5.84,4.88,11.15,10.93,15.59,17.85c4.42,6.93,8.1,14.64,10.87,22.81
		c2.79,8.15,4.89,16.69,5.37,25.37c0.28,4.33,0.06,8.67-0.48,12.95c-0.6,4.27-1.72,8.43-3.24,12.41
		c-3.04,7.98-8.22,14.9-14.32,20.42c-6.2,5.44-13.29,9.55-20.53,12.37c-3.61,1.46-7.27,2.56-10.88,3.44
		c-3.61,0.92-7.21,1.49-10.7,1.94c-3.5,0.41-6.92,0.62-10.22,0.65c-3.35,0.03-6.62,0.07-9.71,0.14c-12.39,0.33-22.52,0.4-29.55,0.07
		c-3.52-0.16-6.26-0.35-8.12-0.51c-1.86-0.15-2.84-0.27-2.84-0.27s-0.99-0.08-2.83-0.32c-1.85-0.21-4.56-0.59-8-1.22
		c-3.44-0.64-7.6-1.56-12.24-3.08c-4.64-1.51-9.76-3.65-14.84-6.87c-0.62-0.42-1.26-0.84-1.9-1.26c-0.59-0.47-1.2-0.94-1.8-1.42
		c-0.59-0.5-1.25-0.92-1.8-1.49c-0.56-0.55-1.13-1.11-1.71-1.68l-0.87-0.85l-0.78-0.95c-0.52-0.63-1.05-1.27-1.59-1.91
		c-0.53-0.64-0.96-1.38-1.45-2.07c-0.46-0.72-1-1.39-1.41-2.16c-0.81-1.53-1.77-3.02-2.43-4.69c-0.36-0.82-0.73-1.64-1.1-2.47
		c-0.3-0.86-0.61-1.72-0.91-2.59l-0.46-1.31c-0.13-0.44-0.24-0.9-0.37-1.35c-0.24-0.9-0.48-1.81-0.73-2.72
		c-0.21-0.92-0.36-1.86-0.55-2.8c-0.18-0.94-0.37-1.88-0.45-2.84c-0.11-0.96-0.22-1.92-0.33-2.89c-0.09-0.97-0.09-1.95-0.15-2.94
		c-0.15-1.97,0.02-3.96,0.05-5.96c0.07-1,0.2-2,0.3-3l0.16-1.51l0.27-1.5c0.19-1,0.34-2.01,0.56-3.01c0.26-0.99,0.52-1.98,0.78-2.97
		c0.22-1.01,0.61-1.96,0.94-2.94c0.35-0.97,0.64-1.95,1.08-2.93c0.83-1.96,1.6-3.96,2.49-5.91c0.9-1.95,1.73-3.94,2.71-5.87
		c0.48-0.97,0.95-1.94,1.43-2.92c0.48-0.97,1.01-1.92,1.52-2.88c2.01-3.85,4.3-7.57,6.69-11.23c2.45-3.61,5.09-7.1,7.95-10.39
		c2.9-3.25,5.99-6.32,9.31-9.1c3.33-2.76,6.88-5.21,10.58-7.35c7.39-4.32,15.46-7.11,23.47-9c4.02-0.91,8.04-1.6,12.02-2.13
		c1.99-0.22,3.96-0.49,5.93-0.65c0.98-0.09,1.96-0.17,2.93-0.26c0.82-0.06,1.63-0.11,2.43-0.17c3.33-0.22,6.08-0.33,7.45-0.38
		C265.36,324.4,268.22,323.83,272.48,322.75c-4.26-1.03-7.17-1.61-12.3-1.46c-1.39,0.03-4.17,0.14-7.55,0.36
		c-0.82,0.06-1.64,0.11-2.47,0.17c-0.99,0.09-1.98,0.17-2.98,0.26c-2,0.16-4.01,0.43-6.05,0.66c-4.06,0.54-8.19,1.25-12.34,2.19
		c-8.26,1.95-16.66,4.85-24.38,9.36c-3.86,2.23-7.58,4.79-11.05,7.68c-3.45,2.9-6.68,6.09-9.68,9.46
		c-2.96,3.41-5.69,7.01-8.21,10.73c-2.46,3.75-4.81,7.58-6.86,11.51c-0.52,0.98-1.06,1.95-1.55,2.94c-0.49,0.99-0.97,1.99-1.46,2.97
		c-1,1.97-1.85,3.99-2.76,5.98c-0.91,1.99-1.69,4.02-2.53,6.01c-0.44,0.98-0.76,2.05-1.14,3.08c-0.35,1.04-0.76,2.06-1,3.13
		c-0.28,1.06-0.55,2.11-0.82,3.16c-0.22,1.06-0.39,2.13-0.59,3.18l-0.28,1.59l-0.17,1.59c-0.1,1.06-0.23,2.12-0.31,3.17
		c-0.04,2.11-0.21,4.21-0.05,6.29c0.05,1.04,0.06,2.07,0.16,3.1c0.12,1.02,0.23,2.04,0.35,3.05c0.09,1.02,0.29,2.01,0.48,3
		c0.2,0.99,0.36,1.98,0.58,2.95c0.26,0.96,0.52,1.92,0.77,2.88c0.13,0.48,0.25,0.95,0.39,1.42l0.49,1.39
		c0.33,0.92,0.65,1.84,0.97,2.74c0.39,0.88,0.78,1.76,1.17,2.63c0.71,1.77,1.73,3.37,2.6,5c3.75,6.42,9,11.42,14.37,14.88
		c5.39,3.42,10.77,5.66,15.6,7.23c4.83,1.58,9.13,2.53,12.66,3.18c3.54,0.64,6.32,1.03,8.21,1.25c1.89,0.24,2.9,0.32,2.9,0.32
		s1,0.12,2.9,0.27c1.9,0.16,4.69,0.36,8.26,0.52c7.14,0.34,17.4,0.27,29.77-0.06c3.1-0.07,6.3-0.11,9.66-0.14
		c3.42-0.03,6.96-0.24,10.58-0.67c3.62-0.47,7.35-1.05,11.09-2.01c3.75-0.92,7.56-2.06,11.32-3.58c7.55-2.93,14.98-7.23,21.53-12.98
		c6.45-5.83,11.97-13.2,15.2-21.69c1.63-4.22,2.81-8.65,3.44-13.16c0.57-4.51,0.79-9.08,0.5-13.61c-0.51-9.07-2.69-17.91-5.55-26.27
		c-2.84-8.38-6.63-16.33-11.22-23.52c-4.61-7.18-10.15-13.49-16.27-18.61c-3.08-2.53-6.28-4.77-9.56-6.68
		c-0.81-0.49-1.64-0.95-2.47-1.38c-0.82-0.45-1.65-0.87-2.49-1.26c-0.83-0.41-1.66-0.79-2.5-1.14c-0.42-0.18-0.83-0.36-1.25-0.53
		l-0.65-0.25c-0.72-0.27-1.39-0.55-2.02-0.76c-1.25-0.43-2.26-0.76-2.94-0.95c-2.51-0.74-4.55-1.06-6.51-1.14
		C276.51,322.16,274.63,322.3,272.48,322.75z"/>
</g>
<g id="head">
	<path class="st1" d="M336.81,255.9c0,52.92-64.45,99.85-96.33,99.85s-96.33-46.93-96.33-99.85s43.13-95.82,96.33-95.82
		S336.81,202.98,336.81,255.9z"/>
	<path class="st7" d="M229.52,354.26c-0.96-0.54-1.84-1.03-2.69-1.47c-0.84-0.46-1.65-0.93-2.49-1.34c-0.85-0.4-1.7-0.86-2.64-1.29
		c-0.95-0.42-1.97-0.87-3.12-1.38c-0.62-0.28-1.57-0.64-2.71-1.19c-0.57-0.27-1.2-0.56-1.87-0.88l-0.6-0.28l-1.17-0.59
		c-0.78-0.4-1.57-0.8-2.36-1.2c-1.55-0.88-3.16-1.7-4.72-2.66c-3.18-1.83-6.31-3.94-9.49-6.13c-12.56-8.93-25.03-20.67-34.71-35.01
		c-2.38-3.6-4.6-7.34-6.57-11.23c-1.91-3.91-3.64-7.93-4.99-12.07c-1.31-4.16-2.34-8.4-2.95-12.7c-0.55-4.31-0.73-8.61-0.53-12.95
		c0.72-17.33,6.38-33.9,15-46.96c4.23-6.59,9.16-12.32,14.3-17.18c5.14-4.87,10.49-8.87,15.69-12.05
		c5.21-3.19,10.26-5.57,14.82-7.37c2.27-0.95,4.46-1.61,6.46-2.3c2.04-0.57,3.89-1.15,5.59-1.54c1.71-0.37,3.21-0.79,4.55-1
		c1.33-0.24,2.46-0.44,3.38-0.6c1.84-0.27,2.82-0.37,2.82-0.37s0.24-0.03,0.72-0.09c0.48-0.05,1.18-0.18,2.1-0.24
		c0.93-0.07,2.07-0.16,3.42-0.26c1.35-0.12,2.91-0.1,4.65-0.16c1.75-0.06,3.69,0.06,5.8,0.09c1.05,0.08,2.15,0.16,3.3,0.24
		c0.57,0.04,1.15,0.09,1.74,0.14c0.59,0.07,1.19,0.15,1.8,0.23c4.87,0.58,10.36,1.61,16.2,3.4c11.67,3.49,24.78,10.21,36.35,20.79
		c11.56,10.53,21.31,25.07,26.39,41.66c1.25,4.15,2.25,8.39,2.95,12.7c0.63,4.32,1.12,8.68,1.14,13.05l0.04,1.64
		c0,0.54-0.04,1.08-0.06,1.63l-0.14,3.25c0,1.09-0.22,2.15-0.34,3.23l-0.41,3.22l-0.67,3.17c-0.25,1.05-0.39,2.13-0.73,3.15
		l-0.91,3.1l-0.45,1.55l-0.56,1.51c-2.89,8.09-6.97,15.62-11.66,22.44c-2.33,3.42-4.85,6.65-7.44,9.71l-0.96,1.16l-1,1.11
		c-0.67,0.74-1.33,1.47-2,2.2c-0.65,0.74-1.32,1.45-2.02,2.14c-0.57,0.58-1.15,1.16-1.71,1.73c-1.15,1.2-2.26,2.23-3.19,3.09
		c-0.93,0.87-1.67,1.57-2.17,2.03c-1.88,1.68-3.3,3.06-4.54,4.5c-1.29,1.38-2.43,2.8-3.78,4.54c1.99-0.9,3.66-1.7,5.33-2.67
		c1.62-1.03,3.27-2.21,5.21-3.91c0.51-0.47,1.28-1.19,2.23-2.07c0.96-0.88,2.09-1.93,3.28-3.16c0.58-0.59,1.17-1.18,1.75-1.77
		c0.71-0.7,1.4-1.43,2.07-2.19c0.68-0.75,1.36-1.5,2.05-2.25l1.03-1.14l0.98-1.19c2.66-3.15,5.24-6.46,7.64-9.98
		c4.82-7.02,9.05-14.79,12.05-23.22l0.58-1.57l0.48-1.61l0.95-3.24c0.36-1.07,0.51-2.2,0.77-3.3l0.7-3.32l0.44-3.38
		c0.12-1.13,0.35-2.25,0.35-3.39l0.15-3.42c0.02-0.57,0.06-1.14,0.06-1.71l-0.04-1.7c-0.02-4.53-0.53-9.05-1.18-13.52
		c-0.73-4.46-1.76-8.86-3.05-13.16c-5.27-17.19-15.37-32.23-27.33-43.13c-11.98-10.96-25.55-17.9-37.64-21.52
		c-6.04-1.86-11.73-2.92-16.77-3.52c-0.63-0.08-1.25-0.16-1.86-0.23c-0.61-0.05-1.21-0.1-1.8-0.14c-1.18-0.09-2.32-0.17-3.41-0.25
		c-2.19-0.03-4.19-0.16-6-0.1c-1.81,0.06-3.42,0.04-4.81,0.17c-1.4,0.11-2.58,0.2-3.54,0.27c-0.96,0.06-1.69,0.2-2.18,0.25
		c-0.49,0.06-0.74,0.09-0.74,0.09s-1.01,0.11-2.92,0.39c-0.95,0.17-2.12,0.38-3.49,0.62c-1.38,0.22-2.94,0.65-4.71,1.03
		c-1.77,0.4-3.68,1-5.79,1.59c-2.07,0.71-4.34,1.4-6.69,2.38c-4.73,1.85-9.96,4.32-15.35,7.62c-5.39,3.3-10.93,7.43-16.25,12.47
		c-5.32,5.03-10.42,10.96-14.81,17.78c-8.92,13.51-14.79,30.69-15.54,48.63c-0.21,4.46-0.03,9.04,0.55,13.55
		c0.63,4.51,1.71,8.94,3.08,13.28c1.41,4.32,3.2,8.49,5.18,12.54c2.04,4.02,4.33,7.88,6.78,11.59c9.97,14.76,22.7,26.74,35.55,35.88
		c3.25,2.24,6.46,4.4,9.72,6.28c1.6,0.99,3.26,1.83,4.85,2.73c0.82,0.42,1.62,0.83,2.43,1.24l1.2,0.61l0.62,0.29
		c0.69,0.32,1.34,0.62,1.93,0.9c1.17,0.57,2.16,0.94,2.81,1.22C222.1,353.78,225.14,354.2,229.52,354.26z"/>
	<path class="st5" d="M218.15,350.08c0,0-49-32.67-60-66c-9.67-30.33-9.67-54.67,11.33-92.33c0,0-32,32.67-22.33,80
		C156.81,319.08,208.81,347.42,218.15,350.08z"/>
	<path class="st7" d="M229.52,354.26c-0.96-0.54-1.84-1.03-2.69-1.47c-0.84-0.46-1.65-0.93-2.49-1.34c-0.85-0.4-1.7-0.86-2.64-1.29
		c-0.95-0.42-1.97-0.87-3.12-1.38c-0.62-0.28-1.57-0.64-2.71-1.19c-0.57-0.27-1.2-0.56-1.87-0.88l-0.6-0.28l-1.17-0.59
		c-0.78-0.4-1.57-0.8-2.36-1.2c-1.55-0.88-3.16-1.7-4.72-2.66c-3.18-1.83-6.31-3.94-9.49-6.13c-12.56-8.93-25.03-20.67-34.71-35.01
		c-2.38-3.6-4.6-7.34-6.57-11.23c-1.91-3.91-3.64-7.93-4.99-12.07c-1.31-4.16-2.34-8.4-2.95-12.7c-0.55-4.31-0.73-8.61-0.53-12.95
		c0.72-17.33,6.38-33.9,15-46.96c4.23-6.59,9.16-12.32,14.3-17.18c5.14-4.87,10.49-8.87,15.69-12.05
		c5.21-3.19,10.26-5.57,14.82-7.37c2.27-0.95,4.46-1.61,6.46-2.3c2.04-0.57,3.89-1.15,5.59-1.54c1.71-0.37,3.21-0.79,4.55-1
		c1.33-0.24,2.46-0.44,3.38-0.6c1.84-0.27,2.82-0.37,2.82-0.37s0.24-0.03,0.72-0.09c0.48-0.05,1.18-0.18,2.1-0.24
		c0.93-0.07,2.07-0.16,3.42-0.26c1.35-0.12,2.91-0.1,4.65-0.16c1.75-0.06,3.69,0.06,5.8,0.09c1.05,0.08,2.15,0.16,3.3,0.24
		c0.57,0.04,1.15,0.09,1.74,0.14c0.59,0.07,1.19,0.15,1.8,0.23c4.87,0.58,10.36,1.61,16.2,3.4c11.67,3.49,24.78,10.21,36.35,20.79
		c11.56,10.53,21.31,25.07,26.39,41.66c1.25,4.15,2.25,8.39,2.95,12.7c0.63,4.32,1.12,8.68,1.14,13.05l0.04,1.64
		c0,0.54-0.04,1.08-0.06,1.63l-0.14,3.25c0,1.09-0.22,2.15-0.34,3.23l-0.41,3.22l-0.67,3.17c-0.25,1.05-0.39,2.13-0.73,3.15
		l-0.91,3.1l-0.45,1.55l-0.56,1.51c-2.89,8.09-6.97,15.62-11.66,22.44c-2.33,3.42-4.85,6.65-7.44,9.71l-0.96,1.16l-1,1.11
		c-0.67,0.74-1.33,1.47-2,2.2c-0.65,0.74-1.32,1.45-2.02,2.14c-0.57,0.58-1.15,1.16-1.71,1.73c-1.15,1.2-2.26,2.23-3.19,3.09
		c-0.93,0.87-1.67,1.57-2.17,2.03c-1.88,1.68-3.3,3.06-4.54,4.5c-1.29,1.38-2.43,2.8-3.78,4.54c1.99-0.9,3.66-1.7,5.33-2.67
		c1.62-1.03,3.27-2.21,5.21-3.91c0.51-0.47,1.28-1.19,2.23-2.07c0.96-0.88,2.09-1.93,3.28-3.16c0.58-0.59,1.17-1.18,1.75-1.77
		c0.71-0.7,1.4-1.43,2.07-2.19c0.68-0.75,1.36-1.5,2.05-2.25l1.03-1.14l0.98-1.19c2.66-3.15,5.24-6.46,7.64-9.98
		c4.82-7.02,9.05-14.79,12.05-23.22l0.58-1.57l0.48-1.61l0.95-3.24c0.36-1.07,0.51-2.2,0.77-3.3l0.7-3.32l0.44-3.38
		c0.12-1.13,0.35-2.25,0.35-3.39l0.15-3.42c0.02-0.57,0.06-1.14,0.06-1.71l-0.04-1.7c-0.02-4.53-0.53-9.05-1.18-13.52
		c-0.73-4.46-1.76-8.86-3.05-13.16c-5.27-17.19-15.37-32.23-27.33-43.13c-11.98-10.96-25.55-17.9-37.64-21.52
		c-6.04-1.86-11.73-2.92-16.77-3.52c-0.63-0.08-1.25-0.16-1.86-0.23c-0.61-0.05-1.21-0.1-1.8-0.14c-1.18-0.09-2.32-0.17-3.41-0.25
		c-2.19-0.03-4.19-0.16-6-0.1c-1.81,0.06-3.42,0.04-4.81,0.17c-1.4,0.11-2.58,0.2-3.54,0.27c-0.96,0.06-1.69,0.2-2.18,0.25
		c-0.49,0.06-0.74,0.09-0.74,0.09s-1.01,0.11-2.92,0.39c-0.95,0.17-2.12,0.38-3.49,0.62c-1.38,0.22-2.94,0.65-4.71,1.03
		c-1.77,0.4-3.68,1-5.79,1.59c-2.07,0.71-4.34,1.4-6.69,2.38c-4.73,1.85-9.96,4.32-15.35,7.62c-5.39,3.3-10.93,7.43-16.25,12.47
		c-5.32,5.03-10.42,10.96-14.81,17.78c-8.92,13.51-14.79,30.69-15.54,48.63c-0.21,4.46-0.03,9.04,0.55,13.55
		c0.63,4.51,1.71,8.94,3.08,13.28c1.41,4.32,3.2,8.49,5.18,12.54c2.04,4.02,4.33,7.88,6.78,11.59c9.97,14.76,22.7,26.74,35.55,35.88
		c3.25,2.24,6.46,4.4,9.72,6.28c1.6,0.99,3.26,1.83,4.85,2.73c0.82,0.42,1.62,0.83,2.43,1.24l1.2,0.61l0.62,0.29
		c0.69,0.32,1.34,0.62,1.93,0.9c1.17,0.57,2.16,0.94,2.81,1.22C222.1,353.78,225.14,354.2,229.52,354.26z"/>
</g>
<g id="accessory">
	<path class="st1" d="M182.84,468.49c0,0-50.13-8.39-75.75-54.11l8.83-3.75l-5.08-9.28l12.37-2.65l-4.86-8.83
		c0,0,20.76-4.2,56.76,7.07S216.19,461.64,182.84,468.49z"/>
	<path class="st5" d="M107.08,414.38c0,0,7.51,34.23,76.64,55.21c0,0,20.54-0.22,24.29-29.37c3.75-29.15-35.78-35.34-35.78-35.34
		s-16.56,36.66-44.17,24.29C111.28,421.01,107.08,414.38,107.08,414.38z"/>
	<path class="st8" d="M182.84,468.49c0,0-50.13-8.39-75.75-54.11l8.83-3.75l-5.08-9.28l12.37-2.65l-4.86-8.83
		c0,0,20.76-4.2,56.76,7.07S216.19,461.64,182.84,468.49z"/>
	<path class="st5" d="M315.46,335.09c0,0-6.07,26.61-40.2,33.79c-31.64,6.4-55.72-11.48-55.72-11.48l-2.25-5.56
		c0,0,1.98,0.65,5.29,1.64c8.35,3.17,26,8.69,50.79,5.69C309.81,354.75,315.46,335.09,315.46,335.09z"/>
	<path class="st9" d="M153.68,353.87c-0.08-0.56-1.67-17.27,25.07-27.39c18.99,17.56,38.55,25.36,38.55,25.36
		s17.77,29.97,62.05,23.12c40.75-6.29,30.92-46.6,30.92-46.6s11.04-8.5,24.07,5.63c13.03,14.13,12.15,69.42,12.15,69.42
		s1.77,20.47-34.45,34.38c-36.22,13.91-119.26-4.42-119.26-4.42S161.86,409.3,153.68,353.87z"/>
	<path d="M346.49,403.41c0,0,10.6,51.83-58.6,66.55c-69.2,14.72-118.09-11.48-118.09-11.48l-5.89-50.94
		c0,0,40.01,26.61,123.17,16.79C347.16,415.82,346.49,403.41,346.49,403.41z"/>
	<path class="st10" d="M247.33,481.74c0,0,3.31-98.5-42.4-135.83c0,0-15.9-8.83-29.6-22.75c0,0-29.15,2.54-33.9,11.82
		c-6.4,11.26,5.63,60.85,5.85,62.83c0.19,1.71,2.01,44.57,2.52,56.55c0.09,2.12,1.15,4.08,2.89,5.31
		C160.21,464.95,184.82,478.07,247.33,481.74z"/>
	<path class="st10" d="M309.83,469.82c0,0,17.67-61.4,8.61-134.5c0,0,4.09-7.84,6.07-15.02c0,0,19.99-1.66,22.86,13.25
		c7.08,45.41,5.92,91.29,4.02,109.54c-0.55,5.31-3.33,10.14-7.67,13.24C335.96,461.88,322.61,469.82,309.83,469.82z"/>
	<path class="st11" d="M247.33,481.74l-15.83-1.18c0,0,9.28-88.79-26.58-134.65c0,0,22.9,16.56,32.32,59.56
		C246.66,448.47,247.33,481.74,247.33,481.74z"/>
	<path class="st11" d="M310.42,469.67c-0.09,0.43,4.71,0,12.81-2.21c8.1-2.21,16.49-123.68,13.4-123.09
		c-3.09,0.59-9.02,5.85-9.02,5.85s-0.33-13.25-4.75-25.29l-2.87,14.87C319.99,339.8,326.47,421.37,310.42,469.67z"/>
	<path class="st12" d="M309.83,469.82c0,0,15.24-65.6,8.61-134.5c0,0,1.77-2.21,4.42-10.38c0,0,2.65,10.82,2.87,24.74
		c0,0,9.94-9.72,11.71-6.4C339.2,346.58,318,468.71,318,468.71S314.03,470.26,309.83,469.82z"/>
	<path class="st12" d="M204.92,345.91c0,0,42.77,25.1,42.4,135.83l-11.26-0.88C236.06,480.86,245.49,387.22,204.92,345.91z"/>
	<path class="st11" d="M149.6,450.27c0,0,1.77,11.48,37.1,20.87s48.15-23.96,39.87-78.29c0,0-6.63-61.07-55.88-58.31
		s-17.12,71.01-17.12,71.01S151.47,434.15,149.6,450.27z"/>
	<path class="st13" d="M242.91,375.07c0,0,19.99,7.4,41.19,1.88c21.2-5.52,25.29-17.12,25.29-17.12s-2.76,14.8-24.52,19.66
		S242.91,375.07,242.91,375.07z"/>
	<path class="st14" d="M247.96,429.79c0,0,26.23,2.7,66.58-6.49c0.46-0.1,0.68,0.55,0.24,0.73
		C306.05,427.68,281.57,435.83,247.96,429.79z"/>
	<g>
		<path d="M217.08,351.84c-5.29-2.05-10.39-4.59-15.33-7.36c-2.41-1.81-4.99-3.36-7.69-4.66c-5.74-3.73-11.23-7.86-16.4-12.4
			c-0.01,0.01,1.37,0.26,1.3,0.27c0,0-0.7,0.3-0.7,0.3l-0.62-0.57l-3.53-3.27l1.12,0.41c-7.93,1.07-29.82,4.6-32.73,12.38
			c-1.75,5.5-1.16,12.21-0.73,18.08c0.56,6.26,1.49,12.53,2.56,18.77c1.08,6.25,2.32,12.47,3.66,18.68c0.44,2.26,1.24,5.09,1.2,7.37
			c0,0,0.12,2.39,0.12,2.39c0.42,8.81,1.93,43.91,2.23,50.97c0.06,0.72,0.01,1.63,0.27,2.33c0.38,1.45,1.66,2.45,2.88,3.19
			c16.23,9.87,35.42,13.79,53.98,16.95c7.55,1.25,15.18,2.07,22.8,2.85l1.78,2.37c0.01-0.06,0.02-0.12,0.03-0.18l-1.84-2.17
			c2.87,0.23,5.6,0.45,8.43,0.6l8.47,0.47l-1.99,1.3c1-2.93,1.17-6.26,1.08-9.35c5.76-0.05,11.55-0.12,17.26-0.49
			c10.04-0.67,20.21-2.14,29.84-4.95c5.83-1.71,11.54-4.37,17.11-6.99c-0.16,2.41-0.63,8.6-0.8,11.05c0,0-1.78-2.16-1.78-2.16
			c1.07,0.11,2.27,0.03,3.48-0.13c3.37-0.53,6.66-1.55,9.96-2.39c-0.08,0.01-0.17,0.06-0.22,0.08c-0.12,0.07-0.1,0.07-0.06,0.03
			l0.25-0.24l0.41-0.15c6.72-2.43,13.07-6.04,18.99-10.21c6.5-4.37,7.53-10.59,7.83-17.88c2.3-34.39,0.13-69.06-3.8-103.27
			c-1.33-9.95-12.75-13.36-21.53-13.03c0,0,0.51-0.42,0.51-0.42c-0.61,2.01-1.4,4-2.19,5.93c0,0-0.36-1.11-0.36-1.11l-0.06-0.19
			l0.8-0.02l-0.49,1.34l-0.12,0.33c-2.11-0.57-4.32-0.81-6.5-0.49c-2.06,0.29-4.11,0.97-5.88,2.12c3.45-2.53,8.06-3.32,12.23-2.45
			c0,0-0.45,0.25-0.45,0.25l0.4-1.35l0.35-1.17l0.45,1.15l0.08,0.2l-0.8,0c0.58-1.73,1.11-3.47,1.53-5.23
			c9.89-1,22.59,2.46,24.64,13.7c1.54,8.69,2.85,17.42,3.89,26.17c1.15,11.07,1.65,22.2,2.03,33.32c0.4,14.83,0.31,29.67-0.73,44.53
			c-0.33,3.87-0.37,7.84-1.92,11.49c-1.49,3.77-4.25,7.1-7.59,9.36c-6.16,4.33-12.76,8.1-19.96,10.71l0.65-0.39
			c-0.32,0.33-1.03,0.72-1.59,0.82c-5.57,1.38-10.54,3.3-16.56,2.38c0.11-1.04,0.58-8.29,0.69-9.55c0,0,2.84,1.94,2.84,1.94
			c-18.73,9.29-40.16,11.27-60.79,11.34c0,0,1.98-2.02,1.98-2.02c0.03,3.49-0.57,6.89-1.82,10.16l-1.51-0.08
			c-5.81-0.3-13.27-0.73-18.98-1.23c0,0,0.18-2.01,0.18-2.01c0.01-0.08,0.02-0.15,0.03-0.23l1.78,2.37
			c-7.7-0.79-15.4-1.62-23.06-2.88c-15.36-2.47-30.64-5.85-45.04-12.02c-3.59-1.59-7.14-3.34-10.51-5.54
			c-2.76-1.57-4.82-4.36-4.91-7.61c-0.32-7.5-1.81-42.22-2.28-52.04c-0.06-1.12-0.15-3.55-0.25-4.51c0,0-0.98-4.61-0.98-4.61
			c-2.87-14.41-9.66-44.5-5.32-57.8c4.07-10.95,26.1-12.74,36.23-13.76c0,0,0.67-0.05,0.67-0.05l0.45,0.47l3.28,3.37
			c0.01-0.01-1.38-0.27-1.3-0.28c0,0,0.75-0.28,0.75-0.28l0.56,0.54c4.83,4.7,10.04,9.05,15.52,13.03c2.26,1.21,5.27,3.17,7.47,5.1
			C206.83,346.5,212.05,349.54,217.08,351.84L217.08,351.84z"/>
	</g>
	<path d="M235.4,426.97c0,0,3.2,24.52,0.66,53.89l-5.41-0.66C230.65,480.2,235.18,466.5,235.4,426.97z"/>
	<polygon points="318,468.71 330.37,396.49 321.98,467.61 	"/>
	<path class="st12" d="M142.42,345.36c0,0-0.33-7.73,3.53-10.82c3.87-3.09,15.13-3.87,26.17-3.53
		C172.12,331.01,144.96,332.11,142.42,345.36z"/>
	<path class="st13" d="M257.05,422.55c0,0-3.75-21.64-8.83-33.79l28.49-8.83l31.58-7.51c0,0,1.99,24.74-3.09,45.72
		C305.19,418.14,274.93,424.1,257.05,422.55z"/>
	<path class="st15" d="M323.74,345.47l0.22,8.61c0,0,9.94-10.6,10.82-9.06c0.88,1.55-5.74,41.52-5.74,41.52l1.77-34.45l-8.39,6.4
		L323.74,345.47z"/>
	<path class="st15" d="M226.35,373.52c0,0,15.24,30.04,18.11,78.18C244.46,451.71,236.73,396.93,226.35,373.52z"/>
</g>
<g id="right-wing">
	<path class="st16" d="M217.29,438.68c0,0,3.46,24.96-21.64,35.78l-0.88-26.28c0,0-1.99,14.13-19.66,26.28
		c0,0-14.8-11.04-16.12-31.8l-4.64,25.18c0,0-20.98-2.87-18.55-34.45S214.42,420.12,217.29,438.68z"/>
	<path class="st5" d="M196.75,459.8c0,0,3.68-4.56,16.79-4.71l3.39-8.69l-21.06,0.74L196.75,459.8z"/>
	<path class="st5" d="M193.22,450.82l-4.12,7.51c0,0-13.1-5.45-23.26,2.8c0,0-7.36-12.37-5.15-20.61S193.22,450.82,193.22,450.82z"
		/>
	<path class="st5" d="M155.82,451.85c0,0-9.72-3.98-14.43,5.15c0,0-6.63-9.57-4.27-21.64l20.47,7.51L155.82,451.85z"/>
	<path class="st10" d="M125.19,430.72c0,0-8.17-28.49,14.8-45.94c0,0-3.31-49.47,31.8-47.71s46.82,26.94,50.58,55.44
		c2.97,22.57,1.93,46.1,1.37,54.91c-0.14,2.12-1.78,3.83-3.89,4.05C206.26,452.87,157.61,455.79,125.19,430.72z"/>
	<path class="st11" d="M168.94,416.53c-7.1-1.92-14.87-4.49-22.32-7.89c0,0-8.83,20.32,10.82,38.21c0,0-18.45-6.92-28.96-13.76
		c-2.21-1.44-3.69-3.74-4.11-6.34c-1.36-8.59-2.35-29.12,15.62-41.96c0,0-3.53-36.66,19.21-45.5c0,0-32.69,31.58,15.24,61.62
		c0,0,0.01,0.01,0.04,0.02C183.86,405.04,178.82,419.2,168.94,416.53z"/>
	<path class="st17" d="M148.6,412.84c0,0,29.6,14.8,71.56,11.48c0,0-9.72,11.71-1.55,24.52c0,0-24.74,3.98-53.23-3.09
		C165.39,445.74,184.82,434.04,148.6,412.84z"/>
	<path class="st17" d="M210.66,375.29c-3.07-16.79-13.79-28.53-32.69-32.69c-20.1-4.42-31.8,21.42-19.21,37.1
		c6.32,7.88,12.1,14,19.46,18.62c4.14,2.6,6.56,7.39,5.8,12.22c-0.41,2.62-1.63,4.83-4.5,6.71c0,0,23.19,5.52,35.34,2.43
		C214.86,419.68,215.97,395.52,210.66,375.29z"/>
	<g>
		<path class="st18" d="M222.37,392.52c2.75,16.5,4.02,33.33,3.14,50.05c-0.26,3.86,0.38,8.49-4.15,10.1
			c-0.82,0.31-1.98,0.37-2.83,0.45c-2.47,0.17-5.1,0.45-7.56,0.52c-29.99,1.2-62.11-3.13-86.69-21.73c0,0-0.4-0.31-0.4-0.31
			c-0.64-2.36-1.03-4.67-1.28-7.01c-1.84-15.51,3.68-31.57,16.49-41c0,0-0.59,1.29-0.59,1.29c-1-21.63,6.3-51.07,33.26-49.21
			c12.26,0.95,24.78,5.38,33.17,14.66c-9.46-8.67-22.3-12.14-34.83-11.8c-23.98-0.18-29.33,26.95-28.61,46.15
			c0,0,0.04,0.81,0.04,0.81l-0.63,0.48c-11.96,8.79-17.04,23.83-15.32,38.29c0.22,2.04,0.57,4.15,1.06,6.04l-0.52-0.77
			c25.28,19.04,58.86,22.8,89.67,20.8c1.05-0.13,3.6-0.2,4.58-0.5c1.04-0.35,1.81-1.37,1.88-2.46c0.1-1.62,0.2-3.3,0.27-4.95
			c0.18-3.32,0.22-6.64,0.29-9.96C223.47,419.16,223.47,405.8,222.37,392.52L222.37,392.52z"/>
	</g>
	<path class="st18" d="M129.17,395.9c0,0,19.58,24,72,24.59c0,0-50.8-5.15-68.02-30.18L129.17,395.9z"/>
</g>
<g id="eyes">
	<path class="st1" d="M160.31,300.42c0,0-31.36-35.78-36.22-108.22c-5.52-69.79,45.72-82.38,45.72-82.38s95.85-28.27,158.58,9.72
		c0,0,31.8,18.77,11.71,66.04c0,0,26.55,47.35-9.23,93.95c0,0,12.55-44.48-15.28-70.76c-19.89-18.78-63.16-18.44-86.98-17.97
		c-18.75,0.37-36.84,7.62-50.11,20.87C162.52,227.59,150.37,253.49,160.31,300.42z"/>
	<path class="st5" d="M160.31,300.42c0,0-23.6-37.58-17.67-91.88c5.74-52.56,34.67-12.81,42.63-75.09l23.63,12.15l17.01-15.24
		l22.75,13.03l17.67-12.37l18.11,12.59l16.56-9.28l12.81,14.13l13.47-4.2l5.3,13.25l8.17-2.87c0,0,4.93,13.69-3.24,32.47
		c0,0,16.05,28.49,9.87,57.64c0,0,8.39-25.84-6.4-59.41c0,0,17.01-35.12-7.73-61.84c-24.74-26.72-100.05-25.4-100.05-25.4
		s-77.74-3.31-102.26,35.34S134.03,269.06,160.31,300.42z"/>
	<path class="st5" d="M219.43,333.03c0,0-21.2-22.67-48.29-19.29c0,0-34.75-37.55-27.68-61.84c0,0,3.53,13.99,11.19,25.62
		C167.3,299.46,193.95,271.04,219.43,333.03z"/>
	<path class="st10" d="M160.31,300.42c0,0-41.96-32.69-41.96-108.66c0-113.74,57.42-89.01,57.42-89.89s83.48-36.88,109.99-4.86
		c0,0,98.5,4.86,54.33,88.56c0,0,5.96-18.11,3.09-37.1l-9.72,3.09l-1.55-13.03l-15.9,4.86c0,0-11.93-15.9-11.93-15.24
		c0,0.66-18.99,9.06-18.99,9.06l-15.9-14.36l-20.32,12.81l-21.87-13.91l-19.21,16.34l-30.26-14.8c0,0,4.64,38.43-22.31,44.83
		c0,0-24.96,3.53-17.45,69.79C142.86,287.39,160.31,300.42,160.31,300.42z"/>
	<path class="st5" d="M225.24,170.99c0,0-40.86-12.59-65.15,5.52c0,0-20.32,7.73-24.07,42.85l5.08,12.59c0,0-3.53-54.99,42.63-60.29
		C209.34,169.45,225.24,170.99,225.24,170.99z"/>
	<path class="st18" d="M145.07,178.28c8.39-15.24,39.98,0.22,34.01-52.12c0,0,19.44,6.18,30.04,16.34c0,0-1.99-18.33-38.65-28.27
		c0,0,7.95,28.93-10.38,46.16c0,0,8.39-15.24,3.31-32.47c0,0,0.88,18.33-17.67,32.25l5.96-22.75c0,0-28.27,18.77-25.62,81.06
		c0.66-0.88,5.08-5.3,5.08-5.3c-0.22,2.02,1.8,63.17,29.15,87.24C160.53,301.3,123.87,240.57,145.07,178.28z"/>
	<path class="st18" d="M204.04,96.34c0,0,25.84,22.75,31.58,45.5c0,0,1.99-24.74-24.07-42.4c0,0,50.36,13.91,73.55,37.77
		C285.09,137.2,266.1,85.96,204.04,96.34z"/>
	<path class="st18" d="M197.86,99.22c0,0,21.28,15.71,14.58,42.4C212.43,141.62,204.48,109.82,197.86,99.22z"/>
	<path class="st18" d="M244.01,83.98c0,0-33.13,4.42-66.92,22.31c0,0-40.2-14.36-55.44,45.28c0.22-0.88,5.74-60.52,49.25-53.23
		l-15.46-11.48c0,0,17.45,0.22,25.84,9.94l10.38-16.12l-0.22,12.15C191.45,92.81,210.66,82.87,244.01,83.98z"/>
	<path class="st18" d="M289.51,110.04c26.94,7.73,26.5,33.35,26.5,33.35L289.51,110.04z"/>
	<path class="st18" d="M311.82,110.48c0,0,18.33,20.98,21.64,41.08C333.46,151.56,343.84,130.58,311.82,110.48z"/>
	<path class="st10" d="M235.62,141.84c0.25,1.08-37.77-42.63-37.77-42.63s5.3-2.87,6.18-2.87
		C204.92,96.34,230.54,119.53,235.62,141.84z"/>
	<path class="st10" d="M168.26,112.47c-0.69-0.1,16.34,9.94,15.24,45.94C183.5,158.41,198.08,116.66,168.26,112.47z"/>
	<g>
		<path class="st18" d="M138.66,210.53c0.25-8.99,3.38-17.99,8.47-25.45c6.85-9.76,18.19-15.66,29.57-18.31
			c7.6-1.75,15.44-2.21,23.17-1.87c12.75,0.32,25.51,1.77,38.04,3.99c10.02,1.73,19.88,3.66,29.84,3.86
			c12.64,0.51,24.99-1.9,37.45-3.91c15.9-1.71,31.24,4.28,37.49,19.84c1.18,2.92,1.96,6.17,2.47,9.27
			c-2.84-9.52-9.09-18.02-18.41-21.72c-7.58-3.68-16.47-4.46-24.73-2.88c0,0-3.75,0.67-3.75,0.67c-10.04,1.85-20.31,3.01-30.64,2.73
			c-10.34-0.21-20.48-2.21-30.4-3.91c-9.95-1.74-19.9-3.05-29.95-3.61c-14.71-0.98-30.18-0.71-43.36,6.55
			C151.07,182.97,141.42,195.99,138.66,210.53L138.66,210.53z"/>
	</g>
	<path class="st5" d="M160.75,177.95c0,0-1.84,4.6,6.26,5.34c8.1,0.74,9.42-6.33,5.74-11.19
		C172.75,172.1,164.58,176.18,160.75,177.95z"/>
	<path class="st5" d="M207.9,169.34c0,0,1.88,5.52,1.99,8.72s-7.51,8.17-13.58,4.53c-6.07-3.64-6.29-13.58-5.96-13.58
		C190.68,169.01,202.27,168.23,207.9,169.34z"/>
	<path class="st5" d="M234.96,172.54c0,0-2.32,6.74,2.32,9.06c4.64,2.32,9.83,2.87,12.48-6.63
		C249.76,174.97,239.16,173.42,234.96,172.54z"/>
	<path class="st5" d="M272.62,176.63c0,0,0.44,7.84,4.86,9.06s8.83-0.11,9.39-3.2s-1.99-6.4-1.99-6.4S277.14,176.63,272.62,176.63z"
		/>
	<path class="st5" d="M310.27,172.65c0,0-3.87,8.5-1.1,11.93c2.76,3.42,9.61,3.98,11.48,1.55c1.88-2.43,0.22-11.93,0.22-11.93
		S314.69,172.1,310.27,172.65z"/>
	<path class="st5" d="M334.62,191.2c0.3,1.72-1.48,3.07-3.04,2.29c-1.5-0.75-3.19-1.95-4.31-3.83c-2.43-4.09,5.19-6.96,5.19-6.96
		S333.98,187.46,334.62,191.2z"/>
	<path class="st5" d="M204.81,160.72c0,0,2.32-7.62-4.75-9.06c-7.07-1.44-8.06,5.08-8.06,5.08s-1.1,5.52,6.07,6.74
		S204.81,160.72,204.81,160.72z"/>
	<path class="st5" d="M244.9,169.56c-0.33-0.11-6.63-1.44-5.19-7.07c1.44-5.63,11.15-3.75,11.93,0.99
		C252.41,168.23,247.88,170.55,244.9,169.56z"/>
	<path class="st5" d="M281.67,169.23c0,0,0.33-5.41-3.87-6.85c-4.2-1.44-7.73,1.77-6.85,4.53
		C271.84,169.67,275.82,172.65,281.67,169.23z"/>
	<path class="st5" d="M316.16,165.66c0,0-5.19,1.33-6.07-3.42c-0.88-4.75,1.77-5.19,4.2-5.19s8.5,0.88,7.51,7.4
		S316.16,165.66,316.16,165.66z"/>
	<path class="st19" d="M204.64,157.2c0.14,4.09,0.83,10.8,3.38,19.02c0.69,2.23-0.68,4.57-2.96,5.04l-2.98,0.62
		c-1.95,0.41-3.9-0.69-4.54-2.57c-1.39-4.1-3.34-11.85-2.8-21.92c0.1-1.88,1.55-3.42,3.41-3.68l2.01-0.27
		C202.47,153.11,204.56,154.86,204.64,157.2z"/>
	<path class="st19" d="M237.24,177.34c1.28-2.79,3.43-8.04,4.53-13.85c0.2-1.08,1.27-1.78,2.34-1.54l5.04,1.14
		c0.99,0.22,1.64,1.16,1.5,2.16c-0.44,3.18-1.68,10.01-4.67,15.16c-0.44,0.75-1.32,1.12-2.16,0.92l-5.27-1.3
		C237.37,179.74,236.73,178.45,237.24,177.34z"/>
	<path class="st19" d="M273.17,166.9c1.34,3.48,4.12,11.05,5.05,16.29c0.18,1.01,1.17,1.66,2.17,1.42l4.08-0.96
		c0.88-0.21,1.48-1.04,1.37-1.95c-0.41-3.37-1.75-11.44-5.7-17.36c-0.43-0.64-1.2-0.96-1.95-0.77l-3.77,0.96
		C273.36,164.8,272.78,165.9,273.17,166.9z"/>
	<path class="st19" d="M312.64,161.31c0.39,4.16,0.74,12.66-1.58,20.82c-0.32,1.12,0.37,2.27,1.5,2.53l5.15,1.16
		c1.06,0.24,2.11-0.38,2.41-1.43c1.03-3.67,2.99-12.45,1.7-22.73c-0.11-0.89-0.81-1.59-1.7-1.73l-5.13-0.81
		C313.68,158.91,312.52,159.99,312.64,161.31z"/>
	<path class="st19" d="M332.88,172.73c-0.23,3.47-1.27,10.56-4.28,15.27c0.18,3.57,5.34,5.23,5.34,5.23s6.63-6.3,6.18-20.05
		c-0.04-1.06-0.77-1.98-1.8-2.24l-2.19-0.55C334.55,170,332.99,171.11,332.88,172.73z"/>
	<path class="st19" d="M173.21,177.43c-0.89-3.2-1.76-8.61-0.46-15.49c0,0-3.39,4.2-10.01,6.33c0,0-0.67,5.96,1.22,11.49
		c0.48,1.4,1.89,2.26,3.36,2.05c0.89-0.13,2.03-0.3,3.42-0.53C172.54,180.98,173.7,179.19,173.21,177.43z"/>
	<path class="st18" d="M195.06,155.98c0,0-1.44,12.18,3.31,24.77C198.37,180.75,189.32,169.67,195.06,155.98z"/>
	<path class="st18" d="M242.14,162.6c0,0-1.44,9.5-5.19,16.01C236.95,178.61,235.73,171.55,242.14,162.6z"/>
	<path class="st18" d="M273.17,165.25c0,0,4.31,8.61,5.19,19.33C278.36,184.58,272.51,175.74,273.17,165.25z"/>
	<path class="st18" d="M313.03,159.84c0,0,2.98,12.7-2.1,23.41C310.93,183.25,308.73,170.66,313.03,159.84z"/>
	<path class="st18" d="M165.06,181.49c0,0-3.09-7.07-1.88-14.02l-2.87,0.99C160.31,168.45,160.64,179.28,165.06,181.49z"/>
	<path class="st18" d="M328.6,188c0,0,4.93-3.98,6.04-17.56c0,0-2.72,0.77-3.06,5.74C331.59,176.18,330.59,184.03,328.6,188z"/>
	<path class="st20" d="M196.53,159.18l0.33,10.05l2.1-2.1l2.54,1.66l2.65-2.32c0,0-1.1-9.5-1.1-9.17s-1.88,2.32-1.88,2.32
		l-2.32-1.99L196.53,159.18z"/>
	<polygon class="st20" points="243.24,164.15 245.6,166.84 249.43,166.47 247.7,172.87 245.12,169.85 241.18,171.29 	"/>
	<polygon class="st20" points="274.82,166.25 277.47,172.87 279.17,170.44 282,171.1 279.02,164.48 277.59,166.47 	"/>
	<path class="st20" d="M314.36,160.72c0,0,1.44,7.18,0.44,11.37l3.09-1.55l2.1,2.65c0,0,0.22-7.07,0.33-11.04l-2.65,1.33
		L314.36,160.72z"/>
	<polygon class="st20" points="334.46,179.06 335.56,173.31 337.22,175.96 338.98,174.75 338.32,181.15 336.55,178.61 	"/>
	<path class="st20" d="M167.16,168.68c0.33-0.11,3.09-2.32,3.09-2.32l-0.22,6.74L167.16,168.68z"/>
	<polygon class="st4" points="196.75,161.28 203.27,160.72 203.6,163.82 196.86,164.59 	"/>
	<polygon class="st4" points="242.65,166.1 248.87,168.23 248.32,170.55 241.99,168.49 	"/>
	<polygon class="st4" points="275.49,168.05 280.05,166.69 281.19,169.19 276.74,170.96 	"/>
	<polygon class="st4" points="314.95,164.85 320.28,165.33 320.06,169.82 315.2,168.9 	"/>
	<polygon class="st4" points="335.23,174.93 338.84,177.18 338.51,179.24 334.75,177.47 	"/>
	<path class="st21" d="M130.05,141.62c0,0,3.53-25.84,35.12-32.47c0,0,8.83,9.28,3.09,32.91c0,0,1.55-18.33-7.51-27.17
		C160.75,114.9,141.09,117.77,130.05,141.62z"/>
	<path class="st21" d="M177.98,108.27c0,0,24.74,0.22,29.6,23.41C207.57,131.68,197.19,114.68,177.98,108.27z"/>
	<path class="st21" d="M157.66,119.98c0,0,5.74,13.47-5.08,27.61C152.58,147.58,159.43,128.81,157.66,119.98z"/>
	<path class="st21" d="M223.11,105.84c0,0,17.52,12.07,25.77,26.5C248.87,132.34,249.17,112.32,223.11,105.84z"/>
	<path class="st21" d="M250.05,97.01c0,0,29.01,12.52,34.6,36.22c0,0,0.59-10.6-4.56-20.02l20.47,14.87c0,0-17.23-31.07-51.24-31.21
		"/>
	<path class="st21" d="M297.17,110.41c-0.43-0.12,20.17,9.13,19.88,27.68C317.05,138.09,327.35,118.65,297.17,110.41z"/>
	<path class="st21" d="M233.41,106.87c-0.44,0.01,16.79,5.01,25.62,16.79C259.03,123.66,257.41,106.58,233.41,106.87z"/>
	<path class="st21" d="M173.49,112.61c0,0,11.93,9.57,12.81,32.39C186.3,145.01,192.63,122.04,173.49,112.61z"/>
	<path class="st21" d="M207.79,104.37l17.82,20.47C225.61,124.84,216.92,108.34,207.79,104.37z"/>
	<path class="st21" d="M305.56,107.02c0,0,24,2.65,34.16,34.45C339.72,141.47,340.46,112.03,305.56,107.02z"/>
	<path class="st4" d="M259.7,100.98c0,0,15.9,7.07,21.87,20.98C281.56,121.96,279.79,106.28,259.7,100.98z"/>
	<path class="st4" d="M233.41,111.8c-0.56-0.35,9.28,9.5,12.37,15.02C245.78,126.82,242.25,117.33,233.41,111.8z"/>
	<path class="st4" d="M308.28,117.33c0,0,6.4,4.86,9.06,14.13C317.34,131.46,317.78,123.07,308.28,117.33z"/>
	<path class="st4" d="M178.2,117.77c0,0,7.07,10.16,7.29,24.07C185.49,141.84,186.59,125.72,178.2,117.77z"/>
	<path class="st4" d="M167.6,117.33c0,0,3.53,10.38,1.1,19.44L167.6,117.33z"/>
	<path class="st5" d="M341.05,238.36c2.29-2.16,2.5-7.63,2.06-10.75c-1.12-7.93-4.99-24.52-27.39-26.94
		c-21.35-1.91-31.95,11.19-51.83,8.25c-23.41-3.53-42.99-27.24-71.26-11.19c-18.65,10.59-25.06,27.83-27.26,38.35
		c-2.92,13.77,9.74,10.68,9.74,10.68l-10.16,18.4c0,0,80.54,12.66,99.83-18.99c23.26,25.33,70.82,13.25,70.82,13.25
		s-3.4-17.08-7.51-24.59C331.47,240.42,336.63,241.6,341.05,238.36z"/>
	<path class="st1" d="M247.4,255.88c0-15.02-1.88-43.64-23.85-44.76c-28.86-1.47-48.15,48.74-48.15,48.74
		S201.41,267.79,247.4,255.88z"/>
	<path class="st1" d="M277.73,252.2c0,0-2.21-36.81,16.93-42.7s32.39,28.56,35.78,46.97C330.44,256.47,306.3,262.65,277.73,252.2z"
		/>
	<path class="st5" d="M182.17,270.9c0,0,41.82-0.15,73.18-15.46C255.35,255.44,239.74,276.05,182.17,270.9z"/>
	<path class="st5" d="M275.38,251.61c0,0,4.27,8.39,47.71,13.84c0,0-44.32,1.77-53.45-16.79l2.65-2.8L275.38,251.61z"/>
	<path class="st22" d="M161.12,266.33c0,0,20.76-84.96,103.95-48.15c0,0,72.74-40.05,74.21,40.49c0,0-3.68,15.17-82.31,15.9
		C178.35,275.31,161.12,266.33,161.12,266.33z"/>
	<path class="st23" d="M225.02,334.65c0,0-11.63-25.62-31.66-29.01s-27.98-5.01-34.16-12.37c0,0,25.62,40.2,73.33,56.83
		L225.02,334.65z"/>
	<path class="st24" d="M174.37,259.85c0,0,52.27-31.21,73.18-3.09C247.55,256.76,216.92,270.16,174.37,259.85z"/>
	<path class="st24" d="M277.73,254.99c0,0,14.72-26.65,55.51,1.77C333.24,256.76,301,263.39,277.73,254.99z"/>
	<path class="st18" d="M235.45,247.33c-1.46,7.15-7.78,12.52-15.36,12.52c-7.57,0-13.88-5.36-15.36-12.49
		c-0.21-1.03,7.06-3.41,15.72-3.41C229.12,243.95,235.66,246.31,235.45,247.33z"/>
	<path class="st18" d="M312.29,246.15c-1.91,5.84-7.14,10.03-13.28,10.03c-5.82,0-10.82-3.76-12.96-9.13
		C285.34,245.26,300.41,239.24,312.29,246.15z"/>
	<path class="st18" d="M218.69,207.14c24.15-4.71,27.53,29.6,27.53,29.6c-1.33-7.21-9.13-28.42-27.98-24.74
		c-22.53,4.27-39.17,39.17-39.17,39.17S192.33,213.47,218.69,207.14z"/>
	<path class="st18" d="M277.73,242.18c0,0-0.15-30.48,20.91-33.72C298.64,208.47,283.62,212.88,277.73,242.18z"/>
	<path class="st18" d="M165.98,234.23c0,0,17.67-52.71,63.61-35.63c31.77,12.59,28.56,16.01,70.82,4.42
		c33.13-9.87,42.7,24.59,42.7,24.59c-0.55-6.92-6.63-33.75-33.94-30.66c-28.82,3.09-37.33,16.34-69.72,0.63
		C207.35,182.41,176.28,193.74,165.98,234.23z"/>
	<path class="st25" d="M165.84,215.41c-0.18,1.86,2.3,2.68,3.23,1.05c5.22-9.15,16.28-23.58,35.05-25.96
		c22.38-4.71,39.31,7.36,39.31,7.36s3.98-8.54-5.74-13.55s-6.33-8.54-6.33-8.54s-10.31-2.65-18.85-0.59c0,0,3.98,8.1-9.57,10.6
		c-13.55,2.5-15.02-8.54-15.02-8.54S169.02,182.17,165.84,215.41z"/>
	<path class="st25" d="M187.81,249.07c0,0,17.45-8.5,34.56-7.73c0,0,12.48-1.21,22.2,7.62c0,0-2.32-5.85-9.61-10.38
		c0,0,3.87-25.4-10.71-25.51C209.67,212.96,215.19,234.82,187.81,249.07z"/>
	<path class="st25" d="M285.43,241.78c0,0,9.5-6.96,9.5-21.87s12.48-9.83,16.45,0c4.53,8.39,2.87,15.24,13.91,27.06
		C325.29,246.97,306.3,232.61,285.43,241.78z"/>
	<path class="st25" d="M283.99,200.7c0,0,22.75-9.39,37.55-5.08c5.42,1.59,9.59,4.65,12.64,7.75c1.18,1.2,3.12-0.3,2.21-1.72
		c-2.86-4.44-7.44-9.01-14.74-11.23C305.19,186.01,283.99,200.7,283.99,200.7z"/>
	<path class="st25" d="M207.13,162.49c0,0,17.01,0.88,26.5,3.2c0,0,5.41-19.1-8.06-30.7l-15.35,13.47l-9.83-4.53
		c0,0-0.99,2.87,0.99,4.97S208.9,151.23,207.13,162.49z"/>
	<path class="st25" d="M341.05,200.66c0,0,17.37,31.07-1.62,60.96c0,0,3.83-5.15-1.47-8.1
		C337.95,253.52,354.74,239.83,341.05,200.66z"/>
	<path class="st25" d="M265.77,203.68c0,0-13.91-0.66-27.5-8.94s-34.16-4.23-34.16-4.23l17.93-7.14c0,0,11.26,1.99,16.56,6.63
		C243.9,194.63,251.63,200.04,265.77,203.68z"/>
	<path class="st25" d="M185.05,246.75c0,0,34.79-20.32,58.75-3.75C243.79,242.99,228.89,218.81,185.05,246.75z"/>
	<path class="st25" d="M280.68,240.12c0,0,10.05-9.5,24.85-7.4s20.65,11.04,20.65,11.04S311.82,227.42,280.68,240.12z"/>
	<path class="st25" d="M159.94,269.13c0,0,1.33,10.01,14.72,13.84s39.31-10.45,39.31-10.45s-19.29,2.06-40.2-1.91l22.23-1.33
		C196.01,269.28,166.27,266.48,159.94,269.13z"/>
	<path class="st25" d="M331.22,265.25c1.26-0.61,2.7,0.4,2.54,1.8c-0.37,3.2-2.16,7.74-9.05,9.3c-11.04,2.5-22.53-9.87-22.53-9.87
		S321.57,269.92,331.22,265.25z"/>
	<path class="st26" d="M323.38,305.94c0,0,6.77,2.65-0.76,13.72c-2.85,12.67-12.93,30.61-46.07,37.96
		c-53.74,11.93-70.82-23.12-70.82-23.12s-20.91-32.69-7.8-48.88s50.28,0.05,56.25-34.31c3.02-17.37,7.58-22.64,11.39-23.56
		c13.2-1.77,3.92,32.98,45.74,46.38c12.77,3.72,19.5,0.5,25.77,0.62c5.4,0.11,9.78,4.41,10.33,9.79
		C349.6,306.06,323.38,305.94,323.38,305.94z"/>
	<path class="st27" d="M337.66,290.77c0,0-9.13,27.39-69.35,25.03c-45.36-2.53-43.04-15.63-59.2-3.82c-1.7,1.24-4.06,1.05-5.51-0.47
		c-2.36-2.48-4.92-7.01-2.88-14.11c2-6.95,8-9.44,12.58-10.32c1.22-0.23,1.93,1.29,1,2.1c-2.01,1.76-3.89,4.64-3.81,9.25
		c0,0,12.79-3.55,27.48-0.74C273.9,306.38,315.13,310.5,337.66,290.77z"/>
	<path class="st27" d="M226.64,320.37c0,0,16.93,31.95,49.03,30.48c22.04-1.01,33.74-13.9,38.9-21.87c0.72-1.11-0.56-2.44-1.7-1.75
		c-4.14,2.52-11.63,5.72-23.59,5.95c-30.18-0.15-43.51-11.41-43.51-11.41s24.88,14.21,47.26,1.47c0,0,15.29,7.32,29.57-3.58
		c0,0-4.54,24.12-28.25,34.72c-31.07,12.81-55.21,1.33-55.21,1.33S224.87,342.31,226.64,320.37z"/>
	<path class="st27" d="M222.48,276.34c0,0-29.32-0.83-29.32,22.69c0.44,22.31,11.21,44.67,34.84,55.71s53.89,3.64,53.89,3.64
		l-43.73-9.94c0,0-40.8-3.53-40.03-50.69C198.24,279.99,222.48,276.34,222.48,276.34z"/>
	<path class="st27" d="M212.51,326.11c0,0,6.04,12.81,23.85,16.79l0.44,7.07C236.8,349.96,216.19,344.37,212.51,326.11z"/>
	<path class="st28" d="M220.16,291.07c0,0,6.63-6.48,37.84-1.18c31.21,5.3,63.31,6.92,86.72-11.19c0,0-1.47-6.33-15.31-3.53
		c-13.84,2.8-36.52-0.29-47.56-17.82s-9.28-26.36-14.87-25.33s-6.77,20.61-0.29,36.07C275.38,285.47,226.49,276.64,220.16,291.07z"
		/>
	<path class="st28" d="M243.28,315.36c0,0,25.47,7.36,56.83,1.03c0,0,12.22-1.91,21.2-6.92c0,0,2.36,9.87-9.72,12.07
		c-12.07,2.21-19.29-1.03-19.29-1.03S271.99,334.8,243.28,315.36z"/>
	<path class="st28" d="M237.39,329.06c0,0,7.36,18.4,36.66,19.29c26.5,1.33,39.9-20.17,39.9-20.17s-21.06,13.55-51.53,3.39
		C245.05,326.7,237.39,329.06,237.39,329.06z"/>
	<path class="st27" d="M347.38,288.27c0,0,1.47,17.96-26.36,17.67l5.45-5.15C326.47,300.79,343.55,302.7,347.38,288.27z"/>
	<path class="st18" d="M263.45,281.2c0,0,1.33,3.53,9.72,3.24c8.39-0.29,1.18-13.1-11.48-7.95c0,0,8.25-0.88,10.16,2.65
		C273.76,282.68,261.54,275.17,263.45,281.2z"/>
	<path class="st18" d="M254.62,325.82c0,0,22.36,5.6,39.75-4.27c0,0,5.74,5.74,21.35,2.06c0,0-7.36,5.6-22.23,4.27
		C293.49,327.88,272.73,334.21,254.62,325.82z"/>
	<path class="st18" d="M213.39,289.45c0,0-10.75,2.8-10.6,11.63c0.15,8.83,1.33,11.34,4.56,9.13c3.24-2.21,5.6-7.21,12.52-5.89
		c0,0-10.6-2.21-9.87-5.01S219.72,288.57,213.39,289.45z"/>
	<path class="st18" d="M208.53,308.44c0,0,4.42-7.21,22.82-1.62s42.85,9.87,92.02-0.88c0,0,16.2,1.47,22.38-10.6
		c0,0-8.25,9.87-23.41,7.36c0,0-37.4,14.87-88.93,1.47C233.41,304.17,213.98,297.25,208.53,308.44z"/>
	<g>
		<path class="st18" d="M254.28,251.09c-1.28,11.28-7.32,19.76-18.29,23.46c-7.43,2.64-15.14,3.32-22.65,5.14
			c-4.63,1.08-9.43,2.44-12.76,5.87c-8.61,9.27-4.11,23.71,0.09,34.24c1.94,4.62,4.26,9.19,6.86,13.4c1.08,2.04,2.58,4.17,4.11,6
			c11.01,13.4,28.78,19.19,45.76,18.65c13.51,1.27,27.73-1.07,39.81-7.3c10.43-5.67,18.23-15.59,22.17-26.72
			c0.61-1.73,1.14-3.51,1.48-5.19c1.51-2.2,2.87-4.71,3.15-7.05c0.28-2.05-0.5-4.05-2.22-5.07c0,0,0.95-3.8,0.95-3.8
			c11.2,0.15,24.41-4.4,22.82-17.94c-0.25-3.83-3.07-7.24-6.79-8.05c-4.41-0.65-8.56,0.83-13.2,0.93
			c-9.64,0.54-19.07-2.67-27.43-7.24c-11.06-6.3-18.87-17.3-22.71-29.2c-1.69-4.2-2.39-9.02-5.54-12.38
			c-1.08-1.04-2.65-1.48-4.18-1.3c1.53-0.3,3.19,0.01,4.43,1.01c3.53,3.13,4.72,8.05,6.68,12.13c2.41,5.61,5.36,10.94,9.31,15.41
			c6.9,7.83,16.45,12.85,26.27,16.02c7.33,2.3,14.46,1.67,22.05,0.56c12.85-1.56,18.2,11.05,13.71,21.77
			c-4.36,9.65-15.93,12.33-25.57,12.29c0,0,0.95-3.8,0.95-3.8c5.08,2.58,5.48,9.2,3.12,13.72c-0.64,1.4-1.41,2.69-2.24,3.92
			l0.31-0.75c-0.81,3.73-2.07,7.03-3.63,10.42c-5,10.78-13.58,19.97-24.38,25.09c-11.98,5.58-27.26,7.86-39.45,6.53
			c-18.05,0.57-36.98-5.83-48.68-20.09c-1.62-1.75-3.67-5.02-4.4-6.4c-2.79-4.54-5.13-9.16-7.18-14.01
			c-4.86-11.87-9.27-28,0.76-38.6c10.03-9.66,25.2-6.89,37.49-10.57C245.88,269.49,252.13,261.7,254.28,251.09L254.28,251.09z"/>
	</g>
	<path class="st29" d="M334.57,275.46c-0.59-0.15,29.89-33.57,6.4-90.11c0,0,46.01-77.6-55.21-88.34c0,0-19.51-27.09-94.31-4.2
		l0.22-12.15l-10.38,16.12c0,0-5.15-8.32-25.84-9.94l15.46,11.48c0,0-36.59-9.87-47.48,43.44c0,0-19.95,100.12,36,159.9"/>
	<path class="st18" d="M185.05,250.17c0,0,21.31-9.94,40.97-8.83c0,0,10.49,0,19.44,8.61c0,0-3.98-9.5-19.77-10.93
		C204.04,237.69,185.05,250.17,185.05,250.17z"/>
	<path class="st18" d="M281.12,245.09c0,0,17.67-16.01,47.37,3.98c0,0-11.04-11.93-28.27-12.37
		C286.86,236.92,281.12,245.09,281.12,245.09z"/>
	<path class="st30" d="M210.33,253.71c0,0,3.53,4.53,10.49,4.31c6.96-0.22,10.27-5.41,10.27-5.41S221.38,248.52,210.33,253.71z"/>
	<path class="st30" d="M290.84,250.39c0,0,3.04,4.18,9.01,3.98c5.98-0.2,8.82-4.99,8.82-4.99S300.33,245.6,290.84,250.39z"/>
	<circle class="st31" cx="221.1" cy="255.09" r="3.26"/>
	<circle class="st31" cx="299.45" cy="251.72" r="2.98"/>
	<path class="st31" d="M239.01,287.83c0,0,19.88,2.8,40.34,5.15c20.47,2.36,45.06-1.91,57.87-12.96c0,0-16.2,9.57-37.69,10.75
		C270.22,291.95,270.37,287.68,239.01,287.83z"/>
	<path class="st31" d="M268.26,239.5c0.64,13.33,6.48,43.39,45.59,49.51c0,0-42.91-0.93-48.58-40.24c0,0-0.71-4.75,0.28-9.48
		C265.88,237.71,268.19,237.89,268.26,239.5z"/>
	<path class="st31" d="M261.39,318.9c0,0,6.18,5.74,15.75,5.01s18.4-5.6,18.4-5.6s5.3,3.83,13.55,2.36
		c8.25-1.47,9.28-9.28,9.28-9.28S306.59,320.81,261.39,318.9z"/>
	<path class="st31" d="M198.81,297.84c-0.68-0.07,2.36-13.69,23.56-12.96c0,0-4.56-4.86-13.4-2.94
		C198.08,284.74,198.81,297.84,198.81,297.84z"/>
	<circle class="st4" cx="206.47" cy="284.74" r="2.06"/>
	<path class="st4" d="M308.06,316.98l6.92-1.77C314.98,315.22,314.39,318.16,308.06,316.98z"/>
	<path class="st4" d="M270.66,258.82c0,0-4.12-10.75-3.98-22.53C266.69,236.3,261.68,248.52,270.66,258.82z"/>
	<path class="st4" d="M226.64,217.01c0,0-0.44,15.75,5.3,19.14c0,0-9.57-2.65-21.35,1.47c0,0,9.87-4.27,10.9-8.1
		s0.44-13.4,0.44-13.4S223.84,213.91,226.64,217.01z"/>
	<path class="st4" d="M299.23,214.36c0,0,2.21,13.84,1.91,15.31c-0.29,1.47-8.69,6.18-8.69,6.18s8.1-3.09,21.2,0.88
		c0,0-6.92-5.01-7.66-7.51c-0.74-2.5-2.94-15.61-2.94-15.61S300.85,212.15,299.23,214.36z"/>
	<path class="st4" d="M163.33,271.04c0,0,1.47,6.92,12.52,7.51c0,0-7.51-1.03-7.8-8.25C168.04,270.31,164.51,270.31,163.33,271.04z"
		/>
	<path class="st4" d="M209.27,187.56c-0.41,0.22,15.31-3.98,28.56,4.71C237.83,192.27,229,176.96,209.27,187.56z"/>
</g>
<g id="beak">
</g>
<g id="on-head">
</g>
<g id="eyebrows">
</g>
</svg>
