<svg version="1.1" xmlns="http://www.w3.org/2000/svg" xmlns:xlink="http://www.w3.org/1999/xlink" x="0px" y="0px"
	 viewBox="0 0 510.24 595.28" style="enable-background:new 0 0 510.24 595.28;" xml:space="preserve">
<g id="tail">
	<path class="st0" d="M190.42,447.42c0,0-34.76,7.84-53.04-22.55c-7.75-10.69-6.45-21.24-6.45-21.24s2.88-1.07,7.61-1.2
		c-7.84-17.68,1.71-31.86,1.71-31.86s30.63,8.67,49.57,31.47S190.42,447.42,190.42,447.42z"/>
	<path class="st1" d="M164.74,445.58c0,0-19.76-6.28-30.47-28.98c0,0,15.61,0.41,12.17-42.33l14.35,5.4
		C160.79,379.67,181.29,435.13,164.74,445.58z"/>
</g>
<g id="body">
	<g>
		<path class="st2" d="M271.96,323.04c0,0,44.99,0.34,63.6,60.2c18.61,59.86-26.94,87.8-68.6,87.8c-24.15,0-65.05,4.13-90.33-13.67
			c-18.72-13.17-24.28-42.32-15.67-64C185.75,331.01,221.57,323.04,271.96,323.04z"/>
		<g>
			<g>
				<path class="st3" d="M271.96,323.04c2.1,0.61,3.77,1.28,5.54,1.87c1.77,0.61,3.62,1.2,5.99,1.92c0.65,0.19,1.6,0.51,2.78,0.92
					c0.59,0.2,1.23,0.46,1.91,0.72l0.62,0.24l1.19,0.51c0.8,0.33,1.59,0.69,2.38,1.08c0.8,0.37,1.58,0.77,2.37,1.19
					c0.79,0.41,1.58,0.84,2.35,1.31c3.12,1.82,6.18,3.95,9.11,6.37c5.83,4.88,11.15,10.93,15.59,17.85
					c4.42,6.93,8.1,14.64,10.87,22.81c2.79,8.15,4.89,16.69,5.37,25.37c0.28,4.33,0.06,8.67-0.48,12.95
					c-0.6,4.27-1.72,8.43-3.24,12.41c-3.04,7.98-8.22,14.9-14.32,20.42c-6.2,5.44-13.29,9.55-20.53,12.37
					c-3.61,1.46-7.27,2.56-10.88,3.44c-3.61,0.92-7.21,1.49-10.7,1.94c-3.5,0.41-6.92,0.62-10.22,0.65
					c-3.35,0.03-6.62,0.07-9.71,0.14c-12.39,0.33-22.52,0.4-29.55,0.07c-3.52-0.16-6.26-0.35-8.12-0.51
					c-1.86-0.15-2.84-0.27-2.84-0.27s-0.99-0.08-2.83-0.32c-1.85-0.21-4.57-0.59-8-1.22c-3.44-0.64-7.6-1.56-12.24-3.08
					c-4.64-1.51-9.76-3.65-14.84-6.87c-0.62-0.42-1.26-0.84-1.9-1.26c-0.59-0.47-1.2-0.94-1.8-1.42c-0.59-0.5-1.25-0.92-1.8-1.49
					c-0.56-0.55-1.13-1.11-1.71-1.68l-0.87-0.85l-0.78-0.95c-0.52-0.63-1.05-1.27-1.59-1.91c-0.53-0.64-0.96-1.38-1.45-2.07
					c-0.46-0.72-1-1.39-1.41-2.16c-0.81-1.53-1.77-3.02-2.43-4.69c-0.36-0.82-0.73-1.64-1.1-2.47c-0.3-0.86-0.61-1.72-0.91-2.59
					l-0.46-1.31c-0.13-0.44-0.24-0.9-0.37-1.35c-0.24-0.9-0.48-1.81-0.73-2.72c-0.21-0.92-0.36-1.86-0.55-2.8
					c-0.18-0.94-0.37-1.88-0.45-2.84c-0.11-0.96-0.22-1.92-0.33-2.89c-0.09-0.97-0.09-1.95-0.15-2.94
					c-0.15-1.97,0.02-3.96,0.05-5.96c0.07-1,0.2-2,0.3-3l0.16-1.51l0.27-1.5c0.19-1,0.34-2.01,0.56-3.01
					c0.26-0.99,0.52-1.98,0.78-2.97c0.22-1.01,0.61-1.96,0.94-2.94c0.35-0.97,0.64-1.95,1.08-2.93c0.83-1.96,1.6-3.96,2.49-5.91
					c0.9-1.95,1.73-3.94,2.71-5.87c0.48-0.97,0.95-1.94,1.43-2.92c0.48-0.97,1.01-1.92,1.52-2.88c2.01-3.85,4.3-7.57,6.69-11.23
					c2.45-3.61,5.09-7.1,7.95-10.39c2.9-3.25,5.99-6.32,9.31-9.1c3.33-2.76,6.88-5.21,10.58-7.35c7.39-4.32,15.46-7.11,23.47-9
					c4.02-0.91,8.04-1.6,12.02-2.13c1.99-0.22,3.96-0.49,5.93-0.65c0.98-0.09,1.96-0.17,2.93-0.26c0.82-0.06,1.63-0.11,2.43-0.17
					c3.33-0.22,6.08-0.33,7.45-0.38C264.84,324.7,267.71,324.13,271.96,323.04c-4.26-1.03-7.17-1.61-12.3-1.46
					c-1.39,0.03-4.17,0.14-7.55,0.36c-0.82,0.06-1.64,0.11-2.47,0.17c-0.99,0.09-1.98,0.17-2.98,0.26c-2,0.16-4.02,0.43-6.05,0.66
					c-4.06,0.54-8.19,1.25-12.34,2.19c-8.26,1.95-16.66,4.85-24.38,9.36c-3.86,2.23-7.58,4.79-11.05,7.68
					c-3.45,2.9-6.68,6.09-9.68,9.46c-2.96,3.41-5.69,7.01-8.21,10.73c-2.46,3.75-4.81,7.58-6.86,11.51
					c-0.52,0.98-1.06,1.95-1.55,2.94c-0.49,0.99-0.97,1.99-1.46,2.97c-1,1.97-1.85,3.99-2.76,5.98c-0.91,1.99-1.69,4.02-2.53,6.01
					c-0.44,0.98-0.76,2.05-1.14,3.08c-0.35,1.04-0.76,2.06-1,3.13c-0.28,1.06-0.55,2.11-0.82,3.16c-0.22,1.06-0.39,2.13-0.59,3.18
					l-0.28,1.58l-0.17,1.59c-0.1,1.06-0.23,2.12-0.31,3.17c-0.04,2.11-0.21,4.21-0.05,6.29c0.05,1.04,0.06,2.07,0.16,3.1
					c0.12,1.02,0.23,2.04,0.35,3.05c0.09,1.02,0.29,2.01,0.48,3c0.19,0.99,0.36,1.98,0.58,2.95c0.26,0.96,0.52,1.92,0.77,2.88
					c0.13,0.48,0.25,0.95,0.39,1.42l0.49,1.39c0.33,0.92,0.65,1.84,0.97,2.74c0.39,0.88,0.78,1.76,1.17,2.63
					c0.71,1.77,1.73,3.37,2.6,5c3.75,6.42,9,11.42,14.37,14.88c5.39,3.42,10.77,5.66,15.6,7.23c4.83,1.58,9.13,2.53,12.66,3.18
					c3.54,0.64,6.32,1.03,8.21,1.25c1.89,0.24,2.9,0.32,2.9,0.32s1,0.12,2.9,0.27c1.9,0.16,4.69,0.36,8.26,0.52
					c7.14,0.34,17.4,0.27,29.77-0.06c3.1-0.07,6.3-0.11,9.66-0.14c3.42-0.03,6.96-0.24,10.58-0.67c3.62-0.47,7.35-1.05,11.09-2.01
					c3.75-0.92,7.56-2.06,11.32-3.58c7.54-2.93,14.98-7.23,21.53-12.98c6.45-5.83,11.97-13.2,15.2-21.69
					c1.63-4.22,2.81-8.65,3.44-13.16c0.57-4.51,0.79-9.08,0.5-13.61c-0.51-9.07-2.69-17.91-5.55-26.27
					c-2.84-8.38-6.63-16.33-11.22-23.52c-4.61-7.18-10.15-13.49-16.27-18.61c-3.08-2.53-6.28-4.77-9.56-6.68
					c-0.81-0.49-1.64-0.95-2.47-1.38c-0.82-0.45-1.65-0.87-2.49-1.26c-0.83-0.41-1.66-0.79-2.5-1.14c-0.42-0.18-0.83-0.36-1.25-0.53
					l-0.65-0.25c-0.73-0.27-1.39-0.55-2.02-0.76c-1.25-0.43-2.26-0.76-2.94-0.95c-2.51-0.74-4.55-1.06-6.51-1.14
					C275.99,322.46,274.12,322.59,271.96,323.04z"/>
			</g>
		</g>
	</g>
	<path class="st4" d="M175.96,366.37c10.33-17.33,32.33-19.33,47.67-13l-25.33-13.67C198.29,339.71,182.29,350.04,175.96,366.37z"/>
	<path class="st4" d="M160.96,393.37c0,0-15,40.33,14.67,62.67c0,0,14,15.67,63,15.67l34.33-1c0,0,42-1,60-32.67
		c0,0-14.67,20-93.67,20S159.96,409.71,160.96,393.37z"/>
	<g>
		<g>
			<g>
				<path class="st3" d="M271.96,323.04c2.1,0.61,3.77,1.28,5.54,1.87c1.77,0.61,3.62,1.2,5.99,1.92c0.65,0.19,1.6,0.51,2.78,0.92
					c0.59,0.2,1.23,0.46,1.91,0.72l0.62,0.24l1.19,0.51c0.8,0.33,1.59,0.69,2.38,1.08c0.8,0.37,1.58,0.77,2.37,1.19
					c0.79,0.41,1.58,0.84,2.35,1.31c3.12,1.82,6.18,3.95,9.11,6.37c5.83,4.88,11.15,10.93,15.59,17.85
					c4.42,6.93,8.1,14.64,10.87,22.81c2.79,8.15,4.89,16.69,5.37,25.37c0.28,4.33,0.06,8.67-0.48,12.95
					c-0.6,4.27-1.72,8.43-3.24,12.41c-3.04,7.98-8.22,14.9-14.32,20.42c-6.2,5.44-13.29,9.55-20.53,12.37
					c-3.61,1.46-7.27,2.56-10.88,3.44c-3.61,0.92-7.21,1.49-10.7,1.94c-3.5,0.41-6.92,0.62-10.22,0.65
					c-3.35,0.03-6.62,0.07-9.71,0.14c-12.39,0.33-22.52,0.4-29.55,0.07c-3.52-0.16-6.26-0.35-8.12-0.51
					c-1.86-0.15-2.84-0.27-2.84-0.27s-0.99-0.08-2.83-0.32c-1.85-0.21-4.57-0.59-8-1.22c-3.44-0.64-7.6-1.56-12.24-3.08
					c-4.64-1.51-9.76-3.65-14.84-6.87c-0.62-0.42-1.26-0.84-1.9-1.26c-0.59-0.47-1.2-0.94-1.8-1.42c-0.59-0.5-1.25-0.92-1.8-1.49
					c-0.56-0.55-1.13-1.11-1.71-1.68l-0.87-0.85l-0.78-0.95c-0.52-0.63-1.05-1.27-1.59-1.91c-0.53-0.64-0.96-1.38-1.45-2.07
					c-0.46-0.72-1-1.39-1.41-2.16c-0.81-1.53-1.77-3.02-2.43-4.69c-0.36-0.82-0.73-1.64-1.1-2.47c-0.3-0.86-0.61-1.72-0.91-2.59
					l-0.46-1.31c-0.13-0.44-0.24-0.9-0.37-1.35c-0.24-0.9-0.48-1.81-0.73-2.72c-0.21-0.92-0.36-1.86-0.55-2.8
					c-0.18-0.94-0.37-1.88-0.45-2.84c-0.11-0.96-0.22-1.92-0.33-2.89c-0.09-0.97-0.09-1.95-0.15-2.94
					c-0.15-1.97,0.02-3.96,0.05-5.96c0.07-1,0.2-2,0.3-3l0.16-1.51l0.27-1.5c0.19-1,0.34-2.01,0.56-3.01
					c0.26-0.99,0.52-1.98,0.78-2.97c0.22-1.01,0.61-1.96,0.94-2.94c0.35-0.97,0.64-1.95,1.08-2.93c0.83-1.96,1.6-3.96,2.49-5.91
					c0.9-1.95,1.73-3.94,2.71-5.87c0.48-0.97,0.95-1.94,1.43-2.92c0.48-0.97,1.01-1.92,1.52-2.88c2.01-3.85,4.3-7.57,6.69-11.23
					c2.45-3.61,5.09-7.1,7.95-10.39c2.9-3.25,5.99-6.32,9.31-9.1c3.33-2.76,6.88-5.21,10.58-7.35c7.39-4.32,15.46-7.11,23.47-9
					c4.02-0.91,8.04-1.6,12.02-2.13c1.99-0.22,3.96-0.49,5.93-0.65c0.98-0.09,1.96-0.17,2.93-0.26c0.82-0.06,1.63-0.11,2.43-0.17
					c3.33-0.22,6.08-0.33,7.45-0.38C264.84,324.7,267.71,324.13,271.96,323.04c-4.26-1.03-7.17-1.61-12.3-1.46
					c-1.39,0.03-4.17,0.14-7.55,0.36c-0.82,0.06-1.64,0.11-2.47,0.17c-0.99,0.09-1.98,0.17-2.98,0.26c-2,0.16-4.02,0.43-6.05,0.66
					c-4.06,0.54-8.19,1.25-12.34,2.19c-8.26,1.95-16.66,4.85-24.38,9.36c-3.86,2.23-7.58,4.79-11.05,7.68
					c-3.45,2.9-6.68,6.09-9.68,9.46c-2.96,3.41-5.69,7.01-8.21,10.73c-2.46,3.75-4.81,7.58-6.86,11.51
					c-0.52,0.98-1.06,1.95-1.55,2.94c-0.49,0.99-0.97,1.99-1.46,2.97c-1,1.97-1.85,3.99-2.76,5.98c-0.91,1.99-1.69,4.02-2.53,6.01
					c-0.44,0.98-0.76,2.05-1.14,3.08c-0.35,1.04-0.76,2.06-1,3.13c-0.28,1.06-0.55,2.11-0.82,3.16c-0.22,1.06-0.39,2.13-0.59,3.18
					l-0.28,1.58l-0.17,1.59c-0.1,1.06-0.23,2.12-0.31,3.17c-0.04,2.11-0.21,4.21-0.05,6.29c0.05,1.04,0.06,2.07,0.16,3.1
					c0.12,1.02,0.23,2.04,0.35,3.05c0.09,1.02,0.29,2.01,0.48,3c0.19,0.99,0.36,1.98,0.58,2.95c0.26,0.96,0.52,1.92,0.77,2.88
					c0.13,0.48,0.25,0.95,0.39,1.42l0.49,1.39c0.33,0.92,0.65,1.84,0.97,2.74c0.39,0.88,0.78,1.76,1.17,2.63
					c0.71,1.77,1.73,3.37,2.6,5c3.75,6.42,9,11.42,14.37,14.88c5.39,3.42,10.77,5.66,15.6,7.23c4.83,1.58,9.13,2.53,12.66,3.18
					c3.54,0.64,6.32,1.03,8.21,1.25c1.89,0.24,2.9,0.32,2.9,0.32s1,0.12,2.9,0.27c1.9,0.16,4.69,0.36,8.26,0.52
					c7.14,0.34,17.4,0.27,29.77-0.06c3.1-0.07,6.3-0.11,9.66-0.14c3.42-0.03,6.96-0.24,10.58-0.67c3.62-0.47,7.35-1.05,11.09-2.01
					c3.75-0.92,7.56-2.06,11.32-3.58c7.54-2.93,14.98-7.23,21.53-12.98c6.45-5.83,11.97-13.2,15.2-21.69
					c1.63-4.22,2.81-8.65,3.44-13.16c0.57-4.51,0.79-9.08,0.5-13.61c-0.51-9.07-2.69-17.91-5.55-26.27
					c-2.84-8.38-6.63-16.33-11.22-23.52c-4.61-7.18-10.15-13.49-16.27-18.61c-3.08-2.53-6.28-4.77-9.56-6.68
					c-0.81-0.49-1.64-0.95-2.47-1.38c-0.82-0.45-1.65-0.87-2.49-1.26c-0.83-0.41-1.66-0.79-2.5-1.14c-0.42-0.18-0.83-0.36-1.25-0.53
					l-0.65-0.25c-0.73-0.27-1.39-0.55-2.02-0.76c-1.25-0.43-2.26-0.76-2.94-0.95c-2.51-0.74-4.55-1.06-6.51-1.14
					C275.99,322.46,274.12,322.59,271.96,323.04z"/>
			</g>
		</g>
	</g>
</g>
<g id="head">
	<path class="st2" d="M336.29,257.67c0,52.92-64.45,99.85-96.33,99.85s-96.33-46.93-96.33-99.85s43.13-95.82,96.33-95.82
		S336.29,204.75,336.29,257.67z"/>
	<path class="st4" d="M217.63,350.37c0,0-49-32.67-60-66c-9.67-30.33-9.67-54.67,11.33-92.33c0,0-32,32.67-22.33,80
		C156.29,319.37,208.29,347.71,217.63,350.37z"/>
	<g>
		<g>
			<g>
				<path class="st3" d="M229,354.55c-0.96-0.54-1.84-1.03-2.69-1.47c-0.84-0.46-1.65-0.93-2.49-1.34c-0.85-0.4-1.7-0.86-2.64-1.29
					c-0.95-0.42-1.97-0.87-3.12-1.38c-0.62-0.28-1.57-0.64-2.71-1.19c-0.57-0.27-1.2-0.56-1.87-0.88l-0.61-0.28l-1.17-0.59
					c-0.78-0.4-1.57-0.8-2.36-1.2c-1.55-0.88-3.16-1.7-4.72-2.66c-3.18-1.83-6.31-3.94-9.49-6.13
					c-12.56-8.93-25.03-20.67-34.71-35.01c-2.38-3.6-4.6-7.34-6.57-11.23c-1.91-3.91-3.64-7.93-4.99-12.07
					c-1.31-4.16-2.35-8.4-2.95-12.7c-0.55-4.31-0.73-8.61-0.53-12.95c0.72-17.33,6.38-33.9,15-46.96
					c4.23-6.59,9.16-12.32,14.3-17.18c5.14-4.87,10.49-8.87,15.69-12.05c5.21-3.19,10.26-5.57,14.82-7.37
					c2.27-0.95,4.46-1.61,6.46-2.3c2.04-0.57,3.89-1.15,5.59-1.54c1.71-0.37,3.21-0.79,4.55-1c1.33-0.24,2.46-0.44,3.38-0.6
					c1.84-0.27,2.82-0.37,2.82-0.37s0.24-0.03,0.72-0.09c0.48-0.05,1.18-0.18,2.1-0.24c0.93-0.07,2.07-0.16,3.42-0.26
					c1.35-0.12,2.91-0.1,4.65-0.16c1.75-0.06,3.69,0.06,5.8,0.09c1.05,0.08,2.15,0.16,3.29,0.24c0.57,0.04,1.15,0.09,1.74,0.14
					c0.59,0.07,1.19,0.15,1.8,0.23c4.87,0.58,10.36,1.61,16.2,3.4c11.67,3.49,24.78,10.21,36.35,20.79
					c11.56,10.53,21.31,25.07,26.39,41.66c1.25,4.15,2.25,8.39,2.95,12.7c0.63,4.32,1.12,8.68,1.14,13.05l0.04,1.64
					c0,0.54-0.04,1.08-0.06,1.63l-0.14,3.25c0,1.09-0.22,2.15-0.34,3.23l-0.41,3.22l-0.67,3.17c-0.25,1.05-0.39,2.13-0.73,3.15
					l-0.91,3.1l-0.45,1.55l-0.56,1.51c-2.89,8.09-6.97,15.62-11.66,22.44c-2.33,3.42-4.85,6.65-7.44,9.71l-0.96,1.16l-1,1.11
					c-0.67,0.74-1.33,1.47-2,2.2c-0.65,0.74-1.32,1.45-2.02,2.14c-0.57,0.58-1.15,1.16-1.71,1.73c-1.15,1.2-2.26,2.23-3.19,3.09
					c-0.93,0.87-1.67,1.57-2.17,2.03c-1.88,1.68-3.29,3.06-4.54,4.5c-1.29,1.38-2.43,2.8-3.78,4.54c1.99-0.9,3.66-1.7,5.33-2.67
					c1.62-1.03,3.27-2.21,5.21-3.91c0.51-0.47,1.28-1.19,2.23-2.07c0.96-0.88,2.09-1.93,3.28-3.16c0.58-0.59,1.17-1.18,1.75-1.77
					c0.71-0.7,1.4-1.43,2.07-2.19c0.68-0.75,1.36-1.5,2.05-2.25l1.03-1.14l0.98-1.19c2.66-3.15,5.24-6.46,7.64-9.98
					c4.82-7.02,9.05-14.79,12.05-23.22l0.58-1.57l0.48-1.61l0.95-3.24c0.36-1.07,0.51-2.2,0.77-3.3l0.7-3.32l0.44-3.38
					c0.12-1.13,0.35-2.25,0.35-3.39l0.15-3.42c0.02-0.57,0.06-1.14,0.06-1.71l-0.04-1.7c-0.02-4.53-0.53-9.05-1.18-13.52
					c-0.73-4.46-1.76-8.86-3.05-13.16c-5.27-17.19-15.37-32.23-27.33-43.13c-11.98-10.96-25.55-17.9-37.64-21.52
					c-6.04-1.86-11.73-2.92-16.77-3.52c-0.63-0.08-1.25-0.16-1.86-0.23c-0.61-0.05-1.21-0.1-1.8-0.14
					c-1.18-0.09-2.32-0.17-3.41-0.25c-2.19-0.03-4.19-0.16-6-0.1c-1.81,0.06-3.42,0.04-4.81,0.17c-1.4,0.11-2.58,0.2-3.54,0.27
					c-0.96,0.06-1.69,0.2-2.18,0.25c-0.49,0.06-0.74,0.09-0.74,0.09s-1.01,0.11-2.92,0.39c-0.95,0.17-2.12,0.38-3.49,0.62
					c-1.38,0.22-2.94,0.65-4.71,1.03c-1.76,0.4-3.68,1-5.79,1.59c-2.07,0.71-4.34,1.4-6.69,2.38c-4.73,1.85-9.96,4.32-15.35,7.62
					c-5.39,3.3-10.93,7.43-16.25,12.47c-5.32,5.03-10.42,10.96-14.81,17.78c-8.92,13.51-14.79,30.69-15.54,48.63
					c-0.21,4.46-0.03,9.04,0.55,13.55c0.63,4.51,1.71,8.94,3.08,13.28c1.41,4.32,3.2,8.49,5.18,12.54
					c2.04,4.02,4.33,7.88,6.78,11.59c9.97,14.76,22.7,26.74,35.55,35.88c3.25,2.24,6.46,4.4,9.73,6.28c1.6,0.99,3.26,1.83,4.85,2.73
					c0.82,0.42,1.62,0.83,2.43,1.24l1.2,0.61l0.62,0.29c0.69,0.32,1.34,0.62,1.93,0.9c1.17,0.57,2.16,0.94,2.81,1.22
					C221.58,354.08,224.62,354.5,229,354.55z"/>
			</g>
		</g>
	</g>
</g>
<g id="accessory">
	<path class="st5" d="M140.34,445.82c0,0,13.99-19.29,18.4-47.12s-1.03-44.91,12.22-48.74c3.82-1.1,17.62-2.34,35.32-3.55
		c34.77,14.15,69.66,7.37,83.19-4.5c16.53-0.76,27.99-1.23,27.99-1.23s10.75,0.88,9.42,20.02c0,0,21.5,30.18,18.11,86.87
		c0,0-18.1,20.51-64.2,24C234.13,475.12,172,475.85,140.34,445.82z"/>
	<path class="st6" d="M273.59,380.3c0,0,10.45,30.48,1.33,69.06c0,0,5.74,7.66,3.53,22.82l9.72-1.03c0,0-6.48-28.27-6.33-28.71
		c0.15-0.44,11.34-19.29-1.62-61.1l-1.91,1.18L273.59,380.3z"/>
	<path class="st5" d="M171.26,369.69l-37.1-46.09c0,0-5.01-9.87,24.74-18.11c0,0,25.91,34.75,58.45,44.61s54.63,1.18,54.63,1.18
		s28.86-12.07,45.94-42.11c0,0,18.11-1.03,18.4,2.8c0.29,3.83-10.31,51.83-58.01,70.09c0,0-68.61-25.91-81.87-26.8
		C183.19,354.38,171.26,369.69,171.26,369.69z"/>
	<path class="st7" d="M159.92,307.26c0,0-21.64,4.12-24,14.58c-0.88,8.69,73.62,33.72,115.14,35.93s84.52-42.26,82.16-44.61
		s-17.08-1.77-17.08-1.77s-21.79,28.42-38.72,36.96c-6.86,3.46-14.26,6.78-25.93,5.65C237.37,353.06,205.71,360.57,159.92,307.26z"
		/>
	<path class="st7" d="M304.36,338.77c0,0,5.45,29.23-26.21,42.63c0,0,19.73-7.73,18.55-36.74L304.36,338.77z"/>
	<path class="st6" d="M232.07,386.33c0,0-11.19-26.94-38.8-32.69c-27.61-5.74-32.02,23.19-32.02,23.19s-1.77-19.66,6.18-26.28
		C175.38,343.93,214.77,341.5,232.07,386.33z"/>
	<path class="st6" d="M260.49,405.77c0,0-0.74,34.9-17.96,66.85l-19.88,0.74C222.65,473.35,253.71,441.25,260.49,405.77z"/>
	<path class="st6" d="M311.65,362.92c0,0,24.52,38.65,13.25,98.5l-13.47,4.86C311.43,466.28,329.54,424.32,311.65,362.92z"/>
	<path class="st8" d="M313.05,396.79c0,0,7.36,16.79-8.69,27.24c0,0,4.71,13.25-6.04,20.47c-10.75,7.21-28.71,6.77-34.45-0.44
		c0,0-15.9,8.69-27.68-4.56c-11.78-13.25-1.47-25.33,1.62-28.12c0,0-7.21-11.93,3.98-24.15c11.19-12.22,27.53-1.33,32.1,4.86
		c0,0,10.31-8.39,21.35,0.44c7.36,7.21,4.86,14.43,4.86,14.43S308.34,403.56,313.05,396.79z"/>
	<path class="st7" d="M281.39,381.47c0,0,14.72,28.12,2.8,62.13c0,0,7.8,11.34,7.51,27.24l-6.92,0.88c0,0,0.44-14.72-6.04-27.39
		c0,0,11.63-21.94-0.44-61.84L281.39,381.47z"/>
	<path class="st7" d="M311.65,401.02c0,0,5.08,10.93-10.6,21.64c0,0,2.76,12.48-11.15,19.1c-13.91,6.63-25.73-3.31-25.73-3.31
		s-12.81,7.73-23.41-4.2c-10.6-11.93,0.88-18.99,0.88-18.99s0.33,2.65,11.71,1.66c0,0-19.33-9.28-7.84-24.85s28.49,5.63,28.49,5.63
		s8.72-7.84,16.79-2.76c8.06,5.08,4.2,17.45,4.2,17.45S306.9,413.06,311.65,401.02z"/>
	<path class="st6" d="M336.32,311.98c0,0-6.33,46.82-58.01,70.53c0,0,36.52-13.55,54.92-69.35c0,0-2.65-3.53-15.31-3.98
		C317.91,309.18,334.55,308.74,336.32,311.98z"/>
	<path class="st9" d="M260.49,405.77c0,0-0.74,34.9-17.96,66.85l-19.88,0.74C222.65,473.35,253.71,441.25,260.49,405.77z"/>
	<path class="st6" d="M325.64,341.94c0,0,7.8,3.17,1.84,17.89c0,0,22.16,24.44,17.52,87.75l-4.64,4.79c0,0,3.98-64.27-17.23-89.23
		c0,0,9.2-10.53-0.15-17.23L325.64,341.94z"/>
	<path class="st5" d="M159.04,443.31c0,0-25.4,5.52-15.68-25.18s18.33-56.76,36.66-64.05c18.33-7.29,43.73,17.45,41.52,51.46
		S183.11,451.49,159.04,443.31z"/>
	<path class="st6" d="M140.93,432.05c0,0-3.98-12.81,21.87-64.49c0,0,11.48-22.09,32.25-14.13c0,0-23.63-1.77-34.45,31.58
		c0,0,1.38-16.36,34.9-23.41c0,0-31.14,9.28-40.64,41.3c0,0,16.79-15.68,41.52-10.6c0,0-35.12,3.53-41.52,37.1
		S140.93,432.05,140.93,432.05z"/>
	<path class="st6" d="M234.79,370.87c0,0,29.6,13.69,43.51,13.69c13.91,0,52.42-29.89,58.01-72.59c0,0-12.07,42.55-54.26,63.53
		C263.28,381.03,234.79,370.87,234.79,370.87z"/>
</g>
<g id="right-wing">
</g>
<g id="eyes">
</g>
<g id="beak">
	
		<ellipse transform="matrix(0.9101 -0.4143 0.4143 0.9101 -104.9487 108.2764)" class="st4" cx="197.12" cy="296.06" rx="9.13" ry="7"/>
	
		<ellipse transform="matrix(0.9101 -0.4143 0.4143 0.9101 -112.5059 111.7993)" class="st4" cx="201.46" cy="315.25" rx="9.13" ry="7.53"/>
	<path class="st2" d="M327.92,285.47c0,0-33.87,65.67-78.77,68.32c0,0-18.4,1.91-34.6-14.28C197.54,322.5,270.2,275.9,327.92,285.47
		z"/>
	
		<ellipse transform="matrix(0.9101 -0.4143 0.4143 0.9101 -118.0218 118.3045)" class="st4" cx="213.7" cy="331.21" rx="9.78" ry="7.95"/>
	<path class="st4" d="M307.6,316.54c0,0-13.55,25.62-43.73,35.93c-27.39,9.87-47.12-31.8-38.72-40.64
		c8.39-8.83,25.18,0.88,26.06-22.82c0.88-23.71,15.9,20.91,31.66,23.26S307.6,316.54,307.6,316.54z"/>
	<path d="M330.28,288.42c0,0-38.5,73.25-80.02,65.45c0,0,37.69,0.44,75.61-63.83l4.56-9.42L330.28,288.42z"/>
	<g>
		<circle class="st10" cx="294.05" cy="328.88" r="6.63"/>
		<circle class="st11" cx="296.55" cy="329.18" r="6.11"/>
		<path d="M296.62,335.79l-4.22-0.46c0,0-4.17-1.24-4.96-5.56l2.66,0.36C290.1,330.14,290.89,334.56,296.62,335.79z"/>
		<polygon points="287.95,326.13 291.03,326.59 292.17,325.34 288.99,324.78 		"/>
		<path class="st12" d="M291.5,329.04c0,0-0.27-3.28,3.21-4.9c3.48-1.62,6.62,1.7,6.98,3.21c0,0-2.56-3.48-5.89-2.64
			S291.5,329.04,291.5,329.04z"/>
		<path class="st13" d="M292.65,331.64c0,0,1.88,2.91,4.59,2.59c3.38-0.58,4.47-4.07,4.47-4.07S297.34,334.33,292.65,331.64z"/>
		<polygon class="st14" points="290.34,324.04 292.95,324.56 294.92,323.51 292.11,323.1 		"/>
	</g>
	<circle class="st10" cx="312.17" cy="291.95" r="6.63"/>
	<circle class="st10" cx="307.46" cy="311.39" r="6.63"/>
	<circle class="st10" cx="215.87" cy="330.09" r="6.63"/>
	<circle class="st10" cx="203.36" cy="314.04" r="6.63"/>
	<circle class="st10" cx="198.5" cy="294.6" r="6.63"/>
	<path class="st15" d="M279.48,337.01c0,0-7.66,10.45-15.02,10.45s-37.99-12.52-35.04-29.6c2.94-17.08,16.05-0.29,20.17-25.03
		c4.12-24.74,14.72-27.09,17.37-19.73c2.65,7.36,3.09,31.07,15.46,33.13c12.37,2.06,32.69,3.39,8.1,20.02
		C290.52,326.26,291.41,335.24,279.48,337.01z"/>
	<path class="st16" d="M259.9,336.27c0,0,25.47,0.74,25.33-8.69l5.3-1.33c0,0,1.33,8.54-11.04,10.75c0,0-7.36,10.9-15.02,10.45
		s-24.74-7.95-32.25-18.11s-0.88-19.29,1.62-20.17c2.5-0.88,14.13-0.88,15.31-14.72c0,0,0.81-12.99,6.85-20.65
		c0,0-3.02,9.61-3.75,25.8s-17.67,10.01-18.11,19.44C233.69,328.47,242.38,336.27,259.9,336.27z"/>
	<path class="st16" d="M241.17,332.3c0,0-5.27-5.15-0.43-8.69c4.84-3.53,5.56,1.03,5.56,1.03s25.22,2.94,36.9,0.44
		c11.68-2.5,18.24-6.48,18.95-10.9c0,0-2.56,13.55-21.23,14.43c-18.67,0.88-38.19-0.59-38.19-0.59L241.17,332.3z"/>
	<path class="st15" d="M248.41,334.36c0,0,10.6,8.54,16.79,9.13s8.83-5.15,8.83-5.15S255.48,338.33,248.41,334.36z"/>
	<path class="st17" d="M251.65,319.78c0,0,25.47,3.24,36.81-2.21c11.34-5.45-10.6-9.57-10.6-9.57s-9.42-6.77-12.81-30.33
		c0,0-0.88-5.3-3.53-2.94c-2.65,2.36-1.18,24.74,1.47,36.66C262.99,311.39,259.75,317.72,251.65,319.78z"/>
	<g>
		<path d="M254.56,276.46c1.81-4.53,7.2-10.96,12.02-5.97c2.1,2.49,2.47,5.86,3.31,8.81c0.93,3.85,1.4,7.77,2.5,11.55
			c1.72,5.98,4.26,13.32,11.2,14.05c5.21,1.07,18.87,1.65,19.95,8.27c0.55,5.98-7.97,11.22-12.17,14.33c0,0,0.65-1.39,0.65-1.39
			c0.18,3.39-1.29,6.6-3.79,8.82c-2.39,2.08-5.47,3.06-8.53,3.56c0,0,0.99-0.6,0.99-0.6c-4.29,5.26-9.96,11.46-17.38,10.99
			c-13.07-2.03-38.6-15.27-35.18-31.24c0.63-2.48,1.42-4.94,3.18-6.88c2.29-2.49,5.96-2.59,8.91-3.27c1.8-0.4,3.49-1.29,4.83-2.65
			c-2.19,3.27-6.63,3.83-9.92,5.16c-3.25,1.46-4.22,5.24-4.47,8.73c-0.14,3.46,0.85,6.82,2.88,9.66
			c4.16,5.92,10.69,10.03,17.17,13.19c3.33,1.59,6.81,2.95,10.32,3.84c1.66,0.38,3.28,0.75,4.93,0.35
			c5.27-1.37,9.37-5.93,12.67-10.12c4.53-0.66,9.3-2.58,10.26-7.56c0.19-0.92,0.14-1.75,0.08-2.59c3.35-2.44,11.58-7.57,11.59-11.89
			c-1.03-3.7-10.8-4.56-14.5-5.29c-1.94-0.33-4.25-0.51-6.16-1.25c-6.23-2.55-8.78-9.65-10.41-15.44c-0.99-3.9-1.91-7.84-2.43-11.81
			c-0.48-2.77-0.47-5.78-1.96-8.13C261.59,267.33,256.52,273.24,254.56,276.46L254.56,276.46z"/>
	</g>
	<g>
		<path d="M243.32,325.84c5.46-0.79,10.88-0.75,16.36-0.61c5.44,0.04,10.89,0,16.31-0.21c5.29-0.35,10.81-0.27,15.82-2.1
			c4.81-2.11,8.84-5.94,10.96-10.84c-2.73,13.87-15.04,14.43-26.71,14.87c-5.47,0.22-10.94,0.25-16.4,0.21l-8.19-0.1
			C248.75,326.78,246.03,326.36,243.32,325.84L243.32,325.84z"/>
	</g>
	<path d="M241.86,328.58c0,0-2.65-3.75,3.2-4.86L241.86,328.58z"/>
	
		<ellipse transform="matrix(0.9993 -0.0376 0.0376 0.9993 -11.6926 10.2438)" class="st18" cx="266.42" cy="315.9" rx="3.16" ry="2.94"/>
	<g>
		<circle class="st10" cx="263.73" cy="272.52" r="6.63"/>
		<circle class="st19" cx="265.71" cy="270.97" r="6.11"/>
		<path d="M270.43,275.61l-3.31,2.65c0,0-3.83,2.06-7.44-0.44l2.13-1.62C261.81,276.2,265.49,278.77,270.43,275.61z"/>
		<polygon points="257.47,274.87 259.97,273.03 259.9,271.34 257.25,273.18 		"/>
		<path class="st20" d="M262.03,274.43c0,0-2.5-2.13-1.18-5.74s5.89-3.46,7.21-2.65c0,0-4.27-0.66-6.04,2.28
			S262.03,274.43,262.03,274.43z"/>
		<path class="st13" d="M264.68,275.46c0,0,3.39,0.74,5.08-1.4c1.99-2.8,0.29-6.04,0.29-6.04S269.91,274.06,264.68,275.46z"/>
		<polygon class="st14" points="257.69,271.71 259.9,270.23 260.56,268.1 258.28,269.79 		"/>
	</g>
	<g>
		<circle class="st10" cx="197.91" cy="294.31" r="6.63"/>
		<circle class="st19" cx="195.92" cy="292.76" r="6.11"/>
		<path d="M191.21,297.4l3.31,2.65c0,0,3.83,2.06,7.44-0.44l-2.13-1.62C199.82,297.99,196.14,300.57,191.21,297.4z"/>
		<polygon points="204.17,296.66 201.66,294.82 201.74,293.13 204.39,294.97 		"/>
		<path class="st20" d="M199.6,296.22c0,0,2.5-2.13,1.18-5.74c-1.33-3.61-5.89-3.46-7.21-2.65c0,0,4.27-0.66,6.04,2.28
			C201.37,293.06,199.6,296.22,199.6,296.22z"/>
		<path class="st13" d="M196.95,297.25c0,0-3.39,0.74-5.08-1.4c-1.99-2.8-0.29-6.04-0.29-6.04S191.73,295.85,196.95,297.25z"/>
		<polygon class="st14" points="203.95,293.5 201.74,292.03 201.08,289.89 203.36,291.58 		"/>
	</g>
	<g>
		<circle class="st10" cx="202.33" cy="313.74" r="6.63"/>
		<circle class="st19" cx="199.89" cy="313.12" r="6.11"/>
		<path d="M197.42,319.26l4.1,1.1c0,0,4.33,0.36,6.64-3.38l-2.6-0.63C205.55,316.35,203.21,320.19,197.42,319.26z"/>
		<polygon points="209,313.4 205.97,312.71 205.36,311.13 208.53,311.76 		"/>
		<path class="st20" d="M204.64,314.82c0,0,1.44-2.96-1.22-5.73c-2.66-2.78-6.78-0.82-7.67,0.46c0,0,3.65-2.32,6.45-0.32
			C205,311.21,204.64,314.82,204.64,314.82z"/>
		<path class="st13" d="M202.63,316.82c0,0-2.81,2.03-5.22,0.75c-2.94-1.77-2.68-5.42-2.68-5.42S197.28,317.63,202.63,316.82z"/>
		<polygon class="st14" points="207.54,310.59 204.92,310.12 203.46,308.43 206.23,309.07 		"/>
	</g>
	<g>
		<circle class="st10" cx="215.14" cy="329.92" r="6.63"/>
		<circle class="st19" cx="212.64" cy="330.18" r="6.11"/>
		<path d="M212.46,336.79l4.22-0.39c0,0,4.19-1.17,5.05-5.47l-2.66,0.31C219.08,331.24,218.21,335.65,212.46,336.79z"/>
		<polygon points="221.29,327.28 218.21,327.68 217.09,326.41 220.27,325.9 		"/>
		<path class="st20" d="M217.69,330.12c0,0,0.32-3.27-3.13-4.95c-3.46-1.68-6.64,1.59-7.04,3.09c0,0,2.62-3.44,5.93-2.54
			C216.77,326.62,217.69,330.12,217.69,330.12z"/>
		<path class="st13" d="M216.5,332.7c0,0-1.93,2.88-4.63,2.51c-3.37-0.64-4.4-4.15-4.4-4.15S211.76,335.32,216.5,332.7z"/>
		<polygon class="st14" points="218.93,325.15 216.32,325.62 214.36,324.54 217.18,324.18 		"/>
	</g>
	<g>
		<circle class="st10" cx="313.05" cy="291.5" r="6.63"/>
		<circle class="st19" cx="315.07" cy="289.98" r="6.11"/>
		<path d="M319.7,294.7l-3.36,2.59c0,0-3.86,2-7.43-0.57l2.16-1.58C311.08,295.14,314.71,297.78,319.7,294.7z"/>
		<polygon points="306.76,293.75 309.29,291.95 309.24,290.25 306.56,292.05 		"/>
		<path class="st21" d="M311.33,293.38c0,0-2.47-2.18-1.08-5.76s5.95-3.36,7.26-2.53c0,0-4.26-0.73-6.07,2.18
			C309.61,290.19,311.33,293.38,311.33,293.38z"/>
		<path class="st13" d="M313.96,294.46c0,0,3.37,0.79,5.1-1.31c2.03-2.76,0.39-6.03,0.39-6.03S319.21,293.14,313.96,294.46z"/>
		<polygon class="st14" points="307.03,290.59 309.26,289.15 309.96,287.03 307.65,288.68 		"/>
	</g>
	<g>
		<circle class="st10" cx="308.46" cy="310.86" r="6.63"/>
		<circle class="st11" cx="310.91" cy="310.27" r="6.11"/>
		<path d="M313.27,316.45l-4.11,1.04c0,0-4.34,0.29-6.58-3.49l2.61-0.59C305.19,313.41,307.47,317.28,313.27,316.45z"/>
		<polygon points="301.79,310.4 304.83,309.77 305.47,308.19 302.29,308.77 		"/>
		<path class="st21" d="M306.12,311.89c0,0-1.39-2.98,1.31-5.71c2.7-2.73,6.79-0.7,7.66,0.58c0,0-3.61-2.38-6.44-0.43
			C305.83,308.28,306.12,311.89,306.12,311.89z"/>
		<path class="st13" d="M308.11,313.93c0,0,2.78,2.08,5.2,0.84c2.97-1.72,2.77-5.37,2.77-5.37S313.44,314.83,308.11,313.93z"/>
		<polygon class="st14" points="303.3,307.61 305.92,307.19 307.41,305.52 304.63,306.12 		"/>
	</g>
</g>
<g id="on-head">
	<path class="st4" d="M329.1,281.79c0,0,4.71-37.55-14.28-65.96c0,0-48.44,12.81-125.45,4.27c0,0-14.13,19.29-11.04,55.8
		s-2.94,40.2-2.94,40.2s-26.8-21.35-27.09-73.03s25.77-73.47,27.68-75.83c1.91-2.36,132.37-4.56,132.37-4.56s26.5,62.28,26.21,95.71
		C334.55,258.38,333.66,272.07,329.1,281.79z"/>
	<path class="st22" d="M169.69,212.26c0,0,75.55,12.99,157.25-4.5c0,0-16.14-59.9-68.12-66.6
		C206.83,134.47,169.69,212.26,169.69,212.26z"/>
	<path class="st23" d="M180.09,203.46c0,0,84.22,7.36,133.69-5.15c0,0-3.53-39.61-38.43-55.51S185.54,158.99,180.09,203.46z"/>
	<path class="st24" d="M230.16,204.34c0,0-5.89-1.77,2.06-15.31c7.95-13.55,18.99-33.57,18.99-33.57s-16.64-0.44-33.13,2.94
		s-31.07,44.17-31.07,44.17s23.85,1.33,43.73,1.33"/>
	<path class="st25" d="M152.12,328.61c0,0-32.69-24.15-36.81-75.24l5.15-43.29l14.13-1.33l19.73,85.1l6.33,7.36l4.56,11.78
		l9.28,10.6c-11.17-3.05-22.67-9.28-27.98-20.32L152.12,328.61z"/>
	<path class="st25" d="M311.65,329.57c0,0,28.71-25.4,31.14-78.18l-5.63,9.83c0,0,1.44,21.31-20.21,48.26L311.65,329.57z"/>
	<path d="M241.53,217.15l-4.53,0.55c0,0-9.72-16.79-6.63-40.75s14.25-6.96,14.69-6.4C245.51,171.1,241.53,217.15,241.53,217.15z"/>
	<path d="M195.26,215.28c0,0-4.53-15.35-1.99-28.6l9.28-4.2c0,0-8.94,17.67-4.53,33.13L195.26,215.28z"/>
	<path d="M276.54,191.64c0.33,0,12.04,9.61,22.09,21.53l6.07-1.21c0,0-16.34-32.25-30.59-38.65
		C259.86,166.91,276.54,191.64,276.54,191.64z"/>
	<path class="st26" d="M205.42,179.31c0,0-40.05,36.22-30.92,93.94c6.18,65.96-5.89,73.03-5.89,73.03s-1.18-23.56-11.78-46.82
		c0,0,4.71,20.61,5.59,35.04c-10.01-29.74-44.71-47-40.34-96c0,0-5.89,45.06,11.19,74.21c0,0-33.28-29.74-26.21-106.01
		c7.07-76.27,58.6-100.42,96.59-104.25c37.99-3.83,101.01,7.95,131.93,79.8s3.83,152.54,3.83,152.54s8.25-104.83-38.28-150.77
		c0,0,17.37,23.85,8.83,50.94c0,0-5.3-17.67-12.07-25.91c-6.77-8.25-15.61-15.61-22.09-29.74c0,0,7.95,16.49,2.94,68.32
		c0,0-9.13-28.56-11.48-45.64c0,0,1.77,43.58,12.66,66.55c0,0-57.13-33.57-40.64-93.06c0,0-28.86,26.8-33.87,59.48
		C205.42,234.97,188.34,208.76,205.42,179.31z"/>
	<path class="st25" d="M156.83,299.46c0,0-20.02-58.9-9.28-98.5c10.75-39.61,43.58-69.94,43.58-69.94s-37.99,41.52-38.58,89.67
		s20.61,99.39,16.05,125.6C168.61,346.28,166.11,323.31,156.83,299.46z"/>
	<path class="st25" d="M174.06,123.95c0,0-64.64,34.6-52.86,131.04c0,0,1.77,19.73,20.47,45.5c0,0-20.32-30.63-15.75-83.78
		S174.06,123.95,174.06,123.95z"/>
	<path class="st25" d="M205.42,234.97c0,0-23.12-31.66,9.72-68.61C215.14,166.36,193.79,198.75,205.42,234.97z"/>
	<path class="st25" d="M239.73,171.07c0,0-9.57,26.36,0.88,52.27c10.45,25.91,38.72,45.2,38.72,45.2S230.3,227.17,239.73,171.07z"/>
	<path class="st25" d="M300.54,184.17c0,0,18.7,10.6,33.72,49.91c14.27,37.35,5.15,100.71,5.15,100.71S345.89,227.61,300.54,184.17z
		"/>
	<path class="st25" d="M163.24,190.21c2.71-18.04,11.44-34.74,25.21-46.69c9.05-7.86,20.98-14.78,36.18-17.36
		c42.85-7.29,74.65,15.46,74.65,15.46s-23.19-31.36-71.12-38.65s-99.61,20.76-112.42,66.48c0,0-17.23,64.71,19.88,71.56
		C152.7,242.85,160.24,210.21,163.24,190.21z"/>
	<path class="st26" d="M154.18,175.41c0,0-17.67,41.3-7.51,80.39l-9.28,5.3C137.39,261.1,129,220.25,154.18,175.41z"/>
	<path class="st26" d="M125.47,187.78c0,0-9.06,48.15-4.42,77.74l-7.95-16.34C113.1,249.18,112,215.83,125.47,187.78z"/>
	<g>
		<path d="M205.42,234.97c-10.21-16.81-10.53-38.97-0.5-55.95c0,0,0.89,0.72,0.89,0.72c-21.8,22.05-33.86,53.98-30.9,84.94
			c0.19,2.55,0.64,5.65,1.02,8.18c0.99,10.11,1.68,20.42,1.8,30.56c0,11.63-0.17,23.46-3.27,34.79c-0.71,2.28-1.56,4.66-2.81,6.74
			c-0.73,1.01-1.09,1.77-2.29,2.62c0,0-2.08,1.44-2.08,1.44c-0.26-4.84-0.8-9.7-1.61-14.53c-1.97-11.83-5.29-23.46-10.21-34.41
			c0,0,2.83-0.96,2.83-0.96c1.3,5.82,2.43,11.64,3.42,17.51c1.63,9.07,2.45,19.89,2.96,29.17c0,0-3.67-10.83-3.67-10.83
			c-5.81-16.79-19.07-29.57-28.13-44.74c-9.73-15.29-14.14-33.81-12.29-51.87c0,0,2.98,0.33,2.98,0.33
			c-0.71,6.18-0.96,12.53-0.95,18.81c0.05,12.55,1.38,25.16,4.77,37.25c2.38,9,7.54,17.98,12.13,26.01c0,0-7.24-6.95-7.24-6.95
			c-3.51-3.4-6.2-7.13-8.78-11.14c-15.8-25.13-19.89-55.83-18.63-84.99c0.69-15.35,2.77-31.06,7.85-45.61
			c7.8-23.63,23.93-44.67,45.76-56.92c43.44-24.6,101.73-17.91,139.96,13.62c61.79,52.33,63.11,147.11,38.63,218.6
			c2.01-23.91,1.99-48.35-1.05-72.17c-2.47-19.64-6.41-39.3-14.15-57.58c-5.09-12.15-12.02-23.62-21.27-33.07
			c0,0,1.17-1.01,1.17-1.01c7.11,10.83,11.12,23.66,11.01,36.61c-0.1,1.65-0.23,3.41-0.36,5.03c-0.26,1.25-0.57,3.79-0.84,4.97
			c-0.22,0.94-1.07,3.86-1.32,4.87c0,0-0.26,0.97-0.26,0.97s-0.3-0.98-0.3-0.98c-2.89-9.04-6.07-18.31-11.79-26
			c5.9,7.59,9.27,16.81,12.35,25.83c0,0-0.56,0-0.56,0c0.19-0.94,1-3.89,1.2-4.83c2.21-11.41,0.42-23.36-4.1-34.01
			c-1.72-4.04-3.8-8-6.28-11.56c0,0,1.17-1.01,1.17-1.01c9.58,9.45,16.84,21.01,22.23,33.28c15.9,36.92,18.91,78.39,17,118.16
			c0,0-2.92-0.6-2.92-0.6c3.62-11.57,6.11-23.64,7.93-35.64c11.47-70.31-8.34-156.96-80.55-186.04
			c-44.35-18.04-102.09-10.58-132.75,28.61c-14.22,17.87-21.42,40.42-23.76,62.93c-3.11,31.43-0.9,65.02,14.82,93.04
			c2.9,5.11,6.44,10.3,10.59,14.39c0,0-2.29,1.88-2.29,1.88c-9.55-16.97-12.2-36.76-12.36-55.95c-0.01-6.41,0.24-12.78,0.98-19.21
			l2.98,0.33c-0.35,4.37-0.46,8.74-0.22,13.1c1.07,23.42,13.78,40.62,27.33,58.68c5.2,7.23,10.21,14.91,13.16,23.6
			c0,0-2.92,0.57-2.92,0.57c-0.84-11.67-3.08-23.36-5.56-34.8c0,0,2.83-0.96,2.83-0.96c5.03,11.19,8.43,23.07,10.44,35.16
			c0.67,4.04,1.2,8.05,1.47,12.21c0,0-2.26-1.22-2.26-1.22c-0.01,0-0.03,0.01-0.03,0.01s0.08-0.07,0.08-0.07l0.16-0.15
			c2.03-2.37,3.06-5.72,3.86-8.71c2.68-10.63,2.83-21.67,2.8-32.61c-0.18-9.99-0.88-20.3-1.7-30.24
			c-3.5-23.11,0.85-47.19,12.05-67.65c5.93-11.03,13.59-21.12,22.94-29.51c-3.21,5.25-6.17,10.82-7.82,16.77
			C196.17,206.81,198.21,222.36,205.42,234.97L205.42,234.97z"/>
	</g>
	<path d="M123.59,276.57c0,0,4.09,24.52,23.96,44.5l-2.43-16.23l3.75,3.98l3.98,21.09c0,0-17.56-12.26-26.72-34.67
		C126.13,295.23,122.16,282.64,123.59,276.57z"/>
	<path d="M166.11,151.67c0,0-18.99,40.42-18.66,74.32s7.18,65.71,14.13,81.61l-2.87,6.18c0,0-16.34-54.55-15.24-87.9
		C146.23,177.95,166.11,151.67,166.11,151.67z"/>
	<path d="M141.7,163.71c0,0-22.42,63.06-18,92.98l-3.87-0.88C119.84,255.8,118.18,208.32,141.7,163.71z"/>
	<path class="st25" d="M149.54,68.07c0,0,9.72,18.55,44.17,23.63l-13.03,12.81C180.68,104.52,151.31,102.53,149.54,68.07z"/>
	<path class="st25" d="M259.75,60.12c0,0-7.51,18.77-30.26,27.61s15.24,10.6,15.24,10.6S267.92,87.73,259.75,60.12z"/>
	<path class="st26" d="M127.01,69.84c0,0,0.44,53.45,77.74,51.9c0,0,26.5,11.71,41.3-3.31c0,0,43.29-10.16,43.51-53.01
		c0,0-24.07,20.32-46.16,21.87c0,0-14.8-15.02-28.49-0.22c0,0-7.51-4.2-17.67-2.43c-10.16,1.77-13.03,8.39-13.03,8.39
		S148.66,95.68,127.01,69.84z"/>
	<path class="st25" d="M185.54,92.81c0,0,12.81,3.31,15.46,13.25c2.65,9.94,3.75,15.68,3.75,15.68s13.03,5.96,25.84,4.2l-10.6-4.86
		c0,0,25.18,2.43,29.37-18.55c0,0-14.36,15.24-31.36,8.61C201,104.52,196.58,75.36,185.54,92.81z"/>
	<path class="st25" d="M214.92,87.95c-0.25,0.85,10.38,5.08,13.69,16.79c0,0,11.26-17.01-6.63-22.75
		C221.98,81.99,216.24,83.53,214.92,87.95z"/>
	<path d="M262.29,132.68c0,0,60.29,61.51,47.26,101.82c0,0,11.82-17.12-7.73-54.11C283.05,148.25,262.29,132.68,262.29,132.68z"/>
	<path d="M217.46,161.28c0,0-15.13,19.55-18.55,36.33c-3.42,16.79,6.85,37.77,6.85,37.77s-19.77-25.95-4.75-51.9
		C210.61,167.02,217.46,161.28,217.46,161.28z"/>
	<path d="M191.06,92.81c0,0-37.44,6.4-63.5-21.53c0,0-0.44,30.92,39.2,44.83s81.72,1.55,81.72,1.55s-44.83,16.9-91.21-0.44
		c0,0-37.66-18.88-32.91-52.12C124.36,65.09,150.32,93.58,191.06,92.81z"/>
	<path d="M155.62,87.51c0.11-0.33-4.2-4.75-5.52-17.89c0,0,10.27,17.78,36.22,21.09l3.31-2.76c0,0-27.39-5.19-41.85-26.39
		c0,0-3.75,10.38,3.31,24.29L155.62,87.51z"/>
	<path d="M223.42,95.9c0,0-5.41-10.49-21.31-11.37c-12.7,0.22-16.01,8.39-16.01,8.39h-5.52c0,0,8.06-11.15,21.42-10.93
		C219.78,82.32,223.42,95.9,223.42,95.9z"/>
	<path d="M194.93,97.89c0,0,8.61,11.37,8.61,25.51l4.53,0.11C208.07,123.51,207.85,107.72,194.93,97.89z"/>
	<path d="M243.85,87.29c0,0,23.52-1.88,45.17-20.76c0,0,1.66,31.8-34.12,48.59c0,0,41.63-10.05,39.09-55.55
		c0,0-24.85,20.65-49.25,25.18L243.85,87.29z"/>
	<path d="M259.2,82.21c0,0,3.64-10.38,0.33-21.42c0,0-4.53,13.8-20.32,22.86l-2.98-1.21c0,0,16.34-9.06,22.42-27.39
		c0,0,8.17,6.85,3.75,25.73L259.2,82.21z"/>
	<path d="M215.47,86.85c0,0,12.04-13.36,28.05,0.99s-3.42,31.91-3.42,31.91s22.42-14.91,6.18-34.23
		c-17.34-17.34-33.13-0.22-33.13-0.22L215.47,86.85z"/>
	<path class="st27" d="M178.92,121.3c0,0-80.1,95.71-22.67,199.36"/>
	<path class="st27" d="M303.78,146.04c0,0,57.13,54.77,37.1,183.75"/>
	<path class="st27" d="M129.74,161.64c0,0-33.28,55.95,0.59,144"/>
	<path class="st27" d="M125.62,69.47c0,0,7.66,37.69,78.33,45.06"/>
	<path class="st27" d="M226.33,78.9c0,0,32.69,15.61,8.83,42.4"/>
	<path class="st27" d="M246.65,113.06c0,0,28.86-4.71,37.4-44.17"/>
	<path class="st27" d="M149.17,75.36c0,0,7.66,10.31,20.61,15.9"/>
	<path class="st27" d="M249,84.79c0,0,9.13-4.42,13.55-17.08"/>
	<path class="st27" d="M196.58,83.02c0,0,27.68,1.47,22.97,39.46"/>
	<path class="st27" d="M220.44,81.84c0,0,15.31,12.96,10.31,23.85s-3.83-12.37-23.85-21.5"/>
	<path class="st27" d="M247.53,166.36c0,0-12.66,59.78,31.8,102.18"/>
	<path class="st28" d="M129.66,74.48c0,0,14.8,20.32,60.07,20.54c0,0,6.4,1.77,9.5,14.8c0,0-22.97-0.66-43.51-10.82l13.91,0.66
		C169.64,99.66,145.35,96.57,129.66,74.48z"/>
	<path class="st28" d="M250.47,88.39c0,0,19.33-3.75,28.93-12.81c0,0-1.1,14.58-25.4,24.74C254.01,100.32,254.23,93.25,250.47,88.39
		z"/>
	<path class="st28" d="M224.41,82.21c0,0,9.28-1.1,16.34,13.91s-10.82,14.8-10.82,14.8S243.41,100.76,224.41,82.21z"/>
	<path class="st28" d="M253.57,126.6c0,0,48.37,0.88,73.77,63.39c18.33,53.45,16.12,94.09,16.12,94.09S339.7,153.77,253.57,126.6z"
		/>
	<path class="st28" d="M263.73,111.58c0,0,53.45,18.11,73.77,79.07c20.32,60.96,7.51,115.51,7.51,115.51s17.89-158.36-87.24-191.26
		L263.73,111.58z"/>
	<path d="M337.49,282.53c0,0-6.74,27.94-24.18,45.5l2.76-14.13c0,0-0.77,2.21-3.64,2.76l-2.54,17.12c0,0,19.44-15.24,28.93-44.61
		L337.49,282.53z"/>
	<path d="M289.57,345.8c0,0-21.64,10.38-44.06,9.61c-22.42-0.77-58.42-14.58-58.42-14.58l18.88,2.21c0,0,44.73,16.86,70.23,1.99
		L289.57,345.8z"/>
	<path d="M306.46,317.87c0,0,10.82,0.88,10.6-9.83l0.77-2.32l1.55-0.77c0,0,2.32,8.5-4.2,12.15
		C310.22,319.63,306.46,317.87,306.46,317.87z"/>
	<path d="M292.88,335.2c0,0,4.97,1.44,8.5-2.21c3.53-3.64-0.22-8.72-0.22-8.72l2.32-1.99c0,0,4.64,8.72-0.66,13.03
		c-5.3,4.31-12.92,0.99-12.92,0.99L292.88,335.2z"/>
</g>
<g id="eyebrows">
	<path class="st29" d="M174.2,224.22c0,0,27.24-1.18,68.32,17.23c0,0,2.36-2.36,3.83-6.48c0,0-4.12,0-10.01-2.8
		C226.33,228.34,201,218.48,174.2,224.22z"/>
	<path class="st29" d="M274.47,234.53l2.21,6.18c0,0,27.53-18.11,52.86-19.14c0,0-15.05-3.06-29.89,1.33
		C284.19,227.46,278.01,235.71,274.47,234.53z"/>
	<path d="M172.03,224.33c0,0,41.78,1.51,74.47,21.39l-2.65-3.68c0,0,4.86-5.3,4.71-14.28c0,0-2.06,8.39-6.18,13.1
		C242.38,240.86,205.46,221.98,172.03,224.33z"/>
	<path d="M272.41,230.41l4.27,11.63c0,0,26.98-19.62,54.52-20.5c0,0-24.22-1.66-53.96,17.63L272.41,230.41z"/>
	<path class="st30" d="M178.77,246.6c0,0,38.8-8.02,53.15,4.56c9.94,9.72,14.58,24.74,14.58,24.74s-32.47,4.2-54.55,0.44
		C185.21,267.69,180.81,257.11,178.77,246.6z"/>
	<path class="st30" d="M273.44,273.91c0,0,3.65-13.52,13.6-24.27c4.86-5.25,11.67-8.27,18.81-8.54c5.37-0.2,10.61,0.01,16.32,0.79
		c0,0,2.06,20.32-7.66,31.36C314.52,273.25,292.88,277.23,273.44,273.91z"/>
	<path d="M177.59,277.96c0,0,25.77,5.6,62.87,0l-7.07-2.21c0,0-35.04,4.12-41.52-1.91L177.59,277.96z"/>
	<path d="M165.22,230.11c0,0,5.3,16.79,16.79,31.21l-2.36-12.07c0,0,8.54-3.83,34.31-3.53l-11.63-3.09
		C202.33,242.63,172.14,245.28,165.22,230.11z"/>
	<path d="M189.22,275.31c0,0-19.44-29.15-24-45.2c0,0,5.01,9.42,9.72,12.96c4.71,3.53,7.8,16.49,7.8,16.49l9.2,16.79L189.22,275.31z
		"/>
	<path d="M272.12,275.31c0,0,27.98,4.56,52.56,0.29l-8.54-4.56l-3.68,2.5c0,0-21.64,3.68-38.28-0.15L272.12,275.31z"/>
	<path d="M333.96,228.34c0,0-11.34,39.17-17.52,44.47l-1.91,0.44c0,0,8.83-16.34,7.07-31.95l-16.49-1.77
		C305.1,239.53,327.48,239.39,333.96,228.34z"/>
	<path class="st27" d="M315.41,236c0,0-16.93-1.33-24.59,3.83c-7.66,5.15-11.63,13.55-11.63,13.55"/>
	<path class="st27" d="M244.29,258.68c0,0-9.28-13.25-18.26-16.79c-8.98-3.53-37.55-3.09-37.55-3.09"/>
	<path class="st31" d="M178.25,246.64c0,0,30.26-6.29,47.82,1.21s20.43,28.05,20.43,28.05l-2.43-0.11c0,0-9.17-21.53-27.17-24.07
		s-36.88,2.21-36.88,2.21L178.25,246.64z"/>
	<path d="M214.06,279.39c-7.62,0-15.5-0.4-22.36-1.57l-0.58-0.1l-0.36-0.46c-6.59-8.48-11.25-18.98-13.47-30.38l-0.28-1.45l1.45-0.3
		c1.61-0.33,39.7-8.03,54.45,4.91c10.15,9.93,14.83,24.79,15.02,25.42l0.53,1.7l-1.77,0.23
		C246.47,277.42,230.92,279.39,214.06,279.39z M192.78,274.96c18.6,3.02,44.62,0.46,51.7-0.33c-1.52-4.15-5.99-14.96-13.6-22.39
		c-12.04-10.55-43.19-5.72-50.33-4.44C182.73,257.95,186.94,267.3,192.78,274.96z"/>
	<path class="st31" d="M273.44,273.91c0,0,7.73-23.52,20.87-29.93c13.14-6.4,31.03-3.42,31.03-3.42l-1.44,7.18
		c0,0-19.99-5.41-30.48,3.31c-10.49,8.72-17.23,22.86-17.23,22.86L273.44,273.91z"/>
	<g>
		<path class="st32" d="M205.68,258.82c0,4.81,3.91,8.72,8.72,8.72s8.72-3.91,8.72-8.72c0-4.81-3.91-8.72-8.72-8.72
			S205.68,254.02,205.68,258.82z M218.87,258.82c0,2.47-2,4.47-4.47,4.47c-2.47,0-4.47-2-4.47-4.47s2-4.47,4.47-4.47
			C216.87,254.35,218.87,256.35,218.87,258.82z"/>
		<path d="M203.68,258.82c0,5.91,4.81,10.72,10.72,10.72s10.72-4.81,10.72-10.72c0-5.91-4.81-10.72-10.72-10.72
			S203.68,252.91,203.68,258.82z M223.12,258.82c0,4.81-3.91,8.72-8.72,8.72s-8.72-3.91-8.72-8.72c0-4.81,3.91-8.72,8.72-8.72
			S223.12,254.02,223.12,258.82z"/>
		<path d="M209.93,258.82c0,2.47,2,4.47,4.47,4.47c2.47,0,4.47-2,4.47-4.47s-2-4.47-4.47-4.47
			C211.93,254.35,209.93,256.35,209.93,258.82z"/>
		<path d="M228.74,248.92c1.95,2.82,3.1,6.23,3.1,9.9c0,9.62-7.83,17.44-17.44,17.44s-17.44-7.83-17.44-17.44
			c0-6.2,3.26-11.64,8.15-14.74c-1.18-0.01-2.36,0-3.52,0.03c-4.11,3.58-6.72,8.84-6.72,14.71c0,9.29,6.52,17.07,15.22,19.04
			c2.92,0.06,5.82,0.05,8.65-0.01c8.69-1.98,15.2-9.75,15.2-19.03c0-2.44-0.47-4.77-1.29-6.92c-0.24-0.25-0.48-0.49-0.72-0.73
			C230.97,250.33,229.9,249.58,228.74,248.92z"/>
		<path d="M241.42,264.21c-0.52-0.96-1.08-1.95-1.68-2.95c-0.6,6.27-3.49,11.89-7.81,16c1.08-0.07,2.13-0.15,3.12-0.23
			C238.21,273.46,240.45,269.06,241.42,264.21z"/>
		<path d="M196.61,277c-4.72-4.62-7.66-11.06-7.66-18.18c0-5.27,1.61-10.17,4.36-14.24c-0.9,0.08-1.78,0.17-2.63,0.26
			c-2.43,4.1-3.82,8.88-3.82,13.98c0,6.75,2.45,12.94,6.5,17.74C194.41,276.73,195.5,276.87,196.61,277z"/>
	</g>
	<g>
		<path class="st32" d="M293.76,266.71c4.67,0,8.48-3.8,8.48-8.48c0-4.67-3.8-8.48-8.48-8.48c-4.67,0-8.47,3.8-8.47,8.48
			C285.29,262.91,289.09,266.71,293.76,266.71z M293.76,253.89c2.4,0,4.34,1.95,4.34,4.34c0,2.4-1.94,4.34-4.34,4.34
			s-4.34-1.95-4.34-4.34C289.42,255.83,291.36,253.89,293.76,253.89z"/>
		<path d="M293.76,268.65c5.75,0,10.42-4.67,10.42-10.42c0-5.75-4.67-10.42-10.42-10.42c-5.75,0-10.42,4.67-10.42,10.42
			C283.34,263.98,288.02,268.65,293.76,268.65z M293.76,249.76c4.67,0,8.48,3.8,8.48,8.48c0,4.67-3.8,8.48-8.48,8.48
			c-4.67,0-8.47-3.8-8.47-8.48C285.29,253.56,289.09,249.76,293.76,249.76z"/>
		<circle cx="293.76" cy="258.23" r="4.34"/>
		<path d="M302.58,241.43c-1.15,0.18-2.29,0.43-3.4,0.75c6.7,2.27,11.54,8.6,11.54,16.05c0,9.35-7.61,16.96-16.96,16.96
			c3.44-0.08,6.66-0.28,9.48-0.53c5.67-3.29,9.51-9.41,9.51-16.43C312.76,250.94,308.62,244.61,302.58,241.43z"/>
		<path d="M293.76,275.19c-7.52,0-13.91-4.93-16.12-11.73c-0.44,0.87-0.84,1.71-1.2,2.51c1.77,3.94,4.83,7.16,8.65,9.13
			C288.07,275.24,290.99,275.26,293.76,275.19z"/>
		<path d="M314.38,241.16c-0.94-0.05-1.88-0.07-2.82-0.09c4.3,4.45,6.95,10.5,6.95,17.17c0,5.74-1.97,11.03-5.26,15.23
			c0.82-0.13,1.28-0.21,1.28-0.21c2.71-3.08,4.51-6.89,5.68-10.77c0.22-1.38,0.34-2.8,0.34-4.25
			C320.55,251.75,318.23,245.8,314.38,241.16z"/>
		<path d="M273.78,272.81c-0.23,0.7-0.33,1.11-0.33,1.11c0.46,0.08,0.91,0.15,1.37,0.22C274.45,273.7,274.11,273.26,273.78,272.81z"
			/>
	</g>
	<path class="st33" d="M225.52,255.65c5.36,0,9.71,1.47,9.71,3.27c0,1.81-4.35,3.27-9.71,3.27c-5.36,0-9.71-1.47-9.71-3.27
		C215.82,257.11,220.16,255.65,225.52,255.65z"/>
	<path class="st33" d="M305.47,255.65c5.36,0,9.71,1.47,9.71,3.27c0,1.81-4.35,3.27-9.71,3.27c-5.36,0-9.71-1.47-9.71-3.27
		C295.77,257.11,300.11,255.65,305.47,255.65z"/>
	<path class="st34" d="M273.44,273.91c0,0,3.65-13.52,13.6-24.27c4.86-5.25,11.67-8.27,18.81-8.54c5.37-0.2,10.61,0.01,16.32,0.79
		c0,0,2.06,20.32-7.66,31.36C314.52,273.25,292.88,277.23,273.44,273.91z"/>
</g>
<g id="BIRD_x5F_1">
	<path class="st35" d="M416.56,454.95c0,0,56.54-53.6,52.71-74.21s-90.7-16.79-103.36-11.19c-12.66,5.6,29.74,9.72,29.74,9.72
		s-27.39,3.83-30.92,8.54c-3.53,4.71,11.78,7.66,11.78,7.66s-20.56,3.27-32.06,12.18c2.54,26.83-4.16,47.89-4.16,47.89
		L416.56,454.95z"/>
	<path class="st35" d="M124.44,462.31c0,0-46.23,8.25-76.27,34.45c0,0,41.52,34.16,120.74,5.3
		C168.9,502.06,175.09,463.78,124.44,462.31z"/>
	<path class="st35" d="M270.2,472.91c-9.27-0.65-15.75-4.69-18.96-12.7c0,0,19.36,2.94,32.02,1.77c0,0-3.53-1.8-4.2-7.84
		c0,0,27.94,6.4,36.48-2.13c17.41-13.96,22.97-37.69,62.13-32.69s55.07,38.58,55.66,37.69c0.59-0.88-90.99,25.33-90.99,25.33
		l16.79,34.45c0,0-26.8-17.67-45.06-12.66s-31.8,35.34-91.29,37.99c-59.48,2.65-70.09-36.81-70.09-36.81s-11.19-21.2,7.66-37.99
		S233.69,482.92,270.2,472.91z"/>
	<path class="st36" d="M322.81,489.03c0,0-5.74-8.94,0.77-14.36c6.52-5.41,28.05-5.96,27.61-5.85c-0.44,0.11-13.25-18-13.25-18
		l9.72-11.48c0,0,4.09-14.02,13.14-14.58c9.06-0.55,12.7,5.19,12.7,5.19l-5.63-25.4l25.95,37.66l-9.28,31.91l-44.61,20.76
		C339.92,494.88,331.2,499.08,322.81,489.03z"/>
	<path d="M384.76,457.3c0,0-12.96,11.78-21.79,13.25c-8.83,1.47-25.03-19.73-25.03-19.73s22.97-22.38,30.33-21.5
		S384.76,442.58,384.76,457.3z"/>
	<ellipse class="st30" cx="364.44" cy="450.09" rx="14.43" ry="23.71"/>
	<path class="st35" d="M6.35,361.3c0,0,55.95,5.3,88.64,5.6c32.69,0.29,39.75,26.21,81.57,62.43s58.31,42.4,108.66,38.87
		c0,0,10.01,1.18,15.02,16.49c5.01,15.31-88.93,3.53-88.93,3.53s-57.42,18.85-96.59,1.18l10.6-4.42c0,0-18.26-1.47-26.21-7.36
		l12.07-4.71c0,0-13.84,2.36-26.5-4.42c0,0,5.89-5.89,14.43-6.18c0,0-20.91-0.29-34.75-5.89c0,0,11.78-7.95,32.1-7.95
		c0,0-29.74-1.47-55.36-18.26c0,0,13.84-5.01,30.92-2.36c0,0-25.03,1.47-50.65-22.38c0,0,30.63,1.77,45.06,5.01
		c0,0-37.1-1.18-56.83-31.8l27.98,5.6C37.57,384.27,17.25,382.21,6.35,361.3z"/>
	<path class="st36" d="M173.91,498.53c0,0-19.14-2.06-25.33,15.61c-0.88,3.53,2.36,19.73,10.7,23.94c3.41,1.68,7.56,3.65,12.56,6.1
		c29.45,14.43,50.94-2.06,50.94-2.06C218.97,523.85,194.82,500.88,173.91,498.53z"/>
	<path class="st36" d="M325.57,441.99c0,0,17.67-25.07,36.33-20.65l-7.62-5.63c0,0,10.6-1.88,17.67,2.1l32.91-4.09
		c0,0-17.12-13.8-16.9-14.58c0.22-0.77,3.09-5.74,22.64-3.42c0,0-22.09-2.98-20.43-6.74c1.66-3.75,34.01-2.43,34.01-2.43
		s-28.27-3.64-27.28-5.41s45.72-4.86,45.72-4.86s-70.79,0.88-78.96-4.53c0,0-3.42,7.4,29.26,7.95c0,0-28.38,4.31-28.82,8.17
		c-0.44,3.87,10.93,9.39,10.93,9.39s-17.67-0.11-30.59,10.38l0.88,12.7C345.33,420.34,337.05,424.87,325.57,441.99z"/>
	<path class="st36" d="M346.77,511.49l-27.98-0.29l10.01-6.48c0,0-17.08-5.01-31.51,10.6c-14.43,15.61-46.53,27.09-79.21,27.39
		l-58.01-40.34c0,0-45.35,19.44-87.75,8.25c0,0,0.59-6.77,11.78-10.6c0,0-21.79,2.65-29.45-2.65c0,0,8.83-11.04,17.96-14.28
		c0,0-3.09,8.1,37.25-2.5c0,0,1.33,3.83,27.53,0.88c0,0-26.47,0.64-31.51-2.65c0.15-0.48,1.34-3.91,7.36-6.18
		c0,0-12.07,1.77-27.39-3.83c0,0,1.07-4.71,12.22-6.15c0,0-13.99,1.73-33.72-6.22c0,0,14.13-7.07,32.1-7.95
		c0,0-34.45-0.59-55.36-18.26c0,0,11.48-5.01,23.85-3.24c0,0-30.33-0.29-43.58-21.5c0,0,28.86,1.77,38.87,4.42
		c0,0-42.99-2.94-50.65-31.21l22.97,4.12c0,0-22.09-2.65-26.21-21.5c0,0,10.31,12.37,29.74,12.66c19.44,0.29,79.51,4.42,93.35,20.91
		c13.84,16.49,23.26,56.54,59.78,72.15c36.52,15.61,80.5,29.26,92.28,23.67c-11.82-1.21-17.78-7.18-17.78-7.18
		s15.35-1.55,34.79,3.75c-9.05-2.43-10.05-10.82-7.73-13.47c0,0,22.71,12.07,42.74,7.95C353.54,477.62,346.77,511.49,346.77,511.49z
		"/>
	<path class="st37" d="M165.37,535.04c0,0-28.56-2.65-39.17-1.47s-21.5-33.87-21.5-33.87l21.79-6.18c0,0,2.36,7.36-5.01,12.66
		c0,0,8.83,2.94,8.83,11.19c0,0,14.72-3.53,22.97-3.24l-1.47,5.01l4.42,2.06l-1.47,5.6l5.01,1.77l-2.06,3.53L165.37,535.04z"/>
	<path class="st36" d="M424.51,446.99c0,0,44.47-37.99,45.94-64.2c0,0,1.18-14.43-40.64-17.08c0,0,38.28,4.12,30.04,20.61
		c-8.25,16.49-24.74,22.09-24.74,22.09l12.37-1.77l-19.73,14.13l12.96-0.29c0,0-21.2,13.25-22.09,14.13
		C417.74,435.51,424.51,446.99,424.51,446.99z"/>
	<path class="st38" d="M352.36,384.86c0,0,36.52,49.77,27.39,73.62c0,0-9.13,9.72-32.1,11.78c-22.97,2.06-32.69,7.95-5.89,28.86
		c0,0-3.24,7.36-8.83,14.43c-5.6,7.07-11.78,9.42-6.18,11.48s12.66-1.47,24.74-2.06c0,0,9.13,12.96,25.03,18.85
		c15.9,5.89,29.74,20.61,29.74,20.61l2.94-6.18c0,0,12.66,7.07,35.63,9.72l-4.12-7.07c0,0,21.5,7.07,31.51,12.07
		c0,0-1.47-14.43-19.73-33.28c-18.26-18.85-27.68-26.21-27.68-26.21l2.65-2.94c0,0-9.72-6.77-20.91-10.6
		c0,0,57.13-13.84,89.82,20.32c0,0,8.25,12.37,9.13,11.19c0.88-1.18,0.59-18.55-6.18-42.99c-6.77-24.44-35.63-45.94-35.63-45.94
		s14.72-6.77,13.84-8.54c-0.88-1.77-36.81-4.12-36.81-4.12s9.42-7.07,8.83-8.25c-0.59-1.18-23.85-1.77-40.05,2.06
		C409.49,421.67,396.83,387.22,352.36,384.86z"/>
	<path class="st39" d="M341.76,499.12c0,0,14.13,3.83,18.26,7.66c4.12,3.83,9.13,14.72,19.73,18.26c10.6,3.53,13.84,0.88,13.84,0.88
		s-22.67-23.56-27.98-26.21c-5.3-2.65-14.43-9.42-13.84-11.19s37.1-0.88,45.06-3.83s39.46-8.54,53.3-3.83
		c13.84,4.71,43.29,32.98,43.29,32.98s-19.14-20.91-54.48-10.01l-23.26-2.36l11.78,7.07l-0.59,3.83c0,0,39.17,29.15,43.88,53.89
		l-0.29,3.83l-31.51-11.19l5.89,7.07c0,0-30.04-5.3-37.1-8.83c0,0,1.18,5.3-1.47,5.3s-8.25-10.6-15.02-12.37
		c-2.42-0.63-4.68-3.59-9.79-6.15c-9.22-4.62-21.09-7.73-29.96-20.94c0,0-22.71,5.48-26.69,1.51
		C322.44,519.77,340,509.13,341.76,499.12z"/>
	<path class="st39" d="M382.11,474.38l2.36-15.31c0,0,15.02-3.83,19.14-17.96c0,0-4.12,17.96-5.6,20.32
		C396.54,463.78,382.11,474.38,382.11,474.38z"/>
	<path class="st39" d="M342.94,489.69c0,0,10.9-8.54,17.37-11.19c0,0,8.54,2.06,24.44,1.18c15.9-0.88,31.8-4.71,31.8-4.71
		s-35.63,6.18-55.36,1.47C361.2,476.44,349.42,477.91,342.94,489.69z"/>
	<polygon class="st39" points="435.7,474.97 440.71,472.32 442.47,475.56 	"/>
	<polygon class="st39" points="455.43,477.03 461.62,480.27 460.73,477.33 	"/>
	<path class="st39" d="M449.54,419.61c0,0-6.48,10.6-14.13,12.07c-7.66,1.47-12.96-3.24-12.96-3.24S444.24,425.2,449.54,419.61z"/>
	<path class="st39" d="M477.52,431.98c0,0-10.6,9.13-15.31,9.72c-4.71,0.59-11.78-3.53-11.78-3.53L477.52,431.98z"/>
	<path class="st40" d="M369.74,390.45c0,0,23.85,11.48,26.8,16.49c2.94,5.01,10.01,20.32,10.01,20.32S382.4,399.29,369.74,390.45z"
		/>
	<path class="st40" d="M462.79,446.99c0,0,16.79,10.9,25.62,26.21c8.83,15.31,11.78,36.81,11.78,36.81S491.65,476.44,462.79,446.99z
		"/>
	<path class="st41" d="M352.95,488.81c0,0,8.83,5.6,14.13,7.66c5.3,2.06,37.4,28.56,37.4,28.56l23.85,12.07
		c0,0-3.83-36.52-30.33-47.41c0,1.18-15.61,4.71-15.61,4.71S365.32,482.63,352.95,488.81z"/>
	<path class="st42" d="M360.52,467.65c-3.07-2.77-5.22-9.26-5.22-16.82c0-10.08,3.82-18.26,8.54-18.26s8.54,8.17,8.54,18.26
		c0,6.74-1.87,12-4.42,15.17"/>
	<ellipse class="st42" cx="363.55" cy="450.38" rx="4.42" ry="12.81"/>
	<ellipse class="st42" cx="363.11" cy="450.09" rx="1.33" ry="4.27"/>
	<path class="st35" d="M35.03,349.01c0,0,68.8,16.56,79.4,22.31s-39.31-2.98-39.31-2.98S39,371.2,35.03,349.01z"/>
	<path class="st10" d="M262.84,480.42l-16.49-16.49c0,0,0.74-15.31,20.32-14.72l11.63,20.76
		C283.01,477.47,266.82,485.28,262.84,480.42z"/>
	
		<ellipse transform="matrix(0.8387 -0.5446 0.5446 0.8387 -206.9628 212.9019)" class="st43" cx="255.91" cy="455.82" rx="12.54" ry="4.15"/>
	<path class="st10" d="M281.23,517.06l7.2,22.18c0,0,13.98,6.3,22.35-11.41l-13.21-19.79C293.01,500.43,278.7,511.31,281.23,517.06z
		"/>
	
		<ellipse transform="matrix(0.8661 -0.4998 0.4998 0.8661 -226.9494 221.4882)" class="st43" cx="299.99" cy="534.41" rx="12.54" ry="4.15"/>
	<path class="st35" d="M302.74,506.63c0,0-16.05,3.98-27.68,1.91c0,0,10.31-7.66,19.73-9.42c0,0-8.69,0.15-12.22-2.06
		c0,0,12.07-5.89,23.56-5.01c0,0-10.6,2.21-12.22,4.12c0,0,7.66,1.47,11.04,1.77c0,0-9.28,3.98-9.87,5.6
		C295.09,503.53,299.06,506.04,302.74,506.63z"/>
	<path class="st36" d="M312.61,474.09c0,0-12.37-2.8-23.26-2.36c0,0-2.21,8.98,8.69,13.69l6.63-5.01c0,0-7.8-2.06-9.13-5.3
		C295.53,475.12,306.13,473.35,312.61,474.09z"/>
	<path class="st36" d="M263.43,491.31c0,0-17.08-6.33-25.91-16.49c0,0,6.04,11.78,12.81,14.87
		C257.1,492.79,263.43,491.31,263.43,491.31z"/>
	<path class="st35" d="M169.35,517.52c0,0,11.63,15.61,30.33,21.2c0,0-4.27,1.62-5.74,4.27c0,0,11.04,2.65,25.62-2.94
		c0,0-2.8,4.86-2.06,7.07c0,0,9.57-0.59,18.99-5.15c0,0,0.74,3.39,1.77,4.42c0,0,9.87-2.21,16.05-7.66c0,0,15.02-5.45,27.68-11.48
		c0,0-28.56,11.48-49.91,10.16l4.27-9.13c0,0-14.72,7.66-27.83,10.01l4.86-5.3C213.37,532.98,192.17,534.31,169.35,517.52z"/>
	<path class="st44" d="M165.37,535.04c0,0-32.1-2.5-39.75-1.47c0,0-4.86-0.44-8.1-5.6c-3.24-5.15-12.81-28.27-12.81-28.27l4.71-1.33
		c0,0,7.15,19.04,12.07,25.03c5.45,6.63,33.28,3.39,33.28,3.39l6.04,1.33l-2.94,3.24L165.37,535.04z"/>
	<path class="st45" d="M343.53,508.39c0,0,6.48,15.31,15.17,22.23"/>
	<path d="M342.94,489.69c-0.44,0.66,7.51-10.9,18.26-13.25c0,0,11.48,2.8,21.94,1.62c0,0-15.46-0.15-21.79-2.65
		C361.35,475.41,353.98,473.2,342.94,489.69z"/>
	<path d="M341.76,499.12c0,0-17.96-13.4-15.9-20.91c2.06-7.51,22.97-8.1,32.54-10.16c0,0-3.24-2.06-5.74-6.77l0.44,4.56
		c0,0-24.59,2.06-31.07,13.25c0,0,2.5,8.39,18.7,21.35L341.76,499.12z"/>
	<path class="st45" d="M300.54,512.66c0,0,12.37-11.93,28.27-7.95l-10.01,6.48h15.61"/>
	<g>
		<g>
			<g>
				<path class="st3" d="M284.93,509.28c-1.46,0.53-2.61,1.37-3.52,2.54c-0.44,0.59-0.85,1.27-1.1,2.09c-0.13,0.4-0.24,0.84-0.3,1.3
					l-0.04,0.35c0,0.14-0.06,0.37-0.02,0.57c0.09,0.26,0.17,0.54,0.26,0.81c0.19,0.58,0.51,1.52,1.16,3.47
					c1.02,3.03,2.51,7.49,3.86,11.51c0.68,2.01,1.31,3.91,1.84,5.47c0.26,0.78,0.5,1.47,0.69,2.05c0.05,0.14,0.1,0.28,0.14,0.41
					c0.02,0.05,0.01,0.03,0.01,0.03l-0.01-0.03c-0.01-0.05,0.04,0.24,0.06,0.29c0.11,0.39,0.26,0.7,0.42,0.91
					c0.06,0.09,0.13,0.18,0.08,0.12c0.07,0.09,0.13,0.18,0.09,0.12c0.48,0.56,1.06,0.91,1.59,1.08c0.27,0.12,0.52,0.16,0.77,0.21
					c0.25,0.06,0.49,0.1,0.71,0.1c0.46,0.04,0.88,0.05,1.25,0.01c0.39-0.02,0.75-0.05,1.07-0.11c0.33-0.05,0.64-0.1,0.93-0.15
					c0.28-0.07,0.54-0.13,0.79-0.2c0.49-0.12,0.92-0.23,1.27-0.35c1.42-0.44,1.89-0.65,1.89-0.65s0.64-0.23,1.75-0.69
					c0.55-0.24,1.21-0.53,1.97-0.87c0.4-0.19,0.47-0.3,0.68-0.42c0.18-0.12,0.37-0.25,0.57-0.38c0.39-0.26,0.8-0.54,1.22-0.83
					c1.66-1.24,3.62-2.71,5.37-4.88c0.41-0.57,0.83-1.16,1.16-1.87c0.19-0.33,0.29-0.75,0.42-1.13c0.08-0.42,0.18-0.84,0.16-1.31
					c0.01-0.23-0.01-0.46-0.07-0.7c-0.03-0.24-0.11-0.47-0.2-0.7c-0.08-0.23-0.21-0.46-0.35-0.68c-0.08-0.11-0.14-0.21-0.25-0.33
					c-0.04-0.05-0.14-0.15-0.11-0.12c0.03,0.04,0.01,0.01,0.02,0.02c-0.37-0.56-0.74-1.12-1.12-1.68c-0.02-0.03-0.04-0.06-0.05-0.07
					c-0.02-0.03-0.04-0.06-0.05-0.07c-1.45-2.17-2.97-4.45-3.66-5.5c-1.53-2.29-2.47-3.7-2.97-4.44c-2.01-2.98-3.48-4.46-5.76-6.54
					c1.04,2.91,1.84,4.84,3.81,7.84c0.49,0.74,1.43,2.16,2.95,4.45c0.7,1.05,2.21,3.33,3.66,5.5c0.01,0.02,0.03,0.05,0.05,0.07
					c0.01,0.02,0.03,0.05,0.05,0.07c0.39,0.59,0.78,1.17,1.17,1.76l0.18,0.21c0.09,0.09,0.05,0.05,0.06,0.07
					c0,0.01,0.04,0.06,0.06,0.08c0.03,0.08,0.09,0.14,0.12,0.23c0.03,0.08,0.07,0.17,0.07,0.27c0.03,0.09,0.04,0.19,0.03,0.3
					c0.04,0.87-0.58,1.94-1.25,2.84c-1.46,1.82-3.3,3.25-4.87,4.41c-0.77,0.52-1.47,1-2.09,1.42c-0.73,0.32-1.37,0.6-1.89,0.84
					c-1.05,0.43-1.66,0.65-1.66,0.65s-0.45,0.2-1.76,0.6c-0.33,0.12-0.71,0.21-1.15,0.32c-0.22,0.05-0.45,0.11-0.7,0.18
					c-0.25,0.04-0.51,0.08-0.79,0.13c-0.28,0.06-0.57,0.08-0.87,0.09c-0.31,0.03-0.61,0.03-0.92,0c-0.61-0.04-1.22-0.25-1.46-0.54
					c0.01,0.02,0-0.01-0.02-0.03c0.01,0.02,0-0.01-0.02-0.03c-0.84-2.52-4.73-14.13-6.73-20.09c-0.66-1.95-0.98-2.89-1.17-3.47
					c-0.06-0.18-0.18-0.52-0.15-0.43c0,0,0,0.01,0-0.05l0.01-0.26c0.02-0.35,0.06-0.67,0.12-0.99c0.1-0.64,0.29-1.21,0.49-1.78
					C283.33,511.54,283.9,510.42,284.93,509.28z"/>
			</g>
		</g>
	</g>
	<g>
		<g>
			<g>
				<path class="st3" d="M263.43,481.15c-1.56-2.67-2.7-4.42-5.19-7c-0.42-0.44-1.11-1.15-2.55-2.63c-1.42-1.46-3.33-3.42-5.4-5.54
					c-1.03-1.06-2.1-2.16-3.17-3.26l-0.76-0.77c0.03,0.09-0.08-0.18-0.1-0.42c-0.06-0.48,0.06-1.05,0.29-1.59
					c0.46-1.1,1.32-2.1,2.17-2.91c0.85-0.83,1.73-1.5,2.49-2.04c1.53-1.07,2.55-1.66,2.55-1.66s0.21-0.12,0.6-0.34
					c0.39-0.22,0.95-0.56,1.67-0.91c1.42-0.74,3.46-1.72,5.79-2.25c1.15-0.26,2.43-0.37,3.41-0.09c0.12,0.03,0.25,0.09,0.3,0.1l0,0
					l0.43,0.75c0.35,0.61,0.69,1.22,1.03,1.82c1.37,2.42,2.7,4.76,3.81,6.71c1.36,2.39,2.2,3.87,2.64,4.64
					c1.79,3.12,3.15,4.69,5.28,6.94c-0.83-2.98-1.49-4.96-3.25-8.09c-0.44-0.77-1.27-2.26-2.63-4.65c-1.11-1.95-2.44-4.29-3.81-6.71
					c-0.34-0.6-0.69-1.21-1.03-1.82l-0.61-1.07c-0.16-0.31-0.52-0.45-0.81-0.63c-0.27-0.12-0.46-0.2-0.68-0.26
					c-1.71-0.46-3.22-0.24-4.59,0.04c-2.71,0.63-4.86,1.68-6.37,2.47c-0.77,0.38-1.35,0.74-1.76,0.97
					c-0.41,0.23-0.63,0.36-0.63,0.36s-0.27,0.15-0.74,0.46c-0.47,0.31-1.17,0.71-1.98,1.31c-0.82,0.58-1.78,1.31-2.76,2.26
					c-0.97,0.95-2.02,2.08-2.71,3.69c-0.34,0.79-0.58,1.73-0.46,2.76c0.02,0.26,0.08,0.52,0.16,0.78c0.08,0.22,0.23,0.66,0.5,0.91
					l0.85,0.87c1.07,1.1,2.14,2.2,3.17,3.26c2.07,2.12,3.98,4.08,5.4,5.54c1.44,1.47,2.13,2.18,2.56,2.62
					C259.09,478.35,260.8,479.52,263.43,481.15z"/>
			</g>
		</g>
	</g>
	<path class="st46" d="M476.63,500.59c0,0-21.2-9.87-38.28-0.88c0,0-15.02-5.89-26.5-0.88l-12.81-8.39c0,0,30.63-6.77,48.74-6.18
		C447.78,484.25,462.79,487.63,476.63,500.59z"/>
	<path class="st46" d="M465.3,561.1l-22.23-17.82l-13.99-6.18l-1.77-3.68c0,0-0.88-10.6-4.71-17.67
		C422.6,515.76,447.19,528.12,465.3,561.1z"/>
	<path class="st47" d="M416.56,530.48c0,0-6.92-17.23-17.52-25.62c-10.6-8.39,5.15-11.04,5.15-11.04l-5.15-3.39l-16.64,3.98
		c0,0-17.08-12.37-28.71-5.6c0,0,16.2,8.25,21.64,10.01c0,0,19.73,18.4,26.21,21.94C408.02,524.3,416.56,530.48,416.56,530.48z"/>
	<path class="st48" d="M401.25,503.53c0,0,9.87,8.1,13.84,19.73C415.09,523.26,415.38,507.22,401.25,503.53z"/>
	<path class="st45" d="M424.81,511.49c0,0,9.13,7.95,18.55,16.34c9.42,8.39,23.26,34.16,23.26,34.16s-19.29-16.64-23.56-18.7
		c-4.27-2.06-30.63-14.28-37.4-18.7s-30.92-25.62-30.92-25.62c-10.16-2.8-21.06-10.16-21.06-10.16c11.34-6.33,28.71,5.6,28.71,5.6
		s44.61-12.07,64.34-10.01c19.73,2.06,51.68,36.37,51.68,36.37s-18.7-27.98-59.48-16.93"/>
	<path class="st45" d="M427.9,535.93c0,0-2.36-32.25-28.27-45.2"/>
	<path class="st49" d="M196.44,539.02c0,0-16.34-2.36-32.25-23.85l7.95-1.18c0,0-15.31-7.21-18.7-11.34"/>
	<path class="st49" d="M104.85,503.98c0,0-14.58-0.59-16.64-4.71c-2.06-4.12,28.86-17.23,28.86-17.23s-35.48,11.48-48,9.13
		s25.62-19.73,25.62-19.73"/>
	<path class="st49" d="M282.57,524.3c0,0-24.59,8.69-33.87,8.39c0,0,22.82-10.75,27.39-14.13c0,0-21.64,5.45-41.52,0.29
		c0,0,22.53-11.48,36.96-14.13c0,0-8.54-2.5-9.87-3.98c0,0,14.43-4.71,18.55-6.04"/>
	<path class="st49" d="M235.75,527.39c0,0-15.31,7.21-21.06,7.07l6.18-6.04c0,0-17.67,5.74-41.37-10.01c0,0,5.74-3.39,11.93-4.27
		c0,0-15.17-6.33-21.5-18.99"/>
	<path class="st50" d="M236.93,490.58c0,0-44.47-3.39-78.04-36.52s-12.96-58.75-55.95-66.85c-42.99-8.1-14.87,10.16,15.17,20.91
		c0,0-32.54-1.91-34.6,3.53c-2.06,5.45,37.84,13.99,37.84,13.99s-29.74,0.59-29.15,6.92c0.59,6.33,30.92,8.69,30.92,8.69
		s-18.99,6.33-15.02,10.6c3.98,4.27,23.56,2.94,23.56,2.94s-17.82,2.65-15.17,7.36c2.65,4.71,23.12,6.18,23.12,6.18
		s-16.05,3.09-13.4,6.92s23.56,5.01,23.56,5.01s-11.48,4.56-8.1,7.21s24.15,0.74,24.15,0.74"/>
	<path class="st49" d="M95.73,418.72c0,0-31.66,1.03-73.33-12.22"/>
	<path class="st49" d="M100.44,401.06c0,0-54.33-3.39-89.08-20.76"/>
	<path class="st49" d="M130.92,403.63c0,0-8.1-20.53-28.28-29.51s-59.04-9.57-59.04-9.57"/>
	<path class="st50" d="M187.75,491.76c0,0-20.91,1.77-21.94-4.27c-1.03-6.04,8.98-9.13,8.98-9.13s-23.26,6.63-25.03,1.91
		c-1.77-4.71,9.28-10.16,9.28-10.16s-19.44,1.91-19.44-1.77c0-3.68,8.83-8.25,8.83-8.25s-17.52-1.03-16.79-5.3
		c0.74-4.27,10.16-7.51,10.16-7.51s-18.4-1.18-18.7-6.04c-0.29-4.86,10.45-9.13,10.45-9.13s-14.87-2.5-12.22-6.48
		s8.54-6.63,8.54-6.63s-16.93-4.86-9.28-16.49"/>
	<path class="st49" d="M292.44,476.15c0,0,6.48,7.8,26.94,11.04l-8.98,10.31c0,0,20.76-0.74,28.42,5.74"/>
	<path class="st49" d="M146.52,514.43c0,0,2.5,8.69,1.91,18.4"/>
	<path class="st49" d="M139.46,515.61c0,0,2.36,11.04,0.74,16.79"/>
	<path class="st49" d="M133.71,516.34c0,0,1.18,12.22-0.59,16.49"/>
	<path class="st49" d="M123.26,532.69c0,0,6.04-7.8,7.36-16.2"/>
	<path class="st49" d="M116.19,525.77c0,0,10.45-6.92,13.4-13.25"/>
	<path class="st49" d="M112.36,518.55c0,0,10.01-3.98,15.02-8.39"/>
	<path class="st49" d="M109.12,510.9c0,0,7.8-0.15,14.58-3.53"/>
	<path class="st49" d="M105,501.47c0,0,4.56,5.3,16.2,3.98"/>
	<path class="st49" d="M112.51,497.64c0,0,4.71,4.56,10.9,5.74"/>
	<path class="st49" d="M121.35,495.29c0,0-0.44,3.83,4.12,5.74"/>
	<ellipse class="st21" cx="369.66" cy="450.6" rx="6.4" ry="3.17"/>
	<path class="st51" d="M112.66,501.33c0,0,5.3,15.17,11.93,22.09c0,0,5.45,2.94,27.68,0.74c0,0-8.69-8.39-26.65-1.47
		C125.62,522.68,126.5,511.78,112.66,501.33z"/>
	<polygon class="st52" points="294.94,532.25 285.52,510.6 283.6,514.72 290.52,536.22 	"/>
	<path class="st52" d="M251.8,463.19l15.61,18.4c0,0,4.27-0.29,7.66-2.94l-14.87-19.58C260.19,459.07,254.3,462.75,251.8,463.19z"/>
	<path class="st53" d="M289.49,538.28c0,0,4.12-8.25,19.58-11.34c0,0-6.04-0.88-13.1,1.33
		C295.97,528.27,291.11,533.28,289.49,538.28z"/>
	<path class="st53" d="M246.65,463.19c0,0,6.77-0.74,11.93-4.56c5.15-3.83,7.21-8.83,7.21-8.83s1.91,5.3-5.74,11.19
		C253.86,464.37,246.65,463.19,246.65,463.19z"/>
	<path class="st46" d="M382.11,474.38c0,0,15.46-10.31,16.2-12.22c0.74-1.91,2.65-12.52,2.65-12.52s-3.24,8.98-8.25,11.78
		S382.11,474.38,382.11,474.38z"/>
	<path class="st54" d="M246.94,491.46c0,0-43.14-3.24-73.91-25.18s-39.75-57.57-39.75-57.57s-6.48-34.09-41.93-36.63
		c10.38,4.53,36.39,17.44,27.94,32.5c-7.11,12.67,10.6,14.43,10.6,14.43s-10.6,5.6-8.69,8.25c1.91,2.65,12.37,4.86,12.37,4.86
		s-12.07,5.45-10.45,9.13c1.62,3.68,18.11,6.48,18.11,6.48s-11.04,3.98-9.57,7.07c1.55,5.08,16.79,5.3,16.79,5.3
		s-11.04,5.15-8.83,8.25c2.21,3.09,17.96,2.36,17.96,2.36s-10.45,8.25-7.8,9.57c4.71,4.56,25.03-1.91,25.03-1.91
		s-12.07,4.86-7.8,10.45c4.27,5.6,26.36,2.06,26.36,2.06l-5.01,12.37l26.5-8.39l1.91,12.52L246.94,491.46z"/>
	<path class="st54" d="M125.58,441.88c0,0-30.92-2.98-33.46-9.72c-2.54-6.74,31.69-6.85,31.69-6.85s-22.86,3.42-21.75,7.4
		S125.58,441.88,125.58,441.88z"/>
	<path class="st54" d="M124.36,426.64c0,0-38.21-8.17-40.97-14.58s39.64-3.53,39.64-3.53s-29.04,1.44-28.49,4.31
		C95.1,415.71,124.36,426.64,124.36,426.64z"/>
	<path class="st54" d="M119.06,408.75c0,0-37.1-13.58-37.99-22.2c9.39-4.75,40.2,5.85,40.2,5.85s-30.04-4.53-29.48-1.1
		S119.06,408.75,119.06,408.75z"/>
	<path class="st54" d="M124.36,440.99c0,0-18,4.64-16.56,10.05s30.04,4.09,30.04,4.09l0.55-1.1c0,0-22.97-1.66-24.07-4.2
		c-1.1-2.54,14.02-9.5,14.02-9.5L124.36,440.99z"/>
	<path class="st54" d="M134.74,453.58c0,0-18.77,2.76-18.22,8.06c0.55,5.3,27.72,7.29,27.72,7.29l1.77-0.77
		c0,0-22.75-4.53-22.86-6.96c-0.11-2.43,14.25-7.18,14.25-7.18L134.74,453.58z"/>
	<path class="st54" d="M145.35,466.28c0,0-19.21,3.53-18.99,8.17s29.37,6.4,29.37,6.4l2.54-1.77c0,0-23.52-2.32-23.52-5.41
		c0-3.09,16.79-7.29,16.79-7.29L145.35,466.28z"/>
	<path class="st54" d="M154.73,477.88c0,0-15.64,5.52-13.07,9.61c2.58,4.09,30.07,0.22,30.07,0.22l0.22-2.1
		c0,0-22.64,1.44-23.63-0.33s10.93-7.07,10.93-7.07L154.73,477.88z"/>
	<path class="st54" d="M122.05,441.22c0,0-16.9,8.83-35.45,6.07c-33.79-4.86-42.26-16.49-42.26-16.49s17.52,8.25,59.93,7.51
		L122.05,441.22z"/>
	<path class="st54" d="M130.55,455.24c0,0-12.26,7.95-34.56,7.51s-30.48-6.85-30.48-6.85s43.07-0.22,57.53-1.88L130.55,455.24z"/>
	<path class="st54" d="M138.72,468.71c0,0-16.56,8.94-52.34,0l38.54-4.2C124.92,464.52,136.95,467.06,138.72,468.71z"/>
	<path class="st54" d="M106.03,478.32c0,0,20.43,7.18,44.5,1.66l-17.78-4.42L106.03,478.32z"/>
	<path class="st54" d="M119.39,425.53c0,0-34.12,7.18-63.39,0.99s-34.64-21.06-34.64-21.06s38.28,12.99,78.04,12.66L119.39,425.53z"
		/>
	<path class="st54" d="M9.59,378.68c0,0,25.44,16.82,93.13,22.45l14.47,6.96c0,0-44.06,5.08-72.77-1.33S9.59,378.68,9.59,378.68z"/>
	<path class="st54" d="M5.47,361.15c0,0,3.94,12.37,53.63,15.57s56.76,9.61,56.76,9.61l3.75,6.18c0,0-21.75-7.4-33.57-3.98
		s-63.83-8.17-63.83-8.17S8.71,375.18,5.47,361.15z"/>
	<path class="st54" d="M124.58,391.19c0,0-21.98-24.4-76.97-25.95l-4.97-2.87c0,0-6.48-4.23-7.44-13.88c0,0,5.78,8.02,44.43,16.64
		S124.58,391.19,124.58,391.19z"/>
	<path class="st54" d="M48.17,496.76c0,0,36.55-4.09,65.93-14.02l-1.66,1.21c0,0-27.72,12.37-22.86,16.01
		C89.58,499.96,59.76,505.37,48.17,496.76z"/>
	<path class="st54" d="M72.32,510.6c0,0,20.13,3.94,37.69,3.5l-4.2-10.6C105.81,503.5,96.57,512.3,72.32,510.6z"/>
	<path class="st54" d="M127.24,497.98l-0.66-4.86l-5.96,1.66l4.42-6.29c0,0,24.07,9.39,66.7,2.98l-5.74,13.25l22.75-3.53l1.99,11.48
		l-4.42-7.51l-23.96,2.54c0,0,10.12,5.93,9.61,6.18s-12.92,4.31-12.92,4.31s9.06,5.96,20.1,9.5c0,0-21.31-2.43-34.34-12.7l12.59-3.2
		l-12.15-5.63l9.72-5.96c0,0-20.76,0.77-32.8-1.66l-8.28,5.96l21.53-0.11l-4.75,3.42l-19.88,3.75l-2.43-0.77l-7.14-5.34
		C121.2,505.45,125.69,503.39,127.24,497.98z"/>
	<path class="st54" d="M167.87,519.73c0,0,11.37,16.12,31.8,18.99c0,0-4.31,1.25-5.74,4.27c0,0,16.34,3.02,28.16-4.16l-4.2,6.07
		c0,0-14.25,6.52-29.82,4.2s-32.91-13.69-32.91-13.69l4.64-1.55l-2.43-2.76l3.53-2.43l-5.74-1.99L167.87,519.73z"/>
	<path class="st54" d="M420.2,376.95c0,0-24.96,2.21-25.29,4.31c-0.33,2.1,27.72,5.08,27.72,5.08s-36.66-4.09-43.84,4.31l-10.82-3.2
		c0,0,0.99-2.65,3.53-3.09c2.54-0.44,19.55-4.53,19.55-4.53s-19.44,0.11-25.18-5.52C365.87,374.3,382.88,379.82,420.2,376.95z"/>
	<path class="st54" d="M371.95,417.69c0,0-7.84-5.19-22.75-2.65l4.75,3.64c0,0-7.4,0.77-9.06,2.54l-0.77-12.81
		c0,0,4.16-6.44,18.18-8.65L371.95,417.69z"/>
	<g>
		<g>
			<g>
				<path class="st3" d="M250.62,468.49c-1.51-0.32-2.73-0.7-4.01-1c-1.29-0.35-2.64-0.59-4.37-0.93c-0.59-0.12-1.55-0.24-2.7-0.54
					c-0.84-0.2-1.71-0.41-2.61-0.62c-7.09-1.82-14.15-4.74-21.04-8.33c-0.86-0.44-1.73-0.89-2.6-1.33
					c-0.87-0.45-1.69-0.98-2.55-1.47c-1.69-1-3.4-2-5.11-3.01c-1.65-1.11-3.31-2.22-4.98-3.33l-2.5-1.68
					c-0.83-0.56-1.62-1.2-2.43-1.8c-3.22-2.45-6.53-4.83-9.6-7.55c-1.57-1.32-3.14-2.65-4.71-3.97c-1.57-1.34-3.03-2.8-4.55-4.2
					c-1.51-1.41-3.02-2.83-4.53-4.25c-1.52-1.41-2.91-2.97-4.37-4.45c-2.89-3-5.79-6.01-8.68-9.02
					c-5.8-6.02-11.59-12.04-17.33-18.01c-2.89-2.97-5.74-5.94-8.67-8.85l-0.57-0.55l-0.31-0.29l-0.08-0.07
					c-0.06-0.05,0.01,0-0.15-0.12c-0.16-0.12-0.37-0.21-0.57-0.26c-0.26-0.17-0.33,1.92-0.05,0.62c0.34-0.21,0.64-0.65,0.46-0.46
					l-0.03-0.03l-0.11-0.11l-0.26-0.26l-0.54-0.55c-0.73-0.74-1.49-1.46-2.26-2.16c-1.54-1.39-3.15-2.7-4.81-3.91
					c-6.65-4.87-14.05-8.37-21.54-10.74c-3.75-1.18-7.54-2.09-11.3-2.76c-1.85-0.34-3.69-0.67-5.51-1.01
					c-1.81-0.37-3.61-0.73-5.4-1.09c-7.12-1.52-13.94-3.27-20.4-5.11c-6.46-1.85-12.58-3.78-18.28-5.74c-1.43-0.51-2.83-1-4.22-1.49
					c-0.69-0.26-1.38-0.51-2.07-0.77l-1.03-0.39l-0.26-0.1c-0.01,0.06,0,0.15,0,0.24l0.02,0.5c0.02,0.65,0.04,1.35,0.11,1.98
					l0.13,0.95l0.06,0.44l0.06,0.28c0.58,2.94,1.8,5.65,3.48,7.91c1.37,1.81,3.13,3.27,4.99,4.38c0.48,0.26,0.95,0.52,1.42,0.77
					c0.48,0.21,0.98,0.39,1.46,0.59c0.95,0.43,1.95,0.61,2.89,0.87l0.35,0.09l0.18,0.05l0.09,0.02l0.04,0.01
					c-0.06,0.51,0.62-4.4,0.32-2.32l-0.01,0l-0.02,0c-0.23-0.02-0.45-0.04-0.68-0.05c-0.45-0.04-0.89-0.07-1.33-0.11
					c-0.87-0.07-1.7-0.14-2.5-0.2c-1.6-0.13-3.04-0.24-4.3-0.34c-5.01-0.4-6.91-0.55-2.88-0.23h0c-7.52-0.6-14.76-1.18-21.63-1.74
					c-3.8-0.3-7.49-0.59-11.08-0.87l-1.14-0.04c-0.07-0.02-0.06,0.03-0.04,0.08l0.04,0.14l0.07,0.28L4.22,361
					c0.17,0.75,0.43,1.46,0.64,2.19c0.31,0.89,0.59,1.59,0.94,2.36c0.31,0.76,0.72,1.46,1.07,2.19c0.4,0.7,0.8,1.39,1.21,2.06
					c1.7,2.66,3.76,4.97,6.02,6.82l0.83,0.7c0.3,0.21,0.59,0.41,0.89,0.61c0.59,0.4,1.17,0.81,1.76,1.18
					c0.62,0.33,1.22,0.65,1.82,0.98c0.3,0.16,0.6,0.32,0.9,0.48c0.31,0.12,0.62,0.25,0.93,0.37c1.23,0.49,2.42,1,3.64,1.27
					c0.6,0.16,1.2,0.32,1.78,0.48c0.58,0.18,1.18,0.21,1.76,0.31c0.58,0.09,1.15,0.17,1.71,0.26c0.28,0.04,0.56,0.08,0.83,0.12
					c0.14-1.04-0.28,2.32,0.32-2.32l-0.02,0l-0.05-0.01l-0.1-0.02l-0.2-0.03l-0.39-0.06c-1.04-0.17-2.05-0.34-3.02-0.5
					c-15.5-2.55-21.1-3.47-11.3-1.86v0c-1-0.16-1.99-0.33-2.97-0.49c-0.49-0.08-0.98-0.16-1.46-0.24l-1.17-0.19
					c-0.49-0.09-0.97-0.16-1.39-0.18l-0.65-0.06c-0.1,0-0.24-0.05-0.3,0l0.04,0.34l0.17,1.32l0.28,1.26l0.14,0.62l0.12,0.36
					c0.29,0.97,0.68,1.87,1.06,2.77c1.65,3.53,3.91,6.49,6.32,9.01c4.96,4.93,10.45,8.1,15.48,10.43c1.27,0.56,2.51,1.1,3.71,1.62
					c1.23,0.43,2.43,0.85,3.58,1.26c2.3,0.88,4.53,1.39,6.58,1.98c0.51,0.14,1.02,0.28,1.52,0.42l0.37,0.1l0.18,0.05l0.05,0.01
					l0.02,0.01c0.17-1.03-0.35,2.31,0.39-2.3l-0.09-0.01c-0.25-0.02-0.5-0.04-0.74-0.06c-0.98-0.09-1.91-0.17-2.81-0.25
					c-1.8-0.16-3.45-0.3-4.96-0.44c-12.06-1.06-14.79-1.3-9.84-0.86l0,0c-2.08-0.18-3.9-0.34-5.5-0.48
					c-0.59-0.05-1.17-0.1-1.72-0.15c-0.37-0.03-0.74-0.07-1.1-0.1c-0.31,0-0.62-0.01-0.93-0.01c-0.3,0-0.6,0-0.89-0.01l-0.11,0
					c-0.02,0-0.04,0-0.05,0l0.02,0.05l0.1,0.21l0.19,0.4c0.23,0.51,0.5,1.03,0.77,1.52c0.26,0.49,0.5,0.97,0.81,1.43
					c0.19,0.28,0.36,0.54,0.53,0.8c0.3,0.44,0.6,0.81,0.86,1.16c0.52,0.71,1.01,1.21,1.37,1.65c0.75,0.86,1.2,1.25,1.41,1.49
					c0.22,0.22,0.24,0.25,0.24,0.25s0.22,0.26,1.24,1.15c0.5,0.45,1.19,1.09,2.2,1.84c0.51,0.37,1.05,0.86,1.73,1.3
					c0.68,0.45,1.43,0.95,2.27,1.51c3.45,2.08,8.6,4.79,16.41,6.71c1.96,0.44,4.04,0.99,6.33,1.29c0.57,0.09,1.15,0.18,1.74,0.28
					c0.29,0.05,0.59,0.09,0.89,0.14l0.45,0.07l0.11,0.02c0.04,0.55,0.02-3.5-0.08-2.31l-0.01,0l-0.03,0l-0.15,0.02
					c-1.18,0.09-2.47,0.19-3.78,0.34c-2.62,0.3-5.4,0.74-8.32,1.53c-0.73,0.22-1.47,0.42-2.21,0.69c-0.37,0.13-0.75,0.25-1.12,0.42
					l-0.56,0.23c-0.26,0.1-0.67,0.28-0.98,0.45c-0.67,0.35-1.33,0.69-2.01,1.04c-0.08,0.04-0.18,0.09-0.25,0.13l0.21,0.2l0.41,0.39
					l0.83,0.78c0.29,0.26,0.58,0.52,0.9,0.78l0.61,0.5c0.33,0.25,0.67,0.51,1,0.76v0c1.18,0.87,2.84,2.06,5.59,3.63
					c2.74,1.57,6.55,3.58,12.15,5.63c5.59,2.05,12.98,4.16,22.74,5.42c1.22,0.15,2.48,0.3,3.77,0.45c1.29,0.16,2.63,0.2,4,0.31
					c0.68,0.05,1.38,0.09,2.08,0.14c0.35,0.02,0.71,0.05,1.06,0.07l0.27,0.02l0.13,0.01l0.03,0c-0.01,2.1,0.06-2.85,0.03-2.34
					l-0.07,0l-0.56,0.03c-1.47,0.08-2.95,0.22-4.48,0.39c-6.07,0.73-12.74,2.06-19.75,4.72l0,0c-0.72,0.25-1.43,0.57-2.18,0.88
					c-0.37,0.16-0.75,0.32-1.14,0.48c-0.12,0.05-0.15,0.05-0.34,0.15l-0.49,0.25c-0.33,0.17-0.67,0.34-1,0.51
					c-0.67,0.35-1.36,0.7-2.06,1.06l-0.53,0.27l-0.27,0.14l-0.13,0.07c-0.03,0.02-0.14,0.04-0.05,0.07
					c0.38,0.19,0.75,0.38,1.14,0.58c0.38,0.19,0.77,0.39,1.16,0.58c0.42,0.19,0.85,0.38,1.28,0.57l0.65,0.29l0.4,0.16
					c0.23,0.09,0.47,0.18,0.7,0.28c3.8,1.45,8.32,2.74,13.79,3.71c2.74,0.46,5.72,0.87,8.96,1.11c1.62,0.13,3.31,0.2,5.06,0.26
					c0.88,0.01,1.77,0.02,2.68,0.03l0.69,0.01l0.09,0l0.02,0c0.03,0.51-0.17-4.44-0.1-2.35l-0.05,0l-0.19,0.02l-0.36,0.04
					c-0.48,0.06-0.96,0.12-1.44,0.21c-1.92,0.32-3.89,0.83-5.87,1.64c-0.99,0.42-1.98,0.91-2.92,1.57l-0.71,0.5l-0.67,0.59
					c-0.23,0.19-0.45,0.4-0.64,0.64c-0.11,0.16-0.62,0.64-0.84,1.07c-0.28,0.45-0.56,0.9-0.84,1.35l-0.42,0.68
					c-0.08,0.07,0.06,0.06,0.11,0.09l0.2,0.06l0.39,0.11c0.53,0.15,1.06,0.3,1.59,0.45c0.4,0.11,0.81,0.22,1.22,0.32
					c1.1,0.28,2.23,0.55,3.38,0.81c2.3,0.51,4.69,0.98,7.19,1.37v0c2.06,0.31,4.19,0.62,6.76,0.83c0.64,0.07,1.31,0.11,2.02,0.15
					c0.43,0.03,0.89,0.05,1.36,0.08c0.38,0.01,0.19,0.01,0.24,0.01l0.01-0.01c-0.19,0.14-0.39,0.28-0.59,0.42
					c-0.41,0.32-0.83,0.65-1.22,1.04c-0.39,0.39-0.78,0.81-1.1,1.31c-0.08,0.13-0.16,0.23-0.25,0.39l-0.28,0.67
					c-0.2,0.44-0.35,0.91-0.48,1.38l-0.1,0.35l-0.05,0.18l-0.03,0.09c0.01,0.02,0.05,0.02,0.08,0.04l0.73,0.23
					c0.48,0.16,0.98,0.31,1.48,0.46c0.52,0.14,1.04,0.29,1.57,0.44c4.21,1.11,8.96,2.03,14.57,2.6c0.82,0.07,1.65,0.13,2.66,0.22
					c0.86,0.07,1.73,0.08,2.75,0.14c1.23,0.06,2.48,0.03,3.76,0.05c1.29-0.06,2.62-0.05,4.02-0.18c0.71-0.06,1.42-0.11,2.13-0.17
					l0.13-0.01l0.07-0.01l0.01,0c0.31,2.08-0.42-2.83-0.35-2.33l-0.02,0l-0.03,0.01l-0.27,0.06l-0.53,0.11l-1.05,0.23
					c-1.4,0.32-2.8,0.68-4.2,1.07c-1.4,0.39-2.8,0.82-4.19,1.33c-0.7,0.24-1.39,0.53-2.08,0.83l-1.03,0.48
					c-0.36,0.21-0.58,0.29-1.29,0.73c-0.53,0.4-1.03,0.82-1.54,1.23l-0.74,0.67l-0.37,0.33l-0.18,0.16l-0.04,0.04
					c0.01,0.01,0.04,0.02,0.06,0.03l0.12,0.05l1.93,0.77l0.99,0.37l0.9,0.31c1.39,0.46,2.78,0.88,4.18,1.25
					c1.39,0.4,2.8,0.7,4.18,1.04c1.4,0.29,2.78,0.57,4.15,0.85l0,0c6.46,1.18,13.12,1.85,17.64,2.03
					c10.92,0.63,22.06-0.05,33.08-1.63l2.07-0.31l0.93-0.14l-0.02,0c-0.01,0-0.01,0,0-0.01l0,0l0,0c0,0.01,0.02-0.04-0.03,0.07
					l-0.4,0.96l-3.54,8.39l-0.81,1.92l-0.4,0.96l-0.1,0.24l-0.05,0.12c0.03,0,0.08-0.02,0.12-0.03l0.5-0.16l3.96-1.28l4.09-1.32
					c2.63-0.85,5.25-1.69,7.87-2.54c2.62-0.84,5.23-1.69,7.83-2.53c1.3-0.42,2.6-0.84,3.9-1.26l0.2-0.06l0,0l0,0l0,0l0-0.01
					l0.11,0.99c0.29,2.7,0.58,5.39,0.86,8.06l0.19,1.8l0.11,1.01l0.05,0.5l0.03,0.25c0.04,0.03,0.14-0.06,0.21-0.08l3.21-1.61
					c1.2-0.6,2.39-1.2,3.58-1.8c0.7-0.35,1.39-0.7,2.05-1.03c1.56-0.79,2.88-1.45,3.6-1.81c3.21-1.63,4.85-2.91,7.2-4.92
					c-3.02,0.68-5.02,1.23-8.25,2.83c-0.72,0.36-2.04,1.02-3.6,1.8c-0.66,0.33-1.35,0.68-2.05,1.03c-1.19,0.6-2.38,1.2-3.58,1.8
					l-0.39,0.2l0,0l0.01,0l0,0.01l0,0v0l-0.02-0.21c-0.29-2.67-0.57-5.36-0.86-8.06l-0.33-3.07l-0.05-0.51l-0.03-0.25
					c-0.05-0.03-0.15,0.04-0.23,0.05l-0.98,0.31l-1.75,0.56c-1.3,0.42-2.6,0.84-3.9,1.26c-2.6,0.84-5.21,1.68-7.83,2.53
					c-2.62,0.84-5.24,1.69-7.87,2.54l-3.79,1.22c0.01,0,0.02-0.01,0.01,0.01l2.91-6.91l1.18-2.8l0.81-1.92
					c0.17-0.24-0.11-0.13-0.27-0.12l-0.52,0.08l-1.03,0.15l-5.23,0.78c-10.88,1.56-21.87,2.23-32.62,1.61
					c-4.45-0.17-11-0.83-17.34-1.99v0c-1.34-0.28-2.7-0.55-4.07-0.83c-1.35-0.34-2.73-0.62-4.08-1.02
					c-1.36-0.36-2.71-0.77-4.05-1.21l-0.12-0.04l0,0l0,0l0,0l0.01,0l-0.01,0.01l0.59-0.32l0.93-0.43c0.63-0.27,1.27-0.54,1.94-0.77
					c1.31-0.48,2.66-0.9,4.02-1.28c1.36-0.38,2.72-0.73,4.08-1.04l1.02-0.23l0.51-0.11l0.25-0.05l0.03-0.01l0.02,0
					c0.08,0.5-0.67-4.4-0.35-2.33l-0.01,0l-0.06,0.01l-0.13,0.01c-0.69,0.06-1.38,0.11-2.06,0.17c-1.35,0.12-2.64,0.11-3.89,0.17
					c-1.25-0.02-2.45,0.01-3.65-0.05c-0.99-0.05-1.83-0.06-2.67-0.13c-0.98-0.08-1.78-0.14-2.58-0.21
					c-5.46-0.55-10.11-1.46-14.19-2.53c-0.5-0.14-1-0.28-1.49-0.41l0.01,0c0,0,0,0,0,0l0-0.01l0.16-0.23
					c0.21-0.33,0.49-0.65,0.79-0.94c0.3-0.3,0.64-0.57,0.98-0.84l0.27-0.19l0.13-0.1c0.05-0.04,0.06-0.05,0.19-0.12
					c0.41-0.25,0.82-0.5,1.23-0.74c0.48-0.24,0.95-0.47,1.43-0.71c0.23-0.12,0.56-0.24,0.84-0.35l0.22-0.09
					c0.01-0.03-0.01-0.05-0.01-0.08l-0.03-0.16l-0.14-0.7l-0.03-0.16l-0.04-0.21c-0.04-0.21-0.07-0.41-0.1-0.6l-0.05-0.29
					l-0.01-0.07c-0.04-0.01-0.2,0-0.28-0.01l-0.58-0.01c-0.76-0.01-1.51-0.02-2.24-0.04c-0.69-0.01-1.36-0.03-2.02-0.04
					c-0.36-0.02-0.71-0.05-1.05-0.07c-0.68-0.05-1.34-0.08-1.96-0.15c-2.51-0.21-4.59-0.51-6.6-0.81v0
					c-2.44-0.38-4.79-0.84-7.04-1.34c-1.12-0.25-2.23-0.51-3.3-0.79l-0.4-0.1c-0.01,0,0,0,0,0l0,0l0,0.01
					c-0.11,0.17,0.3-0.42,0.65-0.67l0.53-0.47l0.58-0.41c0.78-0.54,1.63-0.97,2.5-1.34c1.75-0.72,3.57-1.2,5.34-1.49
					c0.44-0.08,0.88-0.14,1.32-0.19L99,463.5l0.15-0.01l0.04,0c0.09,2.1-0.1-2.86-0.09-2.35l-0.02,0l-0.08,0l-0.67-0.01
					c-0.89-0.01-1.77-0.02-2.62-0.03c-1.71-0.06-3.36-0.13-4.94-0.26c-3.17-0.23-6.06-0.64-8.73-1.08
					c-5.33-0.95-9.72-2.2-13.36-3.59c-0.23-0.09-0.45-0.18-0.67-0.26l-0.28-0.11l0,0l0,0l0,0l0.09-0.04l0.17-0.08l0.08-0.04
					l0.27-0.12c0.37-0.16,0.74-0.31,1.1-0.47c0.72-0.3,1.41-0.61,2.1-0.85v0c6.75-2.57,13.27-3.87,19.18-4.58
					c1.48-0.18,2.93-0.31,4.33-0.38l0.51-0.02l0.06,0c0.02,0.51,0.03-4.44,0-2.35l-0.03,0l-0.13-0.01l-0.26-0.02
					c-0.35-0.02-0.7-0.05-1.04-0.07c-0.69-0.05-1.37-0.09-2.05-0.14c-1.34-0.11-2.66-0.14-3.92-0.3c-1.27-0.15-2.5-0.3-3.7-0.44
					c-9.58-1.24-16.8-3.29-22.24-5.29c-5.45-2-9.14-3.95-11.79-5.46c-2.65-1.52-4.24-2.65-5.36-3.48v0
					c-0.32-0.24-0.64-0.48-0.95-0.72l-0.23-0.19l-0.1-0.08l0,0l0,0l0,0l0.57-0.24c0.33-0.15,0.68-0.26,1.02-0.38
					c0.68-0.25,1.38-0.44,2.05-0.65c2.75-0.74,5.43-1.17,7.96-1.46c1.28-0.15,2.48-0.24,3.73-0.34l0.3-0.03l0.08-0.01l0.04-0.01
					c0.09,2.06-0.07-2.82-0.07-2.31l-0.11-0.02l-0.44-0.07c-0.29-0.05-0.58-0.09-0.87-0.14c-0.57-0.09-1.14-0.18-1.69-0.27
					c-2.23-0.29-4.24-0.83-6.14-1.25c-7.56-1.86-12.47-4.45-15.75-6.43c-0.8-0.53-1.52-1.01-2.16-1.44
					c-0.65-0.41-1.15-0.87-1.64-1.23c-0.96-0.71-1.6-1.31-2.08-1.74c-0.96-0.84-1.16-1.08-1.16-1.08s-0.02-0.02-0.22-0.23
					c-0.19-0.22-0.62-0.59-1.32-1.39c-0.33-0.41-0.8-0.88-1.27-1.53c-0.24-0.32-0.52-0.67-0.79-1.06c-0.11-0.16-0.22-0.33-0.35-0.52
					c1.5,0.13,3.48,0.31,6.1,0.54v0c-4.95-0.43-2.21-0.19,9.84,0.87c1.51,0.13,3.16,0.28,4.96,0.44c0.9,0.08,1.84,0.16,2.81,0.25
					c0.24,0.02,0.49,0.04,0.74,0.06l0.09,0.01c0.76-4.61,0.2-1.28,0.36-2.31l-0.02-0.01l-0.04-0.01l-0.18-0.05l-0.36-0.1
					c-0.48-0.13-0.98-0.27-1.48-0.41c-2-0.58-4.19-1.07-6.42-1.93c-1.13-0.4-2.29-0.8-3.49-1.22c-1.16-0.51-2.36-1.03-3.59-1.57
					c-4.86-2.25-10.11-5.3-14.78-9.94c-2.26-2.37-4.36-5.12-5.86-8.34c-0.34-0.82-0.7-1.64-0.95-2.49
					c-0.24-0.75-0.13-0.44-0.16-0.51c1.54,0.25,3.11,0.51,4.72,0.78v0c-9.8-1.61-4.19-0.69,11.3,1.86c0.97,0.16,1.98,0.32,3.02,0.5
					l0.39,0.06l0.2,0.03l0.1,0.02l0.05,0.01l0.02,0c0.61-4.65,0.15-1.29,0.28-2.33c-0.26-0.04-0.52-0.08-0.78-0.12
					c-0.52-0.08-1.06-0.16-1.6-0.24c-0.54-0.1-1.1-0.12-1.64-0.29c-0.54-0.15-1.09-0.29-1.65-0.45c-1.14-0.25-2.23-0.72-3.37-1.17
					c-0.28-0.11-0.57-0.22-0.86-0.34c-0.27-0.15-0.55-0.29-0.82-0.44c-0.55-0.29-1.11-0.59-1.68-0.89
					c-0.54-0.34-1.07-0.72-1.61-1.09l-0.81-0.56l-0.76-0.65c-2.08-1.69-3.98-3.81-5.55-6.28c-0.38-0.62-0.75-1.26-1.12-1.91
					c-0.32-0.67-0.7-1.32-0.99-2.02c-0.15-0.35-0.31-0.69-0.45-1.05l-0.38-1.02c-0.03-0.09-0.02-0.07-0.02-0.07
					c2.9,0.23,5.89,0.47,8.96,0.72c6.88,0.55,14.12,1.13,21.63,1.74l0,0c-4.04-0.32-2.13-0.17,2.88,0.23c1.25,0.1,2.7,0.22,4.3,0.35
					c0.8,0.06,1.63,0.13,2.5,0.2c0.43,0.03,0.88,0.07,1.33,0.11c0.22,0.02,0.45,0.04,0.68,0.05l0.02,0l0.01,0
					c-0.28,2.08,0.4-2.83,0.32-2.32l-0.04-0.01l-0.08-0.02l-0.16-0.04l-0.32-0.08c-0.85-0.24-1.75-0.39-2.58-0.78
					c-0.42-0.17-0.86-0.33-1.29-0.51c-0.41-0.22-0.82-0.45-1.23-0.67c-1.61-0.96-3.12-2.21-4.31-3.77
					c-1.44-1.94-2.53-4.33-3.04-6.94l-0.07-0.32l-0.02-0.1c-0.01-0.05,0-0.01,0-0.02l-0.01,0c1.38,0.49,2.78,0.98,4.21,1.49
					c5.74,1.98,11.89,3.92,18.4,5.78c6.51,1.86,13.37,3.62,20.56,5.15c1.8,0.36,3.62,0.73,5.45,1.1c1.83,0.33,3.68,0.67,5.55,1.01
					c3.67,0.65,7.35,1.54,11,2.69c7.28,2.31,14.45,5.7,20.86,10.4c1.6,1.17,3.15,2.42,4.63,3.76c0.74,0.67,1.46,1.36,2.17,2.07
					l0.53,0.54l0.28,0.28l0.16,0.16l0.11,0.1c0.07,0.05-0.05,0.01,0.34,0.23c-0.12-0.06,0.1,0.11,0.28,0.28l0.54,0.52
					c2.88,2.86,5.75,5.84,8.63,8.81c5.74,5.97,11.53,11.98,17.32,18c2.9,3.01,5.8,6.03,8.7,9.04c1.47,1.49,2.87,3.05,4.4,4.48
					c1.53,1.43,3.05,2.86,4.57,4.29c1.54,1.41,3.01,2.89,4.59,4.24c1.59,1.34,3.18,2.68,4.76,4.02c3.1,2.75,6.46,5.16,9.72,7.64
					c0.82,0.61,1.62,1.25,2.46,1.83c0.85,0.57,1.69,1.14,2.54,1.7c1.69,1.13,3.37,2.26,5.05,3.38c1.74,1.02,3.47,2.05,5.19,3.06
					c0.87,0.5,1.71,1.04,2.59,1.5c0.89,0.45,1.77,0.91,2.65,1.36c7.02,3.65,14.22,6.64,21.53,8.51c0.93,0.22,1.83,0.43,2.7,0.64
					c1.18,0.31,2.19,0.44,2.8,0.55C245.43,469.47,247.62,469.28,250.62,468.49z"/>
			</g>
		</g>
	</g>
	<path class="st45" d="M95.28,471.29c0,0-25.91,7.8-47.12,25.47c0,0,13.99,8.69,24.74,10.45l-1.18,3.24c0,0,20.47,5.15,38.72,3.53"
		/>
	<path class="st55" d="M166.11,535.04c-4.86-0.88-25.62-3.24-33.72-1.91s-11.04-1.62-11.04-1.62c-8.83-6.77-16.64-31.8-16.64-31.8
		l21.79-6.18c0,0,2.5,7.51-5.3,11.93c0,0,10.16,4.42,9.13,11.93c0,0,13.4-4.27,23.85-3.39"/>
	<path class="st45" d="M156.83,533.57l-2.06,1.62c0,0,17.23,12.37,34.6,14.14c17.37,1.77,28.56-4.86,28.56-4.86l-0.44,2.65
		c0,0,11.63-0.74,19.73-4.86l1.03,4.12c0,0,10.6-2.8,16.05-7.66c0,0,20.32-6.63,29.89-12.66"/>
	<polyline class="st45" points="129.44,511.78 152.41,507.22 148.73,513.25 	"/>
	<path class="st45" d="M366.2,386.48c3.68-3.09,26.72-6.77,26.72-6.77c-32.17-0.15-28.93-8.54-28.93-8.54
		c11.48-8.98,104.54-10.6,106.31,10.31c1.77,20.91-27.09,46.23-27.09,46.23"/>
	<g>
		<path d="M347.65,470.26c-29.93,2.67-26.24,12.58-5.59,28.48c0,0,0.3,0.23,0.3,0.23s-0.16,0.34-0.16,0.34
			c-3.56,7.73-8.24,15.04-14.53,20.82c-0.92,0.99-2.11,1.87-2.36,3.03c0.01,0.1,0.03,0.18,0.16,0.31c1.2,0.94,2.98,1.3,4.54,1.37
			c7.14-0.17,14.16-2.73,21.42-2.87c0,0,0.54-0.03,0.54-0.03s0.33,0.45,0.33,0.45c6.78,8.88,16.24,15.69,26.79,19.38
			c10.61,4.63,19.76,11.81,27.89,19.97c0,0-1.63,0.26-1.63,0.26l2.94-6.18l0.45-0.94c2.94,1.6,6.11,2.9,9.33,4.05
			c8.64,3.08,17.78,4.95,26.88,6.04c0,0-0.98,1.5-0.98,1.5c-1.08-1.88-4.48-7.66-5.46-9.36c0,0,2.51,0.84,2.51,0.84
			c10.7,3.65,21.42,7.26,31.64,12.13c0,0-1.44,1-1.44,1c-2.48-12.47-10.55-23.16-19.09-32.29c-9.17-9.44-18.59-18.87-28.77-27.18
			c0.41-0.48,2.88-3.18,3.35-3.72c0,0,0.14,1.46,0.14,1.46c-3.14-2.31-6.49-4.48-9.79-6.58c0,0-1.98-1.25-1.98-1.25
			c6.18-1.82,12.7-1.73,18.9-0.24c1.81,0.41,3.57,0.99,5.32,1.62l-0.64-0.02c5.07-1.51,10.3-2.54,15.6-2.83
			c16.14-1.18,31.91,5.76,42.83,17.53c2.43,3.46,4.76,7.07,7.59,10.22c0.31,0.3,0.55,0.59,0.86,0.78c-0.05-0.01-0.06-0.06-0.37-0.02
			c-0.14,0.02-0.31,0.12-0.41,0.22c-0.05,0.05-0.09,0.11-0.12,0.17c0.57-4.47-0.09-9.18-0.54-13.7c-1.15-9.56-3.15-19.04-5.71-28.34
			c-1.28-4.59-3.27-8.95-5.69-13.05c-7.73-12.75-18.74-23.43-30.72-32.18c4.24-2.39,8.59-4.83,12.47-7.67
			c0.72-0.57,1.67-1.26,2.1-1.93c0.03-0.04,0-0.06,0,0.11c0.02,0.11,0,0.17,0.14,0.37c-11.28-1.89-24.92-2.08-37.04-2.67
			c3.04-3.18,6.52-6.31,8.87-10.02c0.04-0.08,0.06-0.16,0.06-0.14c0,0-0.02,0.06,0.01,0.19c0.02,0.09,0.04,0.16,0.14,0.31
			c0.13,0.15,0.12,0.12,0.17,0.16c0.07,0.04-0.02-0.01-0.11-0.03c-4.22-0.76-8.86-0.59-13.21-0.57c-8.66,0.23-17.41,0.95-25.85,2.89
			c0,0-0.84,0.2-0.84,0.2s-0.33-0.82-0.33-0.82c-9.7-22.33-32.41-35.18-56.24-36.16c0,0,0.86-1.59,0.86-1.59
			c3.92,5.51,7.53,11.18,10.95,16.99c8.74,15.47,20.77,39.32,16.13,57.35c-8.25,11.27-42.61,12.49-56.16,12.82
			c15.7-0.81,39.66-1.91,52.83-10.76c0.75-0.58,2.06-1.77,2.32-2.33c0.84-3.18,1.02-6.51,0.82-9.8
			c-1.61-20.95-16.69-45.9-28.51-63.09c0,0-1.21-1.7-1.21-1.7s2.07,0.11,2.07,0.11c21.4,0.9,42.05,11.04,53.72,29.36
			c1.64,2.57,3.12,5.18,4.29,8.1l-1.17-0.63c8.63-1.98,17.45-2.7,26.27-2.94c4.5-0.03,8.8-0.17,13.33,0.53
			c0.41,0.15,0.65,0.08,1.12,0.39c0.72,0.43,0.68,1.4,0.35,2c-2.03,3.45-4.96,6.11-7.67,8.99c0,0-0.67-1.71-0.67-1.71
			c8.83,0.35,17.64,0.76,26.46,1.49c3.13,0.4,6.37,0.33,9.39,1.5c1.63,1.06,0.07,2.81-0.84,3.55c-3.93,3.23-8.36,5.65-12.7,8.14
			c0,0,0.09-1.69,0.09-1.69c13.6,10.28,26.18,22.79,33.42,38.43c0.99,2.26,1.83,4.6,2.5,6.98c3.47,12.92,6.25,26.2,6.53,39.64
			c-0.07,1.32,0.1,2.73-0.5,3.97c-0.66,0.96-1.77,0.51-2.41-0.11c-3.07-3.05-6.25-7.89-8.3-10.91
			c-15.02-16.06-35.62-20.64-56.41-14.16c0,0-0.32,0.09-0.32,0.09l-0.33-0.12c-4.96-1.85-10.28-2.82-15.57-2.57
			c-1.74,0.08-3.55,0.28-5.15,0.68l0.26-1.81c3.38,2.15,6.69,4.29,9.94,6.68c0,0,0.87,0.65,0.87,0.65s-0.74,0.82-0.74,0.82
			s-2.65,2.94-2.65,2.94l-0.13-1.46c10.02,8.29,19.12,17.4,28.15,26.7c9.13,9.78,18.09,21.69,19.9,35.31c0,0-1.7-0.84-1.7-0.84
			c-10.1-4.81-20.79-8.41-31.37-12.02c0,0,1.18-1.45,1.18-1.45s4.12,7.07,4.12,7.07l1.03,1.76c-1.22-0.19-5.33-0.69-6.64-0.88
			c-10.81-1.7-21.52-4.3-31.37-9.22c0,0,1.39-0.44,1.39-0.44s-2.94,6.18-2.94,6.18s-0.62,1.3-0.62,1.3
			c-4.19-4.4-8.83-8.45-13.75-12.07c-4.54-3.32-9.35-6.29-14.48-8.47c-5.4-2.01-10.63-4.52-15.26-7.98
			c-4.67-3.43-8.87-7.38-12.4-12.09c0,0,0.87,0.42,0.87,0.42c-4.76,0.19-9.46,0.95-14.22,1.81c-3.57,0.57-7.6,1.33-11.16-0.14
			c-0.95-0.38-2.33-1.11-2.36-2.43c-0.01-0.5,0.16-0.9,0.33-1.23c1.46-2.24,3.41-3.5,5.15-5.36c5.05-5.07,8.92-11.29,12.04-17.69
			c0,0,0.14,0.57,0.14,0.57C321.21,483.34,316.81,472.38,347.65,470.26L347.65,470.26z"/>
	</g>
	<path class="st45" d="M362.08,399.44c0,0-11.41,1.69-17.63,8.21c0,0-4.01-33.83-17.12-48.11c0,0,5.89-11.19-1.03-17.96
		c0,0,11.93-26.5,9.87-29.74c-2.06-3.24-7.66-2.36-7.66-2.36"/>
	<path class="st45" d="M371.21,416.66c0,0-7.95-4.56-22.67-1.77l6.33,3.83c0,0-13.55-4.12-29.3,23.26
		c-14.13,24.29-47.12,11.63-47.12,11.63s0.37,6.11,4.82,8.36l-9.39,0.18"/>
	<polygon class="st56" points="295.38,530.48 287.87,512.81 294.06,512.07 302.89,527.53 	"/>
	<polygon class="st56" points="261.08,457.89 275.8,477.18 277.71,474.09 264.46,453.77 	"/>
</g>
</svg>
