<svg version="1.1" xmlns="http://www.w3.org/2000/svg" xmlns:xlink="http://www.w3.org/1999/xlink" x="0px" y="0px"
	 viewBox="0 0 510.24 595.28" style="enable-background:new 0 0 510.24 595.28;" xml:space="preserve">
<style type="text/css">
	.st0{fill:#F18A0E;}
	.st1{fill:#F7A800;}
	.st2{fill:#B2B6B7;}
	.st3{fill:#A80000;}
	.st4{fill:#DA211E;}
	.st5{fill:#E0E0E0;}
	.st6{fill:#FFFFFF;}
	.st7{fill:#728033;}
	.st8{fill:#4C4530;}
	.st9{fill:#332E20;}
	.st10{fill:#769299;}
	.st11{fill:#AF8F51;}
	.st12{fill:#A6D8E0;}
	.st13{fill:#EFBD65;}
	.st14{fill:#F5EFDD;}
	.st15{fill:#C60B26;}
	.st16{fill:#DECBB2;}
	.st17{fill:#E79090;}
	.st18{fill:#C1A88E;}
	.st19{fill:#8E0103;}
	.st20{fill:#99B541;}
	.st21{fill:#685F3C;}
	.st22{fill:#877846;}
	.st23{fill:#1D1D1D;}
	.st24{fill:#FFD346;}
	.st25{fill:#BCD362;}
	.st26{fill:#720000;}
	.st27{fill:#506468;}
	.st28{fill:#64A6B5;}
	.st29{fill:#603429;}
	.st30{fill:#8C3D30;}
	.st31{fill:#E88D0A;}
	.st32{fill:#963600;}
	.st33{fill:#FFD664;}
	.st34{fill:#FF621D;}
	.st35{fill:#BA4D38;}
	.st36{fill:#2B1915;}
	.st37{fill:#818A8C;}
	.st38{fill:#3A3426;}
	.st39{fill:#606D72;}
	.st40{fill:#1D1D1B;}
	.st41{fill:#3F4147;}
	.st42{fill:#B5AD95;}
	.st43{fill:#EFE8C5;}
	.st44{fill:#7F7A78;}
	.st45{fill:#A5A5A5;}
	.st46{fill:#ED7601;}
	.st47{fill:#D64422;}
	.st48{fill:#FF871A;}
	.st49{fill:#FFA255;}
	.st50{fill:#4F4B48;}
	.st51{fill:#7A6661;}
	.st52{fill:#F42A2A;}
	.st53{fill:#11100F;}
</style>
<g id="left-wing_1_">
	<g>
		<path class="st0" d="M331.08,367.79c0,0,20.83,10.77,17.54,46.97c-2.84,31.53-16.4,19.11-18.93,10.89c0,0-8.7,12.55-24.57-11.58
			C289.25,389.95,297.68,357.14,331.08,367.79z"/>
		<path d="M339.25,436.61c-4.27,0-8.16-4.24-10.12-8.3c-1.33,1.04-3.35,2.14-6.15,2.1c-5.96-0.07-12.39-5.29-19.12-15.51
			c-9.41-14.31-10.62-32.12-2.86-42.34c6.27-8.27,17.11-10.46,30.53-6.19l0.23,0.1c0.89,0.46,21.69,11.65,18.34,48.43
			c-1.25,13.81-4.67,21.11-10.19,21.69C339.7,436.6,339.47,436.61,339.25,436.61z M330.22,422.31l0.9,2.89
			c1.28,4.16,5.27,8.73,8.49,8.39c1.76-0.18,6.02-2.4,7.52-18.97c3.07-33.72-14.91-44.49-16.63-45.44
			c-12.06-3.81-21.67-1.97-27.1,5.18c-7.01,9.25-5.76,25.6,2.98,38.88c7.63,11.59,13.24,14.1,16.6,14.16
			c3.55,0.09,5.41-2.51,5.49-2.62L330.22,422.31z"/>
	</g>
	<path class="st1" d="M315.57,419.85c0,0,17.68-0.24,28.87-9.44c0.17,8.63-0.61,16.43-4.82,18.84c-6.27,2.86-9.39-11.59-9.39-11.59
		s-1.1,4.94-4.05,6.77C320.38,428.03,317.11,422.44,315.57,419.85z"/>
	<path class="st2" d="M294.45,389.22c0,0,1.15,6.65,23.88-1.51s21.92-12.27,21.92-12.27s11.07-0.11,13.08,16.42
		s-44.4,23.54-44.4,23.54s-17.2,3.52-19-9.54C288.12,392.79,294.45,389.22,294.45,389.22z"/>
	<path class="st3" d="M343.15,375.27c0,0-7.22-21.77-26.74-16.94c-19.51,4.83-22.76,34.91-22.76,34.91s-1.82,5.09,12.38,2.88
		C321.34,393.75,345.27,385.36,343.15,375.27z"/>
	<path class="st4" d="M309.01,392.59c0,0-1.49-24.11,11.12-29.81s19.55,15.83,19.55,15.83S331.84,389.43,309.01,392.59z"/>
	<path class="st5" d="M299.93,399.53c0,0,19.72-1.37,34.69-9.82c9.49-5.64,10.06-10.63,10.6-10.75c0,0,4.6,1.34,5.94,11.34
		s-18.48,16.48-18.48,16.48S303.14,416.36,299.93,399.53z"/>
	<path class="st6" d="M320.89,396.41l-3.49-1.76l7.58-0.96l-1.61-2.08l6.5,0.34l-1.33-1.82l5.64,0.11l-0.87-2.88l5.51,0.04
		l-0.63-2.83l3.4,1.36c0,0-0.27-4.28,0.1-4.16c0.37,0.13,2.51,1.98,2.51,1.98l0-5.09l3.09,4.08l1.93-2.13l0.1,5.06l1.63-0.9
		l-0.15,3.43l1.04,1.04l-2.25,3.26l0.87-3.27l-1.69-0.36l1.01-2.13l-1.37,1.05l-0.22-2.5l-2.58-2.81l0.64,3.88l-3.32-2.01l0.51,3.81
		l-3.09-1.53l0.68,3.03l-5.21-0.74l0.95,3.71l-4.9-0.91l1.37,2.02l-6.17-0.42l1.41,1.7l-6.97,0.61L320.89,396.41z"/>
	<path d="M338.09,384.47c2.35-2.13,4.89-6.27,3.82-8.78c-1.45-2.74-2.72-5.7-4.67-8.15c-5.78-8.06-15.52-10.67-24.43-6.27
		c-5.64,2.75-9.61,8.15-12.3,13.72c-2.77,5.77-4.66,12.69-5.39,18.77c0.34,2.62,8.72,2.35,10.92,2.37c-2.34,0.65-4.73,1.26-7.18,1.4
		c-3.67,0.39-7.45-1.27-6.71-4.44c1.22-8.41,3.65-16.61,8.13-23.87c8.93-14.96,28.49-18.32,39.36-3.49
		C345.07,373.22,347.5,379.01,338.09,384.47L338.09,384.47z"/>
	<path d="M304.69,417.03c-7.47,0-10.62-1.93-11.45-2.56c-1.08-0.57-4.94-3.24-5.29-12.64c-0.35-9.65,4.65-13.32,5.65-13.65
		l1.08-0.35l1.3,1.89l-0.75,0.9l-2.28-1.95l1.14,0.97l-1.14,0.92c0.51,0.62,1.33,0.64,1.73,0.42c-0.04,0.02-4.02,2.62-3.72,10.74
		c0.31,8.36,3.68,10.09,3.71,10.1l0.19,0.09l0.2,0.16c0.02,0.02,5.05,3.92,21.57,0.63c14.49-3.7,20.41-6.45,20.47-6.48l0.17-0.07
		c0.18-0.06,17.71-6.02,14.21-16.79c-3.53-10.84-8.04-11.44-8.08-11.44l0.07-3c0.67,0.02,6.65,0.53,10.87,13.51
		c4.33,13.3-14.4,19.99-16.03,20.54c-0.81,0.37-6.92,3.06-21,6.65C312.13,416.65,307.99,417.03,304.69,417.03z"/>
</g>
<g id="tail">
	<g>
		<path class="st1" d="M193.51,455.98c0,0-41.08-2.06-51.98-41.52s6.92-55.07,6.92-55.07s44.47,14.72,58.45,45.94
			S193.51,455.98,193.51,455.98z"/>
		<path d="M193.96,457.5l-0.52-0.03c-0.42-0.02-42.29-2.58-53.35-42.62c-11.02-39.91,6.62-55.93,7.38-56.6l0.65-0.57l0.81,0.27
			c1.84,0.61,45.25,15.29,59.35,46.75c14.33,31.97-13.62,52.29-13.9,52.49L193.96,457.5z M148.86,361.12
			c-2.91,3.18-15.21,19.12-5.87,52.94c9.83,35.6,45.35,39.96,50.09,40.38c3.47-2.65,25-20.55,12.47-48.5
			C193.06,378.08,155.1,363.38,148.86,361.12z"/>
	</g>
	<path class="st0" d="M165.54,445.96c0,0-19.44-11.04-24.29-39.61c0,0,21.64-5.74,21.94-39.02l16.79,8.98
		C179.97,376.32,187.18,439.49,165.54,445.96z"/>
</g>
<g id="body">
	<g>
		<path class="st24" d="M271.96,323.04c0,0,44.99,0.34,63.6,60.2c18.61,59.86-26.94,87.8-68.6,87.8c-24.15,0-65.05,4.13-90.33-13.67
			c-18.72-13.17-24.28-42.32-15.67-64C185.75,331.01,221.57,323.04,271.96,323.04z"/>
		<path class="st23" d="M271.96,323.04c2.1,0.61,3.77,1.28,5.54,1.87c1.77,0.61,3.62,1.2,5.99,1.92c0.65,0.19,1.6,0.51,2.78,0.92
			c0.59,0.2,1.23,0.46,1.91,0.72l0.62,0.24l1.19,0.51c0.8,0.33,1.59,0.69,2.38,1.08c0.8,0.37,1.59,0.77,2.37,1.19
			c0.79,0.41,1.58,0.84,2.35,1.31c3.12,1.82,6.18,3.95,9.11,6.37c5.84,4.88,11.15,10.93,15.59,17.85
			c4.42,6.93,8.1,14.64,10.87,22.81c2.79,8.15,4.89,16.69,5.37,25.37c0.28,4.33,0.06,8.67-0.48,12.95
			c-0.6,4.27-1.72,8.43-3.24,12.41c-3.04,7.98-8.22,14.9-14.32,20.42c-6.2,5.44-13.29,9.55-20.53,12.37
			c-3.61,1.46-7.27,2.56-10.88,3.44c-3.61,0.92-7.21,1.49-10.7,1.94c-3.5,0.41-6.92,0.62-10.22,0.65c-3.35,0.03-6.62,0.07-9.71,0.14
			c-12.39,0.33-22.52,0.4-29.55,0.07c-3.52-0.16-6.26-0.35-8.12-0.51c-1.86-0.15-2.84-0.27-2.84-0.27s-0.99-0.08-2.83-0.32
			c-1.85-0.21-4.57-0.59-8-1.22c-3.43-0.64-7.6-1.56-12.24-3.08c-4.64-1.51-9.76-3.65-14.84-6.87c-0.62-0.42-1.26-0.84-1.9-1.26
			c-0.59-0.47-1.2-0.94-1.8-1.42c-0.59-0.5-1.25-0.92-1.8-1.49c-0.56-0.55-1.13-1.11-1.71-1.68l-0.87-0.85l-0.78-0.95
			c-0.52-0.63-1.05-1.27-1.59-1.91c-0.53-0.64-0.96-1.38-1.45-2.07c-0.46-0.72-1-1.39-1.41-2.16c-0.81-1.53-1.77-3.02-2.43-4.69
			c-0.36-0.82-0.73-1.64-1.1-2.47c-0.3-0.86-0.61-1.72-0.91-2.59l-0.46-1.31c-0.13-0.44-0.24-0.9-0.37-1.35
			c-0.24-0.9-0.48-1.81-0.73-2.72c-0.21-0.92-0.36-1.86-0.55-2.8c-0.18-0.94-0.37-1.88-0.45-2.84c-0.11-0.96-0.22-1.92-0.33-2.89
			c-0.09-0.97-0.09-1.95-0.15-2.94c-0.15-1.97,0.02-3.96,0.05-5.96c0.07-1,0.2-2,0.3-3l0.16-1.51l0.27-1.5
			c0.19-1,0.34-2.01,0.56-3.01c0.26-0.99,0.52-1.98,0.78-2.97c0.22-1.01,0.61-1.96,0.94-2.94c0.35-0.97,0.64-1.95,1.08-2.93
			c0.83-1.96,1.6-3.96,2.49-5.91c0.9-1.95,1.73-3.94,2.71-5.87c0.48-0.97,0.95-1.94,1.43-2.92c0.48-0.97,1.01-1.92,1.52-2.88
			c2.01-3.85,4.3-7.57,6.69-11.23c2.45-3.61,5.09-7.1,7.95-10.39c2.9-3.25,5.99-6.32,9.31-9.1c3.33-2.76,6.88-5.21,10.58-7.35
			c7.39-4.32,15.46-7.11,23.47-9c4.02-0.91,8.04-1.6,12.02-2.13c1.99-0.22,3.96-0.49,5.93-0.65c0.98-0.09,1.96-0.17,2.93-0.26
			c0.82-0.06,1.63-0.11,2.43-0.17c3.33-0.22,6.08-0.33,7.45-0.38C264.84,324.7,267.71,324.13,271.96,323.04
			c-4.26-1.03-7.17-1.61-12.3-1.46c-1.39,0.03-4.17,0.14-7.55,0.36c-0.82,0.06-1.64,0.11-2.47,0.17c-0.99,0.09-1.98,0.17-2.98,0.26
			c-2,0.16-4.01,0.43-6.05,0.66c-4.06,0.54-8.19,1.25-12.34,2.19c-8.26,1.95-16.66,4.85-24.38,9.36c-3.86,2.23-7.58,4.79-11.05,7.68
			c-3.45,2.9-6.68,6.09-9.68,9.46c-2.96,3.41-5.69,7.01-8.21,10.73c-2.46,3.75-4.81,7.58-6.86,11.51c-0.52,0.98-1.06,1.95-1.55,2.94
			c-0.49,0.99-0.97,1.99-1.46,2.97c-1,1.97-1.85,3.99-2.76,5.98c-0.91,1.99-1.69,4.02-2.53,6.01c-0.44,0.98-0.76,2.05-1.14,3.08
			c-0.35,1.04-0.76,2.06-1,3.13c-0.28,1.06-0.55,2.11-0.82,3.16c-0.22,1.06-0.39,2.13-0.59,3.18l-0.28,1.58l-0.17,1.59
			c-0.1,1.06-0.23,2.12-0.31,3.17c-0.04,2.11-0.21,4.21-0.05,6.29c0.05,1.04,0.06,2.07,0.16,3.1c0.12,1.02,0.23,2.04,0.35,3.05
			c0.09,1.02,0.29,2.01,0.48,3c0.2,0.99,0.36,1.98,0.58,2.95c0.26,0.96,0.52,1.92,0.77,2.88c0.13,0.48,0.25,0.95,0.39,1.42
			l0.49,1.39c0.33,0.92,0.65,1.84,0.97,2.74c0.39,0.88,0.78,1.76,1.17,2.63c0.71,1.77,1.73,3.37,2.6,5
			c3.75,6.42,9,11.42,14.37,14.88c5.39,3.42,10.77,5.66,15.6,7.23c4.83,1.58,9.13,2.53,12.66,3.18c3.54,0.64,6.32,1.03,8.21,1.25
			c1.89,0.24,2.9,0.32,2.9,0.32s1,0.12,2.9,0.27c1.9,0.16,4.69,0.36,8.26,0.52c7.14,0.34,17.4,0.27,29.77-0.06
			c3.1-0.07,6.3-0.11,9.66-0.14c3.42-0.03,6.96-0.24,10.58-0.67c3.62-0.47,7.35-1.05,11.09-2.01c3.75-0.92,7.56-2.06,11.32-3.58
			c7.55-2.93,14.98-7.23,21.53-12.98c6.45-5.83,11.97-13.2,15.2-21.69c1.63-4.22,2.81-8.65,3.44-13.16
			c0.57-4.51,0.79-9.08,0.5-13.61c-0.51-9.07-2.69-17.91-5.55-26.27c-2.84-8.38-6.63-16.33-11.22-23.52
			c-4.61-7.18-10.15-13.49-16.27-18.61c-3.08-2.53-6.28-4.77-9.56-6.68c-0.81-0.49-1.64-0.95-2.47-1.38
			c-0.82-0.45-1.65-0.87-2.49-1.26c-0.83-0.41-1.66-0.79-2.5-1.14c-0.42-0.18-0.83-0.36-1.25-0.53l-0.65-0.25
			c-0.72-0.27-1.39-0.55-2.02-0.76c-1.25-0.43-2.26-0.76-2.94-0.95c-2.51-0.74-4.55-1.06-6.51-1.14
			C275.99,322.46,274.12,322.59,271.96,323.04z"/>
	</g>
	<path class="st1" d="M175.96,366.37c10.33-17.33,32.33-19.33,47.67-13l-25.33-13.67C198.29,339.71,182.29,350.04,175.96,366.37z"/>
	<path class="st1" d="M160.96,393.37c0,0-15,40.33,14.67,62.67c0,0,14,15.67,63,15.67l34.33-1c0,0,42-1,60-32.67
		c0,0-14.67,20-93.67,20S159.96,409.71,160.96,393.37z"/>
	<path class="st23" d="M271.96,323.04c2.1,0.61,3.77,1.28,5.54,1.87c1.77,0.61,3.62,1.2,5.99,1.92c0.65,0.19,1.6,0.51,2.78,0.92
		c0.59,0.2,1.23,0.46,1.91,0.72l0.62,0.24l1.19,0.51c0.8,0.33,1.59,0.69,2.38,1.08c0.8,0.37,1.59,0.77,2.37,1.19
		c0.79,0.41,1.58,0.84,2.35,1.31c3.12,1.82,6.18,3.95,9.11,6.37c5.84,4.88,11.15,10.93,15.59,17.85c4.42,6.93,8.1,14.64,10.87,22.81
		c2.79,8.15,4.89,16.69,5.37,25.37c0.28,4.33,0.06,8.67-0.48,12.95c-0.6,4.27-1.72,8.43-3.24,12.41
		c-3.04,7.98-8.22,14.9-14.32,20.42c-6.2,5.44-13.29,9.55-20.53,12.37c-3.61,1.46-7.27,2.56-10.88,3.44
		c-3.61,0.92-7.21,1.49-10.7,1.94c-3.5,0.41-6.92,0.62-10.22,0.65c-3.35,0.03-6.62,0.07-9.71,0.14c-12.39,0.33-22.52,0.4-29.55,0.07
		c-3.52-0.16-6.26-0.35-8.12-0.51c-1.86-0.15-2.84-0.27-2.84-0.27s-0.99-0.08-2.83-0.32c-1.85-0.21-4.57-0.59-8-1.22
		c-3.43-0.64-7.6-1.56-12.24-3.08c-4.64-1.51-9.76-3.65-14.84-6.87c-0.62-0.42-1.26-0.84-1.9-1.26c-0.59-0.47-1.2-0.94-1.8-1.42
		c-0.59-0.5-1.25-0.92-1.8-1.49c-0.56-0.55-1.13-1.11-1.71-1.68l-0.87-0.85l-0.78-0.95c-0.52-0.63-1.05-1.27-1.59-1.91
		c-0.53-0.64-0.96-1.38-1.45-2.07c-0.46-0.72-1-1.39-1.41-2.16c-0.81-1.53-1.77-3.02-2.43-4.69c-0.36-0.82-0.73-1.64-1.1-2.47
		c-0.3-0.86-0.61-1.72-0.91-2.59l-0.46-1.31c-0.13-0.44-0.24-0.9-0.37-1.35c-0.24-0.9-0.48-1.81-0.73-2.72
		c-0.21-0.92-0.36-1.86-0.55-2.8c-0.18-0.94-0.37-1.88-0.45-2.84c-0.11-0.96-0.22-1.92-0.33-2.89c-0.09-0.97-0.09-1.95-0.15-2.94
		c-0.15-1.97,0.02-3.96,0.05-5.96c0.07-1,0.2-2,0.3-3l0.16-1.51l0.27-1.5c0.19-1,0.34-2.01,0.56-3.01c0.26-0.99,0.52-1.98,0.78-2.97
		c0.22-1.01,0.61-1.96,0.94-2.94c0.35-0.97,0.64-1.95,1.08-2.93c0.83-1.96,1.6-3.96,2.49-5.91c0.9-1.95,1.73-3.94,2.71-5.87
		c0.48-0.97,0.95-1.94,1.43-2.92c0.48-0.97,1.01-1.92,1.52-2.88c2.01-3.85,4.3-7.57,6.69-11.23c2.45-3.61,5.09-7.1,7.95-10.39
		c2.9-3.25,5.99-6.32,9.31-9.1c3.33-2.76,6.88-5.21,10.58-7.35c7.39-4.32,15.46-7.11,23.47-9c4.02-0.91,8.04-1.6,12.02-2.13
		c1.99-0.22,3.96-0.49,5.93-0.65c0.98-0.09,1.96-0.17,2.93-0.26c0.82-0.06,1.63-0.11,2.43-0.17c3.33-0.22,6.08-0.33,7.45-0.38
		C264.84,324.7,267.71,324.13,271.96,323.04c-4.26-1.03-7.17-1.61-12.3-1.46c-1.39,0.03-4.17,0.14-7.55,0.36
		c-0.82,0.06-1.64,0.11-2.47,0.17c-0.99,0.09-1.98,0.17-2.98,0.26c-2,0.16-4.01,0.43-6.05,0.66c-4.06,0.54-8.19,1.25-12.34,2.19
		c-8.26,1.95-16.66,4.85-24.38,9.36c-3.86,2.23-7.58,4.79-11.05,7.68c-3.45,2.9-6.68,6.09-9.68,9.46
		c-2.96,3.41-5.69,7.01-8.21,10.73c-2.46,3.75-4.81,7.58-6.86,11.51c-0.52,0.98-1.06,1.95-1.55,2.94c-0.49,0.99-0.97,1.99-1.46,2.97
		c-1,1.97-1.85,3.99-2.76,5.98c-0.91,1.99-1.69,4.02-2.53,6.01c-0.44,0.98-0.76,2.05-1.14,3.08c-0.35,1.04-0.76,2.06-1,3.13
		c-0.28,1.06-0.55,2.11-0.82,3.16c-0.22,1.06-0.39,2.13-0.59,3.18l-0.28,1.58l-0.17,1.59c-0.1,1.06-0.23,2.12-0.31,3.17
		c-0.04,2.11-0.21,4.21-0.05,6.29c0.05,1.04,0.06,2.07,0.16,3.1c0.12,1.02,0.23,2.04,0.35,3.05c0.09,1.02,0.29,2.01,0.48,3
		c0.2,0.99,0.36,1.98,0.58,2.95c0.26,0.96,0.52,1.92,0.77,2.88c0.13,0.48,0.25,0.95,0.39,1.42l0.49,1.39
		c0.33,0.92,0.65,1.84,0.97,2.74c0.39,0.88,0.78,1.76,1.17,2.63c0.71,1.77,1.73,3.37,2.6,5c3.75,6.42,9,11.42,14.37,14.88
		c5.39,3.42,10.77,5.66,15.6,7.23c4.83,1.58,9.13,2.53,12.66,3.18c3.54,0.64,6.32,1.03,8.21,1.25c1.89,0.24,2.9,0.32,2.9,0.32
		s1,0.12,2.9,0.27c1.9,0.16,4.69,0.36,8.26,0.52c7.14,0.34,17.4,0.27,29.77-0.06c3.1-0.07,6.3-0.11,9.66-0.14
		c3.42-0.03,6.96-0.24,10.58-0.67c3.62-0.47,7.35-1.05,11.09-2.01c3.75-0.92,7.56-2.06,11.32-3.58c7.55-2.93,14.98-7.23,21.53-12.98
		c6.45-5.83,11.97-13.2,15.2-21.69c1.63-4.22,2.81-8.65,3.44-13.16c0.57-4.51,0.79-9.08,0.5-13.61c-0.51-9.07-2.69-17.91-5.55-26.27
		c-2.84-8.38-6.63-16.33-11.22-23.52c-4.61-7.18-10.15-13.49-16.27-18.61c-3.08-2.53-6.28-4.77-9.56-6.68
		c-0.81-0.49-1.64-0.95-2.47-1.38c-0.82-0.45-1.65-0.87-2.49-1.26c-0.83-0.41-1.66-0.79-2.5-1.14c-0.42-0.18-0.83-0.36-1.25-0.53
		l-0.65-0.25c-0.72-0.27-1.39-0.55-2.02-0.76c-1.25-0.43-2.26-0.76-2.94-0.95c-2.51-0.74-4.55-1.06-6.51-1.14
		C275.99,322.46,274.12,322.59,271.96,323.04z"/>
</g>
<g id="head">
	<path class="st24" d="M336.29,256.19c0,52.92-64.45,99.85-96.33,99.85s-96.33-46.93-96.33-99.85s43.13-95.82,96.33-95.82
		S336.29,203.27,336.29,256.19z"/>
	<path class="st1" d="M217.63,350.37c0,0-49-32.67-60-66c-9.67-30.33-9.67-54.67,11.33-92.33c0,0-32,32.67-22.33,80
		C156.29,319.37,208.29,347.71,217.63,350.37z"/>
	<path class="st23" d="M229,354.55c-0.96-0.54-1.84-1.03-2.69-1.47c-0.84-0.46-1.65-0.93-2.49-1.34c-0.85-0.4-1.7-0.86-2.64-1.29
		c-0.95-0.42-1.97-0.87-3.12-1.38c-0.62-0.28-1.57-0.64-2.71-1.19c-0.57-0.27-1.2-0.56-1.87-0.88l-0.61-0.28l-1.17-0.59
		c-0.78-0.4-1.57-0.8-2.36-1.2c-1.55-0.88-3.16-1.7-4.72-2.66c-3.18-1.83-6.31-3.94-9.49-6.13c-12.56-8.93-25.03-20.67-34.71-35.01
		c-2.38-3.6-4.6-7.34-6.57-11.23c-1.91-3.91-3.64-7.93-4.99-12.07c-1.31-4.16-2.34-8.4-2.95-12.7c-0.55-4.31-0.73-8.61-0.53-12.95
		c0.72-17.33,6.38-33.9,15-46.96c4.23-6.59,9.16-12.32,14.3-17.18c5.14-4.87,10.49-8.87,15.69-12.05
		c5.21-3.19,10.26-5.57,14.82-7.37c2.27-0.95,4.46-1.61,6.46-2.3c2.04-0.57,3.89-1.15,5.59-1.54c1.71-0.37,3.21-0.79,4.55-1
		c1.33-0.24,2.46-0.44,3.38-0.6c1.84-0.27,2.82-0.37,2.82-0.37s0.24-0.03,0.72-0.09c0.48-0.05,1.18-0.18,2.1-0.24
		c0.93-0.07,2.07-0.16,3.42-0.26c1.35-0.12,2.91-0.1,4.65-0.16c1.75-0.06,3.69,0.06,5.8,0.09c1.05,0.08,2.15,0.16,3.3,0.24
		c0.57,0.04,1.15,0.09,1.74,0.14c0.59,0.07,1.19,0.15,1.8,0.23c4.87,0.58,10.36,1.61,16.2,3.4c11.67,3.49,24.78,10.21,36.35,20.79
		c11.56,10.53,21.31,25.07,26.39,41.66c1.25,4.15,2.25,8.39,2.95,12.7c0.63,4.32,1.12,8.68,1.14,13.05l0.04,1.64
		c0,0.54-0.04,1.08-0.06,1.63l-0.14,3.25c0,1.09-0.22,2.15-0.34,3.23l-0.41,3.22l-0.67,3.17c-0.25,1.05-0.39,2.13-0.73,3.15
		l-0.91,3.1l-0.45,1.55l-0.56,1.51c-2.89,8.09-6.97,15.62-11.66,22.44c-2.33,3.42-4.85,6.65-7.44,9.71l-0.96,1.16l-1,1.11
		c-0.67,0.74-1.33,1.47-2,2.2c-0.65,0.74-1.32,1.45-2.02,2.14c-0.57,0.58-1.15,1.16-1.71,1.73c-1.15,1.2-2.26,2.23-3.19,3.09
		c-0.93,0.87-1.67,1.57-2.17,2.03c-1.88,1.68-3.3,3.06-4.54,4.5c-1.29,1.38-2.43,2.8-3.78,4.54c1.99-0.9,3.66-1.7,5.33-2.67
		c1.62-1.03,3.27-2.21,5.21-3.91c0.51-0.47,1.28-1.19,2.23-2.07c0.96-0.88,2.09-1.93,3.28-3.16c0.58-0.59,1.17-1.18,1.75-1.77
		c0.71-0.7,1.4-1.43,2.07-2.19c0.68-0.75,1.36-1.5,2.05-2.25l1.03-1.14l0.98-1.19c2.66-3.15,5.24-6.46,7.64-9.98
		c4.82-7.02,9.05-14.79,12.05-23.22l0.58-1.57l0.48-1.61l0.95-3.24c0.36-1.07,0.51-2.2,0.77-3.3l0.7-3.32l0.44-3.38
		c0.12-1.13,0.35-2.25,0.35-3.39l0.15-3.42c0.02-0.57,0.06-1.14,0.06-1.71l-0.04-1.7c-0.02-4.53-0.53-9.05-1.18-13.52
		c-0.73-4.46-1.76-8.86-3.05-13.16c-5.27-17.19-15.37-32.23-27.33-43.13c-11.98-10.96-25.55-17.9-37.64-21.52
		c-6.04-1.86-11.73-2.92-16.77-3.52c-0.63-0.08-1.25-0.16-1.86-0.23c-0.61-0.05-1.21-0.1-1.8-0.14c-1.18-0.09-2.32-0.17-3.41-0.25
		c-2.19-0.03-4.19-0.16-6-0.1c-1.81,0.06-3.42,0.04-4.81,0.17c-1.4,0.11-2.58,0.2-3.54,0.27c-0.96,0.06-1.69,0.2-2.18,0.25
		c-0.49,0.06-0.74,0.09-0.74,0.09s-1.01,0.11-2.92,0.39c-0.95,0.17-2.12,0.38-3.49,0.62c-1.38,0.22-2.94,0.65-4.71,1.03
		c-1.77,0.4-3.68,1-5.79,1.59c-2.07,0.71-4.34,1.4-6.69,2.38c-4.73,1.85-9.96,4.32-15.35,7.62c-5.39,3.3-10.93,7.43-16.25,12.47
		c-5.32,5.03-10.42,10.96-14.81,17.78c-8.92,13.51-14.79,30.69-15.54,48.63c-0.21,4.46-0.03,9.04,0.55,13.55
		c0.63,4.51,1.71,8.94,3.08,13.28c1.41,4.32,3.2,8.49,5.18,12.54c2.04,4.02,4.33,7.88,6.78,11.59c9.97,14.76,22.7,26.74,35.55,35.88
		c3.25,2.24,6.46,4.4,9.72,6.28c1.6,0.99,3.26,1.83,4.85,2.73c0.82,0.42,1.62,0.83,2.43,1.24l1.2,0.61l0.62,0.29
		c0.69,0.32,1.34,0.62,1.93,0.9c1.17,0.57,2.16,0.94,2.81,1.22C221.58,354.08,224.62,354.5,229,354.55z"/>
</g>
<g id="accessory">
	<path class="st4" d="M195.28,340.28c0,0,56.36,18.33,103.07-10.64c0,0,40.79,18.55,37.1,49.62c0,0,3.98,7.07,3.98,21.06
		c0,0,6.48,8.1,4.71,27.24c0,0-0.25,15.95-20.83,27.55c-3.47,1.96-7.4,2.98-11.39,2.92c-4.98-0.07-11.85-0.89-16.22-4.41
		c0,0-9.28,16.64-55.51,13.25s-59.48-8.39-84.37-25.91c0,0-2.06-21.94,0.29-36.07C158.47,390.75,171.43,357.8,195.28,340.28z"/>
	<path class="st3" d="M290.17,371.2c0,0,24.29,1.21,27.94-12.15s-24.63-26.39-24.63-26.72s3.98-2.21,3.98-2.21
		s43.73,20.76,30.15,47.37l4.97,25.29c0,0,16.12,4.31,7.51,31.58c-8.61,27.28-41.3,11.37-41.3,11.37l-1.55-7.07
		c0,0,3.75-3.42,5.96-10.93c2.21-7.51,1.55,2.1,19.55-2.32c18-4.42,4.42-19.77-8.94-18.55c-13.36,1.21-27.5,2.87-27.5,2.87
		L290.17,371.2z"/>
	<path class="st3" d="M283.22,430.17c0,0,14.02-6.63,11.37-19.55c-2.65-12.92-4.53-37.55-4.53-37.55s1.44-18.88-14.02-33.13
		l7.84-2.87c0,0,13.58,11.6,10.49,35.01l4.53,36c0,0,7.84,15.13-2.43,32.58C286.2,458.11,273.72,439.56,283.22,430.17z"/>
	<path class="st3" d="M155.56,416.7c-0.22,0.33-0.66,10.71,3.75,16.12c4.42,5.41,70.34,16.67,104.47,12.15
		c34.12-4.53,28.38-6.52,28.38-6.52s6.29-2.98,5.74-11.15s-12.15,7.07-36.66,6.96c-24.52-0.11-42.96-5.08-44.61-16.67
		c0,0,16.67-3.98,49.36-6.52c0,0,0.66,5.08,5.63,6.07l20.65-1.33c0,0,6.18-0.88,5.3-6.63l-24.4-37.66c0,0-25.84,0.77-33.79-11.15
		c-7.95-11.93-0.55-14.58-0.55-14.58s-23.52,1.33-40.2-4.86c0,0-26.72,17.01-38.76,52.23C155.56,405.77,155.56,416.7,155.56,416.7z"
		/>
	<path class="st26" d="M294.7,401.9c0,0,14.8,19.99-3.2,41.96l9.28-1.1c0,0,10.49-20.65-4.75-41.19L294.7,401.9z"/>
	<path class="st26" d="M280.46,338.18c0.33-0.11,16.23,9.28,12.92,34.12l1.88-0.44c0,0,4.79-22.86-9.57-35.67L280.46,338.18z"/>
	<path class="st26" d="M281.05,442.14c0,0-72.07,1.25-79.55-16.38c-4.4-10.37,20.76-14.91,20.76-14.91l23.85-37.99
		c0,0-21.2,1.99-29.71-5.52c-8.5-7.51-0.33-22.53-0.33-22.53l-15.02-3.09c0,0-23.52,14.47-36,52.12
		c-12.48,37.66,7.73,40.86,7.73,40.86C174.21,436.9,258.81,448.59,281.05,442.14z"/>
	<path class="st26" d="M305.05,412.03c0,0,0.88,0.74-2.72,1.55s-28.49,2.13-28.49,2.13s-3.61,0.37-5.08-4.05l-0.74-2.5l-8.98,0.44
		v-1.69l11.85-0.96l0.81,3.9c0,0-0.22,3.75,3.68,3.31L305.05,412.03z"/>
	<path class="st29" d="M341.3,403.63c0,0-87.87-0.07-186.37,17.89c0,0-1.47-16.64,5.01-30.63c0,0,43.58-12.66,113.08-16.49
		c50.94-2.21,63.31,3.98,63.31,3.98S341.01,392.74,341.3,403.63z"/>
	<path class="st30" d="M221.16,408.31c0,0,62.06-8.28,112.86-7.29l-1.1-2.32l1.44-2.65l-1.66-2.54l0.88-3.64l-1.88-2.87l1.33-2.76
		l-1.77-1.77l0.66-2.98c0,0-35.34-7.29-112.97,3.53l1.88,2.54l-0.99,3.87l1.88,2.32l-1.44,3.09l1.66,2.65l-1.44,3.31l1.66,3.31
		L221.16,408.31z"/>
	<path class="st4" d="M250.86,371.98c0,0,4.31,1.55,7.07,22.86c2.76,21.31-0.88,22.42-0.88,22.42l-9.06,0.88
		c0,0-0.11-30.15-7.07-45.06L250.86,371.98z"/>
	<path class="st4" d="M323.3,369.55c0,0,3.68,1.5,4.95,21.28c1.27,19.78-2.15,20.58-2.15,20.58l-8.39,0.27c0,0,1.7-27.75-3.82-41.89
		L323.3,369.55z"/>
	<g>
		<path class="st31" d="M302.05,369.31l4.17,40.48c0.1,1-0.64,1.89-1.64,1.96l-30.45,2.17c-0.96,0.07-1.81-0.64-1.9-1.61
			l-3.96-41.76c-0.1-1.02,0.69-1.92,1.72-1.95l30.24-0.89C301.16,367.69,301.95,368.39,302.05,369.31z M279.73,406.42l17.88-1.28
			c0.54-0.04,0.95-0.52,0.89-1.06l-2.91-28.25c-0.05-0.5-0.48-0.88-0.99-0.86l-17.73,0.52c-0.56,0.02-0.98,0.5-0.93,1.05l2.75,29
			C278.76,406.07,279.21,406.46,279.73,406.42z"/>
		<path class="st29" d="M274,414.43c-1.16,0-2.16-0.9-2.27-2.06l-3.96-41.76c-0.06-0.62,0.14-1.25,0.56-1.72
			c0.42-0.47,1.01-0.75,1.64-0.77l30.24-0.89c1.24-0.02,2.21,0.86,2.33,2.05l4.17,40.48c0.06,0.62-0.12,1.22-0.52,1.7
			c-0.4,0.48-0.96,0.76-1.58,0.81l-30.45,2.17C274.11,414.43,274.06,414.43,274,414.43z M300.28,368.22c-0.01,0-0.02,0-0.04,0
			L270,369.11c-0.36,0.01-0.68,0.16-0.92,0.43c-0.24,0.27-0.35,0.61-0.31,0.97l3.96,41.76c0.07,0.7,0.67,1.2,1.37,1.16l30.45-2.17
			c0.35-0.03,0.66-0.19,0.89-0.45c0.23-0.27,0.33-0.61,0.29-0.95l-4.17-40.48C301.48,368.72,300.93,368.22,300.28,368.22z
			 M279.67,406.92c-0.74,0-1.39-0.57-1.46-1.32l-2.75-29c-0.04-0.4,0.09-0.8,0.36-1.11s0.65-0.48,1.05-0.49l17.73-0.52
			c0.79,0,1.42,0.56,1.5,1.31l2.91,28.25c0.04,0.4-0.08,0.78-0.33,1.09c-0.26,0.31-0.62,0.49-1.02,0.52l-17.88,1.28
			C279.74,406.92,279.7,406.92,279.67,406.92z M294.64,375.47c0,0-0.01,0-0.01,0l-17.73,0.52c-0.13,0-0.25,0.06-0.33,0.16
			c-0.08,0.1-0.13,0.22-0.11,0.35l2.75,29c0.02,0.25,0.26,0.43,0.49,0.42l17.88-1.28c0.13-0.01,0.24-0.07,0.32-0.16
			s0.12-0.22,0.11-0.35l-2.91-28.25C295.08,375.65,294.87,375.47,294.64,375.47z"/>
	</g>
	<path class="st32" d="M272.67,371.09l24.31-0.72c1.45-0.04,2.69,1.04,2.84,2.48l3.57,34.68c0.16,1.55-1,2.93-2.56,3.05l-24.49,1.75
		c-1.5,0.11-2.81-1-2.95-2.5l-3.39-35.71C269.84,372.52,271.07,371.13,272.67,371.09z M276.27,374.1c-0.81,0.02-1.58,0.39-2.12,1
		c-0.54,0.61-0.8,1.42-0.72,2.23l2.75,29c0.15,1.52,1.41,2.67,2.93,2.67l0.21-0.01l17.88-1.28c0.79-0.06,1.54-0.44,2.05-1.04
		s0.76-1.41,0.67-2.2l-2.91-28.25c-0.16-1.51-1.42-2.65-2.93-2.65h-0.03L276.27,374.1z"/>
	<path class="st33" d="M271.12,370.21l26.89-0.72c0,0,2.21,0.22,2.48,2.82l4.8,37.33l-4.09-39.59c0,0,0.06-1.66-2.6-1.55
		l-26.23,0.72C272.39,369.22,271.18,369.22,271.12,370.21z"/>
	<path class="st33" d="M276.37,387.22l1.88,18.77c0,0-0.11,1.27,1.66,0.94l18-1.33l-17.83,2.43c0,0-1.6,0.28-2.26-0.55
		c-0.66-0.83-0.72-1.82-0.72-1.82l-1.88-19.93C275.21,385.72,276.15,385.72,276.37,387.22z"/>
	<path class="st34" d="M270.05,375.23l3.2,33.96c0,0,1.42-0.61,1.27-4.77c-0.15-4.16-2.28-25.18-2.28-25.18
		S272.08,375.84,270.05,375.23z"/>
	<path class="st34" d="M296.69,375.07l3.23,30.08c0,0,1.25-0.56,1.07-4.25c-0.18-3.69-2.32-22.3-2.32-22.3
		S298.5,375.59,296.69,375.07z"/>
	<path class="st29" d="M285.32,376.17l-0.74,3.17l1.47,3.02c0,0-1.25,3.61-1.03,3.61c0.22,0,1.99,3.39,1.99,3.39l-1.25,3.02
		l2.13,2.5l-1.62,3.53l2.13,2.36l-1.84,3.61l-7.8,0.44l-2.72-27.98c0,0,0.15-0.52,1.4-0.66
		C278.69,376.03,285.32,376.17,285.32,376.17z"/>
	<path class="st35" d="M256.71,380.04l8.94-0.66l2.32,22.64l-7.62,0.33C260.36,402.34,260.36,390.2,256.71,380.04z"/>
	<polygon class="st35" points="287.97,378.71 293.16,378.6 295.7,400.14 290.51,400.47 289.29,398.04 290.51,393.4 288.85,391.52 
		289.62,387.66 287.63,385.78 288.85,381.91 	"/>
	<path class="st35" d="M305.3,378.93l7.18,0.22c0,0,2.43,13.14,1.77,20.21h-6.52L305.3,378.93z"/>
	<path class="st35" d="M238.16,382.03c0,0,3.2,13.25,3.42,22.31l-11.26,1.33l1.44-2.87l-1.66-2.76l1.21-2.76L229,394.5l1.33-3.53
		l-2.1-1.66l1.33-2.87l-1.66-2.87L238.16,382.03z"/>
	<g>
		<g>
			<circle class="st31" cx="264.11" cy="390.53" r="3.87"/>
			<path class="st29" d="M264.11,394.89c-2.41,0-4.37-1.96-4.37-4.36c0-2.41,1.96-4.37,4.37-4.37s4.37,1.96,4.37,4.37
				C268.48,392.94,266.52,394.89,264.11,394.89z M264.11,387.16c-1.86,0-3.37,1.51-3.37,3.37s1.51,3.36,3.37,3.36
				s3.37-1.51,3.37-3.36S265.97,387.16,264.11,387.16z"/>
		</g>
		<g>
			<path class="st36" d="M264.11,392.13c-0.88,0-1.6-0.72-1.6-1.6c0-0.88,0.72-1.6,1.6-1.6s1.6,0.72,1.6,1.6
				C265.71,391.41,264.99,392.13,264.11,392.13z"/>
			<path class="st29" d="M264.11,392.63c-1.16,0-2.1-0.94-2.1-2.1c0-1.16,0.94-2.1,2.1-2.1s2.1,0.94,2.1,2.1
				C266.21,391.68,265.27,392.63,264.11,392.63z M264.11,389.43c-0.61,0-1.1,0.49-1.1,1.1c0,0.6,0.49,1.1,1.1,1.1s1.1-0.49,1.1-1.1
				C265.21,389.92,264.72,389.43,264.11,389.43z"/>
		</g>
		<path class="st32" d="M260.99,390.22c0,0-0.28,2.15,1.99,3.17c2.21,0.75,3.73-0.91,4-1.63c0,0-0.41-0.28-1.24,0.41
			c0,0-0.72,0.97-2.21,0.61c-1.49-0.36-1.71-1.82-1.71-1.82S261.66,390.36,260.99,390.22z"/>
		<path class="st33" d="M261.71,388.57c0,0,0.97-1.35,2.87-1.08c1.99,0.22,2.51,2.24,2.51,2.24s0.61,2.26-1.41,3.4
			c0,0,1.49-1.41,0.77-3.45C265.78,387.75,263.56,387.52,261.71,388.57z"/>
	</g>
	<g>
		<g>
			<circle class="st31" cx="282.11" cy="389.09" r="3.87"/>
			<path class="st29" d="M282.11,393.46c-2.41,0-4.37-1.96-4.37-4.37c0-2.41,1.96-4.36,4.37-4.36s4.37,1.96,4.37,4.36
				C286.48,391.5,284.52,393.46,282.11,393.46z M282.11,385.73c-1.86,0-3.37,1.51-3.37,3.36s1.51,3.37,3.37,3.37
				s3.37-1.51,3.37-3.37S283.97,385.73,282.11,385.73z"/>
		</g>
		<g>
			<path class="st36" d="M282.11,390.69c-0.88,0-1.6-0.72-1.6-1.6c0-0.88,0.72-1.6,1.6-1.6s1.6,0.72,1.6,1.6
				C283.71,389.97,282.99,390.69,282.11,390.69z"/>
			<path class="st29" d="M282.11,391.19c-1.16,0-2.1-0.94-2.1-2.1c0-1.16,0.94-2.1,2.1-2.1s2.1,0.94,2.1,2.1
				C284.21,390.25,283.27,391.19,282.11,391.19z M282.11,388c-0.61,0-1.1,0.49-1.1,1.1c0,0.6,0.49,1.1,1.1,1.1s1.1-0.49,1.1-1.1
				C283.21,388.49,282.72,388,282.11,388z"/>
		</g>
		<path class="st32" d="M278.99,388.79c0,0-0.28,2.15,1.99,3.17c2.21,0.75,3.73-0.91,4-1.63c0,0-0.41-0.28-1.24,0.41
			c0,0-0.72,0.97-2.21,0.61c-1.49-0.36-1.71-1.82-1.71-1.82S279.66,388.93,278.99,388.79z"/>
		<path class="st33" d="M279.71,387.13c0,0,0.97-1.35,2.87-1.08c1.99,0.22,2.51,2.24,2.51,2.24s0.61,2.26-1.41,3.4
			c0,0,1.49-1.41,0.77-3.45C283.78,386.31,281.56,386.08,279.71,387.13z"/>
	</g>
	<g>
		<ellipse class="st3" cx="282.66" cy="357.65" rx="6.29" ry="6.27"/>
		<g>
			<g>
				<circle class="st31" cx="283.6" cy="357.23" r="5.13"/>
				<path class="st29" d="M283.6,362.87c-3.11,0-5.64-2.53-5.64-5.64c0-3.11,2.53-5.63,5.64-5.63s5.63,2.53,5.63,5.63
					C289.24,360.34,286.71,362.87,283.6,362.87z M283.6,352.6c-2.56,0-4.64,2.08-4.64,4.63s2.08,4.64,4.64,4.64
					c2.56,0,4.63-2.08,4.63-4.64S286.16,352.6,283.6,352.6z"/>
			</g>
			<path class="st32" d="M279.24,356.83c0,0-0.37,2.86,2.64,4.22c2.93,0.99,4.95-1.21,5.32-2.16
				C288.24,356.13,280.62,353.92,279.24,356.83z"/>
			<path class="st33" d="M280.41,354.63c0,0,1.28-1.8,3.81-1.43c2.64,0.29,3.34,2.97,3.34,2.97s0.81,3.01-1.87,4.51
				c0,0,1.98-1.87,1.03-4.58C285.82,353.54,282.87,353.24,280.41,354.63z"/>
		</g>
		<circle class="st31" cx="283.74" cy="356.99" r="3.12"/>
		<circle class="st33" cx="284.16" cy="356.18" r="2.48"/>
		<circle class="st6" cx="284.6" cy="355.69" r="1.05"/>
	</g>
	<g>
		<ellipse class="st3" cx="290.05" cy="422.92" rx="6.29" ry="6.27"/>
		<g>
			<g>
				<circle class="st31" cx="290.99" cy="422.51" r="5.13"/>
				<path class="st29" d="M290.99,428.14c-3.11,0-5.63-2.53-5.63-5.63c0-3.11,2.53-5.64,5.63-5.64s5.64,2.53,5.64,5.64
					C296.63,425.61,294.1,428.14,290.99,428.14z M290.99,417.87c-2.56,0-4.63,2.08-4.63,4.64s2.08,4.63,4.63,4.63
					c2.56,0,4.64-2.08,4.64-4.63S293.55,417.87,290.99,417.87z"/>
			</g>
			<path class="st32" d="M286.63,422.1c0,0-0.37,2.86,2.64,4.22c2.93,0.99,4.95-1.21,5.32-2.16
				C295.63,421.4,288.01,419.19,286.63,422.1z"/>
			<path class="st33" d="M287.8,419.9c0,0,1.28-1.8,3.81-1.43c2.64,0.29,3.34,2.97,3.34,2.97s0.81,3.01-1.87,4.51
				c0,0,1.98-1.87,1.03-4.58C293.21,418.82,290.26,418.51,287.8,419.9z"/>
		</g>
		<circle class="st31" cx="291.13" cy="422.26" r="3.12"/>
		<circle class="st33" cx="291.55" cy="421.46" r="2.48"/>
		<circle class="st6" cx="291.99" cy="420.96" r="1.05"/>
	</g>
	<path d="M240.92,373.08c0,0,3.53,5.08,5.82,22.01c2.28,16.93,0.59,24.37,0.59,24.37l-1.47-8.69c0,0-61.55,5.6-89.23,14.8
		c0,0-2.43-1.4-1.69-4.05c0,0,41.52-8.83,90.48-12.96L240.92,373.08z"/>
	<path d="M259.03,407.9l12.15-1.1l0.59,5.82c0,0,0.29,2.06,2.72,1.69l29.01-2.06l-29.82,3.98c0,0-3.75,0.44-4.2-3.17l-0.59-3.61
		l-9.94,0.7L259.03,407.9z"/>
	<path d="M268.03,374.57l3.15,32.23C271.18,406.8,263.89,390.8,268.03,374.57z"/>
	<path d="M292.5,375.49l1.5-0.05c0.65-0.02,1.2,0.46,1.27,1.11l2.68,26.53c0.07,0.68-0.42,1.28-1.1,1.35l-2.26,0.23
		c0,0,1.66-0.98,1.84-2.25l-2.56-25.53C293.87,376.88,293.66,375.83,292.5,375.49z"/>
	<g>
		<g>
			<g>
				<circle class="st31" cx="296.14" cy="388.98" r="3.87"/>
				<path class="st29" d="M296.14,393.35c-2.41,0-4.37-1.96-4.37-4.37c0-2.41,1.96-4.36,4.37-4.36s4.37,1.96,4.37,4.36
					C300.5,391.39,298.54,393.35,296.14,393.35z M296.14,385.62c-1.86,0-3.37,1.51-3.37,3.36s1.51,3.37,3.37,3.37
					s3.37-1.51,3.37-3.37S297.99,385.62,296.14,385.62z"/>
			</g>
			<g>
				<path class="st36" d="M296.14,390.58c-0.88,0-1.6-0.72-1.6-1.6c0-0.88,0.72-1.6,1.6-1.6s1.6,0.72,1.6,1.6
					C297.73,389.86,297.02,390.58,296.14,390.58z"/>
				<path class="st29" d="M296.14,391.08c-1.16,0-2.1-0.94-2.1-2.1c0-1.16,0.94-2.1,2.1-2.1s2.1,0.94,2.1,2.1
					C298.23,390.14,297.29,391.08,296.14,391.08z M296.14,387.88c-0.61,0-1.1,0.49-1.1,1.1c0,0.6,0.49,1.1,1.1,1.1s1.1-0.49,1.1-1.1
					C297.23,388.38,296.74,387.88,296.14,387.88z"/>
			</g>
			<path class="st32" d="M293.02,388.68c0,0-0.28,2.15,1.99,3.17c2.21,0.75,3.73-0.91,4-1.63c0,0-0.41-0.28-1.24,0.41
				c0,0-0.72,0.97-2.21,0.61c-1.49-0.36-1.71-1.82-1.71-1.82S293.68,388.82,293.02,388.68z"/>
			<path class="st33" d="M293.74,387.02c0,0,0.97-1.35,2.87-1.08c1.99,0.22,2.51,2.24,2.51,2.24s0.61,2.26-1.41,3.4
				c0,0,1.49-1.41,0.77-3.45C297.81,386.2,295.59,385.97,293.74,387.02z"/>
		</g>
		<g>
			<path class="st31" d="M295.92,387.44l7.55-0.58c0.82-0.06,1.54,0.54,1.62,1.36l0,0c0.09,0.84-0.54,1.59-1.38,1.66l-7.46,0.62
				C294.37,390.47,294.29,387.8,295.92,387.44z"/>
			<path class="st29" d="M296.29,391c-1.28-0.02-1.92-0.92-2.01-1.8c-0.09-0.93,0.4-2,1.54-2.25l0.07-0.01l7.55-0.58
				c1.06-0.09,2.05,0.73,2.16,1.81c0.06,0.54-0.11,1.07-0.46,1.49c-0.35,0.42-0.84,0.68-1.38,0.72L296.29,391z M295.99,387.93
				c-0.56,0.14-0.77,0.7-0.72,1.16c0.02,0.21,0.16,0.9,0.99,0.91l7.41-0.62c0.27-0.02,0.52-0.15,0.7-0.36
				c0.18-0.21,0.26-0.48,0.23-0.75c-0.06-0.54-0.53-0.96-1.09-0.91L295.99,387.93z"/>
		</g>
		<path class="st32" d="M295.86,387.88c0,0,0.06,0.88,0.97,0.99s5.77-0.39,5.77-0.39s0.97,0,1.16,0.66l-7.34,0.58
			c0,0-1.21,0.08-1.16-0.83C295.23,388.15,295.86,387.88,295.86,387.88z"/>
		<path class="st33" d="M296.52,388.21l6.57-0.55c0,0,0.88-0.14,1.08,0.44c0.19,0.58-0.14,0.72-0.14,0.72s-0.17-0.91-1.6-0.66
			c-1.44,0.25-5.27,0.41-5.27,0.41S296.83,388.62,296.52,388.21z"/>
	</g>
	<path d="M313.59,369.62c0,0,6.77,15.39,3.68,40.56L313.59,369.62z"/>
	<path d="M301.73,412.47c0,0,1.44,3.13,2.17,7.8c0.83,5.27,0.78,12.55-2.21,15.13c0,0,4.67-9.83-1.73-22.64L301.73,412.47z"/>
	<path d="M285.68,336.2c0,0,12.81,10.75,9.31,31.18l1.18-0.04C296.17,367.34,300.11,347.83,285.68,336.2z"/>
	<path d="M252.1,468.83c-3.71,0-7.71-0.14-12.03-0.46c-46.84-3.43-60.24-8.66-85.12-26.18l-0.52-0.37l-0.1-0.63
		c-0.05-0.29-1.12-7.24-1.12-17.35c-0.1-0.2-0.2-0.41-0.32-0.65l-0.49,0.09l-0.15-1.63c-0.06-0.72-1.51-17.72,5.07-31.91l0.22-0.48
		l0.48-0.23c0.68-0.33,1.13-0.55,1.45-0.7c4.56-12.37,15.01-34.64,34.91-49.26l0.62-0.46l0.73,0.24
		c0.56,0.18,56.26,17.77,101.81-10.49l0.66-0.41l0.71,0.3c1.63,0.69,39.69,17.07,37.78,47.67c0.31,0.4,0.67,0.99,1.02,1.89
		c0.24,0.7,5.4,15.79,5.7,26.79l0.04,1.41l-0.94,0.09c1.79,4.18,4.1,10.75,3.11,21.53c-0.04,1.3-0.95,17.13-21.6,28.77
		c-3.72,2.1-7.88,3.17-12.15,3.11c-4.77-0.07-11.2-0.81-15.86-3.82C293.02,459.33,282.24,468.83,252.1,468.83z M157.21,440.1
		c24.01,16.85,37.3,21.92,83.09,25.27c44.42,3.26,54-12.34,54.1-12.5l0.88-1.51l1.37,1.08c4.04,3.25,10.55,4.01,15.3,4.07
		c3.74,0.05,7.37-0.89,10.63-2.73c19.51-10.99,20.06-25.65,20.07-26.27l0.01-0.11c1.05-11.34-1.68-17.45-3.48-21.5l-1.16-2.61h2.24
		c0.03,0,0.07-0.01,0.12-0.01c-0.66-10.42-5.4-24.28-5.45-24.43c-0.13-0.33-0.37-0.79-0.52-1.01l-0.83-0.31l0.09-1.14
		c2.21-26.72-30.03-42.69-35.2-45.08c-43.71,26.63-96.02,12.62-102.89,10.6c-19.19,14.39-29.2,36.2-33.48,48l-0.26,0.72l-0.63,0.18
		c-0.25,0.12-0.9,0.43-1.36,0.66c-5.57,12.46-4.75,27.53-4.6,29.64c0.11,0.21,0.22,0.45,0.35,0.71l0.64-0.11l0,1.78
		C156.19,431.86,156.95,438.17,157.21,440.1z"/>
	<path class="st2" d="M344.43,419.46c0,0-2.21,10.45-42.99,17.67l-10.01,19.44c0,0,1.62,9.13,18.7,7.95
		c17.08-1.18,30.48-12.66,30.48-12.66s6.04-5.37,8.25-18.55C350.39,419.61,344.43,419.46,344.43,419.46z"/>
	<path class="st37" d="M303.76,436.69c0,0,11.6-1.77,18.88-4.53c0,0-10.6,5.19-14.8,17.23c-4.2,12.04,13.03,9.28,13.03,9.28
		s19.77-4.09,26.28-18.66c0,0-0.11,7.4-10.05,14.47c-9.94,7.07-27.06,12.81-38.87,8.72C298.24,463.19,296.8,447.29,303.76,436.69z"
		/>
	<path d="M307.17,466.12c-15.39,0-17.15-8.89-17.22-9.29l-0.09-0.5l10.58-20.55l0.73-0.13c38.51-6.81,41.77-16.46,41.8-16.56
		l0.26-1.22l1.23,0.09c0.2,0,1.99,0.1,3.6,1.95c2.23,2.56,3,7.13,2.27,13.56c-2.15,12.84-5.72,16.71-7.85,19.03l-0.4,0.44
		c-2.71,3.01-14.38,11.88-31.86,13.08C309.16,466.09,308.14,466.12,307.17,466.12z M293.03,456.73c0.58,1.63,3.58,7.22,16.99,6.29
		c16.77-1.16,27.8-9.83,29.83-12.1l0.42-0.46c1.91-2.07,5.1-5.53,7.09-17.41c0.79-7.05-0.58-9.96-1.47-11.06
		c-0.24-0.3-0.48-0.51-0.7-0.66c-2.11,3.4-10.4,11.32-42.77,17.14L293.03,456.73z"/>
	<path class="st2" d="M303.76,431.17c0,0,5.74,3.31,1.99,17.45c-3.75,14.13-3.5,17.6-27.57,23.56
		c-16.1,3.99-74.66,2.63-105.79-10.23c-15.43-6.38-24.3-12.63-24.81-24.66c-0.74-15.09,7.33-14.94,7.33-14.94
		s-0.89,5.87,19.46,11.41c47.13,10.57,74.19,9.57,95.56,8.91C296.29,441.76,303.3,436.56,303.76,431.17z"/>
	<path class="st37" d="M154.9,422.33c0,0-7.62,0.11-7.4,13.58s11.37,19.55,11.37,19.55s24.52,17.34,85.69,18.55
		c0,0-86.58-5.3-72.33-40.75C172.24,433.26,155.12,428.3,154.9,422.33z"/>
	<path class="st5" d="M179.97,441.33c0.33,0.22,33.35,9.06,80.17,7.29c0,0,36.77-1.55,43.07-9.94c0,0-1.55,9.28-4.53,15.9
		s-8.83,8.94-19.66,10.93C268.2,467.5,172.68,467.83,179.97,441.33z"/>
	<path class="st5" d="M325.18,453.47c0,0-11.37,3.31-11.26-5.63c0.06-4.47,3.29-8.14,6.5-10.7c2.63-2.09,5.63-3.66,8.81-4.76
		c4.05-1.4,12.18-4.65,15.83-9.28c0,0,2.98,8.94-1.77,17.45C338.54,449.06,325.18,453.47,325.18,453.47z"/>
	<path class="st2" d="M183.83,465.84c0,0-25.18-6.74-32.69-17.56c-7.51-10.82-3.2-25.29,3.75-25.95c0,0-8.39,5.74-1.99,20.54
		C159.65,458.77,183.83,465.84,183.83,465.84z"/>
	<path class="st6" d="M302.67,446.69l-3.46,4.15l1.91,2.18l-3.27,2.82l1.51,4.28l-3.64,0.17l-1.36,4.44l-4.54-0.92l-2.26,3.57
		l-5-1.46l-3.03,3.48l-4.57-2.46l-6.01,3.64l-0.17-3.75l-7.56,3.77l1.48-3.67l-9.55,3.37c0,0,1.59-3.78,1.15-3.77
		c-0.44,0.01-8.91,2.25-8.91,2.25l1.62-2.35l-13.13,0.67l5.03-2.74c0,0-12.12,1.42-11.8,1.09c0.33-0.34,6.25-2.65,6.25-2.65
		l-13.69,0.35l22.05-2.48l-4.93,2.51l10.37-0.51l-3.94,2.17l10.02-1.72l-1.73,2.02l7.14-2l-2.14,3.79l9.21-4.13l-0.82,3.88
		l6.88-4.54l0.07,4.09l3.25-3.92l3.25,2.93l1.7-3.78l5.9,2.55l0.7-4.43l5.67,1.89l-1.08-4.73l3.88,0.71l-2.16-3.5l4.62-1.07
		l-3.13-2.16L302.67,446.69z"/>
	<path class="st6" d="M325.81,453.35c0,0-0.83,3.41-0.41,3.3c0.41-0.1,5.37-5.57,5.37-5.26s1.44,2.48,1.65,2.17s3.51-5.57,3.72-5.26
		s2.37,1.96,2.37,1.96l1.75-5.16c0,0,3.3,0.72,3.3,0.41s-1.03-4.54-0.52-4.23s2.89-1.14,2.89-1.14l-0.93-2.37l2.37-3.2l-1.55-2.99
		l1.34-3.41l-2.99-0.62l1.14,1.55c0,0-2.58,2.48-2.27,2.48s1.86,2.58,1.86,2.58l-3.61,2.68l1.34,2.27l-2.79,1.14l0.62,2.37
		l-2.37-0.21l-0.52,3.72l-2.48-2.06l-2.89,6.4l-1.44-2.48l-3.41,4.95l-0.62-3.51L325.81,453.35z"/>
	<path d="M303.76,431.17c5.95,4.23,4.16,13.56,2.6,19.63c-3.09,13.68-11.76,19.72-25.03,22.3c-9.11,1.99-18.49,2.24-27.77,2.31
		c-18.51-0.01-37.01-1.37-55.24-4.71c-14.74-2.71-42.06-9.97-49.71-23.85c-4.05-6.99-4.43-25.04,6.33-26.01c0,0,1.46,1.72,1.46,1.72
		c0.02-0.18,0.01-0.07,0.01-0.1c0.07,0.31,0.16,0.57,0.35,0.88c2.36,3.31,6.36,4.85,10.06,6.38c4.49,1.8,9.43,2.96,14.18,3.91
		c9.72,2.04,19.53,3.79,29.37,5.11c19.89,2.58,39.48,3.99,59.55,3.91c-14.94,1.14-30.02,1.72-45.01,0.77
		c-14.98-1.4-29.84-3.74-44.55-6.85c-7.47-1.51-15.02-3.43-21.62-7.43c-2.42-1.62-5.38-3.78-5.32-7.02c0,0,1.46,1.72,1.46,1.72
		c-0.03,0-0.33,0.03-0.5,0.08c-0.2,0.05-0.41,0.11-0.61,0.19c-6.33,2.69-5.49,16.3-2.52,21.32c7.11,12.75,33.77,19.82,47.63,22.34
		c18,3.3,36.38,4.66,54.68,4.66c9.1-0.08,18.26-0.31,27.17-2.25c6.41-1.39,12.96-3.67,17.74-8.27c3.17-3.14,5.02-7.3,6.41-11.54
		C306.77,444.59,309.14,435.64,303.76,431.17L303.76,431.17z"/>
</g>
<g id="right-wing">
	<g>
		<path class="st0" d="M223.7,393.62c0,0,9.34,21.51-16.09,47.48c-22.13,22.64-24.79,4.45-21.55-3.52c0,0-14.67,4.23-11.72-24.5
			C177.27,384.35,204.54,364.26,223.7,393.62z"/>
		<path d="M190.75,453.58c-1.37,0-2.59-0.35-3.67-1.06c-3.81-2.5-4.24-8.61-3.13-13.22c-1.68-0.03-3.97-0.49-6.09-2.26
			c-4.57-3.82-6.26-11.93-5.01-24.11c1.75-17.04,12.07-31.6,24.54-34.62c10.09-2.44,19.88,2.71,27.57,14.5l0.12,0.22
			c0.4,0.92,9.44,22.74-16.39,49.13C201.25,449.75,195.24,453.58,190.75,453.58z M188.6,435.28l-1.16,2.86
			c-1.63,4.03-1.43,10.09,1.28,11.87c1.48,0.97,6.18,1.94,17.82-9.95c23.69-24.19,16.57-43.9,15.83-45.73
			c-6.94-10.57-15.55-15.23-24.28-13.11c-11.28,2.74-20.64,16.2-22.27,32.01c-1.42,13.85,1.37,19.34,3.95,21.5
			c2.72,2.27,5.83,1.42,5.86,1.41L188.6,435.28z"/>
	</g>
	<path class="st1" d="M178.86,422.11c0,0,17.23,5.74,37.33-1.1c-0.88,5.74-16.23,27.06-24.71,25.64
		c-6.67-1.75,1.63-16.47,1.63-16.47s-5.56,4.7-9,4.25C177.33,433.54,178.42,425.09,178.86,422.11z"/>
	<path class="st2" d="M177.98,389.87c0,0-0.33,6.74,23.63,3.75c23.96-2.98,24.07-7.18,24.07-7.18s10.82,2.32,9.17,18.88
		c-1.66,16.56-48.48,13.25-48.48,13.25s-17.56-0.33-16.45-13.47S177.98,389.87,177.98,389.87z"/>
	<path class="st3" d="M228.55,386.92c0,0-2.28-22.82-22.38-22.38s-29.85,29.08-29.85,29.08s-2.89,4.57,11.45,5.52
		C203.23,400.17,228.41,397.23,228.55,386.92z"/>
	<path class="st4" d="M191.45,396.34c0,0,3.83-23.85,17.37-26.65c13.55-2.8,15.61,19.73,15.61,19.73S214.42,398.26,191.45,396.34z"
		/>
	<path class="st5" d="M181.07,401.13c0,0,19.55,2.98,36-1.99c10.49-3.42,12.15-8.17,12.7-8.17c0,0,4.2,2.32,3.31,12.37
		s-21.64,12.04-21.64,12.04S180.52,418.25,181.07,401.13z"/>
	<path class="st6" d="M202.2,402.67l-3.02-2.48l7.61,0.72l-1.12-2.38l6.26,1.76l-0.89-2.07l5.48,1.34l-0.22-3l5.37,1.24v-2.9
		l3.02,2.07c0,0,0.67-4.24,1.01-4.03c0.34,0.21,2.01,2.48,2.01,2.48l1.12-4.96l2.13,4.65l2.35-1.65l-1.01,4.96l1.79-0.52l-0.89,3.31
		l0.78,1.24l-2.91,2.69l1.57-3l-1.57-0.72l1.45-1.86l-1.57,0.72l0.34-2.48l-1.9-3.31l-0.22,3.93l-2.8-2.69l-0.34,3.83l-2.68-2.17
		v3.1l-4.92-1.86l0.11,3.83l-4.59-1.97l0.89,2.28l-5.93-1.76l1.01,1.97l-6.93-0.93L202.2,402.67z"/>
	<path d="M221.6,394.79c2.76-1.56,6.15-5.05,5.65-7.73c-0.81-2.99-1.4-6.16-2.77-8.98c-3.91-9.15-12.77-13.8-22.46-11.47
		c-6.1,1.45-11.17,5.85-15.01,10.7c-3.97,5.02-7.32,11.36-9.37,17.13c-0.24,2.63,8,4.2,10.14,4.71c-2.43,0.12-4.89,0.19-7.31-0.21
		c-3.67-0.42-7-2.87-5.58-5.8c3.03-7.94,7.2-15.41,13.16-21.51c11.94-12.64,31.86-11.62,39.17,5.22
		C230.87,385.34,231.98,391.52,221.6,394.79L221.6,394.79z"/>
	<path d="M194.48,420.63c-17.17-0.42-22.23-5.24-23.2-6.4c-0.93-0.79-4.11-4.25-2.39-13.49c1.77-9.5,7.45-11.98,8.5-12.08l1.13-0.1
		l0.86,2.13l-0.93,0.71l-0.9-1.2l-1.32,0.64c0.36,0.72,1.17,0.92,1.6,0.79c-0.04,0.01-4.5,1.67-5.98,9.67
		c-1.53,8.23,1.38,10.65,1.41,10.67l0.16,0.13l0.16,0.2c0.02,0.02,4.07,4.93,20.91,5.34c14.89-0.43,21.33-1.83,21.39-1.84l0.18-0.03
		c0.19-0.02,18.6-2,17.54-13.27c-1.07-11.42-5.39-12.93-5.43-12.94l0.77-2.9c0.65,0.16,6.37,1.97,7.64,15.56
		c1.31,13.92-18.43,16.35-20.14,16.53C215.56,418.92,209,420.21,194.48,420.63z"/>
</g>
<g id="eyes">
	<path class="st1" d="M179.23,283.55c0,0,15.02,22.31,45.72,19.66c6.93-0.6,6.85,0.23,15.68-3.75c0,0,14.13-23.85-0.44-56.32
		c-15.02-33.13-36.44-15.24-36.44-15.24s-25.84,20.76-17.01,54.11C186.74,282,184.09,278.91,179.23,283.55z"/>
	<path class="st1" d="M274.64,251.52c0,0,2.65-26.5,16.79-27.17c14.13-0.66,31.8,17.89,31.58,49.03c0,0,3.98-1.99,7.07,0
		c0,0-3.31,12.37-23.19,18.33C287.01,297.68,271.33,270.74,274.64,251.52z"/>
	<g>
		<path class="st6" d="M191.29,271.08c0,0-1.44,25.01,32.57,24.84c10.25-0.05,18.87-7.79,20.02-17.98
			c1.18-10.46,0.29-24.63-8.41-38.53c-1.38-2.21-2.94-4.32-4.84-6.11C212.06,215.78,189.96,246.28,191.29,271.08z"/>
		<path class="st40" d="M223.51,297.91c-12.24,0-21.46-3.18-27.41-9.45c-6.92-7.3-6.86-16.18-6.81-17.38
			c-0.9-17.5,9.13-37.26,21.93-43.19c7.18-3.33,14.56-1.93,20.78,3.94c1.82,1.71,3.46,3.78,5.16,6.51
			c9.23,14.76,9.82,29.8,8.7,39.82c-1.26,11.21-10.72,19.7-22,19.75C223.74,297.91,223.62,297.91,223.51,297.91z M193.28,271.19
			c-0.01,0.17-0.31,8.21,5.76,14.57c5.22,5.47,13.52,8.2,24.8,8.15c9.25-0.05,17.01-7.01,18.04-16.2c1.05-9.39,0.5-23.47-8.11-37.25
			c-1.52-2.43-2.95-4.24-4.51-5.72c-5.1-4.81-10.6-5.89-16.36-3.22c-11.29,5.24-20.46,23.67-19.62,39.45l0.01,0.11L193.28,271.19z"
			/>
	</g>
	<g>
		<path class="st6" d="M318.18,265.75c0,0,3.96,22.74-23.02,25.9c-8.13,0.95-15.84-5.28-17.9-14.49c-2.11-9.46-3-22.51,2.32-36.07
			c0.85-2.16,1.84-4.24,3.15-6.06C295.48,217.19,316.44,242.93,318.18,265.75z"/>
		<path class="st40" d="M293.52,293.75c-8.44,0-16.07-6.63-18.2-16.15c-2.02-9.04-3.24-22.84,2.41-37.24
			c1.05-2.67,2.12-4.74,3.38-6.5c4.04-5.66,9.44-7.89,15.2-6.28c11.39,3.18,22.52,20.89,23.86,37.93c0.18,1.14,1.37,10.2-4.38,17.91
			c-4.24,5.69-11.1,9.13-20.39,10.22C294.77,293.72,294.14,293.75,293.52,293.75z M292.7,231.07c-3.11,0-5.9,1.71-8.33,5.12
			c-1.06,1.48-1.99,3.27-2.91,5.63c-5.28,13.46-4.13,26.41-2.23,34.91c1.83,8.21,8.61,13.77,15.71,12.94
			c8.13-0.95,14.06-3.85,17.62-8.6c4.99-6.66,3.67-14.9,3.66-14.98l-0.02-0.19c-1.15-15.03-11.33-31.78-20.95-34.47
			C294.37,231.2,293.52,231.07,292.7,231.07z"/>
	</g>
	<g>
		<ellipse cx="218.44" cy="265.44" rx="16.67" ry="23.63"/>
		
			<ellipse transform="matrix(0.1114 -0.9938 0.9938 0.1114 -64.5005 443.9633)" class="st41" cx="216.01" cy="258.05" rx="12.18" ry="8.59"/>
		
			<ellipse transform="matrix(0.1567 -0.9876 0.9876 0.1567 -69.5276 426.916)" class="st6" cx="215.23" cy="254.17" rx="4.53" ry="3.64"/>
	</g>
	<g>
		<ellipse transform="matrix(0.9959 -0.09 0.09 0.9959 -22.5775 27.1852)" cx="290.07" cy="263.88" rx="14.88" ry="21.77"/>
		
			<ellipse transform="matrix(0.9959 -0.09 0.09 0.9959 -21.9229 27.0113)" class="st41" cx="288.47" cy="256.53" rx="7.71" ry="11.28"/>
		
			<ellipse transform="matrix(0.9993 -0.0383 0.0383 0.9993 -9.4027 11.2026)" class="st6" cx="287.76" cy="251.08" rx="2.38" ry="3.03"/>
	</g>
</g>
<g id="beak">
	<path class="st42" d="M146.88,255.99c0,0,4.11-12.56,14.98-12.77c0.44,8.74-3.17,21.77,6.18,39.02
		c9.35,17.25,36.07,23.26,36.07,23.26s28.5,10.53,61.78,1.38c33.28-9.15,18.07-4.34,41.78-10.84c21.52-6.19,28.42-21.84,28.42-21.84
		s11.67,5.59,11.07,22.22s-9.3,28.63,3.7,36.08c0,0-6.36,2.26-9.26,0.02c0,0,0.83,7.58-2.66,12.52s-7.57,14.73-3.59,20.58
		c0,0-8.63,0.46-11.97-4.02c0,0,0.94,4.52-6.68,8.32s-7.9,15.44-7.9,15.44s-11.26-9.84-28.83-8.87
		c-17.57,0.98-31.79-3.15-36.37-11.1c0,0,2.28,7.52-5.45,10.87c0,0,1.17-7.16-13.75-11.62c-14.92-4.46-38.78-7.27-42.24-21.5
		c0,0-19.31-6.06-17.67-27.94C164.49,315.2,146.3,295.64,146.88,255.99z"/>
	<path class="st43" d="M307.77,380.3c0,0-3.53-9.87-23.26-10.75c-19.73-0.88-26.36-9.28-27.68-21.94l4.56,3.83l1.91-1.91l3.39,3.09
		l1.91-2.21l4.12,2.36l2.21-2.06l3.39,2.06c0,0,1.47-3.09,1.91-3.09c0.44,0,2.8,2.21,2.8,2.21l1.62-3.83l3.24,2.21l0.29-3.39
		C288.19,346.87,320.28,353.35,307.77,380.3z"/>
	<path class="st43" d="M296.58,346.28c0,0,16.2,5.15,17.23,17.82c0,0,8.54-3.68,7.07-10.16c2.5,4.86,6.04,7.66,11.63,8.83
		c0,0-2.65-10.16,2.65-18.85c6.33-12.81-7.07-23.41-23.71-22.38l-4.42,0.29C307.03,321.84,310.42,342.16,296.58,346.28z"/>
	<path class="st43" d="M346.49,331.71c0,0-8.1-4.42-5.6-14.28c2.65-11.19,9.13-35.4-5.06-43.56c0,0-4.07,10.58-13.79,16.18
		l-13.69,23.85l1.62,4.56c0,0,22.38-2.5,27.68,11.63l1.33-3.09C338.98,326.99,340.01,332,346.49,331.71z"/>
	<path class="st43" d="M252.7,348.2c0,0-0.59,13.1,11.78,18.7s19.88,6.33,19.88,6.33s-33.57,6.92-39.75-13.99
		c0,0-2.5-6.63-0.88-15.75c0-0.59,2.5,5.6,2.5,5.6l2.36-3.24l1.47,4.27L252.7,348.2z"/>
	<path class="st43" d="M189.09,328.32c0,0-6.63,11.48,6.48,19.73c13.1,8.25,37.99,9.72,44.17,22.09c0,0,1.77-2.06,1.62-10.01
		c0,0-3.39-9.57,0-19.58c0,0-7.21,9.57-25.03,1.47c-6.48-3.68-6.92-9.72-6.92-9.72l-3.68,2.5l-1.91-2.5l-3.24,2.06l-1.18-2.94
		c0,0-3.09,2.36-3.09,1.91s-1.03-2.94-1.03-2.94l-3.09,1.62L189.09,328.32z"/>
	<path class="st43" d="M181.73,339.07c0,0-17.23-8.98-11.93-22.38s10.01-18.7,10.01-18.7s-7.07,11.19,3.53,22.82"/>
	<path class="st43" d="M159.94,269.87c0,0,0,24.44,16.05,29.15c0,0-5.45,7.21-7.8,13.1C168.19,312.12,150.96,296.07,159.94,269.87z"
		/>
	<path class="st0" d="M212.56,322.55c0,0-0.92,18.65,16.63,19.39c17.55,0.74,18.07-11.41,18.07-11.41l30.91,2.58
		c0,0,3.14,12.03,15.19,11.41c12.05-0.61,14.41-15.22,11.52-22.09L212.56,322.55z"/>
	<path class="st1" d="M218.72,332.98c0,0,7.73,0.12,14.54-3.19l7.6,2.95l0.79,3.07c0,0-3.27,3.93-10.08,4.17
		S219.5,335.32,218.72,332.98z"/>
	<path class="st1" d="M287.74,341.08c0,0,3.41-2.82,4.85-8.71l12.83-4.3c0,0-1.31,8.1-5.24,11.66
		C296.25,343.29,289.44,341.94,287.74,341.08z"/>
	<path class="st23" d="M203.94,305.49c3.48,2.22,6.08,3.44,10.83,4.45c0.68,0.13,1.73,0.32,2.99,0.56c0.31,0.06,0.65,0.1,0.99,0.16
		c0.91,0.14,1.84,0.28,2.8,0.42c8.26,1.11,17.06,1.41,26.02,0.62c2.23-0.28,4.48-0.5,6.73-0.85c1.12-0.2,2.24-0.4,3.36-0.6
		c1.12-0.2,2.25-0.39,3.36-0.69c4.5-1.03,8.84-2.28,13.22-3.47c4.38-1.19,8.77-2.37,13.14-3.44c2.2-0.51,4.4-1.02,6.59-1.53
		c2.21-0.53,4.38-1.1,6.55-1.67c2.16-0.58,4.3-1.17,6.44-1.74c1.06-0.27,2.15-0.68,3.22-1.02c0.53-0.18,1.07-0.34,1.6-0.54
		l1.55-0.64c4.14-1.68,8-3.86,11.43-6.47c3.43-2.61,6.43-5.61,8.9-8.89c0.61-0.82,1.2-1.66,1.74-2.52c0.25-0.42,0.51-0.84,0.76-1.26
		c0.06,0.06-0.31-0.24,0.69,0.51c0.68,0.52,1.32,1.1,1.92,1.71c1.68,1.69,3.05,3.67,4.03,5.8c0.99,2.13,1.58,4.4,1.95,6.67
		c0.6,4.57,0.1,9.19-0.64,13.53c-0.72,4.35-1.77,8.46-2.26,12.51c-0.25,2.02-0.33,4.05-0.07,6.02c0.24,1.97,0.93,3.86,1.91,5.42
		c0.25,0.38,0.52,0.75,0.78,1.11c0.29,0.33,0.56,0.67,0.85,0.98c0.3,0.29,0.59,0.6,0.89,0.86c0.44,0.37,0.31,0.26,0.33,0.27
		c0,0-0.01-0.01,0-0.01l0,0c-0.28,0.03-0.54,0.06-0.78,0.09c-0.85,0.09-1.54,0.06-2.1-0.02c-0.14-0.02-0.27-0.04-0.4-0.06
		c-0.26-0.1-0.59-0.27-0.86-0.38c-0.29-0.15-0.52-0.2-0.81-0.4c-0.28-0.18-0.54-0.34-0.78-0.49c-0.45-0.29-0.82-0.52-1.11-0.7
		c-0.25-0.15-0.48-0.33-0.54-0.32c0.01,0.11,0.01,0.14,0.01,0.1c0-0.02-0.01-0.06-0.01-0.12c0.05,0.02,0.14,0.08,0.24,0.14
		c0.21,0.13,0.5,0.32,0.88,0.56c0.42,0.26,0.97,0.63,1.57,0.98c-0.54-0.31-1.13-0.71-1.69-1.05l-0.73-0.47l-0.18-0.12l-0.09-0.06
		l0.01,0.08l0.03,0.34c0.09,1.01,0.22,2.09,0.28,3.06c0.08,0.92,0.07,2.09,0.05,2.3c-0.01,0.42-0.03,0.83-0.07,1.23
		c-0.12,1.59-0.39,2.94-0.67,3.88c-0.27,0.95-0.51,1.52-0.56,1.61c-0.05,0.09,0.15-0.26,0.47-1.32c-0.25,0.78-0.52,1.54-0.89,2.23
		c-0.16,0.36-0.37,0.67-0.58,0.99l-0.15,0.24l-0.19,0.29l-0.38,0.57c-1,1.54-1.82,3.1-2.52,4.68c-1.4,3.15-2.28,6.37-2.4,9.54
		c0.01,0.8,0,1.58,0.13,2.36c0.04,0.39,0.09,0.77,0.2,1.15c0.09,0.35,0.17,0.69,0.25,1.02l0.08,0.2c0.04,0.09,0.01,0.03,0.02,0.05
		l0,0l0,0l0.01,0l-0.32-0.03c-0.52-0.05-1.02-0.12-1.5-0.19c-0.95-0.17-1.82-0.36-2.56-0.63c-0.76-0.25-1.38-0.56-1.92-0.85
		c-0.13-0.09-0.25-0.17-0.37-0.25c-0.29-0.17-0.55-0.39-0.8-0.62c-0.25-0.24-0.48-0.52-0.71-0.76c-0.19,0.07-0.37,0.16-0.54,0.24
		c-0.61,0.27-1.01,0.45-1.17,0.53c-0.11,0.05-0.14,0.06-0.09,0.04c0.04-0.02,0.15-0.06,0.32-0.14c0.13-0.06,0.32-0.14,0.56-0.25
		c0.12-0.05,0.24-0.11,0.38-0.17c0.1-0.04,0.19-0.09,0.29-0.13l0.15-0.07c0.05-0.02,0.1-0.08,0.17,0.03c0.26,0.26,0.51,0.6,0.8,0.82
		c0.14,0.12,0.29,0.26,0.45,0.35c0.11,0.07,0.21,0.14,0.32,0.21c-0.04-0.04-0.43-0.24-0.66-0.47c-0.27-0.21-0.52-0.48-0.77-0.77
		l-0.19-0.21c-0.06-0.03-0.11,0.03-0.16,0.04l-0.31,0.14l-0.46,0.21c-0.33,0.15-0.65,0.29-0.97,0.43l-0.51,0.23l-0.33,0.15
		c-0.09,0-0.07,0.12-0.08,0.2l-0.02,0.26l-0.05,0.52c-0.04,0.15-0.08,0.3-0.13,0.44l-0.11,0.29c-0.02,0.05-0.04,0.11-0.06,0.16
		c-0.2,0.41-0.43,0.8-0.71,1.16c-1.08,1.46-2.57,2.38-3.56,2.99c-0.53,0.29-0.95,0.52-1.23,0.67c-0.34,0.2-0.49,0.29-0.5,0.3
		c0.01-0.01,0.21-0.12,0.61-0.36c0.33-0.2,0.88-0.44,1.55-0.88c-0.66,0.43-1.33,0.74-1.72,0.98c-0.44,0.26-0.46,0.26,0.22-0.12
		c-0.73,0.44-1.56,0.88-1.9,1.19c-0.36,0.29-0.4,0.32,0.21-0.17c-3.07,2.26-4.66,5.34-5.62,8.04c-0.49,1.37-0.81,2.7-1.06,3.96
		c-0.05,0.28-0.1,0.55-0.15,0.83l-0.02,0.15v0l0,0l0,0c-0.03-0.02,0.1,0.07-0.2-0.13c-0.82-0.56-1.61-1.02-2.35-1.46
		c-1.48-0.84-2.77-1.48-3.84-1.96c-1.07-0.49-1.93-0.84-2.57-1.07c-0.64-0.24-1.05-0.4-1.25-0.47c-0.4-0.13,0.08,0.01,1.31,0.49
		c-3.73-1.39-5.75-1.77-6.75-2.01c-1.02-0.19-1.05-0.2-1.05-0.2s-0.17-0.03-0.57-0.11c-0.4-0.09-1.04-0.2-2-0.3
		c-0.48-0.06-1.03-0.13-1.68-0.2c-0.64-0.05-1.38-0.08-2.21-0.13c-0.83-0.07-1.75-0.05-2.78-0.03c-0.51,0.01-1.06,0.02-1.62,0.03
		c-0.54,0.02-1.1,0.04-1.7,0.06c-2.37,0.11-5.17,0.1-8.45-0.11c-3.27-0.22-7.04-0.67-11.19-1.78c-2.07-0.55-4.23-1.3-6.35-2.36
		c-0.27-0.13-0.54-0.26-0.81-0.4c-0.26-0.15-0.51-0.31-0.78-0.46c-0.52-0.31-1.05-0.62-1.53-1c-0.5-0.36-1.01-0.73-1.45-1.17
		l-0.62-0.56c-0.25-0.27-0.49-0.54-0.74-0.86c-0.53-0.76-1.06-1.52-1.59-2.29c-1.12-1.59-2.03-2.98-3.03-4.47
		c-0.46-0.7-0.93-1.4-1.4-2.1l-0.34-0.51c-0.05-0.08-0.12-0.19-0.17-0.24l0.12,0.43l0.46,1.7c0.29,1.09,0.58,2.18,0.88,3.27
		c0.23,0.87,0.47,1.75,0.7,2.62c0.15,0.51,0.16,0.71,0.22,1l0.15,0.84l0.15,0.84c0.03,0.25-0.01,0.41-0.01,0.63l-0.07,1.21
		c-0.14,0.72-0.29,1.32-0.59,1.89c-0.12,0.3-0.29,0.57-0.47,0.84c-0.15,0.29-0.39,0.52-0.6,0.77c-0.19,0.27-0.49,0.46-0.73,0.7
		c-0.12,0.12-0.25,0.23-0.41,0.32l-0.09,0.06l0.01-0.01l0.02-0.01l0,0l0,0l0,0.01c0.01,0.02,0.01,0.04,0-0.01l-0.06-0.19l-0.13-0.38
		l-0.32-0.72c-0.4-0.77-0.85-1.66-2.18-3.03c-1.32-1.34-3.57-3.18-7.72-4.86c-0.2-0.08-0.4-0.16-1.32-0.54
		c-0.17-0.07-0.35-0.12-1.17-0.39c-2.63-0.92-5.82-1.71-9.72-2.71c-3.9-0.99-8.52-2.07-13.82-3.75c-2.64-0.86-5.46-1.86-8.3-3.25
		c-2.83-1.39-5.75-3.18-8-5.81c-1.12-1.31-2.01-2.84-2.55-4.55c-0.12-0.42-0.25-0.84-0.37-1.27l-0.11-0.37
		c-0.07-0.09-0.23-0.1-0.34-0.15l-0.66-0.24l-0.33-0.12c-0.11-0.04-0.23-0.08-0.26-0.1l-0.33-0.14c-0.22-0.1-0.45-0.18-0.67-0.29
		c-0.89-0.42-1.78-0.89-2.66-1.42c-3.5-2.1-6.77-5.17-9.05-9.15c-0.55-1.11-1.18-2.22-1.56-3.46c-0.19-0.62-0.5-1.21-0.61-1.86
		c-0.15-0.65-0.29-1.3-0.44-1.96c-0.19-0.65-0.2-1.35-0.28-2.03c-0.06-0.69-0.16-1.39-0.2-2.09c0.01-0.71,0.03-1.43,0.04-2.16
		c0.01-0.46,0.02-0.91,0.02-1.37c-0.03-0.39,0.14-0.82-0.24-1.07c-0.25-0.27-0.57-0.66-0.62-0.73c-3.74-4.62-6.93-10.44-9.56-16.86
		c-2.75-6.67-4.66-14.01-5.84-21.64c-0.24-1.92-0.53-3.84-0.73-5.78c-0.14-1.95-0.28-3.9-0.42-5.87c-0.07-1.97-0.07-3.94-0.1-5.92
		l-0.02-1.28c0-0.01-0.01,0.04,0.02-0.04l0.12-0.32c0.09-0.21,0.17-0.43,0.27-0.64c0.37-0.86,0.82-1.7,1.28-2.52
		c1.91-3.22,4.6-6.09,7.97-7.24c0.4-0.19,0.84-0.26,1.27-0.37l0.64-0.16l0.08-0.02l0.01,0l0.02,0l0.03,0c0.03,0,0.1-0.01,0.11-0.01
		c0,0,0-0.02,0,0c-0.01,1.93-0.13,3.93-0.22,5.93c-0.19,4.01-0.26,8.09,0.2,12.11l0.18,1.5l0.04,0.37l0.01,0.07l0.01,0.07l0.04,0.26
		l0.09,0.52c0.12,0.68,0.24,1.35,0.35,1.97c0.14,0.62,0.28,1.21,0.4,1.75c0.23,1.09,0.52,1.96,0.69,2.56
		c0.33,1.19,0.74,2.22,1.16,3.15c0.21,0.47,0.4,0.92,0.62,1.34c0.23,0.42,0.47,0.82,0.71,1.21c0.92,1.59,2.07,2.93,3.4,4.48
		c-0.46-2.03-0.89-3.65-1.3-5.38c-0.11-0.43-0.23-0.85-0.36-1.29c-0.12-0.44-0.23-0.89-0.36-1.36c-0.27-0.93-0.59-1.92-0.88-3.04
		c-0.15-0.57-0.43-1.39-0.64-2.41c-0.12-0.51-0.24-1.06-0.37-1.64c-0.1-0.59-0.21-1.21-0.32-1.86l-0.08-0.49l-0.04-0.25l-0.01-0.06
		l-0.01-0.07l-0.04-0.35l-0.17-1.42c-0.44-3.79-0.38-7.66-0.19-11.63c0.09-1.99,0.21-3.99,0.22-6.08l-0.07-3.01l-0.01-0.38
		c-0.06-0.05-0.22,0-0.33,0l-0.72,0.07l-1.44,0.13l-0.72,0.07l-0.36,0.03l-0.18,0.02l-0.1,0.02l-0.82,0.19
		c-0.55,0.14-1.11,0.24-1.62,0.47c-2.13,0.74-4.05,2-5.63,3.52c-1.59,1.51-2.9,3.25-3.99,5.09c-0.53,0.93-1.03,1.87-1.45,2.85
		c-0.11,0.24-0.21,0.5-0.31,0.75l-0.15,0.38c-0.05,0.16-0.18,0.44-0.21,0.67l0.02,1.73c0.04,2.03,0.04,4.06,0.11,6.08
		c0.15,2.02,0.29,4.03,0.44,6.03c0.21,2,0.5,3.97,0.75,5.94c1.21,7.85,3.19,15.44,6.04,22.35c2.75,6.69,6,12.66,10.06,17.69
		c0.19,0.23,0.12,0.14,0.13,0.16c0,0,0,0.01,0-0.01l-0.02,0.92c-0.01,0.8-0.03,1.58-0.04,2.37c0.05,0.78,0.14,1.56,0.22,2.33
		c0.09,0.77,0.11,1.53,0.32,2.27c0.17,0.74,0.34,1.48,0.5,2.2c0.14,0.74,0.47,1.41,0.69,2.11c0.43,1.41,1.14,2.67,1.77,3.93
		c2.59,4.53,6.27,7.96,10.16,10.29c0.97,0.59,1.96,1.12,2.97,1.58c0.25,0.12,0.51,0.22,0.76,0.34l0.52,0.22
		c0.07,0.03,0.07,0.03,0.06,0.02c0,0,0,0,0,0l0,0.01l0.05,0.19c0.67,2.15,1.8,4.07,3.14,5.63c2.71,3.15,5.97,5.1,9.01,6.6
		c3.06,1.5,6,2.54,8.73,3.43c5.47,1.73,10.13,2.81,14.01,3.8c3.88,0.98,7.05,1.78,9.48,2.63c0.76,0.25,0.93,0.3,1.09,0.37
		c0.85,0.35,1.03,0.42,1.21,0.49c3.8,1.54,5.63,3.11,6.67,4.15c1.04,1.07,1.33,1.68,1.61,2.21l0.22,0.48l0.08,0.24l0.04,0.12
		l0.05,0.15c0.02,0.07,0.03,0.11,0.04,0.17c0.06,0.21,0.06,0.46,0.09,0.68c0.02,0.11,0.01,0.25,0.05,0.33l0.22,0.17l0.63,0.49
		c0.32,0.25,0.64,0.5,0.95,0.74l0.3,0.23l0.04,0.03l0.07-0.03l0.14-0.07l0.27-0.14l1.06-0.54l0.98-0.66
		c0.2-0.13,0.39-0.28,0.56-0.44c0.35-0.33,0.74-0.61,1.04-1c0.31-0.37,0.64-0.72,0.88-1.13c0.27-0.4,0.51-0.8,0.7-1.24
		c0.43-0.84,0.66-1.77,0.82-2.56l0,0l0,0l0,0l0,0l-0.01-0.01l0,0l0.05,0.05l0.1,0.09c0.54,0.53,1.13,0.96,1.71,1.38
		c0.57,0.45,1.17,0.8,1.77,1.16c0.3,0.18,0.59,0.35,0.88,0.52c0.3,0.15,0.6,0.3,0.9,0.45c2.38,1.19,4.71,2,6.93,2.58
		c4.44,1.2,8.38,1.66,11.8,1.89c3.42,0.21,6.32,0.22,8.77,0.11c0.61-0.02,1.2-0.05,1.75-0.07c0.53-0.01,1.03-0.02,1.51-0.03
		c0.96-0.03,1.82-0.04,2.59,0.02c0.77,0.04,1.45,0.07,2.05,0.12c0.6,0.07,1.11,0.14,1.56,0.19c0.89,0.09,1.49,0.2,1.86,0.28
		c0.38,0.07,0.53,0.1,0.53,0.1s0.03,0.01,0.98,0.19c0.93,0.22,2.81,0.57,6.29,1.87c-1.15-0.45-1.59-0.58-1.22-0.46
		c0.18,0.07,0.57,0.21,1.16,0.44c0.6,0.21,1.4,0.54,2.4,0.99c1,0.45,2.2,1.05,3.57,1.82c0.68,0.4,1.41,0.84,2.17,1.35
		c0.1,0.05,0.63,0.43,1,0.72c0.4,0.31,0.81,0.62,1.23,0.93c0.43,0.36,0.86,0.73,1.31,1.1c0.22,0.19,0.44,0.37,0.67,0.56
		c0.21,0.16,0.52,0.56,0.44,0.06c0.04-1.19,0.1-2.45,0.17-3.67c0.05-0.56,0.13-1.06,0.19-1.61c0.04-0.33,0.06-0.36,0.08-0.53
		l0.08-0.42c0.23-1.13,0.5-2.32,0.93-3.51c0.84-2.37,2.2-4.86,4.49-6.54c-0.45,0.37-0.43,0.35-0.16,0.13
		c0.27-0.25,0.84-0.52,1.45-0.91c-0.57,0.34-0.51,0.3-0.2,0.11c0.35-0.22,1.19-0.61,1.94-1.1c-0.8,0.52-1.41,0.79-1.8,1.02
		c-0.31,0.19-0.46,0.28-0.47,0.28c0.01-0.01,0.12-0.07,0.37-0.23c0.32-0.17,0.79-0.43,1.39-0.76c0.59-0.37,1.32-0.8,2.09-1.42
		c0.78-0.61,1.63-1.37,2.39-2.4c0.39-0.5,0.74-1.09,1.05-1.73c0.04-0.08,0.07-0.17,0.11-0.25l0.05-0.12l0-0.01l0,0l0,0l0,0l0,0l0,0
		c0.02,0.01-0.08-0.05,0.16,0.11l-0.14-0.09c-0.03-0.02-0.01-0.01-0.01-0.01v0l0,0l0,0l0,0l0,0l0,0l0,0l0,0
		c0.16,0.11,0.33,0.21,0.5,0.33c0.73,0.4,1.55,0.8,2.49,1.11c0.93,0.33,1.95,0.56,3.06,0.76c0.55,0.09,1.12,0.17,1.72,0.22
		l0.52,0.04c0.29,0.02,0.57,0.04,0.86,0.05c0.56,0,1.15,0.03,1.7,0.01c0.55-0.02,1.1-0.05,1.67-0.07c0.28-0.01,0.56-0.02,0.84-0.04
		l0.1,0l0.05,0c0-0.01-0.02-0.03-0.03-0.05l-0.12-0.22l-0.25-0.43c-0.17-0.29-0.33-0.58-0.5-0.88c-0.18-0.3-0.33-0.59-0.46-0.86
		c-0.27-0.55-0.54-1.11-0.82-1.67c-0.03-0.06-0.08-0.16-0.09-0.19l-0.02-0.1l-0.05-0.21l-0.1-0.42c-0.08-0.27-0.12-0.57-0.15-0.87
		c-0.1-0.59-0.08-1.23-0.1-1.87c0.1-2.6,0.86-5.49,2.14-8.36c0.63-1.43,1.39-2.87,2.28-4.25l0.34-0.51l0.37-0.57
		c0.27-0.42,0.54-0.84,0.75-1.29c0.47-0.88,0.8-1.81,1.1-2.75c-0.39,1.26-0.64,1.72-0.58,1.61c0.06-0.12,0.35-0.82,0.68-1.96
		c0.33-1.13,0.64-2.7,0.77-4.49c0.08-0.78,0.09-2.29,0.08-1.86l0,0l0,0l0,0l0,0c0.01,0-0.03,0,0.03,0c0.18,0.03,0.37,0.06,0.57,0.09
		c0.8,0.1,1.76,0.13,2.79,0.03c0.26-0.03,0.52-0.06,0.8-0.09l0.1-0.01l0.18-0.03l0.37-0.07c0.25-0.05,0.5-0.09,0.75-0.14
		c1.01-0.23,2.07-0.51,3.01-0.85c0.49-0.17,0.99-0.34,1.5-0.52c0.26-0.09,0.51-0.18,0.77-0.27l0.35-0.12
		c-0.09-0.08-0.28-0.18-0.41-0.27c-1.21-0.76-2.48-1.55-3.79-2.37c-0.6-0.4-1.26-0.98-1.38-1.08c-0.24-0.22-0.47-0.45-0.71-0.69
		c-0.23-0.24-0.43-0.5-0.66-0.76c-0.2-0.27-0.4-0.55-0.59-0.84c-0.73-1.18-1.25-2.56-1.45-4.16c-0.21-1.59-0.16-3.36,0.08-5.23
		c0.45-3.75,1.49-7.88,2.24-12.36c0.38-2.24,0.69-4.58,0.86-6.99c0.03-0.6,0.07-1.21,0.09-1.82c0-0.62-0.01-1.25-0.01-1.88
		c0.04-1.26-0.17-2.53-0.28-3.8c-0.41-2.55-1.08-5.12-2.21-7.56c-1.12-2.44-2.7-4.72-4.64-6.68c-0.69-0.7-1.43-1.37-2.24-1.99
		c-0.44-0.34-0.64-0.51-1.6-1.12c-0.79-0.43-1.62-0.96-2.37-1.2l-0.64,1.34l-0.65,1.26c-0.13,0.26-0.15,0.27-0.22,0.39l-0.18,0.29
		l-0.36,0.59c-0.5,0.78-1.03,1.55-1.6,2.31c-2.29,3.02-5.09,5.83-8.29,8.27c-3.21,2.44-6.83,4.48-10.73,6.07l-1.46,0.6
		c-0.49,0.19-1,0.34-1.5,0.51c-1.02,0.32-1.99,0.69-3.06,0.97c-2.12,0.57-4.25,1.15-6.4,1.73c-2.15,0.57-4.31,1.14-6.47,1.65
		c-2.19,0.51-4.39,1.02-6.6,1.53c-4.43,1.09-8.82,2.27-13.21,3.46c-4.39,1.19-8.78,2.45-13.08,3.43c-1.07,0.29-2.17,0.47-3.26,0.66
		c-1.09,0.2-2.18,0.39-3.26,0.58c-2.18,0.34-4.37,0.55-6.53,0.82c-8.7,0.76-17.27,0.48-25.31-0.6c-0.93-0.14-1.85-0.28-2.73-0.41
		c-0.33-0.05-0.66-0.09-0.96-0.15c-1.23-0.22-2.25-0.41-2.91-0.53C210.74,305.94,208.05,305.82,203.94,305.49z"/>
	<g>
		<path class="st44" d="M325.12,274.57c0,0-7.29,28.16-46.66,18.94l1,3.08l-4.12-0.23c0,0,8.23,21.55,31.36,22.15
			c20.39,0.53,29.14-12.99,29.14-12.99l-3.71,0.27c0,0,11.01-10.24,2.57-23.49l-1.97,1.47
			C332.71,283.77,331.87,276.21,325.12,274.57z"/>
		<path d="M307.86,320.03c-0.4,0-0.81-0.01-1.22-0.02c-23.85-0.62-32.63-22.89-32.72-23.12l-0.83-2.16l4.25,0.24l-1.14-3.53
			l2.59,0.61c37.4,8.76,44.58-16.76,44.87-17.85l0.37-1.42l1.43,0.34c5.16,1.25,7.31,5.4,8.18,8.09l1.43-1.06l0.87,1.36
			c6.32,9.91,2.45,18.35-0.46,22.54l3.23-0.23l-1.63,2.53C336.71,306.91,327.99,320.03,307.86,320.03z M277.72,298
			c2.72,5.33,11.22,18.56,29,19.02c13.83,0.37,22.08-6.03,25.69-9.75l-4.43,0.32l3.12-2.9c0.39-0.37,9.24-8.88,3.14-20.19
			l-2.73,2.03l-0.29-2.6c-0.03-0.24-0.71-5.55-5.17-7.48c-2.23,5.76-12.48,25.67-45.37,19.07l0.87,2.68L277.72,298z"/>
	</g>
	<path class="st6" d="M331.52,321.24c-0.27,0.21,4.87,3.47,4.89,3.11s-0.79-4.66-0.79-4.66s2.8-2,2.7-2.37
		c-0.1-0.37-0.39-3.3-0.39-3.3s3.08-4.53,3.11-5.01c0.03-0.48-0.41-8.63-0.41-8.63S339.7,314.74,331.52,321.24z"/>
	<path class="st45" d="M326.62,277.45c0,0,6.07,6.52-6.74,14.25l-2.43-1.88C317.45,289.82,324.08,285.18,326.62,277.45z"/>
	<path class="st46" d="M241.25,330.37c0,0,10.45,19.08,34.19,16.97c11.72-1.25,16.47-9.95,16.47-9.95s42.57-7.23,43.11-40.05
		c0.08-4.93-2.35-9.7-6.82-12.33c-12.13-7.15-20.65,10.87-34.25,10.11c-15.87-0.89-19.07-20.51-31.23-19.38
		c-3.95,0.42-6.44,2.09-8.44,4.67c-3.43,4.43-5.44,11.59-10.98,19.89c-1.41,2.11-3.64,3.61-6.18,4.36
		c-13.98,4.12-12.73,12.47-9.65,16.4C229.87,324.14,234.24,327.32,241.25,330.37z"/>
	<path class="st47" d="M244.35,313.42c0,0,4.96,23.62,41.71,19.93s49.99-30.28,45.67-44.59c0,0,6.75,5.56-0.42,23.55
		c-7.17,17.99-39.72,25.3-39.72,25.3s-19.28,4.78-37.95-5.06C241.27,324.22,244.35,313.42,244.35,313.42z"/>
	<path class="st47" d="M284.21,307.32c0,0,20.51-2.94,23.77-16.72c0,0-4.83,2.75-9.57,4.42
		C298.41,295.02,295.86,304.31,284.21,307.32z"/>
	<path class="st47" d="M292.85,336.34c0,0-5.58,10.08-18.75,11.25c-13.17,1.17-26.35-5.5-33.17-17.01c0,0-17.93-5.68-15.2-17.82
		c0,0,2.37-4.63,11.07-7.89s11.51-13.65,11.51-13.65s0.82,10.11-8.35,17.35s-0.14,7.85,2.72,14.5c2.86,6.65,6.81,18.95,27.95,20.99
		c16.06,2.24,18.7-8.82,18.7-8.82L292.85,336.34z"/>
	<path class="st47" d="M239.45,322.12c0.58-0.16-1.29-7.25,10.67-5.81c0,0,3.56-1.89-0.42-3.5c-3.98-1.61-15.85-0.62-12.73,5.35
		C240.11,324.12,239.45,322.12,239.45,322.12z"/>
	<path d="M242.98,300.51c-2.01,3.73-6.4,4.68-9.86,6.34c-1.71,0.88-3.37,1.91-4.61,3.29c-7.61,8.82,6.06,15.97,13.01,19.07
		c0,0,0.45,0.2,0.45,0.2s0.27,0.46,0.27,0.46c5.58,9.14,15.83,15.59,26.59,16.2c7.04,0.72,14.53-1.14,19.38-6.51
		c0.98-1.05,1.79-2.14,2.42-3.3c0,0,0.7-0.14,0.7-0.14c12.77-2.68,26.03-8.37,34.53-18.56c4.18-5.06,6.73-11.33,7.21-17.88
		c0.62-4.61-0.91-9.53-4.74-12.35c-7.29-5.89-14.85,1.11-21.31,5.17c-10.21,7.01-21.32,5.29-29.18-4.25
		c-3.41-3.81-5.99-8.25-10.45-10.73c-4.45-2.32-10.32-0.78-13.43,3.11c2.89-4.46,9.07-6.53,14.03-4.4
		c4.86,2.12,8.18,6.7,11.84,10.16c7.84,8.05,15.89,10.07,25.6,3.58c5.76-3.53,12.17-9.46,19.63-7.54c5.61,1.51,9.88,6.36,10.88,12
		c1.1,8.9-2.11,18.16-7.74,25.04c-9.18,10.91-22.68,16.71-36.35,19.62c0,0,1.06-0.76,1.06-0.76c-1.47,2.45-3.29,4.27-5.48,5.97
		c-5.3,4.12-12.29,5.37-18.82,4.76c-9.15-0.55-17.91-4.87-24.19-11.49c-1.79-1.92-3.41-3.88-4.81-6.26c0,0,0.72,0.65,0.72,0.65
		c-5.49-2.54-11.61-5.41-14.92-10.85c-2.35-3.87-1.55-9.31,1.93-12.15c1.56-1.46,3.43-2.39,5.3-3.16
		C236.35,304.33,240.54,304.05,242.98,300.51L242.98,300.51z"/>
	<path d="M283.77,338.69c-36.84,0-41.63-21.78-41.83-22.78l2.94-0.59c0.2,0.98,5.44,23.86,48.43,19.91
		c0.22-0.02,19.57-1.65,34.06-19.96l2.35,1.86c-15.35,19.39-35.33,21.03-36.17,21.09C290.07,338.54,286.81,338.69,283.77,338.69z"/>
	<path d="M237.77,318.9c0.31-0.42,4.4-4.73,11.76-2.98c0,0-0.68-3.73-6.96-2.68C238.57,314.31,237.77,318.9,237.77,318.9z"/>
	<path d="M262.09,305.21c0,0,5.66,5.57,2.92,8.21s-6.65-0.16-4.94-3.87c0,0,0.17,1.62,2.44,1.02S262.09,305.21,262.09,305.21z"/>
	<path class="st48" d="M281.41,311.99c0,0,9.97,4.3,22.5,2.02c8.54-1.56,16.18-6.19,21.19-12.83c7.85-10.41,0.28-15.78-4.02-14.62
		C310.27,288.69,313.19,308.36,281.41,311.99z"/>
	<path class="st48" d="M251.12,332.3c0.44-0.02,16.74,10.73,35.46,7.39c0,0-2.86,5.08-16.87,3.37
		C255.71,341.35,251.12,332.3,251.12,332.3z"/>
	
		<ellipse transform="matrix(0.9993 -0.0376 0.0376 0.9993 -11.4784 11.4657)" class="st49" cx="299.01" cy="310.82" rx="3.16" ry="2.94"/>
	
		<ellipse transform="matrix(0.9993 -0.0376 0.0376 0.9993 -12.6002 10.2659)" class="st49" cx="266.56" cy="340.03" rx="2.18" ry="2.03"/>
	<path class="st44" d="M192.63,289.74c0,0,15.9,25.18,54.63,5.74l-0.15,3.24l4.27-1.33c0,0-2.36,22.97-26.5,29.74
		c-21.3,5.97-34.45-4.71-34.45-4.71l3.98-0.74c0,0-14.58-6.92-9.57-21.94l2.5,0.88C187.33,300.64,186,293.13,192.63,289.74z"/>
	<path class="st6" d="M229.44,348.93c0,0-2.8,3.53,0.74,10.45l1.91-4.27l5.89,7.95c0,0,0-6.63-0.59-15.75c0,0-3.98,0.29-5.3,4.86
		L229.44,348.93z"/>
	<path class="st6" d="M248.16,352.02c0.04-0.44-3.25,8.28,2.31,12.18l0.27-4.71c0,0,6.21,8.24,6.25,7.8
		c0.04-0.44,0.63-7.04,0.63-7.04s5.42,8.76,5.62,8.19c0.2-0.57,1.87-6.04,1.87-6.04l2.89,5.73l2.66-4.94l3.89,6.11l2.44-5.84
		l5.72,7.16c0,0,0.9-6.72,1.34-6.68c0.44,0.04,5.05,6.37,5.05,6.37l1.85-9.15l7.53,5.11l-0.09-5.63l6.16,3.8l-1.11-5.72
		c0,0-3.62-5.79-9.43-6.91l2.53,4.81l-8.84-3.6l1.86,5.64l-5.65-4.64l-0.34,5.44l-4.31-4.67l-2.19,6.31l-5.12-7.26l-1.15,6.25
		l-2.91-5.43l-2.35,4.82l-6.24-7.95l-1.9,6.33l-4.13-6.73l-2.39,5.26L248.16,352.02z"/>
	<path class="st6" d="M300.7,348.2c0,0,8.39,5.15,11.63,14.43l0.44-7.66l4.86,3.39l0.15-9.13l5.6,4.71c0,0-0.59-6.92-0.15-6.77
		c0.44,0.15,3.39,2.94,3.39,2.94l-0.59-6.48c0,0-3.39-8.54-16.34-7.36l5.6,4.27h-6.33l5.01,4.86c-2.36-1.47-8.11-3.38-9.42-1.18
		c-0.38,0.63,5.45,5.89,5.45,5.89S304.97,347.31,300.7,348.2z"/>
	<path class="st6" d="M194.25,332.74l6.63,11.34l5.15-0.44l7.51,9.72c0,0,3.98-1.62,4.42-1.47c0.44,0.15,7.51,6.48,7.51,6.48
		l-0.59-10.31l-6.77-4.86l-4.56,2.65l-5.6-8.69l-6.04,2.5L194.25,332.74z"/>
	<path class="st6" d="M320.73,334.36c-0.62,0.39,6.48,0.15,6.63-0.29c0.15-0.44-0.59-8.98-0.59-8.98s6.18,5.45,6.33,11.48
		c-0.29-0.74-3.98-3.39-3.98-3.39s2.36,3.24,1.62,10.16C330.44,339.51,326.17,335.98,320.73,334.36z"/>
	<path class="st50" d="M191.56,323.17c0,0,17.78,10.82,38.54,1.99c17.45-7.73,20.32-23.3,20.32-23.3s-12.15,20.43-40.75,17.34
		c-22.75-3.75-24.85-19.44-24.85-19.44s-5.85,14.47,10.05,21.53C194.98,320.85,191.56,323.17,191.56,323.17z"/>
	<path class="st50" d="M192.44,298.1c0,0-2.43,13.36,17.67,16.12c20.1,2.76,35.78-8.61,40.75-14.25l0.44-1.99
		c0,0-16.01,14.36-40.75,11.15C192.89,305.83,192.44,298.1,192.44,298.1z"/>
	<path class="st23" d="M251.38,297.4c-0.56,1.44-1.14,2.57-1.67,3.78c-0.55,1.2-1.05,2.47-1.72,4.08c-0.2,0.43-0.44,1.1-0.83,1.89
		c-0.2,0.39-0.41,0.82-0.65,1.28l-0.19,0.38c-0.08,0.15-0.15,0.31-0.24,0.45c-0.18,0.29-0.36,0.59-0.54,0.9
		c-0.38,0.6-0.7,1.25-1.16,1.84c-1.63,2.49-3.85,4.88-6.37,7.05c-0.66,0.51-1.32,1.02-1.99,1.53c-0.65,0.53-1.42,0.9-2.13,1.37
		c-1.4,0.95-2.99,1.6-4.5,2.32c-0.74,0.4-1.56,0.6-2.34,0.88c-0.79,0.27-1.56,0.53-2.33,0.79c-0.78,0.22-1.58,0.39-2.34,0.58
		c-0.77,0.17-1.52,0.41-2.28,0.49c-1.51,0.22-2.95,0.52-4.33,0.57c-0.69,0.05-1.35,0.11-2,0.16c-0.64,0-1.26,0-1.86,0
		c-1.19,0.04-2.27-0.06-3.22-0.14c-0.96-0.05-1.77-0.17-2.44-0.28c-0.67-0.1-1.2-0.17-1.55-0.24c-0.35-0.08-0.54-0.12-0.54-0.12
		s-0.4-0.09-1.23-0.27c-0.42-0.08-0.93-0.22-1.55-0.41c-0.62-0.18-1.36-0.37-2.18-0.69c-0.41-0.15-0.85-0.31-1.32-0.48
		c-0.46-0.19-0.94-0.4-1.45-0.61c-0.51-0.22-1.03-0.49-1.58-0.76c-0.28-0.13-0.55-0.29-0.83-0.45c-0.14-0.08-0.28-0.16-0.43-0.23
		c-0.1-0.05-0.07-0.04-0.08-0.04l0,0c0,0,0.01,0.01,0,0.01l0,0l0,0l0,0l0.22-0.04c0.39-0.07,0.78-0.14,1.17-0.22
		c0.78-0.15,1.58-0.29,2.38-0.44l0.76-0.14c-0.2-0.12-0.48-0.24-0.71-0.37c-0.97-0.5-2.11-1.03-2.92-1.53
		c-0.43-0.25-0.9-0.51-1.32-0.77c-0.18-0.11-0.45-0.31-0.56-0.39l-0.28-0.2c-1.8-1.3-4.03-3.42-5.6-6.32
		c-1.51-2.91-2.13-6.62-1.33-10.14c0.11-0.41,0.22-0.82,0.32-1.22l0,0l-0.33-0.12c0.41,0.14,0.82,0.29,1.23,0.43
		c0.38,0.13,0.76,0.27,1.13,0.4c0.33,0.12,0.65,0.23,0.97,0.34c0.22,0.16,0.12-0.14,0.1-0.31l-0.09-0.56
		c-0.05-0.37-0.1-0.73-0.15-1.08c-0.02-0.17-0.04-0.34-0.07-0.51l-0.01-0.4c0-0.24-0.02-0.58-0.01-0.72
		c0.01-0.13,0.01-0.26,0.02-0.39c0-0.25,0.04-0.48,0.06-0.7c0.05-0.43,0.12-0.79,0.18-1.06c0.37-1.57,0.86-2.72,1.46-3.78
		c0.62-1.05,1.35-2.04,2.5-3.09c-1.49,0.38-2.76,1-3.84,2.01c-1.07,1-1.94,2.41-2.41,4.34c-0.07,0.33-0.16,0.77-0.23,1.29
		c-0.02,0.26-0.07,0.54-0.08,0.85c-0.01,0.15-0.02,0.31-0.02,0.46l0,0.18v0.07l0,0l0,0l0,0l0.12,0.04l0.25,0.09l-0.33-0.12
		c-0.55-0.19-1.1-0.39-1.65-0.58l-0.33-0.12l-0.08-0.03c-0.02,0-0.02,0.05-0.03,0.07l-0.04,0.17l-0.18,0.68l-0.36,1.37
		c-0.13,0.51-0.27,1.02-0.4,1.53c-0.9,3.95-0.2,8.36,1.56,11.7c1.81,3.34,4.31,5.68,6.29,7.11l0.31,0.22
		c0.08,0.06,0.01,0.01,0.03,0.02l0,0l0,0l0,0l0,0c0.01,0-0.02,0,0.02,0l0.14-0.03c0.37-0.07,0.73-0.14,1.09-0.2l0.54-0.1l0.07-0.01
		c0.03-0.01,0.04-0.01,0,0l-0.16,0.03l-0.31,0.06c-0.42,0.08-0.83,0.15-1.24,0.23c-0.4,0.08-0.8,0.15-1.2,0.23
		c-0.33,0.09-0.66,0.18-0.98,0.26c-0.32,0.09-0.64,0.17-0.96,0.26l-0.24,0.06c-0.04,0.01-0.09,0.02-0.11,0.03l0.11,0.08l0.41,0.32
		c0.53,0.41,1.05,0.81,1.56,1.2c0.52,0.39,1.16,0.76,1.72,1.13l0.43,0.27c0.13,0.09,0.32,0.18,0.37,0.21
		c0.16,0.09,0.31,0.17,0.46,0.25c0.31,0.16,0.6,0.34,0.89,0.48c0.59,0.28,1.15,0.57,1.7,0.81c0.55,0.23,1.06,0.45,1.55,0.65
		c0.5,0.18,0.97,0.35,1.4,0.51c0.87,0.33,1.66,0.53,2.32,0.73c0.66,0.2,1.21,0.35,1.65,0.43c0.88,0.19,1.31,0.29,1.31,0.29
		s0.2,0.04,0.57,0.13c0.38,0.07,0.93,0.14,1.65,0.25c0.71,0.11,1.58,0.25,2.59,0.3c1.01,0.08,2.15,0.18,3.4,0.15
		c5.01,0.01,11.84-0.82,18.43-3.66c1.61-0.77,3.29-1.46,4.8-2.47c0.76-0.49,1.58-0.89,2.28-1.46c0.71-0.55,1.43-1.1,2.13-1.64
		c2.7-2.32,5.07-4.89,6.81-7.54c0.48-0.63,0.83-1.33,1.23-1.97c0.19-0.32,0.38-0.64,0.57-0.96c0.1-0.16,0.17-0.32,0.25-0.48l0.2-0.4
		c0.25-0.49,0.47-0.95,0.68-1.37c0.41-0.84,0.66-1.55,0.87-2.01c0.69-1.72,1.03-3.14,1.21-4.51
		C251.53,300.26,251.56,298.94,251.38,297.4z"/>
	<path d="M243.79,334.54c-6.29,11.71-21.98,5.63-21.98,5.63c16.12,8.06,24.07-3.31,24.07-3.31L243.79,334.54z"/>
	<path d="M286.53,343.49c0,0,4.2,2.98,10.27,0.66c6.07-2.32,7.07-6.07,7.07-6.07s-4.97,7.51-15.24,3.53L286.53,343.49z"/>
	<path class="st6" d="M177.76,333.44c0,0-4.2-14.58,1.99-30.7C179.74,302.74,167.38,315.99,177.76,333.44z"/>
	<path class="st6" d="M166.93,308.23c0,0,2.4-8.26,9.29-13.28C176.21,294.95,163.91,294.48,166.93,308.23z"/>
	<path class="st6" d="M162.84,299.79c0,0,2.94-5.53,8.6-8.08C171.44,291.71,162.74,289.54,162.84,299.79z"/>
	<path class="st45" d="M193.55,310.47c0,0,3.87,10.71,23.3,10.16c19.44-0.55,30.81-17.45,30.81-17.45s-15.68,14.02-37.88,8.17
		c0,0,2.43,4.53,7.84,6.29C217.62,317.64,202.71,318.42,193.55,310.47z"/>
	<path class="st45" d="M193.11,292.36c0.11,0.33-0.11,11.48,18.44,14.91s34.67-9.83,34.67-9.83s-19.33,10.27-35.78,5.96
		C196.09,299.76,193.11,292.36,193.11,292.36z"/>
</g>
<g id="on-head">
	<path class="st1" d="M162.82,245.37c0,0,18.19-35.72,78.69-57.08c0,0,16.2,8.69,36.96-0.59c0,0,28.56,5.74,42.04,15.89
		c0,0,8.67-11.61-3.29-23.81s-34.55-36.31-85.73-22.16S138.3,209.8,162.82,245.37z"/>
	<path class="st4" d="M262.57,134.33c0,0-43.7-3.21-57.2-11.48c-13.69-8.39-42.18-6.85-63.39,16.79s-37.88,47.6-45.17,76.97
		c-2.2,8.88-2,19.48-1.16,26.61c1.51,12.84,5.18,21,13.42,19.44c12.81-2.43,8.39-22.31,8.39-22.31s9.28-12.37,19.21,0.22l3.09,21.2
		c0,0,37.33-77.96,82.6-100.05S262.57,134.33,262.57,134.33z"/>
	<path class="st3" d="M134.17,237.18c0,0-8.1-6.33-16.71,3.17c0,0,3.9,20.1-7.88,21.87c-5.22,0.23-12.96-9.57-5.27-19.46
		c17.49-22.35,22.2-28.79,26.33-55.48c0,0-5.05,14.41-8.43,10.01c-7.73-10.05,12.37-38.83,29.6-54
		c17.23-15.17,34.57-12.52,46.82-7.62c11.6,4.64,38.98-3.2,38.98-3.2L134.17,237.18z"/>
	<path class="st26" d="M209.45,140.18c-0.44,0-33.35,5.41-59.08,36.33c-6.85,8.72-12.48,18.99-12.48,18.99s0.88-11.48,6.4-21.2
		c7.51-13.58,5.85-18.55-0.11-15.13c-11.93,7.84-22.42,28.27-19.1,33.9c2.11,3.59,5.56-5.82,8.5-13.25c0,0-11.26,49.14-4.42,54.77
		C136.01,240.23,209.45,140.18,209.45,140.18z"/>
	<path d="M139,266.86l-3.74-25.67c-2.59-3.17-5.3-4.77-8.08-4.77c-0.03,0-0.06,0-0.09,0c-3.86,0.05-6.94,3.12-8.02,4.34
		c0.5,2.73,1.87,12.3-2.16,18.41c-1.76,2.68-4.31,4.34-7.56,4.96c-2.94,0.56-5.54,0.04-7.7-1.55c-3.9-2.86-6.28-8.96-7.49-19.19
		c-0.42-3.55-1.57-16,1.2-27.14c6.46-26.05,20.07-49.26,45.51-77.61c20.41-22.75,49.78-26.57,65.29-17.06
		c13.04,7.99,56.09,11.24,56.53,11.27l0.57,0.04l0.4,0.42c0.18,0.19,0.77,0.92,0.53,2.24c-1.2,6.75-23.04,18.69-41.15,27.53
		c-44.28,21.6-81.54,98.57-81.91,99.35L139,266.86z M186.57,119.78c-13.23,0-29.71,5.51-43.47,20.86
		c-25.08,27.96-38.49,50.78-44.83,76.33c-2.64,10.65-1.53,22.65-1.13,26.07c1.07,9.09,3.19,14.85,6.28,17.12
		c1.49,1.09,3.24,1.43,5.37,1.02c2.46-0.47,4.3-1.66,5.61-3.66c3.94-5.97,1.62-16.74,1.59-16.85l-0.15-0.67l0.41-0.55
		c0.18-0.24,4.54-5.95,10.79-6.03c0.04,0,0.09,0,0.13,0c3.82,0,7.41,2.09,10.67,6.22l0.25,0.32l2.46,16.86
		c8.61-16.85,41.55-77.12,81.15-96.44c32.02-15.62,38.11-22.51,39.26-24.66c-7.91-0.65-44-3.99-56.39-11.58
		C200.25,121.47,193.91,119.78,186.57,119.78z"/>
	<path class="st2" d="M152.92,294.45c0,0-14.53-75.98,83.95-107.19c0,0,60.56-12.23,88.27,20.54c0,0,15.25-14.2-9.37-38.5
		c0,0-0.74-31.8-42.42-37.4c-40.64-5.3-76.38,13.99-76.38,13.99s-55.62,26.21-69.26,96.88c0,0-4.26,27.3,9.94,34.6
		c0,0,1.48,14.32,8.3,18.5C152.77,300.05,152.92,294.45,152.92,294.45z"/>
	<path class="st5" d="M153.17,247.78c0.37,0.28,18.7-60.37,97.77-68.47c0,0,53.6-4.56,71.26,19.14c0,0,5.45-26.94-32.1-34.31
		l17.96,2.06c0,0-2.65-23.56-36.07-30.04c-33.42-6.48-75.83,16.2-75.83,16.2s-38.87,18.85-59.78,76.12c0,0-4.71,16.05,4.42,24.88
		c0,0,1.91-14.72,10.31-27.98C151.11,225.4,143.3,240.42,153.17,247.78z"/>
	<path class="st6" d="M170.39,176.52l6.92-14.13l3.68,4.27l10.16-14.43l4.71,5.3l10.31-12.22l2.5,6.04l10.16-10.75l3.83,6.92
		l11.04-11.34l2.36,7.21l11.34-9.13l2.36,6.92l11.93-7.21l1.03,5.74l11.78-4.71l0.29,4.12l9.72-2.21l-15.31,7.8l1.47-5.01
		l-16.64,6.48l3.83-5.89l-16.64,9.42l3.68-8.1l-13.25,9.72l-0.44-6.18l-11.63,11.04l-1.91-7.21c0,0-11.34,11.04-11.34,10.6
		c0-0.44-1.62-6.48-1.62-6.48l-10.16,10.75l-3.09-4.56l-10.9,13.55l-2.36-4.56L170.39,176.52z"/>
	<path class="st6" d="M188.95,181.96c0,0,25.33-18.26,60.52-20.47c41.67-1.91,75.09,4.42,72.74,36.96c0,0,0.74-21.79-31.36-29.15
		C258.74,161.94,220.31,167.53,188.95,181.96z"/>
	<path class="st37" d="M220.46,191.83c0,0-75.56,31.95-68.32,102.63c0,0,0.09,4.56-4.85,1.77c-4.94-2.8-7.39-7.8-8.63-18.85
		c-0.36-24.15,6.85-40.64,6.85-40.64s-5.76,30.04-2.38,38.72c3.38,8.69,4.68-0.15,7.28-13.1
		C153.92,243.95,172.75,204.93,220.46,191.83z"/>
	<path class="st2" d="M259.62,169.74c0,0-0.29-5.89-3.24-5.3c-2.94,0.59,1.62,8.98,1.62,8.98s-19.14,5.45-22.82-11.78
		s18.7-27.09,33.57-22.23c14.87,4.86,17.67,29.01,17.67,29.01l8.1-6.48c0,0,3.24,12.07-11.19,18.4
		c-14.43,6.33-43.58,5.45-43.58,5.45S259.92,180.64,259.62,169.74z"/>
	<path class="st23" d="M277.72,185.84c3.86,1.47,6.41,2.4,11.02,3.42c0.5,0.12,1.23,0.25,2.08,0.49c0.43,0.11,0.89,0.23,1.38,0.36
		c0.25,0.06,0.5,0.13,0.76,0.2l0.39,0.1c0.56,0.17,1.13,0.34,1.7,0.51c0.72,0.22,1.45,0.42,2.16,0.68c2.89,0.93,5.74,2.13,8.57,3.45
		c2.81,1.37,5.56,2.96,8.21,4.77c2.6,1.86,5.12,3.92,7.41,6.24c0.3,0.27,0.56,0.59,0.84,0.89l1.13,1.25
		c0.57,0.67,1.14,1.15,1.71,1.7c0.04,0.02,0.07,0.11,0.11,0.06l0.11-0.11l0.22-0.21l0.42-0.42c0.29-0.27,0.56-0.56,0.82-0.89
		l0.79-0.95c0.16-0.19,0.16-0.22,0.25-0.34l0.19-0.29c0.26-0.39,0.53-0.77,0.74-1.18c0.22-0.41,0.46-0.81,0.66-1.23l0.55-1.28
		c1.41-3.44,1.73-7.29,1.2-10.92c-0.36-1.79-0.68-3.61-1.37-5.29l-0.46-1.28l-0.23-0.64l-0.3-0.6l-1.21-2.42
		c-0.37-0.83-0.89-1.55-1.37-2.31l-1.45-2.25c-1.04-1.44-2.17-2.79-3.25-4.19c-1.13-1.35-2.38-2.58-3.56-3.87l-0.45-0.48l-0.21-0.22
		l0.03,0.03l0,0l-0.05-0.56c-0.1-0.9-0.22-1.79-0.4-2.66c-1.27-6.49-4.14-12.62-8.31-17.69c-4.14-5.1-9.52-9.02-15.28-11.79
		c-2.89-1.38-5.89-2.45-8.9-3.36c-1.53-0.38-3.03-0.85-4.56-1.13l-2.29-0.48l-2.3-0.37c-1.53-0.28-3.06-0.39-4.58-0.54
		c-1.52-0.14-3.04-0.29-4.55-0.43c-1.52-0.07-3.03-0.09-4.53-0.14c-1.5-0.02-3-0.13-4.49-0.04c-2.98,0.12-5.94,0.13-8.85,0.46
		c-1.46,0.14-2.9,0.27-4.35,0.4c-1.43,0.2-2.86,0.41-4.27,0.61c-0.71,0.1-1.41,0.2-2.12,0.3c-0.7,0.13-1.4,0.26-2.09,0.39
		c-1.39,0.26-2.77,0.53-4.14,0.79c-1.36,0.32-2.71,0.63-4.05,0.94c-1.34,0.3-2.67,0.63-3.98,1.01c-5.26,1.37-10.27,3.09-15.05,4.89
		c-4.76,1.83-9.31,3.81-13.51,6.06c-8.38,4.59-15.32,9.83-21.15,14.83c-5.84,4.99-10.47,9.84-14.11,13.96
		c-1.83,2.05-3.36,3.97-4.71,5.63c-1.32,1.68-2.4,3.14-3.29,4.31c-1.7,2.4-2.6,3.68-2.6,3.68s-0.3,0.41-0.87,1.29
		c-0.56,0.88-1.47,2.2-2.61,4.04c-2.27,3.69-5.66,9.44-9.39,17.9c-0.96,2.1-1.81,4.42-2.82,6.86c-0.44,1.24-0.89,2.53-1.36,3.85
		c-0.23,0.66-0.47,1.33-0.71,2.01c-0.21,0.69-0.43,1.39-0.65,2.1c-0.43,1.42-0.91,2.88-1.32,4.39c-0.4,1.52-0.81,3.09-1.22,4.69
		c-0.44,1.6-0.74,3.29-1.12,5c-0.18,0.86-0.37,1.73-0.56,2.61c-0.15,1-0.24,1.86-0.33,2.8c-0.33,3.7-0.42,7.61-0.09,11.7
		c0.36,4.08,1.08,8.41,2.98,12.66c0.96,2.11,2.25,4.19,3.99,5.99c0.41,0.47,0.92,0.85,1.39,1.28c0.5,0.39,1.02,0.77,1.56,1.12
		l0.42,0.24l0.1,0.06l0,0l0,0l0,0l0,0c-0.01-0.04,0.01,0.04,0.02,0.13l0.07,0.45l0.15,0.9c0.42,2.41,1,4.84,1.83,7.27
		c0.85,2.42,1.93,4.89,3.68,7.14c0.5,0.71,1.19,1.35,1.87,2c0.39,0.29,0.79,0.58,1.19,0.87c0.4,0.27,0.82,0.47,1.23,0.71
		c0.41,0.24,0.9,0.42,1.36,0.63c0.24,0.1,0.51,0.17,0.77,0.25c0.26,0.08,0.52,0.16,0.83,0.19c0.57,0.1,1.23,0.14,1.95-0.01
		c0.71-0.11,1.46-0.54,2.01-1.07c0.55-0.56,0.88-1.21,1.09-1.85c0.11-0.32,0.18-0.64,0.22-0.97c0.02-0.18,0.07-0.47,0.04-0.69
		l-0.08-0.5c-0.14-0.92-0.26-1.88-0.35-2.87c-0.19-1.97-0.28-4.02-0.3-6.14c-0.09-8.46,1.17-17.94,4.25-27.51
		c3.06-9.57,8.08-19.14,14.86-27.71c3.35-4.31,7.21-8.3,11.33-12.02c2.03-1.9,4.23-3.6,6.39-5.36l3.37-2.47
		c0.56-0.41,1.12-0.83,1.69-1.22l1.74-1.14c4.6-3.12,9.45-5.85,14.32-8.35c2.44-1.24,4.9-2.41,7.37-3.49
		c1.23-0.56,2.47-1.06,3.7-1.58c0.35-0.14,0.69-0.27,1.03-0.41c0.91-0.36,1.77-0.71,2.58-1c1.6-0.61,2.94-1.06,3.74-1.34
		c4.48-1.52,6.9-2.73,10.59-4.59c-4.12-0.08-6.97,0.12-11.58,1.64c-0.82,0.28-2.2,0.74-3.84,1.36c-0.83,0.3-1.71,0.65-2.64,1.02
		c-0.35,0.14-0.7,0.28-1.06,0.42c-1.26,0.53-2.53,1.04-3.79,1.61c-2.52,1.1-5.03,2.3-7.52,3.57c-4.98,2.54-9.92,5.33-14.63,8.53
		l-1.79,1.17c-0.59,0.4-1.16,0.84-1.74,1.25l-3.46,2.53c-2.22,1.81-4.49,3.56-6.57,5.52c-4.24,3.83-8.22,7.95-11.69,12.41
		c-7,8.86-12.21,18.79-15.38,28.7c-3.19,9.91-4.49,19.72-4.4,28.5c0.02,2.2,0.12,4.33,0.32,6.4c0.1,1.04,0.22,2.05,0.38,3.07
		l0.03,0.19l0.01,0.05l0-0.01v0c0,0.01,0.01-0.03-0.01,0.03c-0.02,0.15-0.06,0.31-0.1,0.44c-0.09,0.28-0.22,0.49-0.33,0.61
		c-0.14,0.09-0.22,0.19-0.43,0.21c-0.19,0.04-0.47,0.04-0.78-0.02c-0.15-0.01-0.31-0.06-0.48-0.12c-0.17-0.06-0.33-0.09-0.51-0.16
		c-0.35-0.17-0.69-0.28-1.03-0.48c-0.33-0.2-0.7-0.37-1-0.58c-0.28-0.21-0.56-0.42-0.84-0.62c-0.51-0.5-1.03-0.96-1.44-1.54
		c-1.41-1.81-2.41-4-3.18-6.22c-0.76-2.23-1.3-4.52-1.7-6.78l-0.14-0.85l-0.06-0.42l-0.1-0.75c-0.04-0.29-0.05-0.6-0.12-0.87
		l-0.76-0.44l-0.99-0.57c-0.43-0.28-0.85-0.59-1.25-0.9c-0.37-0.36-0.79-0.65-1.13-1.05c-1.43-1.47-2.53-3.23-3.38-5.09
		c-1.67-3.74-2.38-7.78-2.71-11.63c-0.31-3.87-0.24-7.62,0.08-11.16c0.08-0.86,0.18-1.8,0.29-2.55c0.18-0.85,0.37-1.7,0.55-2.53
		c0.38-1.66,0.66-3.3,1.09-4.87c0.41-1.57,0.81-3.1,1.2-4.59c0.4-1.49,0.88-2.91,1.3-4.3c0.21-0.7,0.42-1.38,0.63-2.06
		c0.23-0.67,0.47-1.32,0.69-1.97c0.46-1.29,0.9-2.55,1.33-3.77c0.98-2.39,1.81-4.66,2.75-6.72c3.65-8.27,6.96-13.89,9.18-17.51
		c1.12-1.8,2-3.09,2.55-3.95c0.55-0.86,0.85-1.27,0.85-1.27s0.88-1.25,2.54-3.6c0.87-1.14,1.93-2.57,3.22-4.21
		c1.32-1.62,2.82-3.49,4.61-5.5c3.56-4.03,8.09-8.77,13.8-13.65c5.69-4.88,12.52-10.03,20.58-14.44c4.06-2.17,8.48-4.1,13.15-5.9
		c4.68-1.76,9.59-3.44,14.74-4.78c1.28-0.37,2.58-0.69,3.9-0.99c1.31-0.31,2.64-0.61,3.97-0.92c1.34-0.26,2.69-0.51,4.05-0.77
		c0.68-0.13,1.36-0.26,2.04-0.38c0.69-0.1,1.38-0.2,2.07-0.29c1.38-0.2,2.78-0.4,4.18-0.59c1.41-0.13,2.82-0.26,4.24-0.39
		c2.84-0.33,5.72-0.33,8.63-0.45c1.45-0.09,2.91,0.02,4.37,0.04c1.46,0.05,2.94,0.07,4.41,0.13c1.47,0.14,2.94,0.28,4.42,0.42
		c1.48,0.14,2.97,0.25,4.43,0.52l2.21,0.35l2.19,0.46c1.47,0.27,2.9,0.72,4.36,1.08c2.87,0.87,5.7,1.88,8.42,3.18
		c5.41,2.61,10.39,6.25,14.2,10.94c3.84,4.66,6.49,10.34,7.65,16.29c0.16,0.8,0.27,1.6,0.36,2.39l0.03,0.3l0.03,0.42l0.03,0.65
		l0.01,0.16c0.02,0.05,0.07,0.08,0.1,0.12l0.22,0.23l1.13,1.21c1.13,1.24,2.33,2.42,3.41,3.7c1.02,1.32,2.11,2.61,3.08,3.96
		l1.35,2.1c0.44,0.7,0.94,1.38,1.27,2.14l1.11,2.22l0.28,0.55l0.21,0.58l0.41,1.15c0.64,1.52,0.9,3.12,1.23,4.69
		c0.47,3.17,0.18,6.42-1.01,9.31l-0.46,1.08c-0.17,0.35-0.37,0.68-0.55,1.02c-0.17,0.35-0.4,0.66-0.61,0.98l-0.28,0.42l-0.01,0.01
		c-0.01,0.01,0,0,0.01,0.01l0,0c-0.01-0.01,0.02,0.03-0.02-0.02l-0.11-0.12l-0.44-0.48c-0.3-0.32-0.57-0.66-0.89-0.95
		c-2.44-2.47-5.1-4.65-7.86-6.62c-2.8-1.91-5.69-3.58-8.64-5.02c-2.97-1.39-5.95-2.63-8.95-3.6c-0.74-0.27-1.5-0.48-2.24-0.71
		c-0.59-0.18-1.18-0.35-1.77-0.53l-0.41-0.11c-0.27-0.07-0.53-0.14-0.79-0.2c-0.51-0.13-0.99-0.25-1.43-0.37
		c-0.88-0.24-1.63-0.37-2.15-0.49C284.65,185.21,281.81,185.33,277.72,185.84z"/>
	<path class="st42" d="M241.95,186.53c0,0,24.29-3.98,21.79-19.73c-2.5-15.75-18.4-2.8-9.28,3.09c0,0-18.63-2.11-11.78-19.44
		c7.51-18.99,39.02-13.55,45.06,0c6.04,13.55-0.44,24-0.44,24s7.95-4.71,6.48-17.08c0,0,11.78,27.68-17.82,29.3
		C275.97,186.68,261.39,194.63,241.95,186.53z"/>
	<path class="st43" d="M248.28,187.41c0,0,26.21-1.47,21.2-27.68c0,0-2.21,6.18-2.21,5.74c0-0.39,0.35-10.17-10.14-11.43
		c-3.57-0.43-7.17,1.25-8.79,4.46c-1.1,2.19-1.33,5.14,1.26,8.74c0,0-12.22-4.27-3.83-19.14c9.87-14.28,36.22-7.8,39.75,3.53
		c3.53,11.34,1.62,20.47-2.36,26.94c0,0,9.13-1.77,11.04-13.99c0,0,3.68,18.55-18.11,20.32
		C276.11,184.91,262.86,190.5,248.28,187.41z"/>
	<path class="st6" d="M260.21,186.23c-0.43,0.11,20.76-8.25,8.54-34.16c0,0-4.12-6.92-14.58-3.98c-10.45,2.94-9.72,12.52-9.72,12.52
		s-1.18-15.61,11.19-17.96c17.37-2.5,24.29,11.04,24.15,24.44C279.65,179.99,267.87,184.17,260.21,186.23z"/>
	<path class="st6" d="M272.43,144.27c0,0,9.28,3.39,9.72,15.31c0.44,11.93-1.33,15.17-5.01,18.85c0,0,8.83-3.68,8.98-21.64
		C285.24,146.18,272.43,144.27,272.43,144.27z"/>
	<path class="st51" d="M240.7,186.6c0,0,11.71,1.18,20.76-7.29c8.15-7.62,5.8-20.13-1.99-21.7c-1.85-0.37-3.81,0.02-5.37,1.08
		c-4.27,2.89-3.31,8.67-1.54,11.19c0,0-2.17-5.87,1.87-8.91c1.05-0.79,2.37-1.17,3.68-1.09c5.03,0.32,6.09,6.23,5.56,9.19
		C263.23,172.61,259.7,185.42,240.7,186.6z"/>
	<path class="st4" d="M192.33,130.14c0,0,8.83,5.89-0.59,11.19c-9.42,5.3-37.4,4.71-27.68-7.36
		C173.78,121.89,192.33,130.14,192.33,130.14z"/>
	<path class="st52" d="M188.99,128.36c0,0,6.61,4.4-0.44,8.37s-27.97,3.52-20.7-5.51C175.11,122.2,188.99,128.36,188.99,128.36z"/>
	<path class="st52" d="M101.05,238.8c0,0-4.12-20.02,10.31-44.17C111.35,194.63,112.53,218.77,101.05,238.8z"/>
	<path class="st37" d="M142.42,252.05c0,0-13.25-7.07-3.39-30.18c0,0-9.87,13.25-3.39,29.3c0,0,2.06,3.68,5.01,5.89L142.42,252.05z"
		/>
</g>
<g id="eyebrows">
	<path class="st44" d="M242.69,206.99c-5.74-20.61-23.71-22.09-23.71-22.09l5.6,9.28c-1.41-3.85-22.94-13.48-41.08,0.33
		c6.52-1.1,15.79-0.45,21.5,4.97c0,0-6.21-2.99-16.71-1.68c-9.67,1.2-17.14,9.31-17.56,19.05l-0.01,0.16
		c7.05-10.57,20.58-10.16,20.58-10.16c-20.02,2.91-19.74,20.46-18.64,28.77c0.93-1.31,13.65-18.05,54.27-13.49
		C226.93,222.13,248.43,227.61,242.69,206.99z"/>
	<path class="st50" d="M172.67,235.62c0,0,11.82-14.72,40.09-14.27c10.94-0.22,15.3,1.79,20.65,1.41c2.09-0.15,3.93-0.51,5.5-1.18
		c3.83-1.63,5.44-6.28,3.65-10.05c-1.46-3.09-4.78-6.61-12.24-8.07c0,0-1.88,4.31,1.88,8.83c0,0-5.63-12.59-20.21-9.28
		c0,0-0.94,5.23,4.64,9.17c0,0-6.96-7.49-23.08-1.92c0,0,0.55,3.91,6.74,5.46C200.28,215.72,178.51,215.76,172.67,235.62z"/>
	<path class="st45" d="M172.67,211.63c0,0,14.15-18.67,38-9.17c0,0-16.98-11.7-32.23-0.55l2.79,0.11
		C181.22,202.03,175.53,206.11,172.67,211.63z"/>
	<path class="st45" d="M184.12,194.06c-0.24,0.12,25.77-11.03,44.66,11.83c0,0,1.89-16.31-19.21-18.26l1.87,3.13
		C211.44,190.76,199.76,186.09,184.12,194.06z"/>
	<path class="st45" d="M172.67,235.62c0,0,2-25.75,24.08-28.51c0,0-12.65-2.84-20.79,8.46l2.68-0.18
		C178.64,215.39,172.32,224.15,172.67,235.62z"/>
	<path class="st53" d="M172.67,235.62c0,0,15.25-18.68,55.01-13.16c0,0,13.34,2.94,15.62-6.1c0,0-2.24,6.09-13.52,3.23
		C217.07,216.36,186.13,214.99,172.67,235.62z"/>
	<path class="st44" d="M271.33,208.87c3.99-19.67,19.23-23.29,19.23-23.29l-4.36,9.23c1.03-3.71,18.96-15.29,35.01-4.89
		c-5.6-0.19-13.47,1.58-18.1,7.28c0,0,5.16-3.53,14.16-3.66c8.29-0.12,15.01,6.39,15.79,15.28l0.01,0.14
		c-6.47-8.82-17.98-6.73-17.98-6.73c17.18,0.14,17.71,16.31,17.14,24.08c-0.85-1.08-12.42-14.86-46.82-5.54
		C285.42,220.78,267.34,228.54,271.33,208.87z"/>
	<path class="st50" d="M332.24,226.32c0,0-10.71-12.03-34.78-8.05c-9.33,1.18-12.96,3.58-17.53,3.91c-1.79,0.13-3.37,0.03-4.73-0.39
		c-3.34-1.02-4.91-5.09-3.55-8.77c1.11-3.02,3.79-6.68,10.07-8.97c0,0,1.79,3.72-1.21,8.36c0,0,4.25-12.28,16.81-11.08
		c0,0,1.03,4.68-3.55,9.01c0,0,5.6-7.76,19.58-4.68c0,0-0.3,3.66-5.5,5.87C307.84,211.52,326.39,208.81,332.24,226.32z"/>
	<path class="st45" d="M331.19,204.28c0,0-12.87-15.37-32.77-3.62c0,0,13.95-12.9,27.43-4.58l-2.37,0.45
		C323.48,196.53,328.51,199.57,331.19,204.28z"/>
	<path class="st45" d="M320.66,189.57c0.21,0.08-22.44-6.87-37.52,16.52c0,0-2.32-14.75,15.56-19.21l-1.46,3.12
		C297.24,190,306.99,184.23,320.66,189.57z"/>
	<path class="st45" d="M332.24,226.32c0,0-2.83-23.41-21.77-23.16c0,0,10.65-4.21,18.08,5.15l-2.29,0.17
		C326.26,208.48,332.03,215.74,332.24,226.32z"/>
	<path class="st53" d="M332.24,226.32c0,0-13.81-15.24-47.43-5.14c0,0-11.24,4.39-13.57-3.63c0,0,2.17,5.31,11.66,1.26
		C293.57,214.23,319.87,209.06,332.24,226.32z"/>
	<path class="st53" d="M172.67,235.62c0,0-3.71-25.27,18.64-28.77c0,0-14.46-0.46-20.57,10c0,0,3.72-27.74,35.19-16.92
		c0,0-17.34-9.72-31.8,3.09c0,0-9.17,9.39-5.41,20.76l3.2-4.86C171.9,218.92,168.46,224.93,172.67,235.62z"/>
	<path class="st53" d="M183.5,194.52c0,0,12.26-3.64,22.42,5.41C205.92,199.93,193,194.74,183.5,194.52z"/>
	<path class="st53" d="M321.21,189.92c0,0-12-1.04-18.1,7.28C303.11,197.2,314.62,191.54,321.21,189.92z"/>
	<path class="st53" d="M303.11,197.2c0,0,12.24-7.14,22.1-1.1c7.21,4.64,7.58,12,7.58,12s-6.33-8.1-18.77-5.67
		c0,0,19.34-2.87,18.21,23.89c0,0,2.92-14.17-3.71-19.84c0,0,4.27,2.8,5.6,5.52c0,0,2.58-13.84-10.31-18.77
		C312.7,189.18,303.11,197.2,303.11,197.2z"/>
	<path class="st53" d="M218.98,184.91l5.6,9.28C224.58,194.18,218.03,189.88,218.98,184.91z"/>
	<path class="st53" d="M286.2,194.81l4.36-9.23C290.56,185.57,291.06,191.78,286.2,194.81z"/>
</g>
</svg>
