<svg version="1.1" xmlns="http://www.w3.org/2000/svg" xmlns:xlink="http://www.w3.org/1999/xlink" x="0px" y="0px"
	 viewBox="0 0 510.24 595.28" style="enable-background:new 0 0 510.24 595.28;" xml:space="preserve">

<g id="NEW_x5F_NESTS">
	<circle class="st0" cx="68.88" cy="498.97" r="45.94"/>
	<circle class="st0" cx="68.88" cy="498.97" r="40.27"/>
	<circle class="st0" cx="431.31" cy="498.97" r="45.94"/>
	<path class="st0" d="M431.31,539.24c-22.21,0-40.27-18.06-40.27-40.27c0-22.2,18.07-40.27,40.27-40.27
		c22.2,0,40.27,18.06,40.27,40.27C471.58,521.17,453.52,539.24,431.31,539.24z"/>
	<circle class="st0" cx="101.13" cy="317.87" r="45.94"/>
	<circle class="st0" cx="101.13" cy="317.87" r="40.27"/>
	<circle class="st0" cx="101.13" cy="225.55" r="45.94"/>
	<circle class="st0" cx="101.13" cy="225.55" r="40.27"/>
	<circle class="st0" cx="86.11" cy="132.79" r="32.32"/>
	<circle class="st0" cx="86.11" cy="132.79" r="23.56"/>
	<circle class="st0" cx="412.98" cy="132.79" r="32.32"/>
	<circle class="st0" cx="412.98" cy="132.79" r="23.56"/>
	<circle class="st0" cx="397.74" cy="317.87" r="45.94"/>
	<path class="st0" d="M397.74,358.13c-22.2,0-40.27-18.06-40.27-40.27s18.07-40.27,40.27-40.27c22.21,0,40.27,18.06,40.27,40.27
		S419.95,358.13,397.74,358.13z"/>
	<circle class="st0" cx="397.74" cy="225.55" r="45.94"/>
	<path class="st0" d="M397.74,265.82c-22.2,0-40.27-18.06-40.27-40.27s18.07-40.27,40.27-40.27c22.21,0,40.27,18.06,40.27,40.27
		S419.95,265.82,397.74,265.82z"/>
	<g class="st1">
		<path class="st2" d="M135.8,380.41c-0.02-2.69,0.09-16.46,3.73-33c6.14-27.84,19.13-49.51,38.61-64.41
			c18.92-14.47,43.04-22.12,69.74-22.12c26.73,0,50.85,7.66,69.76,22.15c19.47,14.92,32.41,36.61,38.47,64.47
			c3.58,16.44,3.66,30.23,3.64,32.94v121.83l-223.95,1.31V380.41z"/>
		<path class="st2" d="M150.5,382.39c-0.02-2.57,0.07-15.71,3.53-31.66c5.63-25.96,17.25-45.94,34.56-59.4
			c16.1-12.52,36.6-19.14,59.29-19.14c22.71,0,43.21,6.63,59.3,19.16c17.29,13.47,28.87,33.47,34.43,59.44
			c3.4,15.87,3.47,29.04,3.45,31.62V495.1l-194.55,1.16V382.39z"/>
		<path class="st2" d="M165.2,382.36c-0.01-1.63,0-14.41,3.33-29.77c5.12-23.61,15.38-41.54,30.5-53.3
			c13.28-10.32,30.16-15.78,48.84-15.78c18.69,0,35.58,5.46,48.84,15.8c15.11,11.77,25.33,29.71,30.38,53.33
			c3.27,15.29,3.27,28.08,3.25,29.74v101.5l-165.15,0.98V382.36z"/>
		<path class="st2" d="M179.9,382.32c-0.01-1.16-0.04-13.25,3.13-27.87c4.61-21.25,13.51-37.14,26.45-47.2
			c10.45-8.13,23.73-12.43,38.39-12.43c14.67,0,27.94,4.3,38.38,12.43c12.93,10.07,21.79,25.96,26.34,47.22
			c3.12,14.58,3.07,26.65,3.05,27.86v90.32l-135.75,0.81V382.32z"/>
		<path class="st2" d="M194.6,462.06v-79.78c0,0-1.03-76.14,53.28-76.14s53.07,76.14,53.07,76.14v79.15L194.6,462.06z"/>
	</g>
	<path class="st5" d="M424.37,160.72v-37.88c0-6.16-4.99-11.15-11.15-11.15h0c-6.16,0-11.15,4.99-11.15,11.15v41.63L424.37,160.72z"
		/>
	<path class="st6" d="M420.62,160.7v-34.79c0-5.66-3.31-10.24-7.4-10.24h0c-4.09,0-7.4,4.59-7.4,10.24v38.24L420.62,160.7z"/>
	<path class="st7" d="M420.91,158.55l-2.06-7.8c0-1.13-10.9-1.13-10.9,0l-2.65,8.25L420.91,158.55z"/>
	<path class="st8" d="M388.93,181.49l12.26-22.06c0-3.72,24.34-3.72,24.34,0l13.19,22.88L388.93,181.49z"/>
	<path class="st9" d="M416.64,147.51L416.64,147.51c1.05,0,1.91-0.86,1.91-1.91v-16.64c0-1.05-0.86-1.91-1.91-1.91l0,0
		c-1.05,0-1.91,0.86-1.91,1.91v16.64C414.73,146.65,415.59,147.51,416.64,147.51z"/>
	<path class="st9" d="M410.02,147.51L410.02,147.51c1.05,0,1.91-0.86,1.91-1.91v-16.64c0-1.05-0.86-1.91-1.91-1.91l0,0
		c-1.05,0-1.91,0.86-1.91,1.91v16.64C408.1,146.65,408.96,147.51,410.02,147.51z"/>
	<path class="st10" d="M446.83,308.15l16.1,10.99c3.97,3.33,4.37,18.15,0,21.81l-16.69,11.82L446.83,308.15z"/>
	<path d="M465.67,334.95c0,0-13.99,6.92-10.9-21.2l-7.94-5.6l-0.6,44.61l16.69-11.82C464.36,339.57,465.25,337.54,465.67,334.95z"/>
	<path class="st10" d="M446.83,365.28l16.1,10.99c3.97,3.33,4.37,18.15,0,21.81l-16.69,11.82L446.83,365.28z"/>
	<path d="M465.67,392.07c0,0-13.99,6.92-10.9-21.2l-7.94-5.6l-0.6,44.61l16.69-11.82C464.36,396.7,465.25,394.67,465.67,392.07z"/>
	<path class="st10" d="M315.64,373.82c0,0,20.47-6.4,21.18-24.92c0.02-0.53,0.48-0.94,1.01-0.88l15.46,1.88
		c0.31,0.04,0.57,0.22,0.7,0.5c1.06,2.27,5.67,13.21,5.67,32.1L315.64,373.82z"/>
	<path d="M344.79,379.71l14.13,2.8c0,0,0.34-16.65-3.89-28.17c-0.35-0.94-1.75-0.68-1.75,0.33
		C353.32,361.1,352.24,372.66,344.79,379.71z"/>
	<path class="st8" d="M342.58,378.82c0,0,10.45-7.36,9.13-26.5l-13.25-1.91c0,0-1.47,18.7-19.73,23.56L342.58,378.82z"/>
	<path class="st10" d="M438.29,460.76c0,0,13.91-36.88,14.58-36.44c0.61,0.4,0.1-180.64,0.01-210.98
		c-0.02-5.75-0.79-11.49-2.47-16.99c-2.34-7.67-7.51-17.85-16.1-21.31l-26.94-1.62l-9.5,262.16L438.29,460.76z"/>
	<path class="st10" d="M459.34,462.16l-43.88-72.15c0,0-63.9-24.59-166.09-24.59v189.35l113.08-22.09l91.58-37.1L459.34,462.16z"/>
	<path class="st8" d="M374.09,378.23l63.75,48.52l1.71-210.24c0-12.75-4.22-43.09-32.19-43.09c-27.98,0-33.57,31.8-33.13,39.17
		C374.24,220.1,374.09,378.23,374.09,378.23z"/>
	<path class="st11" d="M415.02,352.76v57.13l-16.34,10.01l-20.76-19.73c0,0,16.2-13.1,15.75-55.95L415.02,352.76z"/>
	<path class="st10" d="M415.02,352.76c0,0-0.88,48.29-16.34,67.14l16.34-10.01V352.76z"/>
	<path class="st12" d="M418.85,150.75c0,0-5.78-1.91-10.9,0c0,0,5.04,0.04,4.93,4.56C412.89,155.31,413.11,150.05,418.85,150.75z"/>
	<path class="st13" d="M412.52,173.72c0,0,8.3-4.49,5.5-16.86c0,0,4.53,0.28,7.16,1.4l9.35,16.88L412.52,173.72z"/>
	<path class="st14" d="M415.98,156.57c0,0,2.36,13.1-11.93,16.79l21.57,1.1l-4.93-17.37L415.98,156.57z"/>
	<path class="st14" d="M434.6,424.32V211.41c0,0-1.77-34.6-28.56-34.6c-14.74,0-22.22,9.04-25.96,17.18
		c-2.48,5.38-3.63,11.27-3.63,17.18v168.97l-2.36-1.91V211.65c0-6.05,1.01-12.08,3.21-17.72c3.73-9.56,11.68-20.8,28.45-20.8
		c29.15,0,34.75,24.44,34.75,37.4c0,12.96,0,222.33,0,222.33L434.6,424.32z"/>
	<ellipse class="st15" cx="402.65" cy="315.73" rx="31.95" ry="38.36"/>
	<ellipse class="st15" cx="402.8" cy="225.18" rx="31.95" ry="38.36"/>
	<g>
		<ellipse class="st16" cx="400.44" cy="315.58" rx="27.98" ry="33.79"/>
		<ellipse class="st5" cx="403.24" cy="315.29" rx="20.47" ry="25.02"/>
		<ellipse class="st17" cx="410.09" cy="315.14" rx="12.74" ry="15.16"/>
		<ellipse class="st18" cx="411.86" cy="315.14" rx="10.33" ry="12.29"/>
	</g>
	<g>
		<ellipse class="st16" cx="400.44" cy="225.18" rx="27.98" ry="33.79"/>
		<ellipse class="st5" cx="403.24" cy="224.88" rx="20.47" ry="25.02"/>
		<ellipse class="st17" cx="410.09" cy="224.74" rx="12.74" ry="15.16"/>
		<ellipse class="st18" cx="411.86" cy="224.74" rx="10.33" ry="12.29"/>
	</g>
	<path class="st15" d="M434.02,424.91V220.39c0,0,2.5-43.44-29.89-43.44c0,0,31.8-4.86,31.8,43.29v206.58L434.02,424.91z"/>
	<path class="st19" d="M377.92,400.17l20.76,19.73c0,0,10.31-12.52,13.1-35.34l-21.06-10.6
		C390.73,373.96,387.49,390.6,377.92,400.17z"/>
	<path class="st20" d="M408.54,398.55l-20.76-13.69c0,0-3.68,8.54-6.77,11.34l21.35,17.96C402.36,414.16,408.4,401.2,408.54,398.55z
		"/>
	<path class="st21" d="M248.79,368.22c0,0,66.55-2.8,124.56,13.4l8.98,6.77l-4.42,11.78l20.76,19.73l39.17,13.25l8.98,14.58
		l-48.44,13.99c0,0,13.4-10.16,1.03-26.06c-12.37-15.9-68.61-38.72-150.48-38.72L248.79,368.22z"/>
	<path class="st8" d="M463.83,322.28l-8.17-4.93c0,0-0.48,3.63,0.28,7.16c0.77,3.59,4.13,6.02,7.79,5.86l1.35-0.06
		C465.08,330.31,465.51,326.09,463.83,322.28z"/>
	<path class="st8" d="M463.83,379.82l-8.17-4.93c0,0-0.48,3.63,0.28,7.16c0.77,3.59,4.13,6.02,7.79,5.86l1.35-0.06
		C465.08,387.84,465.51,383.63,463.83,379.82z"/>
	<path d="M446.24,439.93l-4.56-7.21v-223.8c0,0,1.33-10.75-7.07-22.53l11.78,0.88c0,0,6.49,9.74,6.49,26.08c0,0-5.9-1.64-6.49,8.52
		L446.24,439.93z"/>
	<path d="M440.64,179.46l-12.59-0.44c0,0-3.39-2.94-11.41-5.01l17.89,1.12C434.53,175.14,438.8,177.18,440.64,179.46z"/>
	<path class="st22" d="M423.86,157.74c0,0-0.59-0.07-2.58-0.59c0,0,4.93,13.03,1.03,17.37c0.22,0.29,9.06,0.52,9.06,0.52
		L423.86,157.74z"/>
	<polygon class="st23" points="428.86,181.08 442.41,181.52 444.4,184.54 432.03,184.47 	"/>
	<polygon points="464.35,514.43 462.25,467.83 434.2,424.21 445.91,434.59 464.13,467.17 	"/>
	<polygon points="452.86,424.32 446.57,439.23 444.58,435.91 451.43,422.44 453.08,403.12 	"/>
	<path class="st24" d="M170.7,546.23l-31.95,11.78l-104.1-43.58l1.62-46.5l119.56,35.16C155.83,503.09,171.43,530.77,170.7,546.23z"
		/>
	<path class="st5" d="M74.62,160.72v-37.88c0-6.16,4.99-11.15,11.15-11.15h0c6.16,0,11.15,4.99,11.15,11.15v41.63L74.62,160.72z"/>
	<path class="st6" d="M78.38,160.7v-34.79c0-5.66,3.31-10.24,7.4-10.24h0c4.09,0,7.4,4.59,7.4,10.24v38.24L78.38,160.7z"/>
	<path class="st7" d="M78.08,158.55l2.06-7.8c0-1.13,10.9-1.13,10.9,0l2.65,8.25L78.08,158.55z"/>
	<path class="st8" d="M110.07,181.49l-12.26-22.06c0-3.72-24.34-3.72-24.34,0l-13.19,22.88L110.07,181.49z"/>
	<path class="st9" d="M82.35,147.51L82.35,147.51c-1.05,0-1.91-0.86-1.91-1.91v-16.64c0-1.05,0.86-1.91,1.91-1.91l0,0
		c1.05,0,1.91,0.86,1.91,1.91v16.64C84.27,146.65,83.41,147.51,82.35,147.51z"/>
	<path class="st9" d="M88.98,147.51L88.98,147.51c-1.05,0-1.91-0.86-1.91-1.91v-16.64c0-1.05,0.86-1.91,1.91-1.91l0,0
		c1.05,0,1.91,0.86,1.91,1.91v16.64C90.89,146.65,90.03,147.51,88.98,147.51z"/>
	<path class="st10" d="M52.16,308.15l-16.1,10.99c-3.97,3.33-4.37,18.15,0,21.81l16.69,11.82L52.16,308.15z"/>
	<path d="M33.32,334.95c0,0,13.99,6.92,10.9-21.2l7.94-5.6l0.6,44.61l-16.69-11.82C34.64,339.57,33.75,337.54,33.32,334.95z"/>
	<path class="st10" d="M52.16,365.28l-16.1,10.99c-3.97,3.33-4.37,18.15,0,21.81l16.69,11.82L52.16,365.28z"/>
	<path d="M33.32,392.07c0,0,13.99,6.92,10.9-21.2l7.94-5.6l0.6,44.61l-16.69-11.82C34.64,396.7,33.75,394.67,33.32,392.07z"/>
	<path class="st10" d="M183.36,373.82c0,0-20.47-6.4-21.18-24.92c-0.02-0.53-0.48-0.94-1.01-0.88l-15.46,1.88
		c-0.31,0.04-0.57,0.22-0.7,0.5c-1.06,2.27-5.67,13.21-5.67,32.1L183.36,373.82z"/>
	<path d="M154.21,379.71l-14.13,2.8c0,0-0.34-16.65,3.89-28.17c0.35-0.94,1.75-0.68,1.75,0.33
		C145.67,361.1,146.76,372.66,154.21,379.71z"/>
	<path class="st8" d="M156.42,378.82c0,0-10.45-7.36-9.13-26.5l13.25-1.91c0,0,1.47,18.7,19.73,23.56L156.42,378.82z"/>
	<path class="st10" d="M60.71,460.76c0,0-13.91-36.88-14.58-36.44c-0.61,0.4-0.1-180.64-0.01-210.98
		c0.02-5.75,0.79-11.49,2.47-16.99c2.34-7.67,7.51-17.85,16.1-21.31l26.94-1.62l9.5,262.16L60.71,460.76z"/>
	<path class="st10" d="M39.66,462.16l43.88-72.15c0,0,63.9-24.59,166.09-24.59v189.35l-113.08-22.09l-91.58-37.1L39.66,462.16z"/>
	<path class="st8" d="M124.91,378.23l-63.75,48.52l-1.71-210.24c0-12.75,4.22-43.09,32.19-43.09s33.57,31.8,33.13,39.17
		C124.76,220.1,124.91,378.23,124.91,378.23z"/>
	<ellipse class="st24" cx="247.89" cy="488.86" rx="165.31" ry="68.29"/>
	<path class="st10" d="M409.2,473.96c1.7,2.8,2.7,6,2.73,9.29c0.37,37.99-70.05,70.44-163.79,70.44
		c-93.72,0-164.13-32.43-163.79-70.41c0.03-3.3,1.04-6.52,2.76-9.33l21.23-34.78h279.76L409.2,473.96z"/>
	<path class="st25" d="M391.99,447.45c7.04,29.28-57.04,55.2-143.79,55.2s-150.83-25.93-143.79-55.2
		c6.41-26.66,70.57-46.59,143.79-46.59S385.58,420.78,391.99,447.45z"/>
	<path class="st25" d="M341.8,447.45c2.93,18.74-38.89,34.81-93.6,34.81s-96.53-16.07-93.6-34.81c2.76-17.63,44.6-31.18,93.6-31.18
		S339.04,429.81,341.8,447.45z"/>
	<path class="st26" d="M391.99,447.45c7.04,29.28-57.04,55.2-143.79,55.2s-150.83-25.93-143.79-55.2
		c6.41-26.66,70.57-46.59,143.79-46.59S385.58,420.78,391.99,447.45z"/>
	<path class="st27" d="M248.08,406.08c-67.93,0-127.45,17.05-133.4,39.86c-6.53,25.05,52.92,47.23,133.4,47.23
		s139.93-22.18,133.4-47.23C375.53,423.13,316.01,406.08,248.08,406.08z"/>
	<path class="st25" d="M381.61,445.66c6.53,25.05-52.92,47.23-133.4,47.23s-139.93-22.18-133.4-47.23
		c5.95-22.81,65.47-39.86,133.4-39.86S375.65,422.85,381.61,445.66z"/>
	<path class="st28" d="M349.85,463.19c0.88,5.6-1.92,10.97-7.68,15.83c-26.15,13.32-128.48,20.24-188.16-0.19
		c-5.6-4.8-8.32-10.11-7.45-15.63c3-19.15,48.44-33.86,101.64-33.86S346.85,444.04,349.85,463.19z"/>
	<path class="st8" d="M163.09,494.59l-17.53,42.56c0,0,73.38,30.26,181.4,7.21l-14-45.81C312.96,498.55,243.97,513.39,163.09,494.59
		z"/>
	<path class="st29" d="M180.77,545.63c0,0,19.65-35.49,8.77-44.96c0,0,42.27,6.65,84.55,3.39c0,0-14.99,21.63,4.67,45.95
		C278.75,550.01,225.44,554.82,180.77,545.63z"/>
	<path class="st238" d="M191.9,487.71c0,0-8.17-36,55.44-36s53.67,37.1,53.67,37.1S237.4,496.54,191.9,487.71z"/>
	<path class="st18" d="M244.79,489.8c-18.27,0-34.24-1.13-47.55-3.36c0.14-3.01,1.03-7.52,4.55-11.84
		c7.3-8.96,23.05-13.69,45.55-13.69c22.05,0,37.37,4.7,44.31,13.58c3.58,4.59,4.29,9.46,4.26,12.7
		C287.33,488.06,267.25,489.8,244.79,489.8z"/>
	<path d="M121.95,436.1c0,0-22.58,13.43,6.4,34.32c0,0,34.63,22.99,120.38,22.99c0,0,80.76,2.43,122.66-24.76
		c0,0,27.14-21.27-0.98-36.08c0,0,18.62,9.56,5.52,27.28c-3.79,4.96-8.8,8.82-14.38,11.5c-13.95,6.7-48.54,19.18-112.71,19.18
		c-87.71,0-119.84-22.88-119.84-22.88S103.6,451.46,121.95,436.1z"/>
	<path class="st239" d="M345.73,446.78c3.06,19.51-40.51,36.25-97.47,36.25s-100.53-16.74-97.47-36.25
		c2.88-18.36,46.45-32.47,97.47-32.47S342.86,428.42,345.73,446.78z"/>
	<path class="st11" d="M83.97,352.76v57.13l16.34,10.01l20.76-19.73c0,0-16.2-13.1-15.75-55.95L83.97,352.76z"/>
	<path class="st10" d="M83.97,352.76c0,0,0.88,48.29,16.34,67.14l-16.34-10.01V352.76z"/>
	<path class="st12" d="M80.15,150.75c0,0,5.78-1.91,10.9,0c0,0-5.04,0.04-4.93,4.56C86.11,155.31,85.89,150.05,80.15,150.75z"/>
	<path class="st13" d="M86.48,173.72c0,0-8.3-4.49-5.5-16.86c0,0-4.53,0.28-7.16,1.4l-9.35,16.88L86.48,173.72z"/>
	<path class="st14" d="M83.02,156.57c0,0-2.36,13.1,11.93,16.79l-21.57,1.1l4.93-17.37L83.02,156.57z"/>
	<path class="st14" d="M64.39,424.32V211.41c0,0,1.77-34.6,28.56-34.6c14.74,0,22.22,9.04,25.96,17.18
		c2.48,5.38,3.63,11.27,3.63,17.18v168.97l2.36-1.91V211.65c0-6.05-1.01-12.08-3.21-17.72c-3.73-9.56-11.68-20.8-28.45-20.8
		c-29.15,0-34.75,24.44-34.75,37.4c0,12.96,0,222.33,0,222.33L64.39,424.32z"/>
	<ellipse class="st15" cx="96.34" cy="315.73" rx="31.95" ry="38.36"/>
	<ellipse class="st15" cx="96.2" cy="225.18" rx="31.95" ry="38.36"/>
	<g>
		<ellipse class="st16" cx="98.55" cy="315.58" rx="27.98" ry="33.79"/>
		<ellipse class="st5" cx="95.75" cy="315.29" rx="20.47" ry="25.02"/>
		<ellipse class="st17" cx="88.91" cy="315.14" rx="12.74" ry="15.16"/>
		<ellipse class="st18" cx="87.14" cy="315.14" rx="10.33" ry="12.29"/>
	</g>
	<g>
		<ellipse class="st16" cx="98.55" cy="225.18" rx="27.98" ry="33.79"/>
		<ellipse class="st5" cx="95.75" cy="224.88" rx="20.47" ry="25.02"/>
		<ellipse class="st17" cx="88.91" cy="224.74" rx="12.74" ry="15.16"/>
		<ellipse class="st18" cx="87.14" cy="224.74" rx="10.33" ry="12.29"/>
	</g>
	<path class="st15" d="M64.98,424.91V220.39c0,0-2.5-43.44,29.89-43.44c0,0-31.8-4.86-31.8,43.29v206.58L64.98,424.91z"/>
	<path class="st19" d="M121.08,400.17l-20.76,19.73c0,0-10.31-12.52-13.1-35.34l21.06-10.6
		C108.27,373.96,111.51,390.6,121.08,400.17z"/>
	<path class="st20" d="M90.45,398.55l20.76-13.69c0,0,3.68,8.54,6.77,11.34l-21.35,17.96C96.64,414.16,90.6,401.2,90.45,398.55z"/>
	<path class="st21" d="M250.21,368.22c0,0-66.55-2.8-124.56,13.4l-8.98,6.77l4.42,11.78l-20.76,19.73l-39.17,13.25l-8.98,14.58
		l48.44,13.99c0,0-13.4-10.16-1.03-26.06c12.37-15.9,68.61-38.72,150.48-38.72L250.21,368.22z"/>
	<path class="st8" d="M35.16,322.28l8.17-4.93c0,0,0.48,3.63-0.28,7.16c-0.77,3.59-4.13,6.02-7.79,5.86l-1.35-0.06
		C33.91,330.31,33.49,326.09,35.16,322.28z"/>
	<path class="st8" d="M35.16,379.82l8.17-4.93c0,0,0.48,3.63-0.28,7.16c-0.77,3.59-4.13,6.02-7.79,5.86l-1.35-0.06
		C33.91,387.84,33.49,383.63,35.16,379.82z"/>
	<path d="M52.76,439.93l4.56-7.21v-223.8c0,0-1.33-10.75,7.07-22.53l-11.78,0.88c0,0-6.49,9.74-6.49,26.08c0,0,5.9-1.64,6.49,8.52
		L52.76,439.93z"/>
	<path d="M58.35,179.46l12.59-0.44c0,0,3.39-2.94,11.41-5.01l-17.89,1.12C64.47,175.14,60.2,177.18,58.35,179.46z"/>
	<path class="st22" d="M75.14,157.74c0,0,0.59-0.07,2.58-0.59c0,0-4.93,13.03-1.03,17.37c-0.22,0.29-9.06,0.52-9.06,0.52
		L75.14,157.74z"/>
	<polygon class="st23" points="70.13,181.08 56.59,181.52 54.6,184.54 66.97,184.47 	"/>
	<path class="st10" d="M138.54,554.48L36.27,512.56v-44.64C36.27,467.93,94.42,451.46,138.54,554.48z"/>
	<path class="st8" d="M36.27,467.93l13.2-22.05c0,0,79.04-7.62,115.2,97.3l-26.12,11.3C138.54,554.48,102.11,457.72,36.27,467.93z"
		/>
	<path class="st21" d="M138.54,554.48c0,0,10.81-8.52,5.8-19.31c-5.01-10.79-39.17-73.46-92.91-75.21c0,0-7.36-1.31-15.17,7.43
		l13.2-21.51c0,0-0.09,6.49,3.88,6.93s59.19-3.64,97.77,79.88c0,0,3.39,8.89,13.55,10.49L138.54,554.48z"/>
	<path class="st240" d="M124.32,545.08c0,0-17.23-57.43-53.45-72.15l-1.03,48.68L124.32,545.08z"/>
	<path class="st5" d="M80.94,515.76c-5.88,4.55-16,1.32-22.59-7.2s-7.16-19.12-1.27-23.67c1.77-1.37,3.94-2.02,6.27-2.05
		c-7.32-3.86-15.02-4.19-20.32-0.09c-8.39,6.48-7.57,21.58,1.82,33.73c9.39,12.15,23.8,16.74,32.18,10.26
		c3.76-2.91,5.66-7.56,5.77-12.9C82.27,514.56,81.65,515.21,80.94,515.76z"/>
	<path class="st28" d="M75.21,493.01c-3.46-4.47-7.6-7.92-11.87-10.17c-2.33,0.03-4.49,0.68-6.27,2.05
		c-5.88,4.55-5.31,15.15,1.27,23.67s16.7,11.75,22.59,7.2c0.72-0.55,1.33-1.2,1.86-1.92C82.94,507.29,80.38,499.7,75.21,493.01z"/>
	<path class="st24" d="M66.89,529.67l15.98-0.22c0,0,11.56-0.66,13.47-12.59c1.91-11.93-1.47-25.62-15.9-37.77s-27.68-5.6-27.68-5.6
		l-11.34,10.67c0,0,5.41-8.12,21.92-1.33c0,0,20.71,10.39,19.23,33.51C80.66,530.04,66.89,529.67,66.89,529.67z"/>
	<path class="st18" d="M81.88,507.14c0,0-6.96,5.19-14.69-4.97s0.22-16.34,0.22-16.34S79.34,493.52,81.88,507.14z"/>
	<path class="st241" d="M81.88,507.14c0,0-5.28,2.49-11.87-2.99c-2.24-1.87-4.06-4.24-5-7c-2.54-7.47,2.7-11.51,2.7-11.51
		l-2.36-1.47c0,0-11.41,6.55-1.77,19.58s18.85,6.33,18.85,6.33L81.88,507.14z"/>
	
		<ellipse transform="matrix(0.7912 -0.6115 0.6115 0.7912 -295.8613 142.1586)" class="st242" cx="60.28" cy="504.41" rx="18.65" ry="27.02"/>
	<path d="M66.01,529.52l16.86-0.07c0,0,13.58-0.7,13.88-16.53l-11.96,4.01c0,0-0.7,5.08-5.34,9.13S66.01,529.52,66.01,529.52z"/>
	<path d="M88.61,487.52c0,0,11.63,14.02,6.37,33.28c0,0-2.39,7.14-12.07,8.47c0,0,9.53,0.99,13.99-7.51
		C101.35,513.25,98.74,495.58,88.61,487.52z"/>
	<polygon points="34.65,514.43 36.75,467.83 64.8,424.21 53.09,434.59 34.87,467.17 	"/>
	<polygon points="46.13,424.32 52.43,439.23 54.42,435.91 47.57,422.44 45.91,403.12 	"/>
	<path class="st29" d="M108.53,486.38l7.4-5.52c0,0,19.55,18.99,33.02,47.82c0,0,3.98,11.82,13.58,13.69l-21.42,9.61
		c0,0,6.74-6.52,4.09-14.13C143.07,531.76,134.7,513.22,108.53,486.38z"/>
	<path class="st243" d="M36.53,469.26c0,0,60.4-14.58,99.17,87.68l3.06,1.07l3.57-1.73c0,0-19.33-50.02-46.49-72.33
		c-33.35-25.62-57.53-18.88-57.53-18.88l-2.02,2.86L36.53,469.26z"/>
	<path class="st18" d="M68.22,471.47c0,0,30.59,10.38,54.88,52.9C123.1,524.37,107.64,486.16,68.22,471.47z"/>
	<path class="st28" d="M50.66,445.74c0,0,65.93-4.75,102.92,71.78l0.99-2.1C154.58,515.42,126.2,445.41,50.66,445.74z"/>
	<path class="st24" d="M328.42,546.23l31.95,11.78l104.1-43.58l-1.62-46.5l-92.93,13.37c-5.63,2.91-11.39,5.59-17.52,7.66
		C352.39,488.96,332.07,524.74,328.42,546.23z"/>
	<path class="st10" d="M360.57,554.48l102.27-41.91v-44.64C462.85,467.93,404.7,451.46,360.57,554.48z"/>
	<path class="st8" d="M462.85,467.93l-13.2-22.05c0,0-79.04-7.62-115.2,97.3l26.12,11.3C360.57,554.48,397,457.72,462.85,467.93z"/>
	<path class="st21" d="M360.57,554.48c0,0-10.81-8.52-5.8-19.31s39.17-73.46,92.91-75.21c0,0,7.36-1.31,15.17,7.43l-13.2-21.51
		c0,0,0.09,6.49-3.88,6.93s-59.19-3.64-97.77,79.88c0,0-3.39,8.89-13.55,10.49L360.57,554.48z"/>
	<path class="st240" d="M374.8,545.08c0,0,17.23-57.43,53.45-72.15l1.03,48.68L374.8,545.08z"/>
	<path class="st5" d="M418.18,515.76c5.88,4.55,16,1.32,22.59-7.2s7.16-19.12,1.27-23.67c-1.77-1.37-3.94-2.02-6.27-2.05
		c7.32-3.86,15.02-4.19,20.32-0.09c8.39,6.48,7.57,21.58-1.82,33.73c-9.39,12.15-23.8,16.74-32.18,10.26
		c-3.76-2.91-5.66-7.56-5.77-12.9C416.85,514.56,417.46,515.21,418.18,515.76z"/>
	<path class="st28" d="M423.91,493.01c3.46-4.47,7.6-7.92,11.87-10.17c2.33,0.03,4.49,0.68,6.27,2.05
		c5.88,4.55,5.31,15.15-1.27,23.67s-16.7,11.75-22.59,7.2c-0.72-0.55-1.33-1.2-1.86-1.92C416.18,507.29,418.73,499.7,423.91,493.01z
		"/>
	<path class="st24" d="M432.22,529.67l-15.98-0.22c0,0-11.56-0.66-13.47-12.59c-1.91-11.93,1.47-25.62,15.9-37.77
		c14.43-12.15,27.68-5.6,27.68-5.6l11.34,10.67c0,0-5.41-8.12-21.92-1.33c0,0-20.71,10.39-19.23,33.51
		C418.45,530.04,432.22,529.67,432.22,529.67z"/>
	<path class="st18" d="M417.24,507.14c0,0,6.96,5.19,14.69-4.97s-0.22-16.34-0.22-16.34S419.78,493.52,417.24,507.14z"/>
	<path class="st241" d="M417.24,507.14c0,0,5.28,2.49,11.87-2.99c2.24-1.87,4.06-4.24,5-7c2.54-7.47-2.7-11.51-2.7-11.51l2.36-1.47
		c0,0,11.41,6.55,1.77,19.58s-18.85,6.33-18.85,6.33L417.24,507.14z"/>
	
		<ellipse transform="matrix(0.6115 -0.7912 0.7912 0.6115 -228.6198 543.1871)" class="st242" cx="438.84" cy="504.41" rx="27.02" ry="18.65"/>
	<path d="M433.1,529.52l-16.86-0.07c0,0-13.58-0.7-13.88-16.53l11.96,4.01c0,0,0.7,5.08,5.34,9.13
		C424.31,530.11,433.1,529.52,433.1,529.52z"/>
	<path d="M410.5,487.52c0,0-11.63,14.02-6.37,33.28c0,0,2.39,7.14,12.07,8.47c0,0-9.53,0.99-13.99-7.51
		C397.77,513.25,400.38,495.58,410.5,487.52z"/>
	<path class="st29" d="M390.59,486.38l-7.4-5.52c0,0-19.55,18.99-33.02,47.82c0,0-3.98,11.82-13.58,13.69l21.42,9.61
		c0,0-6.74-6.52-4.09-14.13C356.04,531.76,364.42,513.22,390.59,486.38z"/>
	<path class="st243" d="M462.59,469.26c0,0-60.4-14.58-99.17,87.68l-3.06,1.07l-3.57-1.73c0,0,19.33-50.02,46.49-72.33
		c33.35-25.62,57.53-18.88,57.53-18.88l2.02,2.86L462.59,469.26z"/>
	<path class="st18" d="M430.9,471.47c0,0-30.59,10.38-54.88,52.9C376.01,524.37,391.47,486.16,430.9,471.47z"/>
	<path class="st28" d="M448.45,445.74c0,0-65.93-4.75-102.92,71.78l-0.99-2.1C344.54,515.42,372.92,445.41,448.45,445.74z"/>
	<path class="st29" d="M102.53,421.67l29.52-26.06c0,0,41.15-17.67,123.17-17.67v4.56c0,0-76.27-1.03-123.53,18.41l-27.39,23.85
		l-45.35,14.87l2.43-3.83L102.53,421.67z"/>
	<path class="st29" d="M395.68,421.67l-29.52-26.06c0,0-41.15-17.67-123.17-17.67v4.56c0,0,76.27-1.03,123.53,18.41l27.39,23.85
		l45.35,14.87l-2.43-3.83L395.68,421.67z"/>
</g>
<g id="tail">
</g>
<g id="body">
</g>
<g id="head">
</g>
<g id="accessory">
</g>
<g id="right-wing">
</g>
<g id="eyes">
</g>
<g id="beak">
</g>
<g id="on-head">
</g>
<g id="eyebrows">
</g>
<g id="BIRD_x5F_1">
</g>
</svg>
